<svg width="280" height="253" viewBox="0 0 280 253" fill="none" xmlns="http://www.w3.org/2000/svg">
<rect y="69.4014" width="150" height="207" rx="10" transform="rotate(-27.5598 0 69.4014)" fill="#302F2F"/>
<rect x="10.7935" y="72.792" width="134" height="192" rx="5" transform="rotate(-27.5598 10.7935 72.792)" fill="white"/>
<path fill-rule="evenodd" clip-rule="evenodd" d="M140.742 115.513L140.743 115.513L128.952 153.818L86.8173 140.848C76.2398 137.593 70.3044 126.378 73.5603 115.801C76.8162 105.223 88.0304 99.2879 98.6079 102.544L102.438 103.723L103.617 99.8914C106.873 89.3139 118.087 83.3785 128.665 86.6344C139.242 89.8902 145.177 101.104 141.922 111.682L140.742 115.513Z" fill="#CD0000"/>
<path d="M48.3828 74.7526L55.5253 88.5088C56.1453 89.7029 56.6186 90.7458 56.9451 91.6375C57.2836 92.523 57.4969 93.4886 57.5851 94.5344C57.7382 96.2893 57.339 97.9292 56.3874 99.4543C55.4295 100.967 53.9655 102.235 51.9952 103.258C50.2159 104.182 48.5836 104.674 47.098 104.732C45.6245 104.785 44.198 104.373 42.8185 103.498C42.0892 103.027 41.3788 102.418 40.6874 101.671C39.996 100.923 39.4457 100.155 39.0364 99.367C38.6024 98.5311 38.5036 97.7713 38.7399 97.0877C38.9762 96.4041 39.4585 95.8732 40.187 95.4949C40.8915 95.1291 41.5283 95.0562 42.0973 95.2762C42.6664 95.4962 43.2696 95.9865 43.9071 96.7471C44.5875 97.5611 45.1718 98.1901 45.66 98.634C46.1482 99.0779 46.7334 99.3729 47.4157 99.5189C48.0979 99.665 48.8809 99.5086 49.7645 99.0498C52.1169 97.8284 52.3972 95.4922 50.6054 92.0412L43.063 77.5147C42.505 76.44 42.3193 75.5131 42.506 74.7339C42.7047 73.9486 43.21 73.3451 44.022 72.9235C44.8459 72.4957 45.6362 72.4264 46.3929 72.7158C47.1615 72.9989 47.8248 73.6779 48.3828 74.7526Z" fill="#CD0000"/>
<rect x="130" y="30" width="150" height="207" rx="10" fill="#302F2F"/>
<rect x="138" y="38" width="134" height="192" rx="5" fill="white"/>
<path d="M173.16 80.6497L171.748 76.9362H159.719L158.306 80.7305C157.755 82.2105 157.284 83.2129 156.894 83.7376C156.503 84.2489 155.864 84.5046 154.976 84.5046C154.223 84.5046 153.557 84.2287 152.978 83.6771C152.4 83.1254 152.11 82.4998 152.11 81.8001C152.11 81.3965 152.178 80.9794 152.312 80.5488C152.447 80.1183 152.669 79.5195 152.978 78.7526L160.547 59.5391C160.762 58.9874 161.017 58.3281 161.313 57.5612C161.623 56.7808 161.946 56.135 162.282 55.6237C162.632 55.1124 163.083 54.702 163.634 54.3926C164.2 54.0697 164.892 53.9082 165.713 53.9082C166.547 53.9082 167.24 54.0697 167.792 54.3926C168.357 54.702 168.808 55.1057 169.144 55.6035C169.494 56.1013 169.783 56.6395 170.012 57.2181C170.254 57.7832 170.557 58.5434 170.92 59.4987L178.65 78.5911C179.256 80.0443 179.558 81.1005 179.558 81.7598C179.558 82.446 179.269 83.0783 178.69 83.6569C178.125 84.222 177.439 84.5046 176.632 84.5046C176.161 84.5046 175.757 84.4171 175.421 84.2422C175.085 84.0807 174.802 83.8587 174.573 83.5762C174.345 83.2802 174.096 82.8362 173.826 82.2441C173.571 81.6387 173.349 81.1072 173.16 80.6497ZM161.293 72.4355H170.133L165.673 60.2253L161.293 72.4355Z" fill="#302F2F"/>
<path d="M235.84 184.35L237.253 188.064L249.281 188.064L250.694 184.27C251.246 182.789 251.717 181.787 252.107 181.262C252.497 180.751 253.136 180.495 254.024 180.495C254.778 180.495 255.444 180.771 256.022 181.323C256.601 181.875 256.89 182.5 256.89 183.2C256.89 183.604 256.823 184.021 256.688 184.451C256.554 184.882 256.332 185.48 256.022 186.247L248.454 205.461C248.239 206.013 247.983 206.672 247.687 207.439C247.378 208.219 247.055 208.865 246.718 209.376C246.368 209.888 245.918 210.298 245.366 210.607C244.801 210.93 244.108 211.092 243.287 211.092C242.453 211.092 241.76 210.93 241.208 210.607C240.643 210.298 240.193 209.894 239.856 209.396C239.506 208.899 239.217 208.36 238.988 207.782C238.746 207.217 238.444 206.457 238.08 205.501L230.35 186.409C229.745 184.956 229.442 183.9 229.442 183.24C229.442 182.554 229.732 181.922 230.31 181.343C230.875 180.778 231.561 180.495 232.369 180.495C232.84 180.495 233.243 180.583 233.58 180.758C233.916 180.919 234.199 181.141 234.427 181.424C234.656 181.72 234.905 182.164 235.174 182.756C235.43 183.361 235.652 183.893 235.84 184.35ZM247.707 192.564L238.867 192.564L243.328 204.775L247.707 192.564Z" fill="#302F2F"/>
<path fill-rule="evenodd" clip-rule="evenodd" d="M177.004 117.34L177.005 117.34L174.17 120.175C166.344 128 166.344 140.688 174.17 148.514C181.276 155.62 192.391 156.274 200.234 150.475C201.13 154.26 201.162 158.558 200.14 162.932C198.601 169.518 194.995 174.89 190.569 178H219.577C215.151 174.89 211.545 169.518 210.006 162.932C208.952 158.423 209.019 153.995 209.997 150.127C217.861 156.296 229.272 155.758 236.517 148.513C244.343 140.687 244.343 127.999 236.517 120.173L205.344 89L177.004 117.34Z" fill="#302F2F"/>
</svg>
