<svg width="185" height="259" viewBox="0 0 185 259" fill="none" xmlns="http://www.w3.org/2000/svg">
<path d="M20.4175 258.809C9.49782 258.828 0.590161 250.097 0.571575 239.368L0.00467352 19.9194C-0.0232065 9.12053 8.87053 0.347654 19.8274 0.36624L164.85 0.635741C175.77 0.654328 184.649 9.44116 184.649 20.2214V239.2C184.649 249.902 175.793 258.623 164.924 258.642L20.4175 258.809Z" fill="#C9C9C9"/>
<path d="M22.1925 258.12C11.4123 258.12 2.64864 249.379 2.64864 238.646V19.7132C2.64864 8.96547 11.4123 0.234375 22.1925 0.234375H165.101C175.876 0.234375 184.654 8.97011 184.654 19.7132V238.646C184.654 249.384 175.881 258.12 165.101 258.12H22.1925Z" fill="white"/>
<path d="M165.101 254.15H22.1879C13.8378 254.15 7.04438 247.389 7.04438 239.067V20.1436C7.04438 12.1467 13.3964 5.62743 16.7977 4.38212L17.2996 4.19629L160.97 4.2009C175.184 5.3161 180.24 13.1643 180.24 20.1436V239.067C180.24 247.389 173.451 254.15 165.101 254.15ZM18.5123 10.1858C16.965 11.1431 13.0246 15.1764 13.0246 20.1483V239.071C13.0246 244.09 17.1323 248.165 22.1879 248.165H165.096C170.152 248.165 174.259 244.09 174.259 239.071V20.1483C174.259 14.6048 169.167 10.8782 160.621 10.1858H18.5123Z" fill="#333333"/>
<path d="M34.5201 18.3826C33.93 19.3816 33.2051 20.1483 32.3269 20.6734C31.4487 21.1984 30.5751 21.468 29.7062 21.468C29.4227 21.468 28.4283 21.2496 26.7044 20.8128C25.8959 20.6037 25.1571 20.5015 24.4972 20.5015C24.079 20.5015 23.6608 20.5526 23.238 20.6548C22.8151 20.757 22.4527 20.9383 22.1553 21.1799H21.844V20.7849C22.4248 19.4606 23.1311 18.5173 23.9536 17.9597C24.7714 17.3882 25.8494 17.1094 27.1645 17.1094C28.131 17.1094 29.051 17.2627 29.9292 17.5741C30.8028 17.8854 31.6485 18.0388 32.4663 18.0388C32.7265 18.0388 33.0332 18.0295 33.3863 18.0062C33.7348 17.9876 34.1112 17.9598 34.5294 17.8994V18.3826H34.5201ZM34.6038 34.9944C34.6038 36.8438 33.9021 38.3307 32.4942 39.4645C31.0862 40.5983 29.2926 41.1606 27.0994 41.1606C25.7565 41.1606 24.6366 40.8957 23.7352 40.3706C22.6572 39.748 22.1182 38.8511 22.1182 37.6802C22.1182 37.1365 22.2715 36.6486 22.5735 36.2397C22.9917 35.6728 23.5911 35.3894 24.3857 35.3894C24.8968 35.3894 25.3429 35.5566 25.7286 35.8866C26.1143 36.2118 26.3094 36.6208 26.3094 37.1133C26.3094 37.9265 25.9656 38.4701 25.2918 38.7536C24.6134 39.0417 24.2696 39.2415 24.2696 39.3484C24.3811 39.5946 24.5065 39.7759 24.6366 39.8874C25.0316 40.2498 25.6078 40.4264 26.3652 40.4264C27.118 40.4264 27.7685 40.2498 28.3075 39.8874C28.8465 39.5296 29.1114 39.0277 29.1114 38.3911V22.4205C30.0965 22.1046 31.0119 21.784 31.8529 21.4726C32.7033 21.1613 33.4607 20.7059 34.1205 20.1065H34.6038V34.9944Z" fill="#333333"/>
<path d="M153.419 226.591C153.419 224.751 154.121 223.25 155.529 222.126C156.937 220.983 158.73 220.43 160.923 220.43C162.266 220.43 163.386 220.685 164.292 221.22C165.366 221.838 165.905 222.734 165.905 223.905C165.905 224.449 165.747 224.932 165.449 225.341C165.031 225.913 164.432 226.205 163.637 226.205C163.126 226.205 162.68 226.034 162.294 225.708C161.908 225.374 161.713 224.965 161.713 224.472C161.713 223.654 162.057 223.12 162.731 222.827C163.409 222.553 163.753 222.344 163.753 222.237C163.642 221.991 163.516 221.819 163.386 221.694C162.991 221.34 162.415 221.168 161.658 221.168C160.905 221.168 160.254 221.34 159.72 221.694C159.186 222.065 158.916 222.558 158.916 223.199V239.165C157.936 239.481 157.016 239.802 156.175 240.118C155.324 240.424 154.567 240.88 153.907 241.498H153.424L153.419 226.591ZM153.503 243.208C154.088 242.209 154.818 241.437 155.696 240.921C156.579 240.387 157.452 240.122 158.312 240.122C158.605 240.122 159.599 240.341 161.314 240.777C162.132 240.987 162.866 241.093 163.526 241.093C163.944 241.093 164.357 241.028 164.785 240.931C165.208 240.833 165.57 240.657 165.867 240.406H166.183V240.805C165.603 242.13 164.896 243.064 164.074 243.635C163.251 244.207 162.178 244.481 160.863 244.481C159.896 244.481 158.976 244.337 158.098 244.016C157.225 243.709 156.379 243.551 155.561 243.551C155.301 243.551 154.994 243.551 154.641 243.57C154.293 243.598 153.916 243.635 153.498 243.695L153.503 243.208Z" fill="#333333"/>
<path d="M79.7647 80.8652L73.3291 83.4116L74.8021 86.1207L100.28 85.8139L102.073 83.4116L96.3812 80.8652H79.7647Z" fill="#757575"/>
<path d="M96.3812 72.8936H79.774V90.2349H96.3812V72.8936Z" fill="#EBB07A"/>
<path opacity="0.2" d="M96.3812 76.2389V80.4628C94.3552 82.3911 92.0412 83.6271 89.6017 83.6271H86.4652C84.0536 83.6271 81.786 82.4143 79.7787 80.5464V76.3876L81.2052 78.6645L81.5816 72.8887H94.4854L94.8617 78.6645L96.3812 76.2389Z" fill="#616161"/>
<path d="M89.5971 33.3916H88.0265H86.4605C78.2545 33.3916 71.6052 38.9909 71.6052 45.9144C71.6052 45.9144 71.6749 62.8608 71.8003 63.6693C72.9387 70.9785 79.0723 82.2838 86.4605 82.2838H88.0265H89.5971C96.976 82.2838 103.114 70.9785 104.248 63.6693C104.373 62.8608 104.443 45.9144 104.443 45.9144C104.448 38.9862 97.7984 33.3916 89.5971 33.3916Z" fill="#EBB07A"/>
<path d="M92.0273 83.3473C95.3682 83.3473 98.0912 80.6475 98.0912 77.2973C98.0958 74.9693 89.6017 65.0068 87.9614 65.0068C86.3258 65.0068 78.0826 75.2713 78.0826 77.2601C78.0733 80.6103 80.7823 83.3286 84.1279 83.3286H84.1605C85.2896 83.3286 86.3537 83.0127 87.2505 82.4597L88.9 82.469C89.7968 83.0219 90.8702 83.3473 92.0133 83.3473H92.0273Z" fill="#333333"/>
<path d="M92.004 75.7821C91.544 75.7821 91.1816 75.6195 90.9632 75.4894L90.0152 74.9179L86.1306 74.8993L85.1688 75.4894C84.8667 75.6706 84.5183 75.7589 84.1512 75.7589C83.5703 75.7589 83.0592 75.5498 82.6642 75.1548C82.4133 74.8993 82.2367 74.6019 82.1391 74.2674C83.0081 72.9012 86.7394 67.1904 88.0311 67.1904C89.3183 67.1904 93.2122 72.8687 94.03 74.2255C93.9138 74.6948 93.6582 75.0108 93.491 75.1827C93.1006 75.573 92.5802 75.7868 92.0226 75.7868H92.004V75.7821Z" fill="#EBB07A"/>
<path d="M78.4868 53.4805C78.1802 53.8568 77.9989 54.3122 77.9989 54.8001C77.9989 56.1012 79.2303 57.1467 80.7544 57.1467C82.2785 57.1467 83.5145 56.1012 83.5145 54.8001C83.5145 54.3122 83.324 53.8568 83.022 53.4805H78.4868Z" fill="#333333"/>
<path opacity="0.2" d="M89.0951 51.2031H88.0311H86.9623L85.4847 62.0764L88.0311 65.0037L90.5635 62.0764L89.0951 51.2031Z" fill="#616161"/>
<path d="M97.566 53.4805C97.882 53.8568 98.0632 54.3122 98.0632 54.8001C98.0632 56.1012 96.8272 57.1467 95.3078 57.1467C93.7744 57.1467 92.543 56.1012 92.543 54.8001C92.543 54.3122 92.7289 53.8568 93.0309 53.4805H97.566Z" fill="#333333"/>
<g opacity="0.2">
<path d="M91.1165 70.4854H85.0433V71.9816H91.1165V70.4854Z" fill="#616161"/>
</g>
<path d="M92.2689 47.5957L100.489 48.59L92.2689 49.5891V47.5957Z" fill="#333333"/>
<path d="M83.7887 49.5891L75.7407 48.59L83.7887 47.5957V49.5891Z" fill="#333333"/>
<path d="M129.493 85.5986L123.206 91.4906L120.446 99.8546C120.446 99.8546 129.772 97.9867 129.833 98.219L129.493 85.5986Z" fill="#757575"/>
<path d="M47.2194 85.5986L53.511 91.4906L56.2665 99.8546C56.2665 99.8546 46.9406 97.9867 46.8895 98.219L47.2194 85.5986Z" fill="#757575"/>
<path d="M50.9972 90.2324L50.1236 91.9888L48.0652 98.68C48.0652 98.68 59.6818 95.4367 59.1568 95.7898L50.9972 90.2324Z" fill="#1C1C1C"/>
<path d="M137.049 108.591L130.776 110.463L119.47 113.837L118.746 114.051L104.239 118.381L103.834 118.507L102.947 118.762L98.5187 120.087L96.8133 120.598L91.2884 122.252L88.5376 123.065L77.8549 126.262L75.6199 126.917L75.1181 127.061L72.3254 127.898L70.5643 128.432L65.5041 129.942L57.8789 132.214L57.865 130.058L57.8092 123.776L52.7862 132.27V133.725L47.4704 135.318L34.7153 139.124V121.23L34.7571 120.305V120.231V120.217L34.8825 117.526L35.3147 116.523L37.8239 110.561L40.3378 104.618L43.0189 98.2519L44.0226 95.8682L45.1517 93.1824L47.0196 92.7317L50.1236 91.9975L50.2723 91.9464L50.5139 91.8999L50.895 91.7931L51.0948 91.7559L51.7546 91.5886L52.6607 91.3656H52.6746L52.7676 91.333L53.2322 91.2262L61.7124 89.1817L62.6092 88.9586L62.9995 88.8749L63.9196 88.6287L70.7083 86.9977L70.8292 86.9745L71.6052 86.7747L74.1748 86.1381L74.7417 86.008L79.774 84.7998H96.3812L100.322 85.7617L101.279 85.994L101.827 86.1195L107.845 87.5878L113.272 88.9075L123.364 91.347L123.945 91.491L126.282 92.0626L129.493 92.8479L129.688 92.8757L130.901 93.1824L133.41 99.474L135.929 105.784L136.635 107.531L137.049 108.591Z" fill="#ABABAB"/>
<path opacity="0.2" d="M107.845 87.5884L90.373 105.069L89.6203 105.817L86.6511 108.782L86.6232 108.814L81.8232 113.614L81.5723 113.87L73.1711 122.262L70.5969 124.845L69.4119 126.021L68.1248 127.317L65.5041 129.943L57.8789 132.215L57.865 130.059L65.6853 122.262L66.9817 120.956L67.8878 120.055L70.5736 117.35L71.3961 116.523L72.2185 115.715L72.5577 115.371L82.4458 105.497L82.6038 105.343L82.9755 104.967L82.9848 104.948L85.8193 102.109L86.5396 101.384L101.827 86.1201L107.845 87.5884Z" fill="white"/>
<path opacity="0.2" d="M129.493 92.8476L118.992 103.34L104.104 118.237L103.834 118.506L102.947 118.762L98.5186 120.086L96.8133 120.598L91.2884 122.252L88.5376 123.065L77.8549 126.262L75.6198 126.917L75.118 127.061L75.5083 126.671L77.0882 125.091L84.5879 117.605L85.35 116.843L89.3926 112.796L89.8619 112.326L93.8023 108.377L113.272 88.9072L123.364 91.3468L123.945 91.4908L126.282 92.0623L129.493 92.8476Z" fill="white"/>
<path opacity="0.2" d="M104.239 118.382L103.834 118.507L102.947 118.763L98.5233 120.087L96.818 120.598L91.2931 122.248L88.5423 123.066L77.8596 126.262L75.6245 126.918L75.1227 127.062L72.33 127.898L70.569 128.432L69.4166 126.021L66.9864 120.956L59.1428 104.637L55.3465 96.6957L54.984 95.9383L54.9747 95.9151L52.8512 91.4869V91.4776L52.7769 91.3335L53.2415 91.2267L61.7217 89.1821L62.6185 88.9591L63.0088 88.8754L63.9289 88.6291L70.7176 86.9935L70.8385 86.9703L71.6144 86.7705C74.0168 89.2193 79.695 94.7767 86.5489 101.38C87.7895 102.578 89.0766 103.81 90.387 105.069C91.5068 106.156 92.6406 107.262 93.8116 108.377C97.2083 111.644 100.707 115.004 104.113 118.238C104.141 118.279 104.197 118.321 104.239 118.382Z" fill="#616161"/>
<path d="M88.5376 123.064L77.8549 126.261L75.6199 126.916L75.1181 127.06L72.3254 127.897L70.5922 124.848L67.8832 120.058L59.1335 104.645L56.0249 99.1475L54.7331 96.8521L51.7499 91.5921L50.9879 90.2352L51.9033 89.9983L69.4909 85.6025C69.6721 85.8581 70.0903 86.3274 70.6991 87.0012C73.185 89.6637 78.9422 95.3837 85.81 102.112C87.046 103.32 88.3099 104.57 89.6156 105.82C90.7448 106.921 91.8832 108.046 93.0263 109.156C96.3068 112.363 99.6803 115.625 102.938 118.766L98.514 120.09L96.8087 120.601L91.2838 122.251L88.5376 123.064Z" fill="#333333"/>
<path d="M73.3291 83.4121L74.1794 86.1583L87.3295 93.7881L86.9438 84.8014L73.3291 83.4121Z" fill="#EBEBEB"/>
<path d="M102.073 83.4121L101.214 86.1583L88.0683 93.7881L88.4493 84.8014L102.073 83.4121Z" fill="#EBEBEB"/>
<path opacity="0.2" d="M86.651 108.784L89.0952 111.382C88.2169 110.485 87.3852 109.616 86.6232 108.817C85.1641 107.307 83.9281 106.001 82.9709 104.969C82.0508 103.998 81.391 103.297 81.0239 102.906L82.9848 104.955L86.651 108.784Z" fill="#616161"/>
<path opacity="0.2" d="M89.8619 112.331C92.7893 115.091 95.7306 117.744 98.5233 120.091L96.818 120.602L89.3926 112.8L86.1028 109.348L85.7403 108.953L82.4505 105.5L75.9173 98.6278L75.75 98.4326C75.8011 98.493 75.8569 98.5627 75.9312 98.6138C77.9571 100.696 80.2201 102.986 82.6085 105.342C83.7144 106.443 84.8668 107.563 86.0284 108.674C86.1492 108.795 86.2747 108.911 86.3955 109.05C87.5386 110.147 88.691 111.244 89.8619 112.331Z" fill="#616161"/>
<path opacity="0.2" d="M77.8549 126.26L75.6198 126.916L75.5083 126.669L73.171 122.26L70.5736 117.348L67.7112 111.874L64.2402 105.75L71.396 116.521L74.3931 121.038L77.0882 125.089L77.8549 126.26Z" fill="#616161"/>
<path opacity="0.2" d="M91.2884 122.254L88.5376 123.067L86.4977 119.986L84.5879 117.607L81.5723 113.871L80.1179 112.063L81.8232 113.615L85.35 116.845L91.2884 122.254Z" fill="#616161"/>
<path opacity="0.2" d="M57.8092 123.774L52.7862 132.269V133.723L47.4704 135.317L43.5951 134.531L48.9248 132.106L57.8092 123.774Z" fill="#616161"/>
<path opacity="0.2" d="M137.049 108.593L130.776 110.466L119.471 113.839L118.746 114.053L118.067 105.563L118.992 103.342L120.451 99.8525L123.945 91.4932L126.283 92.0647L129.493 92.85L129.689 92.8779L130.901 93.1845L133.411 99.4761L135.929 105.786L136.635 107.533L137.049 108.593Z" fill="#616161"/>
<path d="M130.776 110.463L119.466 113.841L119.405 105.816L122.296 100.05L122.602 99.4225L126.278 92.0622L129.493 85.5986C129.493 85.5986 137.699 95.9421 137.946 95.747C138.001 95.747 138.238 96.9644 138.559 98.8324C138.935 101.109 139.46 104.394 139.976 107.721L137.342 108.488L137.049 108.59L130.776 110.463Z" fill="#ABABAB"/>
<path opacity="0.2" d="M58.0323 106.468L57.8092 120.738L38.363 117.438C38.363 117.438 38.3397 116.653 38.4606 115.877L44.0226 95.864L45.1517 93.1782L50.2724 91.9422L50.514 91.8911L50.8904 91.7842L51.0902 91.7471L58.0323 106.468Z" fill="#616161"/>
<path d="M57.8092 122.383L39.4456 120.738L34.7618 120.301H34.7478C34.7478 120.301 34.7478 120.278 34.7618 120.227C34.7618 120.218 34.7618 120.213 34.7618 120.213C34.8129 119.846 35.022 118.457 35.3194 116.519C36.3463 109.637 38.4373 95.7392 38.6603 95.7392C38.9298 95.9343 47.1173 85.5908 47.1173 85.5908L47.173 85.7209L50.277 91.9382L57.2005 105.804L57.8092 122.383Z" fill="#ABABAB"/>
<path opacity="0.2" d="M139.981 107.712H139.967L137.332 108.488L137.053 108.59L135.715 108.99L130.776 110.458L133.401 99.4735L134.038 96.7877L129.517 85.6172C129.995 86.212 137.574 95.7469 137.946 95.7469C138.006 95.7469 138.229 96.9736 138.564 98.8416C138.587 99.0042 138.624 99.1575 138.652 99.3387C138.768 100.082 138.907 100.872 139.047 101.774C139.084 102.131 139.144 102.508 139.228 102.893C139.228 103.005 139.265 103.149 139.289 103.293C139.386 103.93 139.484 104.566 139.581 105.245C139.604 105.342 139.604 105.44 139.623 105.551C139.767 106.253 139.869 106.987 139.981 107.712Z" fill="white"/>
<path opacity="0.2" d="M47.159 85.7381L42.675 96.7878L43.0096 98.2469L46.8756 114.38L39.4363 120.741L37.8053 122.14C37.8053 122.14 35.3937 131.945 35.1103 132.27C35.0498 132.353 34.929 132.312 34.7106 132.228V121.234L34.7478 120.305C34.7478 120.305 34.7478 120.277 34.7478 120.244C34.7478 120.221 34.7478 120.221 34.7478 120.221L34.8686 117.531L35.3101 116.527V116.466C36.0303 111.787 37.2059 103.907 37.954 99.3388C38.3165 97.1642 38.5906 95.747 38.651 95.747C39.0553 95.747 47.1033 85.5986 47.1033 85.5986H47.2102L47.159 85.7381Z" fill="white"/>
<path d="M102.914 33.3021L96.66 29.3571C94.0718 26.5412 88.0822 22.624 88.0822 22.624C88.0822 22.624 81.3074 27.0337 78.7657 29.752L73.1339 33.3021L69.2725 39.9422L70.7967 55.6433L72.7947 56.8189L73.1386 42.377C73.1386 42.377 73.501 37.3401 77.8271 37.3401C82.1531 37.3401 88.0311 40.365 88.0311 40.365C88.0311 40.365 93.9975 37.3401 98.2352 37.3401C102.468 37.3401 102.914 42.377 102.914 42.377L103.258 56.8189L105.256 55.6433L106.78 39.9422L102.914 33.3021Z" fill="#333333"/>
<path d="M40.9604 108.751C40.5608 111.177 39.0646 112.933 37.6287 112.701C37.1315 112.617 36.7087 112.297 36.3881 111.841L37.2245 116.785L35.3147 116.46C36.0349 111.781 37.2105 103.9 37.9587 99.3326C38.0423 99.235 38.0795 99.1699 38.0795 99.1699C38.0795 99.1699 41.2299 107.069 40.9604 108.751Z" fill="#333333"/>
<path d="M139.967 107.71L137.332 108.487L137.053 108.589L135.715 108.988C135.673 108.9 135.673 108.826 135.655 108.751C135.381 107.069 138.531 99.1699 138.531 99.1699C138.531 99.1699 138.568 99.235 138.652 99.3326C138.768 100.076 138.907 100.866 139.047 101.767C139.084 102.125 139.144 102.502 139.228 102.887C139.228 102.999 139.265 103.143 139.289 103.287C139.386 103.923 139.484 104.56 139.581 105.238C139.604 105.336 139.604 105.434 139.623 105.545C139.744 106.251 139.846 106.976 139.967 107.71Z" fill="#333333"/>
<path opacity="0.2" d="M74.7277 93.8328C73.8216 92.0996 62.6045 87.8525 62.6045 87.8525C62.6045 87.8525 58.0973 99.1022 58.8221 100.789C60.0721 103.716 63.4921 105.003 66.3498 103.647C67.3023 103.187 68.0551 102.504 68.5708 101.672L67.0514 108.456L75.0715 105.31L69.8905 101.058C70.8245 101.179 71.7957 101.04 72.6739 100.622C75.2017 99.4227 76.0752 96.356 74.7277 93.8328Z" fill="#616161"/>
<path d="M74.3699 93.9556C73.566 92.2874 62.8508 88.7002 62.8508 88.7002C62.8508 88.7002 59.3704 99.4712 60.0628 100.898C61.2291 103.291 64.1054 104.285 66.4938 103.114C67.3163 102.724 67.9714 102.124 68.4315 101.409L67.9714 107.361L74.5651 104.164L69.6071 100.842C70.4481 100.916 71.3217 100.772 72.1395 100.382C74.5325 99.2249 75.5362 96.3439 74.3699 93.9556Z" fill="#FFD675"/>
<path opacity="0.2" d="M69.7371 102.617L71.7631 103.979L69.5512 105.057L69.7371 102.617ZM64.4028 102.213C63.0785 102.213 61.8982 101.479 61.322 100.289C61.2151 99.462 62.4233 94.7781 63.7522 90.4893C68.0271 91.9901 72.5251 93.8813 73.1756 94.6573C73.5195 95.3869 73.5753 96.3069 73.2732 97.1666C72.9759 98.0355 72.3532 98.7371 71.5307 99.1367C71.0614 99.3551 70.5596 99.4713 70.0438 99.4713C69.9369 99.4713 69.8347 99.4713 69.7371 99.462L67.2512 100.67C66.9259 101.186 66.4566 101.599 65.8897 101.874C65.4157 102.092 64.9139 102.213 64.4028 102.213Z" fill="#616161"/>
<path opacity="0.2" d="M139.981 107.714C139.93 107.361 139.869 106.994 139.804 106.636C139.707 105.981 139.605 105.349 139.502 104.717C139.428 104.23 139.354 103.765 139.289 103.296C139.265 103.151 139.228 103.012 139.228 102.896C139.144 102.51 139.084 102.134 139.047 101.776C138.908 100.879 138.763 100.089 138.652 99.3412C138.629 99.1599 138.592 99.0066 138.564 98.844C138.48 98.3933 138.41 97.9844 138.345 97.6173C138.271 97.1898 138.201 96.8413 138.141 96.5532C138.043 96.0421 137.978 95.7447 137.946 95.7447C137.574 95.7447 129.995 86.2097 129.517 85.6149L129.526 85.6475C129.517 85.6289 129.493 85.5964 129.493 85.5964L123.364 91.3443L113.272 88.9048L107.845 87.5851L101.827 86.1215L101.279 85.996L102.073 83.4124L96.7576 81.0334C97.5754 79.9925 98.0912 78.7146 98.0912 77.2928C98.0912 77.2835 98.0819 77.2742 98.0819 77.2649C101.311 73.3338 103.602 67.86 104.253 63.6641C104.304 63.3156 104.35 59.8956 104.387 56.1504L105.261 55.6393L106.785 39.9382L102.919 33.2981L96.6646 29.3531C94.0765 26.5372 88.0869 22.6201 88.0869 22.6201C88.0869 22.6201 87.9661 22.6991 87.7663 22.8338V123.309L88.5423 123.062L91.2931 122.245L96.818 120.595L98.5233 120.084L102.947 118.76L103.834 118.504L104.239 118.379L118.746 114.048L119.471 113.834L130.78 110.456L135.72 108.988L137.058 108.588L137.193 108.537L137.346 108.481L139.981 107.714C139.976 107.724 139.976 107.724 139.981 107.714Z" fill="#616161"/>
<path d="M94.9315 179.336L101.372 176.79L99.8941 174.076L74.4211 174.378L72.6228 176.79L78.3196 179.336H94.9315Z" fill="#757575"/>
<path d="M94.9315 169.965H78.3196V187.297H94.9315V169.965Z" fill="#EBB07A"/>
<path opacity="0.2" d="M78.3196 183.955V179.736C80.3502 177.808 82.6642 176.581 85.1084 176.581H88.2449C90.6472 176.581 92.9195 177.789 94.9361 179.657V183.807L93.5096 181.53L93.1286 187.301H80.2248L79.8437 181.53L78.3196 183.955Z" fill="#616161"/>
<path d="M85.1084 226.811H86.6697H88.2356C96.437 226.811 103.091 221.203 103.091 214.279C103.091 214.279 103.026 197.337 102.896 196.52C101.757 189.215 95.6285 177.919 88.2403 177.919H86.6743H85.113C77.7248 177.919 71.5866 189.215 70.4528 196.52C70.3227 197.337 70.2577 214.279 70.2577 214.279C70.253 221.203 76.8977 226.811 85.1084 226.811Z" fill="#EBB07A"/>
<path d="M82.669 176.854C79.3373 176.854 76.6144 179.553 76.6144 182.903C76.6004 185.236 85.1038 195.194 86.7348 195.194C88.3751 195.194 96.6183 184.92 96.6229 182.941C96.6229 179.6 93.9232 176.881 90.5683 176.881H90.5404C89.4066 176.881 88.3472 177.188 87.4457 177.736L85.8008 177.727C84.8994 177.183 83.8306 176.854 82.6875 176.854H82.669Z" fill="#333333"/>
<path d="M82.6921 184.423C83.1521 184.423 83.5192 184.585 83.733 184.72L84.6855 185.282L88.5701 185.31L89.5366 184.72C89.834 184.53 90.1779 184.437 90.545 184.437C91.1258 184.437 91.6416 184.655 92.0366 185.045C92.2875 185.301 92.464 185.608 92.5616 185.942C91.6973 187.294 87.9614 193.005 86.6743 193.005C85.3825 193.005 81.4886 187.331 80.6708 185.979C80.787 185.505 81.0472 185.189 81.2191 185.027C81.6001 184.636 82.1299 184.418 82.6782 184.418H82.6921V184.423Z" fill="#EBB07A"/>
<path d="M96.2139 206.717C96.5159 206.345 96.7064 205.889 96.7064 205.392C96.7064 204.105 95.4704 203.041 93.9463 203.041C92.4176 203.041 91.1815 204.105 91.1815 205.392C91.1815 205.889 91.3721 206.345 91.6788 206.717H96.2139Z" fill="#333333"/>
<path opacity="0.2" d="M85.6102 208.996H86.6697H87.7384L89.2067 198.113L86.6697 195.19L84.1326 198.113L85.6102 208.996Z" fill="#616161"/>
<path d="M77.1301 206.717C76.8187 206.345 76.6421 205.889 76.6421 205.392C76.6421 204.105 77.8782 203.041 79.3976 203.041C80.9264 203.041 82.1624 204.105 82.1624 205.392C82.1624 205.889 81.9672 206.345 81.6652 206.717H77.1301Z" fill="#333333"/>
<g opacity="0.2">
<path d="M89.6529 188.213H83.5843V189.709H89.6529V188.213Z" fill="#616161"/>
</g>
<path d="M82.4273 212.599L74.212 211.6L82.4273 210.61V212.599Z" fill="#333333"/>
<path d="M90.9074 210.61L98.9648 211.6L90.9074 212.599V210.61Z" fill="#333333"/>
<path d="M45.2028 174.587L51.4897 168.695L54.2545 160.331C54.2545 160.331 44.924 162.199 44.8682 161.971L45.2028 174.587Z" fill="#757575"/>
<path d="M127.481 174.587L121.19 168.695L118.434 160.331C118.434 160.331 127.755 162.199 127.816 161.971L127.481 174.587Z" fill="#757575"/>
<path d="M123.699 169.963L124.573 168.207L126.631 161.511C126.631 161.511 115.014 164.754 115.535 164.41L123.699 169.963Z" fill="#1C1C1C"/>
<path d="M37.652 151.604L43.9203 149.727L55.235 146.354L55.9552 146.149L70.4621 141.814L70.8664 141.688L71.7539 141.428L76.1822 140.108L77.8875 139.597L83.4124 137.943L86.1586 137.125L96.8459 133.928L99.0809 133.287L99.5828 133.138L102.371 132.297L104.132 131.768L109.201 130.253L116.822 127.981L116.836 130.132L116.887 136.419L121.91 127.925V126.47L127.23 124.872L139.981 121.066V138.965L139.948 139.885V139.955V139.983L139.818 142.669L139.391 143.663L136.877 149.625L134.358 155.577L131.682 161.948L130.669 164.327L129.554 167.013L127.677 167.468L124.577 168.202L124.424 168.244L124.192 168.3L123.806 168.397L123.601 168.439L122.942 168.611L122.04 168.82H122.022L121.929 168.857L121.469 168.96L112.988 171.023L112.082 171.241L111.701 171.32L110.781 171.557L103.997 173.202L103.872 173.225L103.091 173.42L100.526 174.048L99.9545 174.178L94.9315 175.391H78.3196L74.3746 174.433L73.4174 174.206L72.8784 174.076L66.8516 172.607L61.4243 171.288L51.3364 168.839L50.751 168.699L48.423 168.128L45.2028 167.352L45.003 167.31L43.7995 167.013L41.2903 160.721L38.7765 154.406L38.0655 152.668L37.652 151.604Z" fill="#ABABAB"/>
<path opacity="0.2" d="M66.8516 172.608L84.3324 155.127L85.0759 154.384L88.0451 151.41L88.0683 151.377L92.873 146.582L93.1286 146.326L101.525 137.935L104.109 135.351L105.284 134.166L106.581 132.884L109.201 130.254L116.822 127.981L116.836 130.133L109.016 137.935L107.719 139.24L106.813 140.137L104.118 142.846L103.3 143.664L102.478 144.482L102.138 144.816L92.255 154.7L92.097 154.848L91.7206 155.22L91.7113 155.239L88.8815 158.083L88.1566 158.812L72.8784 174.076L66.8516 172.608Z" fill="white"/>
<path opacity="0.2" d="M45.2028 167.35L55.709 156.849L70.6015 141.947L70.8664 141.687L71.7539 141.426L76.1822 140.107L77.8875 139.596L83.4124 137.941L86.1586 137.124L96.8459 133.927L99.0809 133.285L99.5828 133.137L99.1971 133.518L97.6126 135.093L90.1175 142.597L89.3555 143.355L85.3129 147.397L84.8389 147.862L80.8985 151.816L61.4243 171.286L51.3364 168.837L50.751 168.698L48.423 168.126L45.2028 167.35Z" fill="white"/>
<path opacity="0.2" d="M70.4621 141.813L70.8663 141.692L71.7538 141.427L76.1821 140.107L77.8921 139.601L83.4123 137.947L86.1632 137.129L96.8458 133.932L99.0809 133.286L99.5827 133.137L102.371 132.296L104.136 131.767L105.289 134.169L107.724 139.243L115.567 155.562L119.364 163.503L119.721 164.261L119.745 164.289L121.864 168.703V168.722L121.938 168.861L121.478 168.963L112.993 171.022L112.092 171.24L111.706 171.324L110.786 171.561L104.002 173.206L103.876 173.233L103.096 173.429C100.693 170.971 95.0151 165.413 88.1612 158.815C86.9299 157.621 85.6381 156.389 84.337 155.13C83.2079 154.038 82.0741 152.937 80.9078 151.822C77.5064 148.555 74.0075 145.195 70.6061 141.952C70.5597 141.915 70.5039 141.864 70.4621 141.813Z" fill="#616161"/>
<path d="M86.1585 137.126L96.8412 133.93L99.0763 133.284L99.5781 133.135L102.366 132.294L104.109 135.347L106.808 140.133L115.558 155.55L118.662 161.043L119.958 163.343L122.942 168.608L123.704 169.96L122.793 170.201L105.205 174.583C105.029 174.328 104.61 173.858 104.002 173.194C101.516 170.531 95.7539 164.811 88.8861 158.074C87.6455 156.865 86.3862 155.625 85.0851 154.375C83.956 153.264 82.8222 152.149 81.6698 151.043C78.3939 147.832 75.0158 144.57 71.7585 141.42L76.1868 140.1L77.8968 139.594L83.417 137.94L86.1585 137.126Z" fill="#333333"/>
<path d="M101.372 176.788L100.521 174.032L87.3712 166.407L87.7523 175.389L101.372 176.788Z" fill="#EBEBEB"/>
<path d="M72.6228 176.788L73.4778 174.032L86.6232 166.407L86.2468 175.389L72.6228 176.788Z" fill="#EBEBEB"/>
<path opacity="0.2" d="M88.0451 151.407L85.601 148.814C86.4745 149.711 87.3109 150.58 88.0683 151.375C89.5274 152.89 90.7634 154.191 91.7206 155.218C92.636 156.193 93.3098 156.9 93.6676 157.295L91.7067 155.236L88.0451 151.407Z" fill="#616161"/>
<path opacity="0.2" d="M84.8389 147.866C81.9208 145.111 78.9701 142.448 76.1821 140.106L77.8921 139.6L85.3175 147.401L88.6027 150.854L88.9697 151.24L92.2642 154.701L98.7974 161.574L98.9647 161.76C98.9043 161.713 98.8532 161.639 98.7789 161.592C96.7576 159.511 94.4947 157.215 92.1016 154.855C90.9911 153.758 89.8387 152.629 88.6863 151.528C88.5655 151.398 88.44 151.281 88.3146 151.151C87.1622 150.045 86.0098 148.953 84.8389 147.866Z" fill="#616161"/>
<path opacity="0.2" d="M96.8458 133.927L99.0809 133.286L99.197 133.518L101.525 137.933L104.118 142.844L106.999 148.313L110.465 154.442L103.3 143.662L100.308 139.155L97.6125 135.094L96.8458 133.927Z" fill="#616161"/>
<path opacity="0.2" d="M83.4123 137.944L86.1585 137.126L88.203 140.211L90.1175 142.6L93.1285 146.326L94.5829 148.134L92.873 146.582L89.3554 143.357L83.4123 137.944Z" fill="#616161"/>
<path opacity="0.2" d="M116.887 136.421L121.91 127.927V126.472L127.23 124.874L131.101 125.664L125.781 128.09L116.887 136.421Z" fill="#616161"/>
<path opacity="0.2" d="M37.652 151.607L43.9203 149.729L55.235 146.356L55.9552 146.151L56.6429 154.632L55.709 156.853L54.2499 160.347L50.751 168.702L48.423 168.13L45.2028 167.354L45.003 167.312L43.7995 167.015L41.2903 160.723L38.7765 154.409L38.0655 152.671L37.652 151.607Z" fill="#616161"/>
<path d="M43.9203 149.729L55.2349 146.355L55.2953 154.38L52.4005 160.147L52.0985 160.774L48.4229 168.125L45.2028 174.589C45.2028 174.589 37.0014 164.254 36.7505 164.445C36.6948 164.445 36.4624 163.223 36.1372 161.364C35.7654 159.087 35.2404 155.793 34.7246 152.47L37.3639 151.704L37.6566 151.606L43.9203 149.729Z" fill="#ABABAB"/>
<path opacity="0.2" d="M116.669 153.729L116.887 139.459L136.333 142.753C136.333 142.753 136.366 143.539 136.236 144.319L130.674 164.333L129.554 167.014L124.424 168.25L124.191 168.306L123.806 168.403L123.601 168.445L116.669 153.729Z" fill="#616161"/>
<path d="M116.887 137.807L135.255 139.452L139.948 139.879H139.958C139.958 139.879 139.958 139.912 139.948 139.953C139.948 139.972 139.948 139.972 139.948 139.981C139.888 140.348 139.679 141.738 139.391 143.661C138.364 150.548 136.268 164.446 136.045 164.446C135.78 164.255 127.584 174.59 127.584 174.59L127.537 174.469L124.424 168.247L117.5 154.386L116.887 137.807Z" fill="#ABABAB"/>
<path opacity="0.2" d="M34.7153 152.482H34.7339L37.3685 151.706L37.6427 151.609L38.9763 151.209L43.925 149.731L41.2903 160.716L40.6537 163.402L45.1842 174.577C44.7056 173.978 37.1269 164.447 36.7505 164.447C36.6901 164.447 36.467 163.225 36.1325 161.357C36.1093 161.195 36.0721 161.041 36.0489 160.856C35.928 160.121 35.7886 159.318 35.6539 158.43C35.6121 158.063 35.547 157.687 35.468 157.31C35.468 157.189 35.4308 157.059 35.4123 156.911C35.31 156.274 35.2125 155.637 35.1149 154.959C35.0917 154.852 35.0916 154.755 35.0684 154.657C34.9337 153.932 34.8315 153.198 34.7153 152.482Z" fill="white"/>
<path opacity="0.2" d="M127.542 174.45L132.03 163.396L131.687 161.951L127.825 145.818L135.26 139.452L136.891 138.058C136.891 138.058 139.307 128.249 139.586 127.928C139.646 127.844 139.767 127.886 139.981 127.96V138.954L139.944 139.893C139.944 139.893 139.944 139.907 139.944 139.949C139.944 139.967 139.944 139.967 139.944 139.967L139.823 142.663L139.391 143.657V143.717C138.67 148.406 137.495 156.287 136.737 160.85C136.38 163.029 136.101 164.441 136.04 164.441C135.646 164.441 127.588 174.59 127.588 174.59H127.486L127.542 174.45Z" fill="white"/>
<path d="M71.7817 226.889L78.0408 230.838C80.6197 233.65 86.6093 237.572 86.6093 237.572C86.6093 237.572 93.3934 233.162 95.9258 230.439L101.553 226.889L105.419 220.244L103.89 204.552L101.892 203.372L101.548 217.819C101.548 217.819 101.186 222.846 96.8645 222.846C92.5384 222.846 86.6603 219.826 86.6603 219.826C86.6603 219.826 80.694 222.846 76.4563 222.846C72.2278 222.846 71.7724 217.819 71.7724 217.819L71.4286 203.372L69.4305 204.552L67.9018 220.244L71.7817 226.889Z" fill="#333333"/>
<path d="M133.75 151.44C134.149 149.015 135.646 147.254 137.077 147.495C137.579 147.57 137.997 147.886 138.317 148.355L137.476 143.406L139.395 143.722C138.675 148.411 137.5 156.291 136.742 160.855C136.663 160.947 136.621 161.022 136.621 161.022C136.621 161.022 133.462 153.113 133.75 151.44Z" fill="#333333"/>
<path d="M34.7339 152.48L37.3685 151.704L37.6427 151.607L38.9763 151.207C39.0227 151.291 39.0227 151.36 39.0413 151.444C39.3248 153.117 36.1697 161.025 36.1697 161.025C36.1697 161.025 36.1325 160.951 36.0535 160.858C35.9327 160.124 35.7933 159.32 35.6585 158.433C35.6167 158.065 35.5517 157.689 35.4727 157.313C35.4727 157.192 35.4355 157.062 35.4169 156.913C35.3147 156.277 35.2171 155.64 35.1195 154.962C35.0963 154.855 35.0963 154.757 35.0731 154.659C34.9569 153.93 34.85 153.214 34.7339 152.48Z" fill="#333333"/>
<path opacity="0.2" d="M99.9684 166.365C100.884 168.084 112.096 172.341 112.096 172.341C112.096 172.341 116.599 161.086 115.874 159.395C114.624 156.472 111.199 155.181 108.342 156.537C107.394 157.007 106.641 157.69 106.125 158.517L107.645 151.737L99.6292 154.883L104.806 159.13C103.867 159.019 102.905 159.144 102.018 159.572C99.4991 160.775 98.6255 163.833 99.9684 166.365Z" fill="#616161"/>
<path d="M100.331 166.245C101.13 167.908 111.85 171.486 111.85 171.486C111.85 171.486 115.33 160.715 114.638 159.303C113.472 156.905 110.6 155.911 108.202 157.072C107.384 157.472 106.729 158.062 106.274 158.778L106.729 152.825L100.14 156.027L105.094 159.349C104.257 159.266 103.384 159.41 102.566 159.8C100.164 160.966 99.1599 163.847 100.331 166.245Z" fill="#FFD675"/>
<path opacity="0.2" d="M104.964 157.575L102.933 156.218L105.154 155.14L104.964 157.575ZM110.298 157.983C111.622 157.983 112.807 158.718 113.388 159.912C113.495 160.734 112.282 165.409 110.948 169.702C106.678 168.206 102.176 166.315 101.53 165.53C101.195 164.814 101.135 163.885 101.432 163.02C101.734 162.156 102.352 161.464 103.179 161.055C103.644 160.832 104.146 160.72 104.661 160.72C104.764 160.72 104.871 160.73 104.968 160.734L107.454 159.526C107.779 159.015 108.249 158.597 108.816 158.323C109.28 158.1 109.782 157.983 110.298 157.983Z" fill="#616161"/>
<path opacity="0.2" d="M34.7153 152.483C34.7757 152.84 34.8361 153.198 34.8965 153.556C34.9941 154.211 35.0963 154.852 35.1939 155.484C35.2682 155.968 35.3426 156.442 35.4123 156.906C35.4308 157.055 35.468 157.185 35.468 157.306C35.547 157.682 35.6074 158.059 35.6539 158.426C35.7933 159.313 35.928 160.117 36.0489 160.851C36.0674 161.037 36.1046 161.191 36.1325 161.353C36.2115 161.804 36.2812 162.213 36.3509 162.58C36.4253 162.998 36.4903 163.347 36.5507 163.644C36.6483 164.16 36.718 164.448 36.7505 164.448C37.1269 164.448 44.7103 173.978 45.1842 174.578L45.1749 174.55C45.1796 174.559 45.2028 174.592 45.2028 174.592L51.3364 168.844L61.4243 171.292L66.8516 172.607L72.8784 174.076L73.4174 174.206H73.4266L72.6228 176.785L77.9478 179.159C77.1254 180.186 76.6143 181.473 76.6143 182.9V182.918C73.3941 186.849 71.0987 192.337 70.4481 196.515C70.3924 196.868 70.3506 200.292 70.3134 204.037L69.4398 204.553L67.9111 220.245L71.7771 226.89L78.0362 230.839C80.6151 233.651 86.6046 237.572 86.6046 237.572C86.6046 237.572 86.7254 237.498 86.9299 237.345V136.884L86.1492 137.125L83.3984 137.943L77.8782 139.597L76.1682 140.104L71.7399 141.424L70.8524 141.688L70.4481 141.809L55.9412 146.149L55.221 146.354L43.911 149.727L38.9623 151.205L37.6287 151.604L37.494 151.646L37.3499 151.707L34.7106 152.473C34.7106 152.483 34.7106 152.483 34.7106 152.483H34.7153Z" fill="#616161"/>
<path d="M38.2235 56.2465C38.2282 53.9185 28.0938 43.9561 28.0938 43.9561C28.0938 43.9561 18.215 54.2205 18.215 56.2047C18.2104 59.5549 20.9147 62.2732 24.2603 62.2732C25.4081 62.2732 26.4768 61.9758 27.3829 61.4089L23.5865 67.8818L32.8009 67.9003L29.0324 61.4136C29.9385 61.9712 31.0073 62.2918 32.1504 62.3011C35.4913 62.2964 38.2235 59.5921 38.2235 56.2465Z" fill="#333333"/>
<path opacity="0.2" d="M38.2235 56.2465C38.2282 53.9185 28.0938 43.9561 28.0938 43.9561C28.0938 43.9561 28.0799 43.9653 28.0799 43.9746V67.8956L32.8009 67.9049L29.0324 61.4182C29.9385 61.9758 31.0073 62.2965 32.1503 62.3058C35.4913 62.2965 38.2235 59.5921 38.2235 56.2465Z" fill="#616161"/>
<path d="M150.529 204.565C150.515 206.898 160.654 216.855 160.654 216.855C160.654 216.855 170.537 206.591 170.537 204.611C170.542 201.252 167.833 198.538 164.487 198.538C163.344 198.538 162.276 198.845 161.365 199.403L165.161 192.92L155.942 192.911L159.72 199.393C158.818 198.85 157.745 198.52 156.607 198.515C153.252 198.51 150.529 201.224 150.529 204.565Z" fill="#333333"/>
<path opacity="0.2" d="M150.529 204.565C150.515 206.898 160.654 216.856 160.654 216.856L160.672 216.846V192.925L155.942 192.916L159.72 199.398C158.818 198.854 157.745 198.525 156.607 198.52C153.252 198.511 150.529 201.224 150.529 204.565Z" fill="#616161"/>
</svg>
