<svg width="186" height="260" viewBox="0 0 186 260" fill="none" xmlns="http://www.w3.org/2000/svg">
<path d="M21.1057 259.364C10.1767 259.374 1.25975 250.643 1.23652 239.904L0.66958 20.0842C0.62776 9.2668 9.54019 0.489255 20.5156 0.507842L165.78 0.772734C176.704 0.79132 185.602 9.59207 185.602 20.3863V239.714C185.602 250.443 176.741 259.183 165.835 259.188L21.1057 259.364Z" fill="#C9C9C9"/>
<path d="M22.9224 258.819C12.1236 258.819 3.34143 250.06 3.34143 239.299V20.0319C3.34143 9.2702 12.1236 0.520508 22.9224 0.520508H166.058C176.853 0.520508 185.635 9.2702 185.635 20.0319V239.299C185.635 250.06 176.853 258.819 166.058 258.819H22.9224Z" fill="white"/>
<path d="M26.1891 26.0971C26.1891 26.4502 26.0591 26.7755 25.836 27.0961C25.5526 27.4399 25.3714 27.6677 25.2831 27.7838C24.3538 29.1732 23.6103 30.1444 23.0527 30.6694C22.5787 30.9761 22.1001 31.2781 21.6494 31.5662C21.4867 31.7846 21.4124 32.0215 21.4124 32.2818C21.4775 32.5373 21.5006 32.7001 21.5006 32.8162C21.5006 33.332 21.5378 33.7874 21.6075 34.1777C21.7005 34.5773 21.7934 34.7771 21.9235 34.7771C22.0954 34.7771 22.2674 34.7028 22.4347 34.5773C23.0016 34.1126 23.3594 33.8431 23.5174 33.7873C23.6382 34.0429 23.7125 34.2055 23.7125 34.2426C23.7125 34.5168 23.192 35.1488 22.1465 36.1386C20.9105 37.3095 19.7581 37.8996 18.7173 37.8996C17.9738 37.8996 17.4813 36.9005 17.2676 34.9025C17.0724 32.9044 16.8773 31.8079 16.7053 31.608H10.1023C9.96758 31.5244 9.89334 31.4733 9.85616 31.4454C9.83293 31.4175 9.81433 31.2641 9.81433 30.9993C9.81433 30.6461 10.2511 29.8283 11.1154 28.5598C11.9146 27.4074 13.1367 25.8089 14.8049 23.7876C15.3207 23.1603 15.8457 22.5238 16.3568 21.8918C16.7006 21.4922 17.1653 20.9857 17.7554 20.3677C18.3455 19.7497 18.9728 19.0527 19.6559 18.2442C20.246 17.5565 20.6968 17.1895 21.0406 17.1895L21.4077 17.2823V27.2912C21.7144 27.4446 21.9607 27.5283 22.1141 27.5283C22.2628 27.5004 22.3789 27.4818 22.43 27.4818C23.1828 27.4818 23.8797 27.2448 24.4885 26.7569C24.9578 26.3387 25.4085 25.9205 25.8871 25.5116C25.9847 25.5673 26.0498 25.6092 26.1009 25.6464C26.152 25.6882 26.1891 25.8415 26.1891 26.0971ZM16.9005 27.1193V26.0832V25.7021C16.9005 25.349 16.8772 24.9215 16.8215 24.4429C16.4312 24.7775 15.9014 25.3583 15.237 26.1854C15.0325 26.4503 14.7491 26.8313 14.382 27.3285L14.619 27.4353H16.5148L16.9005 27.1193Z" fill="#333333"/>
<path d="M163.995 235.655C163.995 235.311 164.116 234.981 164.339 234.656C164.637 234.321 164.822 234.093 164.892 233.977C165.831 232.578 166.583 231.617 167.122 231.092C167.61 230.785 168.075 230.473 168.544 230.185C168.688 229.976 168.763 229.73 168.763 229.479C168.716 229.233 168.674 229.052 168.674 228.936C168.674 228.42 168.637 227.983 168.568 227.574C168.493 227.174 168.382 226.975 168.261 226.975C168.089 226.975 167.917 227.049 167.74 227.174C167.183 227.648 166.816 227.909 166.672 227.983C166.542 227.709 166.477 227.565 166.477 227.518C166.477 227.24 166.988 226.603 168.033 225.622C169.288 224.451 170.422 223.861 171.462 223.861C172.224 223.861 172.698 224.86 172.912 226.859C173.117 228.847 173.302 229.953 173.484 230.153H180.077C180.221 230.232 180.296 230.288 180.338 230.306C180.347 230.343 180.365 230.487 180.365 230.752C180.365 231.115 179.929 231.933 179.064 233.192C178.284 234.353 177.057 235.943 175.389 237.973C174.859 238.591 174.343 239.228 173.823 239.86C173.488 240.269 173.014 240.766 172.434 241.384C171.844 242.002 171.207 242.708 170.524 243.507C169.952 244.195 169.483 244.558 169.148 244.558L168.772 244.469V234.46C168.465 234.316 168.238 234.233 168.066 234.233C167.926 234.251 167.819 234.27 167.75 234.27C166.997 234.27 166.309 234.516 165.691 234.995C165.231 235.413 164.771 235.831 164.293 236.249C164.2 236.184 164.149 236.147 164.097 236.105C164.037 236.059 163.995 235.915 163.995 235.655ZM173.275 234.628V235.682V236.045C173.275 236.407 173.298 236.826 173.372 237.314C173.763 236.988 174.283 236.398 174.947 235.571C175.161 235.297 175.435 234.925 175.798 234.428L175.579 234.321H173.674L173.275 234.628Z" fill="#333333"/>
<path opacity="0.2" d="M149.14 48.057C149.149 43.5729 129.638 24.3867 129.638 24.3867C129.638 24.3867 129.619 24.4147 129.61 24.4426V70.4817L138.704 70.5003L131.45 58.0101C133.193 59.0603 135.246 59.6876 137.454 59.6969C143.88 59.7201 149.14 54.5112 149.14 48.057Z" fill="#616161"/>
<path opacity="0.2" d="M44.3342 48.057C44.3203 43.5729 63.8224 24.3867 63.8224 24.3867C63.8224 24.3867 63.8456 24.4147 63.8642 24.4426V70.4817L54.7568 70.5003L62.0241 58.0101C60.2863 59.0603 58.2278 59.6876 56.0207 59.6969C49.5897 59.7201 44.3342 54.5112 44.3342 48.057Z" fill="#616161"/>
<path opacity="0.2" d="M149.038 213.587C149.066 218.071 129.545 237.239 129.545 237.239C129.545 237.239 129.536 237.229 129.512 237.211V191.162L138.611 191.144L131.357 203.634C133.1 202.579 135.153 201.947 137.356 201.947C143.796 201.924 149.038 207.142 149.038 213.587Z" fill="#616161"/>
<path opacity="0.2" d="M44.2461 213.587C44.2229 218.071 63.7435 237.239 63.7435 237.239C63.7435 237.239 63.7668 237.229 63.7761 237.211V191.162L54.6779 191.144L61.9405 203.634C60.2027 202.579 58.1443 201.947 55.9371 201.947C49.5061 201.924 44.2461 207.142 44.2461 213.587Z" fill="#616161"/>
<path opacity="0.2" d="M23.8008 51.7436C23.8101 50.5354 18.5919 45.4287 18.5919 45.4287V45.4473V57.7285H21.0128L19.0797 54.4061C19.5444 54.6803 20.102 54.8522 20.6875 54.8522C22.3928 54.8476 23.8008 53.4535 23.8008 51.7436Z" fill="#616161"/>
<path opacity="0.2" d="M166.955 210.365C166.937 211.573 172.15 216.671 172.15 216.671L172.155 204.39H169.734L171.667 207.703C171.202 207.424 170.654 207.257 170.069 207.257C168.354 207.252 166.955 208.641 166.955 210.365Z" fill="#616161"/>
<path d="M46.8941 42.2482C47.3588 51.0955 65.123 64.5661 65.123 64.5661C65.123 64.5661 83.3984 50.9978 83.3984 42.1319C83.3984 36.0309 78.3986 31.1055 72.3022 31.1055C68.8729 31.1055 65.0487 34.1909 65.0487 34.1909C65.0487 34.1909 61.4382 31.1055 57.9114 31.152C51.8103 31.231 46.5689 36.1425 46.8941 42.2482Z" fill="#D66142"/>
<path opacity="0.2" d="M57.9116 31.1509C61.4384 31.1044 65.049 34.1898 65.049 34.1898C65.049 34.1898 65.114 34.1526 65.1884 34.0876V64.5278C65.1465 64.5557 65.1187 64.565 65.1187 64.565C65.1187 64.565 47.3545 51.0991 46.8898 42.2472C46.5692 36.1414 51.8106 31.2299 57.9116 31.1509Z" fill="#616161"/>
<path d="M149.121 42.2482C148.647 51.0955 130.883 64.5661 130.883 64.5661C130.883 64.5661 112.626 50.9978 112.626 42.1319C112.626 36.0309 117.608 31.1055 123.713 31.1055C127.142 31.1055 130.957 34.1909 130.957 34.1909C130.957 34.1909 134.568 31.1055 138.095 31.152C144.196 31.231 149.456 36.1425 149.121 42.2482Z" fill="#D66142"/>
<path opacity="0.2" d="M138.095 31.1509C134.568 31.1044 130.957 34.1898 130.957 34.1898C130.957 34.1898 130.906 34.1526 130.836 34.0876V64.5278C130.864 64.5557 130.888 64.565 130.888 64.565C130.888 64.565 148.652 51.0991 149.126 42.2472C149.456 36.1414 144.196 31.2299 138.095 31.1509Z" fill="#616161"/>
<path d="M46.8945 217.626C47.3592 208.779 65.1234 195.317 65.1234 195.317C65.1234 195.317 83.3988 208.876 83.3988 217.742C83.3988 223.829 78.399 228.769 72.3026 228.769C68.8733 228.769 65.0491 225.683 65.0491 225.683C65.0491 225.683 61.4386 228.769 57.9118 228.722C51.8107 228.643 46.5692 223.741 46.8945 217.626Z" fill="#D66142"/>
<path opacity="0.2" d="M57.9116 228.722C61.4384 228.769 65.049 225.683 65.049 225.683C65.049 225.683 65.114 225.711 65.1884 225.776V195.345C65.1465 195.327 65.1187 195.317 65.1187 195.317C65.1187 195.317 47.3545 208.774 46.8898 217.626C46.5692 223.741 51.8106 228.643 57.9116 228.722Z" fill="#616161"/>
<path d="M149.121 217.626C148.647 208.779 130.883 195.317 130.883 195.317C130.883 195.317 112.626 208.876 112.626 217.742C112.626 223.829 117.608 228.769 123.713 228.769C127.143 228.769 130.957 225.683 130.957 225.683C130.957 225.683 134.568 228.769 138.095 228.722C144.196 228.643 149.456 223.741 149.121 217.626Z" fill="#D66142"/>
<path opacity="0.2" d="M138.095 228.722C134.568 228.769 130.957 225.683 130.957 225.683C130.957 225.683 130.906 225.711 130.837 225.776V195.345C130.865 195.327 130.888 195.317 130.888 195.317C130.888 195.317 148.652 208.774 149.126 217.626C149.456 223.741 144.196 228.643 138.095 228.722Z" fill="#616161"/>
<path d="M23.9028 50.7551C23.7309 53.8684 17.4905 58.5986 17.4905 58.5986C17.4905 58.5986 11.0687 53.8265 11.0687 50.7133C11.0687 48.5619 12.8252 46.8379 14.9627 46.8379C16.1662 46.8379 17.5136 47.916 17.5136 47.916C17.5136 47.916 18.7869 46.8379 20.0275 46.8611C22.1697 46.889 24.0236 48.6037 23.9028 50.7551Z" fill="#D66142"/>
<path opacity="0.2" d="M20.0276 46.8609C18.787 46.833 17.5137 47.9158 17.5137 47.9158C17.5137 47.9158 17.4905 47.9158 17.4626 47.8972V58.5984C17.4812 58.5984 17.4906 58.5984 17.4906 58.5984C17.4906 58.5984 23.7309 53.8681 23.9029 50.7548C24.0237 48.6034 22.1697 46.8888 20.0276 46.8609Z" fill="#616161"/>
<path d="M163.057 211.809C163.21 208.622 169.599 203.794 169.599 203.794C169.599 203.794 176.151 208.65 176.151 211.847C176.151 214.035 174.353 215.796 172.174 215.796C170.928 215.796 169.557 214.7 169.557 214.7C169.557 214.7 168.261 215.796 167.002 215.787C164.822 215.745 162.936 213.984 163.057 211.809Z" fill="#D66142"/>
<path opacity="0.2" d="M167.006 215.782C168.266 215.792 169.562 214.695 169.562 214.695C169.562 214.695 169.585 214.704 169.613 214.732V203.813C169.604 203.803 169.604 203.794 169.604 203.794C169.604 203.794 163.215 208.622 163.061 211.809C162.936 213.984 164.822 215.745 167.006 215.782Z" fill="#616161"/>
</svg>
