<svg width="183" height="255" viewBox="0 0 183 255" fill="none" xmlns="http://www.w3.org/2000/svg">
<path d="M20.9316 254.921C10.1606 254.949 1.37844 246.343 1.35521 235.763L0.80226 19.3491C0.769733 8.69433 9.53799 0.0376168 20.3508 0.0654968L163.375 0.321171C174.137 0.339758 182.896 9.00575 182.896 19.6234V235.596C182.896 246.158 174.169 254.754 163.45 254.763L20.9316 254.921Z" fill="#C9C9C9"/>
<path d="M22.7113 254.395C12.0798 254.395 3.42767 245.775 3.42767 235.181V19.2644C3.42767 8.67461 12.0798 0.0595703 22.7113 0.0595703H163.649C174.281 0.0595703 182.928 8.67461 182.928 19.2644V235.181C182.928 245.771 174.281 254.395 163.649 254.395H22.7113Z" fill="white"/>
<path d="M127.322 18.3691L146.322 42.3739L127.322 66.3785L108.317 42.3739L127.322 18.3691Z" fill="#D66142"/>
<path opacity="0.2" d="M127.447 18.5318L127.322 18.3691L108.317 42.3739L127.322 66.3785L127.447 66.216V18.5318Z" fill="#616161"/>
<path d="M92.0767 103.234L111.086 127.221L92.0767 151.235L73.0718 127.221L92.0767 103.234Z" fill="#D66142"/>
<path opacity="0.2" d="M92.2021 103.397L92.0767 103.234L73.0718 127.221L92.0767 151.235L92.2021 151.063V103.397Z" fill="#616161"/>
<path d="M127.322 74.9453L146.322 98.9313L127.322 122.945L108.317 98.9313L127.322 74.9453Z" fill="#D66142"/>
<path opacity="0.2" d="M127.447 75.0986L127.322 74.9453L108.317 98.9313L127.322 122.945L127.447 122.783V75.0986Z" fill="#616161"/>
<path d="M59.0389 131.505L40.0294 155.509L59.0389 179.514L78.0391 155.509L59.0389 131.505Z" fill="#D66142"/>
<path opacity="0.2" d="M58.9134 131.668L59.0389 131.505L78.0391 155.509L59.0389 179.514L58.9134 179.361V131.668Z" fill="#616161"/>
<path d="M59.0389 188.077L40.0294 212.068L59.0389 236.073L78.0391 212.068L59.0389 188.077Z" fill="#D66142"/>
<path opacity="0.2" d="M58.9134 188.235L59.0389 188.077L78.0391 212.068L59.0389 236.073L58.9134 235.915V188.235Z" fill="#616161"/>
<path d="M59.0389 18.3691L78.0392 42.3739L59.0389 66.3785L40.0294 42.3739L59.0389 18.3691Z" fill="#D66142"/>
<path opacity="0.2" d="M59.1644 18.5318L59.0389 18.3691L40.0294 42.3739L59.0389 66.3785L59.1644 66.216V18.5318Z" fill="#616161"/>
<path d="M59.0389 74.9453L78.0391 98.9313L59.0389 122.945L40.0294 98.9313L59.0389 74.9453Z" fill="#D66142"/>
<path opacity="0.2" d="M59.1644 75.0986L59.0389 74.9453L40.0294 98.9313L59.0389 122.945L59.1644 122.783V75.0986Z" fill="#616161"/>
<path d="M127.322 131.505L108.317 155.509L127.322 179.514L146.322 155.509L127.322 131.505Z" fill="#D66142"/>
<path opacity="0.2" d="M127.196 131.668L127.322 131.505L146.322 155.509L127.322 179.514L127.196 179.361V131.668Z" fill="#616161"/>
<path d="M127.322 188.077L108.317 212.068L127.322 236.073L146.322 212.068L127.322 188.077Z" fill="#D66142"/>
<path opacity="0.2" d="M127.196 188.235L127.322 188.077L146.322 212.068L127.322 236.073L127.196 235.915V188.235Z" fill="#616161"/>
<path d="M18.5664 57.9015L13.0276 50.9128L18.5664 43.9336L24.1006 50.9128L18.5664 57.9015Z" fill="#D66142"/>
<path opacity="0.2" d="M18.5664 43.9336L18.5153 43.9801V57.8457L18.5664 57.9015L24.1006 50.9128L18.5664 43.9336Z" fill="#616161"/>
<path d="M26.0384 23.4253C26.0384 24.7775 25.7363 26.2551 25.123 27.8442C24.5235 29.4427 23.887 30.6044 23.2411 31.3572C22.0701 32.6629 20.9735 33.7734 19.9466 34.6424C18.2552 36.0968 16.9077 36.8216 15.8993 36.8216C15.811 36.8216 15.7088 36.7937 15.6205 36.7147C15.5322 36.6311 15.444 36.5521 15.3696 36.4592C16.3036 35.8597 17.2515 35.0141 18.218 33.936C19.1892 32.8394 20.1324 31.3757 21.0664 29.5449V29.1732C20.9874 29.1361 20.9177 29.0988 20.8434 29.0663C20.0953 29.4009 19.4169 29.6936 18.7942 29.9306C18.1716 30.1862 17.6186 30.2931 17.1307 30.2931C16.1642 30.2931 15.2534 29.768 14.3985 28.6946C13.4134 27.4958 12.9208 26.0367 12.9208 24.3221C12.9208 22.6446 13.9245 20.8836 15.9319 19.0203C17.7766 17.3057 19.3146 16.4414 20.5414 16.4414C21.6937 16.4414 22.8461 17.0501 23.9985 18.2582C25.3553 19.6847 26.0384 21.404 26.0384 23.4253ZM21.7867 25.8509C21.7867 24.206 21.2895 22.8352 20.2811 21.72C19.389 20.7395 18.4782 20.2423 17.5443 20.2423C17.3259 20.2423 17.1772 20.3772 17.0982 20.6513C17.0238 20.9162 16.982 21.2227 16.982 21.5573C16.982 22.9652 17.3398 24.1456 18.0461 25.0702C18.9011 26.2133 19.7189 26.7756 20.5042 26.7756C20.8945 26.7756 21.1826 26.7198 21.3731 26.6315C21.6519 26.4828 21.7867 26.2226 21.7867 25.8509Z" fill="#333333"/>
<path d="M161.535 233.419C161.535 232.058 161.837 230.589 162.446 229C163.045 227.402 163.677 226.24 164.332 225.497C165.499 224.172 166.6 223.066 167.622 222.202C169.314 220.748 170.666 220.032 171.674 220.032C171.762 220.032 171.855 220.051 171.948 220.125C172.041 220.209 172.125 220.288 172.199 220.381C171.265 220.98 170.322 221.826 169.355 222.904C168.384 224 167.436 225.473 166.507 227.304V227.676C166.581 227.713 166.651 227.75 166.725 227.783C167.474 227.458 168.152 227.155 168.779 226.909C169.397 226.663 169.955 226.547 170.438 226.547C171.405 226.547 172.32 227.081 173.175 228.145C174.165 229.344 174.657 230.812 174.657 232.527C174.657 234.195 173.649 235.956 171.637 237.829C169.797 239.544 168.259 240.399 167.032 240.399C165.88 240.399 164.723 239.799 163.57 238.582C162.214 237.16 161.535 235.436 161.535 233.419ZM165.782 230.989C165.782 232.634 166.279 234 167.288 235.129C168.18 236.11 169.095 236.607 170.025 236.607C170.248 236.607 170.396 236.472 170.471 236.207C170.545 235.933 170.578 235.626 170.578 235.292C170.578 233.884 170.224 232.694 169.518 231.77C168.663 230.645 167.845 230.083 167.06 230.083C166.674 230.083 166.382 230.12 166.191 230.208C165.917 230.352 165.782 230.617 165.782 230.989Z" fill="#333333"/>
<path d="M168.988 198.937L174.523 205.911L168.988 212.9L163.459 205.911L168.988 198.937Z" fill="#D66142"/>
<path opacity="0.2" d="M169.026 198.96L168.988 198.937L163.459 205.911L168.988 212.9L169.026 212.849V198.96Z" fill="#616161"/>
</svg>
