<svg width="186" height="260" viewBox="0 0 186 260" fill="none" xmlns="http://www.w3.org/2000/svg">
<path d="M20.7466 259.379C9.80837 259.398 0.886769 250.662 0.863535 239.914L0.305936 20.1407C0.273409 9.32325 9.18572 0.536383 20.1565 0.559616L165.388 0.829117C176.317 0.847703 185.215 9.64385 185.215 20.4381V239.738C185.215 250.462 176.359 259.198 165.462 259.212L20.7466 259.379Z" fill="#C9C9C9"/>
<path d="M22.7261 258.798C11.9318 258.798 3.1543 250.044 3.1543 239.282V20.034C3.1543 9.27701 11.9318 0.527344 22.7261 0.527344H165.848C176.642 0.527344 185.42 9.27701 185.42 20.034V239.282C185.42 250.039 176.642 258.798 165.848 258.798H22.7261Z" fill="white"/>
<path d="M165.639 254.722H22.517C14.1577 254.722 7.35031 247.947 7.35031 239.616V20.3675C7.35031 12.3613 13.7116 5.83743 17.1176 4.58748L17.6194 4.40625L161.503 4.41089C175.736 5.52609 180.801 13.3882 180.801 20.3722V239.62C180.806 247.947 174.003 254.722 165.639 254.722ZM18.8369 10.3912C17.2942 11.3577 13.3399 15.391 13.3399 20.3629V239.611C13.3399 244.634 17.4568 248.723 22.517 248.723H165.639C170.699 248.723 174.816 244.634 174.816 239.611V20.3629C174.816 14.8101 169.714 11.0835 161.155 10.3912H18.8369Z" fill="#D66142"/>
<path d="M27.8281 68.643L18.4604 56.8172L27.8281 44.9961L37.1958 56.8172L27.8281 68.643Z" fill="#D66142"/>
<path opacity="0.2" d="M27.8281 44.9961L27.5307 45.3771V68.262L27.8281 68.643L37.1958 56.8172L27.8281 44.9961Z" fill="#616161"/>
<path d="M35.472 27.6971C35.472 28.6822 35.235 29.7648 34.7471 30.959C34.2685 32.1486 33.6923 33.0965 33.0325 33.7935C32.7862 34.0537 32.3541 34.444 31.7268 34.9598C30.8207 35.6986 29.8774 36.3584 28.8969 36.9393C28.6135 37.1158 28.4044 37.2367 28.2696 37.311C27.8375 37.5945 27.6145 37.7943 27.6145 37.9058C27.6145 38.1335 28.2882 38.5238 29.6311 39.0675C30.8392 39.5554 31.7453 39.8667 32.3494 40.0061C32.4284 40.02 32.5585 40.0293 32.749 40.0293H33.2555C33.4088 40.0293 33.5622 40.0293 33.7248 40.0293C33.8828 40.0293 34.0501 40.0526 34.222 40.113C34.1058 40.2292 33.8828 40.3639 33.5529 40.5265C33.223 40.6845 32.8838 40.8379 32.5446 40.9912C32.0753 41.4094 31.7128 41.7254 31.4526 41.9438C31.2017 42.1575 30.9972 42.269 30.8439 42.269C30.4071 42.269 29.6915 41.7858 28.6925 40.8239C27.6888 39.8574 26.7362 39.3741 25.8301 39.3741C25.2632 39.3741 24.7103 39.5833 24.1713 40.0108C23.6323 40.4336 23.307 40.6473 23.1908 40.6473C22.9678 40.6473 22.8516 40.494 22.8516 40.192C22.8516 39.9829 23.1722 39.6344 23.8135 39.1418C24.227 38.8212 24.6452 38.5099 25.0634 38.2079C24.0226 37.6038 23.0235 36.9719 22.0756 36.3074C21.1184 35.6476 20.2727 34.8344 19.5385 33.8725C18.8927 33.0222 18.4001 32.1207 18.0609 31.1635C17.7217 30.2109 17.5498 29.2258 17.5498 28.2036C17.5498 26.6516 17.8518 25.397 18.4605 24.4351C18.6882 24.0727 19.4038 23.2781 20.6119 22.0514C20.993 21.675 21.9455 20.8665 23.4789 19.6165C25.3887 18.0738 26.5318 17.2979 26.9082 17.2979C27.2474 17.2979 27.8793 17.6231 28.8086 18.2829C29.9424 19.0775 31.2528 20.2299 32.749 21.7447C33.6923 22.6926 34.3846 23.6266 34.8168 24.5513C35.2536 25.4806 35.472 26.5308 35.472 27.6971ZM30.6766 30.3643C30.6766 29.4953 30.4907 28.5335 30.1237 27.488C29.7566 26.4332 29.2408 25.4528 28.581 24.5234C28.0698 23.7892 27.1219 22.911 25.7465 21.8888C25.2958 21.5542 24.6499 21.1174 23.8181 20.5877C23.4975 20.5877 23.0979 21.1453 22.6146 22.2698C22.136 23.3989 21.8944 24.1284 21.8944 24.4723C21.8944 26.0196 22.2197 27.4554 22.8841 28.7751C23.4325 29.8903 24.2828 31.0427 25.4352 32.2323C25.9045 32.7202 27.0615 33.8028 28.8969 35.4663C29.5149 34.8809 29.9889 33.9794 30.3095 32.7713C30.5511 31.8652 30.6766 31.0659 30.6766 30.3643Z" fill="#333333"/>
<path d="M161.062 193.718L170.43 205.544L161.062 217.365L151.704 205.544L161.062 193.718Z" fill="#D66142"/>
<path opacity="0.2" d="M161.062 217.365L161.369 216.988V194.099L161.062 193.718L151.704 205.544L161.062 217.365Z" fill="#616161"/>
<path d="M153.432 234.668C153.432 233.687 153.674 232.605 154.157 231.406C154.64 230.216 155.212 229.273 155.872 228.576C156.118 228.306 156.555 227.916 157.177 227.414C158.083 226.675 159.027 226.011 160.012 225.425C160.295 225.258 160.5 225.133 160.635 225.058C161.071 224.77 161.285 224.57 161.285 224.464C161.285 224.241 160.616 223.85 159.273 223.297C158.06 222.809 157.154 222.498 156.55 222.363C156.471 222.34 156.341 222.335 156.155 222.335H155.644C155.495 222.335 155.337 222.335 155.179 222.335C155.017 222.335 154.854 222.308 154.682 222.247C154.794 222.136 155.017 221.996 155.351 221.838C155.681 221.68 156.016 221.522 156.36 221.369C156.829 220.955 157.196 220.639 157.447 220.421C157.702 220.203 157.907 220.096 158.06 220.096C158.492 220.096 159.213 220.579 160.212 221.545C161.215 222.507 162.168 222.991 163.079 222.991C163.646 222.991 164.198 222.772 164.733 222.349C165.272 221.926 165.602 221.717 165.713 221.717C165.941 221.717 166.053 221.871 166.053 222.173C166.053 222.377 165.732 222.73 165.086 223.218C164.672 223.539 164.259 223.855 163.841 224.157C164.882 224.761 165.876 225.393 166.833 226.057C167.786 226.717 168.636 227.53 169.37 228.492C170.011 229.343 170.504 230.244 170.843 231.197C171.182 232.149 171.354 233.139 171.354 234.161C171.354 235.708 171.052 236.968 170.448 237.93C170.221 238.292 169.505 239.082 168.297 240.313C167.92 240.694 166.963 241.503 165.434 242.748C163.525 244.296 162.382 245.072 162.005 245.072C161.661 245.072 161.034 244.742 160.105 244.077C158.971 243.287 157.656 242.13 156.164 240.62C155.216 239.672 154.529 238.738 154.097 237.813C153.651 236.889 153.432 235.834 153.432 234.668ZM158.228 232C158.228 232.874 158.413 233.831 158.78 234.881C159.148 235.932 159.663 236.921 160.328 237.841C160.839 238.58 161.782 239.458 163.162 240.476C163.613 240.82 164.259 241.252 165.086 241.786C165.411 241.786 165.816 241.219 166.289 240.1C166.773 238.975 167.014 238.241 167.014 237.902C167.014 236.35 166.68 234.909 166.02 233.594C165.472 232.474 164.621 231.327 163.469 230.133C163 229.645 161.843 228.567 160.012 226.903C159.385 227.489 158.915 228.39 158.59 229.598C158.348 230.5 158.228 231.303 158.228 232Z" fill="#333333"/>
<path d="M121.942 73.7969L121.663 77.7001L121.482 80.0792L120.761 90.2647L120.576 92.6577L120.357 95.9104V95.9289L120.134 98.9261L117.811 98.9772L116.71 98.9958L114.437 99.0515L113.141 99.0748L111.57 99.1073L108.792 99.163L105.706 99.2327L91.2087 99.5394H91.1808L76.6832 99.2327L73.5978 99.163L70.8145 99.1073L69.2485 99.0748L67.9521 99.0515L66.8137 99.0283L65.6706 98.9958L64.574 98.9772L62.2553 98.9261L62.0323 95.9289V95.9104L61.8092 92.6577L61.628 90.2647L60.9031 80.0792L60.7266 77.7001L60.4478 73.7969H121.942Z" fill="#C9C9C9"/>
<path opacity="0.2" d="M119.13 73.7966C114.544 80.2741 108.095 86.8863 100.943 86.8863H100.864C99.3077 88.875 97.4723 90.3852 95.4556 91.2541C94.1917 91.7978 92.8396 92.0859 91.4688 92.0859C91.3852 92.0859 91.2829 92.0766 91.2039 92.058C91.19 92.058 91.19 92.058 91.1761 92.058V73.792L119.13 73.7966Z" fill="#616161"/>
<path d="M131.751 113.912L120.092 117.392L119.005 117.722L118.67 117.82C117.755 116.282 117.03 115.162 116.7 114.66C116.589 114.507 116.519 114.409 116.491 114.377C115.45 116.031 114.893 117.592 114.549 119.056L111.436 119.985L91.2133 126.017L78.5929 129.78L74.3691 131.049C74.225 130.547 74.0438 130.008 73.8394 129.45C66.2885 126.226 70.0988 120.98 65.9029 114.377C65.4568 114.911 57.2275 127.485 55.8103 136.578L54.7927 136.89L46.6053 139.334H46.4101C46.2707 121.374 51.7352 109.391 56.7768 102.17C57.1253 101.663 57.4738 101.185 57.8223 100.72C58.1708 100.293 58.4914 99.8697 58.8074 99.4701L58.8167 99.4562C58.8167 99.4376 58.8306 99.4236 58.8306 99.4236C59.0816 99.1355 59.3325 98.8289 59.5834 98.5547C59.8204 98.262 60.0713 97.9831 60.3036 97.7183C60.9123 97.0399 61.4978 96.4404 62.0275 95.9247V95.9108H62.0415C62.1762 95.7899 62.3017 95.6552 62.4272 95.5204C62.5573 95.4136 62.6781 95.2881 62.8035 95.1859C62.9151 95.079 63.0405 94.9628 63.152 94.8699C63.3751 94.6608 63.5842 94.4796 63.7747 94.3262C64.5786 93.6246 65.0711 93.3086 65.0711 93.3086L66.9623 93.7687L67.2922 93.8522L68.045 94.0474L68.2541 94.0846L70.8934 93.9777L74.9639 93.8058L91.1714 93.1553H91.1993L107.407 93.8058L111.477 93.9777L114.121 94.0846L114.326 94.0474L115.074 93.8522L115.408 93.7687L117.295 93.3086C117.295 93.3086 117.778 93.6246 118.587 94.3262C118.782 94.4796 118.991 94.6608 119.214 94.8699C119.326 94.9628 119.451 95.079 119.563 95.1859C119.688 95.2881 119.813 95.4089 119.939 95.5204C120.064 95.6598 120.19 95.7899 120.329 95.9108L120.343 95.9247C120.469 96.0315 120.594 96.157 120.729 96.3104C120.873 96.4544 121.022 96.5892 121.161 96.7425C121.449 97.0492 121.756 97.3698 122.062 97.7183C122.272 97.9413 122.467 98.1598 122.676 98.3967C122.718 98.4525 122.746 98.5129 122.787 98.5547C123.038 98.8289 123.285 99.1355 123.54 99.4236C123.54 99.4236 123.554 99.4329 123.554 99.4562L123.568 99.4701C123.889 99.8697 124.209 100.293 124.553 100.72C124.906 101.185 125.245 101.663 125.599 102.17C127.722 105.213 129.934 109.103 131.751 113.912Z" fill="#D66142"/>
<path opacity="0.2" d="M91.1854 106.302H93.8572L92.663 115.916C92.1798 115.939 91.6826 115.953 91.1854 115.962V106.302Z" fill="#616161"/>
<path opacity="0.2" d="M91.204 73.7998H63.2497C67.8499 80.2633 74.2948 86.8848 81.4367 86.8848H81.5157C84.0481 90.1235 87.3194 92.089 90.9113 92.089C91.0089 92.089 91.1064 92.0658 91.1994 92.0658L91.204 73.7998Z" fill="#616161"/>
<path opacity="0.2" d="M91.2041 106.299H88.5369L89.7264 115.913C90.219 115.936 90.7115 115.95 91.2041 115.959V106.299Z" fill="#616161"/>
<path opacity="0.2" d="M81.4785 114.375C67.9521 111.397 60.6104 106.838 56.7815 102.164C59.5788 98.1443 62.2599 95.6026 63.7747 94.3154L81.4785 114.375Z" fill="#616161"/>
<path d="M91.204 88.0997C91.1111 88.0997 91.0089 88.109 90.9159 88.109C89.5777 88.109 88.2859 87.8348 87.0592 87.333C86.9849 87.6443 86.9291 87.9697 86.9291 88.3135V90.0421C88.2023 90.595 89.5405 90.8831 90.9159 90.8831C91.0135 90.8831 91.1111 90.8738 91.204 90.8738V88.0997Z" fill="#FDD8AB"/>
<path d="M91.2041 84.2031C91.1576 84.2031 91.1112 84.1846 91.0554 84.1846C89.1178 84.1846 87.5007 85.5321 87.0593 87.3397C88.2906 87.8415 89.5824 88.1156 90.916 88.1156C91.0089 88.1156 91.1112 88.1063 91.2041 88.1063V84.2031Z" fill="#FDD8AB"/>
<path d="M114.939 92.83L107.765 92.7324L95.4603 92.5744V90.042C94.1871 90.5949 92.8489 90.883 91.4735 90.883C91.3806 90.883 91.2969 90.8784 91.204 90.8737C91.204 90.8737 91.1993 90.8737 91.19 90.8737C91.0971 90.8784 91.0088 90.883 90.9159 90.883C89.5358 90.883 88.2022 90.5949 86.929 90.042V92.5744L74.6247 92.7324L67.4549 92.83C66.191 95.0232 66.7486 95.2323 66.7486 97.7555C66.7486 104.024 71.0746 109.553 77.6636 112.834C77.6961 112.857 77.7101 112.866 77.7426 112.876C78.9228 113.452 80.1774 113.972 81.4832 114.381C84.0342 115.232 86.8082 115.752 89.7263 115.915C89.889 115.924 90.047 115.929 90.2049 115.943C90.5256 115.956 90.8601 115.956 91.19 115.961C91.1947 115.961 91.204 115.961 91.2086 115.961C91.5385 115.956 91.8685 115.956 92.1891 115.943C92.3517 115.933 92.5097 115.924 92.6677 115.915C95.5811 115.752 98.3645 115.232 100.911 114.381C102.221 113.972 103.471 113.452 104.651 112.876C104.684 112.871 104.703 112.862 104.73 112.834C111.319 109.553 115.65 104.024 115.65 97.7555C115.645 95.2277 116.203 95.0186 114.939 92.83Z" fill="#FDD8AB"/>
<path d="M91.1854 88.0997C91.283 88.0997 91.3759 88.109 91.4735 88.109C92.8164 88.109 94.0989 87.8348 95.3302 87.333C95.4092 87.6443 95.4603 87.9697 95.4603 88.3135V90.0421C94.1871 90.595 92.8489 90.8831 91.4735 90.8831C91.3759 90.8831 91.283 90.8738 91.1854 90.8738V88.0997Z" fill="#FDD8AB"/>
<path d="M91.1854 84.2012C91.2365 84.2012 91.283 84.1826 91.3294 84.1826C93.2717 84.1826 94.8888 85.5302 95.3302 87.3377C94.0989 87.8395 92.8117 88.1137 91.4735 88.1137C91.3759 88.1137 91.283 88.1044 91.1854 88.1044V84.2012Z" fill="#FDD8AB"/>
<path opacity="0.2" d="M125.613 102.169C121.77 106.839 114.437 111.388 100.915 114.38L108.248 106.063L108.694 105.561L114.437 99.0557L115.645 97.6803L118.605 94.3301C118.801 94.4834 119.01 94.6646 119.233 94.8737C119.344 94.9666 119.47 95.0828 119.581 95.1897C119.707 95.2919 119.832 95.4127 119.958 95.5242C120.083 95.6497 120.208 95.7751 120.348 95.9145H120.362V95.9285C120.487 96.0354 120.613 96.1609 120.747 96.3142C120.892 96.4583 121.04 96.593 121.18 96.7463C121.468 97.053 121.774 97.3736 122.081 97.7221C122.29 97.9452 122.485 98.1635 122.694 98.4005C122.736 98.4423 122.778 98.4981 122.82 98.5399C123.057 98.8187 123.303 99.1115 123.554 99.4275C123.554 99.4275 123.568 99.4367 123.568 99.4599H123.582V99.4739C123.903 99.8735 124.223 100.296 124.567 100.724C124.92 101.179 125.259 101.663 125.613 102.169Z" fill="#616161"/>
<path d="M127.35 88.1969C127.35 89.0333 127.304 89.8743 127.164 90.7572C126.774 93.5359 125.71 96.4819 123.577 99.4558V99.4697C121.537 102.304 118.545 105.139 114.284 107.885C114.028 108.043 113.754 108.215 113.475 108.382C110.999 109.911 108.095 111.407 104.735 112.834C104.661 112.88 104.596 112.908 104.526 112.936C104.466 112.968 104.414 112.992 104.359 113.005C104.15 113.089 103.954 113.173 103.745 113.256C103.146 113.507 102.519 113.758 101.882 114.009C101.561 114.135 101.241 114.255 100.911 114.376L108.787 99.163L111.482 93.9774L112.091 92.7878L121.937 73.7969C121.937 73.7969 127.35 79.9955 127.35 88.1969Z" fill="#EBEBEB"/>
<path d="M81.4785 114.376C76.4369 112.49 72.2874 110.459 68.9047 108.382C68.6305 108.205 68.361 108.038 68.1054 107.871C59.3511 102.258 55.9683 96.1798 55.2156 90.7479C55.0855 89.879 55.0343 89.0287 55.0343 88.1923C55.039 79.9956 60.4431 73.7969 60.4431 73.7969L81.4785 114.376Z" fill="#EBEBEB"/>
<path opacity="0.2" d="M78.5882 129.785L74.3597 131.044C74.2111 130.552 74.0345 130.013 73.8254 129.46C66.2745 126.226 70.0848 120.998 65.8982 114.386C65.4381 114.911 57.2135 127.485 55.7963 136.578L54.7833 136.89C52.6226 127.406 66.9622 111.505 66.9622 111.505C66.9622 111.505 73.3932 127.373 78.5882 129.785Z" fill="#616161"/>
<path opacity="0.2" d="M120.092 117.389L119.005 117.719L118.67 117.817C117.755 116.278 117.03 115.159 116.7 114.657C116.589 114.503 116.519 114.406 116.491 114.373C115.45 116.028 114.893 117.589 114.549 119.053L111.436 119.982C113.759 115.623 115.427 111.497 115.427 111.497C115.427 111.497 117.574 113.913 120.092 117.389Z" fill="#616161"/>
<path d="M63.7887 97.9368L66.3304 101.31L65.1873 97.249L63.7887 97.9368Z" fill="#333333"/>
<path d="M72.5709 106.118L75.108 109.5L73.9649 105.435L72.5709 106.118Z" fill="#333333"/>
<path d="M59.1792 77.7932L61.7116 81.1666L60.5685 77.1055L59.1792 77.7932Z" fill="#333333"/>
<path d="M62.5248 84.8806L65.0619 88.2494L63.9188 84.1836L62.5248 84.8806Z" fill="#333333"/>
<path d="M65.875 91.9599L68.4121 95.3288L67.2598 91.2676L65.875 91.9599Z" fill="#333333"/>
<path d="M69.2253 99.0429L71.7624 102.412L70.6147 98.3506L69.2253 99.0429Z" fill="#333333"/>
<path d="M68.9092 108.381C68.6351 108.204 68.3656 108.037 68.11 107.87L66.6277 105.904L68.0171 105.212L68.9092 108.381Z" fill="#333333"/>
<path d="M57.0975 83.7689L59.6299 87.1424L58.4868 83.0859L57.0975 83.7689Z" fill="#333333"/>
<path d="M60.4477 90.8481L62.9802 94.2216L61.8324 90.165L60.4477 90.8481Z" fill="#333333"/>
<path d="M56.3076 92.192L55.2202 90.7469C55.0901 89.878 55.039 89.0277 55.039 88.1913L55.1552 88.1309L56.3076 92.192Z" fill="#333333"/>
<path d="M58.5891 97.2244L61.1262 100.589L59.9692 96.5273L58.5891 97.2244Z" fill="#333333"/>
<path d="M118.591 97.9368L116.054 101.31L117.207 97.249L118.591 97.9368Z" fill="#333333"/>
<path d="M109.814 106.118L107.281 109.5L108.429 105.435L109.814 106.118Z" fill="#333333"/>
<path d="M123.21 77.7932L120.673 81.1666L121.821 77.1055L123.21 77.7932Z" fill="#333333"/>
<path d="M119.86 84.8806L117.328 88.2494L118.475 84.1836L119.86 84.8806Z" fill="#333333"/>
<path d="M116.514 91.9599L113.973 95.3288L115.125 91.2676L116.514 91.9599Z" fill="#333333"/>
<path d="M113.164 99.0429L110.627 102.412L111.779 98.3506L113.164 99.0429Z" fill="#333333"/>
<path d="M113.48 108.381C113.754 108.204 114.024 108.037 114.284 107.87L115.762 105.904L114.372 105.212L113.48 108.381Z" fill="#333333"/>
<path d="M125.292 83.7689L122.755 87.1424L123.902 83.0859L125.292 83.7689Z" fill="#333333"/>
<path d="M121.942 90.8481L119.409 94.2216L120.557 90.165L121.942 90.8481Z" fill="#333333"/>
<path d="M127.35 88.1966C127.35 89.033 127.304 89.8741 127.164 90.7569L126.082 92.2021L127.234 88.1455L127.35 88.1966Z" fill="#333333"/>
<path d="M123.805 97.2244L121.268 100.589L122.416 96.5273L123.805 97.2244Z" fill="#333333"/>
<path d="M126.193 57.6558C126.193 57.6558 122.174 66.5541 115.961 73.7983C111.766 78.6866 106.566 82.8128 100.943 82.9151H100.864C100.739 82.9011 100.614 82.8732 100.488 82.85C102.347 80.443 103.806 77.3297 104.675 73.7983C105.228 71.4796 105.534 68.989 105.534 66.3868C105.534 57.1028 101.654 49.1942 96.1946 46.0809C95.9111 46.1088 95.6463 46.1645 95.3861 46.2249C95.2141 46.2621 95.0515 46.3086 94.8842 46.3737C94.8006 46.4062 94.7076 46.4201 94.624 46.4666C94.4288 46.5363 94.2337 46.6153 94.0525 46.7129C93.9921 46.7408 93.9549 46.7547 93.8991 46.7826C93.7597 46.8662 93.625 46.9545 93.4856 47.0521C93.4298 47.0799 93.3741 47.1032 93.3322 47.1311C93.3044 47.1636 93.2625 47.1729 93.2347 47.2008C92.7746 47.5214 92.3564 47.9117 92.0126 48.3392C91.692 48.7016 91.4271 49.1198 91.2087 49.5519V49.5891L91.1948 49.5752C91.1948 49.5752 91.1948 49.5891 91.1855 49.5891V49.5519C90.9624 49.1198 90.7022 48.7016 90.3816 48.3392C89.9773 47.828 89.4755 47.3959 88.9086 47.0521C88.5508 46.8104 88.1698 46.6199 87.7702 46.4712C87.2683 46.2854 86.7386 46.1506 86.1949 46.0902C80.7351 49.2035 76.8552 57.1167 76.8552 66.3961C76.8552 68.9982 77.1618 71.4889 77.7148 73.8076C78.5791 77.339 80.0381 80.4523 81.8968 82.8593C81.7713 82.8825 81.6645 82.9104 81.5251 82.9243H81.4414C75.8236 82.8268 70.6286 78.6958 66.428 73.8076C60.2154 66.5634 56.2007 57.665 56.2007 57.665L81.1905 32.4337L81.8038 31.811L81.8875 31.7273L82.5055 31.0954L91.1855 21.9275V21.9043L91.1948 21.9182L91.2087 21.9043V21.9275L91.3899 22.1227L99.8794 31.1L100.59 31.8156L101.204 32.4383L126.193 57.6558Z" fill="#D66142"/>
<path opacity="0.2" d="M91.2042 44.6138L97.914 35.6922L91.2042 26.5569V26.5244L91.1902 26.543L91.1856 26.5244V26.5569L84.4758 35.6922L91.1856 44.6138V44.6418L91.1902 44.6325L91.2042 44.6418V44.6138Z" fill="#616161"/>
<path d="M101.204 32.4278L91.2088 45.7916V45.8148L91.1902 45.8055L91.1809 45.8148V45.7916L81.1859 32.4278L81.7993 31.8051L81.8829 31.7215L84.657 35.4481L85.5631 36.6423L91.1809 29.1519V29.124L91.1902 29.1333L91.2088 29.124V29.1519L96.8266 36.6423L97.7234 35.4481L100.507 31.7215L100.59 31.8051L101.204 32.4278Z" fill="#FFD675"/>
<path opacity="0.2" d="M91.2041 41.3078L94.5218 36.8842L91.2041 32.4559V32.4326L91.1901 32.4419L91.1855 32.4326V32.4559L87.8631 36.8842L91.1855 41.3078V41.3356L91.1901 41.3263L91.2041 41.3356V41.3078Z" fill="#616161"/>
<path opacity="0.2" d="M67.153 36.0936L70.4707 31.67L67.153 27.2464V27.2139L67.1437 27.2278L67.1344 27.2139V27.2464L63.8167 31.67L67.1344 36.0936V36.1216L67.1437 36.1123L67.153 36.1216V36.0936Z" fill="#616161"/>
<path d="M96.1992 46.0771C93.9967 46.3188 92.138 47.6663 91.1901 49.5714C90.2469 47.6663 88.3882 46.3188 86.1857 46.0771C80.7305 49.1951 76.8552 57.1083 76.8552 66.3877C76.8552 72.9767 78.8068 78.864 81.8968 82.8509C81.9107 82.8741 81.9247 82.8973 81.9386 82.9206C81.9386 82.9206 81.9433 82.9252 81.9526 82.9345C83.5417 84.9605 85.419 86.4846 87.4821 87.3396C88.6623 87.8182 89.903 88.0877 91.1808 88.1109H91.1855H91.1994C92.4819 88.0877 93.7179 87.8182 94.8982 87.3396C96.9613 86.4846 98.8432 84.9605 100.428 82.9345C100.432 82.9252 100.437 82.9206 100.437 82.9206C100.451 82.902 100.465 82.8788 100.483 82.8509C103.569 78.864 105.525 72.9767 105.525 66.3877C105.534 57.1083 101.659 49.1951 96.1992 46.0771Z" fill="#FDD8AB"/>
<path d="M80.4609 65.1338C80.3959 65.2918 80.3541 65.4591 80.3541 65.6356C80.3541 66.7462 81.7248 67.6476 83.4116 67.6476C85.0983 67.6476 86.4691 66.7462 86.4691 65.6356C86.4691 65.4591 86.4273 65.2918 86.3669 65.1338H80.4609Z" fill="#333333"/>
<path d="M101.933 65.1338C101.994 65.2918 102.035 65.4591 102.035 65.6356C102.035 66.7462 100.665 67.6476 98.9779 67.6476C97.2865 67.6476 95.9158 66.7462 95.9158 65.6356C95.9158 65.4591 95.9576 65.2918 96.0226 65.1338H101.933Z" fill="#333333"/>
<path d="M95.1862 80.1855H91.204H91.1855H87.2033C88.0025 81.245 89.4848 81.9652 91.1855 81.9838L91.1901 81.9884C91.1947 81.9884 91.1994 81.9884 91.204 81.9884C92.9047 81.9652 94.3824 81.245 95.1862 80.1855Z" fill="#D66142"/>
<path d="M91.1901 79.9676C89.3826 77.8441 86.8037 80.5299 86.8037 80.5299H91.1855H91.2041H95.5905C95.5905 80.5299 93.007 77.8441 91.1901 79.9676Z" fill="#D66B4F"/>
<path opacity="0.2" d="M91.2041 68.523V68.458L91.1901 68.4905L91.1855 68.458V68.523L88.8854 75.8601H91.1855H91.2041H93.5041L91.2041 68.523Z" fill="#616161"/>
<path d="M95.5906 60.7539L101.659 61.0745L101.738 61.0885L101.785 61.1303L104.192 63.7649L101.524 61.3951L101.654 61.4416L95.5859 61.7436L95.5906 60.7539Z" fill="#D66142"/>
<path d="M87.3241 61.7436L81.2556 61.4416L81.381 61.3951L78.7185 63.7649L81.1255 61.1303L81.1719 61.0885L81.2556 61.0745L87.3241 60.7539V61.7436Z" fill="#D66142"/>
<path opacity="0.2" d="M81.4785 114.377C80.1588 113.889 78.9181 113.378 77.7379 112.872C77.7054 112.867 77.6914 112.858 77.6589 112.83C71.0746 109.549 66.7439 104.02 66.7439 97.7515C66.7439 95.2284 66.1863 95.0193 67.4502 92.8261L74.62 92.7285L81.4785 114.377Z" fill="#616161"/>
<path opacity="0.2" d="M95.3301 87.333C94.0988 87.8348 92.8117 88.109 91.4734 88.109C91.3805 88.109 91.2968 88.0997 91.2039 88.0997C91.2039 88.0997 91.1993 88.0997 91.19 88.0997C91.097 88.0997 90.9994 88.109 90.9158 88.109C89.5776 88.109 88.2858 87.8348 87.0591 87.333C86.9847 87.6443 86.929 87.9697 86.929 88.3135V90.0421C88.2022 90.595 89.5404 90.8831 90.9158 90.8831C91.0087 90.8831 91.1017 90.8738 91.19 90.8738C91.2875 90.8738 91.3805 90.8831 91.4734 90.8831C92.8488 90.8831 94.1871 90.595 95.4603 90.0421V88.3135C95.4603 87.9743 95.4045 87.6443 95.3301 87.333Z" fill="#616161"/>
<path opacity="0.2" d="M93.2671 106.74H91.204H91.1854H89.1223L90.205 115.936C90.5256 115.95 90.8601 115.95 91.19 115.955C91.1947 115.955 91.204 115.955 91.2086 115.955C91.5385 115.95 91.8685 115.95 92.1891 115.936L93.2671 106.74Z" fill="#616161"/>
<path opacity="0.2" d="M100.906 114.377C102.226 113.889 103.466 113.378 104.647 112.872C104.679 112.867 104.698 112.858 104.726 112.83C111.315 109.549 115.645 104.02 115.645 97.7515C115.645 95.2284 116.203 95.0193 114.939 92.8261L107.765 92.7285L100.906 114.377Z" fill="#616161"/>
<path opacity="0.2" d="M131.751 113.91L120.092 117.391L119.005 117.72C117.848 115.801 117.002 114.537 116.863 114.379C116.812 114.482 116.751 114.579 116.696 114.663C115.762 116.22 115.264 117.674 114.916 119.059L111.803 119.988L91.204 126.131V22.2965L91.3852 22.1152L99.8747 31.0926L100.586 31.8082L101.199 32.4309L126.189 57.6622C126.189 57.6622 122.169 66.5606 115.957 73.8048H121.937C121.937 73.8048 127.346 80.0034 127.346 88.2048C127.346 89.0412 127.299 89.8823 127.16 90.7651C126.77 93.5438 125.705 96.4898 123.573 99.4637V99.4776C123.893 99.8773 124.214 100.3 124.558 100.728C124.911 101.192 125.25 101.671 125.603 102.177C127.722 105.212 129.934 109.101 131.751 113.91Z" fill="#616161"/>
<path opacity="0.2" d="M93.2346 47.1884C93.2668 47.1654 93.3036 47.1516 93.3357 47.124C93.3036 47.1516 93.2668 47.1608 93.2346 47.1884Z" fill="#616161"/>
<path opacity="0.2" d="M94.6286 46.4487C94.712 46.4209 94.8046 46.3977 94.888 46.3652C94.8046 46.393 94.712 46.4209 94.6286 46.4487Z" fill="#616161"/>
<path d="M117.713 189.631H56.2239L56.4981 185.723L56.6793 183.349L57.4042 173.172L57.5854 170.765L57.8038 167.517V167.513L58.0315 164.492L60.3502 164.455L61.4468 164.427L62.5852 164.395L63.7144 164.381L65.0201 164.358L66.5906 164.311L69.3694 164.255L72.4594 164.2L86.9523 163.902H86.9802L101.482 164.2L104.563 164.255L107.333 164.311L108.903 164.358L110.209 164.381L111.352 164.395L112.49 164.427L113.578 164.455L115.892 164.492L116.115 167.517L116.352 170.765L116.519 173.172L117.258 183.349L117.434 185.765L117.713 189.631Z" fill="#C9C9C9"/>
<path opacity="0.2" d="M86.9802 171.363V189.629H59.0259C63.6121 183.16 70.0663 176.544 77.2083 176.544H77.2966C78.8485 174.559 80.684 173.04 82.7006 172.162C83.9692 171.627 85.3167 171.33 86.6921 171.33C86.7757 171.33 86.8733 171.363 86.9523 171.363C86.9663 171.363 86.9663 171.363 86.9802 171.363Z" fill="#616161"/>
<path d="M131.737 124.102C131.876 142.042 126.426 154.026 121.366 161.256C121.133 161.6 120.896 161.921 120.659 162.246C120.39 162.618 120.116 162.994 119.837 163.338C119.656 163.561 119.488 163.766 119.335 163.961C119.07 164.286 118.824 164.588 118.568 164.867V164.881C118.322 165.173 118.085 165.443 117.843 165.699C117.221 166.396 116.635 166.99 116.11 167.515C115.432 168.18 114.842 168.705 114.372 169.109C113.568 169.792 113.076 170.122 113.076 170.122L111.189 169.648L110.855 169.565H110.841L110.107 169.383L109.902 169.323L107.263 169.434H107.249L103.188 169.602L86.9663 170.257H86.9523L70.7448 169.602L66.6743 169.434L64.021 169.323L63.8212 169.383H63.8073L63.0731 169.565L62.7246 169.648L60.852 170.122C60.852 170.122 60.3688 169.792 59.5463 169.109C59.3465 168.946 59.156 168.765 58.9329 168.561C58.8632 168.514 58.8075 168.454 58.7471 168.408C58.4683 168.147 58.1523 167.855 57.8177 167.515C57.8038 167.515 57.8038 167.515 57.8038 167.515L57.4042 167.12C57.1207 166.828 56.8373 166.535 56.526 166.205C56.3773 166.052 56.2332 165.884 56.0799 165.717C55.9126 165.536 55.7639 165.35 55.5966 165.16C55.513 165.076 55.4247 164.978 55.3457 164.881C55.1087 164.588 54.8439 164.286 54.5837 163.961C54.2584 163.561 53.9331 163.134 53.5986 162.683C53.2454 162.241 52.9062 161.753 52.5531 161.252C50.4249 158.213 48.227 154.328 46.4102 149.51L58.0594 146.038L59.4766 145.606C60.6568 147.576 61.5304 148.887 61.6745 149.036C62.7153 147.395 63.259 145.839 63.6214 144.38L66.7347 143.45L86.3204 137.6L99.568 133.637L103.792 132.382C103.945 132.888 104.126 133.413 104.336 133.971C111.882 137.21 108.071 142.437 112.258 149.036C112.718 148.524 120.947 135.927 122.365 126.852L123.378 126.532L131.57 124.102H131.737Z" fill="#D66142"/>
<path opacity="0.2" d="M86.9756 157.127H84.3037L85.4933 147.518C85.9812 147.485 86.4784 147.476 86.9756 147.467V157.127Z" fill="#616161"/>
<path opacity="0.2" d="M86.9524 189.629H114.907C110.316 183.161 103.862 176.539 96.715 176.539H96.6361C94.1083 173.305 90.8277 171.34 87.2405 171.34C87.1476 171.34 87.0546 171.358 86.9524 171.363V189.629Z" fill="#616161"/>
<path opacity="0.2" d="M86.9524 157.127H89.6242L88.4347 147.518C87.9421 147.485 87.4496 147.476 86.9524 147.467V157.127Z" fill="#616161"/>
<path opacity="0.2" d="M96.6778 149.046C110.2 152.029 117.541 156.587 121.375 161.262C118.573 165.277 115.896 167.818 114.382 169.106L96.6778 149.046Z" fill="#616161"/>
<path d="M86.9524 175.332C87.0546 175.327 87.1475 175.318 87.2451 175.318C88.5834 175.318 89.8705 175.592 91.1019 176.098C91.1762 175.782 91.2273 175.448 91.2273 175.113V173.385C89.9588 172.832 88.6159 172.539 87.2405 172.539C87.1475 172.539 87.0546 172.553 86.9524 172.553V175.332Z" fill="#FDD8AB"/>
<path d="M86.9524 179.22C86.9988 179.22 87.0546 179.233 87.1011 179.233C89.0387 179.233 90.6558 177.895 91.1019 176.097C89.8705 175.586 88.5834 175.316 87.2451 175.316C87.1475 175.316 87.0546 175.326 86.9524 175.33V179.22Z" fill="#FDD8AB"/>
<path d="M63.2172 170.598L70.3963 170.695L82.7006 170.849V173.381C83.9692 172.828 85.3121 172.536 86.6875 172.536C86.7804 172.536 86.864 172.545 86.9523 172.549C86.9523 172.549 86.957 172.549 86.9663 172.549H86.9756C87.0639 172.545 87.1521 172.536 87.2404 172.536C88.6205 172.536 89.9587 172.828 91.2273 173.381V170.849L103.532 170.695L110.706 170.598C111.965 168.409 111.408 168.196 111.408 165.672C111.408 159.404 107.082 153.875 100.493 150.594C100.465 150.575 100.442 150.566 100.414 150.552C99.2335 149.976 97.9835 149.465 96.6732 149.047C94.1221 148.206 91.3434 147.681 88.43 147.518C88.2627 147.504 88.1094 147.495 87.9514 147.485C87.6261 147.476 87.2962 147.471 86.9709 147.467H86.9616C86.9523 147.467 86.9477 147.467 86.9477 147.467C86.6224 147.471 86.2925 147.476 85.9672 147.485C85.8093 147.495 85.6466 147.504 85.4886 147.518C82.5705 147.676 79.7965 148.201 77.2455 149.047C75.9397 149.465 74.6898 149.976 73.5002 150.552C73.4724 150.566 73.4538 150.571 73.4259 150.594C66.8369 153.875 62.5109 159.404 62.5109 165.672C62.5155 168.196 61.9626 168.409 63.2172 170.598Z" fill="#FDD8AB"/>
<path d="M86.9755 175.331C86.878 175.326 86.7804 175.317 86.6828 175.317C85.3446 175.317 84.0528 175.591 82.8261 176.097C82.7471 175.781 82.696 175.447 82.696 175.112V173.384C83.9645 172.831 85.3074 172.538 86.6828 172.538C86.7757 172.538 86.8733 172.552 86.9709 172.552L86.9755 175.331Z" fill="#FDD8AB"/>
<path d="M86.9756 179.223C86.9245 179.223 86.878 179.236 86.8269 179.236C84.8846 179.236 83.2675 177.898 82.8261 176.1C84.0528 175.589 85.3446 175.319 86.6828 175.319C86.7804 175.319 86.878 175.329 86.9756 175.333V179.223Z" fill="#FDD8AB"/>
<path opacity="0.2" d="M77.2547 149.035L69.913 157.362L69.4669 157.864L63.7143 164.383L62.5201 165.745L59.5463 169.113C59.3465 168.951 59.1559 168.77 58.9329 168.565C58.8632 168.519 58.8074 168.458 58.747 168.412C58.4589 168.138 58.1523 167.845 57.8177 167.52C57.8038 167.52 57.8038 167.52 57.8038 167.52C57.6644 167.394 57.5389 167.259 57.4041 167.125C57.1207 166.832 56.8373 166.539 56.5259 166.209C56.3772 166.056 56.2332 165.889 56.0798 165.721C55.9126 165.54 55.7639 165.354 55.5966 165.164C55.513 165.071 55.4433 164.982 55.3596 164.885H55.3457C55.1087 164.592 54.8438 164.29 54.5836 163.965C54.2584 163.565 53.9331 163.138 53.5985 162.687C53.2454 162.246 52.9062 161.758 52.553 161.256C56.3865 156.586 63.7283 152.018 77.2547 149.035Z" fill="#616161"/>
<path d="M77.2548 149.035L69.3741 164.253L66.679 169.439L66.0703 170.638L56.2287 189.628C56.2287 189.628 50.8199 183.425 50.806 175.219C50.806 174.387 50.8618 173.542 50.9826 172.682C51.3729 169.885 52.4556 166.939 54.5837 163.965C56.6236 161.135 59.6161 158.301 63.8817 155.559C64.1326 155.392 64.3928 155.22 64.6716 155.039C67.2738 153.445 70.3127 151.884 73.8628 150.383C74.5691 150.095 75.2893 149.797 76.0328 149.509C76.4324 149.356 76.8366 149.193 77.2548 149.035Z" fill="#EBEBEB"/>
<path d="M96.6778 149.045C101.715 150.941 105.864 152.957 109.252 155.048C109.53 155.216 109.8 155.383 110.056 155.55C118.81 161.168 122.193 167.246 122.945 172.683C123.076 173.542 123.122 174.397 123.122 175.234C123.113 183.426 117.718 189.629 117.718 189.629L96.6778 149.045Z" fill="#EBEBEB"/>
<path opacity="0.2" d="M99.5634 133.638L103.792 132.379C103.941 132.871 104.122 133.411 104.331 133.968C111.877 137.202 108.067 142.43 112.258 149.042C112.713 148.521 120.938 135.934 122.36 126.84L123.373 126.538C125.534 136.022 111.189 151.914 111.189 151.914C111.189 151.914 104.768 136.05 99.5634 133.638Z" fill="#616161"/>
<path opacity="0.2" d="M66.73 143.45C64.4113 147.799 62.7432 151.916 62.7432 151.916C62.7432 151.916 60.5918 149.528 58.0593 146.038L59.4766 145.606C60.6568 147.576 61.5304 148.887 61.6744 149.035C62.7153 147.395 63.2589 145.839 63.6214 144.38L66.73 143.45Z" fill="#616161"/>
<path d="M114.363 165.486L111.826 162.112L112.974 166.173L114.363 165.486Z" fill="#333333"/>
<path d="M105.585 157.3L103.048 153.927L104.201 157.988L105.585 157.3Z" fill="#333333"/>
<path d="M118.982 185.624L116.44 182.26L117.592 186.316L118.982 185.624Z" fill="#333333"/>
<path d="M115.631 178.55L113.094 175.172L114.242 179.233L115.631 178.55Z" fill="#333333"/>
<path d="M112.281 171.464L109.744 168.095L110.892 172.151L112.281 171.464Z" fill="#333333"/>
<path d="M108.931 164.383L106.399 161.015L107.546 165.071L108.931 164.383Z" fill="#333333"/>
<path d="M109.247 155.048C109.526 155.215 109.795 155.382 110.051 155.55L111.528 157.515L110.139 158.212L109.247 155.048Z" fill="#333333"/>
<path d="M121.059 179.652L118.522 176.274L119.674 180.336L121.059 179.652Z" fill="#333333"/>
<path d="M117.713 172.57L115.176 169.191L116.324 173.257L117.713 172.57Z" fill="#333333"/>
<path d="M121.849 171.225L122.941 172.679C123.071 173.539 123.117 174.394 123.117 175.23L123.001 175.286L121.849 171.225Z" fill="#333333"/>
<path d="M119.572 166.203L117.039 162.825L118.187 166.896L119.572 166.203Z" fill="#333333"/>
<path d="M59.5649 165.486L62.0973 162.112L60.9496 166.173L59.5649 165.486Z" fill="#333333"/>
<path d="M68.3425 157.3L70.8842 153.927L69.7272 157.988L68.3425 157.3Z" fill="#333333"/>
<path d="M54.9461 185.624L57.4832 182.26L56.3355 186.316L54.9461 185.624Z" fill="#333333"/>
<path d="M58.2964 178.55L60.8289 175.172L59.6811 179.233L58.2964 178.55Z" fill="#333333"/>
<path d="M61.6466 171.464L64.179 168.095L63.0359 172.151L61.6466 171.464Z" fill="#333333"/>
<path d="M64.9922 164.383L67.5339 161.015L66.3815 165.071L64.9922 164.383Z" fill="#333333"/>
<path d="M64.6809 155.048C64.3975 155.215 64.128 155.382 63.877 155.55L62.3994 157.515L63.7841 158.212L64.6809 155.048Z" fill="#333333"/>
<path d="M52.8691 179.652L55.4062 176.274L54.2538 180.336L52.8691 179.652Z" fill="#333333"/>
<path d="M56.2147 172.57L58.7472 169.191L57.6041 173.257L56.2147 172.57Z" fill="#333333"/>
<path d="M52.0745 171.225L50.9221 175.29L50.7966 175.216C50.7966 174.384 50.8524 173.539 50.9732 172.679L52.0745 171.225Z" fill="#333333"/>
<path d="M54.3559 166.203L56.8884 162.825L55.7407 166.896L54.3559 166.203Z" fill="#333333"/>
<path d="M77.7055 180.51C77.5429 180.51 77.2966 180.51 77.2966 180.51C77.501 180.51 77.6404 180.51 77.7241 180.496C77.7241 180.51 77.7241 180.51 77.7241 180.51H77.7055Z" fill="#D66142"/>
<path d="M96.2131 180.491C96.2828 180.505 96.4315 180.505 96.6406 180.505C96.6406 180.505 96.3664 180.505 96.2131 180.505C96.2131 180.505 96.2131 180.51 96.2131 180.491Z" fill="#D66142"/>
<path d="M121.97 205.778L96.9798 230.986L96.3665 231.618L96.2828 231.716L95.6555 232.343L86.9848 241.516V241.525H86.957V241.516L84.8334 239.262L78.2723 232.343L77.6404 231.716L77.5753 231.618L76.948 230.986L51.9536 205.778C51.9536 205.778 55.9823 196.866 62.2042 189.631C66.4001 184.733 71.5997 180.602 77.2129 180.509H77.3012C77.422 180.533 77.5521 180.561 77.6729 180.579C75.8096 182.982 74.3506 186.099 73.5049 189.631C72.938 191.945 72.6313 194.436 72.6313 197.056C72.6313 206.322 76.5066 214.249 81.9757 217.362C83.3326 217.209 84.5732 216.623 85.5444 215.745C85.7395 215.587 85.9208 215.387 86.088 215.197C86.4319 214.807 86.7293 214.374 86.9616 213.896V213.845C86.9616 213.854 86.9616 213.854 86.9756 213.873C86.9756 213.859 86.9756 213.859 86.9895 213.845V213.882C87.2218 214.36 87.5146 214.802 87.8677 215.192C88.035 215.387 88.2162 215.583 88.4067 215.741C89.3639 216.619 90.6046 217.204 91.98 217.358C97.4259 214.244 101.306 206.317 101.306 197.052C101.306 194.431 101.004 191.945 100.432 189.626C99.582 186.095 98.1369 182.977 96.2642 180.575C96.4036 180.556 96.5105 180.533 96.6499 180.505H96.7196C102.351 180.598 107.537 184.729 111.733 189.626C117.936 196.866 121.97 205.778 121.97 205.778Z" fill="#D66142"/>
<path opacity="0.2" d="M86.9524 218.819L80.2426 227.74L86.9524 236.876V236.908L86.9663 236.894L86.9756 236.908V236.876L93.6807 227.74L86.9756 218.819V218.791L86.9663 218.805L86.9524 218.791V218.819Z" fill="#616161"/>
<path d="M96.9798 230.988L96.3665 231.62L96.2828 231.718L93.4995 227.996L92.598 226.797L86.9802 234.292V234.32L86.9663 234.306L86.9523 234.32V234.292L81.3392 226.797L80.433 228.005L77.6404 231.718L77.5753 231.62L76.948 230.988L86.9523 217.647V217.629L86.9663 217.634L86.9802 217.629V217.647L96.9798 230.988Z" fill="#FFD675"/>
<path opacity="0.2" d="M86.9523 222.131L83.6393 226.55L86.9523 230.978V231.002L86.9663 230.988L86.9756 231.002V230.978L90.2933 226.55L86.9756 222.131V222.099L86.9663 222.113L86.9523 222.099V222.131Z" fill="#616161"/>
<path d="M81.9571 217.357C84.1596 217.115 86.0183 215.763 86.9662 213.867C87.9141 215.763 89.7728 217.115 91.9707 217.357C97.4258 214.239 101.306 206.321 101.306 197.046C101.306 190.457 99.3449 184.561 96.2595 180.578C96.2456 180.555 96.227 180.537 96.2084 180.509L96.1991 180.504C94.61 178.469 92.7281 176.949 90.665 176.099C89.4893 175.616 88.2533 175.342 86.9709 175.318C86.9662 175.318 86.9616 175.318 86.9616 175.318C86.9523 175.318 86.9523 175.318 86.9476 175.318C85.6651 175.342 84.4291 175.616 83.2535 176.099C81.1904 176.954 79.3085 178.473 77.7193 180.504L77.71 180.509C77.6915 180.532 77.6775 180.555 77.6636 180.578C74.5735 184.561 72.6173 190.457 72.6173 197.046C72.6219 206.321 76.5019 214.239 81.9571 217.357Z" fill="#FDD8AB"/>
<path d="M97.7001 198.307C97.7652 198.14 97.807 197.973 97.807 197.805C97.807 196.69 96.4362 195.784 94.7495 195.784C93.0581 195.784 91.692 196.686 91.692 197.805C91.692 197.977 91.7338 198.145 91.7942 198.307H97.7001Z" fill="#333333"/>
<path d="M76.2278 198.307C76.1628 198.14 76.1256 197.973 76.1256 197.805C76.1256 196.69 77.4917 195.784 79.1831 195.784C80.8745 195.784 82.2452 196.686 82.2452 197.805C82.2452 197.977 82.2034 198.145 82.1384 198.307H76.2278Z" fill="#333333"/>
<path d="M82.9748 183.247H86.9523H86.9756H90.9578C90.1585 182.188 88.6809 181.472 86.9756 181.449V181.444H86.9663C86.957 181.444 86.9523 181.444 86.9523 181.444V181.449C85.2516 181.472 83.774 182.188 82.9748 183.247Z" fill="#D66142"/>
<path d="M86.9663 183.472C88.7831 185.591 91.3574 182.905 91.3574 182.905H86.9802H86.957H82.5752C82.5752 182.905 85.1494 185.591 86.9663 183.472Z" fill="#D66B4F"/>
<path opacity="0.2" d="M86.9523 194.903V194.977L86.9663 194.94L86.9755 194.977V194.903L89.2756 187.57H86.9755H86.9523H84.6569L86.9523 194.903Z" fill="#616161"/>
<path d="M82.5705 202.68L76.5066 202.354L76.4184 202.35L76.3719 202.299L73.9649 199.678L76.6274 202.038L76.5066 201.982L82.5705 201.685V202.68Z" fill="#D66142"/>
<path d="M90.8323 201.685L96.9009 201.982L96.7754 202.038L99.4379 199.678L97.0356 202.299L96.9845 202.35L96.9055 202.354L90.8323 202.68V201.685Z" fill="#D66142"/>
<path opacity="0.2" d="M96.6778 149.045C97.9974 149.542 99.2335 150.044 100.418 150.55C100.446 150.564 100.469 150.569 100.497 150.592C107.086 153.873 111.412 159.402 111.412 165.671C111.412 168.194 111.97 168.408 110.711 170.596L103.536 170.694L96.6778 149.045Z" fill="#616161"/>
<path opacity="0.2" d="M82.8261 176.098C84.0528 175.587 85.3446 175.318 86.6828 175.318C86.7758 175.318 86.864 175.322 86.9523 175.332C86.9523 175.332 86.957 175.332 86.9663 175.332H86.9756C87.0639 175.322 87.1521 175.318 87.2451 175.318C88.5833 175.318 89.8704 175.592 91.1018 176.098C91.1762 175.782 91.2273 175.448 91.2273 175.113V173.385C89.9587 172.832 88.6158 172.539 87.2404 172.539C87.1475 172.539 87.0592 172.553 86.9663 172.553C86.8733 172.553 86.7804 172.539 86.6875 172.539C85.3074 172.539 83.9692 172.832 82.7006 173.385V175.113C82.7006 175.448 82.7471 175.778 82.8261 176.098Z" fill="#616161"/>
<path opacity="0.2" d="M84.8939 156.686H86.9524H86.9756H89.0341L87.9514 147.485C87.6262 147.476 87.2962 147.471 86.971 147.467H86.9617C86.9524 147.467 86.9477 147.467 86.9477 147.467C86.6225 147.471 86.2926 147.476 85.9673 147.485L84.8939 156.686Z" fill="#616161"/>
<path opacity="0.2" d="M77.2501 149.045C75.9305 149.542 74.6944 150.044 73.5049 150.55C73.477 150.564 73.4584 150.569 73.4306 150.592C66.8416 153.873 62.5155 159.402 62.5155 165.671C62.5155 168.194 61.9626 168.408 63.2172 170.596L70.3963 170.694L77.2501 149.045Z" fill="#616161"/>
<path opacity="0.2" d="M86.9523 137.528V241.079L84.8288 239.258L78.2677 232.339L77.6357 231.712L77.5707 231.614L76.9434 230.982L51.949 205.774C51.949 205.774 55.9776 196.862 62.1995 189.627H56.2193C56.2193 189.627 50.8105 183.423 50.7966 175.217C50.7966 174.386 50.8524 173.54 50.9732 172.68C51.3635 169.883 52.4462 166.937 54.5743 163.963C54.2491 163.564 53.9238 163.136 53.5892 162.685C53.2361 162.244 52.8969 161.756 52.5437 161.254C50.4156 158.215 48.2177 154.331 46.4008 149.512L58.05 146.041L59.4673 145.609C60.6475 147.579 61.5211 148.889 61.6651 149.038C62.706 147.398 63.2497 145.841 63.6121 144.382L66.7254 143.453L86.3111 137.603L86.9523 137.528Z" fill="#616161"/>
</svg>
