<svg width="186" height="260" viewBox="0 0 186 260" fill="none" xmlns="http://www.w3.org/2000/svg">
<path d="M21.1103 259.506C10.1767 259.525 1.25047 250.794 1.22724 240.041L0.669522 20.2402C0.636996 9.41342 9.54932 0.63574 20.5201 0.654326L165.78 0.928577C176.704 0.937871 185.607 9.74785 185.607 20.5421V239.86C185.607 250.589 176.741 259.33 165.845 259.33L21.1103 259.506Z" fill="#C9C9C9"/>
<path d="M22.9224 258.962C12.1236 258.962 3.34143 250.213 3.34143 239.451V20.17C3.34143 9.4176 12.1236 0.667969 22.9224 0.667969H166.058C176.853 0.667969 185.635 9.4176 185.635 20.17V239.451C185.635 250.213 176.853 258.962 166.058 258.962H22.9224Z" fill="white"/>
<path d="M155.273 229.893C155.613 229.014 156.175 227.987 156.956 226.789C157.987 225.19 158.824 224.391 159.47 224.391H168.117C168.228 224.363 168.354 224.335 168.498 224.307C168.637 224.261 168.828 224.191 169.046 224.07H169.562V224.777C169.204 225.083 168.884 225.413 168.596 225.776C167.601 227.081 166.374 228.652 164.943 230.506C163.879 231.867 163.103 232.955 162.62 233.745C161.83 234.99 161.458 235.994 161.458 236.742C161.458 237.22 161.551 237.722 161.751 238.247C161.937 238.782 162.22 239.228 162.55 239.618C162.741 239.799 163.103 240.046 163.638 240.334C164.302 240.733 164.795 240.914 165.129 240.914C165.677 240.914 166.426 240.533 167.36 239.79C168.294 239.046 168.832 238.675 168.995 238.675C169.367 238.675 169.557 238.837 169.557 239.158C169.557 239.483 169.153 240.083 168.331 240.956C167.522 241.83 166.76 242.518 166.04 243.015C165.032 243.67 164.483 244.032 164.372 244.083C163.489 244.581 162.755 244.827 162.127 244.827C160.915 244.827 159.799 244.344 158.786 243.373C157.76 242.411 157.258 241.277 157.258 239.962C157.258 238.717 157.611 237.555 158.322 236.486C158.438 236.314 158.958 235.599 159.888 234.353C161.189 232.564 161.969 231.514 162.216 231.194C163.275 229.795 163.8 229.061 163.8 229.005C163.8 228.731 163.637 228.568 163.303 228.522C162.978 228.466 162.662 228.438 162.355 228.438C162.146 228.438 161.904 228.438 161.635 228.438C161.361 228.438 161.217 228.438 161.193 228.438C159.539 228.438 158.303 228.647 157.513 229.075C156.904 229.558 156.296 230.037 155.696 230.529C155.622 230.529 155.534 230.529 155.45 230.473C155.367 230.436 155.311 230.408 155.264 230.394V229.893H155.273Z" fill="#333333"/>
<path d="M37.0763 32.1525C36.7417 33.026 36.184 34.0482 35.4034 35.2471C34.3672 36.8455 33.5354 37.6494 32.8802 37.6494H24.2467C24.1306 37.668 23.9912 37.6959 23.8565 37.7331C23.7171 37.7795 23.5312 37.8493 23.2989 37.9608H22.8063V37.2545C23.1548 36.9571 23.4708 36.6179 23.7589 36.274C24.7672 34.959 25.9846 33.3791 27.4205 31.5251C28.4753 30.1729 29.2559 29.0949 29.7485 28.305C30.5152 27.0504 30.9055 26.0467 30.9055 25.2939C30.9055 24.82 30.8078 24.3135 30.6126 23.7977C30.4082 23.2634 30.1387 22.8079 29.7949 22.4269C29.5997 22.2457 29.2559 21.9902 28.7262 21.6928C28.0617 21.321 27.5599 21.1305 27.2207 21.1305C26.6677 21.1305 25.9242 21.5023 24.9949 22.2458C24.0609 22.9986 23.5172 23.3702 23.3685 23.3702C22.9922 23.3702 22.8063 23.1984 22.8063 22.8824C22.8063 22.5664 23.2013 21.9669 24.0098 21.0934C24.8322 20.2151 25.5989 19.5413 26.3145 19.0441C27.3136 18.3704 27.8759 18.0173 27.9827 17.9569C28.8517 17.4597 29.5998 17.2227 30.2271 17.2227C31.4306 17.2227 32.5457 17.7014 33.568 18.6772C34.5903 19.639 35.1013 20.7728 35.1013 22.0785C35.1013 23.3331 34.7389 24.4947 34.0187 25.5727C33.9118 25.7446 33.3914 26.4509 32.4621 27.6962C31.161 29.4759 30.3943 30.5261 30.1387 30.8467C29.0839 32.2547 28.5542 32.9795 28.5542 33.0446C28.5542 33.3001 28.7169 33.4627 29.0421 33.5231C29.3721 33.5882 29.6973 33.6162 29.9947 33.6162C30.1991 33.6162 30.4454 33.6162 30.7196 33.6162C30.9891 33.6162 31.1377 33.6162 31.1563 33.6162C32.8198 33.6162 34.0465 33.3884 34.8411 32.9702C35.4498 32.4823 36.0493 31.9898 36.6534 31.5019C36.737 31.5019 36.8161 31.5298 36.8997 31.5763C36.9926 31.6042 37.0483 31.6414 37.0808 31.66L37.0763 32.1525Z" fill="#333333"/>
<path opacity="0.2" d="M113.881 89.422C113.904 84.9473 94.3835 65.7705 94.3835 65.7705C94.3835 65.7705 94.3557 65.7892 94.3557 65.7984V111.847L103.449 111.866L96.1958 99.3845C97.929 100.439 99.9782 101.062 102.185 101.071C108.616 101.081 113.881 95.8716 113.881 89.422Z" fill="#616161"/>
<path opacity="0.2" d="M113.881 173.75C113.904 178.225 94.3834 197.401 94.3834 197.401C94.3834 197.401 94.3649 197.383 94.3556 197.374V151.316L103.449 151.307L96.1957 163.783C97.9196 162.728 99.978 162.115 102.185 162.087C108.616 162.087 113.881 167.296 113.881 173.75Z" fill="#616161"/>
<path opacity="0.2" d="M34.7574 51.887C34.7574 50.6789 29.5532 45.5723 29.5532 45.5723C29.5532 45.5723 29.544 45.5815 29.5393 45.5908V57.872H31.9696L30.0318 54.5495C30.4965 54.833 31.0402 54.9956 31.6257 54.9956C33.3589 54.9863 34.7574 53.6016 34.7574 51.887Z" fill="#616161"/>
<path opacity="0.2" d="M157.281 210.516C157.281 211.715 162.476 216.812 162.476 216.812H162.494V204.531H160.064L162.006 207.844C161.542 207.57 160.993 207.398 160.403 207.398C158.679 207.403 157.281 208.792 157.281 210.516Z" fill="#616161"/>
<path d="M112.728 81.4953C112.241 90.3518 94.4949 103.804 94.4949 103.804C94.4949 103.804 76.2195 90.245 76.2195 81.3792C76.2195 75.2734 81.21 70.3525 87.3157 70.3525C90.7357 70.3525 94.5553 73.4473 94.5553 73.4473C94.5553 73.4473 98.189 70.3526 101.707 70.3991C107.808 70.4827 113.049 75.3803 112.728 81.4953Z" fill="#D66142"/>
<path opacity="0.2" d="M101.707 70.399C98.1891 70.3525 94.5554 73.4472 94.5554 73.4472C94.5554 73.4472 94.5043 73.4007 94.4346 73.3403V103.771C94.4764 103.799 94.4997 103.809 94.4997 103.809C94.4997 103.809 112.245 90.3564 112.733 81.4999C113.049 75.3802 107.808 70.4826 101.707 70.399Z" fill="#616161"/>
<path d="M75.9737 178.122C76.443 169.274 94.2024 155.804 94.2024 155.804C94.2024 155.804 112.469 169.363 112.469 178.238C112.469 184.339 107.487 189.264 101.377 189.264C97.9523 189.264 94.1375 186.179 94.1375 186.179C94.1375 186.179 90.5178 189.264 86.991 189.199C80.8759 189.144 75.6391 184.223 75.9737 178.122Z" fill="#D66142"/>
<path opacity="0.2" d="M86.9909 189.203C90.5178 189.268 94.1375 186.183 94.1375 186.183C94.1375 186.183 94.1886 186.211 94.2536 186.266V155.845C94.2258 155.817 94.1979 155.808 94.1979 155.808C94.1979 155.808 76.4383 169.274 75.969 178.125C75.6391 184.222 80.8759 189.143 86.9909 189.203Z" fill="#616161"/>
<path d="M34.8458 50.8957C34.6739 54.009 28.438 58.7393 28.438 58.7393C28.438 58.7393 22.0117 53.9671 22.0117 50.8445C22.0117 48.7117 23.7681 46.9785 25.9102 46.9785C27.1137 46.9785 28.4566 48.0659 28.4566 48.0659C28.4566 48.0659 29.7345 46.9785 30.9659 47.0018C33.1173 47.0204 34.9573 48.7443 34.8458 50.8957Z" fill="#D66142"/>
<path opacity="0.2" d="M30.9659 47.0015C29.7299 46.9736 28.4566 48.0656 28.4566 48.0656C28.4566 48.0656 28.438 48.0563 28.4148 48.0285V58.739C28.4241 58.739 28.4381 58.739 28.4381 58.739C28.4381 58.739 34.6739 54.0087 34.8458 50.8955C34.9573 48.7441 33.1173 47.0201 30.9659 47.0015Z" fill="#616161"/>
<path d="M154.962 211.942C155.125 208.764 161.505 203.927 161.505 203.927C161.505 203.927 168.061 208.801 168.061 211.993C168.061 214.173 166.272 215.934 164.088 215.934C162.861 215.934 161.491 214.837 161.491 214.837C161.491 214.837 160.19 215.934 158.916 215.924C156.737 215.887 154.846 214.126 154.962 211.942Z" fill="#D66142"/>
<path opacity="0.2" d="M158.916 215.924C160.185 215.934 161.491 214.837 161.491 214.837C161.491 214.837 161.495 214.856 161.523 214.874V203.945L161.505 203.927C161.505 203.927 155.125 208.764 154.962 211.942C154.846 214.126 156.737 215.887 158.916 215.924Z" fill="#616161"/>
</svg>
