<svg width="177" height="248" viewBox="0 0 177 248" fill="none" xmlns="http://www.w3.org/2000/svg">
<path d="M19.6386 247.109C9.23471 247.118 0.749974 238.805 0.842908 228.587L0.308445 19.4038C0.159751 9.1021 8.63996 0.742697 19.081 0.770577L157.305 1.01682C167.714 1.0447 176.176 9.41344 176.301 19.6872V228.415C176.176 238.615 167.751 246.928 157.38 246.937L19.6386 247.109Z" fill="#C9C9C9"/>
<path d="M21.3626 246.583C11.0888 246.583 2.72945 238.252 2.85491 228.024V19.3517C2.7341 9.10582 11.0888 0.774414 21.3626 0.774414H157.575C167.853 0.774414 176.203 9.10582 176.324 19.3517V228.024C176.203 238.252 167.853 246.583 157.575 246.583H21.3626Z" fill="white"/>
<path d="M24.4573 25.1328C24.4573 25.4487 24.3551 25.7693 24.132 26.0667C23.8579 26.392 23.686 26.6103 23.6163 26.7218C22.7334 28.0461 22.0178 28.9709 21.4881 29.4727C21.0374 29.7655 20.5912 30.0536 20.1591 30.337C20.0011 30.5368 19.936 30.7645 19.936 31.0201C19.9871 31.2478 20.0105 31.4196 20.0105 31.5265C20.0105 32.0144 20.0522 32.442 20.1172 32.823C20.1916 33.1947 20.2938 33.3945 20.4193 33.3945C20.5773 33.3945 20.7353 33.3201 20.8979 33.1947C21.4369 32.7486 21.7761 32.4977 21.9248 32.442C22.0596 32.6882 22.12 32.8323 22.12 32.8787C22.12 33.1529 21.632 33.743 20.633 34.6955C19.4481 35.7921 18.3654 36.3544 17.3711 36.3544C16.6508 36.3544 16.1955 35.4018 16.0004 33.5153C15.7959 31.6102 15.6193 30.5646 15.4567 30.3648H9.16976C9.04895 30.2998 8.9699 30.2395 8.94202 30.2209C8.91879 30.193 8.89551 30.0582 8.89551 29.7933C8.89551 29.4588 9.31377 28.6874 10.1455 27.47C10.8983 26.3734 12.06 24.854 13.6538 22.9303C14.137 22.3401 14.6296 21.722 15.1407 21.1133C15.4567 20.7416 15.8981 20.249 16.4604 19.6682C17.018 19.0873 17.6174 18.409 18.2586 17.6562C18.8209 16.9918 19.267 16.6572 19.5829 16.6572L19.9407 16.7409V26.2618C20.2195 26.4059 20.4519 26.4802 20.6052 26.4802C20.7492 26.4616 20.8515 26.4616 20.9026 26.4616C21.6321 26.4616 22.2872 26.2154 22.882 25.7461C23.3095 25.3558 23.7463 24.9654 24.2063 24.5751C24.29 24.6215 24.355 24.668 24.4061 24.7005C24.434 24.7424 24.4573 24.8772 24.4573 25.1328ZM15.6471 26.1038V25.0955V24.7424C15.6471 24.4078 15.6147 24.0082 15.5542 23.5342C15.1779 23.8502 14.6806 24.4125 14.044 25.2024C13.8489 25.458 13.5794 25.8111 13.2356 26.2804L13.4493 26.3873H15.2616L15.6471 26.1038Z" fill="#333333"/>
<path d="M155.628 224.532C155.628 224.216 155.735 223.895 155.953 223.588C156.232 223.272 156.404 223.054 156.474 222.952C157.357 221.609 158.072 220.693 158.607 220.192C159.067 219.908 159.504 219.62 159.94 219.327C160.084 219.127 160.154 218.9 160.154 218.649C160.112 218.412 160.075 218.24 160.075 218.152C160.075 217.664 160.033 217.227 159.973 216.855C159.903 216.465 159.801 216.284 159.675 216.284C159.513 216.284 159.35 216.349 159.192 216.465C158.648 216.93 158.314 217.171 158.161 217.227C158.035 216.971 157.97 216.827 157.97 216.79C157.97 216.525 158.467 215.917 159.457 214.983C160.642 213.867 161.725 213.314 162.719 213.314C163.439 213.314 163.895 214.258 164.095 216.163C164.29 218.049 164.48 219.104 164.634 219.304H170.925C171.046 219.378 171.129 219.42 171.153 219.457C171.176 219.467 171.195 219.62 171.195 219.876C171.195 220.201 170.781 220.991 169.954 222.19C169.192 223.296 168.035 224.815 166.446 226.734C165.958 227.324 165.465 227.933 164.963 228.542C164.638 228.932 164.197 229.415 163.648 229.996C163.077 230.577 162.482 231.26 161.832 232.013C161.279 232.686 160.837 233.021 160.512 233.021L160.154 232.928V223.407C159.875 223.263 159.657 223.198 159.49 223.198C159.346 223.207 159.243 223.217 159.192 223.217C158.472 223.217 157.807 223.444 157.213 223.914C156.785 224.313 156.344 224.704 155.898 225.103C155.809 225.047 155.74 225.001 155.693 224.959C155.656 224.94 155.628 224.787 155.628 224.532ZM164.448 223.56V224.569V224.913C164.448 225.256 164.485 225.665 164.536 226.139C164.908 225.805 165.414 225.252 166.041 224.453C166.241 224.206 166.511 223.844 166.855 223.384L166.641 223.277H164.829L164.448 223.56Z" fill="#333333"/>
<path d="M131.828 37.3967C131.99 36.6532 132.106 35.9006 132.093 35.1107C132.106 29.4464 127.492 24.8647 121.851 24.874C116.192 24.8926 111.61 29.4464 111.605 35.1107C111.605 36.3374 111.819 37.4896 112.224 38.5584C107.228 38.958 103.306 43.1215 103.292 48.2049C103.306 53.5579 107.646 57.8792 112.985 57.8885C114.412 57.8978 119.468 56.3179 120.55 55.6813L113.994 66.917L129.969 66.9077L123.408 55.6721C124.718 56.4713 130.308 57.8699 131.674 57.8699C137.334 57.8792 141.92 53.2884 141.916 47.6241C141.92 42.0295 137.413 37.485 131.828 37.3967Z" fill="#333333"/>
<path opacity="0.2" d="M131.828 37.3967C131.99 36.6532 132.106 35.9006 132.092 35.1107C132.106 29.4464 127.492 24.8647 121.851 24.874C121.833 24.874 121.814 24.8833 121.805 24.8833V66.9216L129.969 66.9124L123.408 55.6768C124.718 56.476 130.308 57.8746 131.674 57.8746C137.334 57.8839 141.92 53.2931 141.916 47.6288C141.92 42.0295 137.413 37.485 131.828 37.3967Z" fill="#616161"/>
<path d="M131.828 210.485C131.99 211.228 132.106 211.972 132.093 212.78C132.106 218.435 127.492 223.017 121.851 222.998C116.192 222.998 111.61 218.435 111.605 212.78C111.605 211.553 111.819 210.392 112.224 209.314C107.228 208.933 103.306 204.76 103.292 199.676C103.306 194.324 107.646 190.002 112.985 189.993C114.412 189.984 119.468 191.563 120.55 192.2L113.994 180.955L129.969 180.974L123.408 192.209C124.718 191.41 130.308 190.011 131.674 190.002C137.334 190.002 141.92 194.602 141.916 200.267C141.92 205.847 137.413 210.401 131.828 210.485Z" fill="#333333"/>
<path opacity="0.2" d="M131.828 210.485C131.99 211.228 132.107 211.972 132.093 212.78C132.107 218.435 127.492 223.017 121.851 222.998C121.833 222.998 121.814 222.998 121.805 222.998V180.96L129.969 180.969L123.408 192.205C124.718 191.406 130.308 190.007 131.674 189.998C137.334 189.998 141.92 194.598 141.916 200.262C141.92 205.847 137.413 210.401 131.828 210.485Z" fill="#616161"/>
<path d="M47.4118 37.3967C47.2678 36.6532 47.1517 35.9006 47.161 35.1107C47.1517 29.4464 51.7565 24.8647 57.4068 24.874C63.0711 24.8926 67.6481 29.4464 67.6481 35.1107C67.6481 36.3374 67.439 37.4896 67.0393 38.5584C72.0206 38.958 75.9517 43.1215 75.9563 48.2049C75.9517 53.5579 71.6164 57.8792 66.2681 57.8885C64.8462 57.8978 59.7859 56.3179 58.7079 55.6813L65.2644 66.917L49.2798 66.9077L55.841 55.6721C54.5353 56.4713 48.9499 57.8699 47.5931 57.8699C41.9195 57.8792 37.3333 53.2884 37.3425 47.6241C37.3379 42.0295 41.8451 37.485 47.4118 37.3967Z" fill="#333333"/>
<path opacity="0.2" d="M47.4118 37.3967C47.2678 36.6532 47.1517 35.9006 47.161 35.1107C47.1517 29.4464 51.7565 24.8647 57.4068 24.874C57.4254 24.874 57.4347 24.8833 57.4533 24.8833V66.9216L49.2798 66.9124L55.841 55.6768C54.5353 56.476 48.9499 57.8746 47.5931 57.8746C41.9195 57.8839 37.3333 53.2931 37.3425 47.6288C37.3379 42.0295 41.8451 37.485 47.4118 37.3967Z" fill="#616161"/>
<path d="M47.4118 210.485C47.2678 211.228 47.1517 211.972 47.161 212.78C47.1517 218.435 51.7565 223.017 57.4068 222.998C63.0711 222.998 67.6481 218.435 67.6481 212.78C67.6481 211.553 67.439 210.392 67.0393 209.314C72.0206 208.933 75.9517 204.76 75.9563 199.676C75.9517 194.324 71.6164 190.002 66.2681 189.993C64.8462 189.984 59.7859 191.563 58.7079 192.2L65.2644 180.955L49.2798 180.974L55.841 192.209C54.5353 191.41 48.9499 190.011 47.5931 190.002C41.9195 190.002 37.3333 194.602 37.3425 200.267C37.3379 205.847 41.8451 210.401 47.4118 210.485Z" fill="#333333"/>
<path opacity="0.2" d="M47.4118 210.485C47.2678 211.228 47.1517 211.972 47.161 212.78C47.1517 218.435 51.7565 223.017 57.4068 222.998C57.4254 222.998 57.4347 222.998 57.4533 222.998V180.96L49.2798 180.969L55.841 192.205C54.5353 191.406 48.9499 190.007 47.5931 189.998C41.9195 189.998 37.3333 194.598 37.3425 200.262C37.3379 205.847 41.8451 210.401 47.4118 210.485Z" fill="#616161"/>
<path d="M18.9371 47.5668C18.9743 47.3949 18.9976 47.2229 18.9976 47.0417C18.9976 45.7545 17.9521 44.709 16.6556 44.709C15.3732 44.709 14.3231 45.7545 14.3231 47.0417C14.3231 47.3344 14.3742 47.5853 14.4625 47.8409C13.3241 47.9245 12.4271 48.8771 12.4225 50.0387C12.4225 51.2562 13.4216 52.2551 14.639 52.2551C14.9643 52.2551 16.1213 51.8928 16.363 51.7488L14.8666 54.3183H18.519L17.0228 51.7488C17.3202 51.93 18.5934 52.2551 18.9094 52.2551C20.2011 52.2551 21.2419 51.2004 21.2419 49.904C21.2373 48.6169 20.2103 47.5854 18.9371 47.5668Z" fill="#333333"/>
<path opacity="0.2" d="M18.9372 47.5668C18.9744 47.3949 18.9976 47.2229 18.9976 47.0417C18.9976 45.7546 17.9521 44.709 16.6557 44.709H16.6465V54.309H18.5143L17.0182 51.7394C17.3155 51.9206 18.5888 52.2459 18.9047 52.2459C20.1965 52.2459 21.2373 51.1911 21.2373 49.8947C21.2373 48.6168 20.2104 47.5854 18.9372 47.5668Z" fill="#616161"/>
<path d="M165.209 202.576C165.247 202.748 165.27 202.92 165.27 203.101C165.27 204.388 164.22 205.434 162.933 205.425C161.641 205.425 160.595 204.388 160.591 203.101C160.591 202.818 160.642 202.558 160.73 202.311C159.587 202.218 158.695 201.266 158.695 200.104C158.695 198.878 159.68 197.897 160.907 197.897C161.227 197.897 162.38 198.25 162.626 198.385L161.134 195.834H164.782L163.29 198.394C163.588 198.222 164.856 197.897 165.172 197.897C166.464 197.897 167.509 198.952 167.509 200.239C167.509 201.526 166.478 202.558 165.209 202.576Z" fill="#333333"/>
<path opacity="0.2" d="M165.209 202.576C165.247 202.748 165.27 202.92 165.27 203.102C165.27 204.389 164.22 205.434 162.933 205.425C162.923 205.425 162.919 205.425 162.919 205.425V195.839H164.782L163.29 198.399C163.588 198.227 164.856 197.902 165.172 197.902C166.464 197.902 167.51 198.957 167.51 200.244C167.51 201.526 166.478 202.558 165.209 202.576Z" fill="#616161"/>
</svg>
