<svg width="186" height="260" viewBox="0 0 186 260" fill="none" xmlns="http://www.w3.org/2000/svg">
<path d="M20.9989 259.144C10.1025 259.172 1.20411 250.459 1.18088 239.758L0.618619 20.626C0.586093 9.83175 9.47053 1.08203 20.4181 1.10062L165.218 1.37012C176.119 1.3887 184.98 10.1663 184.98 20.9186V239.563C184.98 250.264 176.146 258.967 165.292 258.986L20.9989 259.144Z" fill="#C9C9C9"/>
<path d="M23.0202 258.468C12.2632 258.468 3.50421 249.747 3.50421 239.018V20.415C3.50421 9.69518 12.2632 0.96875 23.0202 0.96875H165.71C176.472 0.96875 185.226 9.69518 185.226 20.415V239.018C185.226 249.747 176.472 258.468 165.71 258.468H23.0202Z" fill="white"/>
<path d="M165.468 254.504H22.7693C14.4285 254.504 7.64905 247.753 7.64905 239.458V20.8604C7.64905 12.8728 13.9871 6.36274 17.3884 5.12208L17.8857 4.93164L161.342 4.94093C175.528 6.05148 180.584 13.8857 180.584 20.8604V239.458C180.584 247.753 173.8 254.504 165.468 254.504ZM19.0985 10.9118C17.5511 11.8691 13.62 15.8977 13.62 20.8604V239.458C13.62 244.458 17.723 248.524 22.7647 248.524H165.464C170.505 248.524 174.608 244.458 174.608 239.458V20.8604C174.608 15.3216 169.516 11.5995 160.989 10.9118H19.0985Z" fill="#333333"/>
<path d="M35.0829 19.0813C34.4928 20.085 33.7679 20.847 32.8897 21.3721C32.0115 21.8972 31.1426 22.1667 30.2737 22.1667C29.9949 22.1667 28.9912 21.9482 27.2766 21.5161C26.468 21.307 25.7338 21.1955 25.0787 21.1955C24.6605 21.1955 24.2469 21.2559 23.8194 21.3535C23.3966 21.465 23.0341 21.6369 22.7367 21.8832H22.4254V21.4789C23.0062 20.1686 23.7126 19.2253 24.535 18.663C25.3482 18.1008 26.4216 17.8174 27.7366 17.8174C28.6984 17.8174 29.6185 17.966 30.4921 18.282C31.3656 18.5887 32.2159 18.7467 33.0198 18.7467C33.2847 18.7467 33.5914 18.7374 33.9399 18.7095C34.2884 18.7003 34.6694 18.6584 35.0876 18.598V19.0813H35.0829ZM35.1666 35.6838C35.1666 37.5193 34.4603 39.0154 33.057 40.1446C31.6537 41.2691 29.8601 41.836 27.6716 41.836C26.3287 41.836 25.2134 41.5758 24.3073 41.0507C23.2339 40.4281 22.6949 39.5313 22.6949 38.3696C22.6949 37.8167 22.8483 37.338 23.1503 36.9245C23.5592 36.3622 24.168 36.0788 24.9579 36.0788C25.4644 36.0788 25.9151 36.2368 26.3007 36.5667C26.6864 36.8966 26.877 37.3148 26.877 37.8027C26.877 38.6112 26.5377 39.1502 25.864 39.4336C25.1856 39.731 24.8464 39.9215 24.8464 40.0331C24.9579 40.2793 25.0787 40.4606 25.2134 40.5721C25.6084 40.9253 26.18 41.0972 26.9374 41.0972C27.6901 41.0972 28.3314 40.9253 28.8704 40.5721C29.4094 40.205 29.6789 39.7124 29.6789 39.0619V23.1239C30.6593 22.8079 31.5747 22.5012 32.4158 22.1806C33.2615 21.8739 34.0235 21.4092 34.6787 20.8098H35.162L35.1666 35.6838Z" fill="#333333"/>
<path d="M153.805 226.989C153.805 225.14 154.512 223.657 155.906 222.524C157.314 221.399 159.107 220.818 161.296 220.818C162.634 220.818 163.754 221.092 164.66 221.627C165.724 222.245 166.268 223.142 166.268 224.303C166.268 224.856 166.119 225.33 165.812 225.748C165.403 226.311 164.804 226.603 164.005 226.603C163.498 226.603 163.048 226.432 162.662 226.116C162.276 225.781 162.081 225.363 162.081 224.87C162.081 224.062 162.425 223.518 163.099 223.225C163.777 222.942 164.121 222.751 164.121 222.635C164.005 222.389 163.889 222.217 163.754 222.101C163.354 221.748 162.783 221.557 162.03 221.557C161.268 221.557 160.627 221.748 160.088 222.101C159.553 222.454 159.288 222.956 159.288 223.588V239.535C158.308 239.86 157.393 240.181 156.542 240.497C155.697 240.794 154.944 241.259 154.284 241.868H153.805V226.989ZM153.889 243.578C154.47 242.579 155.199 241.817 156.078 241.301C156.951 240.757 157.82 240.492 158.694 240.492C158.977 240.492 159.971 240.711 161.691 241.148C162.499 241.357 163.233 241.454 163.898 241.454C164.307 241.454 164.73 241.398 165.152 241.31C165.575 241.203 165.942 241.027 166.244 240.785H166.551V241.175C165.97 242.5 165.273 243.434 164.451 244.005C163.628 244.567 162.56 244.851 161.24 244.851C160.278 244.851 159.358 244.688 158.485 244.386C157.611 244.08 156.77 243.922 155.957 243.922C155.692 243.922 155.385 243.922 155.037 243.94C154.693 243.968 154.307 244.005 153.898 244.066V243.578H153.889Z" fill="#333333"/>
<path d="M80.2532 81.4697L73.8362 84.0161L75.3045 86.7298L100.74 86.4184L102.539 84.0161L96.8511 81.4697H80.2532Z" fill="#757575"/>
<path d="M96.8511 73.5244H80.2625V90.8333H96.8511V73.5244Z" fill="#EBB07A"/>
<path opacity="0.2" d="M96.8511 76.8605V81.075C94.8298 83.0033 92.5157 84.2394 90.0762 84.2394H86.9397C84.542 84.2394 82.2698 83.0266 80.2625 81.1493V77.0091L81.689 79.286L82.0607 73.5195H94.9505L95.327 79.286L96.8511 76.8605Z" fill="#616161"/>
<path d="M97.8036 31.0681C97.9476 30.3711 98.1242 29.6601 98.0359 28.9259C97.7664 26.6351 93.0129 23.5869 88.5056 23.5869C83.2038 23.5869 79.217 26.3192 78.8545 28.9259C78.6965 30.0551 79.0543 31.1563 79.4307 32.16C74.7654 32.5271 71.0899 36.4349 71.076 41.1885C71.0853 46.1976 75.1465 50.2448 80.1509 50.2541C81.4799 50.2541 86.2241 48.7858 87.2324 48.1864L89.9089 48.1724C91.1357 48.9345 96.3724 50.2448 97.6363 50.2448C102.947 50.2448 107.241 45.942 107.232 40.6402C107.241 35.408 103.017 31.1563 97.8036 31.0681Z" fill="#333333"/>
<path d="M90.0762 34.0693H88.515H86.9444C78.7616 34.0693 72.1169 39.6686 72.1169 46.5782C72.1169 46.5782 72.1819 63.5107 72.312 64.3099C73.4458 71.6098 79.5748 82.8919 86.9444 82.8919H88.515H90.0762C97.4459 82.8919 103.579 71.6098 104.709 64.3099C104.829 63.506 104.904 46.5782 104.904 46.5782C104.908 39.6686 98.2637 34.0693 90.0762 34.0693Z" fill="#EBB07A"/>
<path d="M84.937 80.5761C84.8812 80.8549 84.8348 81.1477 84.8394 81.459C84.8348 83.6383 86.6191 85.4133 88.803 85.4133C90.9963 85.404 92.7666 83.6383 92.7666 81.459C92.7666 80.9711 92.683 80.525 92.5297 80.1115C94.4534 79.9628 95.9775 78.3551 95.9775 76.3849C95.9775 74.3125 94.3 72.6397 92.2276 72.6397C91.6793 72.635 89.7231 73.2483 89.3049 73.4946L88.2036 73.4993C87.6878 73.2019 85.5271 72.6443 85.0067 72.6443C82.8135 72.6443 81.0385 74.4286 81.0431 76.6033C81.0385 78.7733 82.7763 80.5297 84.937 80.5761Z" fill="#333333"/>
<path d="M92.4832 76.399C92.0232 76.399 91.6561 76.241 91.4424 76.1016L90.4944 75.5301L86.6238 75.5022L85.6572 76.1016C85.3505 76.2875 85.0114 76.3711 84.6396 76.3711C84.0634 76.3711 83.7614 76.3618 83.1573 75.7763C82.228 74.6844 87.2231 67.8213 88.5103 67.8213C89.7974 67.8213 94.997 74.2662 93.9608 75.7996C93.5659 76.176 93.0501 76.399 92.4925 76.399H92.4832Z" fill="#EBB07A"/>
<path d="M78.98 54.1436C78.6733 54.5106 78.4921 54.9614 78.4921 55.4632C78.4921 56.7457 79.7234 57.7912 81.2429 57.7912C82.767 57.7912 83.9984 56.7457 83.9984 55.4632C83.9984 54.9614 83.8125 54.5106 83.5105 54.1436H78.98Z" fill="#333333"/>
<path opacity="0.2" d="M89.5744 51.8613H88.5149H87.4462L85.9778 62.7252L88.5149 65.6387L91.0428 62.7252L89.5744 51.8613Z" fill="#616161"/>
<path d="M98.0313 54.1436C98.3426 54.5106 98.5285 54.9614 98.5285 55.4632C98.5285 56.7457 97.2971 57.7912 95.773 57.7912C94.2489 57.7912 93.0175 56.7457 93.0175 55.4632C93.0175 54.9614 93.2034 54.5106 93.5148 54.1436H98.0313Z" fill="#333333"/>
<g opacity="0.2">
<path d="M91.5956 71.123H85.5364V72.6007H91.5956V71.123Z" fill="#616161"/>
</g>
<path d="M92.7387 48.2539L100.954 49.2622L92.7387 50.2519V48.2539Z" fill="#333333"/>
<path d="M84.2726 50.2519L76.2385 49.2622L84.2726 48.2539V50.2519Z" fill="#333333"/>
<path d="M129.917 86.2109L123.639 92.0936L120.884 100.434C120.884 100.434 130.196 98.5757 130.256 98.808L129.917 86.2109Z" fill="#757575"/>
<path d="M47.7637 86.2109L54.046 92.0936L56.8015 100.434C56.8015 100.434 47.4895 98.5757 47.4337 98.808L47.7637 86.2109Z" fill="#757575"/>
<path d="M51.5367 90.8271L50.6585 92.5836L48.6094 99.2701C48.6094 99.2701 60.2075 96.0407 59.6778 96.3799L51.5367 90.8271Z" fill="#1C1C1C"/>
<path d="M137.458 109.158L131.19 111.035L119.899 114.404L119.178 114.613L104.699 118.934L104.295 119.055L103.403 119.32L98.9839 120.639L97.2786 121.16L91.7676 122.805L89.0168 123.632L78.348 126.82L76.1176 127.451L75.6158 127.609L72.8324 128.441L71.0714 128.971L66.0204 130.476L58.4092 132.758L58.3953 130.597L58.3349 124.324L53.3211 132.804V134.268L48.0146 135.862L35.2781 139.658V121.778L35.3199 120.862V120.793V120.774L35.4407 118.093L35.8729 117.089L38.3774 111.137L40.8912 105.203L43.5677 98.842L44.5761 96.4536L45.6959 93.7864L47.5685 93.3217L50.6585 92.5922L50.8165 92.5411L51.0535 92.4946L51.4299 92.3878L51.6344 92.3505L52.2942 92.1926L53.1956 91.9695H53.2142L53.3072 91.9324L53.7672 91.8255L62.2334 89.7763L63.1302 89.5533L63.5205 89.4696L64.4313 89.2373L71.2154 87.611L71.3362 87.5692L72.1168 87.374L74.6818 86.7513L75.244 86.6119L80.2625 85.4131H96.8511L100.782 86.3657L101.739 86.6073L102.283 86.7281L108.3 88.2011L113.714 89.5068L123.788 91.9509L124.373 92.095L126.701 92.6573L129.917 93.4425L130.107 93.4751L131.315 93.7864L133.82 100.069L136.334 106.365L137.045 108.093L137.458 109.158Z" fill="#ABABAB"/>
<path opacity="0.2" d="M108.3 88.2025L90.8476 105.646L90.0995 106.39L87.1349 109.359L87.1116 109.382L82.3116 114.182L82.0607 114.424L73.6828 122.825L71.1039 125.399L69.919 126.575L68.6365 127.857L66.0204 130.478L58.4092 132.759L58.3953 130.599L66.197 122.825L67.4934 121.51L68.3995 120.622L71.0853 117.909L71.9077 117.091L72.7209 116.282L73.0694 115.938L82.9389 106.074L83.0922 105.925L83.464 105.549L83.4779 105.53L86.3077 102.691L87.0234 101.971L102.283 86.7295L108.3 88.2025Z" fill="white"/>
<path opacity="0.2" d="M129.917 93.4416L119.424 103.929L104.56 118.803L104.295 119.054L103.403 119.319L98.9839 120.639L97.2785 121.159L91.7676 122.804L89.0168 123.631L78.348 126.819L76.1176 127.451L75.6158 127.609L76.0014 127.214L77.5906 125.643L85.0717 118.148L85.8291 117.391L89.8671 113.362L90.3411 112.897L94.2721 108.952L113.714 89.5059L123.788 91.95L124.373 92.0941L126.701 92.6563L129.917 93.4416Z" fill="white"/>
<path opacity="0.2" d="M104.699 118.934L104.295 119.055L103.408 119.32L98.9839 120.639L97.2786 121.155L91.7676 122.8L89.0168 123.627L78.3527 126.815L76.1222 127.451L75.6205 127.609L72.8324 128.441L71.076 128.971L69.9236 126.568L67.4981 121.504L59.6684 105.208L55.8767 97.2851L55.5143 96.5277L55.4957 96.4998L53.3769 92.0901V92.0762L53.3118 91.9275L53.7718 91.8253L62.238 89.7761L63.1395 89.5531L63.5298 89.4694L64.4406 89.2325L71.22 87.6061L71.3409 87.5643L72.1168 87.3691C74.5191 89.8319 80.1788 95.3753 87.0234 101.964C88.2547 103.168 89.5465 104.39 90.8476 105.64C91.9674 106.727 93.1058 107.833 94.2721 108.948C97.6735 112.21 101.158 115.565 104.555 118.799C104.602 118.836 104.653 118.878 104.699 118.934Z" fill="#616161"/>
<path d="M89.0168 123.632L78.3527 126.819L76.1222 127.456L75.6204 127.614L72.8324 128.446L71.1039 125.402L68.4041 120.625L59.6684 105.217L56.5691 99.7246L55.2773 97.4385L52.2988 92.1971L51.5414 90.8309L52.4568 90.6033L70.0119 86.2168C70.1931 86.4724 70.6113 86.937 71.22 87.6154C73.7013 90.2594 79.4539 95.9701 86.317 102.694C87.5484 103.911 88.8077 105.143 90.1087 106.393C91.2379 107.494 92.367 108.618 93.5194 109.72C96.786 112.926 100.159 116.188 103.412 119.324L98.9885 120.644L97.2831 121.16L91.7722 122.805L89.0168 123.632Z" fill="#333333"/>
<path d="M73.8362 84.0166L74.6818 86.7627L87.8133 94.3833L87.4277 85.4152L73.8362 84.0166Z" fill="#EBEBEB"/>
<path d="M102.539 84.0166L101.684 86.7627L88.5568 94.3833L88.9378 85.4152L102.539 84.0166Z" fill="#EBEBEB"/>
<path opacity="0.2" d="M87.1349 109.361L89.579 111.959C88.7008 111.053 87.869 110.193 87.1116 109.384C85.6572 107.884 84.4166 106.587 83.4687 105.556C82.5533 104.584 81.8888 103.873 81.5264 103.497L83.478 105.537L87.1349 109.361Z" fill="#616161"/>
<path opacity="0.2" d="M90.3411 112.902C93.2638 115.652 96.2052 118.301 98.9839 120.643L97.2785 121.159L89.8671 113.362L86.5865 109.909L86.2241 109.523L82.9389 106.071L76.4104 99.2079L76.243 99.0127C76.2988 99.0777 76.3546 99.1475 76.4289 99.1986C78.4502 101.28 80.7039 103.566 83.0969 105.922C84.2075 107.014 85.3505 108.143 86.5029 109.245C86.633 109.366 86.7538 109.491 86.8793 109.621C88.0223 110.722 89.1748 111.81 90.3411 112.902Z" fill="#616161"/>
<path opacity="0.2" d="M78.348 126.819L76.1176 127.451L76.0014 127.214L73.6828 122.823L71.0853 117.907L68.2183 112.442L64.7565 106.332L71.9077 117.089L74.8956 121.596L77.5906 125.644L78.348 126.819Z" fill="#616161"/>
<path opacity="0.2" d="M91.7676 122.807L89.0168 123.634L86.9862 120.549L85.0718 118.151L82.0607 114.424L80.6063 112.631L82.3116 114.183L85.8291 117.394L91.7676 122.807Z" fill="#616161"/>
<path opacity="0.2" d="M58.3348 124.325L53.321 132.805V134.269L48.0145 135.863L44.1485 135.078L49.469 132.647L58.3348 124.325Z" fill="#616161"/>
<path opacity="0.2" d="M137.458 109.159L131.19 111.037L119.899 114.405L119.178 114.614L118.5 106.144L119.425 103.932L120.884 100.437L124.373 92.0967L126.701 92.6589L129.917 93.4442L130.107 93.4767L131.315 93.7881L133.82 100.07L136.334 106.367L137.045 108.095L137.458 109.159Z" fill="#616161"/>
<path d="M131.19 111.033L119.894 114.402L119.838 106.387L122.724 100.63L123.021 100.007L126.697 92.6559L129.912 86.2109C129.912 86.2109 138.104 96.5312 138.35 96.3407C138.406 96.3407 138.643 97.5581 138.964 99.4214C139.336 101.698 139.865 104.983 140.376 108.292L137.742 109.059L137.454 109.152L131.19 111.033Z" fill="#ABABAB"/>
<path opacity="0.2" d="M58.5625 107.045L58.3349 121.287L38.921 118.007C38.921 118.007 38.8978 117.221 39.0186 116.436L44.5761 96.4553L45.6959 93.7881L50.8119 92.5428L51.0488 92.4917L51.4253 92.3895L51.6297 92.3477L58.5625 107.045Z" fill="#616161"/>
<path d="M58.3349 122.93L39.9991 121.285L35.3199 120.862H35.3106C35.3106 120.862 35.3106 120.834 35.3199 120.788C35.3199 120.788 35.3199 120.787 35.3199 120.769C35.371 120.402 35.5848 119.022 35.8729 117.084C36.9044 110.212 38.9954 96.3367 39.2138 96.3367C39.4833 96.5272 47.6521 86.207 47.6521 86.207L47.7079 86.3278L50.8165 92.5358L57.7308 106.383L58.3349 122.93Z" fill="#ABABAB"/>
<path opacity="0.2" d="M140.4 108.273H140.381L137.756 109.049L137.472 109.17L136.143 109.547L134.642 109.988L131.199 111.02L133.825 100.081L134.461 97.3862L129.94 86.2109C130.414 86.8104 137.983 96.3314 138.364 96.3314C138.425 96.3314 138.601 97.3908 138.903 99.0125C138.945 99.1333 138.964 99.282 138.982 99.4214C139.001 99.5748 139.043 99.7374 139.061 99.9093C139.178 100.653 139.326 101.461 139.456 102.367C139.498 102.725 139.554 103.074 139.638 103.459C139.638 103.58 139.679 103.715 139.698 103.878C139.796 104.491 139.893 105.127 139.995 105.797C140.014 105.917 140.014 106.034 140.033 106.113C140.181 106.847 140.274 107.562 140.4 108.273Z" fill="white"/>
<path opacity="0.2" d="M47.7079 86.3608L43.2285 97.3873L43.5677 98.8185L47.4337 114.933L40.0084 121.304L38.3727 122.702C38.3727 122.702 35.9658 132.484 35.6824 132.804C35.6219 132.874 35.5011 132.846 35.2827 132.758V121.806L35.3199 120.867C35.3199 120.867 35.3199 120.825 35.3199 120.797V120.793L35.4407 118.07L35.8403 117.191L35.8775 117.08V117.02C36.5931 112.345 37.7687 104.474 38.5307 99.9152C38.5911 99.5806 38.6283 99.26 38.6887 98.9858C38.9721 97.3502 39.1674 96.3372 39.2278 96.3372C39.6274 96.3372 47.6707 86.2168 47.6707 86.2168H47.7683L47.7079 86.3608Z" fill="white"/>
<path d="M88.5057 30.7959L77.4651 34.0671L71.3037 42.4126V56.2968L73.2971 57.4724L73.6456 43.0398C73.6456 43.0398 73.9988 38.0261 78.3202 38.0261C82.6369 38.0261 88.5149 41.0418 88.5149 41.0418C88.5149 41.0418 94.4766 38.0261 98.6958 38.0261C102.929 38.0261 103.38 43.0398 103.38 43.0398L103.719 57.4724L105.717 56.2968L106.995 43.1468L100.959 34.0671L88.5057 30.7959Z" fill="#333333"/>
<path d="M41.5092 109.321C41.1096 111.756 39.618 113.512 38.1822 113.271C37.6897 113.196 37.2715 112.862 36.9508 112.416L37.7826 117.346L35.8682 117.03C36.5838 112.346 37.764 104.484 38.5168 99.9255C38.6051 99.828 38.6376 99.7676 38.6376 99.7676C38.6376 99.7676 41.7927 107.653 41.5092 109.321Z" fill="#333333"/>
<path opacity="0.2" d="M69.5101 92.0951C69.4497 91.807 69.3614 91.5328 69.2266 91.2679C68.3205 89.3582 65.8671 88.4474 63.6832 89.2048C61.4156 89.9622 60.147 92.2159 60.9463 94.3022C61.1275 94.7715 61.3923 95.1712 61.7222 95.529C59.5848 96.4955 58.3952 98.8885 59.1294 101.049C59.9519 103.419 62.7074 104.478 65.1748 103.396C65.8253 103.112 67.7676 101.439 68.1161 100.952L67.2843 107.35L74.2683 103.972L69.3289 100.431C70.0259 100.515 72.5954 100.092 73.1391 99.8271C75.3741 98.8467 76.2106 96.3142 75.1186 94.2418C74.0871 92.267 71.6243 91.3377 69.5101 92.0951Z" fill="#616161"/>
<path d="M69.4031 92.8832C69.3381 92.5905 69.2591 92.2932 69.1383 92.0097C68.2647 89.9559 65.867 88.9987 63.8086 89.8815C61.7501 90.7597 60.7882 93.1388 61.6711 95.2113C61.8616 95.6527 62.1172 96.0477 62.4378 96.3729C60.6814 97.293 59.8961 99.4258 60.6906 101.275C61.5224 103.227 63.7807 104.114 65.7276 103.301C66.248 103.078 67.8466 101.717 68.1393 101.317L67.5027 106.438L73.3296 103.938L69.1801 100.862C69.7796 100.955 72.0332 100.587 72.5304 100.383C74.6028 99.5047 75.5507 97.1025 74.6725 95.044C73.7989 93.0041 71.443 92.0468 69.4031 92.8832Z" fill="#FFD675"/>
<path opacity="0.2" d="M69.05 102.009L71.3408 103.695L68.7014 104.825L69.05 102.009ZM64.2221 102.613C63.0744 102.613 62.0474 101.934 61.6013 100.88C61.0252 99.5321 61.5874 97.929 62.8931 97.2552L64.0595 96.6418L63.158 95.6846C62.921 95.4337 62.7213 95.141 62.5819 94.8203C61.9267 93.273 62.6515 91.4608 64.1989 90.801C64.5845 90.629 64.9934 90.5361 65.407 90.5361C66.6383 90.5361 67.7443 91.2703 68.2182 92.3995C68.3112 92.5946 68.3669 92.7897 68.4273 93.0732L68.669 94.2488L69.7748 93.7934C70.1512 93.6447 70.5369 93.5704 70.9412 93.5704C72.1679 93.5704 73.2738 94.2953 73.7571 95.4244C74.0777 96.1818 74.0869 97.0182 73.7803 97.7756C73.4829 98.533 72.8974 99.1325 72.1447 99.4484C71.8148 99.5878 70.1373 99.8666 69.4217 99.8666L67.34 100.717C67.0984 101.019 65.7044 102.195 65.3419 102.367C64.9842 102.52 64.6031 102.613 64.2221 102.613Z" fill="#616161"/>
<path opacity="0.2" d="M140.4 108.275C140.293 107.629 140.195 106.979 140.074 106.333C140.06 106.24 140.046 106.142 140.033 106.059C140.023 105.966 140.014 105.896 140.005 105.799C139.902 105.125 139.805 104.493 139.707 103.88C139.689 103.717 139.647 103.587 139.647 103.461C139.568 103.076 139.512 102.727 139.466 102.369C139.331 101.463 139.187 100.655 139.071 99.9113C139.052 99.7394 139.01 99.5768 138.992 99.4234C138.973 99.284 138.954 99.1353 138.913 99.0145C138.611 97.3882 138.434 96.3334 138.374 96.3334C137.997 96.3334 130.428 86.8123 129.949 86.2129L129.977 86.2873C129.954 86.2641 129.921 86.2129 129.921 86.2129L123.788 91.947L113.714 89.5074L108.3 88.2017L102.288 86.7334L101.744 86.6125V86.594L102.539 84.0197L96.851 81.4687V79.7215C100.954 75.8508 103.951 69.1922 104.709 64.3132C104.764 63.9693 104.806 60.5448 104.839 56.8135L105.712 56.3023L106.99 43.1523L106.902 43.0315C107.097 42.2555 107.236 41.4749 107.232 40.6431C107.236 35.411 103.017 31.1593 97.8035 31.071C97.9476 30.374 98.1242 29.663 98.0359 28.9288C97.7664 26.638 93.0175 23.5898 88.5149 23.5898V123.772L89.0121 123.642L91.7629 122.815L97.2738 121.17L98.9792 120.654L103.403 119.334L104.29 119.07L104.695 118.949L119.178 114.627L119.894 114.414L131.19 111.045L136.441 109.479L137.472 109.186L137.639 109.112L137.746 109.07L140.381 108.303C140.381 108.303 140.381 108.303 140.376 108.285H140.4V108.275Z" fill="#616161"/>
<path d="M95.4152 179.316L101.846 176.779L100.373 174.065L74.9327 174.377L73.1437 176.779L78.8266 179.316H95.4152Z" fill="#757575"/>
<path d="M95.4106 169.969H78.8266V187.278H95.4106V169.969Z" fill="#EBB07A"/>
<path opacity="0.2" d="M78.8266 183.932V179.722C80.8479 177.789 83.162 176.558 85.6015 176.558H88.7333C91.1356 176.558 93.4078 177.761 95.4106 179.634V183.788L93.9841 181.511L93.6076 187.273H80.7271L80.3507 181.511L78.8266 183.932Z" fill="#616161"/>
<path d="M77.8787 229.731C77.7347 230.428 77.5488 231.139 77.6418 231.873C77.9159 234.169 82.6601 237.217 87.1674 237.217C92.4646 237.217 96.4561 234.485 96.8139 231.873C96.9718 230.74 96.6141 229.643 96.247 228.644C100.912 228.272 104.588 224.369 104.602 219.616C104.597 214.606 100.527 210.559 95.5221 210.55C94.1931 210.531 89.4582 212.018 88.4498 212.618H85.7641C84.5374 211.874 79.3053 210.559 78.0321 210.559C72.7256 210.559 68.432 214.862 68.4413 220.159C68.432 225.391 72.6512 229.638 77.8787 229.731Z" fill="#333333"/>
<path d="M85.6015 226.713H87.1628H88.7287C96.9208 226.713 103.556 221.132 103.556 214.2C103.556 214.2 103.496 197.281 103.366 196.477C102.227 189.182 96.0983 177.909 88.7287 177.909H87.1628H85.6015C78.2272 177.909 72.0983 189.177 70.9691 196.477C70.839 197.286 70.7693 214.2 70.7693 214.2C70.7693 221.132 77.4141 226.713 85.6015 226.713Z" fill="#EBB07A"/>
<path d="M90.7407 180.215C90.7965 179.945 90.8382 179.643 90.8336 179.336C90.8429 177.157 89.0633 175.387 86.8747 175.387C84.6861 175.387 82.9111 177.157 82.9111 179.336C82.9111 179.82 82.9994 180.261 83.1481 180.679C81.215 180.823 79.7002 182.44 79.6909 184.411C79.6956 186.469 81.3777 188.151 83.4408 188.151C83.9938 188.151 85.9453 187.552 86.3682 187.296H87.4787C87.9805 187.593 90.1413 188.151 90.6663 188.151C92.8642 188.151 94.6346 186.371 94.6346 184.183C94.6393 182.008 92.8921 180.256 90.7407 180.215Z" fill="#333333"/>
<path d="M83.1944 184.393C83.6544 184.393 84.0169 184.547 84.2353 184.691L85.1785 185.262L89.0585 185.272L90.0204 184.691C90.3224 184.5 90.6662 184.398 91.0333 184.398C91.6142 184.398 91.9162 184.417 92.5203 185.016C93.4589 186.103 88.4544 192.966 87.1673 192.966C85.8755 192.966 80.6806 186.522 81.7168 184.988C82.1071 184.598 82.6322 184.389 83.1805 184.389H83.1944V184.393Z" fill="#EBB07A"/>
<path d="M96.6977 206.661C97.0044 206.289 97.1856 205.824 97.1856 205.337C97.1856 204.059 95.9542 203.004 94.4301 203.004C92.9014 203.004 91.6746 204.059 91.6746 205.337C91.6746 205.824 91.8559 206.289 92.1672 206.661H96.6977Z" fill="#333333"/>
<path opacity="0.2" d="M86.1033 208.936H87.1674H88.2315L89.6999 198.072L87.1674 195.158L84.6349 198.072L86.1033 208.936Z" fill="#616161"/>
<path d="M77.6417 206.661C77.335 206.289 77.1538 205.824 77.1538 205.337C77.1538 204.059 78.3852 203.004 79.9047 203.004C81.4334 203.004 82.6601 204.059 82.6601 205.337C82.6601 205.824 82.4835 206.289 82.1722 206.661H77.6417Z" fill="#333333"/>
<g opacity="0.2">
<path d="M90.1413 188.183H84.082V189.679H90.1413V188.183Z" fill="#616161"/>
</g>
<path d="M82.9343 212.543L74.7236 211.535L82.9343 210.545V212.543Z" fill="#333333"/>
<path d="M91.3958 210.545L99.4346 211.535L91.3958 212.543V210.545Z" fill="#333333"/>
<path d="M45.7609 174.585L52.0432 168.702L54.7987 160.366C54.7987 160.366 45.4821 162.225 45.431 161.993L45.7609 174.585Z" fill="#757575"/>
<path d="M127.914 174.585L121.632 168.702L118.876 160.366C118.876 160.366 128.188 162.225 128.244 161.993L127.914 174.585Z" fill="#757575"/>
<path d="M124.141 169.97L125.01 168.214L127.068 161.527C127.068 161.527 115.47 164.761 115.995 164.418L124.141 169.97Z" fill="#1C1C1C"/>
<path d="M38.224 151.624L44.4877 149.76L55.7791 146.396L56.4994 146.183L70.9877 141.866L71.3826 141.722L72.2655 141.471L76.6891 140.156L78.3991 139.64L83.9147 137.99L86.6563 137.168L97.3296 133.98L99.56 133.334L100.062 133.19L102.841 132.354L104.602 131.824L109.662 130.319L117.268 128.042L117.287 130.198L117.338 136.476L122.352 127.991V126.532L127.663 124.938L140.4 121.142V139.017L140.358 139.937V140.007V140.026L140.228 142.702L139.8 143.701L137.296 149.663L134.782 155.592L132.11 161.958L131.102 164.342L129.982 167.014L128.105 167.469L125.01 168.208L124.866 168.25L124.624 168.301L124.238 168.403L124.043 168.435L123.383 168.607L122.482 168.826H122.468L122.37 168.863L121.91 168.974L113.444 171.024L112.547 171.242L112.153 171.326L111.237 171.558L104.462 173.189L104.341 173.212L103.565 173.426L100.996 174.044L100.429 174.183L95.4105 175.387H78.8266L74.8908 174.43L73.9337 174.193L73.3946 174.067L67.3772 172.599L61.9638 171.274L51.8852 168.84L51.3044 168.7L48.9764 168.138L45.7609 167.353L45.5704 167.32L44.3576 167.014L41.853 160.736L39.3392 154.435L38.6329 152.702L38.224 151.624Z" fill="#ABABAB"/>
<path opacity="0.2" d="M67.3773 172.602L84.8254 155.154L85.5736 154.41L88.5428 151.446L88.5707 151.408L93.3661 146.618L93.6123 146.371L101.995 137.979L104.574 135.405L105.759 134.23L107.037 132.947L109.662 130.322L117.269 128.045L117.287 130.201L109.476 137.979L108.184 139.295L107.278 140.182L104.592 142.891L103.775 143.704L102.952 144.522L102.608 144.852L92.7387 154.731L92.5854 154.879L92.2137 155.256L92.1997 155.27L89.3745 158.114L88.6496 158.829L73.3947 174.07L67.3773 172.602Z" fill="white"/>
<path opacity="0.2" d="M45.7609 167.352L56.2531 156.864L71.1178 141.99L71.3827 141.721L72.2656 141.47L76.6892 140.155L78.3991 139.639L83.9147 137.989L86.6563 137.167L97.3297 133.979L99.56 133.334L100.062 133.189L99.6669 133.575L98.087 135.155L90.6106 142.631L89.8392 143.389L85.8106 147.431L85.332 147.901L81.4008 151.841L61.9638 171.274L51.8853 168.839L51.3044 168.699L48.9764 168.137L45.7609 167.352Z" fill="white"/>
<path opacity="0.2" d="M70.9877 141.865L71.3873 141.725L72.2702 141.47L76.6938 140.155L78.4038 139.644L83.9194 137.994L86.6609 137.172L97.3343 133.984L99.5647 133.333L100.066 133.189L102.85 132.353L104.606 131.823L105.763 134.23L108.189 139.295L116.019 155.591L119.81 163.513L120.173 164.271L120.187 164.289L122.315 168.704V168.722L122.38 168.866L121.92 168.973L113.454 171.022L112.557 171.241L112.162 171.325L111.246 171.561L104.472 173.193L104.351 173.216L103.575 173.429C101.182 170.962 95.5082 165.423 88.659 158.83C87.4276 157.631 86.1404 156.409 84.8347 155.154C83.7149 154.053 82.5811 152.966 81.4101 151.846C78.0181 148.588 74.5238 145.229 71.1271 141.995C71.076 141.958 71.0248 141.906 70.9877 141.865Z" fill="#616161"/>
<path d="M86.6563 137.168L97.3297 133.981L99.56 133.33L100.062 133.186L102.845 132.35L104.578 135.398L107.283 140.175L116.019 155.578L119.118 161.066L120.41 163.343L123.388 168.598L124.15 169.96L123.235 170.192L105.68 174.574C105.494 174.323 105.085 173.858 104.472 173.18C101.99 170.527 96.2423 164.811 89.3838 158.101C88.1478 156.884 86.884 155.634 85.5829 154.398C84.4584 153.283 83.32 152.177 82.1769 151.066C78.9056 147.865 75.5368 144.603 72.2794 141.462L76.7031 140.147L78.4131 139.636L83.9287 137.986L86.6563 137.168Z" fill="#333333"/>
<path d="M101.846 176.782L100.996 174.04L87.8644 166.415L88.2454 175.388L101.846 176.782Z" fill="#EBEBEB"/>
<path d="M73.1437 176.782L73.9941 174.04L87.1256 166.415L86.7445 175.388L73.1437 176.782Z" fill="#EBEBEB"/>
<path opacity="0.2" d="M88.5428 151.442L86.0986 148.845C86.9722 149.732 87.8086 150.606 88.566 151.4C90.0204 152.911 91.2564 154.216 92.209 155.248C93.1291 156.219 93.7889 156.911 94.1513 157.302L92.1997 155.262L88.5428 151.442Z" fill="#616161"/>
<path opacity="0.2" d="M85.332 147.903C82.4185 145.147 79.4679 142.503 76.6891 140.157L78.3991 139.646L85.8105 147.438L89.0957 150.886L89.4582 151.276L92.7434 154.733L99.2673 161.596L99.4346 161.773C99.3788 161.722 99.3277 161.652 99.258 161.601C97.2367 159.519 94.9831 157.233 92.59 154.882C91.4795 153.79 90.3318 152.656 89.1794 151.555C89.0586 151.434 88.9331 151.309 88.803 151.183C87.6506 150.077 86.5029 148.976 85.332 147.903Z" fill="#616161"/>
<path opacity="0.2" d="M97.3297 133.981L99.56 133.335L99.6669 133.577L101.995 137.977L104.592 142.889L107.455 148.358L110.921 154.468L103.775 143.702L100.777 139.204L98.087 135.156L97.3297 133.981Z" fill="#616161"/>
<path opacity="0.2" d="M83.9147 137.991L86.6563 137.169L88.6961 140.254L90.6106 142.633L93.6123 146.369L95.0667 148.168L93.366 146.616L89.8392 143.391L83.9147 137.991Z" fill="#616161"/>
<path opacity="0.2" d="M117.338 136.477L122.352 127.992V126.533L127.663 124.939L131.529 125.725L126.213 128.15L117.338 136.477Z" fill="#616161"/>
<path opacity="0.2" d="M38.224 151.623L44.4877 149.76L55.7791 146.395L56.4994 146.182L57.1778 154.653L56.253 156.864L54.7987 160.363L51.3044 168.699L48.9764 168.137L45.7609 167.352L45.5704 167.319L44.3576 167.013L41.853 160.735L39.3392 154.434L38.6329 152.701L38.224 151.623Z" fill="#616161"/>
<path d="M44.4877 149.758L55.7838 146.394L55.8349 154.404L52.954 160.162L52.6473 160.784L48.9764 168.135L45.7609 174.58C45.7609 174.58 37.5689 164.265 37.3226 164.451C37.2668 164.451 37.0345 163.233 36.7139 161.374C36.3375 159.098 35.8124 155.812 35.3013 152.504L37.9313 151.719L38.2287 151.621L44.4877 149.758Z" fill="#ABABAB"/>
<path opacity="0.2" d="M117.12 153.753L117.334 139.511L136.752 142.796C136.752 142.796 136.775 143.581 136.654 144.362L131.097 164.343L129.977 167.014L124.861 168.255L124.624 168.306L124.238 168.404L124.043 168.436L117.12 153.753Z" fill="#616161"/>
<path d="M117.338 137.854L135.679 139.508L140.358 139.935H140.367C140.367 139.935 140.367 139.958 140.358 140.01C140.358 140.028 140.358 140.028 140.358 140.028C140.302 140.395 140.093 141.775 139.8 143.704C138.778 150.585 136.687 164.456 136.459 164.456C136.194 164.27 128.021 174.585 128.021 174.585L127.965 174.46L124.866 168.257L117.952 154.414L117.338 137.854Z" fill="#ABABAB"/>
<path opacity="0.2" d="M35.278 152.526H35.2966L37.9267 151.74L38.2055 151.62L39.5437 151.253L41.0306 150.811L44.4738 149.766L41.853 160.718L41.2072 163.413L45.7284 174.579C45.2498 173.989 37.685 164.463 37.304 164.463C37.2483 164.463 37.0717 163.413 36.7696 161.768C36.7278 161.666 36.7092 161.512 36.6906 161.378C36.6674 161.224 36.6302 161.062 36.6117 160.876C36.4908 160.142 36.3561 159.315 36.2167 158.427C36.1748 158.069 36.1191 157.716 36.0354 157.335C36.0354 157.214 35.9936 157.079 35.975 156.917C35.8728 156.303 35.7752 155.662 35.6777 154.979C35.6591 154.858 35.6591 154.761 35.6358 154.663C35.5011 153.952 35.3942 153.232 35.278 152.526Z" fill="white"/>
<path opacity="0.2" d="M127.965 174.436L132.449 163.409L132.11 161.978L128.249 145.864L135.679 139.493L137.309 138.094C137.309 138.094 139.716 128.308 139.995 127.988C140.056 127.923 140.181 127.937 140.4 128.039V138.991L140.358 139.93C140.358 139.93 140.358 139.972 140.358 139.995C140.358 140.004 140.358 140.004 140.358 140.004L140.237 142.718L139.847 143.605L139.805 143.698V143.768C139.089 148.447 137.914 156.314 137.161 160.872C137.1 161.216 137.054 161.537 137.003 161.811C136.724 163.446 136.524 164.455 136.464 164.455C136.069 164.455 128.021 174.571 128.021 174.571H127.923L127.965 174.436Z" fill="white"/>
<path d="M87.1674 230.006L98.2079 226.721L104.379 218.389V204.505L102.381 203.334L102.037 217.757C102.037 217.757 101.684 222.776 97.3575 222.776C93.0361 222.776 87.172 219.765 87.172 219.765C87.172 219.765 81.2104 222.776 76.9819 222.776C72.7535 222.776 72.3073 217.757 72.3073 217.757L71.9635 203.334L69.9654 204.505L68.6922 217.636L74.7283 226.721L87.1674 230.006Z" fill="#333333"/>
<path d="M134.173 151.464C134.568 149.043 136.06 147.287 137.5 147.528C137.993 147.603 138.411 147.919 138.731 148.383L137.895 143.453L139.805 143.751C139.094 148.434 137.918 156.297 137.161 160.855C137.087 160.971 137.045 161.027 137.045 161.027C137.045 161.027 133.894 153.141 134.173 151.464Z" fill="#333333"/>
<path opacity="0.2" d="M106.163 168.701C106.233 168.989 106.316 169.259 106.446 169.538C107.362 171.438 109.811 172.344 111.999 171.596C114.267 170.834 115.531 168.581 114.736 166.494C114.555 166.03 114.295 165.635 113.96 165.267C116.098 164.287 117.287 161.913 116.544 159.747C115.73 157.377 112.97 156.299 110.503 157.401C109.857 157.689 107.91 159.352 107.562 159.826L108.393 153.428L101.409 156.824L106.34 160.361C105.647 160.277 103.082 160.704 102.539 160.969C100.299 161.95 99.4671 164.482 100.559 166.555C101.591 168.534 104.049 169.454 106.163 168.701Z" fill="#616161"/>
<path d="M106.279 167.921C106.34 168.214 106.414 168.497 106.544 168.794C107.418 170.853 109.811 171.805 111.869 170.927C113.932 170.03 114.889 167.651 114.006 165.597C113.816 165.151 113.56 164.761 113.249 164.436C115.006 163.516 115.786 161.383 114.996 159.534C114.165 157.582 111.906 156.676 109.959 157.508C109.43 157.726 107.84 159.092 107.543 159.492L108.18 154.371L102.357 156.871L106.507 159.952C105.907 159.859 103.644 160.221 103.147 160.426C101.084 161.309 100.127 163.702 101.019 165.76C101.879 167.8 104.235 168.753 106.279 167.921Z" fill="#FFD675"/>
<path opacity="0.2" d="M106.623 158.793L104.341 157.102L106.971 155.978L106.623 158.793ZM111.455 158.189C112.603 158.189 113.625 158.868 114.076 159.918C114.652 161.265 114.09 162.859 112.784 163.547L111.613 164.16L112.52 165.113C112.757 165.359 112.947 165.652 113.086 165.982C113.751 167.543 113.026 169.332 111.469 170.001C111.093 170.164 110.684 170.247 110.271 170.247C109.039 170.247 107.938 169.527 107.455 168.403C107.366 168.208 107.315 168.008 107.25 167.72L107.013 166.539L105.898 166.99C105.531 167.153 105.136 167.232 104.746 167.232C103.51 167.232 102.399 166.498 101.925 165.378C101.6 164.62 101.586 163.784 101.893 163.027C102.199 162.264 102.78 161.67 103.538 161.354C103.868 161.214 105.55 160.936 106.27 160.936L108.347 160.085C108.579 159.783 109.978 158.589 110.35 158.436C110.703 158.264 111.074 158.189 111.455 158.189Z" fill="#616161"/>
<path opacity="0.2" d="M35.278 152.526C35.3803 153.172 35.4825 153.823 35.6033 154.469C35.6219 154.561 35.6312 154.654 35.6451 154.738C35.659 154.817 35.6637 154.901 35.6777 154.984C35.7752 155.667 35.8728 156.309 35.975 156.922C35.9936 157.085 36.0354 157.219 36.0354 157.34C36.1144 157.721 36.1702 158.074 36.2167 158.432C36.3561 159.32 36.4908 160.147 36.6117 160.881C36.6302 161.062 36.6674 161.225 36.6906 161.383C36.7092 161.518 36.7278 161.666 36.7696 161.773C37.0717 163.418 37.2483 164.468 37.304 164.468C37.685 164.468 45.2498 173.994 45.7284 174.584L45.6959 174.514C45.7191 174.542 45.7563 174.589 45.7563 174.589L51.8806 168.85L61.9592 171.28L67.3726 172.604L73.39 174.073L73.929 174.194H73.9383L73.1344 176.786L78.822 179.319V181.075C74.719 184.951 71.7218 191.605 70.9644 196.474C70.9086 196.828 70.8576 200.252 70.8297 203.979L69.9608 204.495L68.6876 217.626L68.7759 217.77C68.5761 218.523 68.4413 219.322 68.4413 220.149C68.4366 225.386 72.6558 229.633 77.8787 229.726C77.7346 230.423 77.5488 231.134 77.6417 231.868C77.9159 234.164 82.6555 237.212 87.1534 237.212V137.016L86.6563 137.164L83.9147 137.987L78.3991 139.636L76.6891 140.148L72.2655 141.462L71.3827 141.718L70.9831 141.857L56.4947 146.179L55.7791 146.393L44.4831 149.757L39.2323 151.327L38.2008 151.615L38.0288 151.69L37.9173 151.722L35.2873 152.508C35.2873 152.508 35.2873 152.508 35.2873 152.526H35.278Z" fill="#616161"/>
<path d="M33.2429 52.4469C33.3172 52.0612 33.373 51.6895 33.3637 51.2806C33.3683 48.4414 31.0543 46.1367 28.2106 46.1367C25.3621 46.1507 23.062 48.4414 23.062 51.2806C23.062 51.9079 23.1689 52.4794 23.3687 53.0184C20.8548 53.2322 18.8847 55.3231 18.8847 57.8881C18.8847 60.5646 21.064 62.7485 23.7544 62.7485C24.47 62.7485 27.021 61.9633 27.5553 61.638L24.2609 67.2976H32.295L28.9958 61.638C29.6603 62.0376 32.4715 62.7485 33.1546 62.7485C36.0076 62.7485 38.3124 60.4345 38.3077 57.5954C38.317 54.7749 36.0494 52.4748 33.2429 52.4469Z" fill="#333333"/>
<path d="M43.0892 109.684C42.7128 112.161 40.9795 113.932 39.2092 113.662C38.7863 113.588 37.1321 112.705 36.779 112.314L38.0893 117.509L35.8404 117.184L35.8775 117.073V117.012C36.5931 112.338 37.7687 104.466 38.5308 99.9078C38.5912 99.5733 38.6283 99.2527 38.6887 98.9785C40.2454 99.4292 41.198 101.502 40.8402 103.779C40.803 104.127 40.7007 104.452 40.6032 104.768C42.3364 105.066 43.4516 107.259 43.0892 109.684Z" fill="#333333"/>
<path d="M140.4 108.272H140.381L137.756 109.048L137.472 109.168L136.143 109.545L134.642 109.986C134.624 109.889 134.605 109.782 134.582 109.684C134.224 107.263 135.349 105.065 137.073 104.768C136.97 104.452 136.877 104.127 136.836 103.778C136.473 101.552 137.393 99.5126 138.908 99.0107C138.95 99.1316 138.968 99.2802 138.987 99.4196C139.006 99.573 139.047 99.7356 139.066 99.9075C139.182 100.651 139.331 101.46 139.461 102.366C139.503 102.723 139.559 103.072 139.642 103.458C139.642 103.578 139.684 103.713 139.703 103.876C139.8 104.489 139.898 105.126 140 105.795C140.019 105.916 140.019 106.032 140.037 106.111C140.181 106.845 140.274 107.561 140.4 108.272Z" fill="#333333"/>
<path opacity="0.2" d="M33.2428 52.4469C33.3172 52.0612 33.373 51.6895 33.3637 51.2806C33.3683 48.4414 31.0543 46.1367 28.2105 46.1367C28.2105 46.1367 28.2012 46.1506 28.1873 46.1506V67.2976H32.295L28.9958 61.638C29.6603 62.0376 32.4715 62.7485 33.1546 62.7485C36.0076 62.7485 38.3123 60.4345 38.3077 57.5954C38.317 54.7749 36.0494 52.4748 33.2428 52.4469Z" fill="#616161"/>
<path d="M156.812 206.633C156.737 207.014 156.682 207.386 156.696 207.786C156.686 210.625 159 212.93 161.839 212.93C164.688 212.93 166.997 210.644 166.997 207.786C166.997 207.168 166.886 206.587 166.686 206.043C169.2 205.853 171.17 203.757 171.175 201.197C171.17 198.502 168.986 196.332 166.3 196.332C165.585 196.313 163.043 197.122 162.495 197.438L165.798 191.773L157.755 191.783L161.054 197.438C160.39 197.038 157.578 196.332 156.9 196.332C154.047 196.332 151.737 198.646 151.742 201.485C151.747 204.31 154.014 206.587 156.812 206.633Z" fill="#333333"/>
<path opacity="0.2" d="M156.812 206.633C156.737 207.014 156.682 207.386 156.696 207.785C156.686 210.624 159 212.929 161.839 212.929C161.853 212.929 161.863 212.929 161.863 212.929V191.782H157.755L161.054 197.437C160.39 197.038 157.578 196.331 156.9 196.331C154.047 196.331 151.737 198.645 151.742 201.484C151.747 204.31 154.014 206.587 156.812 206.633Z" fill="#616161"/>
</svg>
