<svg width="187" height="260" viewBox="0 0 187 260" fill="none" xmlns="http://www.w3.org/2000/svg">
<path d="M20.6377 259.279C9.71808 259.297 0.810417 250.576 0.629197 239.493L0.0669403 20.036C0.187754 9.59027 9.08149 0.822014 20.0476 0.835954L165.07 1.10547C175.98 1.12406 184.86 9.91089 184.86 20.6819V239.661C184.86 250.371 176.013 259.093 165.135 259.107L20.6377 259.279Z" fill="#C9C9C9"/>
<path d="M22.134 258.87C11.219 258.884 2.3113 250.163 2.29271 239.429L1.72583 19.9714C1.68865 9.17256 10.587 0.399664 21.5531 0.422898L166.571 0.68311C177.486 0.706343 186.366 9.49319 186.366 20.2688V239.248C186.366 249.958 177.523 258.68 166.641 258.694L22.134 258.87Z" fill="white"/>
<path d="M165.321 254.622H22.4128C14.0581 254.622 7.26 247.857 7.26 239.539V20.6163C7.26 12.2987 14.0534 5.5332 22.4128 5.5332H165.321C173.671 5.5332 180.465 12.2987 180.465 20.6163V239.539C180.465 247.862 173.676 254.622 165.321 254.622ZM22.4128 11.5181C17.3572 11.5181 13.2449 15.5979 13.2449 20.6163V239.539C13.2449 244.558 17.3526 248.642 22.4128 248.642H165.321C170.372 248.642 174.48 244.562 174.48 239.539V20.6163C174.48 15.5979 170.367 11.5181 165.321 11.5181H22.4128Z" fill="#333333"/>
<path d="M35.4142 36.2288C35.2794 36.4379 34.7358 36.8933 33.7693 37.6135C32.5425 38.5382 31.4645 39.1376 30.5445 39.3932L25.5865 30.309L25.303 30.5041V38.4592H19.4808V17.7444H25.303V29.4912C26.3067 29.3564 27.2082 28.6687 28.0213 27.4234C28.7555 26.2896 29.1226 25.2255 29.1226 24.2218C29.1226 23.5109 29.0111 22.8836 28.788 22.3492C28.5232 21.8846 28.2676 21.4153 28.0213 20.9413C28.0213 20.7368 28.6672 20.1467 29.9451 19.1848C31.0092 18.3949 31.7665 17.8187 32.2359 17.4609C32.5983 17.763 32.9282 18.2694 33.2303 18.999C33.5323 19.7239 33.6856 20.3697 33.6856 20.9366C33.6856 21.4245 33.5741 22.0286 33.3604 22.7488C33.1466 23.4691 32.8632 24.1057 32.5193 24.6772C31.9943 25.5136 31.5156 26.1456 31.0835 26.573C30.2146 27.4559 29.7499 27.9485 29.6895 28.0414L35.4142 36.2288Z" fill="#333333"/>
<path d="M153.044 226.302C153.179 226.097 153.728 225.632 154.689 224.917C155.916 223.992 156.994 223.397 157.919 223.128L162.872 232.212L163.151 232.017V224.067H168.983V244.781H163.151V233.035C162.147 233.169 161.241 233.862 160.433 235.102C159.699 236.241 159.331 237.305 159.331 238.299C159.331 239.02 159.443 239.642 159.671 240.167C159.931 240.637 160.186 241.111 160.433 241.58C160.433 241.789 159.791 242.374 158.509 243.341C157.45 244.126 156.692 244.702 156.218 245.065C155.856 244.763 155.526 244.242 155.228 243.522C154.931 242.793 154.773 242.151 154.773 241.58C154.773 241.092 154.88 240.488 155.098 239.772C155.307 239.052 155.596 238.411 155.93 237.844C156.46 237.017 156.938 236.385 157.375 235.953C158.249 235.061 158.704 234.573 158.76 234.475L153.044 226.302Z" fill="#333333"/>
<path d="M37.6027 56.7114C37.612 54.3834 27.473 44.4209 27.473 44.4209C27.473 44.4209 17.5989 54.69 17.5942 56.6742C17.5849 60.0198 20.2939 62.7381 23.6395 62.7381C24.7872 62.7427 25.8513 62.436 26.7621 61.8738L22.9657 68.3512L32.1894 68.3652L28.4163 61.8831C29.3224 62.436 30.3865 62.7566 31.5295 62.7613C34.8751 62.7706 37.6027 60.0616 37.6027 56.7114Z" fill="#333333"/>
<path opacity="0.2" d="M37.6028 56.7114C37.6121 54.3834 27.473 44.4209 27.473 44.4209C27.473 44.4209 27.4684 44.4348 27.4545 44.4395V68.3605L32.1848 68.3652L28.4117 61.8831C29.3178 62.436 30.3819 62.7566 31.5249 62.7613C34.8752 62.7706 37.6028 60.0616 37.6028 56.7114Z" fill="#616161"/>
<path d="M149.903 205.04C149.894 207.377 160.028 217.33 160.028 217.33C160.028 217.33 169.912 207.066 169.917 205.086C169.926 201.731 167.217 199.013 163.862 199.013C162.719 199.008 161.655 199.32 160.739 199.882L164.545 193.405L155.326 193.391L159.094 199.877C158.193 199.324 157.124 199.004 155.981 198.995C152.636 198.99 149.903 201.699 149.903 205.04Z" fill="#333333"/>
<path opacity="0.2" d="M149.903 205.04C149.894 207.377 160.028 217.33 160.028 217.33L160.047 217.316V193.4L155.321 193.386L159.09 199.873C158.188 199.32 157.12 198.999 155.977 198.99C152.636 198.99 149.903 201.699 149.903 205.04Z" fill="#616161"/>
<path d="M146.669 83.301L146.279 81.9628C146.279 81.9628 121.54 67.8462 113.645 63.3761C112.158 62.535 111.276 62.0332 111.238 62.0332H76.0306C76.0306 62.0332 75.9702 62.0657 75.8726 62.1168C75.7983 62.1587 75.7147 62.2098 75.6078 62.2656C75.5149 62.312 75.4126 62.377 75.2918 62.4421C75.1849 62.4979 75.0781 62.5629 74.9526 62.6326C74.8364 62.6977 74.7063 62.772 74.5576 62.8557C74.3439 62.9765 74.1162 63.1066 73.8606 63.246C73.382 63.5248 72.8384 63.8315 72.239 64.1707C72.225 64.1707 72.2157 64.1753 72.2157 64.1753C71.765 64.4402 71.2817 64.7097 70.7799 64.9978C70.608 65.0907 70.436 65.1883 70.2548 65.2905C69.0792 65.9643 67.7689 66.7078 66.3749 67.4931C65.873 67.7858 65.3665 68.0739 64.8507 68.3666C64.3489 68.6593 63.8285 68.9521 63.2988 69.2495C62.783 69.5515 62.244 69.8489 61.705 70.1509C54.721 74.1378 47.0261 78.5242 43.2856 80.6524C43.0718 80.7778 42.8767 80.8894 42.6862 81.0009C41.7894 81.5167 41.2178 81.8419 41.0552 81.9349V140.618L64.0934 133.694L69.3209 132.128L146.669 108.89V83.301Z" fill="#333333"/>
<path d="M93.9157 92.4157L84.2738 75.7109H103.557L93.9157 92.4157ZM86.1232 76.7797L93.9203 90.2829L101.713 76.7797H86.1232Z" fill="#FFD675"/>
<path opacity="0.2" d="M80.9654 62.0303C80.7795 62.0767 45.9388 81.9598 45.9388 81.9598L41.0552 97.0336V140.61L64.0934 133.687L69.3209 132.121L83.0936 86.9318L84.943 80.8818L87.6287 75.1107L93.6369 62.2719V62.0303H80.9654Z" fill="#616161"/>
<path d="M76.0306 62.0303C76.0306 62.0303 75.9702 62.0628 75.8726 62.1139C75.7982 62.1557 75.7146 62.2069 75.6077 62.2626C75.5148 62.3091 75.4126 62.3741 75.2917 62.4392C75.1988 62.4949 75.0827 62.56 74.9525 62.6297C74.8364 62.6947 74.7063 62.7691 74.5576 62.8527C74.3438 62.9736 74.1161 63.1037 73.8606 63.2431C73.382 63.5126 72.843 63.8192 72.2389 64.1677C72.225 64.1677 72.2157 64.1724 72.2157 64.1724C71.7649 64.4279 71.2817 64.6975 70.7798 64.9948C70.6079 65.0878 70.436 65.1853 70.2548 65.2876C69.0791 65.9613 67.7688 66.6955 66.3748 67.4901C65.873 67.7829 65.3665 68.0709 64.8507 68.3637C64.3395 68.6564 63.8284 68.9445 63.2987 69.2466C62.7829 69.5346 62.2439 69.8413 61.7049 70.148C59.4513 71.4351 57.1233 72.7594 54.8836 74.0465C54.2052 74.4183 53.5361 74.8086 52.8855 75.1757C48.9637 77.4154 45.4555 79.4227 43.2901 80.6494C43.0857 80.7749 42.8812 80.8864 42.6907 80.998C41.7939 81.5137 41.2224 81.839 41.0598 81.9319V140.615L45.1674 139.374L47.4721 138.691L63.8424 133.77L64.0979 133.691C64.8693 131.879 65.6639 129.955 66.5095 127.948C72.0251 114.682 78.7489 97.8793 83.0981 86.9364C85.8072 80.1151 87.6008 75.5707 87.6008 75.5707L87.6333 75.1107L88.8136 62.0303H76.0306Z" fill="#EBEBEB"/>
<path opacity="0.2" d="M146.669 99.6918L141.33 81.9647C141.33 81.9647 106.485 62.0863 106.313 62.0352H93.6368V62.2768L102.335 80.8867L113.641 119.51L146.669 107.549V99.6918Z" fill="#616161"/>
<path d="M146.669 83.3074L146.265 81.9598C146.265 81.9598 111.42 62.0814 111.238 62.0303H98.4601L99.6775 75.5707C99.6775 75.5707 114.709 106.764 120.053 116.884L146.674 108.883L146.669 83.3074Z" fill="#EBEBEB"/>
<path d="M113.98 53.408L113.613 48.6498L113.608 48.4686L112.516 33.892L107.098 31.1597L96.6432 25.8672L93.753 27.4238L90.8535 25.8672L80.4031 31.1597L74.9898 33.892L73.9071 48.4686L73.8885 48.6498L73.5307 53.408L74.6227 67.2783L93.7298 80.9209V80.9534L93.7344 80.9581L93.753 80.9395L93.7809 80.9581V80.9534V80.9209L112.879 67.2783L113.98 53.408Z" fill="#EBBE9F"/>
<path d="M93.7809 62.023L100.189 61.7999L95.3887 58.7982C95.3887 58.7982 94.622 58.7796 93.7809 58.7656C93.767 58.7656 93.7577 58.7656 93.7577 58.7656C93.7484 58.7656 93.7391 58.7656 93.7391 58.7656C92.8887 58.7796 92.122 58.7982 92.122 58.7982L87.3313 61.7999L93.7391 62.023V62.0322H93.7577H93.7809V62.023Z" fill="#EBBE9F"/>
<path opacity="0.2" d="M97.6516 52.8677L95.0309 43.751H93.781H93.7345H92.4845L89.8592 52.8677L92.4845 55.6883L93.7345 55.7347H93.7531H93.781L95.0309 55.6883L97.6516 52.8677Z" fill="#616161"/>
<path d="M96.5224 41.3065L104.761 40.275L104.942 40.2471L105.03 40.2982L108.957 42.3799L104.673 41.1811L104.947 41.2043L96.9499 43.4486L96.5224 41.3065Z" fill="#9C9C9C"/>
<path d="M99.4172 44.749C99.2825 45.0418 99.1989 45.367 99.1989 45.7109C99.1989 46.9887 100.249 48.0389 101.527 48.0389C102.814 48.0389 103.855 46.9887 103.855 45.7109C103.855 45.367 103.78 45.0418 103.646 44.749H99.4172Z" fill="#333333"/>
<path d="M90.9882 41.3065L82.745 40.275L82.5684 40.2471L82.4755 40.2982L78.5491 42.3799L82.824 41.1811L82.5545 41.2043L90.5561 43.4486L90.9882 41.3065Z" fill="#9C9C9C"/>
<path d="M88.0933 44.749C88.2281 45.0418 88.3071 45.367 88.3071 45.7109C88.3071 46.9887 87.2662 48.0389 85.9791 48.0389C84.692 48.0389 83.6558 46.9887 83.6558 45.7109C83.6558 45.367 83.7301 45.0418 83.8695 44.749H88.0933Z" fill="#333333"/>
<path d="M113.613 48.6532C113.483 48.7507 113.408 48.8065 113.408 48.8065L109.598 35.3544L107.098 31.1631L112.516 33.8953L113.608 48.4766L113.613 48.6532Z" fill="#9C9C9C"/>
<path d="M73.8885 48.6532C74.0233 48.7507 74.0976 48.8065 74.0976 48.8065L77.9079 35.3544L80.4031 31.1631L74.9851 33.8953L73.9024 48.4766L73.8885 48.6532Z" fill="#9C9C9C"/>
<path d="M112.874 28.6987V34.2607C108.046 35.5804 102.638 36.1473 97.4472 36.2913C93.9901 36.3936 90.6352 36.3053 87.5962 36.1334C86.0861 36.0497 84.6688 35.9382 83.3538 35.8174C81.7879 35.6826 80.3707 35.5293 79.1486 35.3852C76.2258 35.0321 74.4369 34.7161 74.4369 34.7161V29.4329C74.4369 29.4329 93.5626 19.2148 93.6555 19.2148C93.6555 19.2567 96.0439 20.4555 99.1339 21.9703C100.114 22.4536 101.174 22.9786 102.243 23.5037C103.26 23.9963 104.292 24.5074 105.295 25.0092C108.139 26.394 110.737 27.6578 112.024 28.2805C112.567 28.5454 112.874 28.6987 112.874 28.6987Z" fill="#FFD675"/>
<path opacity="0.2" d="M102.242 23.4975L83.3538 35.8158C81.7879 35.6811 80.3706 35.5277 79.1486 35.3837L99.1339 21.9688C100.114 22.4474 101.178 22.9771 102.242 23.4975Z" fill="white"/>
<path opacity="0.2" d="M112.028 28.2754L97.4472 36.2909C93.9901 36.3931 90.6352 36.3048 87.5962 36.1329L105.3 25.0088C108.144 26.3888 110.741 27.6527 112.028 28.2754Z" fill="white"/>
<path d="M55.8873 100.549L55.2507 105.037L57.4625 101.083L55.8873 100.549Z" fill="#333333"/>
<path d="M64.7299 100.549L64.084 105.037L66.3005 101.083L64.7299 100.549Z" fill="#333333"/>
<path d="M73.5539 100.549L72.9266 105.037L75.1338 101.083L73.5539 100.549Z" fill="#333333"/>
<path d="M44.8468 115.015L44.2056 119.503L46.4174 115.544L44.8468 115.015Z" fill="#333333"/>
<path d="M53.6755 115.015L53.0436 119.503L55.2508 115.544L53.6755 115.015Z" fill="#333333"/>
<path d="M62.5134 115.015L61.8768 119.503L64.084 115.544L62.5134 115.015Z" fill="#333333"/>
<path d="M47.5466 129.6L46.9146 134.084L49.1218 130.129L47.5466 129.6Z" fill="#333333"/>
<path d="M56.3752 129.6L55.7433 134.084L57.9598 130.129L56.3752 129.6Z" fill="#333333"/>
<path d="M65.8312 129.252C65.4176 130.256 65.0134 131.218 64.6323 132.119L64.5115 132.156L64.9576 128.95L65.8312 129.252Z" fill="#333333"/>
<path d="M71.3514 75.3193L70.7056 79.8173L72.9267 75.863L71.3514 75.3193Z" fill="#333333"/>
<path d="M62.5134 73.5176L61.8768 78.0063L64.084 74.0473L62.5134 73.5176Z" fill="#333333"/>
<path d="M54.2703 75.1514L53.0342 77.3446L53.2666 75.7136C53.5965 75.5278 53.9264 75.3326 54.2703 75.1514Z" fill="#333333"/>
<path d="M46.8913 138.68L45.7389 139.029L45.8272 138.327L46.8913 138.68Z" fill="#333333"/>
<path d="M45.0652 85.9688L44.4333 90.4528L46.6451 86.4938L45.0652 85.9688Z" fill="#333333"/>
<path d="M54.8976 85.9688L54.2563 90.4528L56.4728 86.4938L54.8976 85.9688Z" fill="#333333"/>
<path d="M63.7263 85.9688L63.0943 90.4528L65.3062 86.4938L63.7263 85.9688Z" fill="#333333"/>
<path d="M72.5596 85.9688L71.9276 90.4528L74.1394 86.4938L72.5596 85.9688Z" fill="#333333"/>
<path d="M81.6159 77.6602L80.9793 82.1535L83.1912 78.1899L81.6159 77.6602Z" fill="#333333"/>
<path d="M46.0596 100.549L45.4277 105.037L47.6395 101.083L46.0596 100.549Z" fill="#333333"/>
<path d="M133.524 100.549L134.156 105.037L131.949 101.083L133.524 100.549Z" fill="#333333"/>
<path d="M124.691 100.549L125.327 105.037L123.115 101.083L124.691 100.549Z" fill="#333333"/>
<path d="M115.848 100.549L116.494 105.037L114.277 101.083L115.848 100.549Z" fill="#333333"/>
<path d="M118.064 75.3193L118.701 79.8173L116.494 75.863L118.064 75.3193Z" fill="#333333"/>
<path d="M126.902 73.5176L127.539 78.0063L125.327 74.0473L126.902 73.5176Z" fill="#333333"/>
<path d="M135.141 75.1514L136.372 77.3492L136.14 75.7183C135.815 75.5278 135.475 75.3326 135.141 75.1514Z" fill="#333333"/>
<path d="M144.341 85.9688L144.982 90.4528L142.766 86.4938L144.341 85.9688Z" fill="#333333"/>
<path d="M134.518 85.9688L135.155 90.4528L132.938 86.4938L134.518 85.9688Z" fill="#333333"/>
<path d="M125.685 85.9688L126.322 90.4528L124.11 86.4938L125.685 85.9688Z" fill="#333333"/>
<path d="M116.852 85.9688L117.488 90.4528L115.272 86.4938L116.852 85.9688Z" fill="#333333"/>
<path d="M107.795 77.6602L108.432 82.1535L106.215 78.1899L107.795 77.6602Z" fill="#333333"/>
<path d="M143.352 100.549L143.988 105.037L141.772 101.083L143.352 100.549Z" fill="#333333"/>
<path d="M83.0518 65.447C83.6744 64.9498 84.3621 64.5548 85.1056 64.211L80.3892 56.3906H107.098L102.405 64.2481C103.149 64.5687 103.827 64.9916 104.445 65.4888C106.531 67.143 107.735 69.5175 107.735 72.0081C107.735 73.6251 107.735 75.4373 96.3923 84.712L93.9389 86.7334L91.4297 84.7957C79.7201 75.744 79.7387 73.5508 79.7666 71.957C79.7619 69.4756 80.9561 67.1012 83.0518 65.447Z" fill="#9C9C9C"/>
<path d="M85.9792 58.7588H101.527L99.343 64.3208L88.809 64.2837L85.9792 58.7588Z" fill="#EBBE9F"/>
<path opacity="0.2" d="M98.265 60.833H89.9196V62.4826H98.265V60.833Z" fill="#616161"/>
<path d="M96.9314 24.5602C96.9314 23.84 93.8273 20.7871 93.8273 20.7871C93.8273 20.7871 90.7931 23.9375 90.7931 24.5416C90.7931 25.5732 91.6248 26.4049 92.6517 26.4049C93.0002 26.4096 93.3302 26.312 93.609 26.1447L92.4473 28.1288L95.2771 28.1428L94.1155 26.1447C94.3943 26.3166 94.7242 26.4142 95.0727 26.4142C96.0996 26.4142 96.9314 25.5825 96.9314 24.5602Z" fill="#333333"/>
<path opacity="0.2" d="M104.673 103.042C104.44 100.653 93.9296 91.5088 93.9296 91.5088C93.9296 91.5088 83.6279 100.983 83.4281 103.028C83.075 106.666 85.8351 109.803 89.6082 109.793C90.8953 109.793 92.1174 109.426 93.135 108.776L88.5395 116.852L99.566 116.847L94.9844 108.776C96.002 109.412 97.2148 109.803 98.5066 109.807C102.27 109.798 105.026 106.675 104.673 103.042Z" fill="#616161"/>
<path d="M103.53 103.097C103.534 100.89 93.9761 91.499 93.9761 91.499C93.9761 91.499 84.6595 101.192 84.6548 103.051C84.6548 106.21 87.2105 108.78 90.361 108.78C91.439 108.78 92.4566 108.487 93.3069 107.958L89.729 114.063L98.4229 114.086L94.8682 107.967C95.7186 108.483 96.7222 108.789 97.8003 108.799C100.965 108.803 103.53 106.248 103.53 103.097Z" fill="#FFD675"/>
<path opacity="0.2" d="M93.2047 112.08L94.0876 110.584L94.9519 112.089L93.2047 112.08ZM92.2707 106.258C91.7085 106.601 91.058 106.783 90.3842 106.783C88.3768 106.783 86.7598 105.217 86.6576 103.247C87.2105 101.992 90.6212 97.9865 94.0132 94.3574C97.54 97.9446 101.067 101.969 101.532 103.228C101.494 104.171 101.113 105.045 100.444 105.719C99.7426 106.42 98.7993 106.806 97.8096 106.806C97.1358 106.801 96.4713 106.611 95.8952 106.267L92.2707 106.258Z" fill="#616161"/>
<path opacity="0.2" d="M146.279 81.9622C146.279 81.9622 141.879 79.453 136.214 76.2143L136.14 75.7125C135.819 75.5266 135.48 75.3314 135.146 75.1502L135.517 75.824C127.832 71.4375 118.083 65.8848 113.645 63.3756C113.483 63.2826 113.357 63.2083 113.213 63.1293L113.985 53.4038L113.618 48.6456L113.613 48.4644L112.558 34.3292C112.665 34.3013 112.776 34.2781 112.879 34.2549V28.6975C112.879 28.6975 112.572 28.5441 112.033 28.2746C110.746 27.652 108.148 26.3881 105.305 25.0034C104.301 24.5015 103.269 23.9904 102.252 23.4979C101.188 22.9774 100.124 22.4477 99.1432 21.9645C96.0531 20.445 93.6647 19.2508 93.6647 19.209C93.6554 19.209 93.5672 19.2508 93.4185 19.3298V124.883L113.46 118.866L113.645 119.507L124.909 115.428L146.679 108.885V83.3005L146.279 81.9622Z" fill="#616161"/>
<path d="M41.0598 176.234L41.4501 177.572C41.4501 177.572 66.1889 191.689 74.079 196.159C75.5613 197 76.4535 197.502 76.4813 197.502H111.689C111.703 197.502 111.75 197.469 111.852 197.413C111.921 197.376 112.005 197.325 112.117 197.269C112.21 197.218 112.316 197.158 112.437 197.093C112.535 197.032 112.646 196.972 112.767 196.898C112.888 196.828 113.013 196.754 113.162 196.679C113.381 196.558 113.604 196.428 113.859 196.289C114.338 196.005 114.886 195.703 115.485 195.364C115.499 195.364 115.499 195.36 115.509 195.36C115.955 195.095 116.443 194.825 116.945 194.537C117.116 194.444 117.288 194.342 117.465 194.235C118.641 193.571 119.951 192.827 121.345 192.037C121.851 191.744 122.363 191.461 122.878 191.159C123.38 190.876 123.901 190.578 124.426 190.285C124.941 189.983 125.476 189.677 126.019 189.384C133.013 185.397 140.698 181.001 144.434 178.878C144.653 178.757 144.852 178.645 145.034 178.525C145.935 178.018 146.511 177.693 146.669 177.6V118.922L123.631 125.841L118.408 127.411L41.0598 150.64V176.234Z" fill="#333333"/>
<path d="M93.8088 167.117L103.451 183.817H84.167L93.8088 167.117ZM101.606 182.753L93.8041 169.25L86.0117 182.753H101.606Z" fill="#FFD675"/>
<path opacity="0.2" d="M106.759 197.502C106.94 197.455 141.79 177.572 141.79 177.572L146.674 162.498V118.922L123.636 125.841L118.413 127.411L104.636 172.6L102.795 178.65L100.105 184.417L94.1015 197.255V197.502H106.759Z" fill="#616161"/>
<path d="M111.694 197.502C111.708 197.502 111.754 197.469 111.856 197.413C111.926 197.376 112.01 197.325 112.121 197.269C112.214 197.218 112.321 197.158 112.442 197.093C112.53 197.032 112.651 196.972 112.772 196.898C112.893 196.828 113.018 196.754 113.167 196.679C113.385 196.558 113.608 196.428 113.864 196.289C114.342 196.019 114.881 195.703 115.49 195.364C115.504 195.364 115.504 195.36 115.513 195.36C115.959 195.095 116.447 194.834 116.949 194.537C117.121 194.444 117.293 194.342 117.47 194.235C118.645 193.571 119.956 192.836 121.35 192.037C121.856 191.744 122.367 191.461 122.883 191.159C123.389 190.876 123.905 190.583 124.43 190.285C124.946 189.993 125.48 189.686 126.024 189.384C128.273 188.092 130.601 186.773 132.85 185.485C133.524 185.104 134.198 184.723 134.848 184.347C138.765 182.117 142.274 180.109 144.439 178.878C144.657 178.757 144.857 178.645 145.038 178.525C145.94 178.018 146.516 177.693 146.674 177.6V118.922L142.571 120.163L140.266 120.846L123.891 125.766L123.636 125.841C122.869 127.658 122.07 129.581 121.229 131.589C115.713 144.855 108.989 161.657 104.631 172.6C101.922 179.421 100.128 183.957 100.128 183.957L100.096 184.421L98.9155 197.506L111.694 197.502Z" fill="#EBEBEB"/>
<path opacity="0.2" d="M41.0598 159.84L46.4035 177.567C46.4035 177.567 81.2488 197.445 81.4207 197.496H94.0969V197.25L85.3983 178.645L74.0976 140.021L41.0644 151.982L41.0598 159.84Z" fill="#616161"/>
<path d="M41.0598 176.226L41.464 177.574C41.464 177.574 76.3094 197.452 76.486 197.503H89.2643L88.0515 183.963C88.0515 183.963 73.0196 152.77 67.6712 142.649L41.0598 150.642V176.226Z" fill="#EBEBEB"/>
<path d="M73.7491 206.117L74.1069 210.889L74.1209 211.065L75.2082 225.633L80.6262 228.374L91.0858 233.667L93.9761 232.11L96.8663 233.667L107.321 228.374L112.735 225.633L113.822 211.065L113.841 210.889L114.194 206.117L113.102 192.256L93.9993 178.613V178.576L93.99 178.571L93.9761 178.595L93.9482 178.571V178.576V178.613L74.8411 192.256L73.7491 206.117Z" fill="#EBBE9F"/>
<path d="M93.9482 197.508L87.5404 197.735L92.3311 200.737C92.3311 200.737 93.1025 200.756 93.9482 200.77C93.9528 200.77 93.9668 200.77 93.9714 200.77C93.9761 200.77 93.9854 200.77 93.99 200.77C94.845 200.756 95.607 200.737 95.607 200.737L100.393 197.735L93.99 197.508L93.9714 197.503L93.9482 197.508Z" fill="#EBBE9F"/>
<path opacity="0.2" d="M90.0682 206.669L92.7028 215.79H93.9481H93.99H95.2399L97.8699 206.669L95.2399 203.848L93.99 203.802H93.976H93.9481L92.7028 203.848L90.0682 206.669Z" fill="#616161"/>
<path d="M91.2066 218.23L82.9634 219.262L82.7822 219.29L82.6986 219.239L78.7721 217.157L83.0517 218.351L82.7822 218.333L90.7698 216.079L91.2066 218.23Z" fill="#9C9C9C"/>
<path d="M88.3071 214.787C88.4511 214.494 88.5255 214.169 88.5255 213.825C88.5255 212.547 87.48 211.502 86.1975 211.502C84.9104 211.502 83.8695 212.543 83.8695 213.825C83.8695 214.169 83.9532 214.494 84.0833 214.787H88.3071Z" fill="#333333"/>
<path d="M96.7455 218.23L104.979 219.262L105.161 219.29L105.254 219.239L109.18 217.157L104.896 218.351L105.165 218.333L97.173 216.079L96.7455 218.23Z" fill="#9C9C9C"/>
<path d="M99.6263 214.787C99.5009 214.494 99.4172 214.169 99.4172 213.825C99.4172 212.547 100.463 211.502 101.745 211.502C103.032 211.502 104.073 212.543 104.073 213.825C104.073 214.169 103.999 214.494 103.855 214.787H99.6263Z" fill="#333333"/>
<path d="M74.1069 210.888C74.2416 210.782 74.3113 210.73 74.3113 210.73L78.1262 224.183L80.6262 228.374L75.2081 225.632L74.1208 211.06L74.1069 210.888Z" fill="#9C9C9C"/>
<path d="M113.841 210.888C113.701 210.782 113.631 210.73 113.631 210.73L109.817 224.183L107.321 228.374L112.735 225.632L113.822 211.06L113.841 210.888Z" fill="#9C9C9C"/>
<path d="M74.8504 230.836V225.274C79.6829 223.955 85.0916 223.388 90.2727 223.244C93.7344 223.141 97.0847 223.23 100.124 223.402C101.634 223.49 103.056 223.601 104.366 223.708C105.932 223.852 107.354 224.006 108.567 224.145C111.494 224.503 113.283 224.81 113.283 224.81V230.102C113.283 230.102 94.1573 240.32 94.069 240.32C94.069 240.269 91.6713 239.08 88.5859 237.56C87.6055 237.072 86.5507 236.556 85.4727 236.031C84.455 235.529 83.4281 235.023 82.4245 234.53C79.5807 233.136 76.9832 231.877 75.6961 231.245C75.1571 230.99 74.8504 230.836 74.8504 230.836Z" fill="#FFD675"/>
<path opacity="0.2" d="M85.4774 236.036L104.371 223.708C105.937 223.852 107.359 224.005 108.571 224.145L88.5906 237.56C87.6102 237.076 86.5508 236.556 85.4774 236.036Z" fill="white"/>
<path opacity="0.2" d="M75.7008 231.255L90.2773 223.244C93.7391 223.141 97.0894 223.23 100.128 223.402L82.4291 234.535C79.5854 233.146 76.9833 231.882 75.7008 231.255Z" fill="white"/>
<path d="M131.837 158.984L132.474 154.49L130.257 158.449L131.837 158.984Z" fill="#333333"/>
<path d="M122.999 158.984L123.636 154.49L121.424 158.449L122.999 158.984Z" fill="#333333"/>
<path d="M114.17 158.984L114.802 154.49L112.6 158.449L114.17 158.984Z" fill="#333333"/>
<path d="M142.887 144.516L143.514 140.027L141.307 143.986L142.887 144.516Z" fill="#333333"/>
<path d="M134.049 144.516L134.681 140.027L132.474 143.986L134.049 144.516Z" fill="#333333"/>
<path d="M125.216 144.516L125.848 140.027L123.636 143.986L125.216 144.516Z" fill="#333333"/>
<path d="M140.182 129.936L140.814 125.452L138.607 129.406L140.182 129.936Z" fill="#333333"/>
<path d="M131.349 129.936L131.986 125.452L129.765 129.406L131.349 129.936Z" fill="#333333"/>
<path d="M121.889 130.286C122.307 129.273 122.711 128.307 123.087 127.41L123.217 127.368L122.767 130.579L121.889 130.286Z" fill="#333333"/>
<path d="M116.373 184.208L117.019 179.715L114.802 183.669L116.373 184.208Z" fill="#333333"/>
<path d="M125.216 186.015L125.848 181.526L123.636 185.485L125.216 186.015Z" fill="#333333"/>
<path d="M133.454 184.382L134.69 182.185L134.458 183.811C134.128 184.006 133.793 184.201 133.454 184.382Z" fill="#333333"/>
<path d="M140.838 120.855L141.99 120.502L141.892 121.208L140.838 120.855Z" fill="#333333"/>
<path d="M142.664 173.562L143.286 169.078L141.084 173.032L142.664 173.562Z" fill="#333333"/>
<path d="M132.831 173.562L133.468 169.078L131.256 173.032L132.831 173.562Z" fill="#333333"/>
<path d="M124.003 173.562L124.635 169.078L122.414 173.032L124.003 173.562Z" fill="#333333"/>
<path d="M115.165 173.562L115.792 169.078L113.59 173.032L115.165 173.562Z" fill="#333333"/>
<path d="M106.108 181.868L106.745 177.379L104.538 181.333L106.108 181.868Z" fill="#333333"/>
<path d="M141.665 158.984L142.297 154.49L140.094 158.449L141.665 158.984Z" fill="#333333"/>
<path d="M54.2052 158.983L53.5732 154.489L55.7758 158.448L54.2052 158.983Z" fill="#333333"/>
<path d="M63.0385 158.983L62.4019 154.489L64.6091 158.448L63.0385 158.983Z" fill="#333333"/>
<path d="M71.8764 158.983L71.2352 154.489L73.4424 158.448L71.8764 158.983Z" fill="#333333"/>
<path d="M69.6601 184.208L69.0235 179.715L71.2353 183.669L69.6601 184.208Z" fill="#333333"/>
<path d="M60.8267 186.019L60.1901 181.53L62.402 185.489L60.8267 186.019Z" fill="#333333"/>
<path d="M52.5882 184.38L51.3521 182.183L51.5845 183.809C51.9144 184.004 52.2489 184.199 52.5882 184.38Z" fill="#333333"/>
<path d="M43.3831 173.561L42.7419 169.077L44.9583 173.031L43.3831 173.561Z" fill="#333333"/>
<path d="M53.2108 173.561L52.5742 169.077L54.7861 173.031L53.2108 173.561Z" fill="#333333"/>
<path d="M62.0488 173.561L61.4075 169.077L63.6193 173.031L62.0488 173.561Z" fill="#333333"/>
<path d="M70.8775 173.561L70.2409 169.077L72.4527 173.031L70.8775 173.561Z" fill="#333333"/>
<path d="M79.9245 181.867L79.2972 177.378L81.5137 181.332L79.9245 181.867Z" fill="#333333"/>
<path d="M44.3775 158.983L43.7409 154.489L45.9527 158.448L44.3775 158.983Z" fill="#333333"/>
<path d="M93.7902 172.809L96.304 174.746C108.009 183.798 107.995 185.991 107.967 187.594C107.967 190.062 106.768 192.431 104.673 194.09C104.055 194.588 103.358 194.982 102.623 195.326L107.326 203.142H80.6215L85.31 195.289C84.5758 194.969 83.8928 194.546 83.2748 194.049C81.1791 192.394 79.9849 190.02 79.9849 187.525C79.9849 185.917 79.9849 184.1 91.3274 174.83L93.7902 172.809Z" fill="#9C9C9C"/>
<path d="M101.745 200.772H86.1975L88.3814 195.21L98.9107 195.242L101.745 200.772Z" fill="#EBBE9F"/>
<path opacity="0.2" d="M97.8049 197.062H89.4595V198.698H97.8049V197.062Z" fill="#616161"/>
<path d="M90.7931 234.974C90.7884 235.694 93.9017 238.742 93.9017 238.742C93.9017 238.742 96.9267 235.596 96.9314 234.983C96.9314 233.961 96.0996 233.129 95.0773 233.129C94.7242 233.124 94.3943 233.222 94.1248 233.389L95.2864 231.405L92.4566 231.4L93.6136 233.385C93.3395 233.217 93.0096 233.12 92.6564 233.12C91.6248 233.12 90.7931 233.951 90.7931 234.974Z" fill="#333333"/>
<path opacity="0.2" d="M83.0611 156.487C83.2934 158.885 93.8088 168.034 93.8088 168.034C93.8088 168.034 104.101 158.55 104.306 156.505C104.654 152.867 101.894 149.731 98.1209 149.74C96.8338 149.731 95.621 150.107 94.5941 150.758L99.1897 142.682H88.1631L92.754 150.758C91.7271 150.121 90.519 149.731 89.2318 149.726C85.4587 149.731 82.7033 152.858 83.0611 156.487Z" fill="#616161"/>
<path d="M84.1901 156.435C84.1855 158.637 93.7483 168.033 93.7483 168.033C93.7483 168.033 103.06 158.344 103.07 156.472C103.07 153.321 100.523 150.752 97.3634 150.752C96.2854 150.752 95.2771 151.045 94.4221 151.57L98 145.469L89.3015 145.445L92.8655 151.565C92.0105 151.049 91.0022 150.743 89.9241 150.733C86.7644 150.729 84.1901 153.28 84.1901 156.435Z" fill="#FFD675"/>
<path opacity="0.2" d="M94.5244 147.456L93.6415 148.952L92.7726 147.446L94.5244 147.456ZM95.4584 153.273C96.016 152.929 96.6711 152.748 97.3449 152.748C99.343 152.748 100.965 154.314 101.072 156.28C100.519 157.539 97.1033 161.544 93.7112 165.173C90.1797 161.586 86.6622 157.553 86.1882 156.298C86.2254 155.36 86.6157 154.477 87.2802 153.812C87.9865 153.111 88.9251 152.725 89.9149 152.725C90.584 152.725 91.2531 152.915 91.834 153.264L95.4584 153.273Z" fill="#616161"/>
<path opacity="0.2" d="M41.4501 177.571C41.4501 177.571 45.8505 180.076 51.5148 183.315L51.5892 183.817C51.9144 184.007 52.249 184.202 52.5882 184.383L52.2118 183.71C59.9021 188.096 69.6461 193.649 74.0837 196.158C74.2463 196.251 74.3764 196.316 74.5205 196.404L73.7491 206.121L74.1069 210.893L74.1209 211.065L75.1756 225.2C75.0734 225.228 74.9573 225.242 74.855 225.274V230.836C74.855 230.836 75.1617 230.989 75.7054 231.254C76.9925 231.882 79.59 233.146 82.4337 234.54C83.4374 235.027 84.469 235.534 85.4819 236.04C86.5553 236.561 87.6148 237.081 88.5952 237.569C91.6806 239.093 94.0783 240.278 94.0783 240.329C94.0783 240.329 94.1712 240.278 94.3246 240.208V134.646L74.2835 140.663L74.0976 140.022L62.8294 144.101L41.0645 150.635V176.229L41.4501 177.571Z" fill="#616161"/>
</svg>
