<svg width="186" height="260" viewBox="0 0 186 260" fill="none" xmlns="http://www.w3.org/2000/svg">
<path d="M21.2827 259.493C10.3491 259.511 1.42747 250.78 1.40423 240.028L0.832687 20.2263C0.809454 9.3996 9.72177 0.622068 20.6925 0.640654L165.947 0.905546C176.886 0.924133 185.775 9.73425 185.775 20.5192V239.865C185.775 250.585 176.918 259.311 166.022 259.33L21.2827 259.493Z" fill="#C9C9C9"/>
<path d="M23.0949 258.943C12.2961 258.943 3.51849 250.184 3.51849 239.431V20.1505C3.51849 9.39342 12.2961 0.648438 23.0949 0.648438H166.235C177.03 0.648438 185.817 9.39807 185.817 20.1505V239.431C185.817 250.184 177.03 258.943 166.235 258.943H23.0949Z" fill="white"/>
<path d="M26.4963 30.3149C26.4963 30.7331 26.2918 31.314 25.9015 32.0574C25.3485 33.0565 24.5539 34.0787 23.5177 35.1428C22.3235 36.351 21.6869 36.9921 21.5894 37.0758C20.8366 37.6473 19.9119 37.9121 18.806 37.9121C17.3191 37.9121 16.018 37.3407 14.9307 36.1884C14.0014 35.2079 13.5413 34.2646 13.5413 33.3585C13.5413 32.7219 13.8527 31.9598 14.4939 31.128C15.1258 30.2731 15.7718 29.4134 16.4362 28.5678C15.9437 28.131 15.5022 27.6524 15.1305 27.1134C14.7495 26.5697 14.559 25.9703 14.559 25.3058C14.559 24.4694 14.8703 23.6005 15.4976 22.6665C16.1017 21.858 16.5989 21.161 16.9985 20.5987C17.9836 19.2001 18.7921 18.3033 19.4426 17.8758C20.0792 17.4576 20.7809 17.2578 21.5383 17.2578C22.672 17.2578 23.6525 17.5738 24.4657 18.2197C25.2928 18.8563 25.7063 19.7345 25.7063 20.8265C25.7063 22.016 25.2184 23.1405 24.2287 24.2046C23.2482 25.2686 22.7603 25.9843 22.7603 26.3932C23.7408 27.0391 24.5911 27.657 25.3067 28.261C26.0966 28.9255 26.4963 29.6272 26.4963 30.3149ZM22.8068 32.8195C22.8068 32.2108 22.0912 31.4673 20.6507 30.6123C19.3636 29.8224 18.5412 29.4413 18.188 29.4413C18.0533 29.4413 17.8674 29.6504 17.6351 30.0686C17.3981 30.4775 17.2726 30.8306 17.2726 31.1466C17.2726 31.9087 17.7512 32.6522 18.6945 33.3538C19.5634 33.9904 20.3859 34.3065 21.1619 34.3065C21.5336 34.3065 21.91 34.1623 22.2631 33.8324C22.6302 33.5211 22.8068 33.1773 22.8068 32.8195ZM21.7613 23.8003C21.7613 23.3263 21.5011 22.8384 20.9992 22.3227C20.4184 21.7418 19.7539 21.449 19.0244 21.449C18.6899 21.449 18.4064 21.5606 18.1787 21.7651C17.9603 21.9649 17.8395 22.2205 17.8395 22.5271C17.8395 23.1452 18.3181 23.8142 19.2753 24.5344C20.1024 25.1617 20.6414 25.4685 20.8831 25.4685C21.055 25.4685 21.2362 25.2686 21.45 24.8411C21.6591 24.4369 21.7613 24.0884 21.7613 23.8003Z" fill="#333333"/>
<path d="M164.047 231.69C164.047 231.272 164.242 230.7 164.642 229.966C165.19 228.967 165.985 227.931 167.025 226.881C168.21 225.663 168.856 225.027 168.944 224.948C169.707 224.376 170.631 224.093 171.728 224.093C173.224 224.093 174.516 224.674 175.612 225.826C176.537 226.816 177.002 227.75 177.002 228.656C177.002 229.302 176.686 230.045 176.049 230.905C175.413 231.741 174.771 232.592 174.112 233.447C174.599 233.893 175.036 234.371 175.408 234.91C175.789 235.454 175.975 236.053 175.975 236.708C175.975 237.545 175.664 238.423 175.036 239.348C174.437 240.156 173.935 240.853 173.535 241.416C172.555 242.814 171.737 243.72 171.096 244.138C170.45 244.547 169.753 244.766 168.996 244.766C167.866 244.766 166.886 244.45 166.068 243.804C165.241 243.158 164.832 242.28 164.832 241.188C164.832 239.989 165.329 238.874 166.31 237.81C167.29 236.755 167.778 236.021 167.778 235.63C166.798 234.985 165.943 234.362 165.227 233.762C164.442 233.089 164.047 232.392 164.047 231.69ZM167.732 229.195C167.732 229.803 168.447 230.538 169.888 231.411C171.175 232.183 171.993 232.573 172.355 232.573C172.481 232.573 172.666 232.373 172.908 231.955C173.145 231.527 173.261 231.174 173.261 230.877C173.261 230.096 172.787 229.362 171.839 228.66C170.97 228.024 170.148 227.699 169.377 227.699C168.996 227.699 168.628 227.861 168.266 228.182C167.913 228.507 167.732 228.851 167.732 229.195ZM168.777 238.214C168.777 238.688 169.033 239.176 169.544 239.682C170.129 240.272 170.785 240.556 171.509 240.556C171.849 240.556 172.127 240.463 172.355 240.259C172.583 240.049 172.69 239.803 172.69 239.487C172.69 238.869 172.216 238.2 171.254 237.48C170.427 236.862 169.892 236.546 169.651 236.546C169.479 236.546 169.293 236.755 169.089 237.164C168.884 237.582 168.777 237.935 168.777 238.214Z" fill="#333333"/>
<path d="M149.187 44.2427C149.205 39.5867 128.918 19.6572 128.918 19.6572C128.918 19.6572 109.151 40.2141 109.142 44.1777C109.137 50.8689 114.551 56.3008 121.246 56.3101C123.537 56.3101 125.675 55.6921 127.501 54.5862L119.899 67.5364L138.337 67.5736L130.795 54.5954C132.603 55.692 134.74 56.3379 137.031 56.3565C143.722 56.3612 149.187 50.9525 149.187 44.2427Z" fill="#333333"/>
<path opacity="0.2" d="M149.187 44.2427C149.205 39.5867 128.918 19.6572 128.918 19.6572C128.918 19.6572 128.899 19.6757 128.885 19.685V67.5597L138.341 67.5782L130.8 54.6001C132.607 55.6967 134.745 56.3426 137.036 56.3612C143.722 56.3612 149.187 50.9525 149.187 44.2427Z" fill="#616161"/>
<path d="M149.187 101.695C149.205 97.039 128.918 77.1094 128.918 77.1094C128.918 77.1094 109.151 97.6663 109.142 101.621C109.137 108.317 114.551 113.762 121.246 113.772C123.537 113.781 125.675 113.144 127.501 112.038L119.899 124.989L138.337 125.026L130.795 112.057C132.603 113.144 134.74 113.8 137.031 113.809C143.722 113.827 149.187 108.409 149.187 101.695Z" fill="#333333"/>
<path opacity="0.2" d="M149.187 101.695C149.205 97.039 128.918 77.1094 128.918 77.1094C128.918 77.1094 128.899 77.1186 128.885 77.1465V125.012L138.341 125.031L130.8 112.062C132.607 113.149 134.745 113.804 137.036 113.813C143.722 113.827 149.187 108.409 149.187 101.695Z" fill="#616161"/>
<path d="M40.2364 44.2427C40.2178 39.5867 60.5052 19.6572 60.5052 19.6572C60.5052 19.6572 80.2721 40.2141 80.2814 44.1777C80.286 50.8689 74.8773 56.3008 68.1768 56.3101C65.8907 56.3101 63.7439 55.6921 61.9271 54.5862L69.529 67.5364L51.0817 67.5736L58.6233 54.5954C56.8203 55.692 54.6829 56.3379 52.3875 56.3565C45.7009 56.3612 40.2364 50.9525 40.2364 44.2427Z" fill="#333333"/>
<path opacity="0.2" d="M40.2364 44.2427C40.2178 39.5867 60.5052 19.6572 60.5052 19.6572C60.5052 19.6572 60.5238 19.6757 60.5423 19.685V67.5597L51.0817 67.5782L58.6233 54.6001C56.8203 55.6967 54.6829 56.3426 52.3875 56.3612C45.7009 56.3612 40.2364 50.9525 40.2364 44.2427Z" fill="#616161"/>
<path d="M40.2364 101.695C40.2178 97.039 60.5052 77.1094 60.5052 77.1094C60.5052 77.1094 80.2721 97.6663 80.2814 101.621C80.286 108.317 74.8773 113.762 68.1768 113.772C65.8907 113.781 63.7439 113.144 61.9271 112.038L69.529 124.989L51.0817 125.026L58.6233 112.057C56.8203 113.144 54.6829 113.8 52.3875 113.809C45.7009 113.827 40.2364 108.409 40.2364 101.695Z" fill="#333333"/>
<path opacity="0.2" d="M40.2364 101.695C40.2178 97.039 60.5052 77.1094 60.5052 77.1094C60.5052 77.1094 60.5238 77.1186 60.5423 77.1465V125.012L51.0817 125.031L58.6233 112.062C56.8203 113.149 54.6829 113.804 52.3875 113.813C45.7009 113.827 40.2364 108.409 40.2364 101.695Z" fill="#616161"/>
<path d="M149.094 216.326C149.112 220.982 128.825 240.921 128.825 240.921C128.825 240.921 109.058 220.374 109.049 216.401C109.044 209.705 114.458 204.268 121.153 204.259C123.44 204.25 125.582 204.877 127.408 205.992L119.806 193.033L138.253 193.005L130.707 205.974C132.515 204.877 134.647 204.222 136.943 204.213C143.629 204.199 149.094 209.607 149.094 216.326Z" fill="#333333"/>
<path opacity="0.2" d="M149.094 216.326C149.112 220.982 128.825 240.921 128.825 240.921C128.825 240.921 128.807 240.903 128.793 240.875V193.009L138.253 193L130.707 205.969C132.515 204.872 134.647 204.217 136.943 204.208C143.629 204.198 149.094 209.607 149.094 216.326Z" fill="#616161"/>
<path d="M149.094 158.865C149.112 163.521 128.825 183.46 128.825 183.46C128.825 183.46 109.058 162.903 109.049 158.94C109.044 152.253 114.458 146.807 121.153 146.807C123.44 146.798 125.582 147.425 127.408 148.522L119.806 135.581L138.253 135.534L130.707 148.512C132.515 147.425 134.647 146.779 136.943 146.761C143.629 146.751 149.094 152.169 149.094 158.865Z" fill="#333333"/>
<path opacity="0.2" d="M149.094 158.865C149.112 163.521 128.825 183.46 128.825 183.46C128.825 183.46 128.807 183.441 128.793 183.423V135.557L138.253 135.529L130.707 148.507C132.515 147.42 134.647 146.774 136.943 146.756C143.629 146.751 149.094 152.169 149.094 158.865Z" fill="#616161"/>
<path d="M40.1528 216.326C40.1342 220.982 60.4169 240.921 60.4169 240.921C60.4169 240.921 80.1838 220.374 80.1885 216.401C80.2024 209.705 74.7844 204.268 68.0839 204.259C65.7977 204.25 63.6556 204.877 61.8341 205.992L69.4361 193.033L50.9888 193.005L58.535 205.974C56.7274 204.877 54.59 204.222 52.2992 204.213C45.608 204.199 40.1528 209.607 40.1528 216.326Z" fill="#333333"/>
<path opacity="0.2" d="M40.1528 216.326C40.1342 220.982 60.4169 240.921 60.4169 240.921C60.4169 240.921 60.4355 240.903 60.4541 240.875V193.009L50.9934 193L58.5396 205.969C56.7321 204.872 54.5946 204.217 52.3038 204.208C45.608 204.198 40.1528 209.607 40.1528 216.326Z" fill="#616161"/>
<path d="M40.1528 158.865C40.1342 163.521 60.4169 183.46 60.4169 183.46C60.4169 183.46 80.1838 162.903 80.1885 158.94C80.2024 152.253 74.7844 146.807 68.0839 146.807C65.7977 146.798 63.6556 147.425 61.8341 148.522L69.4361 135.581L50.9888 135.534L58.535 148.512C56.7274 147.425 54.59 146.779 52.2992 146.761C45.608 146.751 40.1528 152.169 40.1528 158.865Z" fill="#333333"/>
<path opacity="0.2" d="M40.1528 158.865C40.1342 163.521 60.4169 183.46 60.4169 183.46C60.4169 183.46 60.4355 183.441 60.4541 183.423V135.557L50.9934 135.529L58.5396 148.507C56.7321 147.42 54.5946 146.774 52.3038 146.756C45.608 146.751 40.1528 152.169 40.1528 158.865Z" fill="#616161"/>
<path d="M25.2555 53.0962C25.2602 51.8509 19.8515 46.5352 19.8515 46.5352C19.8515 46.5352 14.5775 52.0183 14.5775 53.0684C14.5729 54.8574 16.018 56.3071 17.8023 56.3071C18.4157 56.3071 18.9826 56.1445 19.4751 55.8517L17.4492 59.2996H22.37L20.3533 55.8517C20.8366 56.1445 21.4035 56.3164 22.0168 56.3164C23.7965 56.3164 25.2555 54.8712 25.2555 53.0962Z" fill="#333333"/>
<path opacity="0.2" d="M25.2556 53.0962C25.2602 51.8509 19.8515 46.5352 19.8515 46.5352L19.8422 46.5444V59.3041H22.3654L20.3487 55.8564C20.832 56.1492 21.3989 56.321 22.0122 56.321C23.7965 56.3163 25.2556 54.8712 25.2556 53.0962Z" fill="#616161"/>
<path d="M166.356 209.541C166.352 210.796 171.765 216.102 171.765 216.102C171.765 216.102 177.034 210.619 177.034 209.569C177.034 207.78 175.594 206.33 173.809 206.33C173.196 206.33 172.634 206.493 172.151 206.795L174.172 203.338L169.251 203.319L171.268 206.786C170.785 206.493 170.213 206.321 169.604 206.321C167.815 206.307 166.356 207.752 166.356 209.541Z" fill="#333333"/>
<path opacity="0.2" d="M166.356 209.541C166.352 210.796 171.765 216.102 171.765 216.102L171.774 216.093V203.324L169.251 203.314L171.268 206.781C170.785 206.488 170.213 206.316 169.604 206.316C167.815 206.307 166.356 207.752 166.356 209.541Z" fill="#616161"/>
</svg>
