<svg width="183" height="256" viewBox="0 0 183 256" fill="none" xmlns="http://www.w3.org/2000/svg">
<path d="M20.328 255.132C9.56167 255.151 0.77488 246.554 0.737707 235.974L0.184738 19.5415C0.161505 8.89135 8.93448 0.239256 19.7426 0.257842L162.767 0.522716C173.524 0.54595 182.283 9.21197 182.283 19.8343V235.797C182.283 246.359 173.561 254.956 162.832 254.97L20.328 255.132Z" fill="#C9C9C9"/>
<path d="M22.1077 254.601C11.4855 254.601 2.8241 245.977 2.8241 235.387V19.4752C2.8241 8.88542 11.4855 0.270508 22.1077 0.270508H163.041C173.673 0.270508 182.325 8.88542 182.325 19.4752V235.387C182.325 245.977 173.673 254.601 163.041 254.601H22.1077Z" fill="white"/>
<path d="M126.714 18.5859L107.713 42.5767L126.714 66.586L145.732 42.5767L126.714 18.5859Z" fill="#D66142"/>
<path opacity="0.2" d="M126.588 18.7439L126.714 18.5859L145.732 42.5767L126.714 66.586L126.588 66.4187V18.7439Z" fill="#616161"/>
<path d="M58.4308 103.432L77.4356 127.427L58.4308 151.432L39.4306 127.427L58.4308 103.432Z" fill="#D66142"/>
<path opacity="0.2" d="M58.5563 103.59L58.4308 103.432L39.4306 127.427L58.4308 151.432L58.5563 151.274V103.59Z" fill="#616161"/>
<path d="M91.2455 62.8516L110.246 86.8469L91.2455 110.861L72.2267 86.8469L91.2455 62.8516Z" fill="#D66142"/>
<path opacity="0.2" d="M91.3663 63.0188L91.2455 62.8516L72.2267 86.8469L91.2455 110.861L91.3663 110.694V63.0188Z" fill="#616161"/>
<path d="M58.4307 188.279L77.4356 212.275L58.4307 236.279L39.4305 212.275L58.4307 188.279Z" fill="#D66142"/>
<path opacity="0.2" d="M58.5562 188.437L58.4307 188.279L39.4305 212.275L58.4307 236.279L58.5562 236.126V188.437Z" fill="#616161"/>
<path d="M58.4307 18.5859L77.4356 42.5767L58.4307 66.586L39.4305 42.5767L58.4307 18.5859Z" fill="#D66142"/>
<path opacity="0.2" d="M58.5562 18.7439L58.4307 18.5859L39.4305 42.5767L58.4307 66.586L58.5562 66.4187V18.7439Z" fill="#616161"/>
<path d="M126.714 103.432L107.713 127.427L126.714 151.432L145.732 127.427L126.714 103.432Z" fill="#D66142"/>
<path opacity="0.2" d="M126.588 103.59L126.714 103.432L145.732 127.427L126.714 151.432L126.588 151.274V103.59Z" fill="#616161"/>
<path d="M126.714 188.279L107.713 212.275L126.714 236.279L145.732 212.275L126.714 188.279Z" fill="#D66142"/>
<path opacity="0.2" d="M126.588 188.437L126.714 188.279L145.732 212.275L126.714 236.279L126.588 236.126V188.437Z" fill="#616161"/>
<path d="M17.9676 58.1083L12.4288 51.1197L17.9676 44.1357L23.4925 51.1197L17.9676 58.1083Z" fill="#D66142"/>
<path opacity="0.2" d="M17.9676 44.1357L17.9166 44.1868V58.0618L17.9676 58.1083L23.4925 51.1197L17.9676 44.1357Z" fill="#616161"/>
<path d="M25.4533 16.6691C25.1095 17.301 24.775 17.9144 24.4822 18.5138C23.8085 19.852 23.2555 20.9951 22.8326 21.9384C22.3308 23.035 21.8755 24.0805 21.4619 25.0656C20.8718 26.4921 20.565 27.217 20.565 27.2356C20.2398 27.9233 19.7706 28.7876 19.1804 29.8284C18.4463 31.0784 17.8701 31.9845 17.4565 32.5374C16.7223 33.4668 15.9881 34.2892 15.2354 34.9862C14.399 35.7669 13.4696 36.4732 12.452 37.0819C12.3777 37.0447 12.3079 36.9982 12.2289 36.9471C12.1685 36.8867 12.15 36.8031 12.15 36.6962C12.15 36.5522 12.5636 35.9295 13.4186 34.8561C13.9576 34.1824 14.3525 33.6433 14.5988 33.2391C14.9241 32.6954 15.2493 32.0821 15.5653 31.3944C15.8673 30.7067 16.1787 29.9864 16.4947 29.2476C17.3311 27.533 18.0373 25.9578 18.6135 24.508C18.9667 23.6112 19.3245 22.6122 19.6776 21.5016C19.6776 21.1206 18.3672 20.9394 15.7697 20.9394C15.412 20.9394 15.0356 21.0044 14.6174 21.1252C14.2131 21.246 13.832 21.4551 13.4789 21.7572H12.7169V21.167C13.9343 19.4524 15.096 18.2582 16.2112 17.5705C17.0848 17.0269 18.028 16.7574 19.027 16.7574C19.329 16.7574 19.7983 16.8038 20.4256 16.8689C21.0622 16.9432 21.5363 16.9804 21.8848 16.9804C22.3634 16.9665 22.7444 16.9432 23.0232 16.9246C23.8782 16.8317 24.5054 16.6273 24.8958 16.3066H25.3651L25.4533 16.6691Z" fill="#333333"/>
<path d="M160.894 240.584C161.252 239.947 161.568 239.334 161.875 238.739C162.539 237.401 163.092 236.262 163.52 235.314C164.022 234.213 164.477 233.177 164.891 232.187C165.481 230.751 165.787 230.036 165.787 230.017C166.113 229.329 166.582 228.465 167.172 227.42C167.906 226.174 168.482 225.273 168.91 224.715C169.63 223.791 170.369 222.968 171.117 222.257C171.954 221.477 172.883 220.78 173.914 220.171C173.989 220.208 174.045 220.255 174.124 220.301C174.184 220.361 174.216 220.45 174.216 220.561C174.216 220.705 173.789 221.323 172.934 222.401C172.395 223.07 172 223.614 171.754 224.018C171.428 224.557 171.094 225.171 170.787 225.858C170.485 226.551 170.174 227.262 169.858 228.005C169.022 229.711 168.315 231.295 167.739 232.745C167.386 233.642 167.028 234.641 166.67 235.756C166.67 236.132 167.981 236.313 170.578 236.313C170.936 236.313 171.326 236.248 171.73 236.132C172.135 236.011 172.516 235.802 172.869 235.5H173.631V236.09C172.413 237.805 171.252 239.004 170.137 239.687C169.258 240.231 168.32 240.495 167.316 240.495C167.014 240.495 166.559 240.458 165.917 240.393C165.281 240.314 164.807 240.277 164.463 240.277C163.984 240.296 163.603 240.314 163.325 240.337C162.465 240.435 161.842 240.635 161.452 240.951H160.973L160.894 240.584Z" fill="#333333"/>
<path d="M168.385 199.137L173.919 206.121L168.385 213.105L162.855 206.121L168.385 199.137Z" fill="#D66142"/>
<path opacity="0.2" d="M168.417 199.174L168.385 199.137L162.855 206.121L168.385 213.105L168.417 213.058V199.174Z" fill="#616161"/>
</svg>
