<svg width="186" height="260" viewBox="0 0 186 260" fill="none" xmlns="http://www.w3.org/2000/svg">
<path d="M21.2873 259.347C10.3491 259.366 1.42747 250.644 1.40424 239.887L0.837338 20.0858C0.804812 9.25905 9.72178 0.472159 20.6926 0.481453L165.952 0.755562C176.881 0.783442 185.784 9.5842 185.784 20.3691V239.715C185.784 250.426 176.918 259.166 166.026 259.175L21.2873 259.347Z" fill="#C9C9C9"/>
<path d="M23.0902 258.804C12.3006 258.804 3.50913 250.054 3.50913 239.302V20.0113C3.50913 9.24963 12.3006 0.5 23.0902 0.5H166.235C177.034 0.5 185.812 9.24963 185.812 20.0113V239.302C185.812 250.054 177.034 258.804 166.235 258.804H23.0902Z" fill="white"/>
<path d="M17.0542 34.9222C17.0542 35.2567 16.464 35.8004 15.2977 36.5624C13.992 37.4081 12.8629 37.831 11.9196 37.831C11.4085 37.831 11.0089 37.6033 10.6929 37.1247C10.4745 36.7622 10.363 36.4463 10.363 36.1628V21.4142C10.363 21.1215 10.3212 20.9171 10.2375 20.8056C10.1446 20.7034 10.0191 20.6615 9.82397 20.6615C9.72639 20.6615 9.50799 20.6894 9.15949 20.7591C8.80634 20.8427 8.54614 20.8567 8.37421 20.8242C8.29986 20.7313 8.26732 20.6521 8.26732 20.5685C8.26732 20.3594 8.49036 20.1039 8.94574 19.7972C9.40111 19.5045 9.87509 19.1328 10.3676 18.7007C10.7672 18.3568 11.1622 18.0129 11.5897 17.6458C12.0172 17.3484 12.3796 17.1904 12.6584 17.1904C13.1324 17.1904 13.5924 17.4461 14.0385 17.9618C14.4846 18.4683 14.703 18.9423 14.703 19.4023V35.0289C14.7773 35.1126 14.8331 35.173 14.8702 35.1916C15.005 35.2985 15.1026 35.3542 15.1816 35.3542C15.3349 35.2985 15.4511 35.252 15.5533 35.2195C15.7996 35.1126 16.1063 34.9129 16.4873 34.6201H16.9705L17.0542 34.9222Z" fill="#333333"/>
<path d="M35.0832 27.7665C35.0832 28.891 34.8555 29.9736 34.4048 31.0052C33.666 32.6641 32.4021 34.1371 30.6085 35.3963C29.5862 36.1119 28.8427 36.5951 28.3874 36.8321C27.2582 37.4687 25.9571 37.7754 24.4795 37.7754C22.3049 37.7754 20.5206 36.8322 19.1219 34.9457C17.8255 33.1753 17.1657 31.1168 17.1657 28.7377C17.1657 27.1858 17.5653 25.6337 18.3599 24.0631C18.8617 23.0548 19.5308 22.093 20.3347 21.1683C21.3616 20.0345 22.4071 19.119 23.4851 18.4452C24.8652 17.567 26.2034 17.1396 27.5185 17.1396C29.8418 17.1396 31.719 18.2734 33.1549 20.541C34.442 22.5855 35.0832 24.9925 35.0832 27.7665ZM30.7758 30.8658C30.7758 29.4857 30.5899 28.1336 30.2089 26.8279C29.8325 25.5129 29.2702 24.2955 28.536 23.1896C27.7461 21.9536 26.9794 21.0846 26.2406 20.5735C25.7295 20.211 25.2509 20.0391 24.7955 20.0391C23.7407 20.0391 22.8718 20.5363 22.2026 21.5539C21.5289 22.5622 21.1943 23.7054 21.1943 24.9925C21.1943 25.7825 21.2687 26.5444 21.422 27.2228C21.6497 28.3009 22.0772 29.5184 22.7045 30.8613C23.4201 32.4504 24.2147 33.6214 25.1115 34.3463C25.8456 34.955 26.5891 35.2523 27.3186 35.2523C28.4152 35.2523 29.2656 34.862 29.8743 34.0814C30.4691 33.2961 30.7758 32.2273 30.7758 30.8658Z" fill="#333333"/>
<path d="M173.493 226.819C173.493 226.485 174.079 225.922 175.245 225.174C176.556 224.319 177.676 223.896 178.628 223.896C179.135 223.896 179.539 224.133 179.841 224.603C180.064 224.956 180.185 225.281 180.185 225.574V240.313C180.185 240.62 180.227 240.82 180.31 240.922C180.398 241.024 180.529 241.075 180.724 241.075C180.817 241.075 181.04 241.038 181.388 240.959C181.741 240.885 181.997 240.866 182.169 240.903C182.248 241.005 182.285 241.094 182.285 241.168C182.285 241.368 182.057 241.633 181.597 241.93C181.142 242.237 180.673 242.604 180.185 243.036C179.785 243.371 179.381 243.724 178.963 244.082C178.521 244.379 178.177 244.546 177.885 244.546C177.415 244.546 176.951 244.291 176.514 243.775C176.068 243.268 175.849 242.785 175.849 242.33V226.712C175.766 226.61 175.715 226.559 175.677 226.54C175.543 226.415 175.445 226.368 175.361 226.368C175.217 226.415 175.087 226.466 175.004 226.503C174.748 226.619 174.441 226.819 174.065 227.103H173.582L173.493 226.819Z" fill="#333333"/>
<path d="M155.46 233.959C155.46 232.853 155.683 231.77 156.138 230.729C156.882 229.061 158.146 227.598 159.935 226.338C160.961 225.614 161.7 225.139 162.151 224.898C163.28 224.27 164.586 223.964 166.059 223.964C168.238 223.964 170.022 224.907 171.416 226.794C172.722 228.546 173.377 230.613 173.377 233.002C173.377 234.554 172.978 236.115 172.183 237.685C171.672 238.685 171.012 239.646 170.204 240.571C169.181 241.705 168.131 242.616 167.053 243.294C165.678 244.168 164.335 244.6 163.025 244.6C160.706 244.6 158.819 243.466 157.384 241.198C156.101 239.154 155.46 236.738 155.46 233.959ZM159.763 230.878C159.763 232.249 159.953 233.601 160.334 234.907C160.715 236.222 161.268 237.439 162.012 238.554C162.797 239.79 163.559 240.65 164.302 241.17C164.809 241.524 165.292 241.705 165.747 241.705C166.802 241.705 167.671 241.198 168.336 240.19C169.009 239.182 169.349 238.029 169.349 236.742C169.349 235.952 169.274 235.209 169.121 234.503C168.898 233.434 168.466 232.216 167.843 230.883C167.128 229.284 166.324 228.132 165.436 227.398C164.702 226.789 163.963 226.492 163.229 226.492C162.128 226.492 161.287 226.882 160.683 227.663C160.069 228.443 159.763 229.512 159.763 230.878Z" fill="#333333"/>
<path d="M149.229 44.103C149.247 39.4471 128.96 19.5176 128.96 19.5176C128.96 19.5176 109.188 40.0744 109.184 44.0287C109.179 50.7199 114.588 56.1612 121.288 56.1705C123.574 56.1798 125.716 55.5432 127.538 54.4466L119.941 67.3968L138.383 67.4339L130.837 54.4651C132.645 55.5432 134.777 56.1983 137.073 56.2076C143.764 56.2262 149.229 50.8128 149.229 44.103Z" fill="#333333"/>
<path opacity="0.2" d="M149.229 44.103C149.247 39.4471 128.96 19.5176 128.96 19.5176C128.96 19.5176 128.941 19.5269 128.923 19.5547V67.42L138.383 67.4386L130.837 54.4698C132.645 55.5478 134.777 56.203 137.073 56.2123C143.764 56.2263 149.229 50.8128 149.229 44.103Z" fill="#616161"/>
<path d="M149.229 101.56C149.247 96.8944 128.96 76.9648 128.96 76.9648C128.96 76.9648 109.188 97.5216 109.184 101.485C109.179 108.181 114.588 113.618 121.288 113.618C123.574 113.627 125.716 113.009 127.538 111.894L119.941 124.844L138.383 124.881L130.837 111.903C132.645 113.009 134.777 113.655 137.073 113.673C143.764 113.687 149.229 108.269 149.229 101.56Z" fill="#333333"/>
<path opacity="0.2" d="M149.229 101.56C149.247 96.8944 128.96 76.9648 128.96 76.9648C128.96 76.9648 128.941 76.9834 128.923 77.002V124.877L138.383 124.886L130.837 111.908C132.645 113.014 134.777 113.66 137.073 113.678C143.764 113.687 149.229 108.269 149.229 101.56Z" fill="#616161"/>
<path d="M40.2783 44.103C40.2597 39.4471 60.547 19.5176 60.547 19.5176C60.547 19.5176 80.3186 40.0744 80.3233 44.0287C80.3325 50.7199 74.9145 56.1612 68.2187 56.1705C65.9325 56.1798 63.7904 55.5432 61.9643 54.4466L69.5662 67.3968L51.1236 67.4339L58.6698 54.4651C56.8576 55.5432 54.7248 56.1983 52.434 56.2076C45.7428 56.2262 40.2783 50.8128 40.2783 44.103Z" fill="#333333"/>
<path opacity="0.2" d="M40.2783 44.103C40.2597 39.4471 60.547 19.5176 60.547 19.5176C60.547 19.5176 60.5656 19.5269 60.5842 19.5547V67.42L51.1236 67.4386L58.6698 54.4698C56.8576 55.5478 54.7248 56.203 52.434 56.2123C45.7428 56.2263 40.2783 50.8128 40.2783 44.103Z" fill="#616161"/>
<path d="M74.6868 76.9425C74.6729 72.2772 94.9603 52.3477 94.9603 52.3477C94.9603 52.3477 114.727 72.9045 114.736 76.8588C114.736 83.5546 109.332 89.0006 102.632 89.0006C100.346 89.0099 98.199 88.3825 96.3821 87.2766L103.984 100.218L85.5415 100.273L93.0783 87.2859C91.2754 88.3825 89.1426 89.0283 86.8425 89.0469C80.1513 89.0562 74.6868 83.6383 74.6868 76.9425Z" fill="#333333"/>
<path opacity="0.2" d="M74.6868 76.9425C74.6729 72.2772 94.9603 52.3477 94.9603 52.3477C94.9603 52.3477 94.9742 52.3569 94.9974 52.3755V100.25L85.5368 100.278L93.0737 87.2905C91.2708 88.3872 89.138 89.033 86.8379 89.0516C80.1513 89.0563 74.6868 83.6383 74.6868 76.9425Z" fill="#616161"/>
<path d="M40.2783 101.56C40.2597 96.8944 60.547 76.9648 60.547 76.9648C60.547 76.9648 80.3186 97.5216 80.3233 101.485C80.3325 108.181 74.9145 113.618 68.2187 113.618C65.9325 113.627 63.7904 113.009 61.9643 111.894L69.5662 124.844L51.1236 124.881L58.6698 111.903C56.8576 113.009 54.7248 113.655 52.434 113.673C45.7428 113.687 40.2783 108.269 40.2783 101.56Z" fill="#333333"/>
<path opacity="0.2" d="M40.2783 101.56C40.2597 96.8944 60.547 76.9648 60.547 76.9648C60.547 76.9648 60.5656 76.9834 60.5842 77.002V124.877L51.1236 124.886L58.6698 111.908C56.8576 113.014 54.7248 113.66 52.434 113.678C45.7428 113.687 40.2783 108.269 40.2783 101.56Z" fill="#616161"/>
<path d="M149.14 216.182C149.154 220.848 128.867 240.777 128.867 240.777C128.867 240.777 109.1 220.22 109.091 216.266C109.086 209.561 114.495 204.115 121.195 204.115C123.481 204.115 125.628 204.733 127.445 205.839L119.848 192.898L138.295 192.852L130.744 205.83C132.552 204.733 134.68 204.087 136.98 204.069C143.671 204.059 149.14 209.477 149.14 216.182Z" fill="#333333"/>
<path opacity="0.2" d="M149.14 216.183C149.154 220.848 128.867 240.778 128.867 240.778C128.867 240.778 128.848 240.759 128.839 240.741V192.866L138.3 192.848L130.749 205.826C132.556 204.729 134.685 204.083 136.985 204.065C143.671 204.06 149.14 209.478 149.14 216.183Z" fill="#616161"/>
<path d="M149.14 158.728C149.154 163.393 128.867 183.323 128.867 183.323C128.867 183.323 109.1 162.766 109.091 158.802C109.086 152.116 114.495 146.679 121.195 146.67C123.482 146.66 125.628 147.278 127.445 148.394L119.848 135.434L138.295 135.406L130.744 148.375C132.552 147.278 134.68 146.633 136.98 146.623C143.671 146.614 149.14 152.023 149.14 158.728Z" fill="#333333"/>
<path opacity="0.2" d="M149.14 158.728C149.154 163.393 128.867 183.322 128.867 183.322C128.867 183.322 128.848 183.304 128.839 183.285V135.42L138.3 135.401L130.749 148.37C132.556 147.274 134.685 146.628 136.985 146.618C143.671 146.614 149.14 152.022 149.14 158.728Z" fill="#616161"/>
<path d="M40.1853 216.182C40.1714 220.848 60.4587 240.777 60.4587 240.777C60.4587 240.777 80.2256 220.22 80.2303 216.266C80.2349 209.561 74.8262 204.115 68.1257 204.115C65.8395 204.115 63.6928 204.733 61.8759 205.839L69.4732 192.898L51.0353 192.852L58.5768 205.83C56.7693 204.733 54.6364 204.087 52.341 204.069C45.6498 204.059 40.1853 209.477 40.1853 216.182Z" fill="#333333"/>
<path opacity="0.2" d="M40.1853 216.183C40.1714 220.848 60.4587 240.778 60.4587 240.778C60.4587 240.778 60.4726 240.759 60.4866 240.741V192.866L51.0353 192.848L58.5768 205.826C56.7693 204.729 54.6364 204.083 52.341 204.065C45.6498 204.06 40.1853 209.478 40.1853 216.183Z" fill="#616161"/>
<path d="M74.5985 182.925C74.58 187.581 94.8673 207.511 94.8673 207.511C94.8673 207.511 114.639 186.963 114.644 182.999C114.657 176.304 109.239 170.867 102.539 170.858C100.257 170.848 98.1107 171.476 96.2892 172.591L103.886 159.631L85.4485 159.604L92.9947 172.572C91.1825 171.476 89.0497 170.821 86.7589 170.811C80.063 170.793 74.5985 176.211 74.5985 182.925Z" fill="#333333"/>
<path opacity="0.2" d="M74.5985 182.925C74.58 187.581 94.8673 207.51 94.8673 207.51C94.8673 207.51 94.8906 207.492 94.8998 207.473V159.608L85.4439 159.599L92.9901 172.567C91.1779 171.471 89.045 170.816 86.7542 170.806C80.063 170.792 74.5985 176.21 74.5985 182.925Z" fill="#616161"/>
<path d="M40.1853 158.728C40.1714 163.393 60.4587 183.323 60.4587 183.323C60.4587 183.323 80.2256 162.766 80.2303 158.802C80.2349 152.116 74.8262 146.679 68.1257 146.67C65.8395 146.66 63.6928 147.278 61.8759 148.394L69.4732 135.434L51.0353 135.406L58.5768 148.375C56.7693 147.278 54.6364 146.633 52.341 146.623C45.6498 146.614 40.1853 152.023 40.1853 158.728Z" fill="#333333"/>
<path opacity="0.2" d="M40.1853 158.728C40.1714 163.393 60.4587 183.322 60.4587 183.322C60.4587 183.322 60.4726 183.304 60.4866 183.285V135.42L51.0353 135.401L58.5768 148.37C56.7693 147.274 54.6364 146.628 52.341 146.618C45.6498 146.614 40.1853 152.022 40.1853 158.728Z" fill="#616161"/>
<path d="M25.1394 52.9508C25.1487 51.6962 19.7307 46.3896 19.7307 46.3896C19.7307 46.3896 14.4614 51.8727 14.4614 52.9229C14.4614 54.7211 15.9018 56.1616 17.6815 56.1616C18.2949 56.1616 18.8618 55.9991 19.345 55.697L17.3237 59.1541L22.2399 59.1633L20.2232 55.697C20.7065 55.9944 21.278 56.1709 21.8914 56.1801C23.6804 56.1848 25.1394 54.7305 25.1394 52.9508Z" fill="#333333"/>
<path opacity="0.2" d="M25.1394 52.9508C25.1487 51.6962 19.7307 46.3896 19.7307 46.3896C19.7307 46.3896 19.7214 46.3897 19.7214 46.399V59.1588L22.2446 59.168L20.2279 55.7016C20.7112 55.9989 21.2827 56.1755 21.8961 56.1848C23.6804 56.1848 25.1394 54.7305 25.1394 52.9508Z" fill="#616161"/>
<path d="M166.245 209.405C166.24 210.651 171.649 215.957 171.649 215.957C171.649 215.957 176.927 210.483 176.927 209.424C176.927 207.635 175.482 206.185 173.698 206.185C173.085 206.176 172.518 206.348 172.034 206.65L174.065 203.193L169.144 203.184L171.156 206.65C170.678 206.353 170.111 206.176 169.497 206.176C167.699 206.167 166.245 207.621 166.245 209.405Z" fill="#333333"/>
<path opacity="0.2" d="M166.245 209.405C166.24 210.651 171.649 215.957 171.649 215.957H171.658V203.188L169.14 203.179L171.152 206.645C170.673 206.348 170.106 206.171 169.493 206.171C167.699 206.167 166.245 207.621 166.245 209.405Z" fill="#616161"/>
</svg>
