<svg width="186" height="260" viewBox="0 0 186 260" fill="none" xmlns="http://www.w3.org/2000/svg">
<path d="M20.6794 259.834C9.74577 259.843 0.819564 251.103 0.796331 240.369L0.234074 20.5676C0.206194 9.7409 9.12784 0.96337 20.0893 0.972664L165.349 1.23756C176.282 1.26544 185.176 10.057 185.176 20.8605V240.197C185.176 250.917 176.32 259.657 165.414 259.662L20.6794 259.834Z" fill="#C9C9C9"/>
<path d="M22.4869 259.28C11.6973 259.28 2.9104 250.53 2.9104 239.778V20.4972C2.9104 9.73553 11.6973 0.995117 22.4869 0.995117H165.632C176.422 0.995117 185.208 9.73553 185.208 20.4972V239.778C185.208 250.535 176.422 259.28 165.632 259.28H22.4869Z" fill="white"/>
<path d="M25.7535 26.5656C25.7535 26.9095 25.642 27.2393 25.4096 27.5738C25.1169 27.8991 24.931 28.1362 24.8613 28.2477C23.9273 29.6463 23.1839 30.6175 22.631 31.1333C22.1431 31.4493 21.6784 31.742 21.223 32.0394C21.065 32.2578 20.986 32.4855 20.986 32.755C21.0511 33.0012 21.0742 33.1824 21.0742 33.2893C21.0742 33.8051 21.1115 34.2604 21.1858 34.6508C21.2602 35.0504 21.3671 35.241 21.4879 35.241C21.6598 35.241 21.841 35.1758 21.9989 35.0504C22.5658 34.5764 22.9329 34.3163 23.0769 34.2605C23.2117 34.5161 23.2722 34.6601 23.2722 34.7158C23.2722 34.9993 22.761 35.6219 21.7155 36.6116C20.4702 37.7733 19.3272 38.3635 18.2863 38.3635C17.5289 38.3635 17.0503 37.3737 16.8412 35.3757C16.6321 33.3776 16.4462 32.2716 16.279 32.0625H9.67141C9.5413 31.9882 9.45297 31.9465 9.42509 31.9186C9.40186 31.8814 9.38794 31.7373 9.38794 31.4725C9.38794 31.1286 9.82004 30.3015 10.6843 29.0237C11.4835 27.8713 12.7103 26.2821 14.3738 24.2701C14.8756 23.6335 15.4053 23.0016 15.9304 22.3557C16.2743 21.9654 16.7389 21.4589 17.329 20.8409C17.9052 20.2229 18.5418 19.5259 19.2156 18.7174C19.8011 18.0204 20.2705 17.6719 20.6097 17.6719L20.9767 17.7555V27.7736C21.2834 27.9177 21.5158 27.9922 21.6877 27.9922C21.8317 27.9643 21.9479 27.9642 21.9897 27.9642C22.7518 27.9642 23.4348 27.718 24.0621 27.2301C24.5174 26.8119 24.9774 26.3937 25.4607 25.9894C25.5443 26.0359 25.6187 26.0869 25.6652 26.1148C25.7256 26.1566 25.7535 26.3147 25.7535 26.5656ZM16.4788 27.6018V26.547V26.1752C16.4788 25.8221 16.4508 25.3947 16.3904 24.9068C15.9954 25.2506 15.4611 25.8314 14.8106 26.6678C14.5875 26.9234 14.3087 27.3045 13.9509 27.7924L14.1693 27.8991H16.0792L16.4788 27.6018Z" fill="#333333"/>
<path d="M163.573 236.116C163.573 235.772 163.694 235.442 163.917 235.126C164.21 234.782 164.396 234.564 164.466 234.438C165.395 233.049 166.143 232.087 166.705 231.562C167.184 231.256 167.648 230.944 168.104 230.656C168.262 230.438 168.336 230.201 168.336 229.95C168.276 229.704 168.253 229.522 168.253 229.406C168.253 228.89 168.215 228.444 168.146 228.054C168.071 227.645 167.964 227.445 167.844 227.445C167.672 227.445 167.5 227.51 167.328 227.645C166.766 228.128 166.399 228.379 166.25 228.444C166.115 228.18 166.05 228.026 166.05 227.989C166.05 227.705 166.566 227.074 167.607 226.093C168.861 224.922 170 224.332 171.036 224.332C171.798 224.332 172.277 225.331 172.481 227.329C172.69 229.309 172.871 230.415 173.043 230.624H179.646C179.781 230.698 179.869 230.758 179.893 230.777C179.92 230.805 179.93 230.949 179.93 231.223C179.93 231.585 179.502 232.403 178.633 233.663C177.839 234.824 176.612 236.404 174.949 238.444C174.447 239.062 173.917 239.685 173.392 240.33C173.048 240.739 172.579 241.237 172.007 241.855C171.417 242.482 170.78 243.179 170.107 243.978C169.516 244.666 169.052 245.033 168.708 245.033L168.341 244.94V234.931C168.039 234.768 167.802 234.694 167.635 234.694C167.486 234.722 167.388 234.741 167.328 234.741C166.571 234.741 165.883 234.987 165.26 235.475C164.805 235.893 164.34 236.311 163.876 236.729C163.773 236.655 163.704 236.613 163.652 236.576C163.597 236.534 163.573 236.386 163.573 236.116ZM172.848 235.098V236.153V236.525C172.848 236.878 172.871 237.306 172.936 237.793C173.327 237.459 173.866 236.869 174.53 236.032C174.739 235.768 175.018 235.396 175.376 234.889L175.153 234.782H173.243L172.848 235.098Z" fill="#333333"/>
<path d="M148.714 48.5304C148.728 44.0371 129.221 24.8604 129.221 24.8604C129.221 24.8604 110.193 44.6365 110.193 48.4468C110.179 54.901 115.388 60.1285 121.833 60.1285C124.04 60.1378 126.098 59.5384 127.85 58.4789L120.536 70.9321L138.272 70.9785L131.024 58.4883C132.762 59.5431 134.806 60.1658 137.013 60.175C143.458 60.1936 148.714 54.9754 148.714 48.5304Z" fill="#333333"/>
<path opacity="0.2" d="M148.714 48.5304C148.727 44.0371 129.221 24.8604 129.221 24.8604C129.221 24.8604 129.198 24.8883 129.184 24.9069V70.946L138.272 70.9739L131.024 58.4836C132.762 59.5384 134.806 60.1611 137.013 60.1704C143.458 60.1936 148.714 54.9754 148.714 48.5304Z" fill="#616161"/>
<path d="M43.9079 48.5304C43.8846 44.0371 63.4007 24.8604 63.4007 24.8604C63.4007 24.8604 82.4148 44.6365 82.4288 48.4468C82.4288 54.901 77.2199 60.1285 70.7749 60.1285C68.5817 60.1378 66.5233 59.5384 64.7715 58.4789L72.0713 70.9321L54.3351 70.9785L61.5977 58.4883C59.8552 59.5431 57.8015 60.1658 55.5943 60.175C49.1633 60.1936 43.9079 54.9754 43.9079 48.5304Z" fill="#333333"/>
<path opacity="0.2" d="M43.9079 48.5304C43.8846 44.0371 63.4007 24.8604 63.4007 24.8604C63.4007 24.8604 63.4239 24.8883 63.4378 24.9069V70.946L54.3351 70.9739L61.5977 58.4836C59.8552 59.5384 57.8015 60.1611 55.5943 60.1704C49.1633 60.1936 43.9079 54.9754 43.9079 48.5304Z" fill="#616161"/>
<path d="M148.625 214.059C148.639 218.543 129.123 237.701 129.123 237.701C129.123 237.701 110.104 217.943 110.104 214.133C110.09 207.688 115.299 202.442 121.744 202.442C123.951 202.442 126.01 203.032 127.762 204.11L120.448 191.648L138.189 191.61L130.935 204.101C132.664 203.032 134.722 202.414 136.925 202.414C143.37 202.395 148.625 207.604 148.625 214.059Z" fill="#333333"/>
<path opacity="0.2" d="M148.625 214.059C148.639 218.543 129.123 237.701 129.123 237.701C129.123 237.701 129.109 237.701 129.095 237.682V191.634L138.189 191.615L130.935 204.106C132.664 203.037 134.722 202.419 136.925 202.419C143.37 202.396 148.625 207.604 148.625 214.059Z" fill="#616161"/>
<path d="M43.8055 214.059C43.7963 218.543 63.3122 237.701 63.3122 237.701C63.3122 237.701 82.3265 217.943 82.3265 214.133C82.3404 207.688 77.1315 202.442 70.6865 202.442C68.4933 202.442 66.4349 203.032 64.6831 204.11L71.9831 191.648L54.2466 191.61L61.514 204.101C59.7762 203.032 57.7177 202.414 55.5106 202.414C49.0656 202.395 43.8055 207.604 43.8055 214.059Z" fill="#333333"/>
<path opacity="0.2" d="M43.8055 214.059C43.7963 218.543 63.3122 237.701 63.3122 237.701C63.3122 237.701 63.3356 237.701 63.3495 237.682V191.634L54.2466 191.615L61.514 204.106C59.7762 203.037 57.7177 202.419 55.5106 202.419C49.0656 202.396 43.8055 207.604 43.8055 214.059Z" fill="#616161"/>
<path d="M23.3743 52.2064C23.3743 51.0076 18.1654 45.9102 18.1654 45.9102C18.1654 45.9102 13.0958 51.1748 13.0958 52.1924C13.0958 53.907 14.4899 55.3057 16.2045 55.3057C16.7946 55.315 17.3336 55.1524 17.7982 54.8596L15.8651 58.182L20.5955 58.1913L18.6578 54.8782C19.1272 55.1523 19.6661 55.3149 20.2516 55.3149C21.9616 55.3196 23.3743 53.9211 23.3743 52.2064Z" fill="#333333"/>
<path opacity="0.2" d="M23.3743 52.2064C23.3743 51.0076 18.1654 45.9102 18.1654 45.9102C18.1654 45.9102 18.1654 45.9102 18.1654 45.9195V58.1913H20.591L18.6532 54.8782C19.1225 55.1523 19.6616 55.3149 20.2471 55.3149C21.9617 55.3196 23.3743 53.9211 23.3743 52.2064Z" fill="#616161"/>
<path d="M166.515 210.84C166.515 212.048 171.719 217.145 171.719 217.145C171.719 217.145 176.793 211.881 176.793 210.863C176.793 209.13 175.409 207.75 173.68 207.731C173.095 207.731 172.556 207.894 172.077 208.177L174.038 204.864H169.307L171.241 208.177C170.776 207.894 170.223 207.731 169.633 207.731C167.918 207.727 166.515 209.121 166.515 210.84Z" fill="#333333"/>
<path opacity="0.2" d="M166.515 210.84C166.515 212.048 171.719 217.145 171.719 217.145C171.719 217.145 171.719 217.145 171.719 217.136V204.864H169.307L171.241 208.177C170.776 207.894 170.223 207.731 169.633 207.731C167.918 207.727 166.515 209.121 166.515 210.84Z" fill="#616161"/>
</svg>
