<svg width="186" height="260" viewBox="0 0 186 260" fill="none" xmlns="http://www.w3.org/2000/svg">
<path d="M21.115 259.66C10.1814 259.674 1.25977 250.938 1.23654 240.186L0.669601 20.3845C0.646368 9.57175 9.54943 0.784905 20.5249 0.798845L165.784 1.06836C176.704 1.09624 185.602 9.89703 185.602 20.6912V240.019C185.602 250.743 176.741 259.474 165.854 259.493L21.115 259.66Z" fill="#C9C9C9"/>
<path d="M22.9271 259.111C12.1236 259.111 3.34143 250.356 3.34143 239.604V20.3185C3.34143 9.56607 12.1236 0.816406 22.9271 0.816406H166.058C176.853 0.816406 185.635 9.56607 185.635 20.3185V239.599C185.635 250.352 176.853 259.106 166.058 259.106L22.9271 259.111Z" fill="white"/>
<path d="M26.3239 17.4687C25.9661 18.1145 25.6408 18.7372 25.3295 19.3366C24.6557 20.7027 24.0934 21.8598 23.6613 22.8263C23.1687 23.9322 22.6809 24.987 22.2673 25.9953C21.6679 27.4497 21.3612 28.1839 21.3612 28.2071C21.0359 28.9041 20.5667 29.773 19.9534 30.8371C19.2052 32.101 18.6337 33.0164 18.1876 33.5833C17.4534 34.5266 16.7053 35.363 15.9432 36.0832C15.1022 36.8731 14.1543 37.5748 13.1227 38.2067C13.0438 38.1696 12.974 38.1138 12.8997 38.0673C12.8346 38.0116 12.8021 37.9233 12.8021 37.8071C12.8021 37.6584 13.2481 37.0311 14.1077 35.9345C14.6653 35.2607 15.0557 34.7124 15.302 34.2942C15.6459 33.7459 15.9758 33.1233 16.2824 32.4216C16.5845 31.7293 16.9051 30.9998 17.2396 30.2423C18.0807 28.5091 18.8055 26.9014 19.3771 25.433C19.7441 24.5269 20.1067 23.5047 20.4552 22.3802C20.4552 21.9945 19.1494 21.8086 16.5008 21.8086C16.1337 21.8086 15.7387 21.8737 15.3298 21.9945C14.907 22.1153 14.5213 22.3291 14.1728 22.6311H13.3969V22.0363C14.6375 20.2938 15.7992 19.081 16.9423 18.3794C17.8298 17.8311 18.787 17.5616 19.8093 17.5616C20.1113 17.5616 20.576 17.5895 21.2312 17.6638C21.8677 17.7475 22.3557 17.78 22.6995 17.78C23.1874 17.7614 23.5778 17.7475 23.8612 17.7289C24.7301 17.6313 25.3714 17.4175 25.7617 17.1016H26.2356L26.3239 17.4687Z" fill="#333333"/>
<path d="M163.874 244.88C164.232 244.234 164.557 243.616 164.873 243.003C165.556 241.65 166.109 240.493 166.537 239.527C167.057 238.416 167.517 237.357 167.936 236.358C168.53 234.899 168.842 234.16 168.842 234.141C169.181 233.444 169.659 232.566 170.264 231.511C170.998 230.248 171.583 229.332 172.011 228.761C172.745 227.822 173.498 226.99 174.255 226.27C175.115 225.48 176.044 224.769 177.08 224.146C177.173 224.188 177.224 224.23 177.294 224.286C177.368 224.342 177.401 224.435 177.401 224.546C177.401 224.695 176.959 225.313 176.104 226.409C175.556 227.097 175.147 227.641 174.901 228.05C174.576 228.598 174.236 229.225 173.92 229.922C173.623 230.619 173.298 231.344 172.982 232.097C172.122 233.835 171.416 235.443 170.826 236.906C170.468 237.826 170.101 238.835 169.748 239.968C169.748 240.345 171.072 240.531 173.721 240.531C174.074 240.531 174.464 240.475 174.882 240.354C175.3 240.233 175.682 240.019 176.049 239.708H176.811V240.303C175.584 242.05 174.39 243.268 173.261 243.96C172.382 244.508 171.421 244.787 170.398 244.787C170.096 244.787 169.627 244.75 168.99 244.675C168.335 244.601 167.838 244.559 167.503 244.559C167.006 244.583 166.639 244.601 166.346 244.615C165.468 244.713 164.836 244.917 164.441 245.242H163.967L163.874 244.88Z" fill="#333333"/>
<path opacity="0.2" d="M149.019 44.4154C149.028 39.7594 128.741 19.8252 128.741 19.8252C128.741 19.8252 128.732 19.8484 128.704 19.867V67.7277L138.165 67.7462L130.623 54.7681C132.43 55.8694 134.563 56.5153 136.849 56.5292C143.555 56.5432 149.019 51.1158 149.019 44.4154Z" fill="#616161"/>
<path opacity="0.2" d="M149.019 132.794C149.029 128.138 128.741 108.208 128.741 108.208C128.741 108.208 128.732 108.222 128.704 108.245V156.111L138.165 156.124L130.623 143.146C132.431 144.243 134.563 144.893 136.85 144.903C143.555 144.921 149.019 139.499 149.019 132.794Z" fill="#616161"/>
<path opacity="0.2" d="M40.0547 44.4154C40.0454 39.7594 60.3328 19.8252 60.3328 19.8252C60.3328 19.8252 60.3421 19.8484 60.37 19.867V67.7277L50.9001 67.7462L58.4509 54.7681C56.6434 55.8694 54.5104 56.5153 52.2057 56.5292C45.5377 56.5432 40.0547 51.1158 40.0547 44.4154Z" fill="#616161"/>
<path opacity="0.2" d="M73.2506 89.3812C73.2367 84.7252 93.5147 64.791 93.5147 64.791C93.5147 64.791 93.5379 64.8142 93.5472 64.8328V112.703L84.0912 112.717L91.6375 99.7386C89.8392 100.84 87.6924 101.49 85.4063 101.504C78.7151 101.509 73.2506 96.0817 73.2506 89.3812Z" fill="#616161"/>
<path opacity="0.2" d="M40.0547 128.487C40.0454 123.831 60.3328 103.896 60.3328 103.896C60.3328 103.896 60.3421 103.91 60.37 103.929V151.794L50.9001 151.818L58.4509 138.839C56.6434 139.931 54.5104 140.573 52.2057 140.591C45.5377 140.61 40.0547 135.192 40.0547 128.487Z" fill="#616161"/>
<path opacity="0.2" d="M148.917 216.489C148.945 221.15 128.657 241.079 128.657 241.079C128.657 241.079 128.63 241.061 128.616 241.051V193.177L138.072 193.158L130.525 206.127C132.333 205.035 134.47 204.385 136.766 204.371C143.452 204.366 148.917 209.779 148.917 216.489Z" fill="#616161"/>
<path opacity="0.2" d="M39.9758 216.489C39.9573 221.15 60.2399 241.079 60.2399 241.079C60.2399 241.079 60.2632 241.061 60.2725 241.051V193.177L50.8166 193.158L58.3627 206.127C56.5644 205.035 54.4131 204.385 52.1362 204.371C45.4357 204.366 39.9758 209.779 39.9758 216.489Z" fill="#616161"/>
<path opacity="0.2" d="M24.5442 53.2584C24.5442 52.0131 19.1448 46.6973 19.1448 46.6973C19.1448 46.6973 19.1448 46.7066 19.1262 46.7066V59.471L21.654 59.4802L19.642 56.0185C20.1252 56.3112 20.6875 56.4832 21.2963 56.4924C23.0899 56.4924 24.5442 55.0473 24.5442 53.2584Z" fill="#616161"/>
<path opacity="0.2" d="M166.709 211.759C166.709 213.009 172.122 218.33 172.122 218.33L172.132 218.311V205.547H169.609L171.63 209.004C171.142 208.711 170.561 208.535 169.966 208.535C168.182 208.525 166.709 209.97 166.709 211.759Z" fill="#616161"/>
<path d="M24.5954 50.7619C24.4141 54.0099 17.9227 58.9215 17.9227 58.9215C17.9227 58.9215 11.2548 53.9681 11.2548 50.7201C11.2548 48.4943 13.0809 46.6914 15.2973 46.6914C16.5566 46.6914 17.9413 47.8159 17.9413 47.8159C17.9413 47.8159 19.2656 46.6914 20.5667 46.71C22.7971 46.7379 24.7115 48.5361 24.5954 50.7619Z" fill="#D66142"/>
<path opacity="0.2" d="M20.5666 46.7141C19.2702 46.6955 17.9412 47.82 17.9412 47.82C17.9412 47.82 17.9273 47.806 17.8994 47.7921V58.9116L17.918 58.9255C17.918 58.9255 24.4094 54.0093 24.5906 50.766C24.7114 48.5356 22.797 46.7373 20.5666 46.7141Z" fill="#616161"/>
<path d="M164.112 214.17C164.293 210.871 170.933 205.853 170.933 205.853C170.933 205.853 177.749 210.903 177.749 214.221C177.749 216.493 175.877 218.329 173.595 218.329C172.322 218.329 170.9 217.176 170.9 217.176C170.9 217.176 169.553 218.329 168.238 218.306C165.947 218.273 163.995 216.452 164.112 214.17Z" fill="#D66142"/>
<path opacity="0.2" d="M168.233 218.305C169.548 218.329 170.896 217.176 170.896 217.176C170.896 217.176 170.905 217.186 170.947 217.209V205.857C170.928 205.848 170.928 205.848 170.928 205.848C170.928 205.848 164.288 210.866 164.107 214.165C163.995 216.451 165.947 218.273 168.233 218.305Z" fill="#616161"/>
<path d="M42.1082 37.9799C42.61 47.1942 61.0713 61.1807 61.0713 61.1807C61.0713 61.1807 80.0621 47.0873 80.0621 37.8684C80.0621 31.521 74.8719 26.4004 68.5338 26.4004C64.9698 26.4004 61.0109 29.6159 61.0109 29.6159C61.0109 29.6159 57.2285 26.4004 53.5762 26.4561C47.2242 26.5351 41.769 31.6325 42.1082 37.9799Z" fill="#D66142"/>
<path opacity="0.2" d="M53.5719 26.4519C57.2242 26.3961 61.0066 29.6116 61.0066 29.6116C61.0066 29.6116 61.0484 29.5745 61.1274 29.5094V61.1393C61.0949 61.1718 61.067 61.1764 61.067 61.1764C61.067 61.1764 42.6012 47.19 42.104 37.9756C41.7694 31.6329 47.2245 26.5355 53.5719 26.4519Z" fill="#616161"/>
<path d="M148.387 37.9799C147.895 47.1942 129.424 61.1807 129.424 61.1807C129.424 61.1807 110.447 47.0873 110.447 37.8684C110.447 31.521 115.628 26.4004 121.962 26.4004C125.526 26.4004 129.494 29.6159 129.494 29.6159C129.494 29.6159 133.262 26.4004 136.919 26.4561C143.267 26.5351 148.722 31.6325 148.387 37.9799Z" fill="#D66142"/>
<path opacity="0.2" d="M136.919 26.4519C133.262 26.3961 129.494 29.6116 129.494 29.6116C129.494 29.6116 129.433 29.5745 129.373 29.5094V61.1393C129.415 61.1718 129.424 61.1764 129.424 61.1764C129.424 61.1764 147.895 47.19 148.387 37.9756C148.722 31.6329 143.267 26.5355 136.919 26.4519Z" fill="#616161"/>
<path d="M75.5275 82.9396C76.0246 92.154 94.4766 106.14 94.4766 106.14C94.4766 106.14 113.468 92.0471 113.468 82.8235C113.468 76.4761 108.291 71.3555 101.948 71.3555C98.3937 71.3555 94.4254 74.5756 94.4254 74.5756C94.4254 74.5756 90.6477 71.3555 86.9815 71.4159C80.6341 71.4995 75.1975 76.5969 75.5275 82.9396Z" fill="#D66142"/>
<path opacity="0.2" d="M86.9815 71.4198C90.6477 71.3594 94.4254 74.5795 94.4254 74.5795C94.4254 74.5795 94.4765 74.5377 94.5462 74.4727V106.107C94.4951 106.14 94.4766 106.144 94.4766 106.144C94.4766 106.144 76.0246 92.1579 75.5275 82.9435C75.1975 76.5962 80.6341 71.4988 86.9815 71.4198Z" fill="#616161"/>
<path d="M42.1085 220.29C42.6104 211.085 61.0717 197.094 61.0717 197.094C61.0717 197.094 80.0625 211.187 80.0625 220.415C80.0625 226.758 74.8722 231.879 68.5342 231.879C64.9702 231.879 61.0113 228.663 61.0113 228.663C61.0113 228.663 57.2289 231.879 53.5766 231.823C47.2246 231.739 41.7693 226.642 42.1085 220.29Z" fill="#D66142"/>
<path opacity="0.2" d="M53.572 231.819C57.2243 231.875 61.0067 228.659 61.0067 228.659C61.0067 228.659 61.0485 228.701 61.1275 228.761V197.132C61.095 197.099 61.0671 197.09 61.0671 197.09C61.0671 197.09 42.6013 211.081 42.1041 220.286C41.7695 226.643 47.2247 231.74 53.572 231.819Z" fill="#616161"/>
<path d="M148.387 220.29C147.895 211.085 129.424 197.094 129.424 197.094C129.424 197.094 110.447 211.187 110.447 220.415C110.447 226.758 115.628 231.879 121.962 231.879C125.526 231.879 129.494 228.663 129.494 228.663C129.494 228.663 133.262 231.879 136.919 231.823C143.267 231.739 148.722 226.642 148.387 220.29Z" fill="#D66142"/>
<path opacity="0.2" d="M136.919 231.819C133.262 231.875 129.494 228.659 129.494 228.659C129.494 228.659 129.433 228.701 129.373 228.761V197.132C129.415 197.099 129.424 197.09 129.424 197.09C129.424 197.09 147.895 211.081 148.387 220.286C148.722 226.643 143.267 231.74 136.919 231.819Z" fill="#616161"/>
<path d="M42.1085 134.945C42.6104 125.744 61.0717 111.739 61.0717 111.739C61.0717 111.739 80.0625 125.847 80.0625 135.066C80.0625 141.399 74.8722 146.524 68.5342 146.524C64.9702 146.524 61.0113 143.313 61.0113 143.313C61.0113 143.313 57.2289 146.524 53.5766 146.473C47.2246 146.394 41.7693 141.292 42.1085 134.945Z" fill="#D66142"/>
<path opacity="0.2" d="M53.572 146.473C57.2243 146.524 61.0067 143.313 61.0067 143.313C61.0067 143.313 61.0485 143.355 61.1275 143.411V111.781C61.095 111.763 61.0671 111.739 61.0671 111.739C61.0671 111.739 42.6013 125.74 42.1041 134.945C41.7695 141.292 47.2247 146.394 53.572 146.473Z" fill="#616161"/>
<path d="M148.387 134.945C147.895 125.744 129.424 111.739 129.424 111.739C129.424 111.739 110.447 125.847 110.447 135.066C110.447 141.399 115.628 146.524 121.962 146.524C125.526 146.524 129.494 143.313 129.494 143.313C129.494 143.313 133.262 146.524 136.919 146.473C143.267 146.394 148.722 141.292 148.387 134.945Z" fill="#D66142"/>
<path opacity="0.2" d="M136.919 146.473C133.262 146.524 129.494 143.313 129.494 143.313C129.494 143.313 129.433 143.355 129.373 143.411V111.781C129.415 111.763 129.424 111.739 129.424 111.739C129.424 111.739 147.895 125.74 148.387 134.945C148.722 141.292 143.267 146.394 136.919 146.473Z" fill="#616161"/>
</svg>
