<svg width="183" height="256" viewBox="0 0 183 256" fill="none" xmlns="http://www.w3.org/2000/svg">
<path d="M20.9316 255.362C10.156 255.38 1.36915 246.784 1.35056 236.194L0.797606 19.771C0.765079 9.1255 9.54263 0.459492 20.3461 0.487372L163.371 0.752264C174.132 0.780144 182.9 9.43684 182.9 20.0545V236.022C182.9 246.584 174.169 255.181 163.445 255.199L20.9316 255.362Z" fill="#C9C9C9"/>
<path d="M22.7112 254.823C12.0843 254.823 3.42757 246.203 3.42757 235.609V19.7013C3.42757 9.10227 12.0843 0.487305 22.7112 0.487305H163.645C174.29 0.487305 182.928 9.10227 182.928 19.7013V235.609C182.928 246.198 174.286 254.823 163.645 254.823H22.7112Z" fill="white"/>
<path d="M127.317 18.8115L146.327 42.7977L127.317 66.8117L108.317 42.7977L127.317 18.8115Z" fill="#D66142"/>
<path opacity="0.2" d="M127.447 18.9742L127.317 18.8115L108.317 42.7977L127.317 66.8117L127.447 66.6351V18.9742Z" fill="#616161"/>
<path d="M92.0767 49.9902L111.082 73.9716L92.0767 97.9763L73.0719 73.9716L92.0767 49.9902Z" fill="#D66142"/>
<path opacity="0.2" d="M92.1975 50.1482L92.0767 49.9902L73.0719 73.9716L92.0767 97.9763L92.1975 97.8184V50.1482Z" fill="#616161"/>
<path d="M94.2838 159.56L75.2697 183.569L94.2838 207.564L113.289 183.569L94.2838 159.56Z" fill="#D66142"/>
<path opacity="0.2" d="M94.1631 159.727L94.2839 159.56L113.289 183.569L94.2839 207.564L94.1631 207.406V159.727Z" fill="#616161"/>
<path d="M127.317 75.375L146.327 99.3612L127.317 123.375L108.317 99.3612L127.317 75.375Z" fill="#D66142"/>
<path opacity="0.2" d="M127.447 75.533L127.317 75.375L108.317 99.3612L127.317 123.375L127.447 123.212V75.533Z" fill="#616161"/>
<path d="M59.0389 131.942L40.0294 155.928L59.0389 179.942L78.0484 155.928L59.0389 131.942Z" fill="#D66142"/>
<path opacity="0.2" d="M58.9088 132.105L59.0389 131.942L78.0484 155.928L59.0389 179.942L58.9088 179.789V132.105Z" fill="#616161"/>
<path d="M59.0389 188.512L40.0294 212.498L59.0389 236.502L78.0484 212.498L59.0389 188.512Z" fill="#D66142"/>
<path opacity="0.2" d="M58.9088 188.665L59.0389 188.512L78.0484 212.498L59.0389 236.502L58.9088 236.349V188.665Z" fill="#616161"/>
<path d="M59.0436 18.8115L78.0484 42.7977L59.0436 66.8117L40.0294 42.7977L59.0436 18.8115Z" fill="#D66142"/>
<path opacity="0.2" d="M59.1644 18.9742L59.0436 18.8115L40.0294 42.7977L59.0436 66.8117L59.1644 66.6351V18.9742Z" fill="#616161"/>
<path d="M59.0436 75.375L78.0485 99.3612L59.0436 123.375L40.0294 99.3612L59.0436 75.375Z" fill="#D66142"/>
<path opacity="0.2" d="M59.1644 75.533L59.0436 75.375L40.0294 99.3612L59.0436 123.375L59.1644 123.212V75.533Z" fill="#616161"/>
<path d="M127.317 131.942L108.317 155.928L127.317 179.942L146.327 155.928L127.317 131.942Z" fill="#D66142"/>
<path opacity="0.2" d="M127.196 132.105L127.317 131.942L146.326 155.928L127.317 179.942L127.196 179.789V132.105Z" fill="#616161"/>
<path d="M127.317 188.512L108.317 212.498L127.317 236.502L146.327 212.498L127.317 188.512Z" fill="#D66142"/>
<path opacity="0.2" d="M127.196 188.665L127.317 188.512L146.326 212.498L127.317 236.502L127.196 236.349V188.665Z" fill="#616161"/>
<path d="M18.5572 58.3314L13.0276 51.3475L18.5572 44.3682L24.096 51.3475L18.5572 58.3314Z" fill="#D66142"/>
<path opacity="0.2" d="M18.5572 44.3682L18.5153 44.41V58.2804L18.5572 58.3314L24.096 51.3475L18.5572 44.3682Z" fill="#616161"/>
<path d="M16.7682 34.3799C16.7682 34.7052 16.1874 35.2441 15.0257 35.9969C13.7479 36.8333 12.6373 37.2516 11.7126 37.2516C11.2015 37.2516 10.8065 37.0238 10.5045 36.5545C10.2815 36.2106 10.1746 35.89 10.1746 35.6112V21.0904C10.1746 20.793 10.1328 20.6025 10.0491 20.4909C9.96084 20.3934 9.82609 20.347 9.64487 20.347C9.54729 20.347 9.32889 20.3748 8.98504 20.4538C8.64118 20.5281 8.38562 20.5468 8.21369 20.5003C8.14864 20.4074 8.10217 20.3283 8.10217 20.254C8.10217 20.0542 8.32986 19.7986 8.77129 19.4919C9.21737 19.1992 9.68204 18.8275 10.1746 18.4139C10.5649 18.0794 10.9645 17.7356 11.3734 17.3778C11.7963 17.0804 12.1494 16.9316 12.4375 16.9316C12.8929 16.9316 13.3483 17.1873 13.7897 17.6845C14.2265 18.1817 14.4495 18.6649 14.4495 19.1017V34.496C14.5239 34.589 14.5703 34.6402 14.6122 34.668C14.7423 34.7656 14.8445 34.8306 14.9281 34.8306C15.0675 34.7655 15.1883 34.7331 15.2859 34.6866C15.5322 34.5705 15.8342 34.3892 16.206 34.1058H16.6799L16.7682 34.3799Z" fill="#333333"/>
<path d="M34.5184 27.3374C34.5184 28.434 34.2954 29.4981 33.8446 30.5157C33.1198 32.156 31.8698 33.6104 30.1041 34.8464C29.1004 35.562 28.3662 36.036 27.9201 36.273C26.8049 36.891 25.5225 37.1975 24.0727 37.1975C21.9306 37.1975 20.1695 36.2637 18.7941 34.4096C17.507 32.6764 16.8657 30.6319 16.8657 28.2946C16.8657 26.7612 17.256 25.2278 18.0413 23.6851C18.5432 22.7046 19.1937 21.752 19.9929 20.8366C20.9966 19.7214 22.0282 18.8293 23.0923 18.1694C24.4491 17.3098 25.7687 16.873 27.0605 16.873C29.342 16.873 31.196 17.9976 32.6086 20.2233C33.8818 22.24 34.5184 24.6052 34.5184 27.3374ZM30.276 30.3902C30.276 29.0287 30.0855 27.7044 29.7138 26.408C29.3467 25.1209 28.7937 23.9221 28.0642 22.8301C27.2882 21.6034 26.5308 20.7623 25.8059 20.2511C25.3041 19.898 24.8301 19.7168 24.384 19.7168C23.3432 19.7168 22.4882 20.214 21.8284 21.213C21.1685 22.212 20.8386 23.3366 20.8386 24.6051C20.8386 25.3857 20.913 26.1199 21.0663 26.8123C21.2894 27.8764 21.7075 29.0612 22.3209 30.3902C23.0272 31.9422 23.8171 33.0946 24.6954 33.8195C25.4156 34.4189 26.1451 34.707 26.8653 34.707C27.948 34.707 28.7844 34.3167 29.3792 33.5453C29.9693 32.774 30.276 31.7238 30.276 30.3902Z" fill="#333333"/>
<path d="M170.801 223.333C170.801 222.999 171.377 222.455 172.529 221.716C173.816 220.861 174.918 220.457 175.847 220.457C176.349 220.457 176.753 220.685 177.05 221.145C177.278 221.498 177.39 221.818 177.39 222.097V236.618C177.39 236.911 177.431 237.106 177.515 237.218C177.599 237.315 177.729 237.371 177.919 237.371C178.008 237.371 178.235 237.324 178.579 237.255C178.923 237.18 179.169 237.157 179.341 237.199C179.425 237.301 179.453 237.38 179.453 237.454C179.453 237.645 179.234 237.91 178.779 238.217C178.333 238.509 177.873 238.872 177.39 239.285C176.995 239.629 176.6 239.973 176.181 240.331C175.763 240.633 175.41 240.777 175.127 240.777C174.662 240.777 174.211 240.531 173.779 240.024C173.338 239.527 173.119 239.044 173.119 238.598V223.212C173.04 223.115 172.994 223.068 172.947 223.041C172.822 222.943 172.715 222.878 172.65 222.878C172.497 222.943 172.371 222.985 172.283 223.022C172.037 223.129 171.73 223.329 171.363 223.603H170.884L170.801 223.333Z" fill="#333333"/>
<path d="M153.041 230.366C153.041 229.26 153.259 228.206 153.705 227.183C154.44 225.548 155.69 224.098 157.451 222.853C158.454 222.137 159.184 221.672 159.63 221.426C160.745 220.817 162.023 220.511 163.477 220.511C165.62 220.511 167.376 221.445 168.751 223.308C170.038 225.032 170.684 227.076 170.684 229.414C170.684 230.938 170.294 232.481 169.509 234.023C169.007 235.004 168.356 235.956 167.553 236.862C166.549 237.977 165.517 238.87 164.462 239.539C163.101 240.412 161.781 240.826 160.494 240.826C158.203 240.826 156.359 239.701 154.946 237.476C153.668 235.468 153.041 233.089 153.041 230.366ZM157.283 227.327C157.283 228.679 157.469 230.004 157.846 231.3C158.217 232.587 158.766 233.795 159.491 234.878C160.271 236.096 161.024 236.946 161.753 237.457C162.255 237.81 162.729 237.982 163.175 237.982C164.216 237.982 165.076 237.48 165.726 236.495C166.391 235.496 166.716 234.372 166.716 233.094C166.716 232.332 166.642 231.588 166.493 230.887C166.275 229.832 165.847 228.656 165.234 227.327C164.532 225.757 163.738 224.614 162.855 223.889C162.135 223.289 161.41 223.001 160.685 223.001C159.607 223.001 158.77 223.382 158.176 224.154C157.581 224.92 157.283 225.975 157.283 227.327Z" fill="#333333"/>
<path d="M168.984 199.365L174.518 206.354L168.984 213.333L163.454 206.354L168.984 199.365Z" fill="#D66142"/>
<path opacity="0.2" d="M169.03 199.402L168.984 199.365L163.454 206.354L168.984 213.333L169.03 213.287V199.402Z" fill="#616161"/>
</svg>
