<svg width="183" height="256" viewBox="0 0 183 256" fill="none" xmlns="http://www.w3.org/2000/svg">
<path d="M20.3142 255.273C9.55248 255.283 0.761002 246.677 0.737769 236.106L0.18948 19.6733C0.14766 9.02317 8.93909 0.366462 19.7287 0.389695L162.758 0.654516C173.529 0.668456 182.278 9.33916 182.278 19.9661V235.925C182.278 246.486 173.552 255.083 162.818 255.101L20.3142 255.273Z" fill="#C9C9C9"/>
<path d="M22.0985 254.738C11.4715 254.738 2.82404 246.109 2.82404 235.524V19.6075C2.82404 9.0131 11.4715 0.393555 22.0985 0.393555H163.046C173.663 0.393555 182.311 9.0131 182.311 19.6075V235.524C182.311 246.105 173.663 254.738 163.046 254.738H22.0985Z" fill="white"/>
<path d="M126.714 18.7178L107.699 42.7085L126.714 66.7132L145.723 42.7085L126.714 18.7178Z" fill="#D66142"/>
<path opacity="0.2" d="M126.588 18.8757L126.714 18.7178L145.723 42.7085L126.714 66.7132L126.588 66.5598V18.8757Z" fill="#616161"/>
<path d="M58.4354 188.411L77.4356 212.411L58.4354 236.416L39.4259 212.411L58.4354 188.411Z" fill="#D66142"/>
<path opacity="0.2" d="M58.5608 188.578L58.4354 188.411L39.4259 212.411L58.4354 236.416L58.5608 236.258V188.578Z" fill="#616161"/>
<path d="M58.4354 18.7178L77.4356 42.7085L58.4354 66.7132L39.4259 42.7085L58.4354 18.7178Z" fill="#D66142"/>
<path opacity="0.2" d="M58.5608 18.8757L58.4354 18.7178L39.4259 42.7085L58.4354 66.7132L58.5608 66.5598V18.8757Z" fill="#616161"/>
<path d="M92.5697 103.568L73.5649 127.564L92.5697 151.568L111.57 127.564L92.5697 103.568Z" fill="#D66142"/>
<path opacity="0.2" d="M92.4489 103.722L92.5697 103.568L111.57 127.564L92.5697 151.568L92.4489 151.406V103.722Z" fill="#616161"/>
<path d="M126.714 188.411L107.699 212.411L126.714 236.416L145.723 212.411L126.714 188.411Z" fill="#D66142"/>
<path opacity="0.2" d="M126.588 188.578L126.714 188.411L145.723 212.411L126.714 236.416L126.588 236.258V188.578Z" fill="#616161"/>
<path d="M17.9584 58.2418L12.4195 51.2578L17.9584 44.2646L23.4786 51.2578L17.9584 58.2418Z" fill="#D66142"/>
<path opacity="0.2" d="M17.9584 44.2646L17.9072 44.3204V58.1953L17.9584 58.2418L23.4786 51.2578L17.9584 44.2646Z" fill="#616161"/>
<path d="M25.5045 16.6879C25.1235 17.3059 24.6449 17.9332 24.0408 18.5605C23.2834 19.383 22.5632 19.9173 21.9034 20.1543C21.4666 20.303 20.7741 20.4099 19.8029 20.4796C18.8411 20.54 18.3486 20.8885 18.3486 21.5251C18.3486 22.0641 18.6507 22.4033 19.2362 22.5288C20.2817 22.775 21.1692 23.1839 21.9219 23.7601C22.6654 24.3363 23.2043 24.959 23.5482 25.6281C23.892 26.3019 24.064 26.9849 24.064 27.6773C24.064 28.681 23.8317 29.68 23.3438 30.6651C23.1254 31.1298 22.7304 31.7431 22.1775 32.5098C20.7788 34.3127 19.5335 35.5534 18.4276 36.2086C17.3403 36.873 15.8999 37.1983 14.1295 37.1983C13.0793 37.1983 12.2011 37.0496 11.4855 36.7568C10.5283 36.3665 10.059 35.7578 10.059 34.9354C10.059 34.3964 10.4771 33.4856 11.3182 32.2031C12.1778 30.916 12.8284 30.2748 13.293 30.2748C13.609 30.2748 13.7856 30.6558 13.8089 31.4085C13.8321 32.1659 13.9343 32.6957 14.1248 33.0116C14.3711 33.2765 14.5755 33.4717 14.7382 33.5972C15.3004 34.0107 15.872 34.2105 16.4761 34.2105C17.2381 34.2105 17.9072 33.9503 18.488 33.4252C19.2036 32.7747 19.5707 31.8314 19.5707 30.6047C19.5707 29.3919 19.1804 28.351 18.3951 27.4728C17.6098 26.5992 16.6711 26.0974 15.5791 25.9627C15.3608 25.9301 15.1889 25.9069 15.082 25.9069C14.7428 25.8558 14.5523 25.8093 14.5198 25.7721C14.4269 25.656 14.385 25.4608 14.385 25.182C14.4686 24.4571 14.5523 23.7276 14.622 23.0028C14.6963 22.2779 14.7196 21.5762 14.7196 20.9025C14.7196 20.5865 14.6731 20.3913 14.5569 20.3309C14.4361 20.2659 14.2177 20.2333 13.8646 20.2333V19.5596C14.1387 19.2018 14.6777 18.6953 15.4444 18.0215C16.4388 17.1805 17.108 16.7669 17.4937 16.7669H23.4971C23.748 16.7669 24.0686 16.6693 24.4357 16.4695C24.8028 16.2744 25.0398 16.1768 25.1141 16.1768L25.5045 16.372V16.6879Z" fill="#333333"/>
<path d="M160.843 240.818C161.21 240.209 161.703 239.573 162.288 238.95C163.05 238.123 163.766 237.598 164.43 237.361C164.863 237.208 165.555 237.096 166.526 237.036C167.493 236.971 167.985 236.627 167.985 235.981C167.985 235.446 167.688 235.107 167.098 234.982C166.048 234.736 165.16 234.327 164.407 233.746C163.673 233.174 163.13 232.538 162.781 231.878C162.442 231.204 162.27 230.526 162.27 229.838C162.27 228.83 162.516 227.831 162.985 226.841C163.209 226.376 163.599 225.763 164.161 225.001C165.56 223.193 166.8 221.953 167.906 221.297C169.008 220.624 170.439 220.308 172.204 220.308C173.25 220.308 174.128 220.452 174.848 220.754C175.801 221.144 176.289 221.753 176.289 222.571C176.289 223.105 175.852 224.025 175.016 225.303C174.165 226.581 173.506 227.236 173.036 227.236C172.739 227.236 172.548 226.855 172.525 226.093C172.497 225.349 172.395 224.815 172.209 224.494C171.963 224.229 171.763 224.039 171.596 223.904C171.029 223.495 170.457 223.295 169.872 223.295C169.096 223.295 168.431 223.56 167.86 224.076C167.126 224.722 166.768 225.675 166.768 226.906C166.768 228.114 167.158 229.155 167.934 230.028C168.719 230.907 169.658 231.409 170.759 231.543C170.982 231.571 171.145 231.599 171.247 231.599C171.591 231.655 171.777 231.697 171.809 231.734C171.907 231.85 171.949 232.05 171.949 232.315C171.856 233.049 171.777 233.774 171.712 234.503C171.651 235.237 171.614 235.93 171.614 236.608C171.614 236.915 171.679 237.115 171.786 237.17C171.898 237.245 172.125 237.268 172.488 237.268V237.942C172.2 238.295 171.675 238.815 170.894 239.484C169.895 240.321 169.226 240.739 168.854 240.739H162.846C162.577 240.739 162.27 240.837 161.893 241.036C161.526 241.227 161.303 241.329 161.215 241.329L160.843 241.129V240.818Z" fill="#333333"/>
<path d="M168.39 199.257L173.91 206.245L168.39 213.243L162.846 206.245L168.39 199.257Z" fill="#D66142"/>
<path opacity="0.2" d="M168.417 199.303L168.39 199.257L162.846 206.245L168.39 213.243L168.417 213.188V199.303Z" fill="#616161"/>
</svg>
