<svg width="183" height="256" viewBox="0 0 183 256" fill="none" xmlns="http://www.w3.org/2000/svg">
<path d="M20.8623 255.13C10.1053 255.148 1.30917 246.547 1.28129 235.967L0.728318 19.5389C0.705084 8.8887 9.47331 0.231953 20.2815 0.259833L163.306 0.520045C174.063 0.543278 182.827 9.20467 182.957 19.8362V235.795C182.827 246.352 174.1 254.948 163.376 254.958L20.8623 255.13Z" fill="#C9C9C9"/>
<path d="M22.7675 254.59C12.1499 254.59 3.50244 245.97 3.50244 235.38V19.473C3.50244 8.88325 12.1545 0.263672 22.7675 0.263672H163.701C174.337 0.263672 182.975 8.88325 182.975 19.473V235.38C182.975 245.97 174.337 254.59 163.701 254.59H22.7675Z" fill="white"/>
<path d="M153.116 220.247H159.063V230.019H162.693C162.892 229.777 163.125 229.145 163.385 228.123C163.989 225.628 164.737 223.611 165.611 222.068C165.973 221.413 166.396 220.897 166.87 220.502C167.469 220.019 168.083 219.782 168.747 219.782C169.189 219.782 169.672 219.94 170.188 220.252C170.847 220.646 171.173 221.107 171.173 221.65C171.173 221.91 171.075 222.133 170.88 222.305C170.685 222.482 170.466 222.57 170.248 222.57C169.709 222.57 169.421 222.268 169.384 221.678C169.347 221.083 169.1 220.786 168.682 220.786C167.678 220.786 166.995 221.292 166.619 222.315C166.373 222.993 166.257 223.964 166.257 225.247C166.257 226.013 166.294 226.882 166.373 227.872C166.466 228.853 166.554 229.898 166.647 230.995C166.647 232.259 166.391 233.425 165.899 234.484C165.485 235.358 164.835 236.259 163.97 237.189C163.45 237.751 162.618 238.532 161.484 239.507L161.675 239.814H166.926C167.26 239.814 167.576 239.777 167.836 239.707C168.385 239.54 168.905 239.368 169.43 239.201V239.517C169.216 239.884 169.045 240.153 168.938 240.32C168.58 240.878 168.371 241.162 168.287 241.162C168.231 241.162 168.092 241.101 167.874 240.985C167.655 240.878 167.441 240.818 167.232 240.818H153.111L153.116 220.247ZM159.249 231.548V239.419C159.784 239.275 160.327 238.703 160.876 237.714C161.075 237.365 161.308 236.849 161.568 236.18C161.745 235.697 161.917 235.139 162.07 234.503C162.386 233.165 162.553 232.482 162.562 232.44V231.548H159.249Z" fill="#333333"/>
<path d="M36.4472 36.9879H30.4995V27.216H26.8658C26.666 27.4576 26.4337 28.0942 26.1689 29.1118C25.5508 31.6117 24.8166 33.633 23.9291 35.171C23.5853 35.8216 23.1625 36.342 22.6746 36.7323C22.0705 37.2202 21.4571 37.4619 20.7926 37.4619C20.3605 37.4619 19.8772 37.3039 19.3614 36.9879C18.6923 36.5976 18.3717 36.1283 18.3717 35.5892C18.3717 35.329 18.4786 35.1106 18.6737 34.9387C18.8689 34.7575 19.0687 34.6692 19.301 34.6692C19.8447 34.6692 20.1328 34.9666 20.17 35.566C20.2072 36.1608 20.4348 36.4582 20.8577 36.4582C21.8707 36.4582 22.5584 35.9471 22.9301 34.9248C23.1717 34.2557 23.2926 33.2799 23.2926 31.9974C23.2926 31.2307 23.2461 30.3571 23.1578 29.372C23.0695 28.3869 22.9905 27.3414 22.8929 26.2495C22.8929 24.9856 23.1439 23.8192 23.655 22.7598C24.0639 21.8816 24.7051 20.9755 25.5741 20.0508C26.1038 19.4886 26.9216 18.7172 28.0739 17.7321L27.8648 17.4254H22.6234C22.2842 17.4254 21.9822 17.4626 21.7034 17.5416C21.1644 17.7135 20.6346 17.8808 20.1142 18.0388V17.7321C20.3465 17.3604 20.5092 17.0862 20.6207 16.9189C20.9739 16.3567 21.1737 16.0732 21.262 16.0732C21.3131 16.0732 21.4571 16.1337 21.6709 16.2498C21.8986 16.366 22.1169 16.4217 22.326 16.4217H36.4519V36.9879H36.4472ZM30.2951 25.6826V17.8111C29.7654 17.9644 29.2217 18.5267 28.692 19.5164C28.4736 19.8742 28.2459 20.3854 27.9949 21.0545C27.7998 21.5377 27.6325 22.1 27.4885 22.7273C27.1725 24.0748 27.0005 24.7579 26.982 24.7904V25.6826H30.2951Z" fill="#333333"/>
<path d="M112.662 107.418C113.006 105.777 113.229 104.128 113.21 102.381C113.247 89.9602 103.118 79.8909 90.7064 79.9141C78.2719 79.9327 68.2072 89.9555 68.2072 102.385C68.2072 105.067 68.6812 107.622 69.5594 109.983C58.5933 110.842 49.983 119.996 49.9551 131.171C49.983 142.914 59.4993 152.416 71.2368 152.43C74.364 152.453 85.4835 148.982 87.8626 147.579L73.444 172.276L108.564 172.248L94.1449 147.565C97.0166 149.317 109.298 152.407 112.276 152.416C124.739 152.416 134.817 142.319 134.789 129.88C134.803 117.608 124.911 107.618 112.662 107.418Z" fill="#333333"/>
<path opacity="0.2" d="M112.662 107.418C113.006 105.777 113.229 104.128 113.21 102.381C113.247 89.9602 103.118 79.8909 90.7064 79.9141C90.6831 79.9141 90.6459 79.9234 90.6134 79.9234V172.271L108.564 172.253L94.1449 147.57C97.0166 149.321 109.298 152.411 112.276 152.421C124.739 152.421 134.817 142.323 134.789 129.884C134.803 117.608 124.911 107.618 112.662 107.418Z" fill="#616161"/>
<path d="M31.4057 48.6767C31.4428 48.4955 31.4661 48.3189 31.4661 48.1331C31.4661 46.7995 30.3787 45.7122 29.0451 45.7168C27.7069 45.7168 26.6289 46.7948 26.6196 48.1331C26.6196 48.4258 26.68 48.6953 26.7636 48.9555C25.5926 49.0485 24.6633 50.0289 24.6633 51.2324C24.6633 52.4916 25.6903 53.5139 26.9588 53.5139C27.298 53.5139 28.4922 53.1468 28.7431 52.9889L27.1865 55.6467H30.9642L29.4029 52.9889C29.7189 53.184 31.0432 53.5139 31.3591 53.5139C32.6974 53.5139 33.7847 52.4266 33.7847 51.093C33.7801 49.764 32.7207 48.6953 31.4057 48.6767Z" fill="#333333"/>
<path opacity="0.2" d="M31.4056 48.6767C31.4428 48.4955 31.4661 48.3189 31.4661 48.1331C31.4661 46.7995 30.3787 45.7122 29.0451 45.7168C29.0311 45.7168 29.0312 45.7168 29.0312 45.7168V55.6467H30.9642L29.4029 52.9889C29.7189 53.184 31.0432 53.5139 31.3591 53.5139C32.6974 53.5139 33.7847 52.4266 33.7847 51.093C33.7801 49.764 32.7206 48.6953 31.4056 48.6767Z" fill="#616161"/>
<path d="M162.669 209.048C162.706 209.229 162.734 209.401 162.734 209.587C162.734 210.925 161.647 212.008 160.313 212.003C158.98 212.003 157.897 210.925 157.897 209.587C157.897 209.299 157.939 209.03 158.037 208.779C156.856 208.681 155.932 207.701 155.932 206.497C155.932 205.238 156.959 204.211 158.218 204.211C158.557 204.211 159.751 204.587 160.002 204.727L158.464 202.078H162.242L160.681 204.731C160.997 204.541 162.316 204.206 162.637 204.206C163.961 204.206 165.053 205.289 165.053 206.627C165.044 207.961 163.984 209.034 162.669 209.048Z" fill="#333333"/>
<path opacity="0.2" d="M162.669 209.048C162.706 209.229 162.734 209.401 162.734 209.587C162.734 210.925 161.647 212.008 160.313 212.003C160.313 212.003 160.313 212.003 160.295 212.003V202.078H162.242L160.681 204.731C160.997 204.541 162.316 204.206 162.637 204.206C163.961 204.206 165.053 205.289 165.053 206.627C165.044 207.961 163.984 209.034 162.669 209.048Z" fill="#616161"/>
</svg>
