<svg width="186" height="259" viewBox="0 0 186 259" fill="none" xmlns="http://www.w3.org/2000/svg">
<path d="M21.2128 258.967C10.2839 258.986 1.35763 250.245 1.3344 239.502L0.77214 19.7009C0.748907 8.88351 9.6519 0.0966771 20.6273 0.115264L165.877 0.380156C176.811 0.408036 185.709 9.20879 185.709 20.003V239.321C185.709 250.05 176.853 258.786 165.947 258.795L21.2128 258.967Z" fill="#C9C9C9"/>
<path d="M23.0297 258.418C12.2402 258.418 3.44873 249.669 3.44873 238.907V19.626C3.44873 8.86901 12.2402 0.124023 23.0297 0.124023H166.175C176.965 0.124023 185.738 8.87366 185.738 19.626V238.907C185.738 249.669 176.965 258.418 166.175 258.418H23.0297Z" fill="white"/>
<path d="M155.371 229.351C155.715 228.477 156.277 227.455 157.053 226.247C158.094 224.648 158.94 223.849 159.577 223.849H168.229C168.336 223.821 168.475 223.793 168.6 223.765C168.74 223.719 168.935 223.64 169.158 223.528H169.669V224.235C169.311 224.541 168.986 224.871 168.698 225.234C167.694 226.53 166.482 228.119 165.046 229.973C163.986 231.325 163.21 232.403 162.718 233.193C161.951 234.448 161.561 235.452 161.561 236.204C161.561 236.678 161.658 237.176 161.858 237.701C162.063 238.244 162.323 238.69 162.666 239.071C162.862 239.253 163.21 239.499 163.745 239.806C164.409 240.187 164.906 240.368 165.25 240.368C165.803 240.368 166.537 239.996 167.471 239.243C168.41 238.5 168.949 238.128 169.097 238.128C169.483 238.128 169.678 238.291 169.678 238.616C169.678 238.932 169.27 239.541 168.452 240.405C167.643 241.279 166.867 241.966 166.156 242.454C165.152 243.128 164.604 243.481 164.483 243.542C163.61 244.029 162.866 244.276 162.258 244.276C161.04 244.276 159.93 243.797 158.898 242.821C157.876 241.859 157.365 240.716 157.365 239.42C157.365 238.165 157.732 237.013 158.457 235.935C158.559 235.754 159.079 235.052 160.009 233.802C161.305 232.013 162.081 230.972 162.327 230.642C163.387 229.244 163.921 228.519 163.921 228.454C163.921 228.189 163.749 228.026 163.433 227.975C163.099 227.919 162.778 227.892 162.481 227.892C162.267 227.892 162.035 227.892 161.751 227.892C161.482 227.892 161.338 227.892 161.31 227.892C159.665 227.892 158.419 228.101 157.625 228.528C157.021 229.016 156.426 229.499 155.813 229.992C155.738 229.992 155.664 229.973 155.576 229.927C155.492 229.89 155.427 229.862 155.376 229.834L155.371 229.351Z" fill="#333333"/>
<path d="M29.6605 59.3542L23.6617 51.7848L29.6605 44.2061L35.6501 51.7848L29.6605 59.3542Z" fill="#D66142"/>
<path opacity="0.2" d="M29.6605 44.2061L29.614 44.2665V59.2799L29.6605 59.3542L35.65 51.7848L29.6605 44.2061Z" fill="#616161"/>
<path d="M37.1836 31.6058C36.8537 32.4794 36.2868 33.5017 35.5201 34.7005C34.4746 36.299 33.6336 37.1074 32.997 37.1074H24.3494C24.2379 37.126 24.1032 37.1632 23.9638 37.2004C23.8198 37.2376 23.6386 37.3073 23.4202 37.4188H22.9044V36.7125C23.2576 36.4197 23.5874 36.0852 23.8708 35.7228C24.8652 34.4171 26.0873 32.8371 27.5185 30.9831C28.5872 29.6309 29.3586 28.5529 29.8465 27.7537C30.6225 26.513 31.0174 25.514 31.0174 24.7519C31.0174 24.2687 30.9198 23.7808 30.7247 23.2557C30.5109 22.7214 30.2414 22.266 29.9161 21.8943C29.7163 21.7038 29.3585 21.4575 28.8381 21.1601C28.1736 20.7698 27.6719 20.5885 27.328 20.5885C26.7797 20.5885 26.0455 20.9602 25.0976 21.7037C24.1636 22.4564 23.6292 22.8282 23.4712 22.8282C23.1041 22.8282 22.909 22.6749 22.909 22.3404C22.909 22.0151 23.3086 21.4249 24.1357 20.542C24.9442 19.6777 25.7063 18.9994 26.4219 18.4929C27.4302 17.8285 27.9832 17.4846 28.104 17.4149C28.9636 16.9177 29.7071 16.6807 30.3298 16.6807C31.5425 16.6807 32.6577 17.1639 33.6754 18.1258C34.7023 19.0877 35.2087 20.2308 35.2087 21.5365C35.2087 22.7864 34.8509 23.948 34.1307 25.0307C34.0192 25.2026 33.5034 25.909 32.5741 27.1636C31.273 28.934 30.4924 29.9842 30.2461 30.3141C29.1867 31.7127 28.6662 32.4375 28.6662 32.5026C28.6662 32.7674 28.8195 32.9301 29.154 32.9858C29.4793 33.0509 29.8 33.0789 30.1114 33.0789C30.3158 33.0789 30.5528 33.0789 30.8269 33.0789C31.1011 33.0789 31.2451 33.0789 31.2684 33.0789C32.9272 33.0789 34.1632 32.8511 34.9438 32.4329C35.5572 31.9497 36.166 31.4618 36.7793 30.9739C36.8537 30.9739 36.9233 31.0018 37.0069 31.0296C37.0999 31.0668 37.151 31.1039 37.1928 31.1225V31.6058H37.1836Z" fill="#333333"/>
<path d="M162.913 201.618L168.898 209.188L162.913 216.766L156.919 209.188L162.913 201.618Z" fill="#D66142"/>
<path opacity="0.2" d="M162.945 201.665L162.913 201.618L156.919 209.188L162.913 216.766L162.945 216.71V201.665Z" fill="#616161"/>
<path d="M94.5977 65.2275L75.2955 89.5947L94.5977 113.971L113.905 89.5947L94.5977 65.2275Z" fill="#D66142"/>
<path opacity="0.2" d="M94.4769 65.381L94.5977 65.2275L113.905 89.5947L94.5977 113.971L94.4769 113.818V65.381Z" fill="#616161"/>
<path d="M94.5977 149.439L113.905 173.807L94.5977 198.183L75.2955 173.807L94.5977 149.439Z" fill="#D66142"/>
<path opacity="0.2" d="M94.7232 149.602L94.5977 149.439L75.2955 173.807L94.5977 198.183L94.7232 198.02V149.602Z" fill="#616161"/>
</svg>
