<svg width="186" height="260" viewBox="0 0 186 260" fill="none" xmlns="http://www.w3.org/2000/svg">
<path d="M20.8826 259.026C9.94436 259.054 1.02277 250.314 0.994888 239.566L0.437311 19.7556C0.400137 8.9289 9.32172 0.151365 20.2832 0.169951L165.533 0.434701C176.476 0.462581 185.365 9.25411 185.365 20.0483V239.385C185.365 250.114 176.504 258.845 165.608 258.854L20.8826 259.026Z" fill="#C9C9C9"/>
<path d="M22.6949 258.483C11.896 258.483 3.11847 249.724 3.11847 238.971V19.6905C3.11847 8.92881 11.896 0.188477 22.6949 0.188477H165.826C176.616 0.188477 185.403 8.92881 185.403 19.6905V238.971C185.403 249.724 176.616 258.483 165.826 258.483H22.6949Z" fill="white"/>
<path d="M26.0963 29.8548C26.0963 30.273 25.8965 30.8537 25.4969 31.5879C24.9486 32.5962 24.154 33.6232 23.1131 34.6733C21.9236 35.8907 21.2823 36.532 21.1894 36.6064C20.432 37.1779 19.5119 37.452 18.4107 37.452C16.9144 37.452 15.6227 36.8897 14.5261 35.728C13.6014 34.7476 13.1367 33.8044 13.1367 32.8983C13.1367 32.2524 13.4527 31.4997 14.0846 30.6587C14.7212 29.813 15.3718 28.9533 16.0316 28.1076C15.5344 27.6615 15.1022 27.1922 14.7259 26.6486C14.3495 26.1142 14.1636 25.5055 14.1636 24.8503C14.1636 24.0232 14.4703 23.1356 15.093 22.2109C15.6971 21.4024 16.2035 20.7054 16.5939 20.1339C17.5789 18.7352 18.3874 17.8384 19.0333 17.4202C19.6792 17.0113 20.3716 16.793 21.129 16.793C22.2674 16.793 23.2479 17.1089 24.0703 17.7548C24.8881 18.4007 25.3017 19.2696 25.3017 20.3709C25.3017 21.5604 24.8045 22.6849 23.8287 23.7397C22.8482 24.8038 22.3604 25.5287 22.3604 25.9283C23.3362 26.5835 24.1912 27.1968 24.9067 27.8055C25.6967 28.4654 26.0963 29.1531 26.0963 29.8548ZM22.4068 32.3593C22.4068 31.7413 21.6913 31.0071 20.2508 30.1428C18.9637 29.3621 18.1458 28.9719 17.7834 28.9719C17.6579 28.9719 17.4674 29.1902 17.2304 29.5991C16.9981 30.0266 16.8819 30.3799 16.8819 30.6772C16.8819 31.4486 17.3559 32.192 18.2898 32.8937C19.1681 33.5302 19.9813 33.8462 20.7619 33.8462C21.143 33.8462 21.5146 33.7022 21.8678 33.3722C22.2302 33.0563 22.4068 32.7125 22.4068 32.3593ZM21.3613 23.3401C21.3613 22.8754 21.1057 22.3782 20.5946 21.867C20.0184 21.2769 19.3632 20.9888 18.629 20.9888C18.2898 20.9888 18.0111 21.0911 17.7834 21.2956C17.5557 21.5 17.4488 21.7509 17.4488 22.0668C17.4488 22.6848 17.9274 23.3633 18.8846 24.0742C19.7117 24.7015 20.2415 25.0175 20.4877 25.0175C20.6597 25.0175 20.8502 24.7991 21.05 24.3902C21.2545 23.9627 21.3613 23.6189 21.3613 23.3401Z" fill="#333333"/>
<path d="M163.642 231.229C163.642 230.811 163.837 230.239 164.232 229.505C164.79 228.497 165.575 227.47 166.621 226.411C167.81 225.202 168.456 224.561 168.544 224.487C169.306 223.906 170.222 223.632 171.328 223.632C172.824 223.632 174.111 224.213 175.212 225.365C176.132 226.345 176.597 227.289 176.597 228.195C176.597 228.841 176.281 229.584 175.654 230.435C175.017 231.28 174.367 232.131 173.707 232.986C174.199 233.422 174.636 233.901 175.013 234.44C175.394 234.993 175.584 235.583 175.584 236.248C175.584 237.084 175.273 237.953 174.655 238.887C174.041 239.695 173.54 240.392 173.145 240.955C172.164 242.353 171.351 243.259 170.71 243.668C170.064 244.086 169.367 244.296 168.61 244.296C167.48 244.296 166.5 243.979 165.673 243.343C164.855 242.688 164.437 241.819 164.437 240.727C164.437 239.528 164.939 238.404 165.914 237.349C166.9 236.289 167.387 235.56 167.387 235.17C166.407 234.514 165.557 233.892 164.841 233.292C164.033 232.614 163.642 231.926 163.642 231.229ZM167.322 228.724C167.322 229.342 168.038 230.077 169.478 230.941C170.766 231.722 171.583 232.112 171.95 232.112C172.076 232.112 172.262 231.903 172.499 231.494C172.731 231.066 172.857 230.713 172.857 230.407C172.857 229.635 172.383 228.901 171.43 228.2C170.566 227.554 169.748 227.238 168.972 227.238C168.586 227.238 168.219 227.391 167.866 227.716C167.508 228.032 167.322 228.376 167.322 228.724ZM168.373 237.744C168.373 238.218 168.628 238.715 169.139 239.221C169.715 239.802 170.371 240.095 171.1 240.095C171.439 240.095 171.727 239.997 171.955 239.788C172.178 239.588 172.285 239.342 172.285 239.026C172.285 238.408 171.816 237.73 170.858 237.01C170.031 236.392 169.502 236.076 169.255 236.076C169.083 236.076 168.893 236.285 168.688 236.703C168.475 237.116 168.373 237.465 168.373 237.744Z" fill="#333333"/>
<path d="M138.838 34.7888C139.015 33.971 139.131 33.1532 139.113 32.2843C139.131 26.1042 134.099 21.1045 127.923 21.1045C121.743 21.1138 116.739 26.1042 116.739 32.2843C116.739 33.6178 116.976 34.9003 117.403 36.0666C111.957 36.4848 107.669 41.0387 107.659 46.5961C107.664 52.4509 112.399 57.1578 118.244 57.1764C119.801 57.1764 125.326 55.4618 126.511 54.7555L119.346 67.046L136.803 67.0275L129.629 54.7555C131.069 55.6337 137.175 57.1625 138.652 57.1625C144.847 57.1625 149.856 52.1441 149.846 45.964C149.856 39.8537 144.93 34.891 138.838 34.7888Z" fill="#333333"/>
<path opacity="0.2" d="M138.838 34.7888C139.015 33.971 139.131 33.1532 139.113 32.2843C139.131 26.1042 134.099 21.1045 127.923 21.1045C127.914 21.1045 127.895 21.1137 127.877 21.1137V67.0367L136.803 67.0275L129.629 54.7555C131.069 55.6337 137.175 57.1625 138.653 57.1625C144.847 57.1625 149.856 52.1441 149.846 45.964C149.856 39.8537 144.93 34.891 138.838 34.7888Z" fill="#616161"/>
<path d="M138.838 91.3099C139.015 90.5014 139.131 89.6743 139.113 88.8053C139.131 82.6346 134.099 77.6255 127.923 77.6348C121.743 77.6441 116.739 82.6346 116.739 88.8053C116.739 90.1482 116.976 91.4214 117.403 92.5924C111.957 93.0199 107.669 97.5736 107.659 103.126C107.664 108.981 112.399 113.688 118.244 113.707C119.801 113.707 125.326 111.992 126.511 111.281L119.346 123.572L136.803 123.553L129.629 111.272C131.069 112.15 137.175 113.679 138.652 113.688C144.847 113.688 149.856 108.67 149.846 102.48C149.856 96.384 144.93 91.4214 138.838 91.3099Z" fill="#333333"/>
<path opacity="0.2" d="M138.838 91.3099C139.015 90.5014 139.131 89.6743 139.113 88.8053C139.131 82.6346 134.099 77.6255 127.923 77.6348C127.914 77.6348 127.895 77.6348 127.877 77.6348V123.567L136.803 123.558L129.629 111.277C131.069 112.155 137.175 113.684 138.653 113.693C144.847 113.693 149.856 108.674 149.846 102.485C149.856 96.384 144.93 91.4214 138.838 91.3099Z" fill="#616161"/>
<path d="M49.6828 34.7888C49.5156 33.971 49.3947 33.1532 49.4133 32.2843C49.3947 26.1042 54.427 21.1045 60.5932 21.1045C66.7732 21.1138 71.7777 26.1042 71.787 32.2843C71.787 33.6178 71.5547 34.9003 71.1179 36.0666C76.5545 36.4848 80.8526 41.0387 80.8619 46.5961C80.8526 52.4509 76.1177 57.1578 70.2768 57.1764C68.7202 57.1764 63.1953 55.4618 62.0197 54.7555L69.1802 67.046L51.7227 67.0275L58.8925 54.7555C57.466 55.6337 51.351 57.1625 49.878 57.1625C43.684 57.1625 38.6748 52.1441 38.6795 45.964C38.6655 39.8537 43.5911 34.891 49.6828 34.7888Z" fill="#333333"/>
<path opacity="0.2" d="M49.6828 34.7888C49.5156 33.971 49.3947 33.1532 49.4133 32.2843C49.3947 26.1042 54.427 21.1045 60.5932 21.1045C60.6118 21.1045 60.6304 21.1137 60.649 21.1137V67.0367L51.7227 67.0275L58.8925 54.7555C57.466 55.6337 51.3509 57.1625 49.878 57.1625C43.684 57.1625 38.6748 52.1441 38.6795 45.964C38.6655 39.8537 43.5911 34.891 49.6828 34.7888Z" fill="#616161"/>
<path d="M49.6828 91.3099C49.5156 90.5014 49.3947 89.6743 49.4133 88.8053C49.3947 82.6346 54.427 77.6255 60.5932 77.6348C66.7732 77.6441 71.7777 82.6346 71.787 88.8053C71.787 90.1482 71.5547 91.4214 71.1179 92.5924C76.5545 93.0199 80.8526 97.5736 80.8619 103.126C80.8526 108.981 76.1177 113.688 70.2768 113.707C68.7202 113.707 63.1953 111.992 62.0197 111.281L69.1802 123.572L51.7227 123.553L58.8925 111.272C57.466 112.15 51.351 113.679 49.878 113.688C43.684 113.688 38.6748 108.67 38.6795 102.48C38.6655 96.384 43.5911 91.4214 49.6828 91.3099Z" fill="#333333"/>
<path opacity="0.2" d="M49.6828 91.3099C49.5156 90.5014 49.3947 89.6743 49.4133 88.8053C49.3947 82.6346 54.427 77.6255 60.5932 77.6348C60.6118 77.6348 60.6304 77.6348 60.649 77.6348V123.567L51.7227 123.558L58.8925 111.277C57.466 112.155 51.3509 113.684 49.878 113.693C43.684 113.693 38.6748 108.674 38.6795 102.485C38.6655 96.384 43.5911 91.4214 49.6828 91.3099Z" fill="#616161"/>
<path d="M138.838 223.864C139.015 224.682 139.131 225.499 139.113 226.368C139.131 232.548 134.099 237.548 127.923 237.548C121.743 237.53 116.739 232.558 116.739 226.368C116.739 225.035 116.976 223.752 117.403 222.586C111.957 222.168 107.669 217.614 107.659 212.057C107.664 206.211 112.399 201.485 118.244 201.485C119.801 201.467 125.326 203.2 126.511 203.902L119.346 191.611L136.803 191.63L129.629 203.902C131.069 203.028 137.175 201.495 138.652 201.495C144.847 201.485 149.856 206.513 149.846 212.693C149.856 218.808 144.93 223.762 138.838 223.864Z" fill="#333333"/>
<path opacity="0.2" d="M138.838 223.863C139.015 224.681 139.131 225.499 139.113 226.368C139.131 232.548 134.099 237.548 127.923 237.548C127.914 237.548 127.895 237.538 127.877 237.538V191.615L136.803 191.625L129.629 203.896C131.069 203.023 137.175 201.489 138.653 201.489C144.847 201.48 149.856 206.508 149.846 212.688C149.856 218.808 144.93 223.761 138.838 223.863Z" fill="#616161"/>
<path d="M138.838 167.333C139.015 168.15 139.131 168.968 139.112 169.837C139.131 176.017 134.099 181.026 127.923 181.017C121.743 181.008 116.739 176.027 116.739 169.837C116.739 168.504 116.976 167.221 117.403 166.055C111.957 165.637 107.668 161.083 107.659 155.525C107.664 149.68 112.399 144.954 118.244 144.954C119.801 144.945 125.326 146.669 126.511 147.37L119.346 135.08L136.803 135.099L129.629 147.38C131.069 146.502 137.175 144.964 138.652 144.964C144.846 144.954 149.856 149.982 149.846 156.162C149.856 162.277 144.93 167.23 138.838 167.333Z" fill="#333333"/>
<path opacity="0.2" d="M138.838 167.333C139.015 168.151 139.131 168.968 139.112 169.837C139.131 176.017 134.099 181.026 127.923 181.017C127.914 181.017 127.895 181.017 127.877 181.017V135.085L136.803 135.094L129.629 147.375C131.069 146.497 137.175 144.959 138.652 144.959C144.846 144.95 149.856 149.978 149.846 156.158C149.856 162.277 144.93 167.231 138.838 167.333Z" fill="#616161"/>
<path d="M49.6828 223.864C49.5156 224.682 49.3947 225.499 49.4133 226.368C49.3947 232.548 54.427 237.548 60.5932 237.548C66.7732 237.53 71.7777 232.558 71.787 226.368C71.787 225.035 71.5547 223.752 71.1179 222.586C76.5545 222.168 80.8526 217.614 80.8619 212.057C80.8526 206.211 76.1177 201.485 70.2768 201.485C68.7202 201.467 63.1953 203.2 62.0197 203.902L69.1802 191.611L51.7227 191.63L58.8925 203.902C57.466 203.028 51.351 201.495 49.878 201.495C43.684 201.485 38.6748 206.513 38.6795 212.693C38.6655 218.808 43.5911 223.762 49.6828 223.864Z" fill="#333333"/>
<path opacity="0.2" d="M49.6828 223.863C49.5156 224.681 49.3947 225.499 49.4133 226.368C49.3947 232.548 54.427 237.548 60.5932 237.548C60.6118 237.548 60.6304 237.538 60.649 237.538V191.615L51.7227 191.625L58.8925 203.896C57.466 203.023 51.3509 201.489 49.878 201.489C43.684 201.48 38.6748 206.508 38.6795 212.688C38.6655 218.808 43.5911 223.761 49.6828 223.863Z" fill="#616161"/>
<path d="M49.6829 167.333C49.5156 168.15 49.3947 168.968 49.4133 169.837C49.3947 176.017 54.4271 181.026 60.5932 181.017C66.7733 181.008 71.7777 176.027 71.787 169.837C71.787 168.504 71.5547 167.221 71.1179 166.055C76.5545 165.637 80.8527 161.083 80.862 155.525C80.8527 149.68 76.1177 144.954 70.2769 144.954C68.7202 144.945 63.1954 146.669 62.0198 147.37L69.1803 135.08L51.7227 135.099L58.8925 147.38C57.466 146.502 51.351 144.964 49.878 144.964C43.684 144.954 38.6749 149.982 38.6795 156.162C38.6656 162.277 43.5911 167.23 49.6829 167.333Z" fill="#333333"/>
<path opacity="0.2" d="M49.6829 167.333C49.5156 168.151 49.3947 168.968 49.4133 169.837C49.3947 176.017 54.4271 181.026 60.5932 181.017C60.6118 181.017 60.6304 181.017 60.649 181.017V135.085L51.7227 135.094L58.8925 147.375C57.466 146.497 51.351 144.959 49.878 144.959C43.684 144.95 38.6749 149.978 38.6795 156.158C38.6656 162.277 43.5911 167.231 49.6829 167.333Z" fill="#616161"/>
<path d="M20.2833 50.4184C20.3298 50.2279 20.3577 50.0466 20.3577 49.8468C20.3577 48.4389 19.21 47.2959 17.7974 47.2959C16.3895 47.2959 15.251 48.4389 15.2417 49.8468C15.2417 50.1489 15.2974 50.437 15.395 50.7111C14.159 50.8087 13.1786 51.8449 13.1786 53.1181C13.1786 54.4424 14.2566 55.5251 15.5948 55.5343C15.9433 55.5343 17.2119 55.1441 17.4768 54.9814L15.8457 57.7881L19.828 57.7787L18.1923 54.9814C18.5176 55.172 19.9116 55.5251 20.2508 55.5251C21.6634 55.5251 22.8064 54.3821 22.8064 52.9648C22.8018 51.5615 21.6773 50.437 20.2833 50.4184Z" fill="#333333"/>
<path opacity="0.2" d="M20.2833 50.4184C20.3298 50.2279 20.3577 50.0466 20.3577 49.8468C20.3577 48.4389 19.21 47.2959 17.7974 47.2959C17.7974 47.2959 17.7927 47.2959 17.7834 47.2959V57.7787L19.8233 57.7695L18.1877 54.9721C18.513 55.1626 19.9069 55.5158 20.2461 55.5158C21.6587 55.5158 22.8018 54.3727 22.8018 52.9555C22.8018 51.5615 21.6773 50.437 20.2833 50.4184Z" fill="#616161"/>
<path d="M172.838 214.494C172.875 214.685 172.908 214.866 172.898 215.066C172.903 216.474 171.751 217.617 170.352 217.617C168.935 217.617 167.806 216.474 167.796 215.066C167.796 214.759 167.852 214.476 167.95 214.201C166.704 214.104 165.724 213.068 165.724 211.804C165.724 210.47 166.811 209.378 168.14 209.378C168.498 209.378 169.753 209.769 170.027 209.931L168.391 207.134H172.373L170.738 209.931C171.063 209.731 172.466 209.387 172.801 209.387C174.209 209.378 175.356 210.531 175.356 211.939C175.356 213.342 174.227 214.476 172.838 214.494Z" fill="#333333"/>
<path opacity="0.2" d="M172.838 214.494C172.875 214.684 172.908 214.865 172.898 215.065C172.903 216.473 171.751 217.616 170.352 217.616C170.352 217.616 170.347 217.616 170.338 217.616V207.143H172.373L170.738 209.94C171.063 209.74 172.466 209.396 172.801 209.396C174.209 209.387 175.356 210.539 175.356 211.947C175.356 213.341 174.227 214.475 172.838 214.494Z" fill="#616161"/>
</svg>
