<svg width="187" height="259" viewBox="0 0 187 259" fill="none" xmlns="http://www.w3.org/2000/svg">
<path d="M20.7629 258.737C9.8711 258.756 0.977433 250.044 0.791566 238.984L0.229309 19.8616C0.350122 9.42057 9.23451 0.670896 20.1728 0.689483L164.981 0.958983C175.873 0.97757 184.744 9.75048 184.744 20.5122V239.152C184.744 249.848 175.91 258.561 165.042 258.57L20.7629 258.737Z" fill="#C9C9C9"/>
<path d="M22.2684 258.492C11.3627 258.511 2.46892 249.798 2.44568 239.088L1.89279 19.9648C1.85561 9.18451 10.74 0.420896 21.6783 0.439483L166.487 0.708983C177.379 0.72757 186.249 9.50048 186.249 20.2622V238.902C186.249 249.598 177.416 258.302 166.547 258.316L22.2684 258.492Z" fill="white"/>
<path d="M165.228 254.094H22.5379C14.1972 254.094 7.40842 247.343 7.40842 239.044V20.4412C7.40842 12.1422 14.1972 5.39062 22.5379 5.39062H165.228C173.569 5.39062 180.357 12.1422 180.357 20.4412V239.039C180.357 247.338 173.569 254.094 165.228 254.094ZM22.5379 11.3616C17.4917 11.3616 13.3887 15.4274 13.3887 20.4412V239.039C13.3887 244.048 17.4917 248.119 22.5379 248.119H165.228C170.274 248.119 174.382 244.048 174.382 239.039V20.4412C174.382 15.4274 170.274 11.3616 165.228 11.3616H22.5379Z" fill="#333333"/>
<path d="M35.5253 36.0276C35.3906 36.2274 34.8423 36.6967 33.8851 37.403C32.6583 38.3277 31.5942 38.9271 30.6649 39.1874L25.7162 30.1217L25.4328 30.3122V38.2534H19.6105V17.5618H25.4328V29.2992C26.4365 29.1645 27.3332 28.4768 28.1417 27.2268C28.8759 26.1023 29.243 25.0336 29.243 24.0346C29.243 23.319 29.1315 22.6963 28.9131 22.1713C28.6436 21.6973 28.3973 21.228 28.1417 20.754C28.1417 20.5449 28.7923 19.9641 30.0655 19.0022C31.1296 18.2123 31.8917 17.6361 32.3563 17.2783C32.7234 17.5804 33.044 18.0915 33.3461 18.8164C33.6388 19.5413 33.8014 20.1871 33.8014 20.754C33.8014 21.2419 33.6899 21.8506 33.4715 22.5616C33.2624 23.2772 32.9836 23.9184 32.6397 24.4853C32.1147 25.3124 31.6361 25.949 31.204 26.3811C30.335 27.2687 29.8657 27.7566 29.8192 27.8495L35.5253 36.0276Z" fill="#333333"/>
<path d="M152.975 225.814C153.109 225.614 153.648 225.145 154.615 224.434C155.842 223.504 156.92 222.914 157.84 222.649L162.788 231.724L163.058 231.529V223.583H168.889V244.275H163.058V232.538C162.063 232.672 161.157 233.36 160.349 234.601C159.615 235.734 159.248 236.799 159.248 237.798C159.248 238.513 159.368 239.136 159.591 239.661C159.847 240.135 160.103 240.604 160.349 241.078C160.349 241.287 159.712 241.868 158.425 242.83C157.37 243.62 156.613 244.196 156.144 244.558C155.79 244.252 155.447 243.736 155.154 243.016C154.847 242.286 154.698 241.65 154.698 241.078C154.698 240.59 154.81 239.981 155.028 239.266C155.237 238.555 155.516 237.909 155.851 237.347C156.39 236.52 156.868 235.883 157.296 235.451C158.165 234.563 158.62 234.076 158.681 233.983L152.975 225.814Z" fill="#333333"/>
<path d="M146.604 83.0292L146.209 81.691C146.209 81.691 121.521 67.6023 113.631 63.1275C112.149 62.2958 111.266 61.7939 111.229 61.7939H76.0769C76.0629 61.7939 76.0165 61.8218 75.9189 61.8822C75.8446 61.9194 75.7609 61.9659 75.6494 62.0263C75.5611 62.0774 75.4542 62.1285 75.3334 62.1936C75.2358 62.254 75.1243 62.3237 75.0035 62.3887C74.8827 62.4631 74.7572 62.5374 74.6132 62.6164C74.3948 62.7325 74.1718 62.8673 73.9162 63.0067C73.4376 63.2855 72.8985 63.5876 72.2991 63.9268C72.2852 63.9268 72.2759 63.9407 72.2759 63.9407C71.8205 64.2056 71.3466 64.4751 70.8401 64.7632C70.6682 64.8468 70.4962 64.9537 70.315 65.0559C69.1487 65.725 67.8384 66.4638 66.4444 67.2538C65.9425 67.5372 65.4406 67.83 64.9248 68.1273C64.423 68.4154 63.8933 68.7082 63.3682 69.0009C62.8525 69.3076 62.3181 69.605 61.7744 69.907C54.8044 73.8753 47.1235 78.2664 43.3876 80.3853C43.1785 80.5061 42.9833 80.6269 42.7882 80.7337C41.9053 81.2402 41.3198 81.5655 41.1711 81.6585V140.253L64.1675 133.343L69.3904 131.777L146.613 108.577V83.0292H146.604Z" fill="#333333"/>
<path d="M93.9341 92.1322L84.3154 75.46H103.567L93.9341 92.1322ZM86.1509 76.5241L93.9294 90.0041L101.722 76.5241H86.1509Z" fill="#FFD675"/>
<path opacity="0.2" d="M81.007 61.793C80.8212 61.8348 46.0269 81.69 46.0269 81.69L41.1618 96.7405V140.252L64.1582 133.342L69.381 131.776L83.1259 86.6526L84.9752 80.6212L87.6564 74.8547L93.6599 62.0392V61.793H81.007Z" fill="#616161"/>
<path d="M76.0815 61.793C76.0676 61.793 76.0211 61.8208 75.9235 61.8812C75.8492 61.9184 75.7656 61.9649 75.654 62.0253C75.5657 62.0764 75.4589 62.1275 75.3381 62.1926C75.2545 62.253 75.129 62.3227 75.0082 62.3877C74.8874 62.4621 74.7619 62.5364 74.6179 62.6154C74.3995 62.7316 74.1764 62.8664 73.9208 63.0058C73.4422 63.2753 72.9032 63.5819 72.3038 63.9258C72.2899 63.9258 72.2806 63.9397 72.2806 63.9397C71.8252 64.1953 71.3512 64.4648 70.8447 64.7622C70.6728 64.8458 70.5009 64.9527 70.3197 65.0549C69.1534 65.7194 67.843 66.4582 66.449 67.2528C65.9471 67.5362 65.4453 67.829 64.9295 68.1264C64.4138 68.4145 63.8979 68.7025 63.3729 68.9999C62.8571 69.2927 62.3228 69.5993 61.7791 69.906C59.5394 71.1931 57.2114 72.5035 54.9671 73.7953C54.3026 74.167 53.6196 74.5527 52.983 74.9244C49.0612 77.1595 45.5576 79.1576 43.3923 80.3889C43.1832 80.5097 42.9879 80.6305 42.7928 80.7374C41.9099 81.2439 41.3245 81.5692 41.1758 81.6621V140.257L45.2695 139.021L47.5742 138.338L63.9212 133.421L64.1768 133.347C64.9481 131.539 65.7427 129.611 66.5791 127.613C72.09 114.361 78.8045 97.5909 83.1398 86.6526C85.8489 79.8546 87.6378 75.3147 87.6378 75.3147L87.675 74.8547L88.8505 61.793H76.0815Z" fill="#EBEBEB"/>
<path opacity="0.2" d="M146.604 99.3955L141.274 81.6917C141.274 81.6917 106.489 61.8458 106.308 61.79H93.6646V62.041L102.34 80.6183L113.636 119.181L146.609 107.234V99.3955H146.604Z" fill="#616161"/>
<path d="M146.604 83.0346L146.2 81.6917C146.2 81.6917 111.415 61.8458 111.234 61.79H98.4785L99.6912 75.3165C99.6912 75.3165 114.7 106.458 120.03 116.565L146.604 108.582V83.0346Z" fill="#EBEBEB"/>
<path d="M113.966 53.1823L113.608 48.4242L113.594 48.2569L112.507 33.6989L107.103 30.962L96.6616 25.6787L93.7714 27.2354L90.8812 25.6787L80.4448 30.962L75.0406 33.6989L73.9487 48.2569L73.9348 48.4242L73.5816 53.1823L77.9169 67.6335L93.7481 80.6534V80.6859L93.7714 80.672L93.7992 80.6859V80.6534L110.769 66.8017L113.966 53.1823Z" fill="#EBBE9F"/>
<path d="M93.7993 61.7896L100.193 61.5619L95.4164 58.5555C95.4164 58.5555 94.645 58.5462 93.7993 58.5322C93.7854 58.5322 93.7853 58.5322 93.776 58.5322C93.7621 58.5322 93.7621 58.5322 93.7529 58.5322C92.9072 58.5415 92.1497 58.5555 92.1497 58.5555L87.359 61.5619L93.7529 61.7896H93.776H93.7993Z" fill="#EBBE9F"/>
<path opacity="0.2" d="M97.67 52.6416L95.0446 43.5342H93.7993H93.7481H92.4982L89.8868 52.6416L92.4982 55.4575L93.7481 55.4993H93.7714H93.7993L95.0446 55.4575L97.67 52.6416Z" fill="#616161"/>
<path d="M96.5407 41.0992L104.765 40.063L104.947 40.0352L105.035 40.0863L108.952 42.1633L104.677 40.9738L104.947 40.997L96.9683 43.2413L96.5407 41.0992Z" fill="#9C9C9C"/>
<path d="M99.4217 44.5322C99.287 44.825 99.2126 45.1502 99.2126 45.4941C99.2126 46.7719 100.258 47.8174 101.531 47.8174C102.818 47.8174 103.859 46.7766 103.859 45.4941C103.859 45.1502 103.785 44.825 103.65 44.5322H99.4217Z" fill="#333333"/>
<path d="M91.0019 41.0992L82.782 40.063L82.6007 40.0352L82.5125 40.0863L78.5907 42.1633L82.8563 40.9738L82.6007 40.997L90.5744 43.2413L91.0019 41.0992Z" fill="#9C9C9C"/>
<path d="M88.1257 44.5322C88.2604 44.825 88.3301 45.1502 88.3301 45.4941C88.3301 46.7719 87.2892 47.8174 86.0161 47.8174C84.7289 47.8174 83.6881 46.7766 83.6881 45.4941C83.6881 45.1502 83.7624 44.825 83.9065 44.5322H88.1257Z" fill="#333333"/>
<path d="M113.608 48.4261C113.473 48.5283 113.399 48.5794 113.399 48.5794L109.589 35.1505L107.103 30.9639L112.507 33.7008L113.594 48.2541L113.608 48.4261Z" fill="#9C9C9C"/>
<path d="M73.9348 48.4261C74.0695 48.5283 74.1438 48.5794 74.1438 48.5794L77.9402 35.1505L80.4401 30.9639L75.036 33.7008L73.9487 48.2541L73.9348 48.4261Z" fill="#9C9C9C"/>
<path d="M112.86 28.5048V34.0622C108.032 35.3726 102.642 35.9441 97.4608 36.0928C94.0083 36.1951 90.6628 36.1021 87.6239 35.9302C86.1184 35.8373 84.7057 35.735 83.3954 35.6189C81.8295 35.4841 80.4075 35.3308 79.1948 35.1821C76.2767 34.8243 74.4878 34.513 74.4878 34.513V29.2343C74.4878 29.2343 93.5763 19.0303 93.6738 19.0303C93.6738 19.0814 96.0622 20.2709 99.1523 21.7858C100.133 22.2783 101.187 22.7894 102.252 23.3191C103.269 23.8163 104.296 24.3228 105.3 24.82C108.144 26.2047 110.727 27.464 112.014 28.0913C112.553 28.3515 112.86 28.5048 112.86 28.5048Z" fill="#FFD675"/>
<path opacity="0.2" d="M102.252 23.3137L83.3954 35.6134C81.8294 35.4786 80.4075 35.3253 79.1947 35.1766L99.1522 21.7803C100.133 22.2728 101.187 22.7886 102.252 23.3137Z" fill="white"/>
<path opacity="0.2" d="M112.019 28.0877L97.4608 36.0892C94.0083 36.1914 90.6628 36.0985 87.6238 35.9266L105.304 24.8164C108.143 26.2058 110.727 27.465 112.019 28.0877Z" fill="white"/>
<path d="M55.9615 100.252L55.3296 104.736L57.5414 100.782L55.9615 100.252Z" fill="#333333"/>
<path d="M64.7855 100.252L64.1489 104.736L66.3654 100.782L64.7855 100.252Z" fill="#333333"/>
<path d="M73.6049 100.252L72.9683 104.736L75.1755 100.782L73.6049 100.252Z" fill="#333333"/>
<path d="M44.935 114.7L44.2983 119.18L46.5055 115.23L44.935 114.7Z" fill="#333333"/>
<path d="M53.7589 114.7L53.1223 119.18L55.3295 115.23L53.7589 114.7Z" fill="#333333"/>
<path d="M62.5783 114.7L61.9417 119.18L64.1489 115.23L62.5783 114.7Z" fill="#333333"/>
<path d="M47.6299 129.252L47.0074 133.731L49.2006 129.786L47.6299 129.252Z" fill="#333333"/>
<path d="M56.454 129.252L55.8174 133.731L58.0339 129.786L56.454 129.252Z" fill="#333333"/>
<path d="M65.9007 128.91C65.4825 129.914 65.0783 130.875 64.7019 131.777L64.5671 131.814L65.0225 128.617L65.9007 128.91Z" fill="#333333"/>
<path d="M71.3977 75.0674L70.7657 79.5468L72.9683 75.6018L71.3977 75.0674Z" fill="#333333"/>
<path d="M62.5783 73.2607L61.9417 77.7402L64.1489 73.7951L62.5783 73.2607Z" fill="#333333"/>
<path d="M54.3445 74.8896L53.1177 77.0829L53.3501 75.4519C53.6753 75.2706 54.0006 75.0709 54.3445 74.8896Z" fill="#333333"/>
<path d="M46.9841 138.332L45.8317 138.676L45.9293 137.97L46.9841 138.332Z" fill="#333333"/>
<path d="M45.1579 85.6895L44.5307 90.1735L46.7379 86.2192L45.1579 85.6895Z" fill="#333333"/>
<path d="M54.9717 85.6895L54.3351 90.1735L56.5516 86.2192L54.9717 85.6895Z" fill="#333333"/>
<path d="M63.7911 85.6895L63.1545 90.1735L65.3756 86.2192L63.7911 85.6895Z" fill="#333333"/>
<path d="M72.6152 85.6895L71.9739 90.1735L74.1811 86.2192L72.6152 85.6895Z" fill="#333333"/>
<path d="M81.6576 77.3994L81.0209 81.8881L83.2235 77.9291L81.6576 77.3994Z" fill="#333333"/>
<path d="M46.1477 100.252L45.5251 104.736L47.7322 100.782L46.1477 100.252Z" fill="#333333"/>
<path d="M133.482 100.252L134.109 104.736L131.911 100.782L133.482 100.252Z" fill="#333333"/>
<path d="M124.658 100.252L125.299 104.736L123.078 100.782L124.658 100.252Z" fill="#333333"/>
<path d="M115.838 100.252L116.475 104.736L114.272 100.782L115.838 100.252Z" fill="#333333"/>
<path d="M118.041 75.0674L118.682 79.5468L116.475 75.6018L118.041 75.0674Z" fill="#333333"/>
<path d="M126.865 73.2607L127.502 77.7402L125.299 73.7951L126.865 73.2607Z" fill="#333333"/>
<path d="M134.495 76.2148L135.721 78.4081L135.489 76.7771C135.159 76.5866 134.829 76.3961 134.495 76.2148Z" fill="#333333"/>
<path d="M144.285 85.6895L144.927 90.1735L142.705 86.2192L144.285 85.6895Z" fill="#333333"/>
<path d="M134.476 85.6895L135.108 90.1735L132.892 86.2192L134.476 85.6895Z" fill="#333333"/>
<path d="M125.652 85.6895L126.289 90.1735L124.081 86.2192L125.652 85.6895Z" fill="#333333"/>
<path d="M116.833 85.6895L117.465 90.1735L115.262 86.2192L116.833 85.6895Z" fill="#333333"/>
<path d="M107.8 77.3994L108.427 81.8881L106.22 77.9291L107.8 77.3994Z" fill="#333333"/>
<path d="M143.296 100.252L143.932 104.736L141.716 100.782L143.296 100.252Z" fill="#333333"/>
<path d="M85.8721 74.5064C85.7234 75.1616 85.6398 75.8446 85.6537 76.5509C85.6398 81.6018 89.7428 85.6909 94.803 85.6909C99.8632 85.6863 103.957 81.5972 103.957 76.5509C103.957 75.4589 103.762 74.4227 103.404 73.4516C107.865 73.1077 111.368 69.3858 111.382 64.8367C111.368 60.0599 107.498 56.1846 102.721 56.1846C101.457 56.1799 96.9265 57.5879 95.9554 58.1594L93.409 58.1641C92.2334 57.4485 87.2475 56.1985 86.0208 56.1985C80.9606 56.1846 76.8436 60.2969 76.8575 65.3525C76.8529 70.3569 80.8862 74.4274 85.8721 74.5064Z" fill="#9C9C9C"/>
<path d="M94.9748 22.5333C94.9981 22.4311 95.012 22.3196 95.012 22.2034C95.012 21.4088 94.3522 20.749 93.5576 20.749C92.7491 20.749 92.0985 21.4042 92.0985 22.2034C92.0985 22.38 92.1357 22.5473 92.1822 22.696C91.4713 22.7517 90.9229 23.3465 90.9229 24.0667C90.9229 24.8288 91.5363 25.4375 92.2937 25.4375C92.4888 25.4422 93.2091 25.2191 93.3717 25.1262L92.4377 26.7246H94.7053L93.776 25.1262C93.9618 25.2423 94.7564 25.4375 94.9516 25.4375C95.7462 25.4375 96.4106 24.7823 96.4106 23.9785C96.406 23.1885 95.7601 22.5426 94.9748 22.5333Z" fill="#333333"/>
<path opacity="0.2" d="M98.8827 98.4696C98.9431 98.1025 98.9663 97.7354 98.943 97.3405C98.8083 94.6501 96.5036 92.5823 93.7992 92.5869C91.0902 92.5869 88.7762 94.664 88.6647 97.3591C88.6275 97.9585 88.7158 98.5393 88.883 99.0876C86.3227 99.2921 84.1063 101.467 83.86 104.222C83.5905 107.294 85.8348 109.877 88.8459 109.849C89.6544 109.849 92.5121 108.864 93.1208 108.479L89.2129 115.676L98.6457 115.574L94.7146 108.469C95.4349 108.948 98.5853 109.78 99.3566 109.766C102.516 109.747 104.807 106.996 104.491 103.799C104.198 100.816 101.699 98.5068 98.8827 98.4696Z" fill="#616161"/>
<path d="M98.7944 98.1762C98.8827 97.8045 98.9292 97.4235 98.9292 97.0146C98.9292 94.1476 96.6012 91.8242 93.7342 91.8242C90.8533 91.8289 88.5253 94.1476 88.5253 97.0146C88.5253 97.6372 88.6321 98.2273 88.8412 98.7803C86.3181 98.9754 84.32 101.09 84.3061 103.669C84.32 106.387 86.5133 108.585 89.2223 108.585C89.9425 108.589 92.5168 107.79 93.0697 107.465L89.7381 113.176L97.8605 113.166L94.5148 107.465C95.1886 107.869 98.0184 108.585 98.7061 108.585C101.587 108.585 103.915 106.252 103.915 103.376C103.915 100.527 101.638 98.2273 98.7944 98.1762Z" fill="#FFD675"/>
<path opacity="0.2" d="M93.6645 109.025L95.7462 111.701H91.7639L93.6645 109.025ZM89.1897 106.59C87.6238 106.585 86.3088 105.27 86.3088 103.658C86.3088 102.157 87.4844 100.87 88.9946 100.763L91.6292 100.559L90.7092 98.0867C90.5884 97.7475 90.5094 97.3897 90.5094 97.0133C90.5094 95.2569 91.9592 93.8211 93.7342 93.8164C94.5892 93.8164 95.3976 94.1463 96.0017 94.7597C96.6011 95.3591 96.931 96.163 96.931 97.0133C96.945 97.2642 96.9078 97.4919 96.8567 97.7475L96.3177 100.131L98.7665 100.168C100.504 100.196 101.926 101.637 101.926 103.37C101.926 104.23 101.596 105.029 100.983 105.642C100.384 106.242 99.5704 106.581 98.7154 106.581C98.3483 106.558 97.0751 106.256 96.2294 105.995L93.6831 104.787L91.3922 106C90.6487 106.251 89.5568 106.558 89.1897 106.59Z" fill="#616161"/>
<path d="M86.3459 59.8271H101.884L99.7004 65.3753L89.1804 65.3381L86.3459 59.8271Z" fill="#EBBE9F"/>
<path opacity="0.2" d="M98.2786 60.5986H89.9378V62.2436H98.2786V60.5986Z" fill="#616161"/>
<path opacity="0.2" d="M146.209 81.6903C146.209 81.6903 121.521 67.6016 113.631 63.1269C112.874 62.6994 112.284 62.3695 111.87 62.1372L113.966 53.183L113.613 48.4295L113.599 48.2576L112.544 34.141C112.655 34.1131 112.762 34.0899 112.86 34.062V28.5046C112.86 28.5046 112.553 28.3513 112.014 28.0864C110.727 27.4637 108.144 26.1999 105.3 24.8151C104.296 24.318 103.264 23.8115 102.252 23.3143C101.187 22.7892 100.133 22.2734 99.1522 21.7809C96.0622 20.2614 93.6738 19.0765 93.6738 19.0254C93.6738 19.0254 93.6366 19.0486 93.6227 19.0486V124.491L113.436 118.538L113.631 119.18L124.881 115.1L146.604 108.576V83.0239L146.209 81.6903Z" fill="#616161"/>
<path d="M41.1616 175.816L41.5519 177.15C41.5519 177.15 66.2397 191.239 74.1297 195.709C75.612 196.545 76.4949 197.052 76.532 197.052H111.684C111.693 197.052 111.744 197.014 111.842 196.963C111.916 196.921 112 196.875 112.112 196.815C112.195 196.768 112.307 196.708 112.418 196.643C112.525 196.582 112.637 196.522 112.762 196.452C112.883 196.378 113.008 196.303 113.157 196.224C113.375 196.104 113.599 195.973 113.854 195.829C114.333 195.555 114.872 195.249 115.485 194.905L115.499 194.9C115.954 194.64 116.433 194.366 116.935 194.078C117.107 193.985 117.279 193.887 117.46 193.785C118.635 193.111 119.937 192.377 121.331 191.587C121.832 191.304 122.334 191.011 122.85 190.718C123.352 190.43 123.882 190.137 124.397 189.845C124.909 189.538 125.462 189.236 125.991 188.938C132.975 184.966 140.656 180.574 144.383 178.456C144.601 178.33 144.796 178.219 144.982 178.107C145.874 177.601 146.45 177.266 146.613 177.182V118.588L123.617 125.497L118.399 127.063L41.1709 150.255V175.816H41.1616Z" fill="#333333"/>
<path d="M93.8223 166.714L103.455 183.391H84.2084L93.8223 166.714ZM101.615 182.322L93.8223 168.837L86.0438 182.322H101.615Z" fill="#FFD675"/>
<path opacity="0.2" d="M106.759 197.05C106.945 196.999 141.725 177.153 141.725 177.153L146.604 162.102V118.591L123.607 125.5L118.389 127.066L104.644 172.185L102.795 178.226L100.114 183.983L94.1104 196.804V197.05H106.759Z" fill="#616161"/>
<path d="M111.684 197.05C111.693 197.05 111.744 197.012 111.842 196.961C111.916 196.919 112 196.873 112.112 196.813C112.195 196.766 112.307 196.706 112.418 196.641C112.516 196.58 112.637 196.52 112.762 196.45C112.883 196.376 113.008 196.301 113.157 196.222C113.375 196.102 113.599 195.972 113.854 195.827C114.333 195.558 114.872 195.251 115.485 194.903L115.499 194.898C115.954 194.638 116.433 194.373 116.935 194.076C117.107 193.983 117.279 193.885 117.46 193.783C118.635 193.123 119.937 192.38 121.331 191.585C121.832 191.302 122.334 191.009 122.85 190.716C123.366 190.428 123.882 190.135 124.397 189.843C124.908 189.541 125.461 189.243 125.991 188.936C128.245 187.649 130.573 186.339 132.803 185.047C133.477 184.671 134.151 184.285 134.801 183.913C138.709 181.678 142.227 179.68 144.383 178.454C144.601 178.328 144.796 178.217 144.982 178.105C145.874 177.599 146.45 177.264 146.613 177.18V118.586L142.519 119.817L140.215 120.51L123.868 125.417L123.612 125.496C122.841 127.303 122.046 129.227 121.21 131.23C115.699 144.482 108.98 161.252 104.644 172.181C101.926 178.983 100.146 183.518 100.146 183.518L100.109 183.978L98.9197 197.045L111.684 197.05Z" fill="#EBEBEB"/>
<path opacity="0.2" d="M41.1616 159.446L46.4913 177.15C46.4913 177.15 81.2763 196.996 81.4575 197.047H94.1011V196.801L85.4118 178.219L74.1297 139.656L41.157 151.603L41.1616 159.446Z" fill="#616161"/>
<path d="M41.1616 175.804L41.5658 177.152C41.5658 177.152 76.3461 196.998 76.532 197.049H89.2871L88.0743 183.527C88.0743 183.527 73.0656 152.38 67.7219 142.283L41.1616 150.257V175.804Z" fill="#EBEBEB"/>
<path d="M73.8045 205.657L74.1576 210.41L74.1715 210.587L75.2588 225.14L80.6629 227.872L91.104 233.16L93.9942 231.608L96.8844 233.16L107.321 227.872L112.725 225.14L113.817 210.587L113.831 210.41L114.184 205.657L109.849 191.21L94.0174 178.19V178.158L94.0081 178.148L93.9942 178.167L93.9663 178.148V178.158V178.19L76.9967 192.037L73.8045 205.657Z" fill="#EBBE9F"/>
<path d="M93.9663 197.058L87.5725 197.276L92.3493 200.283C92.3493 200.283 93.1206 200.301 93.9663 200.315C93.9802 200.315 93.9802 200.315 93.9895 200.315C94.0035 200.315 94.0035 200.315 94.0035 200.315C94.8631 200.301 95.6205 200.283 95.6205 200.283L100.397 197.276L94.0035 197.058V197.049H93.9895H93.9663V197.058Z" fill="#EBBE9F"/>
<path opacity="0.2" d="M90.0956 206.199L92.7163 215.312H93.9663H94.0081H95.2534L97.8881 206.199L95.2534 203.388L94.0081 203.342H93.9942H93.9663L92.7163 203.388L90.0956 206.199Z" fill="#616161"/>
<path d="M91.2248 217.744L83.0001 218.78L82.819 218.803L82.7353 218.752L78.8136 216.68L83.0885 217.874L82.819 217.855L90.7973 215.606L91.2248 217.744Z" fill="#9C9C9C"/>
<path d="M88.3299 214.314C88.4647 214.012 88.5483 213.692 88.5483 213.353C88.5483 212.07 87.5075 211.029 86.2204 211.029C84.9472 211.029 83.9063 212.07 83.9063 213.353C83.9063 213.687 83.9806 214.012 84.1154 214.314H88.3299Z" fill="#333333"/>
<path d="M96.759 217.744L104.984 218.78L105.156 218.803L105.253 218.752L109.175 216.68L104.895 217.874L105.169 217.855L97.1772 215.606L96.759 217.744Z" fill="#9C9C9C"/>
<path d="M99.6445 214.314C99.5097 214.012 99.4215 213.692 99.4215 213.353C99.4215 212.07 100.462 211.029 101.749 211.029C103.037 211.029 104.077 212.07 104.077 213.353C104.077 213.687 104.003 214.012 103.859 214.314H99.6445Z" fill="#333333"/>
<path d="M74.1576 210.411C74.2923 210.314 74.3528 210.258 74.3528 210.258L78.163 223.691L80.6629 227.873L75.2588 225.141L74.1669 210.588L74.1576 210.411Z" fill="#9C9C9C"/>
<path d="M113.831 210.411C113.696 210.314 113.622 210.258 113.622 210.258L109.811 223.691L107.321 227.873L112.725 225.141L113.812 210.588L113.831 210.411Z" fill="#9C9C9C"/>
<path d="M74.8918 230.329V224.781C79.7196 223.461 85.1191 222.894 90.3048 222.75C93.7479 222.653 97.1028 222.732 100.142 222.908C101.638 222.997 103.055 223.103 104.37 223.22C105.936 223.354 107.349 223.508 108.571 223.656C111.489 224.005 113.278 224.316 113.278 224.316V229.604C113.278 229.604 94.1894 239.804 94.0918 239.804C94.0918 239.752 91.7034 238.563 88.618 237.048C87.6375 236.565 86.5828 236.049 85.5187 235.524C84.5011 235.027 83.4741 234.511 82.4705 234.023C79.6267 232.638 77.0292 231.379 75.7561 230.752C75.2124 230.482 74.8918 230.329 74.8918 230.329Z" fill="#FFD675"/>
<path opacity="0.2" d="M85.514 235.526L104.37 223.227C105.936 223.361 107.349 223.515 108.571 223.663L88.6134 237.055C87.6376 236.567 86.5828 236.056 85.514 235.526Z" fill="white"/>
<path opacity="0.2" d="M75.7514 230.754L90.3048 222.752C93.7479 222.655 97.1028 222.734 100.142 222.91L82.4612 234.025C79.622 232.64 77.0246 231.381 75.7514 230.754Z" fill="white"/>
<path d="M131.8 158.584L132.441 154.104L130.224 158.054L131.8 158.584Z" fill="#333333"/>
<path d="M122.971 158.584L123.608 154.104L121.4 158.054L122.971 158.584Z" fill="#333333"/>
<path d="M114.161 158.584L114.783 154.104L112.59 158.054L114.161 158.584Z" fill="#333333"/>
<path d="M142.826 144.147L143.453 139.663L141.26 143.617L142.826 144.147Z" fill="#333333"/>
<path d="M134.007 144.147L134.643 139.663L132.441 143.617L134.007 144.147Z" fill="#333333"/>
<path d="M125.187 144.147L125.824 139.663L123.608 143.617L125.187 144.147Z" fill="#333333"/>
<path d="M140.131 129.593L140.758 125.109L138.556 129.054L140.131 129.593Z" fill="#333333"/>
<path d="M131.312 129.593L131.948 125.109L129.732 129.054L131.312 129.593Z" fill="#333333"/>
<path d="M121.865 129.933C122.283 128.93 122.687 127.958 123.064 127.066L123.185 127.024L122.743 130.226L121.865 129.933Z" fill="#333333"/>
<path d="M116.363 183.775L117 179.291L114.784 183.231L116.363 183.775Z" fill="#333333"/>
<path d="M125.187 185.576L125.824 181.105L123.608 185.05L125.187 185.576Z" fill="#333333"/>
<path d="M133.421 183.953L134.648 181.755L134.416 183.39C134.095 183.572 133.751 183.767 133.421 183.953Z" fill="#333333"/>
<path d="M140.786 120.516L141.934 120.168L141.836 120.874L140.786 120.516Z" fill="#333333"/>
<path d="M142.608 173.156L143.235 168.672L141.028 172.622L142.608 173.156Z" fill="#333333"/>
<path d="M132.78 173.156L133.431 168.672L131.214 172.622L132.78 173.156Z" fill="#333333"/>
<path d="M123.975 173.156L124.611 168.672L122.395 172.622L123.975 173.156Z" fill="#333333"/>
<path d="M115.155 173.156L115.792 168.672L113.571 172.622L115.155 173.156Z" fill="#333333"/>
<path d="M106.113 181.437L106.749 176.953L104.542 180.907L106.113 181.437Z" fill="#333333"/>
<path d="M141.618 158.584L142.241 154.104L140.033 158.054L141.618 158.584Z" fill="#333333"/>
<path d="M54.2839 158.586L53.6473 154.106L55.8545 158.056L54.2839 158.586Z" fill="#333333"/>
<path d="M63.1079 158.586L62.4713 154.106L64.6738 158.056L63.1079 158.586Z" fill="#333333"/>
<path d="M71.9273 158.586L71.2907 154.106L73.4978 158.056L71.9273 158.586Z" fill="#333333"/>
<path d="M69.7109 183.775L69.0835 179.291L71.2907 183.231L69.7109 183.775Z" fill="#333333"/>
<path d="M60.8868 185.572L60.2642 181.102L62.4713 185.047L60.8868 185.572Z" fill="#333333"/>
<path d="M53.2663 182.628L52.0395 180.435L52.2719 182.066C52.5971 182.251 52.9364 182.447 53.2663 182.628Z" fill="#333333"/>
<path d="M43.4804 173.152L42.8392 168.668L45.0556 172.618L43.4804 173.152Z" fill="#333333"/>
<path d="M53.2895 173.152L52.6529 168.668L54.86 172.618L53.2895 173.152Z" fill="#333333"/>
<path d="M62.1135 173.152L61.477 168.668L63.6795 172.618L62.1135 173.152Z" fill="#333333"/>
<path d="M70.9329 173.152L70.2963 168.668L72.5035 172.618L70.9329 173.152Z" fill="#333333"/>
<path d="M79.966 181.438L79.3387 176.954L81.5459 180.908L79.966 181.438Z" fill="#333333"/>
<path d="M44.4702 158.586L43.8336 154.106L46.0361 158.056L44.4702 158.586Z" fill="#333333"/>
<path d="M101.894 184.341C102.042 183.686 102.126 183.007 102.112 182.296C102.126 177.25 98.023 173.152 92.9721 173.156C87.8979 173.161 83.8089 177.25 83.8089 182.296C83.8089 183.393 84.004 184.429 84.3618 185.391C79.915 185.735 76.3974 189.466 76.3835 194.011C76.3974 198.787 80.282 202.653 85.0448 202.658C86.3227 202.663 90.8393 201.25 91.8104 200.678H94.3567C95.5324 201.389 100.518 202.644 101.745 202.644C106.805 202.653 110.913 198.541 110.899 193.485C110.899 188.481 106.884 184.415 101.894 184.341Z" fill="#9C9C9C"/>
<path d="M92.7908 236.31C92.7676 236.413 92.7537 236.524 92.7537 236.636C92.7537 237.44 93.4134 238.095 94.208 238.09C95.0165 238.09 95.6671 237.44 95.6671 236.636C95.6671 236.464 95.6299 236.301 95.5788 236.148C96.2897 236.087 96.8427 235.497 96.8427 234.777C96.8427 234.02 96.2293 233.406 95.4719 233.406C95.2628 233.406 94.5519 233.625 94.3939 233.718L95.3279 232.119H93.0603L93.9896 233.718C93.8038 233.606 93.0092 233.406 92.814 233.406C92.0055 233.406 91.355 234.057 91.355 234.856C91.3596 235.651 91.9962 236.296 92.7908 236.31Z" fill="#333333"/>
<path opacity="0.2" d="M88.883 160.377C88.8226 160.744 88.7994 161.111 88.8226 161.506C88.9573 164.187 91.2621 166.264 93.9571 166.259C96.6754 166.25 98.9802 164.178 99.1149 161.487C99.1382 160.888 99.0546 160.307 98.8687 159.759C101.443 159.554 103.659 157.384 103.906 154.629C104.161 151.557 101.931 148.974 98.9198 148.992C98.1113 148.992 95.2536 149.982 94.6449 150.363L98.5527 143.175L89.12 143.277L93.065 150.382C92.3169 149.899 89.1804 149.071 88.409 149.076C85.2446 149.099 82.9585 151.855 83.2745 155.052C83.5672 158.03 86.0671 160.34 88.883 160.377Z" fill="#616161"/>
<path d="M88.9713 160.665C88.883 161.046 88.8365 161.427 88.8365 161.831C88.8365 164.698 91.1645 167.026 94.0315 167.026C96.9124 167.017 99.2404 164.698 99.2404 161.831C99.2404 161.213 99.1335 160.618 98.9244 160.07C101.461 159.875 103.446 157.756 103.46 155.177C103.446 152.463 101.252 150.261 98.5481 150.261C97.8232 150.261 95.2489 151.055 94.7006 151.381L98.0322 145.67L89.9192 145.679L93.2509 151.385C92.5771 150.976 89.7473 150.266 89.0456 150.266C86.1786 150.256 83.8414 152.593 83.8507 155.465C83.8507 158.309 86.1275 160.618 88.9713 160.665Z" fill="#FFD675"/>
<path opacity="0.2" d="M94.1059 149.813L92.0241 147.137H96.0063L94.1059 149.813ZM98.5759 152.253C100.142 152.257 101.457 153.568 101.466 155.185C101.457 156.686 100.277 157.968 98.7711 158.08L96.1503 158.279L97.0565 160.756C97.1773 161.091 97.2423 161.453 97.2423 161.82C97.2423 163.577 95.8065 165.017 94.0315 165.017C93.1719 165.017 92.368 164.687 91.7639 164.078C91.1505 163.474 90.8206 162.675 90.8346 161.825C90.8206 161.574 90.8439 161.342 90.9089 161.091L91.4479 158.707L88.9991 158.67C87.2613 158.637 85.8394 157.201 85.8394 155.459C85.8394 154.599 86.1693 153.8 86.7687 153.191C87.3821 152.587 88.1906 152.248 89.0456 152.248C89.4127 152.271 90.6905 152.578 91.5362 152.843L94.0826 154.046L96.3734 152.834C97.1169 152.587 98.2088 152.281 98.5759 152.253Z" fill="#616161"/>
<path d="M101.415 199.02H85.8952L88.0606 193.467L98.5899 193.504L101.415 199.02Z" fill="#EBBE9F"/>
<path opacity="0.2" d="M97.8186 196.604H89.4871V198.244H97.8186V196.604Z" fill="#616161"/>
<path opacity="0.2" d="M41.5567 177.152C41.5567 177.152 66.2445 191.241 74.1345 195.711C74.8966 196.138 75.496 196.482 75.8956 196.71L73.7999 205.659L74.1577 210.413L74.1671 210.589L75.2218 224.711C75.1242 224.734 75.0034 224.752 74.8919 224.785V230.333C74.8919 230.333 75.2079 230.486 75.7515 230.756C77.0247 231.383 79.6222 232.643 82.466 234.027C83.4697 234.515 84.5012 235.031 85.5142 235.528C86.5829 236.053 87.6377 236.569 88.6135 237.052C91.6989 238.572 94.0873 239.757 94.0873 239.808C94.0873 239.808 94.1245 239.784 94.1384 239.784V134.352L74.325 140.299L74.1299 139.663L62.8942 143.738L41.1571 150.262V175.823L41.5567 177.152Z" fill="#616161"/>
<path d="M31.7151 52.0314C31.7895 51.6503 31.8499 51.2693 31.8359 50.8744C31.8452 48.0306 29.5312 45.7212 26.6781 45.7305C23.839 45.7351 21.5342 48.026 21.5342 50.8744C21.5342 51.4924 21.6458 52.0732 21.841 52.6169C19.3271 52.8167 17.3569 54.9123 17.3569 57.4726C17.3569 60.163 19.5362 62.333 22.2313 62.333C22.9422 62.3377 25.4932 61.5477 26.0276 61.2271L22.7331 66.8868L30.7672 66.8821L27.4727 61.2271C28.1232 61.6221 30.9391 62.333 31.6268 62.333C34.4705 62.333 36.7846 60.019 36.7846 57.1752C36.7892 54.3593 34.5217 52.0732 31.7151 52.0314Z" fill="#333333"/>
<path opacity="0.2" d="M31.7151 52.0314C31.7894 51.6503 31.8499 51.2693 31.8359 50.8744C31.8452 48.0306 29.5312 45.7212 26.6781 45.7305C26.6781 45.7305 26.6781 45.7351 26.6688 45.7351V66.8821H30.7718L27.4773 61.2271C28.1279 61.6221 30.9437 62.333 31.6314 62.333C34.4752 62.333 36.7892 60.019 36.7892 57.1752C36.7892 54.3593 34.5217 52.0732 31.7151 52.0314Z" fill="#616161"/>
<path d="M155.289 206.22C155.2 206.601 155.154 206.972 155.168 207.377C155.154 210.22 157.473 212.521 160.312 212.521C163.165 212.521 165.47 210.23 165.47 207.377C165.47 206.759 165.358 206.169 165.163 205.639C167.663 205.434 169.647 203.339 169.647 200.778C169.647 198.088 167.454 195.918 164.773 195.918C164.062 195.913 161.515 196.703 160.976 197.024L164.271 191.364L156.232 191.374L159.531 197.029C158.867 196.629 156.06 195.927 155.377 195.923C152.524 195.923 150.219 198.237 150.219 201.08C150.219 203.892 152.487 206.173 155.289 206.22Z" fill="#333333"/>
<path opacity="0.2" d="M155.289 206.219C155.2 206.6 155.154 206.972 155.168 207.376C155.154 210.22 157.473 212.52 160.312 212.52C160.326 212.52 160.326 212.52 160.335 212.52V191.373H156.232L159.531 197.028C158.867 196.628 156.06 195.927 155.377 195.922C152.524 195.922 150.219 198.236 150.219 201.08C150.219 203.891 152.487 206.173 155.289 206.219Z" fill="#616161"/>
</svg>
