<svg width="183" height="256" viewBox="0 0 183 256" fill="none" xmlns="http://www.w3.org/2000/svg">
<path d="M20.328 255.848C9.56167 255.867 0.774837 247.261 0.751604 236.68L0.184738 20.2388C0.161505 9.6026 8.93448 0.936521 19.7426 0.955108L162.767 1.22929C173.524 1.24787 182.283 9.92323 182.283 20.5409V236.513C182.283 247.066 173.561 255.672 162.832 255.681L20.328 255.848Z" fill="#C9C9C9"/>
<path d="M22.1077 255.305C11.4715 255.305 2.8241 246.685 2.8241 236.1V20.1837C2.8241 9.58469 11.4715 0.969727 22.1077 0.969727H163.041C173.673 0.969727 182.325 9.58469 182.325 20.1837V236.1C182.325 246.681 173.673 255.305 163.041 255.305H22.1077Z" fill="white"/>
<path d="M126.714 19.2881L107.713 43.2743L126.714 67.2789L145.732 43.2743L126.714 19.2881Z" fill="#D66142"/>
<path opacity="0.2" d="M126.588 19.4507L126.714 19.2881L145.732 43.2743L126.714 67.2789L126.588 67.1162V19.4507Z" fill="#616161"/>
<path d="M58.4308 188.985L77.4356 212.981L58.4308 236.995L39.4306 212.981L58.4308 188.985Z" fill="#D66142"/>
<path opacity="0.2" d="M58.5702 189.139L58.4308 188.985L39.4306 212.981L58.4308 236.995L58.5702 236.832V189.139Z" fill="#616161"/>
<path d="M58.4308 19.2881L77.4356 43.2743L58.4308 67.2789L39.4306 43.2743L58.4308 19.2881Z" fill="#D66142"/>
<path opacity="0.2" d="M58.5563 19.4507L58.4308 19.2881L39.4306 43.2743L58.4308 67.2789L58.5563 67.1162V19.4507Z" fill="#616161"/>
<path d="M126.714 188.985L107.713 212.981L126.714 236.995L145.732 212.981L126.714 188.985Z" fill="#D66142"/>
<path opacity="0.2" d="M126.588 189.139L126.714 188.985L145.732 212.981L126.714 236.995L126.588 236.832V189.139Z" fill="#616161"/>
<path d="M17.9538 58.8084L12.4288 51.8292L17.9538 44.8359L23.4925 51.8292L17.9538 58.8084Z" fill="#D66142"/>
<path opacity="0.2" d="M17.9537 44.8359L17.9166 44.8963V58.7666L17.9537 58.8084L23.4925 51.8292L17.9537 44.8359Z" fill="#616161"/>
<path d="M25.3187 26.1635C25.3187 26.5074 25.2118 26.828 24.9748 27.144C24.696 27.4692 24.5102 27.6876 24.4405 27.8177C23.5204 29.1885 22.7816 30.1411 22.2333 30.6569C21.764 30.9497 21.2993 31.2563 20.8485 31.5537C20.6998 31.7535 20.6255 31.9905 20.6255 32.2414C20.6766 32.4877 20.7091 32.6596 20.7091 32.7758C20.7091 33.2776 20.7464 33.7283 20.8161 34.1187C20.8904 34.4997 20.988 34.6901 21.1228 34.6901C21.2901 34.6901 21.4527 34.6344 21.62 34.4997C22.1729 34.0443 22.5261 33.784 22.6841 33.7283C22.8049 33.9838 22.8698 34.1279 22.8698 34.1744C22.8698 34.4485 22.3681 35.0805 21.3365 36.0424C20.1098 37.1948 18.9853 37.7755 17.9584 37.7755C17.2242 37.7755 16.7456 36.7951 16.5365 34.8342C16.3274 32.8547 16.1415 31.7767 15.9835 31.5769H9.48287C9.34812 31.4933 9.27373 31.4514 9.23655 31.4235C9.20867 31.3863 9.1994 31.2516 9.1994 30.9867C9.1994 30.6243 9.6269 29.8344 10.4819 28.5798C11.2672 27.4367 12.466 25.8661 14.1063 23.8774C14.6081 23.2593 15.1238 22.6321 15.6396 22.0001C15.9788 21.6098 16.4343 21.1173 17.0104 20.504C17.5866 19.9045 18.2139 19.2074 18.883 18.4268C19.4592 17.7391 19.9145 17.3906 20.2445 17.3906L20.6116 17.4835V27.3299C20.9043 27.4832 21.1366 27.5575 21.3086 27.5575C21.4526 27.5389 21.5548 27.5297 21.6106 27.5297C22.3587 27.5297 23.0371 27.2834 23.6505 26.8048C24.1012 26.3866 24.552 25.987 25.0213 25.5688C25.1049 25.6246 25.1793 25.6804 25.2305 25.7129C25.2955 25.7547 25.3187 25.8987 25.3187 26.1635ZM16.1927 27.1719V26.1356V25.7731C16.1927 25.4107 16.1508 24.9926 16.1043 24.5233C15.7093 24.8485 15.1843 25.4294 14.5338 26.2472C14.3247 26.5121 14.0552 26.8837 13.6974 27.3624L13.9204 27.4693H15.7931L16.1927 27.1719Z" fill="#333333"/>
<path d="M161.034 232.486C161.034 232.151 161.141 231.821 161.364 231.514C161.647 231.171 161.828 230.952 161.903 230.841C162.818 229.47 163.566 228.508 164.11 228.002C164.588 227.695 165.039 227.393 165.495 227.105C165.639 226.896 165.713 226.659 165.713 226.408C165.666 226.161 165.639 225.98 165.639 225.873C165.639 225.367 165.602 224.921 165.532 224.53C165.448 224.14 165.346 223.94 165.225 223.94C165.058 223.94 164.886 224.015 164.714 224.14C164.161 224.605 163.808 224.865 163.659 224.921C163.524 224.674 163.464 224.512 163.464 224.475C163.464 224.201 163.975 223.578 164.993 222.616C166.233 221.464 167.344 220.883 168.376 220.883C169.124 220.883 169.593 221.863 169.798 223.824C170.007 225.785 170.192 226.882 170.364 227.072H176.865C176.986 227.147 177.074 227.207 177.102 227.225C177.125 227.253 177.139 227.398 177.139 227.662C177.139 228.016 176.707 228.824 175.866 230.069C175.081 231.203 173.868 232.764 172.228 234.772C171.726 235.38 171.224 236.008 170.699 236.64C170.369 237.03 169.9 237.537 169.323 238.136C168.747 238.745 168.125 239.432 167.465 240.213C166.889 240.919 166.419 241.258 166.089 241.258L165.722 241.175V231.319C165.43 231.166 165.197 231.091 165.025 231.091C164.881 231.119 164.779 231.129 164.723 231.129C163.989 231.129 163.301 231.366 162.688 231.854C162.247 232.253 161.782 232.671 161.326 233.08C161.229 233.025 161.155 232.983 161.104 232.936C161.048 232.904 161.034 232.76 161.034 232.486ZM170.155 231.477V232.513V232.876C170.155 233.229 170.183 233.647 170.243 234.14C170.625 233.796 171.15 233.224 171.8 232.416C172.009 232.142 172.288 231.779 172.65 231.291L172.414 231.175H170.555L170.155 231.477Z" fill="#333333"/>
<path d="M168.385 199.833L173.919 206.831L168.385 213.81L162.855 206.831L168.385 199.833Z" fill="#D66142"/>
<path opacity="0.2" d="M168.417 199.88L168.385 199.833L162.855 206.831L168.385 213.81L168.417 213.764V199.88Z" fill="#616161"/>
</svg>
