<svg width="186" height="260" viewBox="0 0 186 260" fill="none" xmlns="http://www.w3.org/2000/svg">
<path d="M20.6791 259.262C9.74086 259.281 0.82398 250.54 0.800746 239.797L0.23381 19.9959C0.210577 9.1785 9.11364 0.391599 20.0891 0.410186L165.348 0.679686C176.282 0.698273 185.176 9.49445 185.176 20.2933V239.616C185.176 250.345 176.305 259.076 165.418 259.09L20.6791 259.262Z" fill="#C9C9C9"/>
<path d="M22.4867 258.718C11.7018 258.718 2.91028 249.968 2.91028 239.207V19.9256C2.91028 9.16861 11.7018 0.418945 22.4867 0.418945H165.618C176.422 0.418945 185.194 9.16861 185.194 19.9256V239.207C185.194 249.968 176.422 258.718 165.618 258.718H22.4867Z" fill="white"/>
<path d="M25.9486 16.9579C25.5722 17.5852 25.0797 18.2218 24.471 18.8584C23.695 19.6948 22.9794 20.2385 22.287 20.4848C21.8549 20.6335 21.1439 20.7403 20.1635 20.8054C19.1784 20.8751 18.6904 21.2282 18.6904 21.8695C18.6904 22.4224 18.9878 22.757 19.5919 22.8964C20.6513 23.1426 21.5621 23.5562 22.3148 24.137C23.0722 24.7225 23.6205 25.3638 23.9783 26.0422C24.3222 26.7206 24.4988 27.4129 24.4988 28.1146C24.4988 29.1461 24.2526 30.1544 23.7554 31.1535C23.537 31.6228 23.142 32.2501 22.5658 33.0261C21.1393 34.8615 19.8846 36.1161 18.7694 36.7852C17.6589 37.459 16.1952 37.7935 14.4062 37.7935C13.3468 37.7935 12.4454 37.6402 11.7112 37.3382C10.7493 36.9386 10.2708 36.3299 10.2708 35.4889C10.2708 34.9452 10.7029 34.0205 11.5579 32.7148C12.4175 31.4091 13.0866 30.7585 13.5513 30.7585C13.8719 30.7585 14.0578 31.1396 14.0811 31.9109C14.1089 32.673 14.2111 33.2166 14.4062 33.5419C14.6525 33.8067 14.8663 34.0019 15.0382 34.1367C15.6005 34.5456 16.1906 34.7593 16.7854 34.7593C17.5614 34.7593 18.2444 34.4898 18.8345 33.9555C19.5687 33.3003 19.9358 32.3384 19.9358 31.0977C19.9358 29.8571 19.5269 28.7976 18.7416 27.9101C17.9517 27.0272 16.9944 26.5114 15.8746 26.3767C15.6562 26.3395 15.4844 26.3163 15.3635 26.3163C15.0383 26.2559 14.8431 26.2141 14.8013 26.1769C14.7176 26.0607 14.6711 25.8609 14.6711 25.5775C14.7547 24.8433 14.8431 24.1092 14.8988 23.3611C14.9685 22.6222 14.9964 21.9113 14.9964 21.2282C14.9964 20.9123 14.9452 20.7124 14.843 20.652C14.7222 20.5916 14.4852 20.5545 14.1321 20.5545V19.8714C14.4109 19.5136 14.9499 18.9885 15.7352 18.3101C16.7389 17.4505 17.4405 17.0276 17.8075 17.0276H23.9087C24.1643 17.0276 24.4942 16.9301 24.8706 16.7303C25.2377 16.5351 25.4747 16.4375 25.5536 16.4375L25.9533 16.6326V16.9579H25.9486Z" fill="#333333"/>
<path d="M163.383 244.59C163.773 243.963 164.266 243.331 164.856 242.694C165.632 241.858 166.352 241.323 167.04 241.077C167.481 240.914 168.183 240.812 169.173 240.752C170.153 240.668 170.641 240.324 170.641 239.688C170.641 239.116 170.339 238.791 169.735 238.651C168.68 238.405 167.774 237.987 167.017 237.397C166.255 236.816 165.711 236.17 165.367 235.501C165.009 234.822 164.837 234.13 164.837 233.433C164.837 232.406 165.084 231.393 165.572 230.394C165.795 229.92 166.203 229.298 166.766 228.517C168.188 226.691 169.442 225.422 170.562 224.758C171.673 224.084 173.136 223.759 174.921 223.759C175.985 223.759 176.882 223.903 177.616 224.205C178.578 224.595 179.061 225.213 179.061 226.045C179.061 226.589 178.624 227.513 177.769 228.824C176.909 230.129 176.249 230.785 175.776 230.785C175.46 230.785 175.269 230.394 175.246 229.632C175.223 228.87 175.116 228.336 174.921 227.996C174.674 227.741 174.461 227.532 174.307 227.406C173.726 226.988 173.155 226.779 172.542 226.779C171.766 226.779 171.082 227.044 170.506 227.578C169.753 228.243 169.386 229.195 169.386 230.445C169.386 231.681 169.795 232.741 170.581 233.633C171.375 234.511 172.328 235.032 173.448 235.157C173.675 235.194 173.847 235.222 173.959 235.222C174.303 235.278 174.484 235.32 174.526 235.357C174.623 235.473 174.67 235.673 174.67 235.947C174.572 236.69 174.484 237.425 174.423 238.163C174.358 238.907 174.326 239.618 174.326 240.296C174.326 240.621 174.377 240.812 174.484 240.886C174.605 240.951 174.842 240.984 175.19 240.984V241.662C174.911 242.025 174.372 242.541 173.587 243.214C172.583 244.079 171.9 244.501 171.515 244.501H165.414C165.158 244.501 164.823 244.599 164.447 244.799C164.08 244.989 163.843 245.092 163.769 245.092L163.369 244.901V244.59H163.383Z" fill="#333333"/>
<path d="M146.506 47.9482C146.52 43.4642 127.018 24.292 127.018 24.292C127.018 24.292 107.985 44.0636 107.985 47.8739C107.976 54.3142 113.18 59.5509 119.625 59.5509C121.833 59.5695 123.891 58.9655 125.647 57.8967L118.329 70.3637L136.065 70.3962L128.812 57.9106C130.55 58.9701 132.599 59.5927 134.806 59.602C141.251 59.6113 146.506 54.3978 146.506 47.9482Z" fill="#333333"/>
<path opacity="0.2" d="M146.506 47.9482C146.52 43.4642 127.018 24.292 127.018 24.292C127.018 24.292 126.995 24.3106 126.976 24.3292V70.373L136.065 70.3916L128.812 57.906C130.55 58.9655 132.599 59.5881 134.806 59.5974C141.251 59.6113 146.506 54.3978 146.506 47.9482Z" fill="#616161"/>
<path d="M41.7011 47.9482C41.6778 43.4642 61.1984 24.292 61.1984 24.292C61.1984 24.292 80.2125 44.0636 80.2218 47.8739C80.2358 54.3142 75.0268 59.5509 68.5819 59.5509C66.3747 59.5695 64.3164 58.9655 62.5692 57.8967L69.8691 70.3637L52.1328 70.3962L59.3955 57.9106C57.653 58.9701 55.5992 59.5927 53.392 59.602C46.9611 59.6113 41.7011 54.3978 41.7011 47.9482Z" fill="#333333"/>
<path opacity="0.2" d="M41.7011 47.9482C41.6778 43.4642 61.1984 24.292 61.1984 24.292C61.1984 24.292 61.2216 24.3106 61.2309 24.3292V70.373L52.1328 70.3916L59.3955 57.906C57.653 58.9655 55.5992 59.5881 53.392 59.5974C46.9611 59.6113 41.7011 54.3978 41.7011 47.9482Z" fill="#616161"/>
<path d="M74.5296 128.829C74.5063 124.354 94.0364 105.173 94.0364 105.173C94.0364 105.173 113.05 124.94 113.05 128.755C113.06 135.2 107.855 140.436 101.411 140.436C99.2034 140.446 97.145 139.846 95.3885 138.778L102.707 151.245L84.9707 151.277L92.2241 138.787C90.4863 139.851 88.4371 140.469 86.2207 140.488C79.785 140.488 74.5296 135.269 74.5296 128.829Z" fill="#333333"/>
<path opacity="0.2" d="M74.5296 128.829C74.5063 124.354 94.0364 105.173 94.0364 105.173C94.0364 105.173 94.0409 105.191 94.0595 105.205V151.258L84.9707 151.272L92.2241 138.782C90.4863 139.846 88.4371 140.464 86.2207 140.483C79.785 140.488 74.5296 135.269 74.5296 128.829Z" fill="#616161"/>
<path d="M146.423 213.481C146.432 217.965 126.916 237.133 126.916 237.133C126.916 237.133 107.902 217.366 107.902 213.556C107.883 207.111 113.097 201.865 119.542 201.865C121.749 201.865 123.808 202.455 125.555 203.533L118.246 191.07L135.982 191.033L128.728 203.514C130.466 202.45 132.511 201.846 134.713 201.827C141.168 201.823 146.423 207.032 146.423 213.481Z" fill="#333333"/>
<path opacity="0.2" d="M146.423 213.481C146.432 217.965 126.916 237.132 126.916 237.132C126.916 237.132 126.902 237.113 126.893 237.104V191.056L135.982 191.037L128.728 203.518C130.466 202.454 132.511 201.85 134.713 201.831C141.168 201.822 146.423 207.031 146.423 213.481Z" fill="#616161"/>
<path d="M41.6033 213.481C41.5986 217.965 61.11 237.133 61.11 237.133C61.11 237.133 80.1242 217.366 80.1242 213.556C80.1428 207.111 74.9292 201.865 68.4843 201.865C66.2957 201.865 64.2372 202.455 62.4808 203.533L69.7808 191.07L52.0444 191.033L59.3117 203.514C57.5692 202.45 55.5155 201.846 53.3083 201.827C46.868 201.823 41.6033 207.032 41.6033 213.481Z" fill="#333333"/>
<path opacity="0.2" d="M41.6033 213.481C41.5986 217.965 61.11 237.132 61.11 237.132C61.11 237.132 61.1332 237.113 61.1518 237.104V191.056L52.0444 191.037L59.3117 203.518C57.5692 202.454 55.5155 201.85 53.3083 201.831C46.868 201.822 41.6033 207.031 41.6033 213.481Z" fill="#616161"/>
<path d="M23.2537 51.6393C23.2537 50.4358 18.0493 45.3291 18.0493 45.3291C18.0493 45.3291 12.9752 50.6031 12.9752 51.6207C12.9752 53.3353 14.3738 54.7293 16.0884 54.7293C16.6785 54.7386 17.2223 54.5759 17.6823 54.2878L15.7306 57.6149L20.4795 57.6242L18.5419 54.2971C18.9926 54.5759 19.5502 54.7479 20.1357 54.7479C21.8549 54.7525 23.2537 53.3539 23.2537 51.6393Z" fill="#333333"/>
<path opacity="0.2" d="M23.2536 51.6393C23.2536 50.4358 18.0492 45.3291 18.0492 45.3291C18.0492 45.3291 18.0492 45.3337 18.0492 45.343V57.6242H20.4748L18.5371 54.2971C18.9879 54.5759 19.5454 54.7479 20.1309 54.7479C21.8548 54.7525 23.2536 53.3539 23.2536 51.6393Z" fill="#616161"/>
<path d="M166.403 210.272C166.394 211.462 171.594 216.569 171.594 216.569C171.594 216.569 176.668 211.304 176.668 210.286C176.668 208.563 175.288 207.173 173.555 207.164C172.969 207.164 172.43 207.327 171.961 207.601L173.917 204.297L169.182 204.278L171.12 207.601C170.65 207.327 170.097 207.164 169.507 207.164C167.797 207.159 166.403 208.549 166.403 210.272Z" fill="#333333"/>
<path opacity="0.2" d="M166.403 210.272C166.394 211.462 171.594 216.569 171.594 216.569C171.594 216.569 171.594 216.569 171.612 216.569V204.288L169.187 204.278L171.124 207.601C170.655 207.327 170.102 207.164 169.512 207.164C167.797 207.159 166.403 208.549 166.403 210.272Z" fill="#616161"/>
</svg>
