<svg width="186" height="259" viewBox="0 0 186 259" fill="none" xmlns="http://www.w3.org/2000/svg">
<path d="M21.1291 258.112C10.2233 258.135 1.32964 249.423 1.30176 238.712L0.744108 19.5891C0.711581 8.80416 9.59602 0.0451722 20.5343 0.0684055L165.334 0.337906C176.239 0.356493 185.096 9.1294 185.096 19.8911V238.531C185.096 249.223 176.272 257.931 165.408 257.944L21.1291 258.112Z" fill="#C9C9C9"/>
<path d="M22.1374 258.916C11.3757 258.916 2.62137 250.189 2.62137 239.469V20.8716C2.62137 10.1425 11.3757 1.41602 22.1374 1.41602H164.837C175.603 1.41602 184.352 10.1378 184.352 20.8716V239.469C184.352 250.194 175.607 258.916 164.837 258.916H22.1374Z" fill="white"/>
<path d="M165.599 253.466H22.8948C14.5587 253.466 7.77917 246.71 7.77917 238.415V19.813C7.77917 11.8301 14.1172 5.32473 17.5186 4.07478L18.0204 3.89355L161.472 3.90288C175.659 5.01808 180.723 12.8523 180.723 19.8177V238.42C180.719 246.71 173.93 253.466 165.599 253.466ZM19.2239 9.86918C17.6859 10.831 13.7455 14.8597 13.7455 19.8177V238.42C13.7455 243.425 17.8485 247.5 22.8901 247.5H165.594C170.626 247.5 174.734 243.42 174.734 238.42V19.8177C174.734 14.2835 169.65 10.5662 161.124 9.86918H19.2239Z" fill="#333333"/>
<path d="M35.8078 27.1248C35.8078 28.1052 35.5662 29.1833 35.0923 30.3728C34.609 31.5577 34.0374 32.5056 33.3822 33.2026C33.1313 33.4675 32.7039 33.8531 32.0766 34.3643C31.1705 35.0984 30.2271 35.7536 29.256 36.3391C28.9725 36.5064 28.7635 36.6318 28.6287 36.7062C28.1966 36.9896 27.9782 37.1848 27.9782 37.301C27.9782 37.524 28.6473 37.9144 29.9902 38.458C31.189 38.9413 32.0951 39.2526 32.7038 39.3874C32.7735 39.4059 32.9036 39.4198 33.0942 39.4198H33.6006C33.7539 39.4198 33.9073 39.4198 34.0653 39.4198C34.2233 39.4198 34.3905 39.4431 34.5625 39.5035C34.4463 39.615 34.2233 39.7498 33.898 39.9078C33.5588 40.0704 33.2289 40.2284 32.8943 40.3771C32.4204 40.7906 32.0626 41.1113 31.8071 41.3204C31.5561 41.5388 31.3516 41.6456 31.1983 41.6456C30.7661 41.6456 30.046 41.1624 29.0516 40.2051C28.0525 39.2479 27.1046 38.76 26.1938 38.76C25.6316 38.76 25.0787 38.9738 24.5443 39.4059C24.0053 39.8241 23.6754 40.0332 23.5639 40.0332C23.3455 40.0332 23.2293 39.8845 23.2293 39.5779C23.2293 39.3781 23.5453 39.0249 24.1911 38.5323C24.6 38.2117 25.0183 37.9051 25.4365 37.603C24.4003 36.999 23.4012 36.367 22.4533 35.7025C21.5007 35.0474 20.6597 34.2342 19.9255 33.277C19.2796 32.4266 18.7917 31.5252 18.4572 30.5773C18.118 29.6247 17.9507 28.6396 17.9507 27.6266C17.9507 26.0746 18.2481 24.8247 18.8568 23.8628C19.0845 23.505 19.8001 22.7151 20.9989 21.4884C21.3799 21.112 22.3278 20.2988 23.8612 19.0582C25.7617 17.5155 26.9001 16.7441 27.2719 16.7441C27.6157 16.7441 28.2477 17.0694 29.1724 17.7292C30.3062 18.5192 31.6073 19.6715 33.0988 21.1817C34.0421 22.125 34.7298 23.0543 35.162 23.979C35.5848 24.9037 35.8078 25.9538 35.8078 27.1248ZM31.0264 29.778C31.0264 28.9091 30.8405 27.9565 30.4735 26.911C30.1064 25.8702 29.5905 24.8804 28.9354 23.9604C28.4289 23.2262 27.481 22.348 26.1102 21.3258C25.6595 20.9865 25.0136 20.5591 24.1865 20.0293C23.8613 20.0293 23.4616 20.5915 22.983 21.7067C22.4998 22.8312 22.2628 23.5561 22.2628 23.9C22.2628 25.4473 22.5927 26.8785 23.2525 28.1982C23.7962 29.3041 24.6419 30.4565 25.7942 31.646C26.2589 32.1339 27.4113 33.2119 29.2421 34.8661C29.8601 34.2853 30.3294 33.3931 30.6547 32.1804C30.9056 31.2743 31.0264 30.4797 31.0264 29.778Z" fill="#333333"/>
<path d="M153.42 233.471C153.42 232.491 153.666 231.413 154.144 230.223C154.623 229.038 155.199 228.095 155.859 227.393C156.105 227.133 156.533 226.743 157.156 226.241C158.048 225.502 158.991 224.842 159.985 224.257C160.255 224.085 160.464 223.973 160.599 223.89C161.04 223.606 161.249 223.411 161.249 223.3C161.249 223.077 160.585 222.686 159.237 222.138C158.038 221.65 157.128 221.343 156.528 221.209C156.454 221.19 156.319 221.181 156.138 221.181H155.622C155.473 221.181 155.315 221.181 155.157 221.181C154.999 221.181 154.828 221.158 154.67 221.097C154.776 220.986 154.999 220.851 155.329 220.684C155.659 220.526 155.994 220.372 156.333 220.219C156.798 219.81 157.165 219.489 157.425 219.276C157.671 219.057 157.88 218.955 158.024 218.955C158.452 218.955 159.177 219.438 160.167 220.391C161.17 221.357 162.127 221.836 163.034 221.836C163.596 221.836 164.149 221.627 164.688 221.195C165.213 220.777 165.547 220.563 165.659 220.563C165.891 220.563 166.003 220.716 166.003 221.018C166.003 221.223 165.673 221.576 165.036 222.068C164.623 222.389 164.214 222.696 163.8 222.993C164.827 223.602 165.836 224.229 166.779 224.894C167.736 225.553 168.582 226.362 169.316 227.319C169.952 228.174 170.445 229.071 170.784 230.023C171.114 230.971 171.286 231.961 171.286 232.974C171.286 234.521 170.993 235.771 170.38 236.738C170.157 237.096 169.437 237.881 168.233 239.108C167.852 239.484 166.895 240.297 165.375 241.542C163.475 243.085 162.337 243.857 161.96 243.857C161.616 243.857 160.994 243.527 160.06 242.871C158.931 242.077 157.62 240.934 156.138 239.424C155.195 238.48 154.507 237.546 154.065 236.622C153.638 235.692 153.42 234.642 153.42 233.471ZM158.196 230.823C158.196 231.687 158.378 232.64 158.749 233.69C159.116 234.731 159.632 235.716 160.292 236.64C160.794 237.374 161.737 238.248 163.122 239.27C163.563 239.609 164.209 240.046 165.032 240.567C165.352 240.567 165.757 240.009 166.23 238.889C166.718 237.76 166.955 237.04 166.955 236.696C166.955 235.149 166.625 233.718 165.975 232.403C165.422 231.287 164.576 230.14 163.428 228.95C162.95 228.458 161.811 227.389 159.985 225.73C159.363 226.315 158.884 227.212 158.563 228.42C158.317 229.317 158.196 230.121 158.196 230.823Z" fill="#333333"/>
<path d="M122.027 73.083L121.748 76.9723L121.562 79.3514L120.837 89.509L120.67 91.8881L120.447 95.1315V95.1454L120.214 98.1378L117.9 98.1936L116.808 98.2075L114.541 98.2586L113.258 98.2866L111.688 98.3191L108.909 98.3702L105.828 98.4399L91.3726 98.7466H91.3494L76.9028 98.4399L73.8175 98.3702L71.0481 98.3191L69.4821 98.2866L68.195 98.2586L67.0659 98.2355L65.9274 98.2075L64.8262 98.1936L62.5215 98.1378L62.2891 95.1454V95.1315L62.0707 91.8881L61.8848 89.509L61.1739 79.3514L60.9881 76.9723L60.7046 73.083H122.027Z" fill="#C9C9C9"/>
<path opacity="0.2" d="M119.49 80.3458C116.734 83.2871 108.598 86.1401 101.47 86.1401H101.382C99.8388 88.115 98.0127 89.6298 96.0053 90.4894C94.7414 91.0331 93.3939 91.3212 92.0232 91.3212C91.9349 91.3212 91.8373 91.3072 91.7537 91.2979C91.7397 91.2979 91.7397 91.2979 91.7304 91.2979V73.083L119.49 80.3458Z" fill="#616161"/>
<path d="M131.817 113.073L120.191 116.54L119.104 116.879L118.783 116.967C117.863 115.452 117.129 114.314 116.813 113.817C116.692 113.659 116.632 113.561 116.595 113.561C116.581 113.561 116.558 113.612 116.534 113.635C115.54 115.271 115.001 116.79 114.671 118.198L111.558 119.137L91.3912 125.168L78.808 128.914L74.6074 130.164C74.4587 129.666 74.2868 129.151 74.0684 128.57C66.8057 125.447 70.1094 120.461 66.5594 114.216C66.4385 113.979 66.3038 113.784 66.1551 113.561C65.7277 114.077 57.517 126.6 56.0998 135.702L55.0914 135.977L46.9226 138.425H46.7228C46.588 120.526 52.0432 108.58 57.0662 101.35C57.424 100.857 57.7586 100.378 58.1164 99.9417C58.4602 99.5188 58.7763 99.0588 59.0969 98.701L59.1154 98.6778C59.1154 98.6407 59.1154 98.622 59.1154 98.622C59.371 98.3665 59.6126 98.0458 59.8775 97.7903C59.9751 97.6416 60.0726 97.5254 60.1934 97.4139C60.3096 97.2466 60.449 97.0886 60.5884 96.9492C61.2111 96.2708 61.7872 95.6575 62.303 95.137H62.3263C62.461 94.9976 62.5818 94.8815 62.7166 94.7421C62.8374 94.6445 62.9628 94.5004 63.0836 94.4028C63.2045 94.3052 63.316 94.203 63.4415 94.0822C63.6599 93.887 63.8596 93.7244 64.0548 93.5665C64.8494 92.8695 65.3513 92.5489 65.3513 92.5489L67.2378 92.9902L67.5538 93.0693L68.3158 93.2923L68.5249 93.3109L71.1456 93.2133L75.2114 93.0553L79.5236 92.8695L91.3726 92.3955H91.3958L103.477 92.8927L107.557 93.0506L111.627 93.2087L114.248 93.3063L114.466 93.2877L115.215 93.0646L115.545 92.9856L117.417 92.5442C117.417 92.5442 117.919 92.8601 118.718 93.5618C118.913 93.7198 119.113 93.8778 119.341 94.0776C119.452 94.1984 119.559 94.3006 119.685 94.3982C119.806 94.4958 119.931 94.6398 120.043 94.7374L120.447 95.1324H120.47C120.582 95.23 120.702 95.374 120.837 95.532C120.986 95.6528 121.144 95.7922 121.279 95.9642C121.562 96.2662 121.878 96.5636 122.175 96.9446C122.361 97.1026 122.519 97.2838 122.7 97.5068C122.71 97.5486 122.747 97.5858 122.798 97.6183C122.835 97.6787 122.858 97.702 122.896 97.7857C123.156 98.0412 123.383 98.3618 123.653 98.6174C123.653 98.6174 123.667 98.6313 123.667 98.6731V98.6964C123.988 99.0542 124.303 99.5142 124.661 99.9371C125.005 100.374 125.349 100.852 125.702 101.345C127.798 104.416 129.991 108.296 131.817 113.073Z" fill="#FDD8AB"/>
<path opacity="0.2" d="M91.3633 105.492H94.0212L92.8317 115.078C92.3438 115.102 91.8512 115.115 91.3633 115.129V105.492Z" fill="#616161"/>
<path opacity="0.2" d="M91.3727 73.0928L61.9685 77.4095C66.5501 83.8638 74.5145 86.1406 81.6472 86.1406H81.7215C84.2446 89.3607 87.5159 91.3217 91.0938 91.3217C91.1914 91.3217 91.289 91.3031 91.3773 91.3031L91.3727 73.0928Z" fill="#616161"/>
<path opacity="0.2" d="M91.3726 105.488H88.7147L89.8996 115.074C90.3875 115.098 90.8801 115.112 91.368 115.125V105.488H91.3726Z" fill="#616161"/>
<path opacity="0.2" d="M81.6843 113.548C68.195 110.569 60.8812 106.03 57.057 101.369C59.845 97.3682 62.5215 94.8311 64.027 93.5439L81.6843 113.548Z" fill="#616161"/>
<path d="M91.3726 87.3409C91.289 87.3409 91.1867 87.3502 91.0892 87.3502C89.7556 87.3502 88.4684 87.0807 87.2417 86.5742C87.1674 86.8902 87.107 87.2155 87.107 87.5547V89.2739C88.3802 89.8315 89.7045 90.1149 91.0892 90.1149C91.1867 90.1149 91.2843 90.1011 91.3726 90.1011V87.3409Z" fill="#FDD8AB"/>
<path d="M91.3726 83.4573C91.3262 83.4526 91.289 83.4434 91.2286 83.4434C89.2909 83.4434 87.6878 84.7769 87.2464 86.5798C88.4731 87.0863 89.7602 87.3558 91.0938 87.3558C91.1914 87.3558 91.289 87.3465 91.3772 87.3465L91.3726 83.4573Z" fill="#FDD8AB"/>
<path d="M115.043 92.0619L107.887 91.9643L95.6197 91.8156V89.2832C94.3465 89.8408 93.0083 90.1242 91.6375 90.1242C91.5539 90.1242 91.4656 90.1103 91.368 90.1103C91.368 90.1103 91.368 90.1103 91.3587 90.1103C91.2611 90.1103 91.1729 90.1242 91.0892 90.1242C89.7045 90.1242 88.3802 89.8408 87.107 89.2832V91.8156L74.8445 91.9643L67.6886 92.0619C66.4387 94.2505 66.9916 94.4596 66.9916 96.9688C66.9916 103.219 71.3037 108.729 77.8741 112.001C77.9112 112.024 77.9205 112.029 77.9577 112.038C79.1333 112.619 80.3879 113.135 81.6844 113.543C84.2214 114.389 86.9908 114.914 89.9043 115.068C90.0669 115.077 90.2249 115.091 90.3829 115.1C90.6989 115.114 91.0335 115.114 91.3634 115.123C91.3727 115.123 91.3727 115.123 91.3727 115.123C91.7026 115.114 92.0372 115.109 92.3531 115.1C92.5158 115.095 92.6737 115.081 92.8317 115.068C95.7359 114.914 98.5053 114.389 101.052 113.543C102.362 113.135 103.603 112.619 104.778 112.038C104.815 112.033 104.829 112.029 104.867 112.001C111.432 108.729 115.744 103.214 115.744 96.9688C115.744 94.4596 116.293 94.2505 115.043 92.0619Z" fill="#FDD8AB"/>
<path opacity="0.2" d="M81.6844 113.549C80.374 113.061 79.138 112.559 77.9577 112.043C77.9205 112.039 77.9112 112.034 77.8741 112.006C71.3083 108.735 66.9916 103.219 66.9916 96.9742C66.9916 94.4603 66.4387 94.2559 67.6886 92.0673L74.8445 91.9697L81.6844 113.549Z" fill="#616161"/>
<path opacity="0.2" d="M101.052 113.549C102.362 113.061 103.603 112.559 104.778 112.043C104.815 112.039 104.829 112.034 104.867 112.006C111.432 108.735 115.744 103.219 115.744 96.9742C115.744 94.4603 116.297 94.2559 115.047 92.0673L107.892 91.9697L101.052 113.549Z" fill="#616161"/>
<path d="M91.3634 87.3458C91.447 87.3458 91.5446 87.3551 91.6422 87.3551C92.9804 87.3551 94.2675 87.0856 95.4896 86.5791C95.5639 86.8951 95.6244 87.2203 95.6244 87.5595V89.2788C94.3512 89.8364 93.013 90.1198 91.6422 90.1198C91.5446 90.1198 91.447 90.1059 91.3634 90.1059V87.3458Z" fill="#FDD8AB"/>
<path d="M91.3634 83.4582C91.4145 83.4536 91.447 83.4443 91.4981 83.4443C93.4358 83.4443 95.0528 84.7779 95.4943 86.5808C94.2675 87.0873 92.985 87.3568 91.6468 87.3568C91.5492 87.3568 91.4517 87.3475 91.368 87.3475L91.3634 83.4582Z" fill="#FDD8AB"/>
<path d="M131.817 113.074L120.191 116.541L119.104 116.88L118.783 116.968C117.863 115.453 117.129 114.315 116.813 113.818C116.692 113.66 116.632 113.562 116.595 113.562C116.581 113.562 116.558 113.613 116.534 113.636C115.54 115.272 115.001 116.791 114.671 118.199L111.558 119.138L91.3912 125.169L78.808 128.915L74.6074 130.164C74.4587 129.667 74.2868 129.152 74.0684 128.571C66.8057 125.448 70.1094 120.462 66.5594 114.217C66.4385 113.98 66.3038 113.785 66.1551 113.562C65.7277 114.078 57.517 126.601 56.0998 135.703L55.0914 135.978L46.9226 138.426H46.7228C46.588 120.527 52.0432 108.581 57.0662 101.351C57.424 100.858 57.7586 100.379 58.1164 99.9426C58.4602 99.5197 58.7763 99.0597 59.0969 98.7019L59.1154 98.6787C59.1154 98.6416 59.1154 98.6229 59.1154 98.6229C59.371 98.3674 59.6126 98.0468 59.8775 97.7912C59.9147 97.7308 59.9565 97.6843 59.9751 97.6425C60.0541 97.5589 60.1145 97.4891 60.1934 97.4102L69.5565 105.584L71.0016 106.861L71.4431 106.132C72.7023 106.406 74.0173 106.564 75.3508 106.564C77.9623 106.564 87.1999 103.679 89.184 102.503H94.4069C96.8232 103.953 107.027 106.522 109.527 106.522C110.364 106.522 111.181 106.462 111.976 106.364L112.97 107.935L115.052 105.704L122.71 97.5031C122.719 97.5449 122.756 97.5821 122.807 97.6146C122.844 97.675 122.868 97.6983 122.905 97.7819C123.165 98.0375 123.393 98.3581 123.662 98.6137C123.662 98.6137 123.676 98.6276 123.676 98.6694V98.6926C123.862 98.8924 124.043 99.1294 124.238 99.385C124.373 99.5709 124.508 99.7475 124.666 99.9287C125.01 100.365 125.354 100.844 125.707 101.337C127.798 104.417 129.991 108.297 131.817 113.074Z" fill="#333333"/>
<path opacity="0.2" d="M125.679 101.368C121.859 106.024 114.546 110.568 101.052 113.547L108.366 105.252L108.821 104.755L114.541 98.2637L115.74 96.8976L118.69 93.5566C118.886 93.7146 119.095 93.8866 119.318 94.091C119.425 94.1886 119.55 94.3048 119.662 94.4117C119.782 94.5092 119.917 94.6347 120.043 94.7416C120.163 94.8717 120.289 94.9971 120.433 95.1272H120.447V95.1412C120.568 95.248 120.693 95.3735 120.828 95.5222C120.977 95.6662 121.125 95.8056 121.255 95.959C121.548 96.2656 121.855 96.5862 122.161 96.9254C122.366 97.1485 122.552 97.3716 122.775 97.6039C122.812 97.6504 122.858 97.7014 122.896 97.7479C123.128 98.0174 123.37 98.3102 123.63 98.6308C123.63 98.6308 123.639 98.6447 123.639 98.6586H123.653V98.6726C123.974 99.0769 124.29 99.4904 124.633 99.9226C124.991 100.387 125.335 100.866 125.679 101.368Z" fill="#616161"/>
<path d="M127.417 87.4413C127.417 88.273 127.37 89.114 127.236 89.9876C126.841 92.757 125.777 95.6984 123.658 98.6629V98.6769C121.622 101.502 118.635 104.337 114.383 107.064C114.137 107.227 113.853 107.399 113.588 107.566C111.112 109.09 108.221 110.582 104.867 112.008C104.806 112.055 104.732 112.078 104.657 112.115C104.606 112.138 104.546 112.161 104.499 112.18C104.29 112.264 104.095 112.347 103.886 112.436C103.287 112.687 102.659 112.937 102.023 113.184C101.707 113.305 101.386 113.43 101.052 113.551L108.909 98.3749L111.604 93.2031L112.204 92.0228L122.031 73.083C122.031 73.083 127.417 79.2631 127.417 87.4413Z" fill="#EBEBEB"/>
<path d="M81.6843 113.547C76.6613 111.66 72.5304 109.639 69.1522 107.566C68.8827 107.394 68.6133 107.223 68.3577 107.055C59.622 101.456 56.2531 95.4061 55.4957 89.9835C55.3702 89.1192 55.3192 88.2735 55.3192 87.4417C55.3238 79.2636 60.7093 73.0928 60.7093 73.0928L81.6843 113.547Z" fill="#EBEBEB"/>
<path d="M64.0502 97.1546L66.578 100.519L65.4396 96.4668L64.0502 97.1546Z" fill="#333333"/>
<path d="M72.7999 105.314L75.337 108.673L74.1846 104.626L72.7999 105.314Z" fill="#333333"/>
<path d="M59.4454 77.075L61.9685 80.4345L60.8301 76.3779L59.4454 77.075Z" fill="#333333"/>
<path d="M62.791 84.1359L65.3142 87.4908L64.1757 83.4482L62.791 84.1359Z" fill="#333333"/>
<path d="M66.1227 91.1914L68.6458 94.5556L67.5074 90.499L66.1227 91.1914Z" fill="#333333"/>
<path d="M69.4682 98.2477L71.9914 101.617L70.853 97.5693L69.4682 98.2477Z" fill="#333333"/>
<path d="M69.1477 107.567C68.8781 107.395 68.6086 107.223 68.353 107.056L66.8708 105.095L68.2555 104.402L69.1477 107.567Z" fill="#333333"/>
<path d="M57.3683 83.0287L59.9007 86.3883L58.753 82.3457L57.3683 83.0287Z" fill="#333333"/>
<path d="M60.7046 90.0839L63.2417 93.4527L62.0893 89.4102L60.7046 90.0839Z" fill="#333333"/>
<path d="M56.5784 91.434L55.4957 89.9888C55.3702 89.1246 55.3192 88.2789 55.3192 87.4471L55.4353 87.3867L56.5784 91.434Z" fill="#333333"/>
<path d="M58.8506 96.4321L61.3784 99.8009L60.2353 95.749L58.8506 96.4321Z" fill="#333333"/>
<path d="M118.686 97.1546L116.163 100.519L117.301 96.4668L118.686 97.1546Z" fill="#333333"/>
<path d="M109.936 105.314L107.413 108.673L108.551 104.626L109.936 105.314Z" fill="#333333"/>
<path d="M123.277 77.075L120.767 80.4345L121.906 76.3779L123.277 77.075Z" fill="#333333"/>
<path d="M119.945 84.1359L117.422 87.4908L118.56 83.4482L119.945 84.1359Z" fill="#333333"/>
<path d="M116.613 91.1914L114.076 94.5556L115.229 90.499L116.613 91.1914Z" fill="#333333"/>
<path d="M113.268 98.2477L110.745 101.617L111.897 97.5693L113.268 98.2477Z" fill="#333333"/>
<path d="M113.268 105.986C113.551 105.814 115.596 103.979 115.596 103.979L114.211 103.291L113.268 105.986Z" fill="#333333"/>
<path d="M125.363 83.0287L122.84 86.3883L123.978 82.3457L125.363 83.0287Z" fill="#333333"/>
<path d="M122.027 90.0839L119.49 93.4527L120.642 89.4102L122.027 90.0839Z" fill="#333333"/>
<path d="M127.417 87.4425C127.417 88.2743 127.37 89.1153 127.236 89.9888L126.148 91.4293L127.301 87.3867L127.417 87.4425Z" fill="#333333"/>
<path d="M123.881 96.4321L121.353 99.8009L122.491 95.749L123.881 96.4321Z" fill="#333333"/>
<path d="M88.5568 77.9551L86.7818 80.8825C83.1667 80.8825 79.9326 80.8825 78.0739 80.8592C81.9028 80.8592 85.5039 79.8463 88.5568 77.9551Z" fill="#333333"/>
<path d="M104.067 80.9187C102.181 80.9187 99.2255 80.9187 95.945 80.9001L94.0956 77.9727C96.9998 79.7244 100.401 80.8211 104.067 80.9187Z" fill="#333333"/>
<path d="M104.56 80.9461C104.486 80.9461 104.388 80.9461 104.314 80.9229C106.553 80.9461 107.13 80.9461 104.56 80.9461Z" fill="#333333"/>
<path d="M128.239 64.7316C128.263 75.0936 119.857 83.4901 109.504 83.4715C107.004 83.4715 96.8 80.902 94.3837 79.4522H89.1608C87.1767 80.6278 77.9391 83.5133 75.3277 83.5133C65.5511 83.4901 57.6193 75.5861 57.6007 65.8188C57.6193 56.5116 64.8169 48.8678 73.9337 48.1755C73.1995 46.2053 72.8046 44.0864 72.8046 41.842C72.8046 40.9638 72.8557 40.0903 72.9997 39.2306V39.212C73.1066 38.1944 73.3529 37.2 73.6502 36.2428V36.2242C76.0665 28.6641 83.1341 23.1625 91.5399 23.1485C99.7227 23.1253 106.707 28.3806 109.244 35.7131C109.602 36.7121 109.857 37.7204 110.015 38.7752C110.187 39.7742 110.275 40.8105 110.275 41.8467C110.299 43.2965 110.089 44.6765 109.797 46.0287C120.019 46.2006 128.239 54.4996 128.239 64.7316Z" fill="#333333"/>
<path opacity="0.2" d="M78.8035 128.901L74.5889 130.161C74.4449 129.673 74.259 129.129 74.0499 128.581C66.5269 125.361 70.3233 120.142 66.1459 113.553C65.6906 114.079 57.4892 126.615 56.072 135.69L55.0683 135.997C52.9076 126.536 67.21 110.687 67.21 110.687C67.21 110.687 73.6224 126.499 78.8035 128.901Z" fill="#616161"/>
<path opacity="0.2" d="M120.177 116.551L119.099 116.88L118.769 116.978C117.849 115.445 117.124 114.325 116.795 113.832C116.688 113.67 116.613 113.577 116.59 113.549C115.549 115.203 114.996 116.75 114.652 118.209L111.544 119.143C113.858 114.794 115.526 110.687 115.526 110.687C115.526 110.687 117.668 113.084 120.177 116.551Z" fill="#616161"/>
<path opacity="0.2" d="M99.3974 86.4473L95.6151 89.2771C94.3651 89.8347 93.0268 90.1367 91.6561 90.1367C91.5585 90.1367 91.447 90.1135 91.3727 90.1135C91.2751 90.1135 91.1775 90.1367 91.0892 90.1367C89.7184 90.1367 88.3802 89.8347 87.107 89.2771L83.385 86.4705L84.5606 84.5329C86.8793 85.6852 90.1599 87.3627 91.0892 87.3627C91.1728 87.3627 91.2751 87.3395 91.3494 87.3395C91.3494 87.3395 91.3494 87.3395 91.3727 87.3395C91.4703 87.3395 91.5585 87.3627 91.6561 87.3627C92.5157 87.3627 95.4756 85.4111 97.8036 83.873L99.3974 86.4473Z" fill="#616161"/>
<path d="M96.3586 45.4521C94.1654 45.6845 92.302 47.032 91.3587 48.9232C90.4155 47.032 88.5661 45.6845 86.3729 45.4521C80.9363 48.5515 77.061 56.4461 77.061 65.693C77.061 72.2634 79.0219 78.1414 82.098 82.1097C82.1073 82.1329 82.1212 82.1608 82.1444 82.184C82.1444 82.184 82.1444 82.184 82.1444 82.1979C83.7382 84.2099 85.6108 85.7294 87.6693 86.5844C88.8449 87.0677 90.0809 87.3325 91.3587 87.3557C91.368 87.3557 91.368 87.3557 91.368 87.3557C92.6552 87.3325 93.8773 87.063 95.0575 86.5844C97.116 85.7294 98.9886 84.2099 100.573 82.1979C100.582 82.184 100.582 82.184 100.582 82.184C100.606 82.1608 100.62 82.1375 100.634 82.1097C103.71 78.1414 105.666 72.2634 105.666 65.693C105.67 56.4461 101.8 48.5515 96.3586 45.4521Z" fill="#FDD8AB"/>
<path d="M101.382 43.9057C101.395 41.5777 91.275 31.6338 91.275 31.6338C91.275 31.6338 81.4102 41.889 81.4009 43.8684C81.4009 47.2047 84.1053 49.9184 87.4416 49.9184C88.58 49.9231 89.658 49.6164 90.5641 49.0588L92.209 49.0635C93.1151 49.6164 94.1793 49.9324 95.3177 49.9417C98.6633 49.951 101.382 47.2513 101.382 43.9057Z" fill="#333333"/>
<path d="M80.6668 64.4443C80.5924 64.6023 80.5552 64.765 80.5552 64.9462C80.5552 66.0521 81.926 66.9489 83.6081 66.9489C85.2855 66.9489 86.6563 66.0521 86.6563 64.9462C86.6563 64.765 86.6099 64.6023 86.5448 64.4443H80.6668Z" fill="#333333"/>
<path d="M102.069 64.4443C102.13 64.6023 102.176 64.765 102.176 64.9462C102.176 66.0521 100.805 66.9489 99.128 66.9489C97.4366 66.9489 96.0751 66.0521 96.0751 64.9462C96.0751 64.765 96.1123 64.6023 96.1727 64.4443H102.069Z" fill="#333333"/>
<path d="M95.3455 79.4482H91.3772H91.368H87.3951C88.1897 80.503 89.6626 81.2232 91.368 81.2418C91.3773 81.2418 91.3772 81.2418 91.3772 81.2418C93.0779 81.2232 94.5463 80.503 95.3455 79.4482Z" fill="#454545"/>
<path d="M91.3634 79.2351C89.5605 77.1162 86.9908 79.7926 86.9908 79.7926H91.3634H91.3727H95.7452C95.7452 79.7926 93.1756 77.1162 91.3634 79.2351Z" fill="#333333"/>
<path opacity="0.2" d="M91.3727 67.8247V67.7549L91.3634 67.7921V67.7549V67.8247L89.0679 75.1431H91.3634H91.3727H93.6635L91.3727 67.8247Z" fill="#616161"/>
<path d="M95.7452 60.0732L101.8 60.4032H101.888L101.925 60.4543L104.323 63.0797L101.679 60.7192L101.8 60.7656L95.7452 61.063V60.0732Z" fill="#333333"/>
<path d="M87.516 61.063L81.4613 60.7656L81.5868 60.7192L78.9243 63.0797L81.3266 60.4543L81.3777 60.4032H81.4474L87.502 60.0732L87.516 61.063Z" fill="#333333"/>
<path opacity="0.2" d="M96.0518 24.8613C96.1122 24.5036 96.1495 24.1504 96.1402 23.7787C96.0519 21.2044 93.8633 19.1878 91.2519 19.1738C88.58 19.1738 86.3031 21.2184 86.1823 23.8763C86.1452 24.4617 86.2288 25.024 86.4147 25.5537C83.8544 25.7767 81.6518 27.9421 81.4148 30.6372C81.1825 33.6017 83.4268 35.9947 86.3775 35.8693C87.1627 35.8414 89.9183 34.8238 90.5084 34.4428L86.7353 41.292L95.629 40.7669L92.0139 34.3684C92.7109 34.7866 95.6522 35.4558 96.3632 35.4325C99.2766 35.3024 101.409 32.7142 101.177 29.7729C100.968 27.0127 98.7004 24.866 96.0518 24.8613Z" fill="#616161"/>
<path d="M95.6755 25.0147C95.7359 24.6709 95.7963 24.3223 95.7823 23.9506C95.8055 21.3252 93.6774 19.1831 91.0521 19.1738C88.4174 19.1738 86.2753 21.2834 86.2613 23.9088C86.2613 24.4757 86.3589 25.0147 86.5401 25.5165C84.2261 25.6884 82.3999 27.6215 82.3767 29.982C82.3767 32.4726 84.3841 34.4846 86.8607 34.4939C87.5252 34.5032 89.8764 33.7783 90.3876 33.4855L87.3115 38.6991L94.7369 38.7224L91.7119 33.4902C92.3252 33.8573 94.9088 34.5265 95.5454 34.5265C98.18 34.5404 100.322 32.4122 100.322 29.7822C100.341 27.1893 98.259 25.0658 95.6755 25.0147Z" fill="#FFD675"/>
<path opacity="0.2" d="M91.0567 34.3298L93.0176 37.7311L89.0586 37.7126L91.0567 34.3298ZM86.8793 33.5073C84.9416 33.498 83.3757 31.9135 83.3757 29.9852C83.3897 28.173 84.8209 26.6442 86.6238 26.5141L87.9341 26.4165L87.4927 25.1898C87.344 24.7762 87.2696 24.3534 87.2696 23.9213C87.2836 21.8489 88.975 20.1714 91.0474 20.1807C92.065 20.1807 93.0083 20.5757 93.7192 21.2959C94.4301 22.0068 94.8066 22.9501 94.7973 23.9538C94.8066 24.214 94.774 24.4742 94.6996 24.8134L94.4394 25.9937L95.6522 26.0169C97.7014 26.0541 99.351 27.7501 99.3417 29.79C99.3417 30.7937 98.9514 31.737 98.2265 32.4479C97.5155 33.1588 96.5723 33.5445 95.5547 33.5399C95.076 33.5399 92.6737 32.9126 92.2323 32.6523L91.7816 33.0984L89.895 32.6431C89.4861 32.8615 87.344 33.5027 86.8793 33.5073Z" fill="#616161"/>
<path opacity="0.2" d="M95.55 45.5859C95.8195 45.5162 96.0891 45.4744 96.3586 45.4512C96.0891 45.4744 95.8241 45.5162 95.55 45.5859Z" fill="#616161"/>
<path opacity="0.2" d="M94.0677 46.1461C94.1183 46.1139 94.1643 46.1001 94.2149 46.0771C94.1689 46.1047 94.1183 46.1185 94.0677 46.1461Z" fill="#616161"/>
<path opacity="0.2" d="M125.693 101.348C125.335 100.856 124.996 100.377 124.652 99.9402C124.457 99.7032 124.271 99.4616 124.09 99.2247C123.955 99.0527 123.797 98.8576 123.662 98.6903V98.6764V98.6717V98.6624C125.781 95.6978 126.85 92.7565 127.24 89.9871C127.375 89.1135 127.422 88.2725 127.422 87.4407C127.422 82.8545 125.721 78.9001 124.234 76.312C126.748 73.115 128.253 69.1003 128.239 64.7232C128.239 54.4912 120.019 46.1969 109.801 46.0157C110.099 44.6635 110.303 43.2835 110.28 41.8337C110.28 40.7975 110.192 39.7659 110.02 38.7622C109.862 37.7074 109.606 36.6991 109.248 35.7001C107.204 29.7895 102.255 25.2265 96.1262 23.6931C95.9915 21.156 93.8354 19.1812 91.2472 19.1719C91.21 19.1719 91.1868 19.1812 91.1497 19.1812V125.232L91.382 125.162L111.535 119.131V119.136L114.643 118.202V118.197L114.657 118.188C114.964 116.91 115.452 115.539 116.274 114.08C116.372 113.913 116.446 113.755 116.558 113.597C116.558 113.574 116.567 113.555 116.581 113.555L116.59 113.564C116.627 113.601 116.688 113.676 116.785 113.824C117.115 114.317 117.84 115.442 118.76 116.97L118.932 116.914L119.095 116.873L120.182 116.533L131.808 113.067C129.991 108.295 127.798 104.415 125.693 101.348Z" fill="#616161"/>
<path d="M56.518 188.067L56.7922 184.168L56.978 181.794L57.6982 171.641L57.8794 169.257L58.0978 166.009V166L58.3162 163.002L60.6349 162.951L61.7362 162.937L64.0038 162.882L65.2909 162.854L66.8568 162.826L69.6262 162.77L72.7023 162.7L87.1581 162.398H87.1953L101.642 162.7L104.718 162.77L107.497 162.826L109.053 162.854L110.354 162.882L111.479 162.91L112.617 162.937L113.709 162.951L116.023 163.002L116.246 166V166.009L116.479 169.257L116.65 171.641L117.371 181.794L117.557 184.168L117.826 188.067H56.518Z" fill="#C9C9C9"/>
<path opacity="0.2" d="M59.0411 180.797C61.8105 177.855 69.9468 175.007 77.0748 175.007H77.1492C78.7058 173.023 80.532 171.517 82.5393 170.653C83.7986 170.114 85.1507 169.821 86.5215 169.821C86.5958 169.821 86.7027 169.835 86.777 169.845C86.8003 169.845 86.8003 169.845 86.8143 169.845V188.059L59.0411 180.797Z" fill="#616161"/>
<path d="M46.7134 148.067L58.3394 144.601L59.436 144.266L59.7567 144.192C60.6674 145.698 61.4016 146.836 61.7361 147.333C61.843 147.491 61.908 147.589 61.9452 147.589C61.9684 147.589 61.9917 147.528 62.0056 147.51C62.9954 145.869 63.539 144.359 63.8782 142.951L66.9776 142.013L87.158 135.981L99.7412 132.236L103.942 130.981C104.077 131.474 104.258 131.999 104.481 132.575C111.748 135.703 108.44 140.679 111.994 146.934C112.101 147.166 112.25 147.375 112.385 147.589C112.826 147.078 121.023 134.55 122.445 125.452L123.462 125.168L131.622 122.72H131.822C131.97 140.623 126.501 152.575 121.492 159.796C121.134 160.297 120.795 160.776 120.437 161.213C120.094 161.631 119.778 162.096 119.457 162.453L119.434 162.467C119.434 162.514 119.434 162.528 119.434 162.528C119.178 162.783 118.946 163.104 118.686 163.369C118.574 163.504 118.477 163.624 118.37 163.75C118.249 163.903 118.1 164.061 117.965 164.205C117.352 164.879 116.781 165.497 116.251 166.017H116.237C116.088 166.152 115.981 166.278 115.833 166.408C115.712 166.51 115.6 166.654 115.475 166.752C115.354 166.849 115.242 166.947 115.122 167.072C114.899 167.267 114.703 167.43 114.494 167.583C113.7 168.28 113.207 168.601 113.207 168.601L111.307 168.164L110.991 168.085L110.243 167.867L110.038 167.848L107.417 167.946L103.352 168.104L99.0396 168.285L87.1952 168.764H87.172L75.0767 168.266L70.9969 168.108L66.9404 167.95L64.3057 167.853L64.0873 167.871L63.3531 168.09L63.0093 168.169L61.146 168.606C61.146 168.606 60.6441 168.285 59.8495 167.588C59.6497 167.435 59.45 167.272 59.213 167.077C59.1154 166.956 58.9946 166.854 58.8784 166.756C58.7576 166.659 58.6368 166.515 58.516 166.412L58.121 166.022H58.1024C57.9816 165.915 57.8608 165.78 57.7214 165.618C57.582 165.502 57.424 165.362 57.2893 165.181C57.0058 164.884 56.6898 164.582 56.3878 164.21C56.2066 164.052 56.0486 163.871 55.8721 163.648C55.8488 163.606 55.8116 163.569 55.7744 163.527C55.7326 163.466 55.714 163.448 55.6722 163.378C55.412 163.113 55.175 162.793 54.9195 162.537C54.9195 162.537 54.9009 162.523 54.9009 162.477V162.463C54.5756 162.105 54.2596 161.64 53.9018 161.222C53.5673 160.785 53.2234 160.307 52.8657 159.805C50.7375 156.729 48.5489 152.844 46.7134 148.067Z" fill="#FDD8AB"/>
<path opacity="0.2" d="M87.186 155.655H84.5281L85.7176 146.069C86.1962 146.045 86.6981 146.032 87.186 146.018V155.655Z" fill="#616161"/>
<path opacity="0.2" d="M87.1719 188.055L116.567 183.738C111.985 177.293 104.035 175.007 96.902 175.007H96.8277C94.2906 171.782 91.0333 169.821 87.4554 169.821C87.3578 169.821 87.2602 169.84 87.1719 169.84V188.055Z" fill="#616161"/>
<path opacity="0.2" d="M87.1719 155.654H89.8299L88.6403 146.068C88.1524 146.044 87.6598 146.031 87.1719 146.017V155.654Z" fill="#616161"/>
<path opacity="0.2" d="M96.8649 147.596C110.34 150.574 117.668 155.109 121.478 159.775C118.695 163.78 116.028 166.308 114.508 167.604L96.8649 147.596Z" fill="#616161"/>
<path d="M87.172 173.803C87.2603 173.803 87.3579 173.785 87.4554 173.785C88.7937 173.785 90.0762 174.063 91.3029 174.57C91.3772 174.254 91.4236 173.929 91.4236 173.585V171.87C90.1644 171.317 88.8262 171.024 87.4508 171.024C87.3532 171.024 87.2556 171.038 87.1673 171.038V173.803H87.172Z" fill="#FDD8AB"/>
<path d="M87.172 177.682C87.2092 177.682 87.2603 177.7 87.3207 177.7C89.2537 177.7 90.8615 176.357 91.3029 174.564C90.0762 174.057 88.7937 173.778 87.4555 173.778C87.3579 173.778 87.2603 173.797 87.172 173.797V177.682Z" fill="#FDD8AB"/>
<path d="M63.5019 169.087L70.6577 169.184L82.9203 169.342V171.865C84.1842 171.312 85.5177 171.02 86.9024 171.02C86.9907 171.02 87.0744 171.029 87.1719 171.033C87.1859 171.033 87.1859 171.033 87.1859 171.033C87.2696 171.029 87.3578 171.02 87.4554 171.02C88.8262 171.02 90.1644 171.312 91.4283 171.865V169.342L103.705 169.184L110.861 169.087C112.111 166.903 111.558 166.689 111.558 164.175C111.558 157.921 107.246 152.41 100.68 149.143C100.643 149.12 100.629 149.106 100.592 149.101C99.4159 148.525 98.166 148.014 96.8696 147.596C94.3185 146.755 91.5491 146.225 88.6449 146.076C88.487 146.067 88.3289 146.053 88.171 146.044C87.8503 146.03 87.5204 146.03 87.1905 146.021C87.1905 146.021 87.1906 146.021 87.1766 146.021C86.8467 146.03 86.5167 146.034 86.1961 146.044C86.0381 146.053 85.8802 146.062 85.7175 146.076C82.8134 146.23 80.0301 146.755 77.493 147.596C76.1826 148.014 74.9327 148.525 73.757 149.101C73.7338 149.106 73.7198 149.115 73.6827 149.143C67.1123 152.41 62.8048 157.925 62.8048 164.175C62.8048 166.684 62.238 166.903 63.5019 169.087Z" fill="#FDD8AB"/>
<path opacity="0.2" d="M96.8649 147.596C98.1752 148.088 99.4112 148.59 100.587 149.101C100.624 149.106 100.638 149.115 100.675 149.143C107.241 152.41 111.553 157.925 111.553 164.175C111.553 166.689 112.106 166.903 110.856 169.087L103.7 169.184L96.8649 147.596Z" fill="#616161"/>
<path opacity="0.2" d="M77.493 147.596C76.1687 148.088 74.9327 148.59 73.7571 149.101C73.7338 149.106 73.7198 149.115 73.6827 149.143C67.1123 152.41 62.8048 157.925 62.8048 164.175C62.8048 166.689 62.238 166.903 63.5019 169.087L70.6577 169.184L77.493 147.596Z" fill="#616161"/>
<path d="M87.1859 173.804C87.0883 173.804 86.9907 173.785 86.9025 173.785C85.5689 173.785 84.2817 174.064 83.055 174.571C82.9667 174.255 82.9203 173.93 82.9203 173.586V171.871C84.1842 171.318 85.5177 171.025 86.9025 171.025C87 171.025 87.0883 171.039 87.1859 171.039V173.804Z" fill="#FDD8AB"/>
<path d="M87.1859 177.682C87.1348 177.682 87.0883 177.7 87.0372 177.7C85.0995 177.7 83.4964 176.357 83.055 174.564C84.2817 174.057 85.5689 173.778 86.9024 173.778C86.9907 173.778 87.0883 173.797 87.1859 173.797V177.682Z" fill="#FDD8AB"/>
<path d="M46.7135 148.067L58.3394 144.601L59.4361 144.266L59.7567 144.192C60.6674 145.698 61.4016 146.836 61.7362 147.333C61.843 147.491 61.9081 147.589 61.9452 147.589C61.9685 147.589 61.9917 147.528 62.0057 147.51C62.9954 145.869 63.5391 144.359 63.8783 142.951L66.9776 142.013L87.158 135.981L99.7412 132.236L103.942 130.981C104.077 131.474 104.258 131.999 104.481 132.575C111.748 135.703 108.44 140.679 111.994 146.933C112.101 147.166 112.25 147.375 112.385 147.589C112.826 147.078 121.023 134.55 122.445 125.452L123.462 125.168L131.622 122.72H131.822C131.97 140.623 126.501 152.575 121.492 159.795C121.134 160.297 120.795 160.776 120.437 161.213C120.094 161.631 119.778 162.096 119.457 162.453L119.434 162.467C119.434 162.514 119.434 162.528 119.434 162.528C119.178 162.783 118.946 163.104 118.686 163.369C118.635 163.42 118.597 163.457 118.574 163.503C118.5 163.582 118.439 163.662 118.37 163.75L109.007 155.558L107.548 154.285L107.106 155.019C105.856 154.745 104.546 154.587 103.212 154.587C100.605 154.587 91.3633 157.472 89.3699 158.648H84.147C81.7447 157.198 71.5267 154.628 69.0407 154.628C68.209 154.628 67.3865 154.684 66.5919 154.782L65.6022 153.216L63.5065 155.446L55.8627 163.648C55.8395 163.606 55.8023 163.569 55.7652 163.527C55.7233 163.466 55.7047 163.448 55.6629 163.378C55.4027 163.113 55.1658 162.793 54.9102 162.537C54.9102 162.537 54.8916 162.523 54.8916 162.477V162.463C54.715 162.258 54.5292 162.021 54.334 161.766C54.1946 161.58 54.0505 161.403 53.8926 161.227C53.558 160.79 53.2142 160.311 52.8564 159.809C50.7375 156.729 48.5489 152.844 46.7135 148.067Z" fill="#333333"/>
<path opacity="0.2" d="M52.861 159.778C56.6899 155.123 64.0037 150.583 77.4791 147.6L70.1652 155.899L69.7238 156.396L64.0038 162.882L62.8049 164.253L59.845 167.594C59.6452 167.436 59.4407 167.264 59.2176 167.06C59.1108 166.962 58.9854 166.846 58.8738 166.739C58.7437 166.642 58.6229 166.521 58.4974 166.409C58.372 166.279 58.2465 166.154 58.1025 166.019H58.0932V166.01C57.9631 165.903 57.8422 165.777 57.7075 165.619C57.5588 165.48 57.4101 165.345 57.28 165.192C56.9826 164.885 56.6852 164.565 56.3739 164.221C56.1694 164.002 55.979 163.779 55.7699 163.547C55.728 163.505 55.6816 163.449 55.6398 163.403C55.4028 163.129 55.1565 162.836 54.9102 162.52C54.9102 162.52 54.901 162.506 54.901 162.497H54.8823V162.478C54.5663 162.079 54.2458 161.665 53.8973 161.238C53.5441 160.759 53.2049 160.28 52.861 159.778Z" fill="#616161"/>
<path d="M51.1232 173.7C51.1232 172.869 51.165 172.028 51.3091 171.154C51.6947 168.385 52.7635 165.439 54.8823 162.479V162.46C56.9222 159.64 59.9008 156.81 64.1525 154.078C64.4081 153.915 64.6775 153.748 64.961 153.58C67.4237 152.056 70.3279 150.565 73.6875 149.138C73.7479 149.096 73.8222 149.064 73.8826 149.031C73.943 149.008 74.0034 148.98 74.0545 148.966C74.2636 148.883 74.4588 148.799 74.6679 148.711C75.2673 148.46 75.8946 148.209 76.5312 147.963C76.8472 147.837 77.1678 147.716 77.4884 147.591L69.6309 162.762L66.9497 167.934L66.3364 169.123L56.5227 188.059C56.5227 188.059 51.1232 181.879 51.1232 173.7Z" fill="#EBEBEB"/>
<path d="M96.865 147.6C101.888 149.491 106.014 151.512 109.397 153.584C109.667 153.756 109.936 153.928 110.192 154.096C118.913 159.695 122.296 165.745 123.044 171.163C123.165 172.036 123.23 172.877 123.23 173.709C123.216 181.883 117.826 188.063 117.826 188.063L96.865 147.6Z" fill="#EBEBEB"/>
<path d="M114.494 163.993L111.971 160.624L113.11 164.681L114.494 163.993Z" fill="#333333"/>
<path d="M105.731 155.834L103.208 152.465L104.36 156.521L105.731 155.834Z" fill="#333333"/>
<path d="M119.099 184.077L116.567 180.713L117.705 184.765L119.099 184.077Z" fill="#333333"/>
<path d="M115.754 177.011L113.231 173.656L114.369 177.704L115.754 177.011Z" fill="#333333"/>
<path d="M112.422 169.956L109.885 166.592L111.037 170.644L112.422 169.956Z" fill="#333333"/>
<path d="M109.076 162.895L106.553 159.535L107.692 163.578L109.076 162.895Z" fill="#333333"/>
<path d="M109.397 153.582C109.667 153.754 109.936 153.926 110.192 154.093L111.674 156.054L110.28 156.742L109.397 153.582Z" fill="#333333"/>
<path d="M121.172 178.115L118.648 174.76L119.787 178.802L121.172 178.115Z" fill="#333333"/>
<path d="M117.826 171.062L115.303 167.698L116.455 171.745L117.826 171.062Z" fill="#333333"/>
<path d="M121.957 169.717L123.044 171.157C123.165 172.031 123.23 172.872 123.23 173.704L123.109 173.764L121.957 169.717Z" fill="#333333"/>
<path d="M119.689 164.705L117.162 161.35L118.305 165.392L119.689 164.705Z" fill="#333333"/>
<path d="M59.8543 163.993L62.3868 160.624L61.2484 164.681L59.8543 163.993Z" fill="#333333"/>
<path d="M68.6086 155.834L71.1364 152.465L69.9933 156.521L68.6086 155.834Z" fill="#333333"/>
<path d="M55.2495 184.077L57.7819 180.713L56.6341 184.765L55.2495 184.077Z" fill="#333333"/>
<path d="M58.5858 177.011L61.1228 173.656L59.9705 177.704L58.5858 177.011Z" fill="#333333"/>
<path d="M61.9313 169.956L64.4592 166.592L63.3161 170.644L61.9313 169.956Z" fill="#333333"/>
<path d="M65.2769 162.895L67.8001 159.535L66.6477 163.578L65.2769 162.895Z" fill="#333333"/>
<path d="M65.2769 155.155C64.9935 155.327 62.949 157.163 62.949 157.163L64.3337 157.855L65.2769 155.155Z" fill="#333333"/>
<path d="M53.1771 178.115L55.7002 174.76L54.5571 178.802L53.1771 178.115Z" fill="#333333"/>
<path d="M56.5134 171.062L59.0411 167.698L57.9027 171.745L56.5134 171.062Z" fill="#333333"/>
<path d="M51.1232 173.704C51.1232 172.872 51.165 172.031 51.3091 171.157L52.3825 169.717L51.2348 173.759L51.1232 173.704Z" fill="#333333"/>
<path d="M54.6547 164.705L57.1871 161.35L56.0487 165.392L54.6547 164.705Z" fill="#333333"/>
<path d="M89.9879 183.185L91.7537 180.263C95.3781 180.263 98.6028 180.263 100.48 180.281C96.628 180.281 93.0268 181.299 89.9879 183.185Z" fill="#333333"/>
<path d="M74.4774 180.222C76.3639 180.222 79.3145 180.222 82.5997 180.245L84.4491 183.172C81.5496 181.416 78.1436 180.319 74.4774 180.222Z" fill="#333333"/>
<path d="M73.9755 180.204C74.0591 180.204 74.1567 180.204 74.2357 180.223C71.9914 180.204 71.4013 180.204 73.9755 180.204Z" fill="#333333"/>
<path d="M50.3008 196.412C50.2822 186.06 58.688 177.654 69.0408 177.677C71.5268 177.677 81.7448 180.251 84.1471 181.701H89.37C91.368 180.525 100.606 177.645 103.212 177.645C112.989 177.658 120.902 185.572 120.93 195.339C120.907 204.642 113.728 212.281 104.611 212.982C105.345 214.957 105.74 217.062 105.74 219.316C105.74 220.194 105.694 221.068 105.545 221.923V221.946C105.424 222.964 105.187 223.958 104.894 224.91V224.924C102.478 232.494 95.4106 237.996 87.0048 238.009C78.8174 238.028 71.8242 232.773 69.301 225.449C68.9432 224.455 68.6877 223.437 68.5297 222.378C68.3438 221.388 68.2741 220.352 68.2741 219.316C68.2508 217.866 68.446 216.495 68.7527 215.134C58.5207 214.953 50.3008 206.654 50.3008 196.412Z" fill="#333333"/>
<path opacity="0.2" d="M99.7413 132.238L103.956 130.988C104.104 131.475 104.276 132.015 104.481 132.567C112.018 135.797 108.217 141.006 112.399 147.585C112.854 147.074 121.046 134.524 122.468 125.458L123.472 125.151C125.628 134.612 111.321 150.462 111.321 150.462C111.321 150.462 104.927 134.645 99.7413 132.238Z" fill="#616161"/>
<path opacity="0.2" d="M58.3628 144.598L59.4408 144.268L59.78 144.175C60.6907 145.695 61.4203 146.824 61.7502 147.316C61.8617 147.47 61.9221 147.567 61.9593 147.595C62.9909 145.945 63.5531 144.389 63.8969 142.939L66.9963 142.01C64.6822 146.359 63.028 150.462 63.028 150.462C63.028 150.462 60.8813 148.069 58.3628 144.598Z" fill="#616161"/>
<path opacity="0.2" d="M79.1472 174.704L82.9204 171.874C84.1843 171.317 85.5178 171.015 86.8932 171.015C86.9908 171.015 87.0884 171.038 87.1767 171.038C87.2743 171.038 87.3719 171.015 87.4462 171.015C88.8309 171.015 90.1552 171.317 91.4284 171.874L95.155 174.681L93.9887 176.619C91.67 175.462 88.3895 173.789 87.4462 173.789C87.3719 173.789 87.2743 173.807 87.1906 173.807C87.1906 173.807 87.1907 173.807 87.1767 173.807C87.0791 173.807 86.9908 173.789 86.8932 173.789C86.0336 173.789 83.069 175.745 80.741 177.278L79.1472 174.704Z" fill="#616161"/>
<path d="M82.1862 215.695C84.3794 215.463 86.2288 214.116 87.1721 212.215C88.1154 214.116 89.9647 215.463 92.1719 215.695C97.6132 212.591 101.47 204.701 101.47 195.455C101.47 188.884 99.5229 183.006 96.4468 179.038C96.4236 179.015 96.4097 178.987 96.3957 178.964C96.3957 178.964 96.3957 178.964 96.3818 178.95C94.8019 176.938 92.9247 175.409 90.8709 174.563C89.6952 174.08 88.4546 173.815 87.1814 173.792V173.787C87.1814 173.787 87.1813 173.787 87.1674 173.787V173.792C85.8803 173.815 84.6443 174.085 83.4687 174.563C81.4102 175.409 79.5376 176.938 77.9531 178.95C77.9531 178.964 77.9531 178.964 77.9438 178.964C77.9299 178.982 77.9206 179.01 77.9066 179.038C74.8305 183.006 72.8696 188.884 72.8696 195.455C72.8743 204.701 76.745 212.591 82.1862 215.695Z" fill="#FDD8AB"/>
<path d="M77.1585 217.246C77.1492 219.565 87.265 229.509 87.265 229.509C87.265 229.509 97.1298 219.254 97.1298 217.274C97.1438 213.938 94.4348 211.215 91.0892 211.215C89.9507 211.21 88.882 211.522 87.9805 212.079L86.3356 212.074C85.4295 211.522 84.3654 211.206 83.2223 211.196C79.8814 211.192 77.1585 213.891 77.1585 217.246Z" fill="#333333"/>
<path d="M97.8781 196.703C97.9385 196.549 97.9849 196.387 97.9849 196.205C97.9849 195.099 96.6142 194.193 94.9368 194.193C93.2593 194.193 91.8839 195.095 91.8839 196.205C91.8839 196.387 91.9211 196.549 91.9815 196.703H97.8781Z" fill="#333333"/>
<path d="M76.4755 196.703C76.4011 196.549 76.3639 196.387 76.3639 196.205C76.3639 195.099 77.7254 194.193 79.4168 194.193C81.0942 194.193 82.4697 195.095 82.4697 196.205C82.4697 196.387 82.4186 196.549 82.3582 196.703H76.4755Z" fill="#333333"/>
<path d="M83.2038 181.707H87.1721H87.186H91.1542C90.3597 180.643 88.8867 179.923 87.186 179.909C87.186 179.909 87.186 179.904 87.1721 179.904C85.4714 179.918 83.9984 180.643 83.2038 181.707Z" fill="#454545"/>
<path d="M87.1721 181.914C88.9843 184.028 91.5586 181.352 91.5586 181.352H87.1861H87.1721H82.7996C82.7996 181.352 85.3599 184.023 87.1721 181.914Z" fill="#333333"/>
<path opacity="0.2" d="M87.1721 193.327V193.396V193.354L87.186 193.396V193.327L89.4721 186.013H87.186H87.1721H84.8673L87.1721 193.327Z" fill="#616161"/>
<path d="M82.7949 201.07L76.745 200.749L76.6614 200.74L76.6103 200.689L74.2218 198.068L76.8705 200.434L76.745 200.378L82.7949 200.085V201.07Z" fill="#333333"/>
<path d="M91.0288 200.085L97.0834 200.378L96.9626 200.434L99.6205 198.068L97.2182 200.689L97.1717 200.74L97.0834 200.749L91.0288 201.07V200.085Z" fill="#333333"/>
<path opacity="0.2" d="M82.4882 236.29C82.4138 236.638 82.3813 236.991 82.4045 237.368C82.4882 239.947 84.6721 241.963 87.2928 241.968C89.9647 241.973 92.2415 239.928 92.367 237.275C92.3902 236.689 92.3065 236.122 92.1346 235.597C94.6949 235.365 96.9022 233.214 97.1206 230.514C97.3529 227.549 95.1224 225.156 92.1579 225.277C91.3865 225.3 88.6171 226.323 88.0409 226.699L91.8001 219.854L82.9157 220.375L86.5168 226.769C85.8291 226.351 82.8924 225.677 82.1769 225.705C79.2634 225.835 77.1306 228.423 77.349 231.36C77.5674 234.134 79.8349 236.276 82.4882 236.29Z" fill="#616161"/>
<path d="M82.8693 236.131C82.7949 236.475 82.7485 236.824 82.7485 237.195C82.7345 239.821 84.8673 241.963 87.488 241.972C90.1227 241.972 92.2509 239.858 92.2648 237.228C92.2648 236.666 92.1672 236.117 91.9953 235.625C94.3093 235.453 96.1355 233.515 96.1495 231.159C96.1634 228.673 94.1514 226.657 91.6654 226.638C91.0009 226.638 88.6544 227.363 88.1479 227.651L91.224 222.442L83.7846 222.419L86.8236 227.651C86.2102 227.284 83.6128 226.61 82.9901 226.61C80.3555 226.596 78.2133 228.729 78.1994 231.35C78.1901 233.952 80.2718 236.071 82.8693 236.131Z" fill="#FFD675"/>
<path opacity="0.2" d="M87.4926 226.813L85.5317 223.412L89.4906 223.421L87.4926 226.813ZM91.67 227.636C93.6076 227.65 95.1736 229.23 95.1643 231.153C95.1503 232.966 93.7284 234.49 91.9162 234.634L90.6198 234.722L91.0613 235.963C91.21 236.372 91.2797 236.795 91.2797 237.231C91.2704 239.294 89.579 240.981 87.4973 240.972C86.4936 240.972 85.5503 240.577 84.8394 239.857C84.1284 239.141 83.7474 238.202 83.7474 237.199C83.7474 236.929 83.7846 236.674 83.845 236.335L84.1145 235.159L82.9017 235.136C80.8571 235.089 79.203 233.398 79.2123 231.363C79.2123 230.35 79.6072 229.406 80.3135 228.705C81.0245 227.994 81.9817 227.603 82.9853 227.608C83.4732 227.613 85.8755 228.24 86.3077 228.5L86.7724 228.054L88.659 228.51C89.0586 228.286 91.1914 227.636 91.67 227.636Z" fill="#616161"/>
<path opacity="0.2" d="M82.9808 215.562C82.7252 215.622 82.4557 215.668 82.1862 215.696C82.4557 215.673 82.7252 215.627 82.9808 215.562Z" fill="#616161"/>
<path opacity="0.2" d="M84.4765 214.998C84.4302 215.021 84.3699 215.044 84.319 215.072C84.3653 215.044 84.4255 215.021 84.4765 214.998Z" fill="#616161"/>
<path opacity="0.2" d="M83.7513 215.32C83.6633 215.348 83.5798 215.376 83.4825 215.399C83.5798 215.376 83.6679 215.353 83.7513 215.32Z" fill="#616161"/>
<path opacity="0.2" d="M52.8472 159.788C53.205 160.29 53.5441 160.769 53.8833 161.206C54.0878 161.438 54.269 161.684 54.4549 161.917C54.5943 162.098 54.7383 162.284 54.8824 162.456C54.8824 162.465 54.8824 162.469 54.8824 162.469V162.483C52.7635 165.439 51.6948 168.389 51.3091 171.159C51.1697 172.032 51.1232 172.873 51.1232 173.705C51.1232 178.287 52.8146 182.246 54.3062 184.834C51.797 188.031 50.2915 192.041 50.3008 196.413C50.3008 206.655 58.5207 214.954 68.748 215.13C68.4414 216.487 68.2462 217.862 68.2695 219.312C68.2695 220.348 68.3438 221.385 68.525 222.374C68.6876 223.438 68.9432 224.451 69.2963 225.446C71.3409 231.352 76.2803 235.91 82.4185 237.443C82.5533 239.985 84.7093 241.96 87.2929 241.965C87.3301 241.965 87.3533 241.96 87.3904 241.96V135.909L87.1581 135.979L66.9916 142.006L63.8923 142.935C63.8923 142.935 63.8923 142.94 63.8923 142.949H63.8783C63.5716 144.227 63.0837 145.597 62.2473 147.056C62.1637 147.214 62.0754 147.382 61.9778 147.544C61.9639 147.563 61.9546 147.586 61.9407 147.586C61.9407 147.586 61.9407 147.577 61.9267 147.577C61.9035 147.54 61.8385 147.465 61.7409 147.321C61.411 146.829 60.6814 145.7 59.7707 144.18L59.5941 144.231L59.4315 144.269L58.3349 144.603L46.7089 148.069C48.549 152.842 50.7376 156.726 52.8472 159.788Z" fill="#616161"/>
<path d="M33.8284 51.4046C33.9027 51.0283 33.9539 50.6472 33.9492 50.2523C33.9539 47.4085 31.6398 45.0991 28.796 45.1084C25.9476 45.1131 23.6429 47.4039 23.6429 50.2523C23.6429 50.8703 23.7544 51.4511 23.9495 51.9948C21.4357 52.1899 19.4655 54.2902 19.4608 56.8505C19.4655 59.5363 21.6495 61.7109 24.3445 61.7156C25.0555 61.7202 27.5972 60.9257 28.1502 60.6097L24.8464 66.2693L32.8897 66.2554L29.5813 60.6097C30.2412 61.0047 33.0524 61.711 33.7354 61.711C36.5885 61.711 38.8979 59.3969 38.8932 56.5532C38.8979 53.7326 36.6303 51.4511 33.8284 51.4046Z" fill="#333333"/>
<path opacity="0.2" d="M33.8284 51.4046C33.9027 51.0283 33.9538 50.6472 33.9492 50.2523C33.9538 47.4085 31.6397 45.0991 28.796 45.1084C28.796 45.1084 28.7821 45.1084 28.7728 45.1084V66.26L32.8897 66.2554L29.5813 60.6097C30.2411 61.0047 33.0523 61.711 33.7354 61.711C36.5885 61.711 38.8979 59.3969 38.8932 56.5532C38.8979 53.7326 36.6303 51.4511 33.8284 51.4046Z" fill="#616161"/>
<path d="M155.195 205.594C155.12 205.97 155.06 206.351 155.074 206.756C155.064 209.595 157.379 211.899 160.218 211.89C163.071 211.885 165.375 209.595 165.375 206.756C165.375 206.133 165.269 205.547 165.069 205.008C167.578 204.813 169.553 202.713 169.553 200.157C169.553 197.467 167.374 195.292 164.678 195.288C163.968 195.288 161.416 196.078 160.868 196.403L164.177 190.743L156.129 190.748L159.437 196.403C158.777 195.999 155.971 195.302 155.283 195.292C152.43 195.292 150.125 197.606 150.125 200.45C150.12 203.266 152.388 205.557 155.195 205.594Z" fill="#333333"/>
<path opacity="0.2" d="M155.195 205.594C155.12 205.97 155.06 206.351 155.074 206.755C155.065 209.594 157.379 211.899 160.218 211.89C160.227 211.89 160.227 211.89 160.241 211.89V190.738L156.124 190.743L159.432 196.398C158.773 195.994 155.966 195.297 155.278 195.287C152.425 195.287 150.12 197.601 150.12 200.445C150.12 203.266 152.388 205.557 155.195 205.594Z" fill="#616161"/>
</svg>
