<svg width="183" height="255" viewBox="0 0 183 255" fill="none" xmlns="http://www.w3.org/2000/svg">
<path d="M20.8391 254.969C10.0821 254.988 1.2859 246.391 1.26731 235.802L0.714341 19.3833C0.691107 8.72847 9.45476 0.0810526 20.2676 0.0996393L163.292 0.369069C174.049 0.387656 182.817 9.03974 182.817 19.676V235.639C182.817 246.196 174.082 254.793 163.352 254.811L20.8391 254.969Z" fill="#C9C9C9"/>
<path d="M22.7907 254.699C12.1592 254.699 3.521 246.07 3.521 235.485V19.5679C3.521 8.97818 12.1638 0.363281 22.7907 0.363281H163.729C174.356 0.363281 183.003 8.97353 183.003 19.5679V235.485C183.003 246.07 174.36 254.699 163.729 254.699H22.7907Z" fill="white"/>
<mask id="mask0_211_212" style="mask-type:luminance" maskUnits="userSpaceOnUse" x="14" y="11" width="159" height="234">
<path d="M22.7907 244.024C18.0511 244.024 14.199 240.186 14.199 235.483V19.5664C14.199 14.8594 18.0511 11.0352 22.7907 11.0352H163.729C168.468 11.0352 172.334 14.8594 172.334 19.5664V235.483C172.334 240.186 168.468 244.024 163.729 244.024H22.7907Z" fill="white"/>
</mask>
<g mask="url(#mask0_211_212)">
<path d="M148.766 64.3809V86.1505L170.536 64.3809H148.766Z" fill="#3C84AD"/>
<path d="M148.766 142.78V165.098L171.075 142.78H148.766Z" fill="#3C7AAD"/>
<path d="M148.766 90.5186V112.465L170.713 90.5186H148.766Z" fill="#28A2B7"/>
<path d="M173.259 166.721V143.697L150.244 166.721H173.259Z" fill="#3E76A5"/>
<path d="M148.766 168.908V191.417L171.275 168.908H148.766Z" fill="#34729B"/>
<path d="M148.766 195.051V217.731L171.456 195.051H148.766Z" fill="#3E9EA5"/>
<path d="M173.259 192.845V170.021L150.43 192.845H173.259Z" fill="#1E9097"/>
<path d="M173.259 12.124L149.324 36.059H172.534L173.259 35.3388V12.124Z" fill="#3680B3"/>
<path d="M173.259 38.4336L149.501 62.1919H172.734L173.259 61.6529V38.4336Z" fill="#327CB7"/>
<path d="M148.766 38.2529V59.832L170.346 38.2529H148.766Z" fill="#289E9B"/>
<path d="M148.766 12.124V33.5126L170.155 12.124H148.766Z" fill="#4C7AA3"/>
<path d="M173.259 218.983V196.33L150.611 218.983H173.259Z" fill="#4AA293"/>
<path d="M146.578 38.8105L123.177 62.1925H146.411L146.578 62.0253V38.8105Z" fill="#329E9B"/>
<path d="M148.766 221.18V244.051L171.633 221.18H148.766Z" fill="#2C8EB1"/>
<path d="M146.578 12.4883L122.996 36.0608H146.229L146.578 35.7123V12.4883Z" fill="#40A295"/>
<path d="M146.578 88.3264V65.1162L123.372 88.3264H146.578Z" fill="#2286BD"/>
<path d="M173.259 245.12V222.644L150.788 245.12H173.259Z" fill="#388E97"/>
<path d="M148.766 116.651V138.788L170.903 116.651H148.766Z" fill="#38909D"/>
<path d="M173.259 91.0723L149.877 114.459H173.096L173.259 114.292V91.0723Z" fill="#3E849D"/>
<path d="M173.259 140.587V117.387L150.054 140.587H173.259Z" fill="#2E7AA7"/>
<path d="M173.259 64.7529L149.691 88.3256H172.906L173.259 87.9677V64.7529Z" fill="#387A9D"/>
<path d="M66.5159 140.585V118.862L44.788 140.585H66.5159Z" fill="#249CB3"/>
<path d="M15.356 12.124L15.3375 12.152V35.362L38.5708 12.124H15.356Z" fill="#367E91"/>
<path d="M15.5419 38.2529L15.3375 38.462V61.6767L38.7567 38.2529H15.5419Z" fill="#467EAD"/>
<path d="M15.7232 64.3809L15.3375 64.7712V87.9952L38.9472 64.3809H15.7232Z" fill="#42869D"/>
<path d="M39.8208 198.181L19.0177 218.984H39.8208V198.181Z" fill="#3276A3"/>
<path d="M39.8207 195.088V195.051H16.6478L15.3375 196.366V218.986H15.9323L39.8207 195.088Z" fill="#4478C3"/>
<path d="M39.8207 192.848V171.863L18.841 192.848H39.8207Z" fill="#429AA7"/>
<path d="M39.8208 224.501L19.2082 245.123H39.8208V224.501Z" fill="#2898AD"/>
<path d="M39.8207 221.412V221.18H16.8337L15.3375 222.676V245.124H16.1274L39.8207 221.412Z" fill="#408AA9"/>
<path d="M39.8207 62.1907V40.2725L17.9071 62.1907H39.8207Z" fill="#3C8CB5"/>
<path d="M39.6813 168.908H16.4666L15.3375 170.042V192.848H15.7371L39.6813 168.908Z" fill="#2A8EAD"/>
<path d="M15.9183 90.5186L15.3375 91.09V114.314L39.1423 90.5186H15.9183Z" fill="#2A9A91"/>
<path d="M39.8207 88.3223V66.5898L18.1022 88.3223H39.8207Z" fill="#4272B9"/>
<path d="M39.8208 140.585V119.229L18.4787 140.585H39.8208Z" fill="#3890A5"/>
<path d="M39.5001 142.78H16.2808L15.3375 143.724V166.724H15.5605L39.5001 142.78Z" fill="#3E80AB"/>
<path d="M39.8208 114.457V92.9102L18.3021 114.457H39.8208Z" fill="#2074A3"/>
<path d="M39.8207 166.724V145.549L18.6598 166.724H39.8207Z" fill="#347EA1"/>
<path d="M39.8207 36.0568V13.9619L17.7352 36.0568H39.8207Z" fill="#32A0BF"/>
<path d="M39.3189 116.651H16.1088L15.3375 117.409V140.586H15.3653L39.3189 116.651Z" fill="#247CAD"/>
<path d="M119.897 88.3226V65.4795L97.0584 88.3226H119.897Z" fill="#1E96BD"/>
<path d="M95.3902 90.5186V113.194L118.08 90.5186H95.3902Z" fill="#487EB9"/>
<path d="M95.3902 64.3809V86.8893L117.903 64.3809H95.3902Z" fill="#3094B7"/>
<path d="M119.897 62.1927V39.1777L96.8772 62.1927H119.897Z" fill="#347AA5"/>
<path d="M95.3902 38.2529V60.5754L117.717 38.2529H95.3902Z" fill="#329295"/>
<path d="M119.897 140.584V118.112L97.4302 140.584H119.897Z" fill="#3C7CBD"/>
<path d="M119.897 114.455V91.8027L97.235 114.455H119.897Z" fill="#2A8EAB"/>
<path d="M95.3902 116.651V139.527L118.266 116.651H95.3902Z" fill="#42709F"/>
<path d="M95.3902 142.78V165.846L118.456 142.78H95.3902Z" fill="#4A8EB1"/>
<path d="M95.3902 12.124V34.27L117.536 12.124H95.3902Z" fill="#2A94B9"/>
<path d="M95.7852 221.18L95.3902 221.565V244.799L119.014 221.18H95.7852Z" fill="#369C99"/>
<path d="M119.897 192.846V170.751L97.7972 192.846H119.897Z" fill="#4882B5"/>
<path d="M95.4181 168.908L95.3902 168.941V192.155L118.647 168.908H95.4181Z" fill="#4276AF"/>
<path d="M95.604 195.051L95.3902 195.255V218.47L118.823 195.051H95.604Z" fill="#249EA5"/>
<path d="M119.897 218.983V197.069L97.9785 218.983H119.897Z" fill="#3670A3"/>
<path d="M119.897 245.121V223.394L98.169 245.121H119.897Z" fill="#2686C1"/>
<path d="M146.578 114.456V91.4365L123.558 114.456H146.578Z" fill="#40A295"/>
<path d="M122.076 116.651V139.16L144.58 116.651H122.076Z" fill="#248297"/>
<path d="M122.076 64.3809V86.5223L144.213 64.3809H122.076Z" fill="#2872B9"/>
<path d="M146.578 140.583V117.754L123.744 140.583H146.578Z" fill="#3E8C95"/>
<path d="M122.076 90.5186V112.832L144.399 90.5186H122.076Z" fill="#509299"/>
<path d="M122.076 168.908V191.779L144.956 168.908H122.076Z" fill="#1E9C9B"/>
<path d="M146.578 166.722V144.064L123.935 166.722H146.578Z" fill="#2A7CB9"/>
<path d="M122.076 142.78V165.475L144.77 142.78H122.076Z" fill="#30A29D"/>
<path d="M122.076 38.2529V60.2038L144.031 38.2529H122.076Z" fill="#2C96B7"/>
<path d="M146.578 192.846V170.379L124.107 192.846H146.578Z" fill="#4C7EC3"/>
<path d="M122.076 12.124V33.8798L143.841 12.124H122.076Z" fill="#3C78C1"/>
<path d="M119.897 36.0604V12.8643L96.6867 36.0604H119.897Z" fill="#3090C3"/>
<path d="M122.076 195.051V218.103L145.147 195.051H122.076Z" fill="#4AA299"/>
<path d="M146.578 245.121V223.021L124.483 245.121H146.578Z" fill="#4E90B1"/>
<path d="M122.095 221.18L122.076 221.194V244.422L145.319 221.18H122.095Z" fill="#3876A5"/>
<path d="M146.578 218.984V196.698L124.288 218.984H146.578Z" fill="#3084BB"/>
<path d="M119.897 166.722V144.437L97.616 166.722H119.897Z" fill="#5298C3"/>
<path d="M42.014 12.124V34.9996L64.8942 12.124H42.014Z" fill="#4A7EC3"/>
<path d="M66.5159 62.1901V39.9141L44.2397 62.1901H66.5159Z" fill="#4E9493"/>
<path d="M66.5159 36.0574V13.5908L44.054 36.0574H66.5159Z" fill="#3286B1"/>
<path d="M42.014 38.2529V61.305L65.0754 38.2529H42.014Z" fill="#287EBD"/>
<path d="M42.0419 64.3809L42.014 64.4133V87.6281L65.2706 64.3809H42.0419Z" fill="#44A295"/>
<path d="M66.5159 192.846V171.49L45.1552 192.846H66.5159Z" fill="#3878A1"/>
<path d="M66.3718 221.18H43.1478L42.014 222.314V245.124H42.4368L66.3718 221.18Z" fill="#208A99"/>
<path d="M66.5158 218.984V197.805L45.3456 218.984H66.5158Z" fill="#1E9EA9"/>
<path d="M66.5159 88.3234V66.2285L44.4257 88.3234H66.5159Z" fill="#2A76B9"/>
<path d="M66.1953 195.051H42.9712L42.014 195.994V218.986H42.2417L66.1953 195.051Z" fill="#3AA295"/>
<path d="M66.5159 245.123V224.129L45.5362 245.123H66.5159Z" fill="#4496C1"/>
<path d="M66.5158 114.457V92.543L44.6068 114.457H66.5158Z" fill="#468AB9"/>
<path d="M42.237 90.5186L42.014 90.7277V113.947L65.4471 90.5186H42.237Z" fill="#289AA3"/>
<path d="M42.4229 116.651L42.014 117.042V140.257L65.633 116.651H42.4229Z" fill="#509493"/>
<path d="M66.0001 168.908H42.776L42.014 169.666V192.848H42.0605L66.0001 168.908Z" fill="#2288B7"/>
<path d="M66.5159 166.723V145.177L44.9785 166.723H66.5159Z" fill="#4C9AA9"/>
<path d="M42.5948 142.78L42.014 143.352V166.58L65.8096 142.78H42.5948Z" fill="#4AA4A3"/>
<path d="M93.197 62.1939V39.5508L70.5631 62.1939H93.197Z" fill="#4E98B1"/>
<path d="M68.7044 64.3809V87.2564L91.5846 64.3809H68.7044Z" fill="#3C989D"/>
<path d="M68.7044 38.2529V60.9426L91.3987 38.2529H68.7044Z" fill="#4C7EA1"/>
<path d="M68.723 116.651L68.7044 116.675V139.889L91.9517 116.651H68.723Z" fill="#4A9CBD"/>
<path d="M93.1969 114.456V92.1748L70.9208 114.456H93.1969Z" fill="#44A2A3"/>
<path d="M68.7044 90.5186V113.575L91.7612 90.5186H68.7044Z" fill="#3278B9"/>
<path d="M93.197 88.323V65.8516L70.7397 88.323H93.197Z" fill="#24A0BF"/>
<path d="M93.197 36.0607V13.2363L70.3727 36.0607H93.197Z" fill="#369893"/>
<path d="M68.7044 12.124V34.6232L91.2035 12.124H68.7044Z" fill="#3E92B5"/>
<path d="M93.197 245.122V223.761L71.8409 245.122H93.197Z" fill="#2A8499"/>
<path d="M92.6812 221.18H69.4758L68.7044 221.933V245.124H68.7416L92.6812 221.18Z" fill="#269CA1"/>
<path d="M93.197 192.847V171.133L71.4832 192.847H93.197Z" fill="#4682A1"/>
<path d="M93.1969 166.721V144.808L71.2926 166.721H93.1969Z" fill="#36889D"/>
<path d="M93.197 218.984V197.442L71.6644 218.984H93.197Z" fill="#367693"/>
<path d="M68.9089 142.78L68.7044 142.989V166.213L92.1329 142.78H68.9089Z" fill="#2098B5"/>
<path d="M69.104 168.908L68.7044 169.303V192.527L92.3281 168.908H69.104Z" fill="#4C7699"/>
<path d="M69.2806 195.051L68.7044 195.627V218.842L92.5047 195.051H69.2806Z" fill="#3288B7"/>
<path d="M93.197 140.585V118.499L71.1021 140.585H93.197Z" fill="#527095"/>
<path d="M-9.34566 273.671L-9.1087 273.443H13.1489V273.671H16.9684L17.2054 273.443H39.8207V273.671H43.2871L43.5102 273.443H66.5112V273.666L66.5019 273.671H69.6105L69.8382 273.443H93.0483L92.8113 273.671H95.9153L96.1429 273.443H119.367L119.139 273.671H122.239L122.471 273.443H145.676L145.453 273.671H148.757V273.461L148.78 273.443H172L171.772 273.671H175.443V273.443H195.902V271.25H177.278L195.902 252.63V249.522L175.443 269.995V247.301H195.902V245.112H177.102L195.902 226.302V223.203L175.443 243.667V221.168H195.902V218.97H176.911L195.902 199.988V196.889L175.443 217.353V195.035H195.902V192.832H176.735L195.902 173.665V170.566L175.443 191.03V168.888H195.902V166.704H176.54L195.902 147.346V144.247L175.443 164.711V142.755H195.902V140.562H176.354L195.902 121.023V117.919L175.443 138.383V116.622H195.902V114.429H176.168L195.902 94.7088V91.6095L175.443 112.064V90.4895H195.902V88.2964H175.991L195.902 68.39V65.2814L175.443 85.7546V64.352H195.902V62.1635H175.805L195.902 42.0713V38.9674L175.443 59.4359V38.2192H195.902V36.026H175.624L195.902 15.7479V12.6486L175.443 33.1219V12.091H195.902V9.90243H175.443V9.89307L195.902 -10.5615V-13.6701L175.443 6.80314V-14.0419H195.902V-16.1143H-13.537V273.638H-9.34566V273.671ZM173.259 271.254H150.974L173.259 248.964V271.254ZM173.259 245.121H150.788L173.259 222.65V245.121ZM173.259 218.984H150.611L173.259 196.331V218.984ZM173.259 192.846H150.43L173.259 170.022V192.846ZM173.259 166.723H150.244L173.259 143.699V166.723ZM173.259 140.585H150.054L173.259 117.385V140.585ZM173.259 114.29L173.096 114.457H149.877L173.259 91.0703V114.29ZM173.259 87.9664L172.906 88.3243H149.691L173.259 64.7516V87.9664ZM173.259 61.6523L172.734 62.1913H149.501L173.259 38.433V61.6523ZM173.259 35.3383L172.534 36.0585H149.324L173.259 12.1235V35.3383ZM173.259 -14.0093V9.01955L172.339 9.9349H149.134L173.082 -14.0093H173.259ZM148.766 -14.0093H169.974L148.766 7.20274V-14.0093ZM148.766 12.1235H170.155L148.766 33.5121V12.1235ZM148.766 38.2518H170.346L148.766 59.8308V38.2518ZM148.766 64.3799H170.536L148.766 86.1496V64.3799ZM148.766 90.5174H170.713L148.766 112.464V90.5174ZM148.766 116.65H170.903L148.766 138.787V116.65ZM148.766 142.779H171.075L148.766 165.096V142.779ZM148.766 168.907H171.275L148.766 191.415V168.907ZM148.766 195.049H171.456L148.766 217.729V195.049ZM148.766 221.177H171.633L148.766 244.048V221.177ZM148.766 247.305H171.823L148.766 270.357V247.305ZM13.1489 271.254H-6.91547L13.1489 251.19V271.254ZM13.1489 245.121H-7.0967L13.1489 224.862V245.121ZM13.1489 218.984H-7.29182L13.1489 198.548V218.984ZM13.1489 192.846H-7.47305L13.1489 172.225V192.846ZM13.1489 166.723H-7.66357L13.1489 145.915V166.723ZM13.1489 140.585H-7.84479L13.1489 119.596V140.585ZM13.1489 114.457H-8.03063L13.1489 93.2729V114.457ZM13.1489 88.3243H-8.23043L13.1489 66.9588V88.3243ZM13.1489 62.1913H-8.40237L13.1489 40.6448V62.1913ZM13.1489 36.0585H-8.57899L13.1489 14.3354V36.0585ZM39.8207 271.254H19.3847L39.8207 250.818V271.254ZM39.8207 245.121H19.2081L39.8207 224.5V245.121ZM39.8207 218.984H19.0176L39.8207 198.181V218.984ZM39.8207 192.846H18.841L39.8207 171.857V192.846ZM39.8207 166.723H18.6598L39.8207 145.543V166.723ZM39.8207 140.585H18.4786L39.8207 119.225V140.585ZM39.8207 114.457H18.302L39.8207 92.9059V114.457ZM39.8207 88.3243H18.1022L39.8207 66.5871V88.3243ZM39.8207 62.1913H17.9071L39.8207 40.2731V62.1913ZM39.8207 36.0585H17.7351L39.8207 13.9636V36.0585ZM66.5158 271.254H45.7127L66.5158 250.442V271.254ZM66.5158 245.121H45.5361L66.5158 224.128V245.121ZM66.5158 218.984H45.3456L66.5158 197.804V218.984ZM66.5158 192.846H45.1551L66.5158 171.486V192.846ZM66.5158 166.723H44.9832L66.5158 145.172V166.723ZM66.5158 140.585H44.788L66.5158 118.857V140.585ZM66.5158 114.457H44.6068L66.5158 92.5434V114.457ZM66.5158 88.3243H44.4302L66.5158 66.2294V88.3243ZM66.5158 62.1913H44.2397L66.5158 39.9153V62.1913ZM66.5158 36.0585H44.0539L66.5158 13.5919V36.0585ZM93.1969 271.254H72.0314L93.1969 250.084V271.254ZM93.1969 245.121H71.8409L93.1969 223.761V245.121ZM93.1969 218.984H71.6644L93.1969 197.442V218.984ZM93.1969 192.846H71.4831L93.1969 171.128V192.846ZM93.1969 166.723H71.2879L93.1969 144.805V166.723ZM93.1969 140.585H71.1021L93.1969 118.495V140.585ZM93.1969 114.457H70.9209L93.1969 92.1763V114.457ZM93.1969 88.3243H70.7396L93.1969 65.8529V88.3243ZM93.1969 62.1913H70.5584L93.1969 39.5482V62.1913ZM93.1969 36.0585H70.3679L93.1969 13.2341V36.0585ZM119.897 271.254H98.3409L119.897 249.703V271.254ZM119.897 245.121H98.1642L119.897 223.394V245.121ZM119.897 218.984H97.9737L119.897 197.07V218.984ZM119.897 192.846H97.7926L119.897 170.747V192.846ZM119.897 166.723H97.6113L119.897 144.433V166.723ZM119.897 140.585H97.4254L119.897 118.114V140.585ZM119.897 114.457H97.2303L119.897 91.8046V114.457ZM119.897 88.3243H97.0584L119.897 65.4812V88.3243ZM119.897 62.1913H96.8725L119.897 39.1764V62.1913ZM119.897 36.0585H96.6819L119.897 12.8623V36.0585ZM146.578 271.254H124.673L146.578 249.336V271.254ZM146.578 245.121H124.483L146.578 223.022V245.121ZM146.578 218.984H124.288L146.578 196.698V218.984ZM146.578 192.846H124.107L146.578 170.38V192.846ZM146.578 166.723H123.935L146.578 144.066V166.723ZM146.578 140.585H123.744L146.578 117.756V140.585ZM146.578 114.457H123.558L146.578 91.4375V114.457ZM146.578 88.3243H123.372L146.578 65.1141V88.3243ZM146.578 62.0241L146.411 62.1913H123.177L146.578 38.8094V62.0241ZM146.578 35.7099L146.234 36.0585H123.001L146.578 12.486V35.7099ZM146.578 9.39136L146.03 9.9349H122.829L146.578 -13.8281V9.39136ZM122.076 -14.0093H143.664L122.076 7.57441V-14.0093ZM122.076 12.1235H143.841L122.076 33.8839V12.1235ZM122.076 38.2518H144.031L122.076 60.2027V38.2518ZM122.076 64.3799H144.213L122.076 86.5214V64.3799ZM122.076 90.5174H144.399L122.076 112.831V90.5174ZM122.076 116.65H144.58L122.076 139.159V116.65ZM122.076 142.779H144.77L122.076 165.473V142.779ZM122.076 168.907H144.956L122.076 191.778V168.907ZM122.076 195.049H145.147L122.076 218.101V195.049ZM122.076 221.191L122.095 221.177H145.319L122.076 244.42V221.191ZM122.076 247.505L122.294 247.305H145.518L122.076 270.738V247.505ZM119.897 9.76771L119.725 9.9349H96.4914L119.897 -13.4611V9.76771ZM95.3902 -14.0093H117.35L95.3902 7.94623V-14.0093ZM95.3902 12.1235H117.536L95.3902 34.2695V12.1235ZM95.3902 38.2518H117.717L95.3902 60.5743V38.2518ZM95.3902 64.3799H117.903L95.3902 86.8884V64.3799ZM95.3902 90.5174H118.08L95.3902 113.193V90.5174ZM95.3902 116.65H118.266L95.3902 139.526V116.65ZM95.3902 142.779H118.456L95.3902 165.845V142.779ZM95.3902 168.939L95.4227 168.907H118.651L95.3949 192.154V168.939H95.3902ZM95.3902 195.253L95.6086 195.049H118.828L95.3949 218.468V195.253H95.3902ZM95.3902 221.563L95.7852 221.177H119.014L95.3856 244.796L95.3902 221.563ZM95.3902 247.881L95.9803 247.305H119.186L95.3856 271.096L95.3902 247.881ZM93.1969 9.9349H70.1821L93.1969 -13.0846V9.9349ZM68.7044 -14.0093H91.027L68.7044 8.304V-14.0093ZM68.7044 12.1235H91.2035L68.7044 34.6227V12.1235ZM68.7044 38.2518H91.3987L68.7044 60.9415V38.2518ZM68.7044 64.3799H91.5846L68.7044 87.2555V64.3799ZM68.7044 90.5174H91.7612L68.7044 113.574V90.5174ZM68.7044 116.674L68.723 116.65H91.9517L68.7044 139.888V116.674ZM68.7044 142.988L68.9089 142.779H92.1329L68.7044 166.212V142.988ZM68.7044 169.302L69.104 168.907H92.328L68.6998 192.526L68.7044 169.302ZM68.7044 195.625L69.2806 195.049H92.5047L68.7044 218.84V195.625ZM68.7044 221.93L69.4757 221.177H92.6812L68.7415 245.117H68.7044V221.93ZM68.7044 248.253L69.6523 247.305H92.8763L68.9413 271.25H68.7044V248.253ZM66.5158 9.9349H43.8587L66.5158 -12.7129V9.9349ZM42.0139 -14.0093H64.7036L42.0139 8.67567V-14.0093ZM42.0139 12.1235H64.8895L42.0139 34.9991V12.1235ZM42.0139 38.2518H65.0707L42.0139 61.3039V38.2518ZM42.0139 64.4124L42.0419 64.3799H65.2705L42.0139 87.6272V64.4124ZM42.0139 90.7266L42.237 90.5174H65.4471L42.0139 113.946V90.7266ZM42.0139 117.041L42.4182 116.65H65.6283L42.0139 140.255V117.041ZM42.0139 143.35L42.5901 142.779H65.8095L42.0139 166.579V143.35ZM42.0139 169.664L42.776 168.907H66L42.0604 192.846H42.0139V169.664ZM42.0139 195.992L42.9665 195.049H66.1905L42.237 218.979H42.0093L42.0139 195.992ZM42.0139 222.311L43.1477 221.177H66.3718L42.4368 245.117H42.0186V222.311H42.0139ZM42.0139 248.62L43.3382 247.305H66.5112V247.342L42.6134 271.254H42.0139V248.62ZM39.8207 9.9349H17.5399L39.8207 -12.3505V9.9349ZM15.3374 -14.0093H38.3942L15.3374 9.05202V-14.0093ZM15.3374 12.1515L15.3607 12.1235H38.5708L15.3374 35.3615V12.1515ZM15.3374 38.4608L15.5419 38.2518H38.7567L15.3374 61.6756V38.4608ZM15.3374 64.7703L15.7231 64.3799H38.9472L15.3374 87.9943V64.7703ZM15.3374 91.0889L15.9183 90.5174H39.1423L15.3374 114.313V91.0889ZM15.3374 117.408L16.1088 116.65H39.3188L15.37 140.585H15.3374V117.408ZM15.3374 143.722L16.2807 142.779H39.5001L15.5605 166.723H15.3328L15.3374 143.722ZM15.3374 170.041L16.4712 168.907H39.686L15.7417 192.846H15.3421V170.041H15.3374ZM15.3374 196.364L16.6478 195.049H39.8207V195.086L15.9322 218.984H15.3374V196.364ZM15.3374 222.673L16.8337 221.177H39.8207V221.409L16.1273 245.121H15.3328L15.3374 222.673ZM15.3374 248.992L17.0288 247.305H39.8254V247.714L16.3086 271.254H15.3421V248.992H15.3374ZM13.1489 9.9349H-8.7695L13.1489 -11.9833V9.9349ZM-11.3391 -13.8003L-11.1393 -14.0093H12.0708L-11.3391 9.41448V-13.8003ZM-11.3391 12.5092L-10.9627 12.1235H12.266L-11.3391 35.7379V12.5092ZM-11.3391 38.8326L-10.7768 38.2518H12.4425L-11.3391 62.0519V38.8326ZM-11.3391 65.142L-10.5863 64.3799H12.6238L-11.3112 88.3243H-11.3344V65.142H-11.3391ZM-11.3391 91.4561L-10.4098 90.5174H12.8143L-11.1346 114.457H-11.3391V91.4561ZM-11.3391 117.77L-10.2192 116.65H13.0002L-10.9441 140.585H-11.3391V117.77ZM-11.3391 144.094L-10.038 142.779H13.1489V142.825L-10.7443 166.727H-11.3391V144.094ZM-11.3391 170.408L-9.85211 168.907H13.1489V169.13L-10.5677 192.846H-11.3391V170.408ZM-11.3391 196.722L-9.68025 195.049H13.1489V195.453L-10.3912 218.984H-11.3391V196.722ZM-11.3391 223.045L-9.48505 221.182H13.1489V221.767L-10.2007 245.121H-11.3391V223.045ZM-11.3391 249.364L-9.29922 247.31H13.1489V248.086L-10.0102 271.254H-11.3391V249.364Z" fill="white"/>
</g>
</svg>
