<svg width="183" height="256" viewBox="0 0 183 256" fill="none" xmlns="http://www.w3.org/2000/svg">
<path d="M20.328 255.416C9.56167 255.425 0.774837 246.829 0.751604 236.239L0.184738 19.8159C0.161505 9.16109 8.93448 0.51367 19.7426 0.532256L162.767 0.797006C173.524 0.815593 182.283 9.48165 182.283 20.1086V236.072C182.283 246.634 173.561 255.239 162.832 255.249L20.328 255.416Z" fill="#C9C9C9"/>
<path d="M22.1077 254.872C11.4715 254.872 2.8241 246.257 2.8241 235.658V19.755C2.8241 9.15598 11.4715 0.541016 22.1077 0.541016H163.041C173.673 0.541016 182.325 9.15598 182.325 19.755V235.662C182.325 246.261 173.673 254.876 163.041 254.876H22.1077V254.872Z" fill="white"/>
<path d="M152.433 230.331C152.433 229.578 152.628 228.806 152.995 228.007C153.543 226.818 154.524 225.521 155.922 224.132C157.098 222.961 158.027 222.134 158.72 221.674C159.821 220.93 160.946 220.559 162.121 220.559C163.116 220.559 163.994 220.777 164.779 221.195C165.662 221.702 166.113 222.376 166.113 223.212C166.113 223.793 165.55 224.792 164.426 226.209C163.297 227.645 162.488 228.351 162.01 228.351C161.605 228.351 161.396 228.207 161.396 227.896C161.396 227.598 161.726 227.05 162.363 226.228C162.669 225.856 162.818 225.568 162.818 225.368C162.646 225.033 162.479 224.787 162.293 224.615C161.731 224.118 160.969 223.853 160.002 223.853C159.157 223.853 158.408 224.127 157.739 224.634C156.917 225.28 156.513 226.121 156.513 227.185C156.513 227.975 156.731 228.653 157.149 229.271C157.493 229.759 157.921 230.126 158.436 230.396C159.119 230.721 159.844 230.902 160.602 230.921C161.35 230.93 161.731 231.102 161.731 231.418C161.731 231.571 161.261 232.226 160.332 233.379C159.612 234.266 158.91 235.247 158.237 236.311C158.446 236.511 158.618 236.617 158.738 236.617H163.013C163.199 236.617 163.58 236.39 164.129 235.944C164.691 235.488 165.072 235.265 165.267 235.265C165.648 235.265 165.829 235.409 165.829 235.693C165.829 235.837 165.611 236.167 165.179 236.664C164.737 237.17 164.114 237.835 163.292 238.653C162.363 239.577 161.777 240.149 161.531 240.321C161.048 240.702 160.671 240.883 160.393 240.883H153.274C153.209 240.827 153.172 240.786 153.153 240.748C153.116 240.711 153.102 240.595 153.102 240.414C153.102 239.879 153.752 238.969 155.026 237.7C156.308 236.441 156.963 235.567 156.963 235.084C156.963 234.968 156.448 234.731 155.416 234.35C154.733 234.094 154.147 233.751 153.664 233.323C153.288 232.961 152.99 232.542 152.772 232.036C152.554 231.529 152.433 230.958 152.433 230.331Z" fill="#333333"/>
<path d="M28.6363 58.8479L22.7304 51.39L28.6363 43.9414L34.5423 51.39L28.6363 58.8479Z" fill="#D66142"/>
<path opacity="0.2" d="M28.6363 43.9414L28.5899 44.0018V58.7875L28.6363 58.8479L34.5423 51.39L28.6363 43.9414Z" fill="#616161"/>
<path d="M36.0476 27.4699C36.0476 28.2041 35.8664 28.9939 35.4854 29.7839C34.9371 30.9734 33.9568 32.2699 32.5581 33.6593C31.3825 34.8395 30.4484 35.6573 29.7607 36.1173C28.6734 36.8608 27.535 37.2325 26.3547 37.2325C25.3743 37.2325 24.4915 37.0234 23.7062 36.5959C22.8141 36.0941 22.3586 35.4157 22.3586 34.5793C22.3586 34.0078 22.9255 32.9993 24.05 31.5821C25.1744 30.1556 25.9877 29.44 26.4663 29.44C26.8845 29.44 27.0796 29.5934 27.0796 29.8955C27.0796 30.1882 26.7636 30.7505 26.1131 31.559C25.8064 31.94 25.6577 32.2188 25.6577 32.4325C25.825 32.7671 25.9969 33.0133 26.1921 33.1852C26.745 33.6917 27.5025 33.9381 28.4737 33.9381C29.3194 33.9381 30.0675 33.6824 30.7366 33.1666C31.5591 32.5207 31.9632 31.689 31.9632 30.6249C31.9632 29.835 31.7542 29.138 31.3267 28.52C30.9828 28.0367 30.5553 27.6651 30.0395 27.4142C29.3565 27.0796 28.6317 26.8983 27.8696 26.8797C27.1261 26.8611 26.7451 26.6985 26.7451 26.3825C26.7451 26.2292 27.2144 25.5741 28.1437 24.431C28.864 23.5342 29.5657 22.5536 30.2348 21.4896C30.0303 21.2897 29.8583 21.183 29.7375 21.183H25.4579C25.2767 21.183 24.9097 21.4107 24.3475 21.866C23.7945 22.3121 23.4041 22.5304 23.2089 22.5304C22.8279 22.5304 22.6421 22.3957 22.6421 22.1122C22.6421 21.9682 22.8652 21.6383 23.3066 21.1318C23.7387 20.6346 24.3706 19.9701 25.1791 19.1523C26.1131 18.2276 26.6986 17.6654 26.9449 17.4841C27.4235 17.1124 27.8184 16.9219 28.0972 16.9219H35.216C35.2624 16.9776 35.3043 17.0241 35.3368 17.0659C35.36 17.0938 35.3739 17.21 35.3739 17.3912C35.3739 17.9349 34.7327 18.8364 33.4502 20.105C32.1631 21.3642 31.5265 22.2377 31.5265 22.721C31.5265 22.8372 32.0284 23.0834 33.0553 23.4551C33.743 23.7107 34.3285 24.0546 34.821 24.4914C35.1881 24.8446 35.4854 25.272 35.7131 25.7692C35.9408 26.2711 36.0476 26.8333 36.0476 27.4699Z" fill="#333333"/>
<path d="M159.844 198.949L165.746 206.398L159.844 213.842L153.938 206.398L159.844 198.949Z" fill="#D66142"/>
<path opacity="0.2" d="M159.877 198.996L159.844 198.949L153.938 206.398L159.844 213.842L159.877 213.795V198.996Z" fill="#616161"/>
<path d="M92.5653 19.9844L73.5649 43.9798L92.5653 67.9845L111.584 43.9798L92.5653 19.9844Z" fill="#D66142"/>
<path opacity="0.2" d="M92.4445 20.1378L92.5653 19.9844L111.584 43.9798L92.5653 67.9845L92.4445 67.8219V20.1378Z" fill="#616161"/>
<path d="M92.5653 104.837L73.5649 128.832L92.5653 152.837L111.584 128.832L92.5653 104.837Z" fill="#D66142"/>
<path opacity="0.2" d="M92.4445 105L92.5653 104.837L111.584 128.832L92.5653 152.837L92.4445 152.684V105Z" fill="#616161"/>
<path d="M92.5791 189.685L111.584 213.689L92.5791 237.694L73.5649 213.689L92.5791 189.685Z" fill="#D66142"/>
<path opacity="0.2" d="M92.7 189.847L92.5791 189.685L73.5649 213.689L92.5791 237.694L92.7 237.531V189.847Z" fill="#616161"/>
</svg>
