<svg width="186" height="260" viewBox="0 0 186 260" fill="none" xmlns="http://www.w3.org/2000/svg">
<path d="M20.8489 259.625C9.91529 259.639 0.993691 250.903 0.975104 240.155L0.408212 20.3772C0.371039 9.56445 9.28335 0.777594 20.2588 0.800827L165.49 1.0657C176.424 1.08893 185.318 9.88506 185.318 20.6746V239.979C185.318 250.703 176.456 259.434 165.56 259.444L20.8489 259.625Z" fill="#C9C9C9"/>
<path d="M22.359 259.376C11.5695 259.376 2.78728 250.617 2.78728 239.86V20.6073C2.78728 9.85025 11.5695 1.10059 22.359 1.10059H165.481C176.28 1.10059 185.057 9.85025 185.057 20.6073V239.86C185.057 250.617 176.28 259.376 165.481 259.376H22.359Z" fill="white"/>
<path d="M165.746 254.959H22.6239C14.2599 254.959 7.45255 248.189 7.45255 239.858V20.6046C7.45255 12.2778 14.2553 5.50293 22.6239 5.50293H165.746C174.105 5.50293 180.913 12.2778 180.913 20.6046V239.858C180.908 248.184 174.105 254.959 165.746 254.959ZM22.6239 11.4971C17.5637 11.4971 13.4467 15.5815 13.4467 20.6046V239.858C13.4467 244.881 17.5637 248.97 22.6239 248.97H165.746C170.806 248.97 174.923 244.881 174.923 239.858V20.6046C174.923 15.5815 170.806 11.4971 165.746 11.4971H22.6239Z" fill="#D66142"/>
<path d="M27.935 68.8869L18.5627 57.0611L27.935 45.2354L37.298 57.0611L27.935 68.8869Z" fill="#D66142"/>
<path opacity="0.2" d="M27.935 45.2354L27.6329 45.6164V68.5012L27.935 68.8869L37.298 57.0611L27.935 45.2354Z" fill="#616161"/>
<path d="M35.6485 36.2401C35.5184 36.4492 34.9701 36.9139 34.0082 37.6295C32.7815 38.5542 31.6988 39.1536 30.7742 39.4138L25.8115 30.3156L25.5281 30.5108V38.4798H19.6919V17.7278H25.5281V29.4932C26.5318 29.363 27.4379 28.6707 28.2464 27.4207C28.9852 26.2869 29.3523 25.2182 29.3523 24.2192C29.3523 23.4989 29.2408 22.8763 29.0131 22.3512C28.7482 21.8773 28.488 21.4079 28.2417 20.934C28.2417 20.7202 28.883 20.1394 30.1701 19.1729C31.2295 18.3783 31.9962 17.8021 32.4655 17.4443C32.828 17.7464 33.1579 18.2622 33.4599 18.987C33.7573 19.7119 33.9153 20.3578 33.9153 20.9293C33.9153 21.4219 33.8038 22.0213 33.59 22.7415C33.3763 23.4571 33.0928 24.0984 32.7536 24.6699C32.2239 25.5017 31.7453 26.1383 31.3085 26.5704C30.435 27.4579 29.9796 27.9458 29.9192 28.0434L35.6485 36.2401Z" fill="#333333"/>
<path d="M161.174 193.956L170.537 205.786L161.174 217.608L151.806 205.786L161.174 193.956Z" fill="#D66142"/>
<path opacity="0.2" d="M161.174 217.608L161.476 217.227V194.332L161.174 193.956L151.806 205.786L161.174 217.608Z" fill="#616161"/>
<path d="M153.455 226.598C153.59 226.389 154.134 225.925 155.1 225.209C156.332 224.284 157.405 223.69 158.334 223.425L163.297 232.528L163.576 232.323V224.359H169.417V245.111H163.567V233.35C162.568 233.48 161.661 234.168 160.853 235.413C160.114 236.552 159.747 237.616 159.747 238.619C159.747 239.335 159.863 239.962 160.082 240.492C160.351 240.961 160.607 241.435 160.853 241.909C160.853 242.114 160.207 242.699 158.92 243.666C157.865 244.46 157.094 245.036 156.624 245.394C156.267 245.092 155.932 244.576 155.63 243.847C155.333 243.122 155.175 242.471 155.175 241.909C155.175 241.421 155.286 240.813 155.5 240.092C155.714 239.377 155.997 238.731 156.336 238.164C156.866 237.332 157.349 236.7 157.786 236.268C158.66 235.376 159.115 234.883 159.171 234.791L153.455 226.598Z" fill="#333333"/>
<path d="M147.066 83.3823L146.671 82.0348C146.671 82.0348 121.9 67.909 113.991 63.4249C112.504 62.5839 111.617 62.082 111.584 62.082H76.3301C76.3208 62.082 76.2697 62.1145 76.1675 62.1657C76.0978 62.2075 76.0095 62.2586 75.9026 62.3097C75.8143 62.3701 75.7075 62.4259 75.5866 62.4863C75.4891 62.5467 75.3683 62.6071 75.2521 62.6768C75.1359 62.7511 75.0058 62.8209 74.8525 62.9045C74.6387 63.0207 74.411 63.1554 74.1601 63.2995C73.6815 63.5736 73.1379 63.8803 72.5338 64.2241C72.5245 64.2241 72.5152 64.2334 72.5059 64.2334C72.0598 64.4936 71.5766 64.7632 71.0747 65.0559C70.9028 65.1488 70.7309 65.251 70.5543 65.3533C69.3741 66.027 68.0637 66.7612 66.665 67.5605C66.1632 67.8485 65.6521 68.132 65.1363 68.434C64.6345 68.7221 64.1094 69.0149 63.5843 69.3122C63.0732 69.6143 62.5295 69.921 61.9905 70.223C54.988 74.2098 47.2884 78.6102 43.5432 80.743C43.3248 80.8639 43.1297 80.9754 42.9438 81.0869C42.047 81.598 41.4662 81.9233 41.3082 82.0162V140.783L64.3789 133.85L69.6157 132.279L147.076 109.013V83.3823H147.066Z" fill="#D66142"/>
<path opacity="0.2" d="M94.2152 118.227L83.6951 102.889L94.2616 91.0488L104.912 103.288L94.2152 118.227Z" fill="#616161"/>
<path d="M94.2384 114.742L84.8707 102.902L94.2384 91.0811L103.601 102.902L94.2384 114.742Z" fill="#FFD675"/>
<path opacity="0.2" d="M88.9551 102.905L94.2383 96.2373L99.5123 102.905L94.2383 109.578L88.9551 102.905Z" fill="#616161"/>
<path d="M94.2384 92.5075L84.578 75.7842H103.89L94.2384 92.5075ZM86.4274 76.8529L94.2384 90.3747L102.045 76.8529H86.4274Z" fill="#FFD675"/>
<path opacity="0.2" d="M81.2649 62.0818C81.0837 62.1236 46.1872 82.0346 46.1872 82.0346L41.2943 97.1362V140.773L64.365 133.84L69.6018 132.27L83.3931 87.0204L85.2425 80.9612L87.9329 75.1807L93.955 62.3187V62.0771L81.2649 62.0818Z" fill="#616161"/>
<path d="M76.3301 62.0811C76.3208 62.0811 76.2697 62.1136 76.1675 62.1647C76.0978 62.2065 76.0095 62.2576 75.9026 62.3087C75.8143 62.3691 75.7074 62.4249 75.5866 62.4853C75.4937 62.5457 75.3775 62.6061 75.2521 62.6758C75.1359 62.7502 75.0058 62.8199 74.8525 62.9035C74.6387 63.0197 74.411 63.1544 74.1601 63.2985C73.6815 63.568 73.1378 63.8747 72.5338 64.2232C72.5245 64.2232 72.5152 64.2324 72.5059 64.2324C72.0598 64.488 71.5766 64.7575 71.0747 65.0549C70.9028 65.1479 70.7309 65.2501 70.5543 65.3523C69.374 66.0168 68.0637 66.7603 66.665 67.5595C66.1632 67.8476 65.6521 68.131 65.1363 68.433C64.6251 68.7211 64.1094 69.0092 63.5843 69.3113C63.0732 69.6087 62.5295 69.9107 61.9905 70.222C59.7368 71.5138 57.4042 72.8288 55.1552 74.1205C54.4815 74.4969 53.8077 74.8826 53.1572 75.259C49.2307 77.5033 45.7179 79.506 43.5479 80.7421C43.3341 80.8629 43.1343 80.9744 42.9484 81.0859C42.0516 81.597 41.4708 81.9223 41.3128 82.0153V140.782L45.4251 139.546L47.7299 138.858L64.128 133.932L64.3835 133.849C65.1549 132.037 65.9494 130.104 66.7951 128.101C72.32 114.811 79.053 97.9905 83.4116 87.029C86.1253 80.203 87.9189 75.6493 87.9189 75.6493L87.9468 75.1893L89.1317 62.0903H76.3301V62.0811Z" fill="#EBEBEB"/>
<path opacity="0.2" d="M147.066 99.7924L141.718 82.0329C141.718 82.0329 106.826 62.1265 106.65 62.0801H93.9642V62.3217L102.677 80.9595L113.987 119.638L147.066 107.655V99.7924Z" fill="#616161"/>
<path d="M147.066 83.3897L146.662 82.0329C146.662 82.0329 111.766 62.1265 111.584 62.0801H98.7874L100.005 75.639C100.005 75.639 115.065 106.879 120.413 117.013L147.071 109.007L147.066 83.3897Z" fill="#EBEBEB"/>
<path opacity="0.4" d="M113.987 63.4296L113.225 73.0296L94.099 86.6908V86.728L94.0711 86.7094L94.0525 86.728V86.6908L74.9175 73.0296L74.1508 63.3042C75.4891 62.5375 76.2976 62.0868 76.3208 62.0868H79.1739C80.921 64.7539 82.4033 67.0029 82.4033 67.0029L89.3733 62.0868L90.4327 61.334L94.0664 61.4641L97.7048 61.334L98.7642 62.0868L105.739 67.0029C105.739 67.0029 107.23 64.7539 108.964 62.0868H111.58C111.617 62.0914 112.504 62.5932 113.987 63.4296Z" fill="#616161"/>
<path d="M114.326 53.4488L113.963 48.6767L113.954 48.5001L112.867 33.9049L107.44 31.1634L96.966 25.8662L94.0711 27.4228L91.1716 25.8662L80.7026 31.1634L75.28 33.9049L74.1927 48.5001L74.1787 48.6767L73.8163 53.4488L74.9083 67.3331L94.0432 80.9989V81.0314L94.0525 81.0361L94.0711 81.0175L94.099 81.0361V81.0314V80.9989L113.225 67.3331L114.326 53.4488Z" fill="#EBBE9F"/>
<path d="M114.321 53.4489L113.95 48.5049C112.286 51.4462 105.734 61.3111 105.734 61.3111L97.6955 55.6468L94.0618 55.7723L90.4281 55.6468L82.394 61.3111C82.394 61.3111 75.8422 51.4462 74.1787 48.5049L73.8116 53.4489L74.9036 67.3332L94.0386 80.999V81.0362L94.0571 81.0176L94.085 81.0362V80.999L113.211 67.3332L114.321 53.4489Z" fill="#9C9C9C"/>
<path d="M94.099 62.0764L100.511 61.858L95.7114 58.8424C95.7114 58.8424 94.9354 58.8237 94.099 58.8145C94.0851 58.8145 94.0758 58.8145 94.0711 58.8145C94.0665 58.8145 94.0572 58.8145 94.0525 58.8145C93.2022 58.8237 92.4308 58.8424 92.4308 58.8424L87.6355 61.858L94.0479 62.0764V62.0857H94.0665H94.0943L94.099 62.0764Z" fill="#EBBE9F"/>
<path opacity="0.2" d="M97.9789 52.9031L95.3443 43.7725H94.0989H94.0525H92.7979L90.1725 52.9031L92.7979 55.7237L94.0525 55.7702V55.7748L94.0711 55.7702L94.0989 55.7748V55.7702L95.3443 55.7237L97.9789 52.9031Z" fill="#616161"/>
<path d="M96.8452 41.3231L105.098 40.2869L105.279 40.2637L105.367 40.3194L109.298 42.3965L105.009 41.1977L105.279 41.2209L97.2773 43.4792L96.8452 41.3231Z" fill="#9C9C9C"/>
<path d="M99.74 44.7705C99.6053 45.0725 99.5263 45.3885 99.5263 45.7324C99.5263 47.0195 100.576 48.0603 101.854 48.0603C103.141 48.0603 104.182 47.0195 104.182 45.7324C104.182 45.3885 104.103 45.0725 103.973 44.7705H99.74Z" fill="#333333"/>
<path d="M91.3017 41.3231L83.0493 40.2869L82.868 40.2637L82.7798 40.3194L78.8487 42.3965L83.1283 41.1977L82.8588 41.2209L90.8696 43.4792L91.3017 41.3231Z" fill="#9C9C9C"/>
<path d="M88.4069 44.7705C88.537 45.0725 88.6206 45.3885 88.6206 45.7324C88.6206 47.0195 87.5751 48.0603 86.288 48.0603C85.0008 48.0603 83.9554 47.0195 83.9554 45.7324C83.9554 45.3885 84.0297 45.0725 84.1691 44.7705H88.4069Z" fill="#333333"/>
<path d="M113.964 48.6793C113.833 48.7815 113.764 48.8326 113.764 48.8326L109.949 35.3666L107.444 31.166L112.867 33.9075L113.954 48.5074L113.964 48.6793Z" fill="#9C9C9C"/>
<path d="M74.1788 48.6793C74.3182 48.7815 74.3879 48.8326 74.3879 48.8326L78.2028 35.3666L80.7073 31.166L75.2847 33.9075L74.1973 48.5074L74.1788 48.6793Z" fill="#9C9C9C"/>
<path d="M113.225 28.7026V34.274C108.383 35.589 102.969 36.1652 97.7744 36.3046C94.3126 36.4068 90.9484 36.3185 87.9049 36.1466C86.3947 36.0583 84.9728 35.9514 83.6578 35.8353C82.0873 35.6912 80.67 35.5425 79.4433 35.3985C76.5206 35.0453 74.7223 34.7294 74.7223 34.7294V29.4322C74.7223 29.4322 93.8758 19.2002 93.9688 19.2002C93.9688 19.2467 96.3665 20.4362 99.4611 21.9649C100.442 22.4482 101.501 22.9733 102.574 23.4984C103.592 23.9956 104.628 24.5067 105.632 25.0039C108.48 26.3932 111.082 27.6571 112.37 28.2891C112.913 28.5446 113.225 28.7026 113.225 28.7026Z" fill="#FFD675"/>
<path opacity="0.2" d="M102.579 23.4914L83.6626 35.8283C82.092 35.6843 80.6748 35.5356 79.4481 35.3915L99.4659 21.958C100.446 22.4413 101.506 22.9663 102.579 23.4914Z" fill="white"/>
<path opacity="0.2" d="M112.374 28.2793L97.7746 36.2995C94.3128 36.4017 90.9486 36.3134 87.905 36.1415L105.632 24.9941C108.485 26.3881 111.087 27.652 112.374 28.2793Z" fill="white"/>
<path d="M97.3469 25.1774L94.2383 29.3315V29.3408L94.071 29.6103L90.7672 25.2936L94.2383 20.6748L97.3469 25.1774Z" fill="#D66142"/>
<path opacity="0.2" d="M94.2383 29.3315L94.9539 25.6932L94.2383 20.6748L97.347 25.1774L94.2383 29.3315Z" fill="white"/>
<path d="M56.1543 100.662L55.5131 105.16L57.7342 101.196L56.1543 100.662Z" fill="#333333"/>
<path d="M65.0016 100.662L64.365 105.16L66.5815 101.196L65.0016 100.662Z" fill="#333333"/>
<path d="M73.8442 100.662L73.2122 105.16L75.4194 101.196L73.8442 100.662Z" fill="#333333"/>
<path d="M45.0906 115.155L44.4587 119.644L46.6659 115.685L45.0906 115.155Z" fill="#333333"/>
<path d="M53.9378 115.155L53.3012 119.644L55.513 115.685L53.9378 115.155Z" fill="#333333"/>
<path d="M62.7759 115.155L62.1486 119.644L64.365 115.685L62.7759 115.155Z" fill="#333333"/>
<path d="M47.7904 129.748L47.1631 134.237L49.3749 130.282L47.7904 129.748Z" fill="#333333"/>
<path d="M56.647 129.748L56.0011 134.237L58.2268 130.282L56.647 129.748Z" fill="#333333"/>
<path d="M66.1121 129.403C65.6939 130.407 65.2897 131.378 64.9133 132.274L64.7832 132.316L65.2339 129.105L66.1121 129.403Z" fill="#333333"/>
<path d="M71.637 75.3955L70.9958 79.8935L73.2123 75.9345L71.637 75.3955Z" fill="#333333"/>
<path d="M62.7759 73.5898L62.1486 78.0739L64.365 74.1196L62.7759 73.5898Z" fill="#333333"/>
<path d="M54.5327 75.2188L53.2967 77.4213L53.529 75.7857C53.8589 75.5998 54.1889 75.4046 54.5327 75.2188Z" fill="#333333"/>
<path d="M47.1352 138.847L45.9828 139.191L46.085 138.489L47.1352 138.847Z" fill="#333333"/>
<path d="M45.3137 86.0547L44.6818 90.548L46.8889 86.5844L45.3137 86.0547Z" fill="#333333"/>
<path d="M55.16 86.0547L54.5188 90.548L56.7306 86.5844L55.16 86.0547Z" fill="#333333"/>
<path d="M64.0026 86.0547L63.366 90.548L65.5824 86.5844L64.0026 86.0547Z" fill="#333333"/>
<path d="M72.8452 86.0547L72.2179 90.548L74.4297 86.5844L72.8452 86.0547Z" fill="#333333"/>
<path d="M81.9154 77.7422L81.2835 82.2402L83.4953 78.2719L81.9154 77.7422Z" fill="#333333"/>
<path d="M46.308 100.662L45.6761 105.16L47.8879 101.196L46.308 100.662Z" fill="#333333"/>
<path d="M133.902 100.662L134.53 105.16L132.327 101.196L133.902 100.662Z" fill="#333333"/>
<path d="M125.055 100.662L125.692 105.16L123.475 101.196L125.055 100.662Z" fill="#333333"/>
<path d="M116.203 100.662L116.845 105.16L114.628 101.196L116.203 100.662Z" fill="#333333"/>
<path d="M118.424 75.3955L119.056 79.8935L116.844 75.9345L118.424 75.3955Z" fill="#333333"/>
<path d="M127.267 73.5898L127.903 78.0739L125.692 74.1196L127.267 73.5898Z" fill="#333333"/>
<path d="M135.519 75.2188L136.751 77.4213L136.523 75.7857C136.193 75.5998 135.863 75.4046 135.519 75.2188Z" fill="#333333"/>
<path d="M144.738 86.0547L145.38 90.548L143.154 86.5844L144.738 86.0547Z" fill="#333333"/>
<path d="M134.897 86.0547L135.533 90.548L133.312 86.5844L134.897 86.0547Z" fill="#333333"/>
<path d="M126.05 86.0547L126.682 90.548L124.465 86.5844L126.05 86.0547Z" fill="#333333"/>
<path d="M117.202 86.0547L117.844 90.548L115.627 86.5844L117.202 86.0547Z" fill="#333333"/>
<path d="M108.137 77.7422L108.773 82.2402L106.552 78.2719L108.137 77.7422Z" fill="#333333"/>
<path d="M143.739 100.662L144.376 105.16L142.164 101.196L143.739 100.662Z" fill="#333333"/>
<path opacity="0.2" d="M147.066 83.3866L146.671 82.0391C146.671 82.0391 142.266 79.5345 136.597 76.2958L136.523 75.7939C136.193 75.6081 135.863 75.4129 135.519 75.227L135.905 75.9101C129.651 72.3368 122.044 68.0061 117.026 65.1577C115.65 64.3771 114.465 63.7033 113.559 63.1876L114.331 53.4528L114.14 50.9529L113.963 48.6806L113.954 48.5041L112.899 34.355C113.006 34.3271 113.113 34.3039 113.225 34.2713V28.7C113.225 28.7 112.913 28.542 112.374 28.2818C111.087 27.6545 108.485 26.3906 105.637 24.9966C104.633 24.504 103.597 23.9929 102.579 23.4911C101.506 22.966 100.446 22.4409 99.4659 21.9577C96.9009 20.6938 94.8238 19.6576 94.1826 19.3184V124.895L113.801 118.999L113.987 119.645L125.241 115.565L126.119 115.305L147.066 109.008V83.3866Z" fill="#616161"/>
<path d="M41.2989 176.914L41.7032 178.257C41.7032 178.257 66.4653 192.392 74.3786 196.867C75.8608 197.713 76.7576 198.21 76.7855 198.21H112.044C112.054 198.21 112.114 198.182 112.212 198.126C112.272 198.084 112.36 198.043 112.467 197.982C112.56 197.926 112.667 197.871 112.788 197.81C112.895 197.75 113.006 197.68 113.113 197.615C113.239 197.536 113.373 197.466 113.517 197.392C113.731 197.271 113.959 197.141 114.21 196.992C114.688 196.718 115.237 196.412 115.845 196.072L115.864 196.063C116.305 195.798 116.798 195.529 117.3 195.241C117.472 195.143 117.644 195.045 117.825 194.939C119.005 194.265 120.311 193.531 121.7 192.745C122.207 192.453 122.718 192.16 123.234 191.867C123.74 191.574 124.256 191.282 124.781 190.994C125.301 190.682 125.836 190.376 126.379 190.078C133.377 186.087 141.081 181.691 144.822 179.567C145.045 179.433 145.245 179.321 145.426 179.214C146.323 178.703 146.894 178.378 147.057 178.285V119.519L123.986 126.451L118.754 128.017L41.2896 151.283V176.914H41.2989Z" fill="#D66142"/>
<path opacity="0.2" d="M94.1548 142.058L104.67 157.396L94.099 169.245L83.4535 157.006L94.1548 142.058Z" fill="#616161"/>
<path d="M94.1315 145.557L103.504 157.382L94.1315 169.208L84.7685 157.382L94.1315 145.557Z" fill="#FFD675"/>
<path opacity="0.2" d="M99.4102 157.384L94.1316 164.052L88.8483 157.384L94.1316 150.721L99.4102 157.384Z" fill="#616161"/>
<path d="M94.1315 167.776L103.792 184.5H84.485L94.1315 167.776ZM101.943 183.44L94.1315 169.909L86.3251 183.44H101.943Z" fill="#FFD675"/>
<path opacity="0.2" d="M107.096 198.204C107.282 198.163 142.178 178.256 142.178 178.256L147.071 163.155V119.522L124 126.455L118.768 128.021L104.972 173.27L103.132 179.334L100.428 185.115L94.4196 197.972V198.214H107.096V198.204Z" fill="#616161"/>
<path d="M112.044 198.205C112.054 198.205 112.114 198.177 112.212 198.122C112.272 198.08 112.36 198.038 112.467 197.977C112.56 197.922 112.667 197.866 112.788 197.806C112.885 197.745 112.997 197.675 113.113 197.61C113.239 197.531 113.373 197.462 113.517 197.387C113.731 197.267 113.959 197.136 114.21 196.988C114.688 196.728 115.232 196.416 115.845 196.068C115.85 196.068 115.859 196.058 115.864 196.058C116.305 195.798 116.798 195.529 117.3 195.236C117.472 195.138 117.644 195.041 117.825 194.934C119.001 194.269 120.311 193.526 121.7 192.741C122.207 192.448 122.718 192.155 123.234 191.863C123.74 191.57 124.256 191.286 124.781 190.989C125.301 190.692 125.836 190.38 126.379 190.074C128.628 188.786 130.966 187.462 133.215 186.18C133.893 185.794 134.562 185.418 135.217 185.041C139.144 182.797 142.657 180.794 144.822 179.563C145.04 179.428 145.245 179.317 145.426 179.21C146.323 178.699 146.894 178.373 147.057 178.28V119.519L142.949 120.755L140.64 121.442L124.247 126.372L123.982 126.456C123.215 128.268 122.416 130.197 121.575 132.204C116.05 145.484 109.312 162.31 104.954 173.271C102.235 180.097 100.451 184.651 100.451 184.651L100.409 185.111L99.2336 198.21L112.044 198.205Z" fill="#EBEBEB"/>
<path opacity="0.2" d="M41.299 160.498L46.6473 178.257C46.6473 178.257 81.5437 198.163 81.725 198.215H94.4104V197.968L85.6979 179.33L74.3832 140.656L41.2943 152.64L41.299 160.498Z" fill="#616161"/>
<path d="M41.299 176.907L41.7032 178.255C41.7032 178.255 76.595 198.161 76.7809 198.212H89.5825L88.3604 184.649C88.3604 184.649 73.3145 153.409 67.9569 143.279L41.2943 151.286L41.299 176.907Z" fill="#EBEBEB"/>
<path opacity="0.4" d="M74.3879 196.862L75.136 187.266L94.271 173.605V173.563L94.2896 173.582L94.3221 173.563V173.605L113.452 187.266L114.214 196.987C112.876 197.754 112.072 198.205 112.044 198.214H109.191C107.449 195.542 105.962 193.298 105.962 193.298L98.992 198.214L97.9279 198.962L94.2942 198.837L90.6698 198.962L89.6057 198.214L82.6357 193.298C82.6357 193.298 81.1395 195.542 79.4017 198.214H76.7856C76.7577 198.205 75.8609 197.703 74.3879 196.862Z" fill="#616161"/>
<path d="M74.044 206.842L74.4065 211.61L74.4158 211.786L75.5031 226.391L80.9304 229.132L91.3947 234.429L94.2896 232.873L97.1937 234.429L107.667 229.132L113.085 226.391L114.182 211.786L114.187 211.61L114.554 206.842L113.457 192.958L94.3267 179.292V179.255H94.3221L94.2896 179.269L94.271 179.255V179.292L75.136 192.958L74.044 206.842Z" fill="#EBBE9F"/>
<path d="M74.044 206.842L74.4158 211.782C76.0746 208.85 82.6311 198.98 82.6311 198.98L90.6652 204.654L94.2896 204.523L97.9233 204.654L105.962 198.98C105.962 198.98 112.518 208.854 114.177 211.782L114.554 206.842L113.457 192.958L94.3267 179.292V179.255L94.2942 179.269L94.2756 179.255V179.292L75.1407 192.958L74.044 206.842Z" fill="#9C9C9C"/>
<path d="M94.2709 198.213L87.8585 198.441L92.6585 201.452C92.6585 201.452 93.4345 201.47 94.2756 201.48C94.2849 201.48 94.2942 201.48 94.2942 201.48C94.3081 201.48 94.3174 201.48 94.3267 201.48C95.1724 201.47 95.9437 201.452 95.9437 201.452L100.739 198.441L94.3267 198.213H94.2942H94.2709Z" fill="#EBBE9F"/>
<path opacity="0.2" d="M90.4002 207.392L93.0163 216.523H94.2709H94.322H95.572L98.2066 207.392L95.572 204.572L94.322 204.525V204.521L94.2895 204.525L94.2709 204.521V204.525L93.0163 204.572L90.4002 207.392Z" fill="#616161"/>
<path d="M91.5248 218.968L83.2676 220.004L83.0911 220.032L82.9981 219.981L79.0671 217.895L83.3513 219.098L83.0864 219.075L91.0926 216.821L91.5248 218.968Z" fill="#9C9C9C"/>
<path d="M88.63 215.523C88.7648 215.231 88.8345 214.905 88.8345 214.562C88.8345 213.279 87.7936 212.238 86.5111 212.238C85.224 212.238 84.1878 213.279 84.1878 214.562C84.1878 214.905 84.2668 215.231 84.3876 215.523H88.63Z" fill="#333333"/>
<path d="M97.0637 218.968L105.316 220.004L105.502 220.032L105.595 219.981L109.531 217.895L105.237 219.098L105.507 219.075L97.5004 216.821L97.0637 218.968Z" fill="#9C9C9C"/>
<path d="M99.9632 215.523C99.8284 215.231 99.7495 214.905 99.7495 214.562C99.7495 213.279 100.795 212.238 102.077 212.238C103.369 212.238 104.415 213.279 104.415 214.562C104.415 214.905 104.336 215.231 104.201 215.523H99.9632Z" fill="#333333"/>
<path d="M74.4065 211.611C74.5366 211.514 74.6156 211.453 74.6156 211.453L78.4352 224.928L80.9304 229.129L75.5078 226.388L74.4204 211.783L74.4065 211.611Z" fill="#9C9C9C"/>
<path d="M114.187 211.611C114.056 211.514 113.987 211.453 113.987 211.453L110.163 224.928L107.667 229.129L113.085 226.388L114.182 211.783L114.187 211.611Z" fill="#9C9C9C"/>
<path d="M75.1406 231.594V226.018C79.9824 224.703 85.4004 224.132 90.6001 223.988C94.0572 223.89 97.4167 223.974 100.46 224.155C101.966 224.234 103.392 224.345 104.707 224.461C106.273 224.596 107.691 224.75 108.917 224.894C111.845 225.251 113.634 225.567 113.634 225.567V230.869C113.634 230.869 94.4847 241.101 94.3871 241.101C94.3871 241.059 91.9941 239.861 88.8994 238.336C87.9189 237.853 86.8595 237.333 85.7861 236.803C84.7732 236.306 83.7323 235.795 82.7286 235.302C79.8756 233.908 77.2827 232.649 75.9863 232.017C75.4519 231.743 75.1406 231.594 75.1406 231.594Z" fill="#FFD675"/>
<path opacity="0.2" d="M85.7909 236.8L104.712 224.463C106.278 224.598 107.695 224.751 108.922 224.895L88.9041 238.333C87.9283 237.85 86.8642 237.33 85.7909 236.8Z" fill="white"/>
<path opacity="0.2" d="M75.991 232.012L90.6001 223.988C94.0572 223.89 97.4168 223.974 100.46 224.155L82.7333 235.293C79.8849 233.904 77.2921 232.644 75.991 232.012Z" fill="white"/>
<path d="M91.0182 235.114L94.1315 230.964V230.96L94.2895 230.686L97.6026 235.007L94.1315 239.621L91.0182 235.114Z" fill="#D66142"/>
<path opacity="0.2" d="M94.1315 230.962L93.4066 234.61L94.1315 239.619L91.0182 235.111L94.1315 230.962Z" fill="white"/>
<path d="M132.216 159.634L132.852 155.136L130.636 159.104L132.216 159.634Z" fill="#333333"/>
<path d="M123.368 159.634L124.005 155.136L121.798 159.104L123.368 159.634Z" fill="#333333"/>
<path d="M114.521 159.634L115.162 155.136L112.951 159.104L114.521 159.634Z" fill="#333333"/>
<path d="M143.279 145.149L143.911 140.651L141.704 144.61L143.279 145.149Z" fill="#333333"/>
<path d="M134.427 145.149L135.064 140.651L132.852 144.61L134.427 145.149Z" fill="#333333"/>
<path d="M125.585 145.149L126.222 140.651L124.005 144.61L125.585 145.149Z" fill="#333333"/>
<path d="M140.575 130.547L141.212 126.062L138.995 130.017L140.575 130.547Z" fill="#333333"/>
<path d="M131.718 130.547L132.36 126.062L130.148 130.017L131.718 130.547Z" fill="#333333"/>
<path d="M122.258 130.891C122.676 129.883 123.08 128.921 123.466 128.011L123.591 127.969L123.141 131.184L122.258 130.891Z" fill="#333333"/>
<path d="M116.738 184.891L117.379 180.397L115.162 184.356L116.738 184.891Z" fill="#333333"/>
<path d="M125.585 186.706L126.222 182.213L124.005 186.181L125.585 186.706Z" fill="#333333"/>
<path d="M133.837 185.078L135.073 182.871L134.841 184.507C134.516 184.688 134.172 184.878 133.837 185.078Z" fill="#333333"/>
<path d="M141.23 121.45L142.383 121.106L142.285 121.803L141.23 121.45Z" fill="#333333"/>
<path d="M143.052 174.232L143.693 169.738L141.476 173.707L143.052 174.232Z" fill="#333333"/>
<path d="M133.215 174.232L133.847 169.738L131.635 173.707L133.215 174.232Z" fill="#333333"/>
<path d="M124.363 174.232L125.004 169.738L122.783 173.707L124.363 174.232Z" fill="#333333"/>
<path d="M115.515 174.232L116.157 169.738L113.94 173.707L115.515 174.232Z" fill="#333333"/>
<path d="M106.45 182.55L107.086 178.057L104.87 182.016L106.45 182.55Z" fill="#333333"/>
<path d="M142.057 159.634L142.699 155.136L140.477 159.104L142.057 159.634Z" fill="#333333"/>
<path d="M54.4722 159.633L53.831 155.135L56.0475 159.103L54.4722 159.633Z" fill="#333333"/>
<path d="M63.3102 159.633L62.6782 155.135L64.8947 159.103L63.3102 159.633Z" fill="#333333"/>
<path d="M72.1574 159.633L71.5254 155.135L73.7419 159.103L72.1574 159.633Z" fill="#333333"/>
<path d="M69.9503 184.89L69.309 180.396L71.5255 184.355L69.9503 184.89Z" fill="#333333"/>
<path d="M61.0984 186.705L60.4618 182.212L62.6783 186.18L61.0984 186.705Z" fill="#333333"/>
<path d="M52.8505 185.077L51.6145 182.87L51.8468 184.506C52.1814 184.687 52.5066 184.878 52.8505 185.077Z" fill="#333333"/>
<path d="M43.6269 174.231L42.9903 169.737L45.2068 173.706L43.6269 174.231Z" fill="#333333"/>
<path d="M53.4731 174.231L52.8365 169.737L55.053 173.706L53.4731 174.231Z" fill="#333333"/>
<path d="M62.3205 174.231L61.6792 169.737L63.9003 173.706L62.3205 174.231Z" fill="#333333"/>
<path d="M71.1677 174.231L70.5311 169.737L72.7429 173.706L71.1677 174.231Z" fill="#333333"/>
<path d="M80.2426 182.548L79.5967 178.055L81.8178 182.014L80.2426 182.548Z" fill="#333333"/>
<path d="M44.6212 159.633L43.9893 155.135L46.2058 159.103L44.6212 159.633Z" fill="#333333"/>
<path opacity="0.2" d="M41.2989 176.913L41.7032 178.256C41.7032 178.256 46.0943 180.766 51.7725 184L51.8469 184.506C52.1768 184.687 52.5067 184.883 52.8505 185.078L52.4649 184.39C58.7193 187.959 66.3259 192.294 71.3489 195.142C72.729 195.928 73.9046 196.597 74.806 197.113L74.0393 206.843L74.2299 209.343L74.4018 211.61L74.4111 211.787L75.4659 225.936C75.3543 225.964 75.2428 225.992 75.136 226.019V231.595C75.136 231.595 75.4473 231.744 75.9863 232.014C77.2827 232.646 79.8756 233.905 82.7286 235.299C83.7276 235.791 84.7685 236.303 85.7861 236.8C86.8595 237.329 87.9189 237.85 88.8994 238.333C91.469 239.597 93.546 240.633 94.178 240.977V135.396L74.5644 141.292L74.3785 140.656L63.1243 144.731L62.2415 144.995L41.2896 151.287V176.913H41.2989Z" fill="#616161"/>
</svg>
