<svg width="186" height="260" viewBox="0 0 186 260" fill="none" xmlns="http://www.w3.org/2000/svg">
<path d="M21.2749 259.227C10.3459 259.255 1.41504 250.519 1.39181 239.771L0.824874 19.9607C0.801641 9.14327 9.70938 0.356443 20.6848 0.375029L165.944 0.64453C176.878 0.667763 185.772 9.46391 185.772 20.2535V239.595C185.772 250.315 176.915 259.046 166.009 259.06L21.2749 259.227Z" fill="#C9C9C9"/>
<path d="M23.087 258.687C12.2974 258.687 3.5105 249.933 3.5105 239.171V19.8905C3.5105 9.12881 12.2974 0.383789 23.087 0.383789H166.227C177.022 0.383789 185.808 9.12881 185.808 19.8905V239.171C185.808 249.933 177.022 258.687 166.227 258.687H23.087Z" fill="white"/>
<path d="M26.344 30.2312C26.344 31.1745 25.8653 32.4058 24.9128 33.9206C23.9556 35.4262 23.0123 36.3973 22.0969 36.8341C21.3628 37.1733 20.7958 37.4103 20.4288 37.5265C20.0617 37.6473 19.769 37.7124 19.5367 37.7124C19.2439 37.7124 18.9605 37.7124 18.7142 37.7124C16.7533 37.7124 15.2384 37.02 14.1604 35.6446C13.2032 34.4318 12.7385 32.9402 12.7385 31.1791C12.7385 29.9989 12.9708 28.6513 13.4355 27.1319C13.8909 25.6031 14.4765 24.3067 15.1735 23.2519C16.1771 21.7324 16.8276 20.8031 17.1203 20.4593C17.3062 20.2734 18.0544 19.6228 19.374 18.4983C20.3545 17.6619 21.0654 17.1229 21.4929 16.8813C21.7995 16.7094 22.0691 16.6211 22.3153 16.6211C22.6592 16.6211 22.8311 16.8023 22.8311 17.1601C22.8311 17.2577 22.3526 17.7549 21.3861 18.661C20.6658 19.3394 19.9502 20.1572 19.2532 21.1005C18.993 21.4444 18.6399 22.0856 18.1799 23.0289C17.6501 24.1255 17.3805 24.8411 17.3805 25.1849C17.3805 25.2407 17.4177 25.3011 17.4874 25.3708C17.5525 25.4405 17.6083 25.4683 17.6966 25.4683C18.1845 25.1988 18.7049 24.9433 19.2532 24.6738C20.3544 24.1487 21.1536 23.8839 21.6323 23.8839C22.5895 23.8839 23.57 24.4647 24.5876 25.6403C25.7586 26.9785 26.344 28.5119 26.344 30.2312ZM22.2549 33.2934C22.2549 32.062 21.8367 30.8538 20.9957 29.6736C20.1361 28.4887 19.2532 27.9079 18.3471 27.9079C18.0171 27.9079 17.6966 27.9729 17.4178 28.1169C17.1204 28.2563 16.9903 28.484 16.9903 28.8047C16.9903 29.957 17.4782 31.1419 18.4307 32.3454C19.4762 33.6511 20.5775 34.3063 21.7531 34.3063C21.925 34.3063 22.0505 34.2459 22.1341 34.1111C22.2224 33.981 22.2549 33.7069 22.2549 33.2934Z" fill="#333333"/>
<path d="M164.178 231.258C164.178 230.311 164.661 229.084 165.614 227.574C166.571 226.063 167.515 225.092 168.435 224.656C169.169 224.321 169.722 224.084 170.089 223.958C170.47 223.842 170.763 223.777 170.995 223.777C171.288 223.777 171.557 223.777 171.817 223.777C173.778 223.777 175.293 224.47 176.371 225.859C177.314 227.067 177.793 228.554 177.793 230.311C177.793 231.486 177.561 232.838 177.096 234.367C176.631 235.891 176.055 237.188 175.358 238.252C174.35 239.762 173.704 240.687 173.397 241.035C173.225 241.23 172.477 241.876 171.158 242.991C170.177 243.828 169.466 244.362 169.039 244.613C168.732 244.785 168.462 244.868 168.202 244.868C167.872 244.868 167.7 244.687 167.7 244.329C167.7 244.237 168.179 243.744 169.146 242.829C169.866 242.15 170.567 241.332 171.278 240.398C171.534 240.055 171.892 239.409 172.352 238.465C172.877 237.373 173.137 236.649 173.137 236.309C173.137 236.254 173.114 236.193 173.039 236.128C172.974 236.063 172.905 236.031 172.83 236.031C172.342 236.295 171.813 236.556 171.274 236.82C170.172 237.346 169.373 237.615 168.881 237.615C167.937 237.615 166.957 237.03 165.939 235.854C164.768 234.506 164.178 232.973 164.178 231.258ZM168.263 228.206C168.263 229.432 168.69 230.631 169.531 231.811C170.391 232.996 171.274 233.582 172.18 233.582C172.505 233.582 172.83 233.512 173.109 233.373C173.393 233.229 173.537 232.996 173.537 232.68C173.537 231.528 173.049 230.348 172.078 229.135C171.046 227.839 169.945 227.179 168.769 227.179C168.597 227.179 168.476 227.239 168.388 227.374C168.309 227.513 168.263 227.778 168.263 228.206Z" fill="#333333"/>
<path d="M137.878 34.9913C138.045 34.1735 138.171 33.351 138.157 32.4821C138.166 26.302 133.134 21.3069 126.972 21.3115C120.783 21.3162 115.783 26.3067 115.783 32.4821C115.783 33.8203 116.02 35.0935 116.448 36.2691C110.997 36.6873 106.708 41.241 106.694 46.8031C106.708 52.6486 111.448 57.365 117.293 57.3743C118.836 57.379 124.361 55.6597 125.546 54.9627L118.381 67.2438L135.838 67.2299L128.673 54.9627C130.109 55.8316 136.205 57.365 137.688 57.365C143.886 57.365 148.9 52.3466 148.886 46.1665C148.905 40.0515 143.979 35.0889 137.878 34.9913Z" fill="#333333"/>
<path opacity="0.2" d="M137.878 34.9913C138.045 34.1735 138.171 33.351 138.157 32.4821C138.166 26.302 133.134 21.3069 126.972 21.3115C126.944 21.3115 126.93 21.3162 126.921 21.3162V67.2345L135.838 67.2299L128.673 54.9627C130.109 55.8316 136.205 57.365 137.688 57.365C143.886 57.365 148.9 52.3466 148.886 46.1665C148.905 40.0515 143.979 35.0889 137.878 34.9913Z" fill="#616161"/>
<path d="M137.878 122.447C138.045 121.629 138.171 120.807 138.157 119.938C138.166 113.763 133.134 108.758 126.972 108.763C120.783 108.772 115.783 113.758 115.783 119.938C115.783 121.272 116.02 122.549 116.448 123.72C110.997 124.143 106.708 128.702 106.694 134.254C106.708 140.1 111.448 144.821 117.293 144.83C118.836 144.835 124.361 143.116 125.546 142.423L118.381 154.7L135.838 154.686L128.673 142.419C130.109 143.287 136.205 144.821 137.688 144.821C143.886 144.826 148.9 139.802 148.886 133.622C148.905 127.507 143.979 122.545 137.878 122.447Z" fill="#333333"/>
<path opacity="0.2" d="M137.878 122.447C138.045 121.629 138.171 120.807 138.157 119.938C138.166 113.763 133.134 108.758 126.972 108.763C126.944 108.763 126.93 108.772 126.921 108.772V154.695L135.838 154.686L128.673 142.419C130.109 143.287 136.205 144.821 137.688 144.821C143.886 144.826 148.9 139.802 148.886 133.622C148.905 127.507 143.979 122.545 137.878 122.447Z" fill="#616161"/>
<path d="M48.7226 34.9913C48.5507 34.1735 48.4252 33.351 48.4391 32.4821C48.4252 26.302 53.4621 21.3069 59.6329 21.3115C65.8083 21.3162 70.8174 26.3067 70.8174 32.4821C70.8174 33.8203 70.5711 35.0935 70.1436 36.2691C75.5849 36.6873 79.8831 41.241 79.897 46.8031C79.8831 52.6486 75.1482 57.365 69.312 57.3743C67.7553 57.379 62.235 55.6597 61.0454 54.9627L68.2107 67.2438L50.7531 67.2299L57.9184 54.9627C56.4825 55.8316 50.3861 57.365 48.9038 57.365C42.7191 57.365 37.7053 52.3466 37.7053 46.1665C37.7053 40.0515 42.6169 35.0889 48.7226 34.9913Z" fill="#333333"/>
<path opacity="0.2" d="M48.7226 34.9913C48.5507 34.1735 48.4252 33.351 48.4391 32.4821C48.4252 26.302 53.4621 21.3069 59.6329 21.3115C59.6469 21.3115 59.6608 21.3162 59.6701 21.3162V67.2345L50.7531 67.2299L57.9184 54.9627C56.4825 55.8316 50.3861 57.365 48.9038 57.365C42.7191 57.365 37.7053 52.3466 37.7053 46.1665C37.7053 40.0515 42.6169 35.0889 48.7226 34.9913Z" fill="#616161"/>
<path d="M48.7226 122.447C48.5507 121.629 48.4252 120.807 48.4391 119.938C48.4252 113.763 53.4621 108.758 59.6329 108.763C65.8083 108.772 70.8174 113.758 70.8174 119.938C70.8174 121.272 70.5711 122.549 70.1436 123.72C75.5849 124.143 79.8831 128.702 79.897 134.254C79.8831 140.1 75.1482 144.821 69.312 144.83C67.7553 144.835 62.235 143.116 61.0454 142.423L68.2107 154.7L50.7531 154.686L57.9184 142.419C56.4825 143.287 50.3861 144.821 48.9038 144.821C42.7191 144.826 37.7053 139.802 37.7053 133.622C37.7053 127.507 42.6169 122.545 48.7226 122.447Z" fill="#333333"/>
<path opacity="0.2" d="M48.7226 122.447C48.5507 121.629 48.4252 120.807 48.4391 119.938C48.4252 113.763 53.4621 108.758 59.6329 108.763C59.6469 108.763 59.6608 108.772 59.6701 108.772V154.695L50.7531 154.686L57.9184 142.419C56.4825 143.287 50.3861 144.821 48.9038 144.821C42.7191 144.826 37.7053 139.802 37.7053 133.622C37.7053 127.507 42.6169 122.545 48.7226 122.447Z" fill="#616161"/>
<path d="M137.878 224.06C138.045 224.873 138.171 225.696 138.157 226.564C138.166 232.74 133.134 237.744 126.972 237.74C120.783 237.726 115.783 232.749 115.783 226.564C115.783 225.226 116.02 223.953 116.448 222.777C110.997 222.359 106.708 217.806 106.694 212.248C106.708 206.403 111.448 201.677 117.293 201.677C118.836 201.663 124.361 203.392 125.546 204.089L118.381 191.803L135.838 191.812L128.673 204.089C130.109 203.215 136.205 201.682 137.688 201.682C143.886 201.672 148.9 206.695 148.886 212.88C148.905 219.004 143.979 223.967 137.878 224.06Z" fill="#333333"/>
<path opacity="0.2" d="M137.878 224.061C138.045 224.874 138.171 225.696 138.157 226.565C138.166 232.741 133.134 237.745 126.972 237.74C126.945 237.74 126.931 237.736 126.921 237.736V191.817L135.838 191.822L128.673 204.099C130.109 203.225 136.205 201.692 137.688 201.692C143.886 201.682 148.9 206.705 148.886 212.89C148.905 219.005 143.979 223.968 137.878 224.061Z" fill="#616161"/>
<path d="M48.7226 224.06C48.5507 224.873 48.4252 225.696 48.4391 226.564C48.4252 232.74 53.4621 237.744 59.6329 237.74C65.8083 237.726 70.8174 232.749 70.8174 226.564C70.8174 225.226 70.5711 223.953 70.1436 222.777C75.5849 222.359 79.8831 217.806 79.897 212.248C79.8831 206.403 75.1482 201.677 69.312 201.677C67.7553 201.663 62.235 203.392 61.0454 204.089L68.2107 191.803L50.7531 191.812L57.9184 204.089C56.4825 203.215 50.3861 201.682 48.9038 201.682C42.7191 201.672 37.7053 206.695 37.7053 212.88C37.7053 219.004 42.6169 223.967 48.7226 224.06Z" fill="#333333"/>
<path opacity="0.2" d="M48.7226 224.06C48.5507 224.873 48.4252 225.695 48.4391 226.564C48.4252 232.74 53.4621 237.744 59.6329 237.739C59.6469 237.739 59.6608 237.735 59.6701 237.735V191.816L50.7531 191.821L57.9184 204.098C56.4825 203.224 50.3861 201.691 48.9038 201.691C42.7191 201.681 37.7053 206.704 37.7053 212.889C37.7053 219.004 42.6169 223.967 48.7226 224.06Z" fill="#616161"/>
<path d="M20.7217 50.6106C20.7728 50.4248 20.796 50.2389 20.796 50.0345C20.796 48.6312 19.6576 47.4834 18.2357 47.4834C16.8278 47.4834 15.6846 48.6312 15.6846 50.0345C15.6846 50.3412 15.7358 50.6292 15.8334 50.8987C14.5927 50.9963 13.6123 52.0372 13.6123 53.3057C13.6123 54.6393 14.6903 55.7173 16.0285 55.722C16.3817 55.722 17.6456 55.3317 17.9151 55.169L16.2702 57.9756L20.2523 57.9709L18.6167 55.169C18.9374 55.3688 20.3453 55.7173 20.6752 55.7173C22.0878 55.7173 23.2355 54.5696 23.2355 53.1616C23.2448 51.763 22.1203 50.6339 20.7217 50.6106Z" fill="#333333"/>
<path opacity="0.2" d="M20.7218 50.6106C20.7729 50.4248 20.7961 50.2389 20.7961 50.0345C20.7961 48.6312 19.6577 47.4834 18.2358 47.4834C18.2358 47.4834 18.2359 47.4834 18.2219 47.4834V57.9709L20.2618 57.9663L18.6261 55.1643C18.9467 55.3641 20.3547 55.7127 20.6847 55.7127C22.0972 55.7127 23.2449 54.565 23.2449 53.157C23.2449 51.763 22.1205 50.6339 20.7218 50.6106Z" fill="#616161"/>
<path d="M173.286 214.693C173.323 214.888 173.36 215.069 173.346 215.264C173.36 216.677 172.208 217.815 170.795 217.815C169.387 217.815 168.249 216.677 168.235 215.264C168.235 214.962 168.3 214.679 168.393 214.404C167.157 214.307 166.176 213.266 166.167 212.002C166.167 210.664 167.254 209.581 168.583 209.581C168.95 209.581 170.2 209.972 170.479 210.134L168.834 207.337H172.816L171.185 210.144C171.501 209.939 172.9 209.591 173.239 209.591C174.652 209.581 175.804 210.734 175.804 212.142C175.809 213.545 174.68 214.679 173.286 214.693Z" fill="#333333"/>
<path opacity="0.2" d="M173.286 214.693C173.323 214.888 173.36 215.069 173.346 215.264C173.36 216.677 172.208 217.815 170.795 217.815C170.795 217.815 170.795 217.815 170.786 217.815V207.337H172.821L171.19 210.144C171.506 209.939 172.905 209.591 173.244 209.591C174.657 209.581 175.809 210.734 175.809 212.142C175.809 213.545 174.68 214.679 173.286 214.693Z" fill="#616161"/>
</svg>
