<svg width="183" height="256" viewBox="0 0 183 256" fill="none" xmlns="http://www.w3.org/2000/svg">
<path d="M20.9226 255.062C10.1563 255.071 1.36945 246.48 1.34622 235.895L0.79332 19.4761C0.770087 8.82591 9.53831 0.169196 20.3465 0.192429L163.371 0.45725C174.128 0.480484 182.887 9.15115 182.887 19.7734V235.727C182.887 246.285 174.165 254.886 163.431 254.895L20.9226 255.062Z" fill="#C9C9C9"/>
<path d="M22.7024 254.523C12.0755 254.523 3.42798 245.908 3.42798 235.309V19.4061C3.42798 8.8117 12.0755 0.206055 22.7024 0.206055H163.636C174.272 0.206055 182.919 8.8117 182.919 19.4061V235.309C182.919 245.908 174.272 254.523 163.636 254.523H22.7024Z" fill="white"/>
<path d="M153.167 220.181H159.11V229.953H162.744C162.939 229.712 163.185 229.08 163.436 228.062C164.059 225.567 164.797 223.546 165.671 221.994C166.024 221.352 166.447 220.827 166.93 220.437C167.516 219.954 168.148 219.717 168.794 219.717C169.249 219.717 169.723 219.856 170.248 220.186C170.899 220.572 171.219 221.05 171.219 221.589C171.219 221.836 171.136 222.068 170.936 222.245C170.736 222.421 170.531 222.505 170.304 222.505C169.765 222.505 169.472 222.212 169.435 221.617C169.398 221.022 169.165 220.725 168.743 220.725C167.743 220.725 167.051 221.236 166.684 222.259C166.438 222.932 166.322 223.903 166.322 225.195C166.322 225.962 166.359 226.84 166.438 227.816C166.521 228.801 166.61 229.842 166.712 230.943C166.712 232.202 166.456 233.373 165.954 234.433C165.546 235.306 164.9 236.208 164.026 237.133C163.515 237.699 162.683 238.466 161.54 239.451L161.745 239.758H166.991C167.325 239.758 167.632 239.725 167.911 239.651C168.45 239.488 168.98 239.316 169.495 239.145V239.47C169.282 239.828 169.11 240.111 169.003 240.274C168.645 240.831 168.436 241.119 168.352 241.119C168.296 241.119 168.162 241.045 167.939 240.952C167.711 240.836 167.502 240.775 167.297 240.775H153.167V220.181ZM159.31 231.487V239.358C159.849 239.214 160.388 238.647 160.927 237.658C161.141 237.3 161.368 236.793 161.624 236.115C161.814 235.641 161.977 235.088 162.121 234.447C162.442 233.118 162.614 232.416 162.632 232.384V231.491L159.31 231.487Z" fill="#333333"/>
<path d="M36.5031 36.9266H30.5554V27.1593H26.9216C26.7172 27.4009 26.4849 28.0329 26.2246 29.0644C25.6113 31.5504 24.8678 33.5717 23.9943 35.1144C23.6458 35.7696 23.2229 36.2854 22.7396 36.6757C22.1449 37.1589 21.5223 37.4099 20.8717 37.4099C20.4256 37.4099 19.9377 37.2472 19.4173 36.9266C18.7668 36.5363 18.4415 36.0809 18.4415 35.528C18.4415 35.2724 18.5391 35.0586 18.7389 34.8728C18.9294 34.7008 19.1431 34.6079 19.3662 34.6079C19.9098 34.6079 20.1933 34.9053 20.2305 35.5047C20.2677 36.0949 20.5 36.3969 20.9275 36.3969C21.9311 36.3969 22.6188 35.8811 22.9999 34.8588C23.2415 34.1943 23.3576 33.2093 23.3576 31.9268C23.3576 31.1694 23.3205 30.2865 23.2322 29.3107C23.1486 28.3116 23.0556 27.2708 22.9673 26.1835C22.9673 24.9103 23.2229 23.7533 23.7201 22.6892C24.129 21.8157 24.7702 20.9142 25.6438 19.9849C26.1689 19.4226 26.996 18.6559 28.1298 17.6661L27.9393 17.3548H22.6932C22.354 17.3548 22.0473 17.392 21.7685 17.471C21.2295 17.643 20.6998 17.8056 20.1747 17.9775V17.6661C20.3977 17.2898 20.5697 17.0249 20.6765 16.853C21.0343 16.2907 21.2435 16.0166 21.3224 16.0166C21.3782 16.0166 21.5176 16.0723 21.736 16.1746C21.959 16.3 22.1774 16.3465 22.3819 16.3465H36.5077L36.5031 36.9266ZM30.3556 25.6213V17.7451C29.8166 17.8938 29.2775 18.4654 28.7385 19.4552C28.5294 19.813 28.3064 20.3148 28.0415 20.9932C27.851 21.4764 27.6837 22.0387 27.5397 22.666C27.2191 24.0089 27.0564 24.6919 27.0378 24.7244V25.6213H30.3556Z" fill="#333333"/>
<path d="M133.358 128.066C133.395 118.838 93.2156 79.3594 93.2156 79.3594C93.2156 79.3594 54.0489 120.064 54.0396 127.917C54.021 141.179 64.7455 151.954 78.0117 151.968C82.5562 151.991 86.7846 150.755 90.3997 148.553L75.3445 174.207L111.872 174.277L96.9236 148.576C100.511 150.755 104.744 152.038 109.279 152.047C122.545 152.084 133.358 141.351 133.358 128.066Z" fill="#333333"/>
<path opacity="0.2" d="M133.358 128.066C133.395 118.838 93.2157 79.3594 93.2157 79.3594C93.2157 79.3594 93.1691 79.4058 93.1366 79.4384V174.249L111.872 174.277L96.9236 148.576C100.511 150.755 104.744 152.038 109.279 152.047C122.545 152.084 133.358 141.351 133.358 128.066Z" fill="#616161"/>
<path d="M34.4724 50.6306C34.4724 49.4503 29.3564 44.418 29.3564 44.418C29.3564 44.418 24.3566 49.6083 24.352 50.6073C24.352 52.308 25.7227 53.6834 27.4141 53.6834C27.9903 53.6834 28.5386 53.5208 28.994 53.2467L27.0749 56.5133L31.7309 56.5226L29.8257 53.242C30.2858 53.5162 30.8248 53.6881 31.3964 53.6881C33.0924 53.6928 34.4724 52.3313 34.4724 50.6306Z" fill="#333333"/>
<path opacity="0.2" d="M34.4724 50.6306C34.4724 49.4503 29.3564 44.418 29.3564 44.418C29.3564 44.418 29.3471 44.4319 29.3378 44.4319V56.5226H31.7309L29.8257 53.242C30.2857 53.5162 30.8248 53.6881 31.3963 53.6881C33.0924 53.6928 34.4724 52.3313 34.4724 50.6306Z" fill="#616161"/>
<path d="M155.416 206.822C155.407 208.002 160.537 213.039 160.537 213.039C160.537 213.039 165.536 207.844 165.536 206.845C165.536 205.149 164.17 203.773 162.474 203.773C161.889 203.773 161.359 203.917 160.899 204.21L162.818 200.948L158.157 200.93L160.058 204.21C159.607 203.917 159.064 203.764 158.478 203.764C156.796 203.764 155.416 205.126 155.416 206.822Z" fill="#333333"/>
<path opacity="0.2" d="M155.416 206.822C155.407 208.002 160.537 213.039 160.537 213.039L160.546 213.02V200.93H158.157L160.058 204.21C159.607 203.917 159.064 203.764 158.478 203.764C156.796 203.764 155.416 205.126 155.416 206.822Z" fill="#616161"/>
</svg>
