<svg width="186" height="260" viewBox="0 0 186 260" fill="none" xmlns="http://www.w3.org/2000/svg">
<path d="M20.6793 259.689C9.74565 259.712 0.819442 250.981 0.796209 240.224L0.233952 20.4224C0.206072 9.60034 9.11378 0.813474 20.0892 0.832061L165.349 1.09692C176.282 1.12015 185.176 9.93023 185.176 20.7151V240.061C185.176 250.772 176.319 259.512 165.414 259.521L20.6793 259.689Z" fill="#C9C9C9"/>
<path d="M22.4869 259.15C11.6973 259.15 2.9104 250.396 2.9104 239.639V20.3532C2.9104 9.59149 11.6973 0.841797 22.4869 0.841797H165.632C176.422 0.841797 185.208 9.59149 185.208 20.3532V239.639C185.208 250.396 176.422 259.15 165.632 259.15H22.4869Z" fill="white"/>
<path d="M25.7534 30.6921C25.7534 31.6354 25.27 32.8714 24.3175 34.3816C23.3602 35.8964 22.417 36.8629 21.5016 37.3043C20.7675 37.6389 20.2052 37.8758 19.8381 37.992C19.471 38.1175 19.1737 38.1779 18.9413 38.1779C18.6486 38.1779 18.3698 38.1779 18.1236 38.1779C16.1627 38.1779 14.6432 37.4809 13.5606 36.0962C12.608 34.8927 12.1387 33.4011 12.1387 31.6354C12.1387 30.4644 12.371 29.1123 12.8356 27.5882C13.3003 26.0594 13.8765 24.7722 14.5735 23.7035C15.5818 22.1887 16.2277 21.2687 16.5343 20.9248C16.6923 20.7296 17.4544 20.0791 18.774 18.9639C19.7545 18.1229 20.4654 17.5839 20.8929 17.3376C21.1995 17.1657 21.4691 17.082 21.7153 17.082C22.0592 17.082 22.2312 17.2679 22.2312 17.621C22.2312 17.7186 21.7433 18.2158 20.7814 19.1266C20.0612 19.8096 19.3455 20.6228 18.6485 21.566C18.379 21.9099 18.0259 22.5465 17.5752 23.5037C17.0501 24.591 16.7899 25.3159 16.7899 25.6505C16.7899 25.7109 16.8131 25.7713 16.8874 25.8317C16.9478 25.9014 17.0176 25.9293 17.0919 25.9293C17.5798 25.6644 18.1002 25.3996 18.6485 25.1347C19.7498 24.605 20.5352 24.3448 21.0277 24.3448C21.9849 24.3448 22.9653 24.9303 23.9829 26.1012C25.1632 27.4441 25.7534 28.9729 25.7534 30.6921ZM21.6735 33.7543C21.6735 32.5229 21.2415 31.3194 20.3865 30.1345C19.5408 28.9589 18.6579 28.3734 17.7564 28.3734C17.4126 28.3734 17.1013 28.4385 16.8225 28.5825C16.5437 28.7219 16.3949 28.9543 16.3949 29.2702C16.3949 30.4273 16.8736 31.6029 17.8401 32.8203C18.8856 34.1167 19.9868 34.7812 21.1624 34.7812C21.3344 34.7812 21.4598 34.7068 21.5435 34.5767C21.6225 34.4466 21.6735 34.1725 21.6735 33.7543Z" fill="#333333"/>
<path d="M163.587 231.731C163.587 230.779 164.066 229.556 165.023 228.046C165.976 226.532 166.919 225.556 167.839 225.124C168.573 224.78 169.122 224.557 169.489 224.427C169.87 224.306 170.167 224.25 170.381 224.25C170.688 224.25 170.957 224.25 171.203 224.25C173.178 224.25 174.698 224.933 175.771 226.318C176.714 227.531 177.193 229.027 177.193 230.783C177.193 231.959 176.96 233.306 176.496 234.835C176.031 236.359 175.455 237.656 174.758 238.71C173.754 240.23 173.108 241.159 172.797 241.508C172.625 241.698 171.882 242.349 170.557 243.469C169.577 244.3 168.866 244.839 168.439 245.095C168.132 245.258 167.862 245.346 167.616 245.346C167.272 245.346 167.105 245.169 167.105 244.807C167.105 244.709 167.583 244.207 168.545 243.301C169.266 242.628 169.967 241.814 170.678 240.871C170.938 240.527 171.292 239.881 171.742 238.938C172.281 237.842 172.537 237.121 172.537 236.782C172.537 236.731 172.5 236.675 172.444 236.596C172.379 236.531 172.309 236.499 172.235 236.499C171.747 236.763 171.217 237.024 170.678 237.293C169.577 237.823 168.778 238.092 168.285 238.092C167.346 238.092 166.366 237.507 165.335 236.327C164.173 234.975 163.587 233.446 163.587 231.731ZM167.667 228.664C167.667 229.891 168.095 231.095 168.94 232.27C169.8 233.455 170.678 234.045 171.584 234.045C171.914 234.045 172.235 233.971 172.514 233.836C172.797 233.692 172.941 233.46 172.941 233.144C172.941 231.991 172.453 230.802 171.496 229.603C170.451 228.293 169.349 227.642 168.174 227.642C168.002 227.642 167.881 227.712 167.793 227.837C167.714 227.972 167.667 228.251 167.667 228.664Z" fill="#333333"/>
<path d="M148.574 44.4456C148.602 39.7897 128.31 19.8555 128.31 19.8555C128.31 19.8555 108.538 40.4123 108.538 44.3759C108.524 51.0625 113.938 56.5037 120.643 56.513C122.92 56.5177 125.066 55.8904 126.893 54.7891L119.295 67.7394L137.738 67.7765L130.187 54.8031C132.004 55.895 134.137 56.5455 136.428 56.5595C143.11 56.5641 148.574 51.1508 148.574 44.4456Z" fill="#333333"/>
<path opacity="0.2" d="M148.574 44.4456C148.602 39.7897 128.31 19.8555 128.31 19.8555C128.31 19.8555 128.287 19.874 128.273 19.8926V67.7626L137.733 67.7765L130.183 54.8031C131.999 55.895 134.132 56.5455 136.423 56.5595C143.11 56.5641 148.574 51.1508 148.574 44.4456Z" fill="#616161"/>
<path d="M148.574 132.827C148.602 128.167 128.31 108.232 128.31 108.232C128.31 108.232 108.538 128.789 108.538 132.758C108.524 139.449 113.938 144.89 120.643 144.899C122.92 144.904 125.066 144.281 126.893 143.171L119.295 156.121L137.738 156.158L130.187 143.185C132.004 144.281 134.137 144.927 136.428 144.941C143.11 144.95 148.574 139.532 148.574 132.827Z" fill="#333333"/>
<path opacity="0.2" d="M148.574 132.827C148.602 128.167 128.31 108.232 128.31 108.232C128.31 108.232 128.287 108.251 128.273 108.27V156.14L137.733 156.158L130.183 143.185C131.999 144.281 134.132 144.927 136.423 144.941C143.11 144.95 148.574 139.532 148.574 132.827Z" fill="#616161"/>
<path d="M39.633 44.4456C39.6051 39.7897 59.897 19.8555 59.897 19.8555C59.897 19.8555 79.6686 40.4123 79.6686 44.3759C79.6826 51.0625 74.2692 56.5037 67.5687 56.513C65.2918 56.5177 63.1451 55.8904 61.3189 54.7891L68.9163 67.7394L50.4737 67.7765L58.0198 54.8031C56.2076 55.895 54.0748 56.5455 51.784 56.5595C45.0974 56.5641 39.633 51.1508 39.633 44.4456Z" fill="#333333"/>
<path opacity="0.2" d="M39.633 44.4456C39.6051 39.7897 59.897 19.8555 59.897 19.8555C59.897 19.8555 59.9203 19.874 59.9342 19.8926V67.7626L50.4737 67.7765L58.0198 54.8031C56.2076 55.895 54.0748 56.5455 51.784 56.5595C45.0974 56.5641 39.633 51.1508 39.633 44.4456Z" fill="#616161"/>
<path d="M39.633 128.521C39.6051 123.86 59.897 103.931 59.897 103.931C59.897 103.931 79.6686 124.487 79.6686 128.451C79.6826 135.138 74.2692 140.579 67.5687 140.588C65.2918 140.602 63.1451 139.975 61.3189 138.864L68.9163 151.815L50.4737 151.852L58.0198 138.874C56.2076 139.97 54.0748 140.625 51.784 140.635C45.0974 140.644 39.633 135.221 39.633 128.521Z" fill="#333333"/>
<path opacity="0.2" d="M39.633 128.521C39.6051 123.86 59.897 103.931 59.897 103.931C59.897 103.931 59.9203 103.945 59.9342 103.972V151.838L50.4737 151.852L58.0198 138.874C56.2076 139.97 54.0748 140.625 51.784 140.635C45.0974 140.644 39.633 135.221 39.633 128.521Z" fill="#616161"/>
<path d="M148.491 216.524C148.504 221.185 128.217 241.114 128.217 241.114C128.217 241.114 108.455 220.567 108.441 216.599C108.441 209.898 113.845 204.457 120.545 204.452C122.832 204.443 124.978 205.066 126.795 206.181L119.198 193.231L137.636 193.193L130.104 206.171C131.902 205.07 134.035 204.424 136.339 204.41C143.026 204.396 148.491 209.81 148.491 216.524Z" fill="#333333"/>
<path opacity="0.2" d="M148.491 216.525C148.505 221.186 128.217 241.115 128.217 241.115C128.217 241.115 128.203 241.101 128.18 241.078V193.208L137.636 193.189L130.104 206.168C131.902 205.066 134.035 204.42 136.34 204.407C143.026 204.397 148.491 209.811 148.491 216.525Z" fill="#616161"/>
<path d="M39.5308 216.524C39.5168 221.185 59.8087 241.114 59.8087 241.114C59.8087 241.114 79.571 220.567 79.5803 216.599C79.5803 209.898 74.181 204.457 67.4759 204.452C65.185 204.443 63.0383 205.066 61.2261 206.181L68.8233 193.231L50.3807 193.193L57.9176 206.171C56.1147 205.07 53.9819 204.424 51.6818 204.41C44.9952 204.396 39.5308 209.81 39.5308 216.524Z" fill="#333333"/>
<path opacity="0.2" d="M39.5308 216.525C39.5168 221.186 59.8087 241.115 59.8087 241.115C59.8087 241.115 59.8182 241.101 59.846 241.078V193.208L50.3854 193.189L57.9223 206.168C56.1194 205.066 53.9865 204.42 51.6864 204.407C44.9952 204.397 39.5308 209.811 39.5308 216.525Z" fill="#616161"/>
<path d="M23.5695 53.2886C23.5695 52.0433 18.1654 46.7275 18.1654 46.7275C18.1654 46.7275 12.896 52.2106 12.8867 53.2654C12.8867 55.0544 14.3319 56.5041 16.1162 56.5041C16.7295 56.5041 17.2965 56.3415 17.7844 56.0441L15.7584 59.5013L20.6745 59.5059L18.6626 56.0441C19.1412 56.3415 19.7173 56.5134 20.3167 56.5134C22.1103 56.5181 23.5695 55.073 23.5695 53.2886Z" fill="#333333"/>
<path opacity="0.2" d="M23.5694 53.2886C23.5694 52.0433 18.1654 46.7275 18.1654 46.7275C18.1654 46.7275 18.1653 46.7369 18.156 46.7415V59.5059L20.6791 59.5106L18.6672 56.0487C19.1458 56.3461 19.7219 56.518 20.3214 56.518C22.1103 56.518 23.5694 55.073 23.5694 53.2886Z" fill="#616161"/>
<path d="M165.758 211.794C165.744 213.044 171.157 218.355 171.157 218.355C171.157 218.355 176.44 212.872 176.44 211.822C176.44 210.033 174.995 208.588 173.206 208.579C172.593 208.579 172.017 208.746 171.543 209.044L173.564 205.582L168.652 205.577L170.664 209.039C170.186 208.746 169.61 208.574 168.996 208.574C167.212 208.56 165.758 210.005 165.758 211.794Z" fill="#333333"/>
<path opacity="0.2" d="M165.758 211.794C165.744 213.044 171.157 218.355 171.157 218.355L171.171 218.346V205.577H168.648L170.66 209.039C170.181 208.746 169.605 208.574 168.992 208.574C167.212 208.56 165.758 210.005 165.758 211.794Z" fill="#616161"/>
</svg>
