<svg width="186" height="260" viewBox="0 0 186 260" fill="none" xmlns="http://www.w3.org/2000/svg">
<path d="M20.6794 259.397C9.74577 259.415 0.824211 250.693 0.796331 239.936L0.234074 20.1351C0.206194 9.30836 9.1139 0.530753 20.0893 0.540046L165.349 0.814297C176.282 0.832884 185.176 9.63357 185.176 20.4278V239.764C185.176 250.475 176.315 259.215 165.414 259.225L20.6794 259.397Z" fill="#C9C9C9"/>
<path d="M22.4869 258.853C11.6973 258.853 2.9104 250.103 2.9104 239.351V20.0608C2.9104 9.30837 11.6973 0.558594 22.4869 0.558594H165.618C176.422 0.558594 185.204 9.30837 185.204 20.0608V239.351C185.204 250.103 176.422 258.853 165.618 258.853H22.4869Z" fill="white"/>
<path d="M154.852 233.933C154.852 233.171 155.042 232.391 155.423 231.582C155.99 230.365 156.98 229.059 158.402 227.632C159.591 226.443 160.535 225.607 161.232 225.137C162.347 224.375 163.499 224.013 164.689 224.013C165.693 224.013 166.585 224.231 167.384 224.668C168.285 225.165 168.741 225.848 168.741 226.712C168.741 227.293 168.174 228.302 167.026 229.751C165.888 231.192 165.065 231.921 164.577 231.921C164.164 231.921 163.955 231.768 163.955 231.457C163.955 231.164 164.285 230.592 164.944 229.77C165.251 229.389 165.4 229.087 165.4 228.887C165.228 228.543 165.056 228.288 164.861 228.125C164.298 227.609 163.523 227.354 162.533 227.354C161.687 227.354 160.916 227.618 160.247 228.153C159.41 228.789 158.992 229.649 158.992 230.722C158.992 231.522 159.215 232.228 159.643 232.855C159.986 233.343 160.423 233.729 160.953 233.98C161.65 234.324 162.384 234.505 163.146 234.523C163.917 234.551 164.298 234.714 164.298 235.039C164.298 235.183 163.82 235.857 162.877 237.019C162.142 237.925 161.432 238.915 160.744 239.997C160.962 240.206 161.134 240.304 161.26 240.304H165.595C165.79 240.304 166.167 240.085 166.738 239.625C167.3 239.179 167.691 238.952 167.895 238.952C168.276 238.952 168.462 239.086 168.462 239.37C168.462 239.523 168.244 239.858 167.797 240.369C167.351 240.875 166.71 241.549 165.878 242.386C164.935 243.329 164.345 243.891 164.094 244.082C163.606 244.463 163.22 244.644 162.937 244.644H155.707C155.642 244.597 155.595 244.542 155.572 244.518C155.544 244.472 155.53 244.356 155.53 244.165C155.53 243.622 156.185 242.706 157.482 241.414C158.792 240.137 159.443 239.254 159.443 238.757C159.443 238.64 158.927 238.394 157.886 238.013C157.185 237.748 156.59 237.404 156.097 236.968C155.716 236.605 155.419 236.178 155.191 235.662C154.968 235.146 154.852 234.565 154.852 233.933Z" fill="#333333"/>
<path d="M36.6499 27.9004C36.6499 28.6624 36.4548 29.4524 36.0877 30.2609C35.5161 31.4783 34.5218 32.7841 33.1045 34.2014C31.9103 35.3909 30.967 36.2272 30.27 36.6966C29.1548 37.4586 28.0025 37.8303 26.8129 37.8303C25.8092 37.8303 24.9124 37.6119 24.1225 37.1751C23.2164 36.6687 22.761 35.9856 22.761 35.1353C22.761 34.5545 23.3326 33.5369 24.4757 32.0964C25.6141 30.642 26.4365 29.9171 26.9244 29.9171C27.3426 29.9171 27.5517 30.0704 27.5517 30.3725C27.5517 30.6792 27.2219 31.2507 26.5574 32.0685C26.2507 32.4588 26.1019 32.7423 26.1019 32.956C26.2738 33.2906 26.4458 33.5369 26.6409 33.7181C27.2032 34.2246 27.9746 34.4801 28.955 34.4801C29.8147 34.4801 30.5814 34.2152 31.2598 33.6901C32.0915 33.0443 32.5097 32.194 32.5097 31.1113C32.5097 30.3121 32.2867 29.615 31.8545 28.9784C31.5153 28.4905 31.0738 28.1142 30.5488 27.854C29.8518 27.5102 29.113 27.3289 28.3556 27.3103C27.5843 27.2918 27.2032 27.1198 27.2032 26.8038C27.2032 26.6598 27.6771 25.9953 28.625 24.815C29.3592 23.9089 30.0749 22.9192 30.744 21.8365C30.5349 21.6274 30.3677 21.5298 30.2422 21.5298H25.9068C25.7116 21.5298 25.3306 21.7576 24.7684 22.2037C24.2015 22.6683 23.8111 22.8821 23.602 22.8821C23.221 22.8821 23.0398 22.7473 23.0398 22.4639C23.0398 22.3105 23.2628 21.9853 23.6996 21.4649C24.141 20.9584 24.787 20.2846 25.6094 19.4575C26.562 18.5142 27.1522 17.9426 27.3984 17.7613C27.8863 17.371 28.2858 17.1992 28.5646 17.1992H35.7949C35.8553 17.2457 35.8925 17.2875 35.9203 17.3339C35.9529 17.3618 35.9622 17.4779 35.9622 17.6685C35.9622 18.2214 35.3116 19.1322 34.0105 20.4193C32.7048 21.6972 32.0496 22.5893 32.0496 23.0772C32.0496 23.1933 32.5701 23.4396 33.6109 23.8113C34.3079 24.0762 34.9074 24.4387 35.3999 24.8662C35.781 25.2286 36.083 25.6654 36.3061 26.1719C36.5337 26.6831 36.6499 27.2638 36.6499 27.9004Z" fill="#333333"/>
<path d="M113.446 44.1447C113.464 39.6607 93.9482 20.4746 93.9482 20.4746C93.9482 20.4746 74.9293 40.2508 74.9293 44.0704C74.92 50.506 80.1243 55.7522 86.5693 55.7522C88.7764 55.7614 90.835 55.1526 92.5868 54.0932L85.2729 66.5463L103.014 66.5835L95.7603 54.1025C97.4982 55.1573 99.5474 55.78 101.755 55.7893C108.19 55.8079 113.446 50.5989 113.446 44.1447Z" fill="#333333"/>
<path opacity="0.2" d="M113.446 44.1447C113.464 39.6607 93.9482 20.4746 93.9482 20.4746C93.9482 20.4746 93.9296 20.5025 93.9203 20.5118V66.5602L103.014 66.5788L95.7603 54.0979C97.4982 55.1526 99.5474 55.7753 101.755 55.7846C108.19 55.8079 113.446 50.5989 113.446 44.1447Z" fill="#616161"/>
<path d="M113.446 130.58C113.464 126.105 93.9482 106.929 93.9482 106.929C93.9482 106.929 74.9293 126.705 74.9293 130.506C74.92 136.951 80.1243 142.188 86.5693 142.188C88.7764 142.197 90.835 141.597 92.5868 140.538L85.2729 153L103.014 153.037L95.7603 140.547C97.4982 141.602 99.5474 142.225 101.755 142.243C108.19 142.253 113.446 137.034 113.446 130.58Z" fill="#333333"/>
<path opacity="0.2" d="M113.446 130.58C113.464 126.105 93.9482 106.929 93.9482 106.929C93.9482 106.929 93.9296 106.947 93.9203 106.966V153.014L103.014 153.033L95.7603 140.543C97.4982 141.597 99.5474 142.22 101.755 142.239C108.19 142.253 113.446 137.034 113.446 130.58Z" fill="#616161"/>
<path d="M113.446 213.629C113.464 218.113 93.9482 237.281 93.9482 237.281C93.9482 237.281 74.9293 217.514 74.9293 213.704C74.92 207.259 80.1243 202.022 86.5693 202.022C88.7764 202.013 90.835 202.612 92.5868 203.671L85.2729 191.218L103.014 191.172L95.7603 203.667C97.4982 202.603 99.5474 201.98 101.755 201.971C108.19 201.961 113.446 207.18 113.446 213.629Z" fill="#333333"/>
<path opacity="0.2" d="M113.446 213.629C113.464 218.113 93.9482 237.281 93.9482 237.281C93.9482 237.281 93.9342 237.262 93.9203 237.244V191.195L103.014 191.177L95.7603 203.672C97.4982 202.608 99.5474 201.985 101.755 201.976C108.19 201.962 113.446 207.18 113.446 213.629Z" fill="#616161"/>
<path d="M34.1918 51.7743C34.2058 50.5847 28.9969 45.4688 28.9969 45.4688C28.9969 45.4688 23.9227 50.7427 23.9227 51.7604C23.9181 53.475 25.3074 54.8735 27.022 54.8735C27.6122 54.8828 28.1651 54.7109 28.6298 54.4368L26.6828 57.7499L31.4085 57.7685L29.4709 54.4461C29.9402 54.711 30.4932 54.8829 31.0786 54.8829C32.7933 54.8875 34.1918 53.5028 34.1918 51.7743Z" fill="#333333"/>
<path opacity="0.2" d="M34.1919 51.7743C34.2059 50.5847 28.9971 45.4688 28.9971 45.4688C28.9971 45.4688 28.9924 45.4688 28.9832 45.4781V57.7591L31.4086 57.7685L29.471 54.4461C29.9403 54.711 30.4933 54.8829 31.0787 54.8829C32.7934 54.8875 34.1919 53.5028 34.1919 51.7743Z" fill="#616161"/>
<path d="M157.236 210.407C157.226 211.606 162.435 216.722 162.435 216.722C162.435 216.722 167.509 211.438 167.509 210.43C167.509 208.706 166.125 207.317 164.41 207.307C163.82 207.307 163.267 207.461 162.802 207.753L164.749 204.431L160.019 204.422L161.957 207.753C161.487 207.461 160.934 207.298 160.349 207.298C158.634 207.293 157.236 208.692 157.236 210.407Z" fill="#333333"/>
<path opacity="0.2" d="M157.236 210.407C157.226 211.606 162.435 216.722 162.435 216.722C162.435 216.722 162.445 216.713 162.449 216.703V204.427H160.024L161.961 207.758C161.492 207.466 160.939 207.303 160.353 207.303C158.634 207.294 157.236 208.692 157.236 210.407Z" fill="#616161"/>
</svg>
