<svg width="186" height="259" viewBox="0 0 186 259" fill="none" xmlns="http://www.w3.org/2000/svg">
<path d="M21.2827 258.919C10.3491 258.938 1.43214 250.216 1.40891 239.45L0.842008 19.6482C0.809481 8.83077 9.71715 0.0439428 20.6972 0.0625294L165.957 0.327421C176.886 0.355301 185.779 9.16534 185.779 19.9503V239.278C185.779 250.007 176.918 258.738 166.031 258.752L21.2827 258.919Z" fill="#C9C9C9"/>
<path d="M23.0949 258.375C12.296 258.375 3.51381 249.626 3.51381 238.864V19.5832C3.51381 8.83083 12.3007 0.0810547 23.0949 0.0810547H166.235C177.03 0.0810547 185.812 8.83083 185.812 19.5832V238.864C185.812 249.626 177.025 258.375 166.235 258.375H23.0949Z" fill="white"/>
<path d="M26.473 23.7963C26.473 25.1857 26.1663 26.6726 25.5437 28.2897C24.9303 29.9067 24.2937 31.0962 23.6293 31.849C22.4444 33.1919 21.3245 34.3071 20.2837 35.1993C18.569 36.6769 17.1936 37.4157 16.1713 37.4157C16.0831 37.4157 15.9855 37.3692 15.8972 37.2995C15.7996 37.2159 15.7113 37.1369 15.637 37.0347C16.5803 36.4445 17.5421 35.5803 18.5319 34.4837C19.5123 33.3685 20.4695 31.8862 21.4221 30.0089V29.6465C21.3384 29.6 21.2687 29.5629 21.1944 29.5303C20.437 29.8649 19.7446 30.1762 19.1127 30.4085C18.4854 30.6641 17.9231 30.771 17.4213 30.771C16.4409 30.771 15.5115 30.2366 14.6472 29.1632C13.6436 27.9272 13.1417 26.4403 13.1417 24.7071C13.1417 23.0111 14.164 21.2128 16.2039 19.317C18.0765 17.5838 19.6378 16.7148 20.8831 16.7148C22.0494 16.7148 23.225 17.3329 24.3913 18.5596C25.776 20.014 26.473 21.7564 26.473 23.7963ZM22.1609 26.259C22.1609 24.6095 21.6498 23.2108 20.6322 22.0771C19.7214 21.078 18.7921 20.5715 17.8488 20.5715C17.6257 20.5715 17.4678 20.7063 17.3934 20.9805C17.3144 21.2546 17.2819 21.5613 17.2819 21.9052C17.2819 23.3317 17.6397 24.5351 18.3599 25.4737C19.2289 26.6354 20.0652 27.207 20.8505 27.207C21.2501 27.207 21.5429 27.1513 21.7334 27.0723C22.0169 26.9004 22.1609 26.6493 22.1609 26.259Z" fill="#333333"/>
<path d="M164.084 237.075C164.084 235.705 164.391 234.208 165.009 232.582C165.617 230.965 166.268 229.785 166.919 229.023C168.108 227.689 169.233 226.565 170.273 225.682C171.988 224.213 173.359 223.475 174.381 223.475C174.479 223.475 174.567 223.502 174.665 223.586C174.757 223.66 174.836 223.749 174.92 223.842C173.972 224.45 173.01 225.301 172.025 226.411C171.045 227.508 170.078 228.999 169.135 230.877V231.249C169.214 231.276 169.284 231.323 169.358 231.355C170.115 231.011 170.812 230.719 171.44 230.477C172.076 230.231 172.639 230.105 173.131 230.105C174.112 230.105 175.041 230.64 175.91 231.732C176.914 232.949 177.415 234.445 177.415 236.169C177.415 237.884 176.388 239.682 174.353 241.559C172.481 243.302 170.915 244.175 169.674 244.175C168.503 244.175 167.337 243.557 166.157 242.331C164.776 240.876 164.084 239.115 164.084 237.075ZM168.401 234.617C168.401 236.281 168.907 237.675 169.93 238.818C170.826 239.817 171.76 240.314 172.704 240.314C172.931 240.314 173.085 240.17 173.154 239.905C173.238 239.622 173.275 239.324 173.275 238.981C173.275 237.545 172.908 236.351 172.197 235.412C171.324 234.26 170.496 233.679 169.702 233.679C169.307 233.679 169.014 233.716 168.819 233.813C168.536 233.962 168.401 234.236 168.401 234.617Z" fill="#333333"/>
<path d="M149.178 43.6735C149.196 39.0175 128.914 19.0879 128.914 19.0879C128.914 19.0879 109.147 39.6448 109.142 43.6084C109.128 50.2949 114.546 55.7315 121.246 55.7408C123.533 55.7408 125.679 55.1228 127.496 54.0169L119.894 66.9672L138.337 67.0044L130.786 54.0262C132.598 55.1228 134.731 55.7687 137.022 55.7873C143.722 55.7966 149.178 50.3786 149.178 43.6735Z" fill="#333333"/>
<path opacity="0.2" d="M149.178 43.6735C149.196 39.0175 128.914 19.0879 128.914 19.0879C128.914 19.0879 128.9 19.1065 128.876 19.125V66.9997L138.337 67.009L130.786 54.0309C132.598 55.1275 134.731 55.7734 137.022 55.792C143.722 55.7966 149.178 50.3786 149.178 43.6735Z" fill="#616161"/>
<path d="M149.178 101.132C149.196 96.476 128.914 76.5371 128.914 76.5371C128.914 76.5371 109.147 97.094 109.142 101.058C109.128 107.753 114.546 113.19 121.247 113.199C123.533 113.209 125.679 112.581 127.496 111.466L119.894 124.426L138.337 124.454L130.786 111.485C132.598 112.581 134.731 113.237 137.022 113.237C143.722 113.255 149.178 107.846 149.178 101.132Z" fill="#333333"/>
<path opacity="0.2" d="M149.178 101.132C149.196 96.476 128.914 76.5371 128.914 76.5371C128.914 76.5371 128.9 76.5557 128.876 76.5743V124.44L138.337 124.458L130.786 111.489C132.598 112.586 134.731 113.241 137.022 113.241C143.722 113.255 149.178 107.846 149.178 101.132Z" fill="#616161"/>
<path d="M40.2365 43.6735C40.2226 39.0175 60.5006 19.0879 60.5006 19.0879C60.5006 19.0879 80.2675 39.6448 80.2722 43.6084C80.2861 50.2949 74.8681 55.7315 68.1769 55.7408C65.8861 55.7408 63.744 55.1228 61.9178 54.0169L69.5244 66.9672L51.0772 67.0044L58.6233 54.0262C56.8204 55.1228 54.6876 55.7687 52.3875 55.7873C45.6963 55.7966 40.2365 50.3786 40.2365 43.6735Z" fill="#333333"/>
<path opacity="0.2" d="M40.2365 43.6735C40.2226 39.0175 60.5006 19.0879 60.5006 19.0879C60.5006 19.0879 60.5192 19.1065 60.5378 19.125V66.9997L51.0772 67.009L58.6233 54.0309C56.8204 55.1275 54.6876 55.7734 52.3875 55.792C45.6963 55.7966 40.2365 50.3786 40.2365 43.6735Z" fill="#616161"/>
<path d="M74.6451 129.446C74.6265 124.79 94.9092 104.852 94.9092 104.852C94.9092 104.852 114.685 125.408 114.69 129.363C114.695 136.068 109.281 141.504 102.585 141.504C100.304 141.514 98.1572 140.896 96.3357 139.781L103.933 152.74L85.4904 152.768L93.0366 139.799C91.229 140.896 89.0962 141.542 86.8007 141.56C80.1095 141.569 74.6451 136.142 74.6451 129.446Z" fill="#333333"/>
<path opacity="0.2" d="M74.6451 129.446C74.6265 124.79 94.9092 104.852 94.9092 104.852C94.9092 104.852 94.9277 104.879 94.9463 104.898V152.763L85.4904 152.773L93.0366 139.804C91.229 140.9 89.0962 141.546 86.8007 141.565C80.1095 141.57 74.6451 136.142 74.6451 129.446Z" fill="#616161"/>
<path d="M40.2365 101.132C40.2226 96.476 60.5006 76.5371 60.5006 76.5371C60.5006 76.5371 80.2675 97.094 80.2722 101.058C80.2861 107.753 74.8681 113.19 68.1769 113.199C65.8861 113.209 63.744 112.581 61.9178 111.466L69.5244 124.426L51.0772 124.454L58.6233 111.485C56.8204 112.581 54.6876 113.237 52.3875 113.237C45.6963 113.255 40.2365 107.846 40.2365 101.132Z" fill="#333333"/>
<path opacity="0.2" d="M40.2365 101.132C40.2226 96.476 60.5006 76.5371 60.5006 76.5371C60.5006 76.5371 60.5192 76.5557 60.5378 76.5743V124.44L51.0772 124.458L58.6233 111.489C56.8204 112.586 54.6876 113.241 52.3875 113.241C45.6963 113.255 40.2365 107.846 40.2365 101.132Z" fill="#616161"/>
<path d="M149.094 215.751C149.113 220.407 128.825 240.346 128.825 240.346C128.825 240.346 109.054 219.799 109.049 215.826C109.04 209.13 114.453 203.693 121.154 203.684C123.435 203.675 125.577 204.311 127.403 205.417L119.801 192.467L138.249 192.43L130.707 205.399C132.505 204.311 134.647 203.656 136.943 203.647C143.629 203.628 149.094 209.046 149.094 215.751Z" fill="#333333"/>
<path opacity="0.2" d="M149.094 215.751C149.113 220.407 128.825 240.346 128.825 240.346C128.825 240.346 128.802 240.327 128.788 240.309V192.443L138.249 192.425L130.707 205.394C132.505 204.306 134.647 203.651 136.943 203.642C143.629 203.628 149.094 209.046 149.094 215.751Z" fill="#616161"/>
<path d="M149.094 158.3C149.113 162.965 128.825 182.904 128.825 182.904C128.825 182.904 109.054 162.338 109.049 158.374C109.04 151.687 114.453 146.242 121.154 146.242C123.435 146.242 125.577 146.859 127.403 147.956L119.801 135.015L138.249 134.969L130.707 147.956C132.505 146.859 134.647 146.214 136.943 146.195C143.629 146.181 149.094 151.599 149.094 158.3Z" fill="#333333"/>
<path opacity="0.2" d="M149.094 158.299C149.113 162.965 128.825 182.903 128.825 182.903C128.825 182.903 128.802 182.876 128.788 182.857V134.992L138.249 134.964L130.707 147.951C132.505 146.855 134.647 146.209 136.943 146.19C143.629 146.181 149.094 151.599 149.094 158.299Z" fill="#616161"/>
<path d="M40.1435 215.751C40.125 220.407 60.4123 240.346 60.4123 240.346C60.4123 240.346 80.1746 219.799 80.1839 215.826C80.1932 209.13 74.7798 203.693 68.084 203.684C65.7932 203.675 63.6557 204.311 61.8295 205.417L69.4315 192.467L50.9889 192.43L58.5351 205.399C56.7229 204.311 54.5901 203.656 52.2993 203.647C45.5988 203.628 40.1435 209.046 40.1435 215.751Z" fill="#333333"/>
<path opacity="0.2" d="M40.1435 215.751C40.125 220.407 60.4123 240.346 60.4123 240.346C60.4123 240.346 60.4309 240.327 60.4449 240.309V192.443L50.9842 192.425L58.5304 205.394C56.7182 204.306 54.5854 203.651 52.2946 203.642C45.5987 203.628 40.1435 209.046 40.1435 215.751Z" fill="#616161"/>
<path d="M40.1436 158.3C40.125 162.965 60.4123 182.904 60.4123 182.904C60.4123 182.904 80.1746 162.338 80.1839 158.374C80.1932 151.687 74.7798 146.242 68.084 146.242C65.7932 146.242 63.6557 146.859 61.8295 147.956L69.4315 135.015L50.9889 134.969L58.5351 147.956C56.7229 146.859 54.5901 146.214 52.2993 146.195C45.5988 146.181 40.1436 151.599 40.1436 158.3Z" fill="#333333"/>
<path opacity="0.2" d="M40.1435 158.299C40.125 162.965 60.4123 182.903 60.4123 182.903C60.4123 182.903 60.4309 182.876 60.4449 182.857V134.992L50.9842 134.964L58.5304 147.951C56.7182 146.855 54.5854 146.209 52.2946 146.19C45.5987 146.181 40.1435 151.599 40.1435 158.299Z" fill="#616161"/>
<path d="M24.396 52.522C24.4006 51.2813 18.9919 45.9609 18.9919 45.9609C18.9919 45.9609 13.718 51.4439 13.718 52.494C13.718 54.283 15.1584 55.7329 16.9427 55.7329C17.5561 55.7329 18.1277 55.5701 18.6109 55.2774L16.585 58.7346H21.5011L19.4938 55.2774C19.9724 55.5701 20.5439 55.7421 21.1526 55.7421C22.937 55.7421 24.396 54.3016 24.396 52.522Z" fill="#333333"/>
<path opacity="0.2" d="M24.396 52.522C24.4007 51.2813 18.992 45.9609 18.992 45.9609C18.992 45.9609 18.9873 45.9702 18.978 45.9702V58.7393H21.5012L19.4938 55.2821C19.9724 55.5748 20.5439 55.7468 21.1527 55.7468C22.937 55.7421 24.396 54.3016 24.396 52.522Z" fill="#616161"/>
<path d="M165.501 208.968C165.497 210.223 170.905 215.53 170.905 215.53C170.905 215.53 176.179 210.047 176.179 208.996C176.179 207.207 174.739 205.767 172.95 205.767C172.337 205.758 171.77 205.92 171.291 206.222L173.312 202.765L168.392 202.756L170.408 206.213C169.925 205.92 169.353 205.748 168.745 205.748C166.951 205.739 165.501 207.18 165.501 208.968Z" fill="#333333"/>
<path opacity="0.2" d="M165.501 208.968C165.497 210.223 170.905 215.529 170.905 215.529L170.91 215.52V202.76L168.392 202.751L170.408 206.208C169.925 205.915 169.353 205.743 168.745 205.743C166.951 205.739 165.501 207.179 165.501 208.968Z" fill="#616161"/>
</svg>
