<svg width="186" height="260" viewBox="0 0 186 260" fill="none" xmlns="http://www.w3.org/2000/svg">
<path d="M21.115 259.224C10.1768 259.238 1.25978 250.507 1.21796 239.764L0.669601 19.9627C0.646368 9.1406 9.54943 0.353766 20.5249 0.376999L165.78 0.637211C176.704 0.665091 185.602 9.47052 185.602 20.2601V239.587C185.602 250.312 176.741 259.043 165.835 259.062L21.115 259.224Z" fill="#C9C9C9"/>
<path d="M22.927 258.676C12.1235 258.676 3.35071 249.931 3.35071 239.17V19.8888C3.35071 9.13639 12.1235 0.386719 22.927 0.386719H166.058C176.853 0.386719 185.635 9.13639 185.635 19.8888V239.17C185.635 249.931 176.853 258.676 166.058 258.676H22.927Z" fill="white"/>
<path d="M26.1891 30.2236C26.1891 31.1762 25.7013 32.3982 24.7394 33.9177C23.8008 35.4279 22.8435 36.4037 21.9234 36.8312C21.1893 37.1797 20.6411 37.4074 20.274 37.5282C19.9069 37.6537 19.5954 37.7187 19.3771 37.7187C19.0843 37.7187 18.8055 37.7187 18.5593 37.7187C16.5984 37.7187 15.0651 37.0263 13.987 35.6323C13.0484 34.4289 12.5837 32.9373 12.5837 31.1762C12.5837 30.0006 12.8113 28.6484 13.2667 27.1243C13.736 25.5955 14.3076 24.3084 15.0139 23.2443C16.0129 21.7249 16.6588 20.8002 16.9747 20.4563C17.1374 20.2705 17.8995 19.6153 19.2052 18.4954C20.1856 17.6544 20.892 17.1247 21.3334 16.8737C21.6261 16.7018 21.9141 16.6182 22.1604 16.6182C22.4857 16.6182 22.6763 16.7994 22.6763 17.1525C22.6763 17.2547 22.1884 17.752 21.2126 18.6581C20.5063 19.3365 19.7906 20.1543 19.0983 21.0929C18.8288 21.4368 18.471 22.078 18.0203 23.0213C17.4905 24.1225 17.2072 24.8428 17.2072 25.1773C17.2072 25.2331 17.2582 25.2982 17.3139 25.3632C17.3883 25.4329 17.4581 25.4608 17.5278 25.4608C18.0157 25.2006 18.5408 24.9311 19.0937 24.6708C20.181 24.1365 20.9802 23.8716 21.482 23.8716C22.4113 23.8716 23.4104 24.4571 24.4233 25.6374C25.5896 26.9756 26.1891 28.5136 26.1891 30.2236ZM22.0955 33.2857C22.0955 32.0637 21.6772 30.8556 20.8222 29.6846C19.9811 28.4997 19.0983 27.9096 18.1782 27.9096C17.853 27.9096 17.5324 27.97 17.2629 28.1187C16.9794 28.2534 16.8308 28.4858 16.8308 28.811C16.8308 29.9634 17.3139 31.1436 18.2758 32.3564C19.3074 33.6528 20.4272 34.3034 21.6028 34.3034C21.7747 34.3034 21.9002 34.2337 21.9792 34.1082C22.0442 33.9828 22.0955 33.7086 22.0955 33.2857Z" fill="#333333"/>
<path d="M164.014 231.253C164.014 230.31 164.502 229.083 165.445 227.573C166.398 226.062 167.346 225.091 168.275 224.65C169.009 224.311 169.557 224.078 169.92 223.953C170.296 223.837 170.594 223.776 170.826 223.776C171.123 223.776 171.388 223.776 171.644 223.776C173.623 223.776 175.138 224.459 176.216 225.849C177.155 227.057 177.624 228.548 177.624 230.31C177.624 231.48 177.392 232.828 176.932 234.357C176.472 235.886 175.882 237.182 175.175 238.237C174.186 239.756 173.53 240.69 173.228 241.034C173.056 241.22 172.322 241.875 170.984 242.995C170.003 243.831 169.311 244.366 168.87 244.612C168.577 244.784 168.289 244.877 168.043 244.877C167.703 244.877 167.545 244.696 167.545 244.329C167.545 244.24 168.015 243.743 168.977 242.837C169.687 242.149 170.417 241.341 171.1 240.397C171.384 240.054 171.741 239.417 172.183 238.469C172.722 237.372 172.991 236.652 172.991 236.313C172.991 236.257 172.949 236.206 172.898 236.136C172.819 236.062 172.75 236.039 172.675 236.039C172.187 236.299 171.672 236.559 171.105 236.829C170.013 237.349 169.227 237.623 168.73 237.623C167.782 237.623 166.802 237.033 165.789 235.867C164.599 234.505 164.014 232.972 164.014 231.253ZM168.089 228.191C168.089 229.427 168.521 230.626 169.367 231.81C170.227 232.991 171.095 233.576 172.011 233.576C172.355 233.576 172.666 233.506 172.94 233.372C173.224 233.218 173.377 232.995 173.377 232.675C173.377 231.522 172.894 230.337 171.932 229.125C170.886 227.819 169.776 227.168 168.623 227.168C168.438 227.168 168.317 227.233 168.233 227.373C168.14 227.503 168.089 227.777 168.089 228.191Z" fill="#333333"/>
<path opacity="0.2" d="M149.019 43.9772C149.028 39.3212 128.741 19.3916 128.741 19.3916C128.741 19.3916 128.732 19.4102 128.713 19.4334V67.2988L138.174 67.3173L130.623 54.3345C132.431 55.4358 134.563 56.0817 136.868 56.0956C143.536 56.1049 149.019 50.6823 149.019 43.9772Z" fill="#616161"/>
<path opacity="0.2" d="M149.019 132.359C149.028 127.703 128.741 107.769 128.741 107.769C128.741 107.769 128.732 107.787 128.713 107.81V155.676L138.174 155.694L130.623 142.712C132.431 143.808 134.563 144.463 136.868 144.468C143.536 144.482 149.019 139.064 149.019 132.359Z" fill="#616161"/>
<path opacity="0.2" d="M40.0734 43.9772C40.0455 39.3212 60.3329 19.3916 60.3329 19.3916C60.3329 19.3916 60.3608 19.4102 60.3701 19.4334V67.2988L50.9094 67.3173L58.4556 54.3345C56.6434 55.4358 54.5012 56.0817 52.2244 56.0956C45.5192 56.1049 40.0734 50.6823 40.0734 43.9772Z" fill="#616161"/>
<path opacity="0.2" d="M40.0734 128.054C40.0455 123.403 60.3329 103.464 60.3329 103.464C60.3329 103.464 60.3608 103.478 60.3701 103.501V151.366L50.9094 151.39L58.4556 138.416C56.6434 139.503 54.5012 140.154 52.2244 140.173C45.5192 140.177 40.0734 134.759 40.0734 128.054Z" fill="#616161"/>
<path opacity="0.2" d="M148.917 216.05C148.926 220.711 128.657 240.64 128.657 240.64C128.657 240.64 128.629 240.626 128.615 240.612V192.742L138.071 192.729L130.525 205.697C132.338 204.601 134.47 203.959 136.766 203.941C143.462 203.932 148.917 209.345 148.917 216.05Z" fill="#616161"/>
<path opacity="0.2" d="M39.9757 216.05C39.9571 220.711 60.2398 240.64 60.2398 240.64C60.2398 240.64 60.2492 240.626 60.2724 240.612V192.742L50.8164 192.729L58.3626 205.697C56.5457 204.601 54.4129 203.959 52.1267 203.941C45.4262 203.932 39.9757 209.345 39.9757 216.05Z" fill="#616161"/>
<path opacity="0.2" d="M24.0051 52.8248C24.0051 51.5795 18.6057 46.2637 18.6057 46.2637L18.5918 46.2776V59.042L21.1149 59.0513L19.1029 55.5895C19.5861 55.8823 20.1576 56.0542 20.7617 56.0635C22.5553 56.0542 24.0051 54.6091 24.0051 52.8248Z" fill="#616161"/>
<path opacity="0.2" d="M166.179 211.32C166.179 212.57 171.583 217.886 171.583 217.886L171.593 217.872V205.107H169.069L171.081 208.56C170.603 208.267 170.027 208.095 169.432 208.095C167.638 208.091 166.179 209.531 166.179 211.32Z" fill="#616161"/>
<path d="M25.2503 50.3292C25.0876 53.5726 18.5917 58.4888 18.5917 58.4888C18.5917 58.4888 11.9237 53.5308 11.9237 50.2874C11.9237 48.057 13.7358 46.2588 15.9802 46.2588C17.2069 46.2588 18.6102 47.3879 18.6102 47.3879C18.6102 47.3879 19.9345 46.2587 21.2263 46.282C23.4659 46.3052 25.3757 48.0988 25.2503 50.3292Z" fill="#D66142"/>
<path opacity="0.2" d="M21.2309 46.2815C19.9438 46.2629 18.6148 47.3874 18.6148 47.3874C18.6148 47.3874 18.6055 47.3735 18.5637 47.3596V58.4744C18.5916 58.4837 18.5917 58.4929 18.5917 58.4929C18.5917 58.4929 25.083 53.5721 25.2503 50.3334C25.3757 48.0984 23.466 46.3047 21.2309 46.2815Z" fill="#616161"/>
<path d="M164.799 213.729C164.966 210.434 171.593 205.411 171.593 205.411C171.593 205.411 178.4 210.462 178.4 213.784C178.4 216.052 176.536 217.892 174.264 217.892C172.991 217.892 171.56 216.74 171.56 216.74C171.56 216.74 170.222 217.892 168.897 217.869C166.62 217.832 164.678 216.015 164.799 213.729Z" fill="#D66142"/>
<path opacity="0.2" d="M168.897 217.869C170.222 217.892 171.56 216.74 171.56 216.74C171.56 216.74 171.583 216.749 171.611 216.772V205.416L171.593 205.411C171.593 205.411 164.966 210.434 164.799 213.729C164.678 216.015 166.62 217.832 168.897 217.869Z" fill="#616161"/>
<path d="M40.008 37.5412C40.4959 46.7508 58.9479 60.7419 58.9479 60.7419C58.9479 60.7419 77.9387 46.6486 77.9387 37.425C77.9387 31.0777 72.7485 25.957 66.4197 25.957C62.865 25.957 58.8967 29.1725 58.8967 29.1725C58.8967 29.1725 55.119 25.957 51.4528 26.0128C45.1194 26.1011 39.6641 31.1985 40.008 37.5412Z" fill="#D66142"/>
<path opacity="0.2" d="M51.4482 26.0163C55.1144 25.9606 58.8921 29.1761 58.8921 29.1761C58.8921 29.1761 58.9432 29.1342 59.0129 29.0738V60.7037C58.9851 60.7362 58.9433 60.7455 58.9433 60.7455C58.9433 60.7455 40.4914 46.7544 40.0035 37.5447C39.6643 31.1974 45.1194 26.1 51.4482 26.0163Z" fill="#616161"/>
<path d="M146.273 37.5412C145.785 46.7508 127.314 60.7419 127.314 60.7419C127.314 60.7419 108.323 46.6486 108.323 37.425C108.323 31.0777 113.509 25.957 119.861 25.957C123.425 25.957 127.384 29.1725 127.384 29.1725C127.384 29.1725 131.143 25.957 134.819 26.0128C141.157 26.1011 146.617 31.1985 146.273 37.5412Z" fill="#D66142"/>
<path opacity="0.2" d="M134.814 26.0163C131.139 25.9606 127.379 29.1761 127.379 29.1761C127.379 29.1761 127.328 29.1342 127.259 29.0738V60.7037C127.291 60.7362 127.314 60.7455 127.314 60.7455C127.314 60.7455 145.785 46.7544 146.273 37.5447C146.617 31.1974 141.157 26.1 134.814 26.0163Z" fill="#616161"/>
<path d="M40.008 219.855C40.4959 210.65 58.9479 196.659 58.9479 196.659C58.9479 196.659 77.9387 210.753 77.9387 219.976C77.9387 226.319 72.7485 231.439 66.4197 231.439C62.865 231.439 58.8967 228.224 58.8967 228.224C58.8967 228.224 55.119 231.439 51.4528 231.379C45.1194 231.305 39.6641 226.203 40.008 219.855Z" fill="#D66142"/>
<path opacity="0.2" d="M51.4483 231.384C55.1145 231.444 58.8922 228.229 58.8922 228.229C58.8922 228.229 58.9434 228.266 59.0131 228.331V196.701C58.9852 196.673 58.9434 196.659 58.9434 196.659C58.9434 196.659 40.4916 210.65 40.0037 219.855C39.6645 226.203 45.1196 231.305 51.4483 231.384Z" fill="#616161"/>
<path d="M146.273 219.855C145.785 210.65 127.314 196.659 127.314 196.659C127.314 196.659 108.323 210.753 108.323 219.976C108.323 226.319 113.509 231.439 119.861 231.439C123.425 231.439 127.384 228.224 127.384 228.224C127.384 228.224 131.143 231.439 134.819 231.379C141.157 231.305 146.617 226.203 146.273 219.855Z" fill="#D66142"/>
<path opacity="0.2" d="M134.814 231.384C131.139 231.444 127.379 228.229 127.379 228.229C127.379 228.229 127.328 228.266 127.259 228.331V196.701C127.291 196.673 127.314 196.659 127.314 196.659C127.314 196.659 145.785 210.65 146.273 219.855C146.617 226.203 141.157 231.305 134.814 231.384Z" fill="#616161"/>
<path d="M40.008 134.509C40.4959 125.304 58.9479 111.304 58.9479 111.304C58.9479 111.304 77.9387 125.411 77.9387 134.635C77.9387 140.968 72.7485 146.093 66.4197 146.093C62.865 146.093 58.8967 142.882 58.8967 142.882C58.8967 142.882 55.119 146.093 51.4528 146.042C45.1194 145.959 39.6641 140.856 40.008 134.509Z" fill="#D66142"/>
<path opacity="0.2" d="M51.4482 146.038C55.1144 146.089 58.8921 142.878 58.8921 142.878C58.8921 142.878 58.9432 142.92 59.0129 142.975V111.346C58.9851 111.322 58.9433 111.304 58.9433 111.304C58.9433 111.304 40.4914 125.304 40.0035 134.509C39.6643 140.856 45.1194 145.959 51.4482 146.038Z" fill="#616161"/>
<path d="M146.273 134.509C145.785 125.304 127.314 111.304 127.314 111.304C127.314 111.304 108.323 125.411 108.323 134.635C108.323 140.968 113.509 146.093 119.861 146.093C123.425 146.093 127.384 142.882 127.384 142.882C127.384 142.882 131.143 146.093 134.819 146.042C141.157 145.959 146.617 140.856 146.273 134.509Z" fill="#D66142"/>
<path opacity="0.2" d="M134.814 146.038C131.139 146.089 127.379 142.878 127.379 142.878C127.379 142.878 127.328 142.92 127.259 142.975V111.346C127.291 111.322 127.314 111.304 127.314 111.304C127.314 111.304 145.785 125.304 146.273 134.509C146.617 140.856 141.157 145.959 134.814 146.038Z" fill="#616161"/>
</svg>
