<svg width="183" height="255" viewBox="0 0 183 255" fill="none" xmlns="http://www.w3.org/2000/svg">
<path d="M20.8484 254.998C10.0867 255.012 1.2859 246.411 1.26267 235.825L0.709702 19.4071C0.686469 8.7569 9.45008 0.109373 20.2675 0.12796L163.283 0.392851C174.054 0.416085 182.813 9.07746 182.813 19.6997V235.658C182.813 246.216 174.081 254.812 163.352 254.83L20.8484 254.998Z" fill="#C9C9C9"/>
<path d="M22.7907 254.726C12.1545 254.726 3.521 246.102 3.521 235.521V19.6094C3.521 9.01033 12.1592 0.395508 22.7907 0.395508H163.724C174.356 0.395508 182.999 9.00568 182.999 19.6094V235.521C182.999 246.097 174.356 254.726 163.724 254.726H22.7907Z" fill="white"/>
<path d="M21.7266 13.9327C21.2991 14.653 20.7787 15.2059 20.1421 15.5869C19.5148 15.9679 18.8875 16.1538 18.2649 16.1538C18.0604 16.1538 17.3448 15.9959 16.1088 15.6799C15.5233 15.5359 14.9797 15.4615 14.515 15.4615C14.213 15.4615 13.911 15.4986 13.6089 15.573C13.3023 15.6473 13.042 15.7775 12.8236 15.9448H12.5959V15.6613C13.0234 14.7088 13.5392 14.0256 14.1201 13.626C14.7102 13.2171 15.4815 13.0127 16.4341 13.0127C17.1265 13.0127 17.7909 13.1242 18.4275 13.338C19.0595 13.5657 19.6589 13.6819 20.249 13.6819C20.4349 13.6819 20.6579 13.6772 20.9134 13.6633C21.1644 13.6447 21.4292 13.6213 21.7359 13.5842V13.9327H21.7266ZM21.7917 25.9025C21.7917 27.2361 21.2806 28.3049 20.2676 29.1227C19.2593 29.9359 17.9628 30.3494 16.3783 30.3494C15.4165 30.3494 14.6079 30.1542 13.9667 29.7732C13.1861 29.3225 12.7958 28.6767 12.7958 27.8403C12.7958 27.4406 12.9027 27.0921 13.1303 26.7947C13.4231 26.3858 13.8599 26.186 14.4221 26.186C14.7985 26.186 15.1098 26.3021 15.3933 26.5437C15.6674 26.7807 15.8161 27.0689 15.8161 27.4221C15.8161 28.0075 15.5698 28.4024 15.0726 28.6115C14.5894 28.8113 14.3431 28.9508 14.3431 29.0391C14.422 29.2156 14.5104 29.3365 14.6079 29.4201C14.896 29.685 15.3096 29.8103 15.8579 29.8103C16.3923 29.8103 16.8708 29.685 17.2472 29.4201C17.6329 29.1645 17.8327 28.8021 17.8327 28.3421V16.8463C18.5344 16.6139 19.1895 16.3861 19.8122 16.1677C20.4209 15.94 20.9692 15.6148 21.4432 15.1781H21.787V25.9025H21.7917Z" fill="#333333"/>
<path d="M20.8903 41.5365C20.8903 42.2056 20.7601 42.8328 20.5139 43.4323C20.3512 43.8272 20.1514 44.1711 19.9237 44.4778C19.4823 45.0726 19.1524 45.5233 18.9015 45.8207C18.1719 46.7175 17.6794 47.1636 17.4517 47.1636C17.2612 47.1636 17.0335 47.0567 16.7687 46.8291C16.4899 46.6014 16.239 46.3875 15.9834 46.1691C15.3096 45.6254 14.7892 45.0076 14.4221 44.3245C14.0597 43.6368 13.8738 42.8701 13.8738 42.0383C13.8738 41.4342 13.9714 40.8627 14.1572 40.333C14.3524 39.794 14.594 39.32 14.91 38.9111C16.4202 36.927 17.2751 35.9326 17.5075 35.9326C17.6143 35.9326 17.9722 36.2578 18.6041 36.9176C19.2918 37.6192 19.7843 38.2141 20.0724 38.7113C20.3001 39.1063 20.4906 39.5616 20.6533 40.0634C20.7973 40.5652 20.8903 41.0672 20.8903 41.5365ZM18.9991 43.9853C18.9991 42.8701 18.7203 41.8059 18.172 40.8069C17.3449 39.3199 16.6432 38.5811 16.0624 38.5811C15.9091 38.5811 15.7929 38.7067 15.7325 38.9576C15.6674 39.2132 15.6442 39.4733 15.6442 39.7428C15.6442 40.9509 15.8858 41.9175 16.3552 42.6377C16.7037 43.1814 17.4889 43.9341 18.7064 44.8774C18.8272 44.7519 18.9015 44.6404 18.9433 44.5196C18.9851 44.3942 18.9991 44.213 18.9991 43.9853Z" fill="#333333"/>
<path d="M20.9878 64.8623C20.6904 65.1969 20.4581 65.4479 20.3001 65.6199C19.7936 66.1124 19.4218 66.3679 19.1756 66.3679C18.5622 66.3679 18.0883 65.485 17.7444 63.7239C17.5585 62.7295 17.3448 62.079 17.0846 61.7631H16.8197C16.7546 61.8188 16.7314 61.8886 16.7314 61.9722V66.3168H13.8923V52.5905C14.0363 52.4558 14.2919 52.3164 14.6497 52.1677C15.5094 51.8099 16.053 51.5776 16.304 51.4707H16.7314V56.977C16.973 56.977 17.4749 56.7308 18.2137 56.2429C18.5994 55.9966 18.9944 55.7457 19.3801 55.4855C19.5427 55.4855 19.7657 55.7178 20.0585 56.1639C20.3977 56.6936 20.5556 57.2418 20.5556 57.8134C20.5556 58.515 20.2861 59.1098 19.7193 59.593C19.1524 60.0716 18.8689 60.3969 18.8689 60.541C18.8689 60.6153 19.0269 60.8616 19.3521 61.3077C19.682 61.7492 19.8726 62.0419 19.9191 62.172C19.9702 62.3114 20.077 62.7807 20.235 63.5892C20.2443 63.6914 20.2861 63.8308 20.3418 63.9888C20.3976 64.1561 20.5231 64.3233 20.7043 64.4999C20.9041 64.6718 20.9878 64.8019 20.9878 64.8623ZM18.1997 59.054C18.1997 58.738 18.1254 58.4546 17.9814 58.1944C17.7583 57.8227 17.5539 57.6462 17.3448 57.6462C17.224 57.688 17.1357 57.7205 17.0892 57.7437C16.908 57.8506 16.8244 57.9854 16.8244 58.1294V60.7036C17.2519 60.6479 17.6003 60.4155 17.8791 60.0159C18.0882 59.6813 18.1997 59.37 18.1997 59.054Z" fill="#333333"/>
<path d="M20.3699 77.522C20.3699 77.9449 19.8262 78.6233 18.7435 79.5433C17.6701 80.4633 17.1265 81.0024 17.1265 81.1372C17.1265 81.5136 18.0047 82.3824 19.7565 83.7253C19.6821 83.8461 19.3569 84.1668 18.7668 84.6826C18.158 85.1984 17.8188 85.4539 17.7166 85.4539C17.633 85.4539 17.4146 85.3471 17.0939 85.1055C16.7826 84.8778 16.4341 84.5803 16.0624 84.2132C15.4537 83.5999 15.0029 82.8703 14.6777 82.0293C14.4221 81.3369 14.2966 80.6957 14.2966 80.1149C14.2966 79.7199 14.3849 79.2552 14.5801 78.7069C14.7706 78.1586 15.0401 77.6242 15.3793 77.0991C15.5512 76.8203 15.9787 76.3232 16.6804 75.5844C17.4471 74.7666 17.9396 74.3623 18.1394 74.3623C18.1859 74.3623 18.3485 74.5528 18.632 74.9338C18.8597 75.259 19.1106 75.5843 19.3476 75.9142C19.4033 75.97 19.5706 76.207 19.8587 76.6205C20.2026 77.127 20.3699 77.4198 20.3699 77.522ZM18.1301 78.6837C18.1301 78.6047 18.0047 78.3631 17.7445 77.9495C17.3774 77.3966 17.0847 76.9459 16.8244 76.6067H16.62C16.4852 76.9644 16.3644 77.3036 16.2668 77.6428C16.1832 77.9727 16.1228 78.219 16.1228 78.3816C16.1228 78.8184 16.1832 79.2042 16.2808 79.5573C16.3737 79.9058 16.5317 80.0731 16.6989 80.0731C16.8662 80.0731 17.1404 79.8685 17.5307 79.4596C17.935 79.0507 18.1301 78.7905 18.1301 78.6837Z" fill="#333333"/>
<path d="M20.249 95.2126C20.249 95.3334 20.1189 95.5425 19.868 95.8445C19.3568 96.43 19.0501 96.7228 18.9247 96.7228C18.8364 96.7228 18.711 96.6252 18.5483 96.4394C18.3346 96.1745 18.1208 95.9792 17.9024 95.8445V104.692H15.0726V95.8445C15.0726 95.7283 14.9982 95.5519 14.8588 95.3381C14.7148 95.1151 14.5754 94.9616 14.436 94.8641C14.5103 94.7154 14.7891 94.4552 15.2956 94.0648C15.7835 93.6931 16.1274 93.498 16.3318 93.498C16.5038 93.498 16.7082 93.6328 16.9498 93.893C17.2054 94.1485 17.447 94.404 17.6979 94.6643C17.8187 94.6643 18.0604 94.4738 18.46 94.0742C18.8317 93.6978 19.0502 93.498 19.078 93.498C19.3429 93.6932 19.538 93.8511 19.6635 93.972C20.0491 94.3855 20.249 94.7991 20.249 95.2126Z" fill="#333333"/>
<path d="M168.166 228.288C168.166 226.954 168.668 225.881 169.677 225.063C170.69 224.25 171.977 223.841 173.571 223.841C174.528 223.841 175.341 224.031 175.987 224.408C176.758 224.854 177.148 225.5 177.148 226.35C177.148 226.74 177.042 227.089 176.823 227.386C176.521 227.795 176.084 228.004 175.517 228.004C175.15 228.004 174.834 227.888 174.556 227.642C174.272 227.405 174.128 227.112 174.128 226.764C174.128 226.173 174.374 225.783 174.867 225.579C175.355 225.374 175.606 225.235 175.606 225.151C175.513 224.965 175.424 224.84 175.336 224.761C175.043 224.505 174.635 224.375 174.091 224.375C173.547 224.375 173.078 224.505 172.692 224.761C172.302 225.016 172.116 225.384 172.116 225.844V237.339C171.405 237.572 170.736 237.799 170.132 238.022C169.519 238.25 168.975 238.571 168.496 239.007H168.157V228.288H168.166ZM168.222 240.248C168.645 239.537 169.165 238.975 169.807 238.599C170.439 238.222 171.061 238.032 171.689 238.032C171.888 238.032 172.618 238.185 173.845 238.496C174.439 238.645 174.951 238.719 175.448 238.719C175.74 238.719 176.043 238.682 176.34 238.608C176.656 238.533 176.916 238.408 177.134 238.241H177.367V238.52C176.935 239.477 176.433 240.16 175.847 240.555C175.253 240.964 174.486 241.168 173.519 241.168C172.836 241.168 172.172 241.057 171.531 240.838C170.903 240.611 170.281 240.499 169.714 240.499C169.519 240.499 169.3 240.504 169.045 240.522C168.784 240.536 168.515 240.56 168.218 240.606V240.248H168.222Z" fill="#D66142"/>
<path d="M169.063 212.647C169.063 211.987 169.189 211.35 169.435 210.751C169.588 210.365 169.793 210.017 170.03 209.715C170.462 209.12 170.796 208.669 171.038 208.372C171.777 207.475 172.255 207.02 172.492 207.02C172.692 207.02 172.925 207.136 173.185 207.363C173.459 207.577 173.724 207.805 173.952 208.023C174.644 208.571 175.16 209.185 175.536 209.868C175.889 210.551 176.075 211.322 176.075 212.154C176.075 212.758 175.987 213.325 175.796 213.864C175.606 214.398 175.355 214.868 175.039 215.281C173.524 217.265 172.669 218.26 172.441 218.26C172.344 218.26 171.972 217.925 171.345 217.275C170.648 216.573 170.165 215.974 169.886 215.481C169.649 215.086 169.463 214.635 169.3 214.124C169.138 213.618 169.063 213.125 169.063 212.647ZM170.94 210.202C170.94 211.318 171.215 212.377 171.781 213.381C172.623 214.863 173.315 215.602 173.882 215.602C174.044 215.602 174.151 215.486 174.212 215.23C174.277 214.979 174.3 214.719 174.3 214.45C174.3 213.232 174.058 212.27 173.589 211.55C173.241 211.006 172.455 210.263 171.247 209.315C171.122 209.431 171.038 209.557 170.992 209.673C170.959 209.798 170.94 209.975 170.94 210.202Z" fill="#D66142"/>
<path d="M168.961 189.326C169.258 188.986 169.481 188.736 169.649 188.573C170.155 188.071 170.527 187.815 170.778 187.815C171.382 187.815 171.856 188.698 172.2 190.469C172.4 191.458 172.618 192.114 172.869 192.42H173.134C173.19 192.374 173.217 192.299 173.217 192.22V187.876H176.043V201.593C175.912 201.732 175.648 201.881 175.299 202.025C174.449 202.378 173.9 202.61 173.654 202.717H173.213V197.216C172.966 197.216 172.483 197.453 171.726 197.945C171.349 198.182 170.959 198.442 170.564 198.698C170.411 198.698 170.178 198.47 169.89 198.024C169.56 197.49 169.389 196.946 169.389 196.375C169.389 195.668 169.667 195.074 170.239 194.586C170.806 194.107 171.075 193.786 171.075 193.642C171.075 193.573 170.931 193.322 170.606 192.88C170.276 192.439 170.076 192.146 170.039 192.007C169.983 191.872 169.886 191.403 169.723 190.599C169.705 190.497 169.667 190.353 169.621 190.19C169.565 190.027 169.44 189.86 169.258 189.683C169.059 189.512 168.961 189.395 168.961 189.326ZM171.744 195.134C171.744 195.445 171.828 195.738 171.981 195.994C172.195 196.365 172.404 196.542 172.604 196.542C172.729 196.5 172.813 196.468 172.874 196.444C173.055 196.342 173.138 196.207 173.138 196.054V193.484C172.706 193.545 172.353 193.777 172.088 194.181C171.861 194.507 171.744 194.827 171.744 195.134Z" fill="#D66142"/>
<path d="M169.574 176.661C169.574 176.243 170.123 175.574 171.196 174.649C172.274 173.72 172.832 173.19 172.832 173.051C172.832 172.674 171.949 171.806 170.202 170.463C170.257 170.342 170.606 170.021 171.182 169.501C171.805 168.99 172.139 168.729 172.237 168.729C172.335 168.729 172.534 168.846 172.85 169.073C173.176 169.306 173.519 169.603 173.891 169.975C174.495 170.579 174.96 171.308 175.28 172.149C175.531 172.842 175.657 173.483 175.657 174.069C175.657 174.464 175.564 174.933 175.378 175.481C175.188 176.025 174.923 176.555 174.583 177.089C174.402 177.372 173.961 177.865 173.278 178.604C172.502 179.412 172.009 179.83 171.809 179.83C171.772 179.83 171.6 179.631 171.322 179.254C171.094 178.929 170.857 178.604 170.611 178.269C170.555 178.218 170.383 177.986 170.109 177.558C169.742 177.056 169.574 176.759 169.574 176.661ZM171.814 175.504C171.814 175.588 171.94 175.83 172.209 176.238C172.553 176.796 172.869 177.242 173.12 177.581H173.329C173.454 177.228 173.58 176.884 173.677 176.55C173.77 176.225 173.821 175.969 173.821 175.811C173.821 175.379 173.766 174.989 173.659 174.635C173.566 174.287 173.417 174.12 173.245 174.12C173.083 174.12 172.804 174.324 172.413 174.733C172.014 175.137 171.814 175.397 171.814 175.504Z" fill="#D66142"/>
<path d="M169.695 158.968C169.695 158.852 169.83 158.643 170.095 158.336C170.597 157.76 170.903 157.463 171.029 157.463C171.103 157.463 171.238 157.551 171.4 157.742C171.614 158.007 171.833 158.202 172.051 158.336V149.489H174.876V158.336C174.876 158.462 174.951 158.634 175.104 158.848C175.229 159.066 175.378 159.219 175.499 159.322C175.443 159.461 175.16 159.731 174.662 160.112C174.165 160.493 173.821 160.683 173.612 160.683C173.445 160.683 173.245 160.548 172.999 160.293C172.757 160.042 172.506 159.782 172.242 159.517C172.135 159.517 171.884 159.712 171.507 160.102C171.117 160.488 170.899 160.683 170.875 160.683C170.611 160.493 170.401 160.339 170.276 160.218C169.904 159.809 169.695 159.396 169.695 158.968Z" fill="#D66142"/>
<path d="M93.1042 77.3486C58.9093 77.3486 31.1223 105.159 31.1223 139.344C31.1223 153.256 35.7178 166.132 43.501 176.476C47.3484 181.62 51.9811 186.136 57.2179 189.863C67.3384 197.075 79.7264 201.331 93.1088 201.331C106.826 201.331 119.544 196.847 129.817 189.259C135.268 185.249 140.026 180.374 143.892 174.836C150.955 164.776 155.1 152.541 155.1 139.344C155.1 105.159 127.28 77.3486 93.1042 77.3486ZM141.843 170.547C138.92 175.101 135.361 179.213 131.314 182.786C121.124 191.763 107.732 197.223 93.1042 197.223C79.8612 197.223 67.659 192.767 57.8963 185.253C53.1335 181.597 48.9376 177.21 45.513 172.257C39.0169 162.903 35.2206 151.561 35.2206 139.34C35.2206 107.422 61.1816 81.4469 93.1042 81.4469C125.027 81.4469 150.988 107.422 150.988 139.34C150.992 150.822 147.628 161.528 141.843 170.547Z" fill="#D66142"/>
<path d="M99.2517 116.396V125.387C99.2517 129.356 96.4962 132.59 93.1042 132.59C91.3942 132.59 89.8608 131.781 88.7456 130.485C87.6257 129.189 86.938 127.372 86.938 125.387V116.396C86.938 112.433 89.6982 109.203 93.1042 109.203C94.8002 109.203 96.3289 110.016 97.4488 111.317C98.5779 112.619 99.2517 114.407 99.2517 116.396Z" fill="#EBB07A"/>
<path opacity="0.2" d="M99.2517 116.395V118.909C97.3605 119.355 95.3578 119.583 93.3226 119.583C91.1386 119.583 88.9919 119.299 86.9427 118.774V116.39C86.9427 112.427 89.7028 109.197 93.1088 109.197C94.8048 109.197 96.3336 110.011 97.4534 111.312C98.5779 112.617 99.2517 114.406 99.2517 116.395Z" fill="#616161"/>
<path d="M119.925 90.1962C119.925 104.898 108.029 116.808 93.3179 116.808C78.6205 116.808 66.2697 104.364 66.2697 89.6618C66.2697 88.4026 66.3673 87.1759 66.5438 85.9724C67.2455 81.0283 69.3736 76.5954 72.4916 72.9942C75.8511 69.0864 80.3491 66.1729 85.4744 64.6999C87.9603 63.9611 90.6042 63.5801 93.3179 63.5801C95.841 63.5801 98.2666 63.9287 100.581 64.5931C105.655 66.015 110.125 68.9378 113.475 72.8456C116.663 76.5258 118.837 81.1073 119.618 86.1489C119.818 87.4593 119.925 88.8208 119.925 90.1962Z" fill="#EBB07A"/>
<path d="M36.5914 67.9913L40.49 62.4014L44.7742 67.7125L40.871 73.3072L36.5914 67.9913Z" fill="#D66142"/>
<path d="M45.4155 78.6324C45.4155 77.6008 40.9407 73.2236 40.9407 73.2236C40.9407 73.2236 36.5914 77.7588 36.5914 78.6324C36.5914 80.1054 37.7903 81.2949 39.2679 81.2949C39.7698 81.2949 40.2437 81.1648 40.6387 80.9185L38.9705 83.7668H43.041L41.3728 80.9185C41.7771 81.1648 42.2464 81.2949 42.7483 81.2949C44.2166 81.2949 45.4155 80.1054 45.4155 78.6324Z" fill="#333333"/>
<path d="M99.2425 64.756L96.7565 66.5218L93.4527 63.5805L66.7158 84.9737L64.49 76.4704L62.4269 68.5617L61.1259 63.5805L59.6436 59.431L57.8685 54.5567L56.3351 50.3096L55.1503 50.9091L49.9785 53.4228L45.8941 55.407L43.1665 56.736L41.7121 59.8399L40.4342 62.5535L39.0263 59.3891L37.6973 56.3874L40.7641 51.6385L46.1589 43.2607L49.4999 38.0703L56.3537 38.7534L72.9237 40.4214L79.4569 41.0814C79.4569 41.0814 81.0508 43.2467 83.1278 46.0069C85.2653 48.8831 87.9418 52.4332 89.8469 54.8588C91.1851 56.5873 92.1563 57.7536 92.2957 57.7536L92.8672 58.3252L99.2425 64.756Z" fill="#D66142"/>
<path d="M40.425 62.5521L37.7346 56.3164L42.7901 57.5385L40.425 62.5521Z" fill="#333333"/>
<path d="M49.9739 53.4235L45.8894 55.4076L40.7595 51.6438L46.1543 43.2705L49.9739 53.4235Z" fill="#333333"/>
<path d="M89.833 54.8693L62.4223 68.563L61.1212 63.5818L59.6389 59.4323L83.1139 46.0127C85.256 48.8936 87.9278 52.4391 89.833 54.8693Z" fill="#333333"/>
<path d="M72.9144 40.4319C68.7464 44.6743 62.2922 51.0356 57.8639 54.5578L56.3305 50.3107L55.1456 50.9101L56.3444 38.7637L72.9144 40.4319Z" fill="#333333"/>
<path d="M94.1311 63.5805L119.507 84.9737L121.723 76.4704L123.786 68.5617L125.092 63.5805L126.579 59.431L128.354 54.5567L129.883 50.3096L131.067 50.9091L136.239 53.4228L140.338 55.407L143.033 56.736L144.51 59.8399L145.788 62.5535L147.191 59.3891L148.516 56.3874L145.454 51.6385L140.068 43.2607L136.722 38.0703L129.864 38.7534L113.299 40.4214L106.77 41.0814C106.77 41.0814 105.172 43.2467 103.099 46.0069C100.966 48.8831 98.2899 52.4332 96.3847 54.8588C95.0465 56.5873 94.0753 57.7536 93.9406 57.7536L93.3597 58.3252L94.1311 63.5805Z" fill="#D66142"/>
<path d="M143.437 57.5385L148.474 56.3164L145.793 62.5521L143.437 57.5385Z" fill="#333333"/>
<path d="M136.239 53.4235L140.338 55.4076L145.453 51.6438L140.068 43.2705L136.239 53.4235Z" fill="#333333"/>
<path d="M96.3848 54.8693L123.781 68.563L125.087 63.5818L126.574 59.4323L103.095 46.0127C100.966 48.8936 98.2899 52.4391 96.3848 54.8693Z" fill="#333333"/>
<path d="M113.303 40.4319C117.476 44.6743 123.93 51.0356 128.354 54.5578L129.882 50.3107L131.067 50.9101L129.869 38.7637L113.303 40.4319Z" fill="#333333"/>
<path d="M150.323 64.1739C150.323 65.1915 145.9 69.5222 145.9 69.5222C145.9 69.5222 141.587 65.0335 141.587 64.1739C141.587 62.7148 142.768 61.5254 144.227 61.5254C144.719 61.5254 145.203 61.6648 145.588 61.9064L145.965 62.2548L146.309 61.9064C146.713 61.6648 147.173 61.5254 147.679 61.5254C149.138 61.5208 150.323 62.7102 150.323 64.1739Z" fill="#D66142"/>
<path d="M148.395 72.4993C148.432 72.3274 148.46 72.1507 148.46 71.9649C148.46 70.6127 147.359 69.5254 146.016 69.5254C144.654 69.5254 143.576 70.6127 143.576 71.9649C143.576 72.2437 143.632 72.5272 143.72 72.7828C142.531 72.8804 141.592 73.8701 141.592 75.0782C141.592 76.356 142.633 77.3829 143.892 77.3829C144.241 77.3829 144.566 77.3132 144.854 77.1785C145.161 77.1227 145.44 77.0159 145.714 76.8625L144.153 79.5436H147.944L146.397 76.8625C146.694 77.053 147.057 77.1739 147.433 77.2064C147.726 77.3226 148.037 77.3829 148.362 77.3829C149.705 77.3829 150.793 76.291 150.793 74.9435C150.793 73.6052 149.719 72.5272 148.395 72.4993Z" fill="#333333"/>
<path opacity="0.2" d="M119.627 86.1507L119.507 86.6154L105.896 75.6121L93.1088 85.0123L80.5954 75.4401L66.7158 86.6107L66.5485 85.9694C67.2501 81.0254 69.3783 76.5925 72.4963 72.9913L85.479 64.697C87.965 63.9582 90.6089 63.5771 93.3226 63.5771C95.8457 63.5771 98.2713 63.9257 100.585 64.5902L113.48 72.8427C116.672 76.5275 118.847 81.109 119.627 86.1507Z" fill="#616161"/>
<path d="M121.718 76.471L93.3598 58.335L93.1042 58.5952L92.8533 58.335L64.4901 76.471L66.7158 84.9743L80.5954 73.7897L93.1042 83.3712L105.896 73.971L119.502 84.9743L121.718 76.471Z" fill="#333333"/>
<path d="M143.892 174.832C141.718 177.94 139.278 180.84 136.583 183.479C134.464 185.561 132.215 187.494 129.818 189.255L128.038 188.734L131.318 182.787L132.88 179.957L122.188 164.66V194.05C119.981 195.24 117.667 196.294 115.287 197.219C108.415 199.877 100.925 201.331 93.1088 201.331C90.9249 201.331 88.7688 201.225 86.6407 200.997C80.4095 200.356 74.4571 198.78 68.9043 196.411L68.8114 191.88L68.2259 162.216L56.5721 178.293L55.1456 180.268L57.8964 185.259L59.9967 189.06L57.218 189.863C51.9812 186.137 47.3485 181.625 43.501 176.476L45.513 172.262L55.7171 150.98L62.5617 136.733L70.7491 132.821C73.551 129.238 77.7888 126.845 82.5934 126.529C82.6167 126.52 82.6445 126.52 82.6817 126.52C83.0209 126.502 83.3323 126.492 83.6808 126.492H105.757C106.119 126.492 106.459 126.502 106.803 126.52H106.877C112.03 126.869 116.519 129.578 119.27 133.578L125.459 136.408L132.624 151.333L141.843 170.552L143.892 174.832Z" fill="#333333"/>
<path opacity="0.2" d="M86.6407 200.992C80.4095 200.351 74.4571 198.775 68.9044 196.406L68.8114 191.875L68.226 162.211L56.5721 178.288L70.2426 153.601L72.6031 193.469L86.6407 200.992Z" fill="#616161"/>
<path opacity="0.2" d="M136.973 179.493L136.578 183.48C134.459 185.562 132.211 187.495 129.813 189.256L128.033 188.735L131.314 182.787L132.875 179.958L122.183 164.661V194.051C119.976 195.241 117.662 196.295 115.283 197.22L119.074 194.297L120.938 155.47L136.973 179.493Z" fill="#616161"/>
<g opacity="0.2">
<path d="M70.7491 132.811L62.5617 136.724L55.7171 150.97L82.5934 126.52C77.7888 126.836 73.551 129.233 70.7491 132.811Z" fill="#616161"/>
<path d="M96.2545 126.471L82.5283 126.526H82.5143L82.5236 126.592L92.1376 166.014C90.5902 166.534 89.4704 167.97 89.4472 169.662C89.41 171.794 91.106 173.504 93.2296 173.486C95.367 173.467 97.1281 171.739 97.17 169.61C97.1839 167.817 95.9711 166.325 94.3076 165.907L105.395 126.434L96.2545 126.471Z" fill="#616161"/>
<path d="M125.459 136.404L119.27 133.574C116.519 129.578 112.03 126.869 106.877 126.516H105.553L132.624 151.329L125.459 136.404Z" fill="#616161"/>
</g>
<path d="M82.6538 126.479H67.2641L49.8669 146.953L82.6538 126.484L93.0763 160.075L105.622 126.479H82.6631H82.6538Z" fill="#D66142"/>
<path d="M121.017 126.479H105.622L138.418 146.953L121.017 126.479Z" fill="#D66142"/>
<path d="M51.5723 149.735C51.5723 151.859 49.8437 153.588 47.7062 153.588C45.5781 153.588 43.8542 151.859 43.8542 149.735C43.8542 147.603 45.5827 145.874 47.7062 145.874C49.8437 145.874 51.5723 147.603 51.5723 149.735Z" fill="#FFD675"/>
<path d="M96.9377 163.928C96.9377 166.066 95.2091 167.794 93.0763 167.794C90.9435 167.794 89.2196 166.066 89.2196 163.928C89.2196 161.805 90.9435 160.076 93.0763 160.076C95.2091 160.076 96.9377 161.805 96.9377 163.928Z" fill="#FFD675"/>
<path d="M144.705 149.735C144.705 151.859 142.977 153.588 140.839 153.588C138.716 153.588 136.983 151.859 136.983 149.735C136.983 147.603 138.716 145.874 140.839 145.874C142.977 145.874 144.705 147.603 144.705 149.735Z" fill="#FFD675"/>
<path d="M83.4391 92.981C83.5367 92.6185 83.6111 92.2561 83.6111 91.8658C83.6111 89.4124 81.6083 87.4189 79.1503 87.4189C76.7061 87.4189 74.7081 89.4124 74.7081 91.8658C74.7081 92.2561 74.7824 92.6185 74.8706 92.981H83.4391Z" fill="#333333"/>
<path d="M111.328 92.981C111.426 92.6185 111.491 92.2561 111.491 91.8658C111.491 89.4124 109.498 87.4189 107.04 87.4189C104.591 87.4189 102.597 89.4124 102.597 91.8658C102.597 92.2561 102.672 92.6185 102.76 92.981H111.328Z" fill="#333333"/>
<path opacity="0.2" d="M96.9749 97.7881C96.9749 99.921 95.2464 101.664 93.1089 101.664C90.9714 101.664 89.2336 99.921 89.2336 97.7881C89.2336 95.646 90.9714 89.4102 93.1089 89.4102C95.2464 89.4102 96.9749 95.646 96.9749 97.7881Z" fill="#616161"/>
<path opacity="0.2" d="M148.395 72.4983C148.432 72.3264 148.46 72.1498 148.46 71.9639C148.46 70.6117 147.359 69.5244 146.016 69.5244C144.654 69.5244 143.576 70.6117 143.576 71.9639C143.576 72.2427 143.632 72.5263 143.72 72.7818C142.531 72.8794 141.592 73.8691 141.592 75.0772C141.592 76.355 142.633 77.382 143.892 77.382C144.241 77.382 144.566 77.3122 144.854 77.1775C145.161 77.1217 145.44 77.0149 145.714 76.8615L144.152 79.5427H147.944L146.397 76.8615C146.694 77.0521 147.057 77.1729 147.433 77.2054C147.726 77.3216 148.037 77.382 148.362 77.382C149.705 77.382 150.793 76.29 150.793 74.9425C150.793 73.6043 149.719 72.5262 148.395 72.4983Z" fill="#616161"/>
<path opacity="0.2" d="M147.684 61.5211C147.182 61.5211 146.717 61.6605 146.313 61.9021L145.969 62.2506L145.932 62.218L147.191 59.3882L148.516 56.3864L148.469 56.3121L145.453 51.6375L140.068 43.2597L136.722 38.0693L129.864 38.7524L113.299 40.4205L106.77 41.0804C106.77 41.0804 105.172 43.2458 103.099 46.0059C100.966 48.8822 98.2898 52.4322 96.3846 54.8578C95.0464 56.5863 94.0752 57.7526 93.9405 57.7526L93.3597 58.3242L93.1087 58.5797L93.0809 58.5612V201.321C93.0948 201.321 93.0948 201.321 93.1087 201.321C100.924 201.321 108.41 199.866 115.287 197.208C117.671 196.288 119.985 195.229 122.188 194.039V164.649L132.88 179.946L131.318 182.776L128.038 188.724L129.817 189.244C132.215 187.483 134.464 185.55 136.583 183.468C139.278 180.829 141.718 177.929 143.892 174.821L141.843 170.536L132.624 151.318L127.146 139.906L138.279 146.852C137.489 147.563 136.983 148.581 136.983 149.724C136.983 151.848 138.716 153.576 140.839 153.576C142.977 153.576 144.705 151.848 144.705 149.724C144.705 147.591 142.977 145.863 140.839 145.863C139.868 145.863 138.995 146.225 138.316 146.825L121.012 126.467H105.618V126.477H105.608L105.618 126.467H99.1541C99.2099 126.105 99.247 125.747 99.247 125.376V116.384C99.247 116.287 99.2284 116.203 99.2284 116.11C111.082 113.415 119.92 102.849 119.92 90.1817C119.92 88.8063 119.813 87.4448 119.623 86.1344C119.562 85.7069 119.474 85.2794 119.39 84.8705L119.497 84.9635L121.714 76.4601L123.777 68.5515L125.082 63.5703L126.569 59.4208L128.344 54.5464L129.873 50.2993L131.058 50.8987L136.23 53.4126L140.328 55.3968L143.023 56.7256L144.501 59.8296L145.435 61.8323C145.077 61.6372 144.659 61.5164 144.217 61.5164C142.758 61.5164 141.578 62.706 141.578 64.165C141.578 65.0293 145.89 69.5133 145.89 69.5133C145.89 69.5133 150.314 65.178 150.314 64.165C150.323 62.7106 149.138 61.5211 147.684 61.5211Z" fill="#616161"/>
<path d="M155.1 139.34C155.1 152.536 150.955 164.771 143.892 174.831C140.026 180.37 135.263 185.244 129.817 189.254C127.401 191.039 124.859 192.637 122.188 194.045C113.522 198.701 103.606 201.322 93.1088 201.322C84.5217 201.322 76.339 199.57 68.9043 196.396C64.7548 194.631 60.847 192.423 57.2179 189.854C51.9811 186.127 47.3484 181.615 43.501 176.467C35.7178 166.119 31.1223 153.247 31.1223 139.335C31.1223 118.374 41.568 99.8107 57.5432 88.6076V93.7421C43.9703 104.327 35.2206 120.804 35.2206 139.335C35.2206 151.556 39.0169 162.898 45.513 172.252C48.9376 177.201 53.1335 181.592 57.8963 185.249C61.2605 187.846 64.9267 190.072 68.8113 191.87C76.1995 195.309 84.4381 197.219 93.1042 197.219C103.703 197.219 113.633 194.352 122.183 189.366C125.445 187.475 128.512 185.244 131.314 182.777C135.361 179.204 138.92 175.091 141.843 170.538C147.628 161.518 150.992 150.812 150.992 139.331C150.992 119.991 141.453 102.85 126.839 92.3249V87.3623C143.836 98.4446 155.1 117.589 155.1 139.34Z" fill="#D66142"/>
<path d="M64.7696 187.545L44.3999 193.449L53.3001 224.156L73.6698 218.251L64.7696 187.545Z" fill="white"/>
<path d="M52.6177 225.284L43.1663 192.688L65.4332 186.238L74.8752 218.83L52.6177 225.284ZM45.6059 194.022L53.9605 222.845L72.4496 217.497L64.0996 188.678L45.6059 194.022Z" fill="#333333"/>
<path d="M53.1057 208.078L56.8462 198.562L64.9454 204.816L61.1955 214.332L53.1057 208.078Z" fill="#D66142"/>
<path d="M90.6235 179.457L70.2873 185.506L79.4003 216.144L99.7366 210.095L90.6235 179.457Z" fill="white"/>
<path d="M78.6855 217.411L69.0112 184.889L91.2454 178.286L100.892 210.813L78.6855 217.411ZM71.4646 186.209L80.0145 214.967L98.4663 209.479L89.9258 180.735L71.4646 186.209Z" fill="#333333"/>
<path d="M91.2361 196.605C90.7994 195.128 82.4958 190.728 82.4958 190.728C82.4958 190.728 78.1836 199.11 78.5554 200.36C79.178 202.484 81.4085 203.692 83.5273 203.06C84.2522 202.846 84.8749 202.446 85.3488 201.926L84.1639 206.749L90.0095 205.007L86.3897 201.619C87.0634 201.791 87.8023 201.791 88.5318 201.582C90.646 200.959 91.8634 198.724 91.2361 196.605Z" fill="#333333"/>
<path d="M116.511 171.829L96.1393 177.736L105.043 208.439L125.415 202.532L116.511 171.829Z" fill="white"/>
<path d="M104.414 209.712L94.9628 177.111L117.234 170.666L126.672 203.258L104.414 209.712ZM97.4163 178.449L105.762 207.277L124.251 201.924L115.905 173.106L97.4163 178.449Z" fill="#333333"/>
<path d="M117.169 186.825C117.606 188.279 113.071 196.406 113.071 196.406C113.071 196.406 104.995 191.783 104.619 190.528C103.996 188.428 105.195 186.221 107.295 185.607C108.006 185.389 108.74 185.398 109.419 185.561L110.092 185.914L110.455 185.263C110.924 184.748 111.524 184.348 112.239 184.134C114.349 183.516 116.556 184.715 117.169 186.825Z" fill="#D66142"/>
<path d="M142.466 163.925L122.092 169.828L130.989 200.534L151.363 194.631L142.466 163.925Z" fill="white"/>
<path d="M130.319 201.732L120.886 169.131L143.153 162.677L152.595 195.278L130.319 201.732ZM123.317 170.478L131.662 199.297L150.156 193.949L141.81 165.121L123.317 170.478Z" fill="#333333"/>
<path d="M139.659 179.388C139.64 179.114 139.594 178.849 139.515 178.58C138.929 176.642 136.894 175.531 134.961 176.112C133.024 176.688 131.913 178.71 132.489 180.657C132.615 181.08 132.805 181.451 133.051 181.781C131.383 182.422 130.454 184.249 130.979 185.991C131.518 187.817 133.437 188.863 135.268 188.319C135.765 188.189 136.197 187.933 136.546 187.622C136.978 187.418 137.331 187.125 137.633 186.8L136.536 191.321L142.01 189.69L138.618 186.502C139.148 186.656 139.715 186.674 140.282 186.558C140.737 186.614 141.202 186.567 141.671 186.423C143.618 185.856 144.724 183.821 144.148 181.883C143.581 179.955 141.573 178.854 139.659 179.388Z" fill="#333333"/>
<path d="M102.607 86.0976L99.9394 84.6292L100.887 82.91L102.579 83.8439L109.121 80.0615L112.076 82.3244L110.896 83.8812L108.968 82.4175L102.607 86.0976Z" fill="#333333"/>
<path d="M83.611 86.0976L77.2543 82.4175L75.3306 83.8904L74.1364 82.3244L77.0963 80.0615L83.6295 83.8439L85.3255 82.91L86.2735 84.6292L83.611 86.0976Z" fill="#333333"/>
<path d="M77.7423 103.554L86.9427 111.207H98.5919L108.573 103.554L92.6859 106.393L77.7423 103.554Z" fill="#333333"/>
</svg>
