<svg width="185" height="260" viewBox="0 0 185 260" fill="none" xmlns="http://www.w3.org/2000/svg">
<path d="M20.4221 259.171C9.4978 259.194 0.590146 250.472 0.562266 239.739L0.00465357 20.2905C-0.0185798 9.48701 8.87515 0.718748 19.8273 0.737334L164.845 1.00683C175.765 1.02077 184.64 9.80764 184.64 20.5833V239.567C184.64 250.273 175.802 258.994 164.92 259.008L20.4221 259.171Z" fill="#C9C9C9"/>
<path d="M21.3514 258.895C10.5758 258.895 1.8029 250.154 1.8029 239.416V20.4837C1.8029 9.74527 10.5758 1.00488 21.3514 1.00488H164.264C175.04 1.00488 183.808 9.74992 183.808 20.4837V239.416C183.808 250.159 175.04 258.895 164.264 258.895H21.3514Z" fill="white"/>
<path d="M165.101 254.52H22.1878C13.8378 254.52 7.04437 247.759 7.04437 239.437V20.5089C7.04437 12.5213 13.3964 5.99735 16.8024 4.74739L17.2995 4.56152L160.979 4.57085C175.184 5.67675 180.244 13.5296 180.244 20.5042V239.432C180.244 247.759 173.455 254.52 165.101 254.52ZM18.5123 10.5511C16.9743 11.5176 13.0293 15.5463 13.0293 20.5136V239.441C13.0293 244.455 17.1416 248.535 22.1878 248.535H165.101C170.152 248.535 174.264 244.455 174.264 239.441V20.5136C174.264 14.9747 169.167 11.2481 160.621 10.5511H18.5123Z" fill="#333333"/>
<path d="M35.1195 27.8257C35.1195 28.8155 34.8826 29.8981 34.3993 31.083C33.9207 32.2726 33.3492 33.2159 32.6893 33.9129C32.4431 34.1777 32.0109 34.5727 31.3836 35.0792C30.4775 35.8134 29.5435 36.4732 28.5538 37.0587C28.2704 37.2306 28.0659 37.3514 27.9358 37.4257C27.5036 37.7092 27.2806 37.909 27.2806 38.0158C27.2806 38.2435 27.9544 38.6292 29.2926 39.1729C30.5054 39.6701 31.4069 39.9721 32.0156 40.1069C32.0899 40.1255 32.2247 40.1394 32.4105 40.1394H32.917C33.0657 40.1394 33.2237 40.1394 33.3863 40.1394C33.5443 40.1394 33.7116 40.1626 33.8789 40.223C33.772 40.3346 33.5443 40.4693 33.2098 40.6319C32.8845 40.7946 32.5453 40.9479 32.2061 41.1012C31.7321 41.5101 31.3743 41.8308 31.1234 42.0538C30.8678 42.2676 30.6634 42.3698 30.51 42.3698C30.0779 42.3698 29.3577 41.8958 28.3633 40.9293C27.3642 39.9674 26.407 39.4842 25.5009 39.4842C24.9341 39.4842 24.3857 39.6979 23.8467 40.1208C23.3077 40.5483 22.9824 40.7667 22.8709 40.7667C22.6432 40.7667 22.5271 40.6087 22.5271 40.3067C22.5271 40.0976 22.8477 39.7537 23.4889 39.2612C23.9071 38.9406 24.3207 38.6292 24.7389 38.3272C23.698 37.7185 22.7083 37.0912 21.7511 36.4267C20.8032 35.7669 19.9575 34.9584 19.2233 33.9965C18.5821 33.1462 18.0895 32.254 17.7456 31.2968C17.4111 30.3396 17.2392 29.3545 17.2392 28.3322C17.2392 26.7895 17.5412 25.5303 18.1453 24.573C18.373 24.2199 19.0885 23.4253 20.2967 22.1986C20.6777 21.8176 21.6256 21.0091 23.159 19.7638C25.0642 18.2164 26.2026 17.4404 26.5836 17.4404C26.9182 17.4404 27.5501 17.7703 28.4748 18.4255C29.6086 19.2201 30.9236 20.3725 32.4152 21.8826C33.3585 22.8259 34.0462 23.7645 34.4783 24.6892C34.9058 25.6139 35.1195 26.6594 35.1195 27.8257ZM30.3381 30.4929C30.3381 29.624 30.1569 28.6668 29.7852 27.6166C29.4181 26.5711 28.9116 25.5814 28.2471 24.6614C27.7313 23.9272 26.7881 23.049 25.4126 22.0267C24.9573 21.6875 24.3207 21.2553 23.4889 20.7303C23.173 20.7303 22.7641 21.2832 22.2901 22.4077C21.8068 23.5369 21.5652 24.271 21.5652 24.6056C21.5652 26.1483 21.8951 27.5934 22.5596 28.9038C23.1033 30.019 23.9536 31.1713 25.106 32.3609C25.5799 32.8488 26.7277 33.9222 28.5538 35.5903C29.1765 35.0049 29.6504 34.108 29.971 32.8999C30.2127 31.9891 30.3381 31.1899 30.3381 30.4929Z" fill="#333333"/>
<path d="M152.908 234.49C152.908 233.51 153.154 232.427 153.633 231.237C154.116 230.053 154.688 229.109 155.347 228.408C155.594 228.143 156.026 227.748 156.644 227.241C157.55 226.507 158.493 225.847 159.474 225.262C159.762 225.09 159.961 224.964 160.101 224.895C160.538 224.611 160.751 224.416 160.751 224.305C160.751 224.077 160.087 223.691 158.739 223.138C157.531 222.65 156.625 222.344 156.026 222.209C155.947 222.19 155.817 222.176 155.631 222.176H155.124C154.971 222.176 154.818 222.176 154.66 222.176C154.492 222.176 154.33 222.153 154.162 222.088C154.269 221.981 154.492 221.842 154.822 221.679C155.152 221.521 155.491 221.368 155.826 221.219C156.3 220.801 156.667 220.485 156.918 220.262C157.173 220.048 157.378 219.941 157.531 219.941C157.959 219.941 158.674 220.425 159.683 221.387C160.682 222.348 161.639 222.832 162.536 222.832C163.107 222.832 163.656 222.618 164.195 222.195C164.734 221.772 165.059 221.558 165.17 221.558C165.398 221.558 165.514 221.707 165.514 222.014C165.514 222.223 165.189 222.571 164.543 223.059C164.134 223.375 163.716 223.691 163.298 223.989C164.339 224.597 165.333 225.229 166.29 225.889C167.238 226.549 168.084 227.357 168.818 228.324C169.459 229.174 169.952 230.076 170.286 231.024C170.63 231.976 170.802 232.966 170.802 233.984C170.802 235.531 170.495 236.79 169.896 237.752C169.668 238.105 168.953 238.9 167.745 240.126C167.364 240.508 166.411 241.316 164.882 242.561C162.977 244.109 161.839 244.88 161.458 244.88C161.123 244.88 160.487 244.55 159.557 243.9C158.428 243.105 157.113 241.953 155.626 240.443C154.683 239.499 153.995 238.57 153.563 237.636C153.131 236.711 152.908 235.661 152.908 234.49ZM157.694 231.832C157.694 232.706 157.88 233.658 158.247 234.708C158.614 235.754 159.125 236.744 159.79 237.664C160.296 238.398 161.244 239.281 162.619 240.298C163.07 240.638 163.716 241.07 164.538 241.595C164.864 241.595 165.263 241.033 165.747 239.913C166.23 238.788 166.471 238.063 166.471 237.72C166.471 236.177 166.142 234.732 165.477 233.421C164.933 232.306 164.083 231.154 162.931 229.964C162.457 229.476 161.309 228.398 159.474 226.735C158.856 227.325 158.386 228.217 158.061 229.425C157.824 230.331 157.694 231.135 157.694 231.832Z" fill="#333333"/>
<path d="M121.464 73.8555L121.19 77.7633L121.004 80.1377L120.284 90.3046L120.107 92.693L119.884 95.941V95.955L119.666 98.9567L117.342 99.0032L116.246 99.0218L113.973 99.0775L112.682 99.1008L111.111 99.1333L108.337 99.1891L105.256 99.2541L90.7726 99.5608H90.7494L76.2751 99.2541L73.1943 99.1891L70.4202 99.1333L68.8497 99.1008L67.5579 99.0775L66.4241 99.045L65.2764 99.0218L64.1798 99.0032L61.8657 98.9567L61.6427 95.955V95.941L61.4196 92.693L61.2384 90.3046L60.5228 80.1377L60.3416 77.7633L60.0582 73.8555H121.464Z" fill="#C9C9C9"/>
<path opacity="0.2" d="M118.657 73.8555C114.08 80.3236 107.635 86.9358 100.503 86.9358H100.419C98.8718 88.9106 97.0364 90.4255 95.0244 91.2898C93.7651 91.8381 92.4129 92.1215 91.0422 92.1215C90.9539 92.1215 90.861 92.1075 90.7727 92.0936C90.7587 92.0936 90.7587 92.0936 90.7495 92.0936V73.8555H118.657Z" fill="#616161"/>
<path d="M131.273 113.92L119.628 117.396L118.532 117.712L118.211 117.809C117.291 116.271 116.557 115.156 116.241 114.659C116.12 114.501 116.055 114.403 116.023 114.38C115.999 114.399 115.981 114.436 115.962 114.455C114.963 116.095 114.424 117.614 114.085 119.045L110.972 119.979L90.7726 126.002L78.1662 129.751L73.9564 131.025C73.8216 130.527 73.6404 129.988 73.4173 129.431C66.1406 126.299 69.4537 121.313 65.899 115.035C65.7829 114.817 65.6388 114.594 65.4994 114.376C65.058 114.91 56.8427 127.456 55.4301 136.545L54.4125 136.842L46.2436 139.272H46.0392C45.8998 121.35 51.3642 109.38 56.3919 102.164C56.7451 101.667 57.0843 101.184 57.4467 100.728C57.7813 100.31 58.1019 99.8687 58.4272 99.4923L58.4458 99.4737C58.4458 99.4505 58.4458 99.4319 58.4458 99.4319C58.7013 99.1531 58.943 98.8371 59.1985 98.5723C59.4355 98.2703 59.6818 97.9961 59.9234 97.7312C60.5414 97.0575 61.1176 96.4581 61.638 95.9376V95.919H61.6566C61.796 95.8028 61.9122 95.6821 62.0562 95.538C62.177 95.4265 62.2979 95.301 62.4187 95.2034C62.5348 95.1058 62.6556 94.9804 62.7718 94.8828C62.9902 94.6784 63.19 94.5018 63.3898 94.3438C64.1844 93.6468 64.6862 93.3261 64.6862 93.3261L66.5821 93.7862L66.8981 93.8698L67.6601 94.0696L67.8553 94.1068L70.4899 93.986L74.5604 93.8373L78.8865 93.6514L90.7541 93.1729H90.7773L102.877 93.6654L106.971 93.8327L111.037 93.9814L113.671 94.1022L113.885 94.065L114.629 93.8652L114.968 93.7815L116.84 93.3215C116.84 93.3215 117.342 93.6421 118.137 94.3391C118.332 94.4971 118.536 94.6737 118.773 94.8781C118.871 94.9757 118.992 95.0965 119.108 95.1987C119.229 95.2963 119.354 95.4172 119.47 95.5333C119.61 95.6774 119.726 95.7982 119.87 95.9144L119.889 95.9329C120.009 96.0352 120.13 96.17 120.27 96.3094C120.409 96.4488 120.567 96.5927 120.711 96.7507C120.99 97.0481 121.306 97.3687 121.603 97.7219C121.826 97.9403 122.003 98.1634 122.221 98.4004C122.263 98.4608 122.282 98.4979 122.324 98.5629C122.579 98.8231 122.821 99.1392 123.076 99.4226C123.076 99.4226 123.095 99.4365 123.095 99.4644V99.483C123.415 99.8641 123.741 100.301 124.094 100.719C124.438 101.174 124.772 101.653 125.13 102.155C127.249 105.231 129.442 109.116 131.273 113.92Z" fill="#FDD8AB"/>
<path opacity="0.2" d="M90.7541 106.313H93.4166L92.2224 115.913C91.7438 115.941 91.2466 115.955 90.7541 115.965V106.313Z" fill="#616161"/>
<path opacity="0.2" d="M90.7726 73.8643H62.8648C67.451 80.3231 73.8913 86.9307 81.0286 86.9307H81.1076C83.6307 90.1601 86.9066 92.1256 90.4892 92.1256C90.5868 92.1256 90.6797 92.1117 90.7773 92.1117L90.7726 73.8643Z" fill="#616161"/>
<path opacity="0.2" d="M90.7727 106.313H88.1055L89.295 115.913C89.7829 115.941 90.2801 115.955 90.7727 115.965V106.313Z" fill="#616161"/>
<path opacity="0.2" d="M81.0657 114.385C67.5672 111.401 60.2347 106.857 56.4105 102.192C59.2032 98.177 61.875 95.6399 63.3898 94.3574L81.0657 114.385Z" fill="#616161"/>
<path d="M90.7726 88.14C90.675 88.14 90.5775 88.154 90.4845 88.154C89.1463 88.154 87.8638 87.8844 86.6324 87.3779C86.5581 87.6846 86.5023 88.0192 86.5023 88.3584V90.0777C87.7755 90.6399 89.1045 90.9233 90.4845 90.9233C90.5821 90.9233 90.675 90.9094 90.7726 90.9094V88.14Z" fill="#FDD8AB"/>
<path d="M90.7726 84.2569C90.7215 84.2476 90.675 84.2383 90.6239 84.2383C88.6863 84.2383 87.0785 85.5719 86.6324 87.3841C87.8638 87.8906 89.1509 88.16 90.4845 88.16C90.5775 88.16 90.675 88.1461 90.7726 88.1461V84.2569Z" fill="#FDD8AB"/>
<path d="M114.475 92.8649L107.31 92.7673L95.0289 92.6047V90.0723C93.7604 90.6345 92.4175 90.918 91.0467 90.918C90.9538 90.918 90.8702 90.904 90.7772 90.904C90.7772 90.904 90.7726 90.904 90.7633 90.904C90.6704 90.9087 90.5821 90.918 90.4891 90.918C89.1137 90.918 87.7848 90.6345 86.5069 90.0723V92.6047L74.2212 92.7673L67.056 92.8649C65.7968 95.0488 66.3497 95.258 66.3497 97.7765C66.3497 104.04 70.6758 109.556 77.2461 112.836C77.2833 112.86 77.3019 112.864 77.3344 112.878C78.51 113.454 79.76 113.965 81.0657 114.384C83.6167 115.225 86.3861 115.75 89.2996 115.912C89.4576 115.926 89.6202 115.926 89.7782 115.94C90.0942 115.95 90.4287 115.95 90.7586 115.959C90.7679 115.959 90.7772 115.959 90.7772 115.959C91.1071 115.95 91.4324 115.95 91.7577 115.94C91.9156 115.926 92.0737 115.922 92.2316 115.912C95.1451 115.754 97.9238 115.229 100.47 114.384C101.776 113.965 103.026 113.454 104.201 112.878C104.239 112.864 104.248 112.864 104.28 112.836C110.855 109.556 115.186 104.04 115.186 97.7765C115.182 95.2626 115.73 95.0535 114.475 92.8649Z" fill="#FDD8AB"/>
<path opacity="0.2" d="M81.0657 114.385C79.7507 113.892 78.51 113.39 77.3344 112.879C77.3065 112.865 77.2833 112.865 77.2461 112.838C70.6758 109.557 66.3497 104.041 66.3497 97.7777C66.3497 95.2592 65.7968 95.05 67.056 92.8661L74.2212 92.7686L81.0657 114.385Z" fill="#616161"/>
<path opacity="0.2" d="M100.466 114.385C101.785 113.892 103.021 113.39 104.197 112.879C104.234 112.865 104.243 112.865 104.276 112.838C110.851 109.557 115.182 104.041 115.182 97.7777C115.182 95.2592 115.734 95.05 114.475 92.8661L107.31 92.7686L100.466 114.385Z" fill="#616161"/>
<path d="M90.754 88.139C90.8516 88.139 90.9445 88.153 91.0421 88.153C92.3757 88.153 93.6675 87.8834 94.8942 87.377C94.9685 87.6836 95.0243 88.0182 95.0243 88.3574V90.0767C93.7557 90.639 92.4128 90.9224 91.0421 90.9224C90.9445 90.9224 90.8516 90.9085 90.754 90.9085V88.139Z" fill="#FDD8AB"/>
<path d="M90.754 84.2559C90.8005 84.2466 90.8516 84.2373 90.9027 84.2373C92.8403 84.2373 94.4574 85.5709 94.8942 87.3831C93.6675 87.8896 92.3757 88.1591 91.0421 88.1591C90.9445 88.1591 90.8516 88.1452 90.754 88.1452V84.2559Z" fill="#FDD8AB"/>
<path opacity="0.2" d="M125.135 102.192C121.301 106.852 113.973 111.406 100.466 114.385L107.793 106.076L108.244 105.574L113.978 99.0785L115.186 97.703L118.137 94.3574C118.332 94.5061 118.541 94.692 118.764 94.8965C118.871 94.9941 119.001 95.1056 119.113 95.2171C119.233 95.3147 119.364 95.4402 119.489 95.547C119.619 95.6725 119.74 95.7979 119.879 95.942H119.889V95.9559C120.009 96.0628 120.14 96.1929 120.274 96.3369C120.414 96.481 120.567 96.6157 120.711 96.7737C120.999 97.0804 121.306 97.401 121.613 97.7449C121.822 97.9633 122.008 98.1863 122.226 98.4186C122.263 98.4651 122.305 98.5162 122.347 98.5626C122.584 98.8368 122.83 99.1296 123.081 99.4455C123.081 99.4455 123.09 99.4595 123.09 99.4781H123.109V99.4874C123.429 99.8823 123.745 100.31 124.089 100.737C124.438 101.202 124.782 101.69 125.135 102.192Z" fill="#616161"/>
<path d="M126.868 88.2371C126.868 89.0735 126.826 89.9146 126.687 90.7882C126.301 93.5669 125.232 96.5082 123.109 99.4821V99.4914C121.064 102.321 118.081 105.151 113.82 107.888C113.569 108.055 113.295 108.227 113.012 108.39C110.544 109.918 107.64 111.41 104.281 112.841C104.215 112.883 104.141 112.916 104.071 112.939C104.016 112.971 103.96 112.995 103.904 113.013C103.695 113.097 103.5 113.18 103.295 113.269C102.696 113.515 102.069 113.761 101.437 114.017C101.116 114.138 100.791 114.263 100.461 114.389L108.332 99.194L111.023 94.0176L111.636 92.8281L121.464 73.8604C121.464 73.8604 126.868 80.0497 126.868 88.2371Z" fill="#EBEBEB"/>
<path d="M81.0658 114.384C76.0334 112.493 71.8932 110.471 68.5151 108.39C68.2409 108.218 67.9715 108.046 67.7112 107.883C58.9709 102.27 55.5974 96.2108 54.84 90.7789C54.7099 89.9146 54.6634 89.0689 54.6634 88.2325C54.6681 80.0451 60.0628 73.8604 60.0628 73.8604L81.0658 114.384Z" fill="#EBEBEB"/>
<path d="M63.4038 97.9609L65.9408 101.33L64.7931 97.2686L63.4038 97.9609Z" fill="#333333"/>
<path d="M72.1674 106.133L74.6998 109.506L73.5521 105.445L72.1674 106.133Z" fill="#333333"/>
<path d="M58.7989 77.8499L61.3267 81.2187L60.1836 77.1621L58.7989 77.8499Z" fill="#333333"/>
<path d="M62.1399 84.9246L64.6723 88.2841L63.5246 84.2275L62.1399 84.9246Z" fill="#333333"/>
<path d="M65.4808 91.9948L68.0132 95.359L66.8655 91.2979L65.4808 91.9948Z" fill="#333333"/>
<path d="M68.8311 99.0639L71.3635 102.437L70.2112 98.3809L68.8311 99.0639Z" fill="#333333"/>
<path d="M68.5105 108.392C68.2363 108.22 67.9668 108.048 67.7066 107.885L66.2336 105.92L67.6183 105.228L68.5105 108.392Z" fill="#333333"/>
<path d="M56.7126 83.8176L59.2497 87.1864L58.1066 83.1299L56.7126 83.8176Z" fill="#333333"/>
<path d="M60.0582 90.8908L62.5953 94.2597L61.4475 90.2031L60.0582 90.8908Z" fill="#333333"/>
<path d="M55.9273 92.2323L54.84 90.7825C54.7099 89.9182 54.6634 89.0725 54.6634 88.2361L54.7795 88.1758L55.9273 92.2323Z" fill="#333333"/>
<path d="M58.2041 97.25L60.732 100.61L59.5842 96.5576L58.2041 97.25Z" fill="#333333"/>
<path d="M118.123 97.9609L115.591 101.33L116.734 97.2686L118.123 97.9609Z" fill="#333333"/>
<path d="M109.359 106.133L106.832 109.506L107.97 105.445L109.359 106.133Z" fill="#333333"/>
<path d="M122.732 77.8499L120.205 81.2187L121.348 77.1621L122.732 77.8499Z" fill="#333333"/>
<path d="M119.396 84.9246L116.859 88.2841L118.002 84.2275L119.396 84.9246Z" fill="#333333"/>
<path d="M116.051 91.9948L113.513 95.359L114.661 91.2979L116.051 91.9948Z" fill="#333333"/>
<path d="M112.705 99.0639L110.168 102.437L111.32 98.3809L112.705 99.0639Z" fill="#333333"/>
<path d="M113.021 108.392C113.295 108.22 113.565 108.048 113.82 107.885L115.298 105.92L113.908 105.228L113.021 108.392Z" fill="#333333"/>
<path d="M124.81 83.8176L122.282 87.1864L123.425 83.1299L124.81 83.8176Z" fill="#333333"/>
<path d="M121.473 90.8908L118.936 94.2597L120.084 90.2031L121.473 90.8908Z" fill="#333333"/>
<path d="M126.868 88.2356C126.868 89.072 126.826 89.9131 126.687 90.7867L125.604 92.2318L126.757 88.1846L126.868 88.2356Z" fill="#333333"/>
<path d="M123.327 97.25L120.799 100.61L121.943 96.5576L123.327 97.25Z" fill="#333333"/>
<path d="M103.974 81.7175C100.122 81.6989 96.5299 80.6024 93.4817 78.7623L97.213 84.6682L98.8114 87.2424L102.873 93.6781L115.958 114.458C114.959 116.098 114.42 117.618 114.08 119.049L110.967 119.983L90.768 126.005L78.1616 129.755L73.9518 131.028C73.817 130.531 73.6358 129.992 73.4127 129.434C66.136 126.302 69.4491 121.316 65.8944 115.039L78.8726 93.6595L82.7618 87.2563L83.9374 85.328L87.9243 78.739C84.8714 80.6163 81.2656 81.6525 77.4181 81.6292C66.1546 81.6292 57.0565 72.4754 57.075 61.2072C57.075 54.5532 90.3219 19.9912 90.3219 19.9912C90.3219 19.9912 124.442 53.5123 124.401 61.3559C124.415 72.624 115.242 81.7315 103.974 81.7175Z" fill="#333333"/>
<path opacity="0.2" d="M78.1801 129.761L73.9563 131.02C73.8123 130.532 73.631 129.998 73.4266 129.441C65.885 126.211 69.686 120.993 65.5087 114.395C65.0487 114.91 56.8333 127.47 55.4254 136.55L54.4125 136.857C52.2518 127.387 66.5728 111.514 66.5728 111.514C66.5728 111.514 72.9898 127.359 78.1801 129.761Z" fill="#616161"/>
<path opacity="0.2" d="M119.619 117.388L118.536 117.718L118.207 117.811C117.291 116.282 116.566 115.167 116.236 114.66C116.125 114.507 116.06 114.409 116.027 114.381C114.986 116.031 114.429 117.592 114.085 119.047L110.972 119.976C113.295 115.617 114.959 111.51 114.959 111.51C114.959 111.51 117.11 113.917 119.619 117.388Z" fill="#616161"/>
<path opacity="0.2" d="M98.8114 87.242L95.0197 90.0718C93.7651 90.6248 92.4268 90.9314 91.0514 90.9314C90.9538 90.9314 90.8562 90.9129 90.7772 90.9129C90.675 90.9129 90.5775 90.9314 90.4938 90.9314C89.1138 90.9314 87.7802 90.6294 86.507 90.0718L82.7757 87.2559L83.9513 85.3276C86.27 86.4753 89.5552 88.1481 90.4938 88.1481C90.5728 88.1481 90.6704 88.1295 90.7494 88.1295C90.7494 88.1295 90.7494 88.1295 90.7726 88.1295C90.8702 88.1295 90.9492 88.1481 91.0467 88.1481C91.9064 88.1481 94.8756 86.2011 97.2129 84.6631L98.8114 87.242Z" fill="#616161"/>
<path d="M95.7678 46.1777C93.5699 46.4194 91.7066 47.7669 90.7633 49.6674C89.82 47.7669 87.9706 46.4194 85.7728 46.1777C80.3222 49.291 76.4515 57.195 76.4515 66.4558C76.4515 73.0355 78.4078 78.9275 81.4885 82.8957C81.5071 82.9143 81.5211 82.9468 81.5396 82.9654C81.5396 82.9701 81.5396 82.9701 81.5443 82.9747C83.1334 84.996 85.0061 86.5201 87.0692 87.3751C88.2448 87.8583 89.4854 88.1232 90.7633 88.1464C90.7726 88.1464 90.7819 88.1464 90.7819 88.1464C92.0597 88.1232 93.3004 87.8537 94.476 87.3751C96.5391 86.5201 98.4163 84.996 100.001 82.9747C100.001 82.9654 100.01 82.9654 100.015 82.9654C100.024 82.9468 100.038 82.9143 100.052 82.8957C103.137 78.9228 105.094 73.0355 105.094 66.4558C105.084 57.1903 101.214 49.2864 95.7678 46.1777Z" fill="#FDD8AB"/>
<path d="M100.795 44.6335C100.805 42.3055 90.6704 32.3477 90.6704 32.3477C90.6704 32.3477 80.7962 42.6168 80.7869 44.601C80.7823 47.9466 83.4913 50.6648 86.8323 50.6648C87.98 50.6695 89.0487 50.3582 89.9548 49.8006L91.5998 49.8052C92.5059 50.3582 93.5699 50.6835 94.7177 50.6835C98.0726 50.6974 100.795 47.9884 100.795 44.6335Z" fill="#333333"/>
<path d="M80.0435 65.2061C79.9784 65.364 79.9459 65.5266 79.9459 65.7078C79.9459 66.8137 81.3074 67.7198 82.9988 67.7198C84.6809 67.7198 86.0516 66.8184 86.0516 65.7078C86.0516 65.5313 86.0098 65.364 85.9494 65.2061H80.0435Z" fill="#333333"/>
<path d="M101.488 65.2061C101.548 65.364 101.59 65.5266 101.59 65.7078C101.59 66.8137 100.219 67.7198 98.5419 67.7198C96.8505 67.7198 95.4843 66.8184 95.4843 65.7078C95.4843 65.5313 95.5262 65.364 95.5866 65.2061H101.488Z" fill="#333333"/>
<path d="M94.7503 80.2227H90.7774H90.7588H86.7859C87.5804 81.2821 89.0581 82.007 90.7588 82.0256C90.7681 82.0256 90.7774 82.0256 90.7774 82.0256C92.478 82.007 93.9464 81.2867 94.7503 80.2227Z" fill="#454545"/>
<path d="M90.7587 80.0134C88.9512 77.8946 86.3816 80.5757 86.3816 80.5757H90.7541H90.7727H95.1498C95.1498 80.5757 92.5756 77.8946 90.7587 80.0134Z" fill="#333333"/>
<path opacity="0.2" d="M90.7726 68.5885V68.5234L90.7587 68.5607L90.7541 68.5234V68.5885L88.4586 75.9163H90.7541H90.7726H93.0728L90.7726 68.5885Z" fill="#616161"/>
<path d="M95.1545 60.8311L101.214 61.1517L101.293 61.161L101.339 61.2075L103.746 63.8328L101.084 61.4677L101.214 61.5187L95.1498 61.8208L95.1545 60.8311Z" fill="#333333"/>
<path d="M86.902 61.8208L80.8427 61.5187L80.9682 61.4677L78.3056 63.8328L80.708 61.2075L80.7591 61.161L80.8381 61.1517L86.8973 60.8311L86.902 61.8208Z" fill="#333333"/>
<path opacity="0.2" d="M92.8032 47.2968C92.84 47.2738 92.8675 47.2554 92.9043 47.2324C92.8675 47.2554 92.84 47.2692 92.8032 47.2968Z" fill="#616161"/>
<path opacity="0.2" d="M94.1926 46.5571C94.2807 46.5246 94.3733 46.5014 94.4567 46.4736C94.3687 46.4968 94.276 46.52 94.1926 46.5571Z" fill="#616161"/>
<path d="M76.8094 74.0131C76.8141 72.8468 71.7167 67.833 71.7167 67.833C71.7167 67.833 66.754 72.9955 66.7494 73.9945C66.7494 75.6766 68.1109 77.0427 69.7883 77.0427C70.3691 77.0473 70.9035 76.8894 71.3635 76.6059L69.4491 79.8586L74.0865 79.8725L72.186 76.6059C72.646 76.8894 73.1804 77.0474 73.7519 77.0566C75.4433 77.0613 76.8094 75.6998 76.8094 74.0131Z" fill="#FFD675"/>
<path opacity="0.2" d="M71.1916 78.8715L71.7724 77.8818L72.3486 78.8762L71.1916 78.8715ZM70.8384 75.7582C70.5317 75.9441 70.1739 76.0417 69.8068 76.0417C69.2399 76.0417 68.7288 75.8326 68.3432 75.4423C67.9528 75.0566 67.7437 74.5455 67.7437 73.9925C67.9203 73.5186 69.8394 71.2742 71.7306 69.2529C73.6868 71.2371 75.6477 73.4814 75.815 74.104C75.8057 74.5547 75.5966 75.0659 75.2109 75.4516C74.8252 75.8373 74.3048 76.051 73.7565 76.051C73.3801 76.0463 73.013 75.9488 72.7017 75.7536L70.8384 75.7582Z" fill="#616161"/>
<path d="M115.205 74.0131C115.205 72.8468 110.107 67.833 110.107 67.833C110.107 67.833 105.145 72.9955 105.14 73.9945C105.14 75.6766 106.502 77.0427 108.184 77.0427C108.76 77.0473 109.299 76.8894 109.75 76.6059L107.84 79.8586L112.477 79.8725L110.577 76.6059C111.037 76.8894 111.566 77.0474 112.143 77.0566C113.834 77.0613 115.205 75.6998 115.205 74.0131Z" fill="#FFD675"/>
<path opacity="0.2" d="M109.582 78.8715L110.163 77.8818L110.739 78.8762L109.582 78.8715ZM109.234 75.7582C108.927 75.9441 108.569 76.0417 108.202 76.0417C107.64 76.0417 107.124 75.8326 106.739 75.4423C106.344 75.0566 106.139 74.5455 106.139 73.9925C106.316 73.5186 108.235 71.2742 110.126 69.2529C112.087 71.2371 114.038 73.4814 114.21 74.104C114.201 74.5547 113.992 75.0659 113.606 75.4516C113.221 75.8373 112.705 76.051 112.152 76.051C111.776 76.0463 111.408 75.9488 111.097 75.7536L109.234 75.7582Z" fill="#616161"/>
<path opacity="0.2" d="M125.13 102.176C124.772 101.679 124.438 101.196 124.094 100.74C123.964 100.592 123.862 100.447 123.745 100.299C123.532 100.029 123.313 99.7458 123.109 99.4903V99.481C125.232 96.5071 126.301 93.5658 126.687 90.7871C126.826 89.9088 126.868 89.0724 126.868 88.236C126.868 80.0486 121.464 73.8546 121.464 73.8546H120.093C122.788 70.4068 124.415 66.0761 124.415 61.3597C124.456 53.5672 90.7773 20.4226 90.3545 20.0137V126.13L90.7773 126.009L110.976 119.987L113.476 119.234L114.09 119.048C114.131 118.853 114.192 118.662 114.252 118.477C114.294 118.3 114.336 118.119 114.392 117.938C114.392 117.933 114.396 117.933 114.396 117.928C114.745 116.808 115.251 115.623 116.027 114.387C116.041 114.397 116.051 114.411 116.064 114.425C116.092 114.462 116.153 114.531 116.241 114.666C116.571 115.168 117.296 116.288 118.211 117.817L118.234 117.812L118.541 117.724L118.996 117.584L119.633 117.398L131.278 113.923C129.442 109.113 127.249 105.229 125.13 102.176Z" fill="#616161"/>
<path d="M55.8437 189.132L56.1272 185.229L56.3037 182.85L57.0286 172.683L57.2098 170.304L57.4329 167.047V167.028L57.6513 164.04L59.97 163.984L61.0712 163.966L63.3434 163.91L64.6352 163.887L66.2011 163.854L68.9798 163.794L72.0606 163.733L86.5349 163.427H86.5675L101.042 163.733L104.113 163.794L106.897 163.854L108.467 163.887L109.75 163.91L110.893 163.933L112.031 163.966L113.128 163.984L115.447 164.04L115.67 167.028V167.047L115.893 170.304L116.069 172.683L116.794 182.85L116.975 185.229L117.249 189.132H55.8437Z" fill="#C9C9C9"/>
<path opacity="0.2" d="M58.6503 189.135C63.2319 182.662 69.6722 176.055 76.8095 176.055H76.8884C78.4451 174.08 80.2759 172.561 82.2879 171.701C83.5564 171.153 84.9039 170.869 86.2747 170.869C86.3537 170.869 86.4606 170.883 86.5396 170.892C86.5489 170.892 86.5489 170.892 86.5674 170.892V189.135H58.6503Z" fill="#616161"/>
<path d="M46.0437 149.061L57.6883 145.595L58.7849 145.274L59.1055 145.176C60.0256 146.71 60.7597 147.825 61.0757 148.327C61.1965 148.485 61.2569 148.582 61.2987 148.606C61.3173 148.587 61.3359 148.545 61.3592 148.522C62.3582 146.891 62.8925 145.376 63.2364 143.94L66.3451 143.006L86.5441 136.984L99.1459 133.234L103.356 131.961C103.495 132.458 103.672 132.997 103.895 133.555C111.171 136.687 107.863 141.673 111.413 147.95C111.534 148.169 111.678 148.392 111.817 148.606C112.249 148.071 120.465 135.525 121.887 126.436L122.904 126.139L131.073 123.704H131.278C131.417 141.626 125.948 153.596 120.925 160.817C120.567 161.314 120.228 161.793 119.87 162.248C119.535 162.676 119.21 163.108 118.89 163.489L118.871 163.507C118.871 163.531 118.871 163.549 118.871 163.549C118.615 163.828 118.374 164.144 118.114 164.409C117.877 164.711 117.635 164.985 117.398 165.241C116.78 165.924 116.204 166.523 115.683 167.039V167.062H115.665C115.525 167.174 115.409 167.299 115.27 167.439C115.149 167.555 115.028 167.676 114.907 167.773C114.791 167.871 114.67 167.991 114.554 168.089C114.336 168.284 114.131 168.47 113.936 168.628C113.137 169.32 112.64 169.646 112.64 169.646L110.744 169.186L110.428 169.102L109.666 168.902L109.466 168.865L106.836 168.977L102.77 169.144L98.4396 169.316L86.572 169.799H86.5534L74.4488 169.297L70.3644 169.144L66.2939 168.977L63.6593 168.865L63.4409 168.902L62.7067 169.102L62.3721 169.186L60.4949 169.646C60.4949 169.646 59.993 169.325 59.1985 168.628C58.9987 168.47 58.7988 168.284 58.5619 168.089C58.4596 167.991 58.3435 167.871 58.218 167.773C58.1019 167.676 57.981 167.555 57.8602 167.439C57.7208 167.294 57.6047 167.174 57.4653 167.062L57.442 167.039C57.3259 166.941 57.2051 166.797 57.061 166.663C56.9263 166.523 56.7683 166.379 56.6242 166.221C56.3454 165.924 56.0248 165.603 55.732 165.241C55.5137 165.027 55.3278 164.809 55.1141 164.567C55.0722 164.507 55.0536 164.469 55.0118 164.409C54.7562 164.149 54.5146 163.828 54.2498 163.549C54.2498 163.549 54.2312 163.535 54.2312 163.507V163.489C53.9152 163.108 53.5946 162.676 53.2415 162.248C52.8976 161.793 52.563 161.314 52.2006 160.817C50.0677 157.76 47.8745 153.87 46.0437 149.061Z" fill="#FDD8AB"/>
<path opacity="0.2" d="M86.5581 156.675H83.8956L85.0851 147.07C85.5684 147.047 86.0656 147.033 86.5581 147.028V156.675Z" fill="#616161"/>
<path opacity="0.2" d="M86.5395 189.121H114.447C109.861 182.662 103.421 176.059 96.2836 176.059H96.2046C93.6768 172.83 90.4102 170.864 86.8183 170.864C86.7208 170.864 86.6278 170.878 86.5349 170.878V189.121H86.5395Z" fill="#616161"/>
<path opacity="0.2" d="M86.5392 156.674H89.2063L88.0168 147.069C87.5289 147.046 87.0317 147.032 86.5392 147.027V156.674Z" fill="#616161"/>
<path opacity="0.2" d="M96.2511 148.601C109.75 151.584 117.082 156.128 120.906 160.798C118.114 164.813 115.437 167.35 113.922 168.632L96.2511 148.601Z" fill="#616161"/>
<path d="M86.5395 174.839C86.6325 174.839 86.73 174.83 86.8276 174.83C88.1659 174.83 89.4484 175.099 90.6797 175.606C90.7541 175.295 90.8098 174.965 90.8098 174.626V172.897C89.5366 172.344 88.2077 172.061 86.823 172.061C86.7254 172.061 86.6325 172.079 86.5395 172.079V174.839Z" fill="#FDD8AB"/>
<path d="M86.5395 178.727C86.5814 178.737 86.6325 178.746 86.6882 178.746C88.6259 178.746 90.2336 177.403 90.6797 175.6C89.4484 175.094 88.1659 174.824 86.8276 174.824C86.73 174.824 86.6325 174.834 86.5395 174.834V178.727Z" fill="#FDD8AB"/>
<path d="M62.8415 170.121L70.0021 170.219L82.2925 170.377V172.9C83.5611 172.347 84.8993 172.063 86.2747 172.063C86.3676 172.063 86.4559 172.077 86.5442 172.082C86.5489 172.082 86.5535 172.082 86.5581 172.082C86.6511 172.077 86.7394 172.063 86.823 172.063C88.2077 172.063 89.5367 172.351 90.8099 172.9V170.377L103.096 170.219L110.261 170.121C111.515 167.937 110.958 167.719 110.958 165.205C110.958 158.946 106.641 153.426 100.066 150.15C100.029 150.126 100.01 150.122 99.9777 150.108C98.8021 149.532 97.5522 149.016 96.2464 148.598C93.6954 147.752 90.9213 147.232 88.0125 147.069C87.8453 147.055 87.6873 147.055 87.5339 147.041C87.2087 147.027 86.8834 147.027 86.5535 147.022C86.5489 147.022 86.5489 147.022 86.5442 147.022C86.2143 147.032 85.8797 147.032 85.5591 147.041C85.4011 147.05 85.2431 147.055 85.0805 147.069C82.1717 147.227 79.393 147.752 76.8466 148.598C75.5409 149.016 74.2909 149.532 73.1107 150.108C73.0781 150.117 73.0596 150.122 73.0317 150.15C66.4567 153.426 62.1306 158.946 62.1306 165.205C62.1353 167.719 61.5776 167.937 62.8415 170.121Z" fill="#FDD8AB"/>
<path opacity="0.2" d="M96.2511 148.603C97.5661 149.09 98.8067 149.602 99.9823 150.113C100.015 150.122 100.033 150.127 100.071 150.155C106.646 153.43 110.962 158.951 110.962 165.21C110.962 167.724 111.52 167.937 110.265 170.126L103.1 170.223L96.2511 148.603Z" fill="#616161"/>
<path opacity="0.2" d="M76.8512 148.603C75.5316 149.09 74.2956 149.602 73.1154 150.113C73.0828 150.122 73.0642 150.127 73.0363 150.155C66.4613 153.43 62.1353 158.951 62.1353 165.21C62.1353 167.724 61.5777 167.937 62.8415 170.126L70.0021 170.223L76.8512 148.603Z" fill="#616161"/>
<path d="M86.5582 174.84C86.4606 174.84 86.3723 174.831 86.27 174.831C84.9365 174.831 83.6447 175.1 82.418 175.607C82.3436 175.296 82.2879 174.966 82.2879 174.626V172.898C83.5564 172.345 84.8946 172.062 86.27 172.062C86.3676 172.062 86.4606 172.08 86.5582 172.08V174.84Z" fill="#FDD8AB"/>
<path d="M86.5582 178.733C86.5117 178.743 86.4606 178.752 86.4141 178.752C84.4765 178.752 82.8594 177.409 82.418 175.606C83.6447 175.1 84.9365 174.83 86.27 174.83C86.3676 174.83 86.4606 174.839 86.5582 174.839V178.733Z" fill="#FDD8AB"/>
<path opacity="0.2" d="M52.1821 160.799C56.0156 156.138 63.3434 151.585 76.8466 148.602L69.5188 156.914L69.0774 157.412L63.3434 163.908L62.1353 165.278L59.1754 168.624C58.9848 168.471 58.7804 168.29 58.5527 168.085C58.4412 167.987 58.3204 167.876 58.2089 167.769C58.0787 167.671 57.9579 167.546 57.8325 167.439C57.7024 167.314 57.5816 167.184 57.4422 167.044H57.4329V167.03C57.3028 166.923 57.1819 166.798 57.0472 166.645C56.9078 166.51 56.7544 166.375 56.6104 166.226C56.3223 165.91 56.0156 165.594 55.7089 165.246C55.4998 165.023 55.3093 164.804 55.0956 164.572C55.0584 164.526 55.0073 164.465 54.9655 164.428C54.7331 164.154 54.4869 163.857 54.2359 163.541C54.2359 163.541 54.2267 163.531 54.2267 163.508H54.2081V163.494C53.8875 163.09 53.5715 162.672 53.2276 162.244C52.8745 161.789 52.5306 161.31 52.1821 160.799Z" fill="#616161"/>
<path d="M50.4489 174.753C50.4489 173.917 50.4907 173.071 50.6348 172.193C51.0204 169.423 52.0892 166.482 54.2127 163.508V163.494C56.2526 160.664 59.2358 157.83 63.4968 155.098C63.7477 154.93 64.0218 154.768 64.3053 154.596C66.7726 153.067 69.6722 151.575 73.0271 150.149C73.1014 150.098 73.1664 150.075 73.2361 150.051C73.2966 150.019 73.3523 149.991 73.4034 149.977C73.6079 149.893 73.8124 149.81 74.0168 149.731C74.6162 149.48 75.2435 149.22 75.8801 148.973C76.1961 148.848 76.5167 148.727 76.8466 148.602L68.9798 163.796L66.2848 168.982L65.6807 170.167L55.8483 189.134C55.8483 189.134 50.4489 182.94 50.4489 174.753Z" fill="#EBEBEB"/>
<path d="M96.2511 148.606C101.279 150.498 105.424 152.528 108.802 154.601C109.081 154.773 109.341 154.945 109.606 155.107C118.341 160.72 121.719 166.78 122.477 172.207C122.598 173.066 122.658 173.921 122.658 174.758C122.644 182.941 117.254 189.13 117.254 189.13L96.2511 148.606Z" fill="#EBEBEB"/>
<path d="M113.913 165.021L111.376 161.657L112.524 165.714L113.913 165.021Z" fill="#333333"/>
<path d="M105.14 156.854L102.608 153.48L103.755 157.537L105.14 156.854Z" fill="#333333"/>
<path d="M118.518 185.138L115.99 181.77L117.129 185.826L118.518 185.138Z" fill="#333333"/>
<path d="M115.172 178.064L112.645 174.704L113.792 178.761L115.172 178.064Z" fill="#333333"/>
<path d="M111.831 170.993L109.299 167.634L110.447 171.676L111.831 170.993Z" fill="#333333"/>
<path d="M108.486 163.923L105.953 160.555L107.101 164.611L108.486 163.923Z" fill="#333333"/>
<path d="M108.802 154.597C109.081 154.769 109.341 154.941 109.606 155.103L111.079 157.073L109.689 157.761L108.802 154.597Z" fill="#333333"/>
<path d="M120.595 179.166L118.067 175.802L119.21 179.858L120.595 179.166Z" fill="#333333"/>
<path d="M117.249 172.096L114.722 168.736L115.865 172.784L117.249 172.096Z" fill="#333333"/>
<path d="M121.385 170.756L122.472 172.201C122.593 173.061 122.653 173.916 122.653 174.752L122.533 174.808L121.385 170.756Z" fill="#333333"/>
<path d="M119.113 165.743L116.576 162.374L117.723 166.431L119.113 165.743Z" fill="#333333"/>
<path d="M59.1939 165.021L61.7171 161.657L60.574 165.714L59.1939 165.021Z" fill="#333333"/>
<path d="M67.9529 156.854L70.4853 153.48L69.3469 157.537L67.9529 156.854Z" fill="#333333"/>
<path d="M54.5798 185.138L57.1123 181.77L55.9645 185.826L54.5798 185.138Z" fill="#333333"/>
<path d="M57.9207 178.064L60.4532 174.704L59.3101 178.761L57.9207 178.064Z" fill="#333333"/>
<path d="M61.2663 170.993L63.8034 167.634L62.651 171.676L61.2663 170.993Z" fill="#333333"/>
<path d="M64.612 163.923L67.1397 160.555L65.992 164.611L64.612 163.923Z" fill="#333333"/>
<path d="M64.2913 154.597C64.0218 154.769 63.7523 154.941 63.4968 155.103L62.0191 157.073L63.4038 157.761L64.2913 154.597Z" fill="#333333"/>
<path d="M52.4981 179.166L55.0352 175.802L53.8828 179.858L52.4981 179.166Z" fill="#333333"/>
<path d="M55.8437 172.096L58.3761 168.736L57.2284 172.784L55.8437 172.096Z" fill="#333333"/>
<path d="M50.4489 174.752C50.4489 173.916 50.4907 173.07 50.6348 172.192L51.7128 170.756L50.5604 174.803L50.4489 174.752Z" fill="#333333"/>
<path d="M53.985 165.743L56.5174 162.374L55.3744 166.431L53.985 165.743Z" fill="#333333"/>
<path d="M73.343 181.271C77.1904 181.29 80.7823 182.386 83.8305 184.222L80.1039 178.316L78.5054 175.742L74.435 169.297L61.3546 148.517C62.3536 146.886 62.888 145.371 63.2318 143.935L66.3405 143.001L86.5395 136.979L99.1413 133.229L103.351 131.956C103.491 132.453 103.667 132.992 103.89 133.55C111.167 136.682 107.858 141.668 111.408 147.945L98.4257 169.32L94.5364 175.728L93.3655 177.665L89.374 184.245C92.4222 182.372 96.0373 181.327 99.8847 181.345C111.148 181.345 120.246 190.504 120.223 201.772C120.223 208.436 86.9856 242.997 86.9856 242.997C86.9856 242.997 52.8651 209.476 52.9023 201.637C52.8976 190.36 62.0748 181.253 73.343 181.271Z" fill="#333333"/>
<path opacity="0.2" d="M99.1367 133.221L103.351 131.967C103.5 132.455 103.681 132.994 103.89 133.547C111.427 136.776 107.621 141.994 111.803 148.592C112.259 148.072 120.474 135.517 121.887 126.428L122.9 126.121C125.06 135.6 110.739 151.469 110.739 151.469C110.739 151.469 104.327 135.633 99.1367 133.221Z" fill="#616161"/>
<path opacity="0.2" d="M57.6931 145.599L58.7757 145.269L59.1056 145.176C60.0257 146.705 60.7459 147.825 61.0758 148.327C61.1874 148.48 61.2524 148.573 61.2849 148.605C62.3258 146.951 62.8787 145.399 63.2272 143.945L66.3312 143.011C64.0125 147.369 62.349 151.477 62.349 151.477C62.349 151.477 60.2069 149.07 57.6931 145.599Z" fill="#616161"/>
<path opacity="0.2" d="M78.5054 175.742L82.2971 172.912C83.5564 172.345 84.8899 172.048 86.27 172.048C86.3676 172.048 86.4652 172.071 86.5442 172.071C86.6418 172.071 86.7486 172.048 86.8276 172.048C88.1984 172.048 89.5366 172.345 90.8145 172.912L94.5411 175.723L93.3701 177.661C91.0514 176.504 87.7662 174.822 86.8276 174.822C86.7486 174.822 86.6418 174.84 86.5628 174.84C86.5628 174.84 86.5628 174.84 86.5442 174.84C86.4466 174.84 86.3676 174.822 86.27 174.822C85.4104 174.822 82.4319 176.778 80.1039 178.312L78.5054 175.742Z" fill="#616161"/>
<path d="M81.5491 216.807C83.7469 216.565 85.6056 215.218 86.5489 213.317C87.4968 215.218 89.3508 216.565 91.5487 216.807C96.9946 213.698 100.865 205.794 100.865 196.529C100.865 189.949 98.9183 184.067 95.8283 180.084C95.819 180.066 95.805 180.038 95.7865 180.015C95.7865 180.01 95.7865 180.01 95.7818 180.001C94.1927 177.98 92.3154 176.46 90.2569 175.605C89.0767 175.122 87.8453 174.857 86.5628 174.834C86.5582 174.834 86.5582 174.829 86.5535 174.829L86.5489 174.834C85.2618 174.857 84.0304 175.122 82.8501 175.605C80.7916 176.465 78.9191 177.98 77.3299 180.001C77.3252 180.01 77.3253 180.01 77.316 180.015C77.2974 180.033 77.2881 180.061 77.2741 180.084C74.1934 184.067 72.2418 189.949 72.2418 196.529C72.2325 205.794 76.1032 213.698 81.5491 216.807Z" fill="#FDD8AB"/>
<path d="M76.5213 218.352C76.5074 220.68 86.6464 230.638 86.6464 230.638C86.6464 230.638 96.5206 220.373 96.5252 218.384C96.5345 215.039 93.8255 212.32 90.4799 212.32C89.3322 212.311 88.2635 212.627 87.3527 213.185L85.7032 213.171C84.8017 212.627 83.7376 212.302 82.5945 212.302C79.2443 212.288 76.512 215.006 76.5213 218.352Z" fill="#333333"/>
<path d="M97.2687 197.78C97.3384 197.622 97.3709 197.45 97.3709 197.278C97.3709 196.172 96.0048 195.271 94.3181 195.271C92.636 195.271 91.2699 196.172 91.2699 197.278C91.2699 197.45 91.3117 197.622 91.3721 197.78H97.2687Z" fill="#333333"/>
<path d="M75.829 197.78C75.7593 197.622 75.7268 197.45 75.7268 197.278C75.7268 196.172 77.0929 195.271 78.7796 195.271C80.471 195.271 81.8371 196.172 81.8371 197.278C81.8371 197.45 81.7953 197.622 81.7349 197.78H75.829Z" fill="#333333"/>
<path d="M82.5667 182.757H86.5397H86.5582H90.5358C89.7319 181.692 88.2543 180.972 86.5582 180.954V180.944C86.5536 180.944 86.5536 180.944 86.5489 180.944L86.5443 180.954C84.839 180.972 83.3613 181.692 82.5667 182.757Z" fill="#454545"/>
<path d="M86.5489 182.968C88.3611 185.086 90.9354 182.405 90.9354 182.405H86.5629H86.5443H82.1671C82.1671 182.405 84.7414 185.086 86.5489 182.968Z" fill="#333333"/>
<path opacity="0.2" d="M86.5396 194.389V194.464L86.5489 194.427L86.5582 194.464V194.389L88.849 187.062H86.5582H86.5396H84.2441L86.5396 194.389Z" fill="#616161"/>
<path d="M82.1624 202.152L76.1032 201.831L76.0196 201.822L75.9731 201.771L73.5708 199.141L76.2333 201.515L76.1032 201.464L82.1671 201.162L82.1624 202.152Z" fill="#333333"/>
<path d="M90.4149 201.162L96.4742 201.464L96.344 201.515L99.0066 199.141L96.6043 201.771L96.5578 201.822L96.4742 201.831L90.4149 202.152V201.162Z" fill="#333333"/>
<path opacity="0.2" d="M82.3575 216.663C82.0927 216.733 81.8232 216.775 81.549 216.807C81.8232 216.775 82.0927 216.737 82.3575 216.663Z" fill="#616161"/>
<path opacity="0.2" d="M84.5079 215.691C84.4757 215.714 84.439 215.733 84.4068 215.756C84.439 215.733 84.4757 215.719 84.5079 215.691Z" fill="#616161"/>
<path d="M100.503 188.974C100.498 190.141 105.591 195.154 105.591 195.154C105.591 195.154 110.558 189.992 110.567 188.993C110.567 187.311 109.206 185.94 107.524 185.94C106.948 185.94 106.409 186.093 105.953 186.377L107.868 183.119L103.23 183.105L105.122 186.363C104.671 186.089 104.136 185.931 103.56 185.921C101.874 185.926 100.503 187.287 100.503 188.974Z" fill="#FFD675"/>
<path opacity="0.2" d="M106.125 184.112L105.544 185.107L104.964 184.112H106.125ZM106.474 187.226C106.771 187.035 107.129 186.937 107.505 186.937C108.068 186.937 108.583 187.151 108.969 187.537C109.355 187.918 109.568 188.434 109.568 188.987C109.383 189.461 107.464 191.7 105.572 193.726C103.621 191.733 101.665 189.498 101.488 188.875C101.502 188.424 101.716 187.909 102.101 187.528C102.487 187.142 103.003 186.928 103.556 186.928C103.932 186.928 104.299 187.03 104.611 187.221L106.474 187.226Z" fill="#616161"/>
<path d="M62.1121 188.974C62.1028 190.141 67.2002 195.154 67.2002 195.154C67.2002 195.154 72.1675 189.992 72.1768 188.993C72.1768 187.311 70.8153 185.94 69.1332 185.94C68.557 185.94 68.018 186.093 67.5673 186.377L69.4771 183.119L64.8397 183.105L66.7309 186.363C66.2802 186.089 65.7458 185.931 65.1696 185.921C63.4828 185.926 62.1121 187.287 62.1121 188.974Z" fill="#FFD675"/>
<path opacity="0.2" d="M67.7345 184.112L67.1491 185.107L66.5729 184.112H67.7345ZM68.0831 187.226C68.3804 187.035 68.7382 186.937 69.1053 186.937C69.6722 186.937 70.188 187.151 70.5737 187.537C70.9593 187.918 71.1731 188.434 71.1731 188.987C70.9872 189.461 69.0682 191.7 67.177 193.726C65.2254 191.733 63.2691 189.498 63.0925 188.875C63.1065 188.424 63.3202 187.909 63.7059 187.528C64.0916 187.142 64.6073 186.928 65.151 186.928C65.532 186.928 65.8945 187.03 66.2151 187.221L68.0831 187.226Z" fill="#616161"/>
<path opacity="0.2" d="M52.1821 160.81C52.5445 161.307 52.8791 161.786 53.2229 162.241C53.3437 162.399 53.4553 162.534 53.5714 162.678C53.7852 162.952 53.9989 163.235 54.208 163.491V163.505C52.0799 166.479 51.0158 169.42 50.6301 172.189C50.4907 173.068 50.4442 173.913 50.4442 174.75C50.4442 182.933 55.839 189.131 55.839 189.131H57.2191C54.524 192.584 52.893 196.91 52.893 201.626C52.8558 209.419 86.5349 242.549 86.9531 242.968V136.852L86.5349 136.977L66.3358 142.999L63.8359 143.752L63.2225 143.938C63.1714 144.128 63.1157 144.323 63.0599 144.509C63.0135 144.686 62.9763 144.862 62.9205 145.048C62.9205 145.048 62.9159 145.053 62.9159 145.062C62.5581 146.191 62.0562 147.367 61.2802 148.603C61.2802 148.603 61.2617 148.58 61.2477 148.566C61.2199 148.519 61.1641 148.459 61.0712 148.324C60.7412 147.822 60.0163 146.702 59.101 145.174H59.0917L59.0731 145.183L58.7664 145.271L58.3064 145.411L57.6744 145.597L46.0299 149.063C47.8746 153.868 50.0678 157.757 52.1821 160.81Z" fill="#616161"/>
<path d="M38.0422 56.6117C38.0562 54.2838 27.9171 44.3213 27.9171 44.3213C27.9171 44.3213 18.0337 54.5951 18.0337 56.5746C18.029 59.9295 20.7381 62.6477 24.079 62.6477C25.2267 62.6477 26.2908 62.3411 27.2016 61.7788L23.4052 68.2517L32.6196 68.2702L28.8511 61.7881C29.7572 62.3411 30.826 62.6617 31.969 62.6617C35.31 62.671 38.0422 59.962 38.0422 56.6117Z" fill="#333333"/>
<path opacity="0.2" d="M38.0422 56.6117C38.0562 54.2838 27.9171 44.3213 27.9171 44.3213C27.9171 44.3213 27.9078 44.3353 27.8986 44.3445V68.261L32.6242 68.2702L28.8558 61.7881C29.7619 62.3411 30.8306 62.6617 31.9737 62.6617C35.31 62.671 38.0422 59.962 38.0422 56.6117Z" fill="#616161"/>
<path d="M150.343 204.937C150.329 207.265 160.468 217.223 160.468 217.223C160.468 217.223 170.347 206.958 170.356 204.974C170.356 201.624 167.647 198.905 164.301 198.905C163.154 198.905 162.09 199.217 161.179 199.77L164.975 193.297L155.761 193.278L159.529 199.765C158.628 199.217 157.555 198.887 156.416 198.882C153.075 198.882 150.343 201.587 150.343 204.937Z" fill="#333333"/>
<path opacity="0.2" d="M150.343 204.938C150.329 207.266 160.468 217.223 160.468 217.223C160.468 217.223 160.477 217.209 160.487 217.205V193.288L155.761 193.274L159.529 199.761C158.628 199.213 157.555 198.883 156.416 198.878C153.075 198.883 150.343 201.587 150.343 204.938Z" fill="#616161"/>
</svg>
