<svg width="177" height="247" viewBox="0 0 177 247" fill="none" xmlns="http://www.w3.org/2000/svg">
<path d="M19.6433 246.684C9.23015 246.703 0.740707 238.381 0.838287 228.163L0.299286 18.9838C0.150593 8.69147 8.64466 0.322775 19.0811 0.350655L157.305 0.606188C167.709 0.624775 176.175 9.00274 176.296 19.2765V228.005C176.175 238.214 167.746 246.517 157.37 246.526L19.6433 246.684Z" fill="#C9C9C9"/>
<path d="M21.358 246.164C11.0935 246.164 2.72029 237.833 2.84575 227.587V18.9142C2.72494 8.68689 11.0935 0.355469 21.358 0.355469H157.575C167.84 0.355469 176.208 8.68689 176.329 18.9142V227.587C176.208 237.833 167.84 246.164 157.575 246.164H21.358Z" fill="white"/>
<path d="M147.324 222.433C147.324 221.717 147.506 220.973 147.863 220.202C148.398 219.05 149.341 217.795 150.689 216.452C151.827 215.318 152.728 214.519 153.384 214.073C154.448 213.358 155.554 212.995 156.683 212.995C157.635 212.995 158.495 213.195 159.243 213.622C160.117 214.106 160.539 214.756 160.539 215.565C160.539 216.108 160.001 217.08 158.909 218.45C157.821 219.83 157.05 220.518 156.567 220.518C156.19 220.518 155.981 220.374 155.981 220.091C155.981 219.798 156.297 219.254 156.924 218.474C157.217 218.111 157.352 217.837 157.352 217.619C157.194 217.303 157.022 217.056 156.841 216.903C156.302 216.42 155.568 216.178 154.634 216.178C153.825 216.178 153.091 216.424 152.436 216.931C151.655 217.54 151.26 218.357 151.26 219.38C151.26 220.142 151.469 220.806 151.873 221.415C152.203 221.88 152.622 222.233 153.128 222.493C153.788 222.809 154.485 222.981 155.21 223.009C155.944 223.009 156.297 223.171 156.297 223.483C156.297 223.627 155.856 224.263 154.949 225.369C154.252 226.243 153.579 227.177 152.924 228.208C153.123 228.399 153.281 228.501 153.411 228.501H157.542C157.714 228.501 158.081 228.283 158.62 227.855C159.159 227.418 159.526 227.2 159.722 227.2C160.075 227.2 160.261 227.335 160.261 227.609C160.261 227.753 160.052 228.064 159.619 228.552C159.206 229.04 158.593 229.677 157.807 230.476C156.901 231.368 156.339 231.912 156.102 232.093C155.637 232.446 155.27 232.637 155.001 232.637H148.114C148.063 232.581 148.017 232.539 147.994 232.493C147.97 232.465 147.956 232.349 147.956 232.167C147.956 231.661 148.57 230.778 149.815 229.551C151.056 228.324 151.678 227.493 151.678 227.019C151.678 226.912 151.176 226.684 150.196 226.312C149.522 226.066 148.955 225.732 148.495 225.313C148.138 224.97 147.845 224.561 147.622 224.077C147.431 223.594 147.324 223.041 147.324 222.433Z" fill="#333333"/>
<path d="M34.8379 26.377C34.8379 27.1019 34.6567 27.8453 34.2989 28.6166C33.7645 29.769 32.8212 31.0236 31.4737 32.3758C30.3353 33.5002 29.4385 34.2902 28.7787 34.7362C27.71 35.4611 26.6086 35.805 25.4795 35.805C24.5269 35.805 23.6673 35.6145 22.9192 35.1963C22.0456 34.7084 21.6228 34.0625 21.6228 33.254C21.6228 32.701 22.1618 31.7299 23.2492 30.3591C24.3365 28.9884 25.1078 28.2913 25.5911 28.2913C25.9814 28.2913 26.1766 28.4354 26.1766 28.7281C26.1766 29.0208 25.8745 29.5553 25.2333 30.3452C24.9406 30.7077 24.8058 30.9818 24.8058 31.1816C24.9637 31.4976 25.1357 31.7439 25.3076 31.9065C25.8559 32.3944 26.59 32.6406 27.524 32.6406C28.3325 32.6406 29.0668 32.3758 29.722 31.8879C30.5026 31.2699 30.9069 30.4428 30.9069 29.4391C30.9069 28.6771 30.6885 27.9939 30.2843 27.4038C29.9683 26.9298 29.536 26.5767 29.0296 26.3211C28.3697 26.0051 27.6727 25.8333 26.9479 25.8147C26.2137 25.7868 25.8605 25.6334 25.8605 25.3268C25.8605 25.1827 26.302 24.5554 27.2081 23.4402C27.9051 22.5759 28.5789 21.6233 29.234 20.615C29.0342 20.4152 28.8669 20.3176 28.7461 20.3176H24.6153C24.4434 20.3176 24.0762 20.5267 23.5372 20.9542C22.9982 21.3817 22.6311 21.6001 22.4359 21.6001C22.0828 21.6001 21.8969 21.4747 21.8969 21.2005C21.8969 21.0565 22.106 20.7451 22.5382 20.2572C22.9517 19.7693 23.5651 19.1327 24.3504 18.3335C25.2565 17.4367 25.8188 16.8977 26.0558 16.7165C26.5204 16.3634 26.8874 16.1914 27.1662 16.1914H34.0387C34.0898 16.2379 34.1363 16.2889 34.1595 16.3261C34.1827 16.354 34.1967 16.4517 34.1967 16.6422C34.1967 17.1673 33.5833 18.0408 32.338 19.2629C31.0974 20.471 30.4747 21.3213 30.4747 21.7953C30.4747 21.8928 30.9626 22.1299 31.9709 22.4924C32.6307 22.7386 33.1976 23.0638 33.6577 23.482C34.0154 23.8259 34.3083 24.2442 34.5313 24.7367C34.7265 25.2153 34.8379 25.759 34.8379 26.377Z" fill="#333333"/>
<path d="M78.7493 34.6039C78.5913 33.8604 78.4797 33.1076 78.5029 32.3177C78.4797 26.6534 83.0939 22.0811 88.7442 22.0811C94.3946 22.0996 98.9761 26.6534 98.9854 32.3177C98.9854 33.5444 98.7671 34.706 98.3629 35.7747C103.358 36.1651 107.28 40.3378 107.294 45.4305C107.28 50.7649 102.944 55.0863 97.6008 55.1049C96.1789 55.1049 91.1186 53.5343 90.0406 52.8791L96.5971 64.1333L80.6079 64.1241L87.1783 52.8791C85.8679 53.6876 80.2779 55.0863 78.9211 55.0863C73.2475 55.0863 68.666 50.5048 68.68 44.8405C68.666 39.2505 73.1733 34.7061 78.7493 34.6039Z" fill="#333333"/>
<path opacity="0.2" d="M78.7493 34.6039C78.5913 33.8604 78.4797 33.1076 78.5029 32.3177C78.4797 26.6534 83.0939 22.0811 88.7442 22.0811C88.7442 22.0811 88.7721 22.0811 88.7814 22.0811V64.138L80.6079 64.1288L87.1783 52.8838C85.8679 53.6923 80.2779 55.091 78.9211 55.091C73.2475 55.091 68.666 50.5093 68.68 44.845C68.666 39.2504 73.1733 34.7061 78.7493 34.6039Z" fill="#616161"/>
<path d="M78.7489 115.008C78.5909 114.265 78.4793 113.512 78.5026 112.722C78.4793 107.067 83.0935 102.485 88.7439 102.485C94.3942 102.504 98.9757 107.058 98.985 112.722C98.985 113.949 98.7668 115.11 98.3625 116.179C103.358 116.579 107.279 120.742 107.293 125.825C107.279 131.169 102.944 135.491 97.6004 135.509C96.1786 135.518 91.1183 133.92 90.0403 133.302L96.5968 144.528L80.6075 144.519L87.1779 133.283C85.8676 134.083 80.2776 135.491 78.9208 135.491C73.2472 135.491 68.6657 130.9 68.6796 125.245C68.6657 119.636 73.1729 115.096 78.7489 115.008Z" fill="#333333"/>
<path opacity="0.2" d="M78.7489 115.008C78.5909 114.265 78.4793 113.512 78.5026 112.722C78.4793 107.067 83.0935 102.485 88.7439 102.485C88.7439 102.485 88.7717 102.504 88.781 102.504V144.533L80.6075 144.524L87.1779 133.288C85.8676 134.087 80.2776 135.495 78.9208 135.495C73.2472 135.495 68.6657 130.904 68.6796 125.249C68.6657 119.636 73.1729 115.096 78.7489 115.008Z" fill="#616161"/>
<path d="M80.357 210.055C80.199 210.808 80.0828 211.552 80.1107 212.351C80.0828 218.015 84.7016 222.597 90.352 222.578C96.0023 222.569 100.579 218.015 100.593 212.351C100.593 211.124 100.37 209.953 99.9798 208.884C104.966 208.503 108.887 204.321 108.901 199.247C108.887 193.904 104.552 189.573 99.2084 189.564C97.7865 189.564 92.7264 191.143 91.6483 191.78L98.2047 180.535L82.2248 180.544L88.7767 191.78C87.4663 190.99 81.881 189.592 80.5195 189.573C74.8599 189.573 70.269 194.173 70.2783 199.828C70.2737 205.427 74.7763 209.976 80.357 210.055Z" fill="#333333"/>
<path opacity="0.2" d="M80.3571 210.055C80.1991 210.808 80.0829 211.551 80.1107 212.351C80.0829 218.015 84.7017 222.597 90.352 222.578C90.366 222.578 90.3753 222.578 90.3892 222.578V180.53L82.2296 180.54L88.7814 191.775C87.4711 190.985 81.8857 189.587 80.5243 189.568C74.8646 189.568 70.2738 194.168 70.2831 199.823C70.2738 205.427 74.7764 209.976 80.3571 210.055Z" fill="#616161"/>
<path d="M29.0668 47.145C29.1086 46.973 29.1319 46.801 29.1319 46.6105C29.1319 45.3327 28.0771 44.2779 26.79 44.2872C25.4936 44.2872 24.4528 45.3327 24.4528 46.6105C24.4528 46.9032 24.4992 47.1541 24.5828 47.4097C23.4444 47.4934 22.5476 48.446 22.5476 49.6077C22.5476 50.8344 23.542 51.8241 24.7687 51.8241C25.0847 51.8241 26.237 51.4709 26.4833 51.3176L24.9871 53.8872H28.6394L27.1478 51.3176C27.4405 51.4895 28.7137 51.8241 29.0297 51.8241C30.3168 51.8241 31.3716 50.7693 31.3716 49.4728C31.3716 48.1997 30.34 47.1543 29.0668 47.145Z" fill="#333333"/>
<path opacity="0.2" d="M29.0669 47.145C29.1087 46.973 29.132 46.801 29.132 46.6105C29.132 45.3327 28.0772 44.2779 26.7901 44.2872H26.7809V53.8779H28.6395L27.1479 51.3084C27.4406 51.4803 28.7138 51.8147 29.0298 51.8147C30.3169 51.8147 31.3717 50.76 31.3717 49.4636C31.3717 48.1997 30.3401 47.1543 29.0669 47.145Z" fill="#616161"/>
<path d="M155.935 202.161C155.972 202.333 155.995 202.505 155.995 202.677C155.995 203.973 154.94 205.009 153.658 205.009C152.362 205.009 151.316 203.973 151.316 202.677C151.316 202.403 151.367 202.133 151.46 201.887C150.322 201.794 149.42 200.841 149.42 199.68C149.42 198.462 150.41 197.473 151.627 197.473C151.953 197.473 153.105 197.826 153.365 197.974L151.86 195.414H155.507L154.016 197.974C154.313 197.793 155.596 197.473 155.902 197.473C157.199 197.473 158.244 198.527 158.244 199.814C158.24 201.106 157.213 202.133 155.935 202.161Z" fill="#333333"/>
<path opacity="0.2" d="M155.935 202.161C155.972 202.333 155.995 202.505 155.995 202.677C155.995 203.973 154.94 205.01 153.658 205.01H153.644V195.419H155.503L154.011 197.979C154.308 197.798 155.591 197.477 155.898 197.477C157.194 197.477 158.24 198.532 158.24 199.819C158.24 201.106 157.213 202.133 155.935 202.161Z" fill="#616161"/>
</svg>
