<svg width="183" height="256" viewBox="0 0 183 256" fill="none" xmlns="http://www.w3.org/2000/svg">
<path d="M20.9272 255.097C10.1702 255.111 1.38335 246.51 1.35083 235.93L0.797857 19.511C0.769977 8.85155 9.54288 0.204099 20.3557 0.222686L163.366 0.487542C174.133 0.506129 182.896 9.17219 182.896 19.8038V235.753C182.896 246.31 174.17 254.916 163.436 254.92L20.9272 255.097Z" fill="#C9C9C9"/>
<path d="M22.7116 254.557C12.0847 254.557 3.43256 245.938 3.43256 235.348V19.4359C3.43256 8.84614 12.0847 0.226562 22.7116 0.226562H163.65C174.272 0.226562 182.915 8.8415 182.915 19.4359V235.348C182.915 245.933 174.272 254.557 163.65 254.557H22.7116Z" fill="white"/>
<path d="M153.171 220.211H159.119V229.983H162.748C162.948 229.741 163.19 229.109 163.441 228.087C164.054 225.591 164.802 223.57 165.671 222.032C166.033 221.382 166.447 220.856 166.93 220.471C167.52 219.983 168.143 219.741 168.807 219.741C169.24 219.741 169.732 219.895 170.257 220.215C170.908 220.61 171.233 221.075 171.233 221.614C171.233 221.874 171.126 222.097 170.94 222.274C170.736 222.446 170.527 222.543 170.299 222.543C169.76 222.543 169.481 222.241 169.425 221.642C169.407 221.047 169.17 220.754 168.742 220.754C167.729 220.754 167.056 221.265 166.679 222.288C166.442 222.961 166.308 223.933 166.308 225.22C166.308 225.986 166.354 226.86 166.442 227.845C166.526 228.835 166.605 229.871 166.698 230.968C166.698 232.236 166.452 233.402 165.95 234.462C165.536 235.335 164.904 236.237 164.031 237.171C163.51 237.728 162.678 238.5 161.545 239.485L161.735 239.792H166.986C167.321 239.792 167.627 239.754 167.897 239.685C168.445 239.513 168.979 239.341 169.509 239.174V239.485C169.267 239.857 169.105 240.135 168.989 240.293C168.64 240.856 168.422 241.139 168.357 241.139C168.301 241.139 168.162 241.079 167.943 240.967C167.706 240.856 167.492 240.8 167.283 240.8H153.162V220.211H153.171ZM159.305 231.521V239.387C159.849 239.239 160.397 238.676 160.941 237.682C161.14 237.324 161.373 236.818 161.633 236.153C161.814 235.665 161.981 235.108 162.126 234.476C162.451 233.133 162.618 232.45 162.627 232.413V231.525H159.305V231.521Z" fill="#333333"/>
<path d="M36.4983 36.9515H30.5645V27.1796H26.9308C26.7264 27.4212 26.4847 28.0531 26.2198 29.0847C25.6204 31.5753 24.8723 33.5967 23.9987 35.144C23.6363 35.7945 23.2274 36.3103 22.7442 36.7053C22.1401 37.1885 21.5267 37.4301 20.8762 37.4301C20.4301 37.4301 19.9469 37.2675 19.4171 36.9515C18.7666 36.5658 18.4367 36.1012 18.4367 35.5575C18.4367 35.2926 18.5343 35.0743 18.7388 34.8977C18.9339 34.7165 19.1383 34.6375 19.3706 34.6375C19.9096 34.6375 20.1885 34.9303 20.2349 35.525C20.2721 36.1152 20.4998 36.4171 20.9226 36.4171C21.9356 36.4171 22.6279 35.9014 22.9857 34.8791C23.2367 34.21 23.3575 33.2296 23.3575 31.9471C23.3575 31.1897 23.3111 30.3161 23.2228 29.3217C23.1391 28.3412 23.0555 27.2911 22.9579 26.1991C22.9579 24.926 23.2135 23.7689 23.7153 22.7095C24.1242 21.8359 24.7654 20.9298 25.6344 20.0051C26.1548 19.4382 26.9959 18.6715 28.1204 17.6865L27.9298 17.3751H22.6838C22.3446 17.3751 22.0425 17.4123 21.7637 17.4913C21.22 17.6632 20.6903 17.8212 20.1699 17.9931V17.6865C20.3883 17.3147 20.5556 17.0406 20.6671 16.8733C21.0295 16.3157 21.2433 16.0322 21.3176 16.0322C21.3687 16.0322 21.5128 16.0926 21.7405 16.2042C21.9542 16.3203 22.1633 16.3761 22.3817 16.3761H36.4937L36.4983 36.9515ZM30.3693 25.6508V17.7747C29.8257 17.9234 29.282 18.4949 28.7569 19.48C28.5339 19.8378 28.3108 20.349 28.0553 21.0181C27.8648 21.5013 27.6928 22.0636 27.5348 22.6909C27.2328 24.0384 27.0655 24.7168 27.0423 24.754V25.6508H30.3693Z" fill="#333333"/>
<path d="M133.832 118.926C132.745 138.967 92.5464 169.44 92.5464 169.44C92.5464 169.44 51.1957 138.74 51.1957 118.666C51.1957 104.856 62.5012 93.7041 76.3018 93.7041C84.057 93.7041 92.6952 100.693 92.6952 100.693C92.6952 100.693 100.901 93.7041 108.87 93.8295C122.694 93.9922 134.552 105.093 133.832 118.926Z" fill="#D66142"/>
<path opacity="0.2" d="M108.866 93.8239C100.892 93.6985 92.6905 100.687 92.6905 100.687C92.6905 100.687 92.5743 100.603 92.4163 100.473V169.351C92.5046 169.416 92.5464 169.435 92.5464 169.435C92.5464 169.435 132.74 138.966 133.832 118.921C134.552 105.092 122.694 93.9912 108.866 93.8239Z" fill="#616161"/>
<path d="M34.4399 49.6868C34.268 52.7536 28.1298 57.4096 28.1298 57.4096C28.1298 57.4096 21.8056 52.7164 21.8056 49.645C21.8056 47.5308 23.5342 45.8301 25.6438 45.8301C26.824 45.8301 28.1436 46.8942 28.1436 46.8942C28.1436 46.8942 29.3983 45.8301 30.6296 45.8487C32.7346 45.8766 34.5468 47.5726 34.4399 49.6868Z" fill="#D66142"/>
<path opacity="0.2" d="M30.6296 45.8528C29.3982 45.8342 28.1436 46.8983 28.1436 46.8983C28.1436 46.8983 28.1297 46.8936 28.1064 46.8704V57.409C28.1204 57.4183 28.1297 57.4183 28.1297 57.4183C28.1297 57.4183 34.268 52.7624 34.4399 49.6956C34.5468 47.572 32.7345 45.876 30.6296 45.8528Z" fill="#616161"/>
<path d="M152.712 208.263C152.879 205.131 159.166 200.373 159.166 200.373C159.166 200.373 165.611 205.159 165.611 208.31C165.611 210.456 163.84 212.194 161.698 212.194C160.481 212.194 159.129 211.112 159.129 211.112C159.129 211.112 157.851 212.194 156.605 212.18C154.449 212.148 152.605 210.414 152.712 208.263Z" fill="#D66142"/>
<path opacity="0.2" d="M156.605 212.181C157.851 212.195 159.129 211.112 159.129 211.112C159.129 211.112 159.138 211.121 159.175 211.145V200.397C159.166 200.387 159.166 200.383 159.166 200.383C159.166 200.383 152.879 205.136 152.712 208.273C152.605 210.415 154.449 212.148 156.605 212.181Z" fill="#616161"/>
</svg>
