<svg width="183" height="256" viewBox="0 0 183 256" fill="none" xmlns="http://www.w3.org/2000/svg">
<path d="M20.9227 255.032C10.1564 255.046 1.36955 246.44 1.34632 235.86L0.788742 19.4457C0.765509 8.79555 9.53377 0.143553 20.3373 0.162139L163.357 0.43164C174.119 0.450226 182.878 9.11625 182.878 19.7385V235.692C182.878 246.25 174.156 254.855 163.431 254.869L20.9227 255.032Z" fill="#C9C9C9"/>
<path d="M22.7024 254.488C12.0755 254.488 3.42798 245.873 3.42798 235.279V19.376C3.42798 8.7863 12.0801 0.162109 22.7024 0.162109H163.64C174.272 0.162109 182.915 8.78165 182.915 19.376V235.283C182.915 245.873 174.272 254.493 163.64 254.493H22.7024V254.488Z" fill="white"/>
<path d="M153.167 220.146H159.115V229.923H162.739C162.943 229.672 163.176 229.04 163.441 228.022C164.054 225.532 164.797 223.511 165.671 221.968C166.024 221.308 166.438 220.788 166.926 220.402C167.52 219.914 168.143 219.682 168.789 219.682C169.244 219.682 169.728 219.83 170.248 220.151C170.899 220.541 171.219 221.015 171.219 221.55C171.219 221.814 171.126 222.028 170.922 222.209C170.731 222.386 170.522 222.47 170.299 222.47C169.76 222.47 169.467 222.186 169.435 221.587C169.402 220.987 169.165 220.69 168.733 220.69C167.73 220.69 167.042 221.201 166.675 222.223C166.438 222.902 166.308 223.868 166.308 225.16C166.308 225.927 166.35 226.796 166.438 227.786C166.521 228.766 166.61 229.811 166.703 230.913C166.703 232.172 166.456 233.334 165.95 234.402C165.536 235.276 164.9 236.177 164.026 237.102C163.506 237.664 162.674 238.44 161.54 239.43L161.731 239.732H166.986C167.316 239.732 167.627 239.695 167.902 239.63C168.445 239.453 168.98 239.291 169.495 239.119V239.43C169.272 239.802 169.105 240.076 168.998 240.239C168.645 240.801 168.431 241.089 168.357 241.089C168.296 241.089 168.157 241.024 167.939 240.917C167.711 240.801 167.493 240.745 167.288 240.745H153.162V220.146H153.167ZM159.31 231.452V239.323C159.844 239.174 160.383 238.607 160.932 237.622C161.131 237.265 161.373 236.758 161.624 236.084C161.81 235.601 161.972 235.039 162.126 234.416C162.442 233.073 162.609 232.381 162.623 232.349V231.456H159.31V231.452Z" fill="#333333"/>
<path d="M29.2356 58.0121L23.6968 51.0235L29.2356 44.0303L34.7698 51.0235L29.2356 58.0121Z" fill="#D66142"/>
<path opacity="0.2" d="M29.2356 44.0303L29.1845 44.086V57.9564L29.2356 58.0121L34.7699 51.0235L29.2356 44.0303Z" fill="#616161"/>
<path d="M36.5031 36.8922H30.5507V27.1156H26.9263C26.7219 27.3573 26.4942 27.9892 26.2293 29.0161C25.6113 31.5114 24.8725 33.5326 23.9989 35.0706C23.6457 35.7304 23.2276 36.2463 22.7443 36.6412C22.1496 37.1199 21.5222 37.3662 20.8764 37.3662C20.4303 37.3662 19.9424 37.2082 19.4266 36.8876C18.7761 36.4926 18.4462 36.0326 18.4462 35.4889C18.4462 35.2287 18.5437 35.0057 18.7435 34.8291C18.934 34.6618 19.1432 34.5642 19.3662 34.5642C19.9099 34.5642 20.1979 34.8662 20.2351 35.461C20.2723 36.0558 20.5047 36.3486 20.9322 36.3486C21.9405 36.3486 22.6235 35.8373 22.9953 34.8104C23.2369 34.1413 23.3623 33.1656 23.3623 31.8784C23.3623 31.1257 23.3205 30.2382 23.2368 29.2577C23.1532 28.268 23.0603 27.2318 22.972 26.1305C22.972 24.862 23.2183 23.7003 23.7248 22.6408C24.1337 21.7626 24.7749 20.8658 25.6485 19.9318C26.1689 19.3788 27.0006 18.6076 28.1344 17.6178L27.9393 17.3111H22.6885C22.3586 17.3111 22.052 17.353 21.7685 17.4227C21.2249 17.59 20.6998 17.7572 20.1794 17.9199V17.6178C20.4024 17.2461 20.5744 16.9765 20.6812 16.8046C21.039 16.247 21.2481 15.959 21.3225 15.959C21.3829 15.959 21.5222 16.0194 21.7453 16.1355C21.9683 16.2517 22.182 16.2982 22.3865 16.2982H36.5124V36.8922H36.5031ZM30.3602 25.5868V17.7154C29.8212 17.8641 29.2776 18.431 28.7432 19.416C28.5387 19.7692 28.3018 20.2896 28.0415 20.9587C27.851 21.4374 27.693 21.995 27.5397 22.6223C27.2191 23.9651 27.0564 24.6576 27.0425 24.6947V25.5822H30.3602V25.5868Z" fill="#333333"/>
<path d="M160.439 199.03L165.969 206.014L160.439 213.003L154.9 206.014L160.439 199.03Z" fill="#D66142"/>
<path opacity="0.2" d="M160.476 199.077L160.439 199.03L154.9 206.014L160.439 213.003L160.476 212.952V199.077Z" fill="#616161"/>
<path d="M93.1646 79.3291L55.1595 127.315L93.1646 175.32L131.184 127.315L93.1646 79.3291Z" fill="#D66142"/>
<path opacity="0.2" d="M92.9182 79.645L93.1645 79.3291L131.184 127.315L93.1645 175.32L92.9182 175.018V79.645Z" fill="#616161"/>
</svg>
