<svg width="186" height="260" viewBox="0 0 186 260" fill="none" xmlns="http://www.w3.org/2000/svg">
<path d="M21.2791 259.659C10.3455 259.673 1.41464 250.942 1.3914 240.194L0.829147 20.3792C0.805914 9.56174 9.71827 0.784177 20.6844 0.802764L165.934 1.07228C176.873 1.09087 185.766 9.89164 185.766 20.6858V240.018C185.766 250.742 176.905 259.478 166.009 259.487L21.2791 259.659Z" fill="#C9C9C9"/>
<path d="M23.0867 259.11C12.2925 259.11 3.51025 250.361 3.51025 239.604V20.3182C3.51025 9.56119 12.2925 0.811523 23.0867 0.811523H166.223C177.021 0.811523 185.804 9.55654 185.804 20.3182V239.604C185.804 250.361 177.021 259.11 166.223 259.11H23.0867Z" fill="white"/>
<path d="M26.4881 17.476C26.1303 18.1172 25.8003 18.7352 25.4983 19.3393C24.8199 20.7008 24.2577 21.8578 23.8256 22.829C23.3144 23.9349 22.8451 24.9943 22.4361 26.0026C21.8274 27.4477 21.53 28.1866 21.53 28.2098C21.1955 28.9068 20.7215 29.7804 20.1081 30.8444C19.374 32.1083 18.7885 33.0237 18.3517 33.5906C17.6129 34.5385 16.8741 35.3657 16.1121 36.0813C15.2571 36.8758 14.3044 37.5821 13.2775 38.2094C13.1985 38.163 13.1289 38.1211 13.0592 38.0654C12.9987 38.0096 12.9569 37.926 12.9569 37.8052C12.9569 37.6565 13.3984 37.0338 14.2626 35.9418C14.811 35.2588 15.2106 34.7151 15.4523 34.2969C15.7961 33.744 16.1214 33.126 16.4327 32.429C16.744 31.732 17.0693 31.0024 17.3899 30.245C18.2356 28.5118 18.9512 26.8994 19.5413 25.4311C19.8991 24.525 20.2569 23.5074 20.6193 22.3782C20.6193 21.9972 19.295 21.8113 16.6511 21.8113C16.2886 21.8113 15.8983 21.8717 15.4894 21.9972C15.0666 22.1134 14.6809 22.3318 14.3277 22.6338H13.561V22.039C14.7877 20.3012 15.9679 19.0837 17.1017 18.3774C17.9846 17.8338 18.9512 17.555 19.9642 17.555C20.2662 17.555 20.7448 17.5922 21.3861 17.6712C22.0273 17.7455 22.5105 17.7873 22.859 17.7873C23.3423 17.7641 23.7326 17.7455 24.016 17.7269C24.8896 17.634 25.5261 17.4202 25.9165 17.0996H26.3997L26.4881 17.476Z" fill="#333333"/>
<path d="M164.043 244.885C164.392 244.239 164.726 243.611 165.033 243.012C165.716 241.655 166.274 240.489 166.706 239.522C167.208 238.407 167.677 237.352 168.091 236.358C168.704 234.899 168.997 234.165 168.997 234.141C169.341 233.454 169.815 232.571 170.419 231.507C171.157 230.243 171.738 229.327 172.18 228.765C172.914 227.822 173.662 226.99 174.415 226.275C175.265 225.48 176.213 224.769 177.249 224.146C177.328 224.184 177.393 224.23 177.458 224.291C177.528 224.342 177.556 224.439 177.556 224.541C177.556 224.695 177.119 225.317 176.259 226.409C175.706 227.092 175.316 227.641 175.065 228.054C174.726 228.607 174.392 229.221 174.085 229.918C173.774 230.624 173.453 231.353 173.132 232.097C172.277 233.839 171.566 235.443 170.981 236.916C170.623 237.831 170.261 238.849 169.903 239.978C169.903 240.359 171.227 240.54 173.876 240.54C174.233 240.54 174.619 240.48 175.042 240.359C175.451 240.238 175.846 240.024 176.204 239.722H176.961V240.317C175.734 242.059 174.554 243.272 173.425 243.983C172.537 244.527 171.58 244.796 170.558 244.796C170.256 244.796 169.782 244.759 169.141 244.685C168.499 244.606 168.012 244.573 167.668 244.573C167.18 244.592 166.794 244.61 166.506 244.624C165.637 244.722 165.005 244.931 164.606 245.252H164.122L164.043 244.885Z" fill="#333333"/>
<path d="M139.235 35.4237C139.407 34.6059 139.519 33.7834 139.514 32.9145C139.523 26.7344 134.495 21.7346 128.325 21.7393C122.145 21.7486 117.136 26.7344 117.136 32.9145C117.136 34.2481 117.377 35.5259 117.814 36.7015C112.359 37.1197 108.07 41.6781 108.061 47.2355C108.07 53.081 112.81 57.7974 118.646 57.8114C120.198 57.8114 125.722 56.0967 126.903 55.3951L119.747 67.6762L137.204 67.6623L130.039 55.3951C131.466 56.264 137.572 57.7974 139.054 57.7974C145.248 57.7974 150.252 52.779 150.238 46.5989C150.252 40.4839 145.332 35.5213 139.235 35.4237Z" fill="#333333"/>
<path opacity="0.2" d="M139.235 35.4237C139.407 34.6059 139.519 33.7834 139.514 32.9145C139.523 26.7344 134.496 21.7346 128.325 21.7393C128.311 21.7393 128.292 21.7485 128.274 21.7485V67.6716L137.205 67.6623L130.039 55.3951C131.466 56.264 137.572 57.7974 139.054 57.7974C145.248 57.7974 150.252 52.779 150.238 46.5989C150.252 40.4839 145.332 35.5213 139.235 35.4237Z" fill="#616161"/>
<path d="M139.235 122.882C139.407 122.064 139.518 121.241 139.514 120.372C139.523 114.197 134.495 109.193 128.324 109.197C122.144 109.211 117.135 114.192 117.135 120.372C117.135 121.706 117.377 122.984 117.814 124.155C112.358 124.582 108.07 129.136 108.06 134.689C108.07 140.53 112.809 145.251 118.645 145.26C120.197 145.265 125.722 143.545 126.903 142.848L119.747 155.125L137.204 155.111L130.039 142.844C131.466 143.713 137.571 145.246 139.054 145.246C145.248 145.251 150.252 140.228 150.238 134.048C150.252 127.942 145.331 122.979 139.235 122.882Z" fill="#333333"/>
<path opacity="0.2" d="M139.235 122.882C139.407 122.064 139.518 121.241 139.514 120.372C139.523 114.197 134.495 109.193 128.324 109.197C128.311 109.197 128.292 109.207 128.273 109.207V155.125L137.204 155.116L130.039 142.848C131.466 143.717 137.571 145.251 139.054 145.251C145.248 145.255 150.252 140.232 150.238 134.052C150.252 127.942 145.331 122.979 139.235 122.882Z" fill="#616161"/>
<path d="M103.795 79.4725C103.967 78.6547 104.088 77.8322 104.064 76.9633C104.088 70.7879 99.0599 65.7834 92.8845 65.7881C86.7044 65.7974 81.7046 70.7832 81.6907 76.9633C81.6907 78.3062 81.9323 79.5701 82.3691 80.7411C76.9185 81.1686 72.6295 85.7223 72.6202 91.2704C72.6249 97.1159 77.3692 101.837 83.2101 101.842C84.7574 101.851 90.2869 100.127 91.4671 99.4346L84.2973 111.711L101.76 111.697L94.5898 99.4253C96.021 100.299 102.131 101.828 103.614 101.828C109.808 101.832 114.817 96.8139 114.803 90.6292C114.812 84.5327 109.891 79.5608 103.795 79.4725Z" fill="#333333"/>
<path opacity="0.2" d="M103.795 79.4725C103.967 78.6547 104.088 77.8322 104.064 76.9633C104.088 70.7879 99.0599 65.7834 92.8844 65.7881C92.8705 65.7881 92.8518 65.7927 92.8333 65.7927V111.706L101.76 111.702L94.5898 99.4299C96.021 100.304 102.131 101.832 103.614 101.832C109.808 101.837 114.817 96.8185 114.803 90.6338C114.812 84.5327 109.891 79.5608 103.795 79.4725Z" fill="#616161"/>
<path d="M50.0699 35.4237C49.9073 34.6059 49.7911 33.7834 49.7958 32.9145C49.7865 26.7344 54.8095 21.7346 60.9849 21.7393C67.1696 21.7486 72.1648 26.7344 72.1648 32.9145C72.1648 34.2481 71.9325 35.5259 71.505 36.7015C76.9416 37.1197 81.2398 41.6781 81.2491 47.2355C81.2398 53.081 76.4908 57.7974 70.6593 57.8114C69.1119 57.8114 63.5824 56.0967 62.4068 55.3951L69.5627 67.6762L52.1144 67.6623L59.2703 55.3951C57.8438 56.264 51.7427 57.7974 50.2558 57.7974C44.0664 57.7974 39.0527 52.779 39.0667 46.5989C39.0527 40.4839 43.9781 35.5213 50.0699 35.4237Z" fill="#333333"/>
<path opacity="0.2" d="M50.0699 35.4237C49.9073 34.6059 49.7911 33.7834 49.7958 32.9145C49.7865 26.7344 54.8095 21.7346 60.9849 21.7393C61.0035 21.7393 61.0128 21.7485 61.0314 21.7485V67.6716L52.1144 67.6623L59.2703 55.3951C57.8438 56.264 51.7427 57.7974 50.2558 57.7974C44.0664 57.7974 39.0527 52.779 39.0667 46.5989C39.0527 40.4839 43.9781 35.5213 50.0699 35.4237Z" fill="#616161"/>
<path d="M50.0699 122.882C49.9073 122.064 49.7911 121.241 49.7958 120.372C49.7865 114.197 54.8095 109.193 60.9849 109.197C67.1696 109.211 72.1648 114.192 72.1648 120.372C72.1648 121.706 71.9325 122.984 71.505 124.155C76.9416 124.582 81.2398 129.136 81.2491 134.689C81.2398 140.53 76.4908 145.251 70.6593 145.26C69.1119 145.265 63.5824 143.545 62.4068 142.848L69.5627 155.125L52.1144 155.111L59.2703 142.844C57.8438 143.713 51.7427 145.246 50.2558 145.246C44.0664 145.251 39.0527 140.228 39.0667 134.048C39.0527 127.942 43.9781 122.979 50.0699 122.882Z" fill="#333333"/>
<path opacity="0.2" d="M50.0699 122.882C49.9073 122.064 49.7911 121.241 49.7958 120.372C49.7865 114.197 54.8095 109.193 60.9849 109.197C61.0035 109.197 61.0128 109.207 61.0314 109.207V155.125L52.1144 155.116L59.2703 142.848C57.8438 143.717 51.7427 145.251 50.2558 145.251C44.0664 145.255 39.0527 140.232 39.0667 134.052C39.0527 127.942 43.9781 122.979 50.0699 122.882Z" fill="#616161"/>
<path d="M139.235 224.499C139.407 225.312 139.518 226.134 139.514 227.003C139.523 233.179 134.495 238.183 128.324 238.178C122.144 238.164 117.135 233.188 117.135 227.003C117.135 225.665 117.377 224.392 117.814 223.216C112.358 222.798 108.07 218.244 108.06 212.687C108.07 206.841 112.809 202.12 118.645 202.116C120.197 202.102 125.722 203.83 126.903 204.532L119.747 192.246L137.204 192.26L130.039 204.537C131.466 203.663 137.571 202.134 139.054 202.134C145.248 202.125 150.252 207.148 150.238 213.333C150.252 219.434 145.331 224.396 139.235 224.499Z" fill="#333333"/>
<path opacity="0.2" d="M139.235 224.498C139.407 225.311 139.518 226.134 139.514 227.003C139.523 233.178 134.495 238.183 128.324 238.178C128.311 238.178 128.292 238.173 128.273 238.173V192.255L137.204 192.26L130.039 204.536C131.466 203.662 137.571 202.134 139.054 202.134C145.248 202.124 150.252 207.147 150.238 213.332C150.252 219.433 145.331 224.396 139.235 224.498Z" fill="#616161"/>
<path d="M50.0699 224.499C49.9073 225.312 49.7911 226.134 49.7958 227.003C49.7865 233.179 54.8095 238.183 60.9849 238.178C67.1696 238.164 72.1648 233.188 72.1648 227.003C72.1648 225.665 71.9325 224.392 71.505 223.216C76.9416 222.798 81.2398 218.244 81.2491 212.687C81.2398 206.841 76.4908 202.12 70.6593 202.116C69.1119 202.102 63.5824 203.83 62.4068 204.532L69.5627 192.246L52.1144 192.26L59.2703 204.537C57.8438 203.663 51.7427 202.134 50.2558 202.134C44.0664 202.125 39.0527 207.148 39.0667 213.333C39.0527 219.434 43.9781 224.396 50.0699 224.499Z" fill="#333333"/>
<path opacity="0.2" d="M50.0699 224.498C49.9073 225.311 49.7911 226.134 49.7958 227.003C49.7865 233.178 54.8095 238.183 60.9849 238.178C61.0035 238.178 61.0128 238.173 61.0314 238.173V192.255L52.1144 192.26L59.2703 204.536C57.8438 203.662 51.7427 202.134 50.2558 202.134C44.0664 202.124 39.0527 207.147 39.0667 213.332C39.0527 219.433 43.9781 224.396 50.0699 224.498Z" fill="#616161"/>
<path d="M22.4875 51.0513C22.5386 50.8608 22.5617 50.6796 22.5571 50.4751C22.5617 49.0718 21.4094 47.9287 20.0015 47.9287C18.5889 47.9287 17.4503 49.0765 17.4411 50.4751C17.4411 50.7818 17.5016 51.0699 17.5992 51.3394C16.3585 51.4369 15.3779 52.4825 15.3779 53.7464C15.3779 55.0753 16.456 56.158 17.7849 56.158C18.1427 56.158 19.4021 55.7676 19.6809 55.605L18.0451 58.4116L22.0181 58.407L20.3825 55.605C20.7078 55.8002 22.1064 56.1533 22.441 56.1533C23.8535 56.1533 24.9966 55.0056 24.9966 53.5977C25.0059 52.199 23.8861 51.0699 22.4875 51.0513Z" fill="#333333"/>
<path opacity="0.2" d="M22.4873 51.0513C22.5384 50.8608 22.5616 50.6796 22.557 50.4751C22.5616 49.0718 21.4093 47.9287 20.0013 47.9287C19.9921 47.9287 19.9873 47.9287 19.9873 47.9287V58.4163L22.0226 58.4116L20.3869 55.6097C20.7122 55.8048 22.1109 56.158 22.4455 56.158C23.8581 56.158 25.0011 55.0102 25.0011 53.6023C25.0058 52.199 23.886 51.0699 22.4873 51.0513Z" fill="#616161"/>
<path d="M175.047 215.125C175.084 215.32 175.121 215.502 175.112 215.697C175.121 217.109 173.969 218.248 172.561 218.248C171.153 218.248 170.005 217.109 170.005 215.697C170.005 215.395 170.061 215.111 170.159 214.837C168.913 214.74 167.933 213.699 167.933 212.435C167.933 211.097 169.02 210.014 170.349 210.014C170.711 210.014 171.966 210.404 172.236 210.567L170.6 207.77H174.582L172.946 210.576C173.272 210.372 174.67 210.023 175.01 210.023C176.422 210.019 177.561 211.166 177.561 212.574C177.561 213.977 176.441 215.111 175.047 215.125Z" fill="#333333"/>
<path opacity="0.2" d="M175.047 215.125C175.084 215.32 175.121 215.502 175.112 215.697C175.121 217.109 173.969 218.248 172.561 218.248C172.551 218.248 172.551 218.248 172.551 218.248V207.77H174.587L172.951 210.576C173.276 210.372 174.675 210.023 175.014 210.023C176.427 210.019 177.565 211.166 177.565 212.574C177.561 213.977 176.441 215.111 175.047 215.125Z" fill="#616161"/>
</svg>
