<svg width="186" height="259" viewBox="0 0 186 259" fill="none" xmlns="http://www.w3.org/2000/svg">
<path d="M21.1289 258.937C10.186 258.955 1.26904 250.224 1.23651 239.467L0.669572 19.6658C0.655632 8.83906 9.56799 0.0615209 20.5248 0.0801076L165.78 0.354217C176.713 0.372803 185.612 9.17363 185.612 19.9678V239.295C185.612 250.006 176.76 258.755 165.854 258.755L21.1289 258.937Z" fill="#C9C9C9"/>
<path d="M22.927 258.387C12.1421 258.387 3.35071 249.637 3.35071 238.885V19.5949C3.35071 8.84255 12.1421 0.0927734 22.927 0.0927734H166.058C176.862 0.0927734 185.635 8.84255 185.635 19.5949V238.885C185.635 249.642 176.862 258.387 166.058 258.387H22.927Z" fill="white"/>
<path d="M155.287 233.457C155.287 232.704 155.487 231.923 155.854 231.096C156.426 229.888 157.42 228.582 158.842 227.165C160.027 225.966 160.975 225.13 161.667 224.67C162.769 223.908 163.939 223.536 165.124 223.536C166.128 223.536 167.025 223.745 167.819 224.191C168.721 224.688 169.19 225.381 169.19 226.227C169.19 226.807 168.6 227.834 167.466 229.275C166.323 230.729 165.505 231.445 165.018 231.445C164.599 231.445 164.39 231.291 164.39 230.989C164.39 230.692 164.72 230.116 165.385 229.284C165.687 228.912 165.835 228.61 165.835 228.411C165.663 228.067 165.496 227.811 165.296 227.639C164.725 227.133 163.967 226.886 162.968 226.886C162.127 226.886 161.351 227.142 160.682 227.676C159.85 228.313 159.437 229.173 159.437 230.255C159.437 231.055 159.66 231.751 160.083 232.388C160.427 232.871 160.868 233.252 161.398 233.513C162.095 233.847 162.829 234.028 163.586 234.056C164.362 234.075 164.729 234.237 164.729 234.563C164.729 234.716 164.265 235.381 163.317 236.542C162.583 237.458 161.872 238.447 161.203 239.521C161.407 239.73 161.579 239.837 161.704 239.837H166.04C166.23 239.837 166.621 239.609 167.169 239.149C167.75 238.703 168.121 238.471 168.335 238.471C168.73 238.471 168.907 238.615 168.907 238.907C168.907 239.061 168.688 239.386 168.238 239.897C167.801 240.404 167.16 241.077 166.323 241.914C165.38 242.857 164.781 243.419 164.534 243.619C164.046 243.991 163.661 244.181 163.368 244.181H156.152C156.087 244.125 156.04 244.084 156.017 244.037C155.989 244 155.984 243.884 155.984 243.693C155.984 243.15 156.63 242.234 157.927 240.943C159.242 239.665 159.888 238.773 159.888 238.275C159.888 238.168 159.367 237.932 158.336 237.541C157.634 237.286 157.039 236.932 156.547 236.496C156.161 236.133 155.864 235.706 155.641 235.19C155.413 234.674 155.287 234.103 155.287 233.457Z" fill="#333333"/>
<path d="M37.0949 27.4332C37.0949 28.1952 36.8951 28.9759 36.528 29.7937C35.9564 31.0018 34.962 32.3169 33.5402 33.7342C32.3553 34.9144 31.4073 35.7508 30.715 36.2201C29.5951 36.9822 28.4428 37.3539 27.2579 37.3539C26.2542 37.3539 25.3573 37.1447 24.5628 36.7079C23.6613 36.2015 23.2013 35.5091 23.2013 34.6681C23.2013 34.078 23.7636 33.0603 24.916 31.6198C26.0591 30.1747 26.8769 29.4499 27.3648 29.4499C27.783 29.4499 27.992 29.5939 27.992 29.8959C27.992 30.2026 27.6622 30.7742 26.9977 31.6013C26.6957 31.9823 26.5469 32.2611 26.5469 32.4888C26.7188 32.8141 26.8862 33.0696 27.086 33.2415C27.6483 33.7573 28.4149 34.0129 29.4139 34.0129C30.255 34.0129 31.031 33.7387 31.7001 33.2229C32.5318 32.5678 32.9501 31.7267 32.9501 30.6347C32.9501 29.8355 32.727 29.1385 32.3042 28.5112C31.9464 28.014 31.5189 27.6377 30.9892 27.3868C30.2969 27.0337 29.558 26.8524 28.8006 26.8431C28.0246 26.8153 27.6482 26.6526 27.6482 26.3366C27.6482 26.1833 28.1128 25.5095 29.0515 24.3386C29.8042 23.4418 30.4966 22.4428 31.1843 21.3601C30.9799 21.1603 30.808 21.0534 30.6872 21.0534H26.3518C26.152 21.0534 25.7709 21.2903 25.2087 21.7271C24.6418 22.2011 24.2515 22.4149 24.047 22.4149C23.6799 22.4149 23.4848 22.2801 23.4848 21.9967C23.4848 21.834 23.7032 21.5088 24.1493 20.9977C24.6 20.4819 25.232 19.8173 26.0591 18.9809C26.9977 18.0376 27.6018 17.4662 27.8573 17.2943C28.3406 16.904 28.7309 16.7227 29.0237 16.7227H36.2539C36.2864 16.7784 36.3375 16.8202 36.3747 16.8574C36.4026 16.8945 36.4072 17.0108 36.4072 17.192C36.4072 17.745 35.7613 18.6603 34.4463 19.9428C33.1499 21.2299 32.504 22.1222 32.504 22.6008C32.504 22.7169 33.0245 22.9724 34.056 23.3441C34.7577 23.609 35.3431 23.9622 35.8449 24.399C36.2306 24.7521 36.5327 25.1982 36.751 25.6954C36.9834 26.2158 37.0949 26.7919 37.0949 27.4332Z" fill="#333333"/>
<path d="M112.873 35.1021C112.385 43.968 94.6251 57.4295 94.6251 57.4295C94.6251 57.4295 76.359 43.8612 76.359 34.9954C76.359 28.8943 81.3589 23.9688 87.446 23.9688C90.8753 23.9688 94.6901 27.0541 94.6901 27.0541C94.6901 27.0541 98.3239 23.9687 101.846 24.0245C107.956 24.0988 113.193 29.0011 112.873 35.1021Z" fill="#D66142"/>
<path opacity="0.2" d="M101.846 24.0203C98.3238 23.9645 94.6901 27.0498 94.6901 27.0498C94.6901 27.0498 94.6483 27.0126 94.5786 26.9522V57.3833C94.6204 57.4019 94.6297 57.4298 94.6297 57.4298C94.6297 57.4298 112.385 43.973 112.877 35.1025C113.193 29.0014 107.956 24.0993 101.846 24.0203Z" fill="#616161"/>
<path d="M112.873 120.567C112.385 129.424 94.6251 142.876 94.6251 142.876C94.6251 142.876 76.359 129.326 76.359 120.461C76.359 114.346 81.3589 109.425 87.446 109.425C90.8753 109.425 94.6901 112.519 94.6901 112.519C94.6901 112.519 98.3239 109.425 101.846 109.481C107.956 109.55 113.193 114.452 112.873 120.567Z" fill="#D66142"/>
<path opacity="0.2" d="M101.846 109.476C98.3237 109.421 94.6899 112.515 94.6899 112.515C94.6899 112.515 94.6482 112.469 94.5785 112.413V142.835C94.6203 142.872 94.6295 142.872 94.6295 142.872C94.6295 142.872 112.384 129.425 112.877 120.563C113.193 114.453 107.956 109.551 101.846 109.476Z" fill="#616161"/>
<path d="M76.0988 217.192C76.582 208.345 94.3509 194.874 94.3509 194.874C94.3509 194.874 112.608 208.442 112.608 217.318C112.608 223.405 107.617 228.335 101.512 228.335C98.1009 228.335 94.2719 225.249 94.2719 225.249C94.2719 225.249 90.6568 228.335 87.144 228.279C81.029 228.209 75.7828 223.302 76.0988 217.192Z" fill="#D66142"/>
<path opacity="0.2" d="M87.1441 228.284C90.657 228.34 94.2721 225.254 94.2721 225.254C94.2721 225.254 94.3325 225.282 94.3929 225.338V194.916C94.3511 194.888 94.3464 194.879 94.3464 194.879C94.3464 194.879 76.5823 208.345 76.0944 217.197C75.783 223.303 81.0291 228.209 87.1441 228.284Z" fill="#616161"/>
<path d="M34.7296 50.3214C34.5623 53.4346 28.3171 58.165 28.3171 58.165C28.3171 58.165 21.9 53.4022 21.9 50.2797C21.9 48.1376 23.6565 46.4043 25.794 46.4043C26.9975 46.4043 28.3357 47.4823 28.3357 47.4823C28.3357 47.4823 29.6089 46.4043 30.8588 46.4276C33.001 46.4554 34.8364 48.17 34.7296 50.3214Z" fill="#D66142"/>
<path opacity="0.2" d="M30.8588 46.4273C29.6135 46.3994 28.3356 47.482 28.3356 47.482C28.3356 47.482 28.317 47.4821 28.3124 47.4542V58.1554C28.317 58.1647 28.3171 58.1648 28.3171 58.1648C28.3171 58.1648 34.5622 53.439 34.7295 50.3211C34.8364 48.1697 33.0009 46.4552 30.8588 46.4273Z" fill="#616161"/>
<path d="M154.846 211.367C155.018 208.188 161.398 203.36 161.398 203.36C161.398 203.36 167.94 208.225 167.94 211.418C167.94 213.597 166.147 215.367 163.972 215.367C162.736 215.367 161.365 214.261 161.365 214.261C161.365 214.261 160.064 215.367 158.796 215.349C156.621 215.316 154.734 213.564 154.846 211.367Z" fill="#D66142"/>
<path opacity="0.2" d="M158.8 215.354C160.064 215.372 161.37 214.266 161.37 214.266C161.37 214.266 161.393 214.276 161.416 214.304V203.375C161.402 203.365 161.402 203.365 161.402 203.365C161.402 203.365 155.022 208.193 154.851 211.372C154.734 213.565 156.621 215.317 158.8 215.354Z" fill="#616161"/>
</svg>
