<svg width="183" height="256" viewBox="0 0 183 256" fill="none" xmlns="http://www.w3.org/2000/svg">
<path d="M20.9315 255.505C10.1606 255.533 1.37372 246.918 1.35514 236.346L0.797536 19.9048C0.769656 9.26854 9.54256 0.602537 20.3507 0.621124L163.375 0.895233C174.146 0.923113 182.9 9.57052 182.9 20.1974V236.175C182.9 246.722 174.179 255.314 163.445 255.333L20.9315 255.505Z" fill="#C9C9C9"/>
<path d="M22.7112 254.971C12.075 254.971 3.43221 246.351 3.43221 235.757V19.8306C3.43221 9.25017 12.075 0.625977 22.7112 0.625977H163.654C174.276 0.625977 182.928 9.24552 182.928 19.8306V235.757C182.928 246.346 174.276 254.971 163.654 254.971H22.7112Z" fill="white"/>
<path d="M127.322 18.9541L146.326 42.9403L127.322 66.9449L108.317 42.9403L127.322 18.9541Z" fill="#D66142"/>
<path opacity="0.2" d="M127.442 19.1168L127.322 18.9541L108.317 42.9403L127.322 66.9449L127.442 66.7822V19.1168Z" fill="#616161"/>
<path d="M127.322 75.5215L146.326 99.5122L127.322 123.512L108.317 99.5122L127.322 75.5215Z" fill="#D66142"/>
<path opacity="0.2" d="M127.442 75.6841L127.322 75.5215L108.317 99.5122L127.322 123.512L127.442 123.354V75.6841Z" fill="#616161"/>
<path d="M59.0389 132.075L40.0294 156.071L59.0389 180.085L78.0438 156.071L59.0389 132.075Z" fill="#D66142"/>
<path opacity="0.2" d="M58.9134 132.233L59.0389 132.075L78.0438 156.071L59.0389 180.085L58.9134 179.931V132.233Z" fill="#616161"/>
<path d="M59.0389 188.644L40.0294 212.648L59.0389 236.644L78.0438 212.648L59.0389 188.644Z" fill="#D66142"/>
<path opacity="0.2" d="M58.9134 188.806L59.0389 188.644L78.0438 212.648L59.0389 236.644L58.9134 236.49V188.806Z" fill="#616161"/>
<path d="M59.0389 18.9541L78.0438 42.9403L59.0389 66.9449L40.0294 42.9403L59.0389 18.9541Z" fill="#D66142"/>
<path opacity="0.2" d="M59.1644 19.1168L59.0389 18.9541L40.0294 42.9403L59.0389 66.9449L59.1644 66.7822V19.1168Z" fill="#616161"/>
<path d="M59.0389 75.5215L78.0438 99.5122L59.0389 123.512L40.0294 99.5122L59.0389 75.5215Z" fill="#D66142"/>
<path opacity="0.2" d="M59.1644 75.6841L59.0389 75.5215L40.0294 99.5122L59.0389 123.512L59.1644 123.354V75.6841Z" fill="#616161"/>
<path d="M127.317 132.075L108.317 156.071L127.317 180.085L146.326 156.071L127.317 132.075Z" fill="#D66142"/>
<path opacity="0.2" d="M127.192 132.233L127.317 132.075L146.327 156.071L127.317 180.085L127.192 179.931V132.233Z" fill="#616161"/>
<path d="M127.317 188.644L108.317 212.648L127.317 236.644L146.326 212.648L127.317 188.644Z" fill="#D66142"/>
<path opacity="0.2" d="M127.192 188.806L127.317 188.644L146.327 212.648L127.317 236.644L127.192 236.49V188.806Z" fill="#616161"/>
<path d="M18.5618 58.4791L13.0276 51.4905L18.5618 44.502L24.096 51.4905L18.5618 58.4791Z" fill="#D66142"/>
<path opacity="0.2" d="M18.5618 44.502L18.5153 44.5624V58.4326L18.5618 58.4791L24.096 51.4905L18.5618 44.502Z" fill="#616161"/>
<path d="M26.0568 29.8456C26.0568 30.2638 25.8617 30.8261 25.4667 31.551C24.9277 32.5407 24.147 33.549 23.1201 34.5899C21.9492 35.7794 21.3172 36.4161 21.2289 36.4858C20.4808 37.048 19.5701 37.3222 18.492 37.3222C17.019 37.3222 15.7459 36.7599 14.6678 35.6262C13.7524 34.655 13.3017 33.721 13.3017 32.8381C13.3017 32.2015 13.6084 31.4674 14.2357 30.6217C14.8583 29.7853 15.4949 28.9536 16.1455 28.1172C15.6622 27.6804 15.2347 27.2017 14.8583 26.672C14.4913 26.147 14.3054 25.5568 14.3054 24.8924C14.3054 24.0839 14.6074 23.2242 15.2254 22.3041C15.8202 21.5049 16.3128 20.8172 16.7031 20.2643C17.6696 18.8842 18.4735 17.9966 19.1054 17.5877C19.742 17.1788 20.4297 16.9697 21.1732 16.9697C22.2884 16.9697 23.2502 17.2858 24.0634 17.9224C24.8766 18.5497 25.2808 19.4093 25.2808 20.4827C25.2808 21.6629 24.7929 22.7594 23.8264 23.8142C22.8599 24.8504 22.372 25.5754 22.372 25.9657C23.3385 26.6023 24.1749 27.211 24.8812 27.8058C25.6665 28.4749 26.0568 29.1672 26.0568 29.8456ZM22.4278 32.3084C22.4278 31.7182 21.7215 30.9842 20.3042 30.1199C19.0357 29.3671 18.2272 28.986 17.874 28.986C17.7439 28.986 17.5627 29.1951 17.3304 29.604C17.0934 30.0222 16.9819 30.3568 16.9819 30.6681C16.9819 31.4209 17.4465 32.1457 18.3759 32.8474C19.2355 33.4747 20.0394 33.7906 20.8061 33.7906C21.1778 33.7906 21.5403 33.628 21.8934 33.3074C22.2512 32.996 22.4278 32.6615 22.4278 32.3084ZM21.3962 23.4193C21.3962 22.9639 21.1453 22.476 20.6481 21.9788C20.0766 21.398 19.426 21.1053 18.7058 21.1053C18.3712 21.1053 18.0971 21.2122 17.8694 21.4213C17.651 21.6118 17.5395 21.8673 17.5395 22.174C17.5395 22.7827 18.0088 23.4426 18.9521 24.1442C19.7606 24.7715 20.2903 25.0689 20.5319 25.0689C20.6992 25.0689 20.8851 24.8691 21.0849 24.4602C21.294 24.0466 21.3962 23.7027 21.3962 23.4193Z" fill="#333333"/>
<path d="M161.493 228.129C161.493 227.72 161.688 227.148 162.074 226.423C162.618 225.443 163.398 224.425 164.421 223.385C165.592 222.186 166.228 221.558 166.321 221.489C167.065 220.926 167.975 220.652 169.058 220.652C170.526 220.652 171.8 221.224 172.878 222.348C173.793 223.31 174.248 224.244 174.248 225.146C174.248 225.782 173.937 226.516 173.31 227.353C172.692 228.189 172.05 229.021 171.405 229.857C171.888 230.294 172.311 230.773 172.687 231.302C173.059 231.837 173.245 232.427 173.245 233.073C173.245 233.9 172.938 234.76 172.325 235.67C171.73 236.47 171.237 237.157 170.847 237.715C169.876 239.095 169.077 239.982 168.445 240.391C167.813 240.8 167.125 241.009 166.377 241.009C165.262 241.009 164.3 240.693 163.491 240.057C162.683 239.42 162.278 238.561 162.278 237.487C162.278 236.325 162.762 235.21 163.728 234.165C164.699 233.119 165.183 232.413 165.183 232.013C164.216 231.377 163.375 230.768 162.669 230.178C161.888 229.49 161.493 228.821 161.493 228.129ZM165.122 225.661C165.122 226.27 165.833 226.986 167.246 227.85C168.514 228.603 169.323 228.993 169.676 228.993C169.806 228.993 169.987 228.793 170.22 228.384C170.452 227.966 170.568 227.613 170.568 227.325C170.568 226.553 170.103 225.829 169.169 225.146C168.315 224.509 167.506 224.193 166.739 224.193C166.363 224.193 166.01 224.346 165.652 224.667C165.303 224.978 165.122 225.318 165.122 225.661ZM166.158 234.546C166.158 235.01 166.409 235.508 166.907 236.005C167.478 236.576 168.124 236.86 168.849 236.86C169.179 236.86 169.458 236.758 169.676 236.562C169.904 236.344 170.006 236.098 170.006 235.81C170.006 235.192 169.541 234.541 168.593 233.821C167.78 233.212 167.255 232.906 167.013 232.906C166.846 232.906 166.665 233.105 166.456 233.514C166.256 233.918 166.158 234.262 166.158 234.546Z" fill="#333333"/>
<path d="M168.988 199.507L174.522 206.477L168.988 213.475L163.454 206.477L168.988 199.507Z" fill="#D66142"/>
<path opacity="0.2" d="M169.025 199.544L168.988 199.507L163.454 206.477L168.988 213.475L169.025 213.428V199.544Z" fill="#616161"/>
</svg>
