<svg width="185" height="258" viewBox="0 0 185 258" fill="none" xmlns="http://www.w3.org/2000/svg">
<path d="M21.0901 257.852C10.2123 257.87 1.33248 249.176 1.3046 238.484L0.742345 19.7471C0.714465 8.99011 9.57569 0.245115 20.5 0.263701L165.039 0.533202C175.926 0.551789 184.774 9.31074 184.774 20.0492V238.312C184.774 248.977 175.954 257.68 165.114 257.68L21.0901 257.852Z" fill="#C9C9C9"/>
<path d="M21.7546 257.575C11.0162 257.575 2.27577 248.872 2.27577 238.161V19.9538C2.27577 9.24786 11.0208 0.540039 21.7546 0.540039H164.198C174.946 0.540039 183.677 9.24786 183.677 19.9538V238.161C183.677 248.872 174.941 257.575 164.198 257.575H21.7546Z" fill="white"/>
<path d="M165.295 253.21H22.8558C14.5243 253.21 7.75879 246.468 7.75879 238.183V19.9803C7.75879 12.0066 14.0829 5.5152 17.4796 4.26989L17.9815 4.08398L161.182 4.09327C175.345 5.20383 180.392 13.0195 180.392 19.9756V238.178C180.392 246.468 173.612 253.21 165.295 253.21ZM19.1803 10.0503C17.6469 11.0121 13.7158 15.0269 13.7158 19.9803V238.183C13.7158 243.183 17.8142 247.249 22.8512 247.249H165.29C170.327 247.249 174.416 243.183 174.416 238.183V19.9803C174.416 14.4554 169.342 10.7426 160.829 10.0503H19.1803Z" fill="#D66142"/>
<path d="M35.1463 18.2136C34.5562 19.2127 33.8313 19.97 32.9577 20.5044C32.0795 21.0295 31.2059 21.2897 30.3416 21.2897C30.0675 21.2897 29.0685 21.0806 27.3446 20.6392C26.5407 20.4301 25.8065 20.3325 25.1513 20.3325C24.7331 20.3325 24.3196 20.379 23.8921 20.4858C23.4739 20.5881 23.1068 20.76 22.8094 21.0063H22.4981V20.6113C23.0836 19.2917 23.7852 18.3484 24.603 17.7862C25.4255 17.2286 26.4896 16.9404 27.8046 16.9404C28.7618 16.9404 29.6772 17.0938 30.5554 17.4097C31.429 17.7164 32.27 17.8791 33.0786 17.8791C33.3434 17.8791 33.6547 17.8651 33.9893 17.8419C34.3424 17.8326 34.7235 17.7861 35.1417 17.735L35.1463 18.2136ZM35.2299 34.779C35.2299 36.6191 34.5236 38.1107 33.125 39.2398C31.7263 40.369 29.9374 40.9312 27.7581 40.9312C26.4199 40.9312 25.3 40.6617 24.3986 40.1413C23.3205 39.5233 22.7862 38.6265 22.7862 37.4555C22.7862 36.9118 22.9349 36.4332 23.2415 36.0197C23.6504 35.4528 24.2545 35.174 25.0398 35.174C25.5509 35.174 25.997 35.332 26.3873 35.6712C26.7684 35.9964 26.9589 36.4053 26.9589 36.9025C26.9589 37.7111 26.6197 38.2501 25.9413 38.5335C25.2721 38.817 24.9283 39.0121 24.9283 39.1283C25.0351 39.3746 25.1699 39.5511 25.2954 39.658C25.695 40.0158 26.2619 40.197 27.0193 40.197C27.7674 40.197 28.4133 40.0112 28.943 39.658C29.482 39.3049 29.7515 38.8076 29.7515 38.1711V22.2516C30.7273 21.9403 31.6381 21.6289 32.4884 21.3083C33.3248 21.0016 34.0822 20.5416 34.742 19.9468H35.2207V34.779H35.2299Z" fill="#333333"/>
<path d="M153.646 225.749C153.646 223.909 154.352 222.417 155.75 221.283C157.154 220.159 158.952 219.597 161.131 219.597C162.465 219.597 163.58 219.862 164.491 220.377C165.56 221.014 166.099 221.901 166.099 223.072C166.099 223.616 165.945 224.099 165.643 224.508C165.225 225.08 164.626 225.363 163.836 225.363C163.325 225.363 162.883 225.191 162.493 224.866C162.112 224.531 161.926 224.132 161.926 223.639C161.926 222.831 162.26 222.278 162.934 221.994C163.608 221.711 163.952 221.511 163.952 221.404C163.836 221.158 163.715 220.986 163.58 220.87C163.19 220.517 162.614 220.335 161.856 220.335C161.108 220.335 160.467 220.517 159.933 220.87C159.394 221.232 159.124 221.725 159.124 222.357V238.267C158.153 238.592 157.237 238.913 156.387 239.229C155.546 239.535 154.784 239.982 154.133 240.59H153.65V225.749H153.646ZM153.743 242.314C154.324 241.306 155.054 240.553 155.913 240.028C156.796 239.494 157.674 239.229 158.529 239.229C158.813 239.229 159.816 239.447 161.522 239.884C162.33 240.084 163.06 240.191 163.724 240.191C164.133 240.191 164.547 240.144 164.979 240.037C165.402 239.94 165.764 239.763 166.071 239.522H166.377V239.912C165.797 241.227 165.09 242.17 164.277 242.732C163.455 243.295 162.391 243.578 161.071 243.578C160.114 243.578 159.194 243.425 158.32 243.113C157.437 242.807 156.606 242.649 155.797 242.649C155.532 242.649 155.225 242.658 154.882 242.677C154.524 242.695 154.147 242.732 153.738 242.784V242.314H153.743Z" fill="#333333"/>
<path d="M80.2423 80.4922L73.8206 83.0293L75.2936 85.729L100.683 85.4223L102.477 83.0293L96.7984 80.4922H80.2423Z" fill="#757575"/>
<path d="M109.869 40.2957C109.79 41.7548 105.599 60.6109 104.832 62.2047C100.186 72.2555 88.1462 66.8654 88.1462 66.8654C88.1462 66.8654 76.7386 72.3484 72.1059 62.3255C71.2881 60.5923 66.4184 41.7083 66.4184 40.1563C66.4184 32.9029 72.3476 27.0342 79.6196 27.0342C83.6947 27.0342 88.2438 30.7096 88.2438 30.7096C88.2438 30.7096 92.5419 27.0341 96.7332 27.0945C104.024 27.1967 110.246 33.0423 109.869 40.2957Z" fill="#D66142"/>
<path d="M96.7983 72.5527H80.2469V89.8383H96.7983V72.5527Z" fill="#EBB07A"/>
<path opacity="0.2" d="M96.7983 75.8841V80.0894C94.7863 82.0085 92.4676 83.2491 90.0328 83.2491H86.9102C84.5218 83.2491 82.2542 82.0317 80.2469 80.173V76.0375L81.6687 78.3051L82.0451 72.5479H94.9117L95.2835 78.3051L96.7983 75.8841Z" fill="#616161"/>
<path d="M90.0328 33.1738H88.4808H86.9103C78.7414 33.1738 72.1106 38.7637 72.1106 45.664C72.1106 45.664 72.1803 62.5593 72.3058 63.3632C73.4395 70.6492 79.5546 81.9127 86.9103 81.9127H88.4808H90.0328C97.4024 81.9127 103.513 70.6492 104.651 63.3632C104.772 62.5547 104.837 45.664 104.837 45.664C104.837 38.7591 98.2156 33.1738 90.0328 33.1738Z" fill="#EBB07A"/>
<path d="M78.9598 53.1953C78.667 53.581 78.4765 54.0317 78.4765 54.5196C78.4765 55.8068 79.7032 56.8615 81.218 56.8615C82.7422 56.8615 83.9735 55.8068 83.9735 54.5196C83.9735 54.0317 83.7877 53.581 83.4763 53.1953H78.9598Z" fill="#333333"/>
<path opacity="0.2" d="M89.5309 50.9307H88.4808H87.412L85.9437 61.7667L88.4808 64.6848L91.0039 61.7667L89.5309 50.9307Z" fill="#616161"/>
<path d="M97.9879 53.1953C98.2946 53.581 98.4758 54.0317 98.4758 54.5196C98.4758 55.8068 97.2491 56.8615 95.7296 56.8615C94.2102 56.8615 92.9788 55.8068 92.9788 54.5196C92.9788 54.0317 93.16 53.581 93.476 53.1953H97.9879Z" fill="#333333"/>
<g opacity="0.2">
<path d="M91.5615 70.1514H85.5022V71.6383H91.5615V70.1514Z" fill="#616161"/>
</g>
<path d="M92.7 47.3398L100.901 48.3343L92.7 49.324V47.3398Z" fill="#D66142"/>
<path d="M84.2476 49.324L76.2275 48.3343L84.2476 47.3398V49.324Z" fill="#D66142"/>
<path d="M109.869 39.9317C109.79 41.3861 109.33 42.9149 108.578 44.5087C106.426 40.2663 101.84 37.4086 96.7333 37.3296C92.542 37.2692 88.2438 40.9308 88.2438 40.9308C88.2438 40.9308 83.6948 37.2646 79.6196 37.2646C74.3689 37.2646 69.8198 40.3267 67.7148 44.7643C66.8924 43.0311 66.4184 41.349 66.4184 39.7923C66.4184 32.5389 72.3476 26.6748 79.6196 26.6748C83.6948 26.6748 84.0897 28.2779 88.1555 28.2779C92.2167 28.2779 92.542 26.6748 96.7333 26.7352C104.024 26.8421 110.246 32.669 109.869 39.9317Z" fill="#D66142"/>
<path d="M84.889 73.791C88.1742 74.7111 88.4994 80.4869 88.4994 80.4869C88.4994 80.4869 88.8526 74.6553 92.1796 73.791H84.889Z" fill="#D66142"/>
<path d="M97.7649 70.2255C97.723 70.8667 97.5279 71.5497 97.198 72.256C96.2408 70.3788 94.2102 69.1149 91.9566 69.0731C90.0979 69.0498 86.1854 69.0498 84.3778 69.0498C82.0638 69.0498 80.0471 70.3974 79.1178 72.3676C78.7647 71.6009 78.5416 70.8574 78.5416 70.1697C78.5416 66.9588 81.1623 64.3613 84.3778 64.3613C86.1854 64.3613 88.1602 67.0657 88.1602 67.0657C88.1602 67.0657 90.0979 64.3613 91.9566 64.3939C95.1767 64.4357 97.9321 67.0146 97.7649 70.2255Z" fill="#D66142"/>
<path d="M129.804 85.2178L123.54 91.0912L120.784 99.4227C120.784 99.4227 130.082 97.564 130.143 97.787L129.804 85.2178Z" fill="#757575"/>
<path d="M47.8039 85.2178L54.0769 91.0912L56.8231 99.4227C56.8231 99.4227 47.5344 97.564 47.474 97.787L47.8039 85.2178Z" fill="#757575"/>
<path d="M51.5631 89.8311L50.6895 91.5782L48.6403 98.2508C48.6403 98.2508 60.2198 95.0167 59.6947 95.3605L51.5631 89.8311Z" fill="#9C4129"/>
<path d="M137.327 108.13L131.086 109.989L119.809 113.367L119.093 113.572L104.628 117.884L104.238 118.014L103.345 118.269L98.9358 119.589L97.2305 120.105L91.7288 121.75L88.9826 122.568L78.3325 125.746L76.1114 126.392L75.6095 126.545L72.8262 127.382L71.0744 127.911L66.0281 129.421L58.4308 131.68L58.4122 129.533L58.3611 123.265L53.3474 131.726V133.185L48.0455 134.779L35.3369 138.561V120.723L35.3787 119.807V119.742C35.3787 119.715 35.3787 119.715 35.3787 119.705L35.5088 117.038L35.9363 116.039L38.4362 110.087L40.9407 104.171L43.6172 97.8148L44.6162 95.431L45.7408 92.7592L47.6041 92.3085L50.6894 91.5837L50.8428 91.5325L51.0751 91.4814L51.4561 91.3885L51.6559 91.3466L52.3158 91.1747L53.2173 90.961H53.2312L53.3288 90.9192L53.7841 90.8169L62.2318 88.7678L63.1286 88.554L63.5189 88.4703L64.4343 88.2241L71.1952 86.6071L71.316 86.5745L72.092 86.3747L74.6523 85.7474L75.2145 85.6173L80.2283 84.4092H96.7798L100.715 85.371L101.673 85.5941L102.212 85.7195L108.215 87.1832L113.629 88.5029L123.679 90.9377L124.265 91.0725L126.583 91.6348L129.794 92.4107L129.99 92.4526L131.198 92.7499L133.697 99.023L136.202 105.314L136.908 107.052L137.327 108.13Z" fill="#ABABAB"/>
<path opacity="0.2" d="M108.229 87.1979L90.8135 104.627L90.07 105.362L87.1054 108.326L87.0775 108.354L82.2868 113.136L82.0452 113.391L73.6766 121.75L71.093 124.325L69.9267 125.505L68.6396 126.792L66.0281 129.417L58.4355 131.676L58.4123 129.529L66.2047 121.75L67.5011 120.454L68.398 119.557L71.0884 116.853L71.9015 116.044L72.7194 115.227L73.0632 114.892L82.9141 105.046L83.0721 104.892L83.4392 104.516L83.4532 104.502L86.269 101.677L86.9939 100.952L102.226 85.7295L108.229 87.1979Z" fill="white"/>
<path opacity="0.2" d="M129.804 92.4281L119.339 102.911L104.493 117.748L104.233 118.013L103.341 118.264L98.9311 119.588L97.2258 120.104L91.7288 121.749L88.9826 122.562L78.3324 125.74L76.1113 126.381L75.6095 126.539L76.0045 126.158L77.575 124.569L85.0469 117.102L85.8043 116.354L89.8283 112.316L90.3022 111.856L94.2333 107.925L113.642 88.5156L123.689 90.9505L124.279 91.0899L126.593 91.6521L129.804 92.4281Z" fill="white"/>
<path opacity="0.2" d="M104.628 117.878L104.238 118.008L103.345 118.264L98.9357 119.583L97.2305 120.099L91.7288 121.744L88.9826 122.562L78.3325 125.74L76.1113 126.386L75.6095 126.539L72.8261 127.376L71.0744 127.905L69.922 125.503L67.4964 120.452L59.6807 104.184L55.8983 96.2663L55.5312 95.5089L55.5266 95.4995L53.4078 91.0899V91.0759L53.3334 90.9272L53.7887 90.825L62.2364 88.7758L63.1332 88.5621L63.5235 88.4785L64.4389 88.2322L71.1998 86.6152L71.3206 86.5826L72.0966 86.3828C74.4943 88.8316 80.1447 94.3565 86.9846 100.95C88.2113 102.144 89.5077 103.366 90.8041 104.626C91.9193 105.699 93.0577 106.805 94.2241 107.925C97.6115 111.168 101.096 114.523 104.484 117.748C104.535 117.785 104.591 117.827 104.628 117.878Z" fill="#616161"/>
<path d="M88.9827 122.562L78.3325 125.741L76.1114 126.386L75.6096 126.54L72.8262 127.376L71.0883 124.328L68.3933 119.561L59.6761 104.189L56.5814 98.7156L55.2897 96.4341L52.3158 91.1834L51.5584 89.8358L52.4738 89.5988L70.0057 85.2217C70.1822 85.468 70.5911 85.9465 71.2045 86.6203C73.6858 89.2643 79.4198 94.9657 86.2644 101.68C87.5004 102.884 88.7549 104.12 90.0607 105.365C91.1805 106.466 92.3143 107.581 93.4667 108.687C96.7193 111.884 100.093 115.142 103.336 118.273L98.9265 119.593L97.2212 120.109L91.7195 121.754L88.9827 122.562Z" fill="#D66142"/>
<path d="M73.8206 83.0293L74.6709 85.7708L87.7885 93.3774L87.3981 84.4186L73.8206 83.0293Z" fill="#EBEBEB"/>
<path d="M102.477 83.0293L101.621 85.7708L88.5272 93.3774L88.9036 84.4186L102.477 83.0293Z" fill="#EBEBEB"/>
<path opacity="0.2" d="M87.1054 108.323L89.5449 110.916C88.662 110.01 87.8349 109.15 87.0775 108.351C85.6231 106.846 84.3964 105.545 83.4392 104.518C82.5238 103.556 81.864 102.854 81.5062 102.464L83.4531 104.504L87.1054 108.323Z" fill="#616161"/>
<path opacity="0.2" d="M90.3023 111.856C93.2157 114.602 96.1571 117.255 98.9265 119.588L97.2212 120.104L89.8237 112.316L86.5478 108.882L86.1947 108.496L82.9095 105.044L76.3948 98.1946L76.2322 98.0088C76.2879 98.0599 76.3344 98.1296 76.4088 98.1807C78.4301 100.253 80.6837 102.539 83.0674 104.891C84.1733 105.982 85.3118 107.107 86.4642 108.208C86.585 108.338 86.7104 108.445 86.8312 108.585C87.9882 109.672 89.1406 110.773 90.3023 111.856Z" fill="#616161"/>
<path opacity="0.2" d="M78.3325 125.742L76.1114 126.383L76.0045 126.16L73.6765 121.75L71.0883 116.853L68.226 111.416L64.7689 105.292L71.9015 116.044L74.8939 120.538L77.5751 124.571L78.3325 125.742Z" fill="#616161"/>
<path opacity="0.2" d="M91.7288 121.753L88.9827 122.566L86.9567 119.495L85.0469 117.106L82.0452 113.393L80.5908 111.586L82.2868 113.138L85.8044 116.358L91.7288 121.753Z" fill="#616161"/>
<path opacity="0.2" d="M58.3611 123.266L53.3474 131.727V133.186L48.0502 134.78L44.1981 133.981L49.4999 131.574L58.3611 123.266Z" fill="#616161"/>
<path opacity="0.2" d="M137.327 108.133L131.086 109.992L119.809 113.37L119.093 113.574L118.41 105.117L119.339 102.915L120.789 99.4252L124.279 91.0938L126.593 91.656L129.804 92.432L129.999 92.4738L131.212 92.7666L133.711 99.0442L136.211 105.331L136.922 107.069L137.327 108.133Z" fill="#616161"/>
<path d="M131.086 109.989L119.809 113.367L119.753 105.361L122.634 99.6178L122.94 98.9812L126.597 91.6535L129.808 85.2178C129.808 85.2178 137.986 95.5102 138.237 95.329C138.288 95.329 138.53 96.5417 138.851 98.4004C139.227 100.677 139.743 103.953 140.259 107.262L137.633 108.028L137.331 108.126L131.086 109.989Z" fill="#ABABAB"/>
<path opacity="0.2" d="M58.5795 106.016L58.3611 120.239L38.9798 116.954C38.9798 116.954 38.9566 116.169 39.0774 115.393L44.6209 95.4399L45.7454 92.7681L50.8521 91.5414L51.0844 91.4903L51.4654 91.3973L51.6652 91.3555L58.5795 106.016Z" fill="#616161"/>
<path d="M58.3611 121.875L40.0579 120.235L35.3833 119.807H35.3741C35.3741 119.807 35.374 119.784 35.3833 119.742C35.3833 119.714 35.3833 119.714 35.3833 119.705C35.4437 119.347 35.6482 117.967 35.9456 116.039C36.9679 109.176 39.0496 95.324 39.2773 95.324C39.5375 95.5052 47.697 85.2129 47.697 85.2129L47.7574 85.3337L50.8521 91.5324L57.7524 105.356L58.3611 121.875Z" fill="#ABABAB"/>
<path opacity="0.2" d="M140.263 107.26H140.245L140.207 107.269L137.624 108.027L137.345 108.124L136.983 108.222L136.007 108.519L131.091 109.988L133.711 99.0448L134.339 96.3591L129.827 85.2256C130.305 85.8204 137.866 95.3182 138.237 95.3182C138.298 95.3182 138.521 96.5402 138.86 98.4082C138.874 98.5615 138.911 98.7149 138.934 98.8961C138.999 99.2353 139.06 99.5652 139.115 99.9509C139.171 100.383 139.255 100.848 139.339 101.322C139.371 101.684 139.432 102.056 139.51 102.432C139.51 102.553 139.552 102.697 139.566 102.827L139.752 103.993C139.794 104.249 139.831 104.5 139.873 104.788C139.882 104.881 139.882 104.983 139.91 105.081C140.045 105.801 140.147 106.535 140.263 107.26Z" fill="white"/>
<path opacity="0.2" d="M47.7435 85.3569L43.2687 96.3649L43.608 97.8146L47.46 113.887L40.0486 120.235L38.4176 121.629C38.4176 121.629 36.0107 131.405 35.7365 131.726C35.6761 131.8 35.5599 131.768 35.3322 131.684V120.732L35.3787 119.803C35.3787 119.803 35.3787 119.779 35.3787 119.747C35.3787 119.719 35.3787 119.719 35.3787 119.719L35.4995 117.033L35.9409 116.043V115.988C36.0478 115.226 36.1779 114.408 36.308 113.52C36.9493 109.264 37.7764 103.758 38.4176 99.9196C38.4734 99.5711 38.5152 99.2272 38.5803 98.9066C38.9334 96.7412 39.2122 95.324 39.2773 95.324C39.6769 95.324 47.7017 85.2129 47.7017 85.2129H47.7992L47.7435 85.3569Z" fill="white"/>
<path d="M42.2558 104.774C42.0188 106.581 36.3499 113.663 36.3499 113.663C36.3499 113.663 36.3359 113.593 36.3081 113.523C36.9493 109.267 37.7764 103.761 38.4176 99.9224C39.0542 99.769 39.7745 99.6947 40.0718 99.7273C41.6145 99.9224 42.5903 102.195 42.2558 104.774Z" fill="#D66142"/>
<path d="M140.208 107.272L137.624 108.029L137.345 108.127L136.983 108.224C135.998 106.779 135.198 105.427 135.124 104.767C134.785 102.184 135.761 99.9162 137.294 99.7211C137.629 99.6885 138.419 99.7861 139.12 99.958C139.134 99.958 139.157 99.9813 139.176 99.9813L139.52 102.439L139.576 102.834L139.761 104.001L140.208 107.272Z" fill="#D66142"/>
<path opacity="0.2" d="M74.0111 91.0768C76.2926 95.3285 71.0558 106.936 71.0558 106.936C71.0558 106.936 59.0582 102.47 57.8175 97.9493C57.0554 95.1892 58.4541 92.271 60.8936 91.1977C62.2597 90.5889 64.3321 91.1187 64.3321 91.1187C64.3321 91.1187 65.2893 89.26 66.7391 88.6374C69.2762 87.564 72.6078 88.4654 74.0111 91.0768Z" fill="#616161"/>
<path d="M73.881 92.5665C75.3493 96.414 70.698 105.289 70.698 105.289C70.698 105.289 60.7866 102.794 59.1278 99.0254C57.9894 96.4325 59.0767 93.4447 61.5348 92.3667C62.9195 91.7534 65.0384 92.3807 65.0384 92.3807C65.0384 92.3807 65.9259 90.4291 67.3524 89.8157C69.843 88.7702 72.868 89.9226 73.881 92.5665Z" fill="#FFD675"/>
<path opacity="0.2" d="M69.4295 102.46C65.6936 101.276 61.9252 99.4494 61.3164 98.0601C61.0144 97.3817 60.9865 96.6289 61.2282 95.9505C61.4605 95.3139 61.9159 94.8167 62.506 94.5518C62.506 94.5518 62.6593 94.4868 63.0311 94.4868C63.5887 94.4868 64.1881 94.6262 64.3786 94.6727L66.3581 95.2395L67.2177 93.3763C67.4779 92.8047 68.003 92.1402 68.3004 92.0194C68.6024 91.894 68.9323 91.8242 69.2808 91.8242C70.0986 91.8242 71.2092 92.2424 71.6599 93.4273C72.2593 94.9793 70.9118 99.1845 69.4295 102.46Z" fill="#616161"/>
<path opacity="0.2" d="M140.263 107.263C140.203 106.905 140.147 106.538 140.082 106.171C139.998 105.608 139.905 105.037 139.822 104.474C139.799 104.312 139.766 104.154 139.747 104.005L139.562 102.839C139.548 102.709 139.506 102.565 139.506 102.444L139.162 99.9859C139.143 99.9859 139.125 99.9626 139.106 99.9626C139.05 99.5769 138.99 99.2516 138.925 98.9078C138.906 98.7266 138.869 98.5732 138.851 98.4199C138.767 97.9599 138.693 97.5603 138.623 97.1932C138.549 96.775 138.484 96.4172 138.428 96.1291C138.33 95.6226 138.265 95.3252 138.233 95.3252C137.861 95.3252 130.301 85.8275 129.822 85.2327L129.831 85.2559C129.831 85.2374 129.799 85.2141 129.799 85.2141L123.684 90.9481L113.633 88.5132L108.22 87.1936L102.216 85.7299L101.677 85.6044H101.668L102.472 83.0302L96.789 80.4885V78.7413C100.892 74.866 103.885 68.2258 104.642 63.3561C104.656 63.2586 104.665 62.938 104.679 62.4779C104.73 62.3804 104.786 62.2967 104.828 62.1992C105.594 60.6053 109.786 41.7492 109.865 40.2901C109.874 40.174 109.865 40.0578 109.865 39.9417C109.865 39.9417 109.865 39.937 109.865 39.9277C110.241 32.6649 104.019 26.838 96.7286 26.7312C92.5513 26.6708 92.2028 28.2646 88.202 28.2739V122.796L88.9733 122.559L91.7195 121.742L97.2212 120.097L98.9265 119.581L103.336 118.261L104.228 118.006L104.619 117.875L119.084 113.563L119.799 113.359L131.077 109.981V109.99L135.993 108.522L136.318 108.42L137.155 108.173L137.331 108.122L137.466 108.071L137.624 108.02L139.72 107.407L140.203 107.263L140.254 107.253H140.263V107.263Z" fill="#616161"/>
<path d="M95.3625 178.156L101.78 175.633L100.302 172.919L74.9125 173.235L73.1235 175.633L78.8018 178.156H95.3625Z" fill="#757575"/>
<path d="M65.726 218.355C65.8097 216.91 70.001 198.054 70.7584 196.456C75.405 186.391 87.4492 191.781 87.4492 191.781C87.4492 191.781 98.8568 186.307 103.49 196.335C104.307 198.059 109.182 216.938 109.182 218.49C109.182 225.758 103.253 231.612 95.9758 231.612C91.9054 231.612 87.347 227.937 87.347 227.937C87.347 227.937 83.0581 231.612 78.8668 231.557C71.5716 231.454 65.3543 225.618 65.726 218.355Z" fill="#D66142"/>
<path d="M95.3625 168.822H78.7971V186.112H95.3625V168.822Z" fill="#EBB07A"/>
<path opacity="0.2" d="M78.7971 182.782V178.563C80.8184 176.634 83.1371 175.412 85.5627 175.412H88.6899C91.0876 175.412 93.3505 176.616 95.3625 178.484V182.619L93.9313 180.351L93.5596 186.113H80.693L80.3166 180.351L78.7971 182.782Z" fill="#616161"/>
<path d="M85.5627 225.485H87.1193H88.6899C96.8587 225.485 103.49 219.904 103.49 213.004C103.49 213.004 103.429 196.094 103.294 195.295C102.17 188.009 96.0502 176.755 88.6945 176.755H87.124H85.5673C78.2163 176.755 72.092 188.004 70.9489 195.295C70.8281 196.094 70.763 213.004 70.763 213.004C70.7584 219.899 77.3892 225.485 85.5627 225.485Z" fill="#EBB07A"/>
<path d="M96.6356 205.452C96.9423 205.081 97.1235 204.625 97.1235 204.137C97.1235 202.85 95.8968 201.805 94.382 201.805C92.8532 201.805 91.6265 202.85 91.6265 204.137C91.6265 204.625 91.8077 205.081 92.1191 205.452H96.6356Z" fill="#333333"/>
<path opacity="0.2" d="M86.0645 207.73H87.1192H88.1926L89.6563 196.876L87.1192 193.972L84.5961 196.876L86.0645 207.73Z" fill="#616161"/>
<path d="M77.6215 205.452C77.3055 205.081 77.1243 204.625 77.1243 204.137C77.1243 202.85 78.3603 201.805 79.8798 201.805C81.3992 201.805 82.6213 202.85 82.6213 204.137C82.6213 204.625 82.4401 205.081 82.1334 205.452H77.6215Z" fill="#333333"/>
<g opacity="0.2">
<path d="M90.0932 187.019H84.0432V188.515H90.0932V187.019Z" fill="#616161"/>
</g>
<path d="M82.9047 211.324L74.7034 210.325L82.9047 209.345V211.324Z" fill="#D66142"/>
<path d="M91.343 209.345L99.3771 210.325L91.343 211.324V209.345Z" fill="#D66142"/>
<path d="M65.726 218.732C65.8097 217.273 66.265 215.735 67.0178 214.16C69.1646 218.397 73.7555 221.255 78.8668 221.329C83.0581 221.385 87.347 217.738 87.347 217.738C87.347 217.738 91.9054 221.385 95.9758 221.385C101.227 221.385 105.776 218.328 107.885 213.899C108.703 215.633 109.182 217.31 109.182 218.862C109.182 226.125 103.253 231.984 95.9758 231.984C91.9054 231.984 91.5058 230.377 87.4399 230.377C83.3834 230.377 83.0628 231.984 78.8715 231.919C71.5715 231.817 65.3543 225.981 65.726 218.732Z" fill="#D66142"/>
<path d="M90.7065 184.867C87.4306 183.942 87.1007 178.152 87.1007 178.152C87.1007 178.152 86.7383 183.993 83.4205 184.867H90.7065Z" fill="#D66142"/>
<path d="M77.8306 188.425C77.8771 187.779 78.0723 187.119 78.4068 186.399C79.3548 188.267 81.3853 189.549 83.6436 189.577C85.4976 189.614 89.4148 189.614 91.2177 189.614C93.5457 189.614 95.5577 188.253 96.487 186.292C96.8448 187.054 97.0586 187.807 97.0586 188.49C97.0586 191.701 94.4378 194.298 91.2177 194.298C89.4148 194.298 87.4353 191.603 87.4353 191.603C87.4353 191.603 85.5023 194.298 83.6436 194.27C80.4235 194.224 77.668 191.636 77.8306 188.425Z" fill="#D66142"/>
<path d="M45.7918 173.438L52.0602 167.57L54.8063 159.238C54.8063 159.238 45.5084 161.102 45.4526 160.874L45.7918 173.438Z" fill="#757575"/>
<path d="M127.796 173.438L121.523 167.57L118.777 159.238C118.777 159.238 128.075 161.102 128.126 160.874L127.796 173.438Z" fill="#757575"/>
<path d="M124.032 168.82L124.906 167.073L126.96 160.405C126.96 160.405 115.38 163.63 115.901 163.286L124.032 168.82Z" fill="#9C4129"/>
<path d="M38.2688 150.527L44.5186 148.654L55.7914 145.299L56.507 145.095L70.9721 140.764L71.3717 140.644L72.2592 140.388L76.6689 139.064L78.3695 138.562L83.8805 136.908L86.6127 136.09L97.2722 132.916L99.4886 132.261L99.9952 132.117L102.774 131.281L104.526 130.76L109.577 129.25L117.174 126.982L117.188 129.124L117.248 135.388L122.243 126.931V125.472L127.545 123.878L140.263 120.082V137.939L140.221 138.855V138.92V138.943L140.096 141.615L139.668 142.618L137.164 148.557L134.655 154.486L131.987 160.833L130.974 163.208L129.864 165.88L127.991 166.34L124.906 167.074L124.757 167.106L124.52 167.162L124.139 167.269L123.935 167.301L123.275 167.473L122.378 167.692H122.355L122.267 167.72L121.807 167.831L113.359 169.876L112.453 170.099L112.072 170.182L111.156 170.415L104.391 172.05L104.265 172.078L103.489 172.264L100.929 172.896L100.367 173.035L95.3624 174.234H78.7971L74.866 173.282L73.9134 173.049L73.379 172.919L67.3709 171.46L61.9622 170.145L51.9068 167.71L51.326 167.571L48.998 167.009L45.7918 166.223L45.592 166.182L44.3931 165.88L41.8839 159.607L39.384 153.324L38.6824 151.586L38.2688 150.527Z" fill="#ABABAB"/>
<path opacity="0.2" d="M67.3709 171.463L84.7913 154.043L85.5347 153.299L88.4993 150.335L88.5272 150.307L93.304 145.521L93.5595 145.27L101.933 136.897L104.507 134.327L105.678 133.147L106.96 131.864L109.577 129.253L117.174 126.985L117.188 129.127L109.4 136.897L108.104 138.207L107.202 139.104L104.516 141.799L103.694 142.621L102.881 143.43L102.532 143.765L92.6906 153.615L92.5326 153.764L92.1562 154.136L92.1516 154.145L89.331 156.989L88.6015 157.709L73.379 172.922L67.3709 171.463Z" fill="white"/>
<path opacity="0.2" d="M45.7919 166.223L56.2655 155.754L71.1069 140.912L71.3718 140.643L72.2593 140.387L76.669 139.063L78.3696 138.561L83.8806 136.907L86.6128 136.089L97.2723 132.915L99.4887 132.26L99.9953 132.116L99.6049 132.507L98.025 134.082L90.5578 141.549L89.7911 142.306L85.7718 146.33L85.2932 146.8L81.3714 150.74L61.9623 170.144L51.9069 167.71L51.326 167.57L48.9981 167.008L45.7919 166.223Z" fill="white"/>
<path opacity="0.2" d="M70.9721 140.763L71.3717 140.642L72.2546 140.387L76.6643 139.062L78.3696 138.561L83.8805 136.911L86.6128 136.093L97.2723 132.915L99.4887 132.26L99.9952 132.116L102.774 131.279L104.526 130.759L105.678 133.143L108.104 138.207L115.919 154.471L119.697 162.379L120.064 163.137L120.073 163.16L122.202 167.57V167.588L122.262 167.718L121.802 167.83L113.354 169.87L112.448 170.093L112.067 170.181L111.152 170.413L104.386 172.049L104.265 172.082L103.485 172.267C101.092 169.828 95.4368 164.289 88.5969 157.705C87.3702 156.511 86.0784 155.284 84.7866 154.039C83.6668 152.947 82.533 151.855 81.3667 150.739C77.9839 147.478 74.4943 144.127 71.1022 140.912C71.065 140.87 71.0093 140.828 70.9721 140.763Z" fill="#616161"/>
<path d="M86.6128 136.091L97.2722 132.913L99.4886 132.258L99.9952 132.114L102.774 131.277L104.507 134.316L107.202 139.093L115.919 154.464L119.019 159.938L120.306 162.224L123.275 167.47L124.032 168.818L123.122 169.064L105.59 173.437C105.418 173.181 105 172.716 104.386 172.047C101.914 169.403 96.1663 163.697 89.3311 156.987C88.0904 155.784 86.8358 154.539 85.5347 153.293C84.4102 152.183 83.2718 151.077 82.1334 149.966C78.8714 146.769 75.5026 143.521 72.2592 140.389L76.6689 139.065L78.3742 138.563L83.8852 136.914L86.6128 136.091Z" fill="#D66142"/>
<path d="M101.78 175.631L100.929 172.885L87.8163 165.278L88.1973 174.232L101.78 175.631Z" fill="#EBEBEB"/>
<path d="M73.1235 175.631L73.9739 172.885L87.0775 165.278L86.6964 174.232L73.1235 175.631Z" fill="#EBEBEB"/>
<path opacity="0.2" d="M88.4993 150.333L86.0645 147.749C86.9334 148.646 87.7652 149.505 88.5226 150.305C89.9724 151.815 91.2037 153.111 92.1516 154.134C93.0717 155.1 93.7315 155.806 94.0939 156.201L92.147 154.143L88.4993 150.333Z" fill="#616161"/>
<path opacity="0.2" d="M85.2931 146.798C82.3843 144.043 79.443 141.399 76.6642 139.061L78.3696 138.56L85.7671 146.329L89.0476 149.781L89.4007 150.167L92.6859 153.61L99.196 160.464L99.3632 160.654C99.3075 160.585 99.261 160.524 99.182 160.473C97.1607 158.401 94.9164 156.11 92.528 153.763C91.4221 152.676 90.2743 151.547 89.122 150.446C89.0011 150.325 88.8757 150.199 88.7549 150.079C87.6071 148.973 86.4641 147.881 85.2931 146.798Z" fill="#616161"/>
<path opacity="0.2" d="M97.2722 132.916L99.4887 132.261L99.6049 132.507L101.933 136.894L104.516 141.796L107.379 147.251L110.841 153.357L103.694 142.618L100.706 138.12L98.0249 134.082L97.2722 132.916Z" fill="#616161"/>
<path opacity="0.2" d="M83.8806 136.909L86.6128 136.091L88.648 139.172L90.5578 141.551L93.5596 145.268L95.0093 147.066L93.304 145.519L89.7911 142.308L83.8806 136.909Z" fill="#616161"/>
<path opacity="0.2" d="M117.248 135.39L122.243 126.933V125.474L127.545 123.88L131.407 124.665L126.1 127.095L117.248 135.39Z" fill="#616161"/>
<path opacity="0.2" d="M38.2688 150.526L44.5186 148.653L55.7914 145.298L56.507 145.094L57.1854 153.546L56.2654 155.753L54.811 159.238L51.326 167.57L48.998 167.007L45.7918 166.222L45.592 166.18L44.3931 165.878L41.8839 159.605L39.384 153.323L38.6824 151.585L38.2688 150.526Z" fill="#616161"/>
<path d="M44.5186 148.653L55.7914 145.294L55.8518 153.291L52.9709 159.039L52.6689 159.671L49.0026 167.003L45.7965 173.434C45.7965 173.434 37.6137 163.132 37.3674 163.318C37.3163 163.318 37.0793 162.11 36.754 160.242C36.3869 157.979 35.8619 154.703 35.3461 151.395L37.9807 150.628L38.2735 150.521L44.5186 148.653Z" fill="#ABABAB"/>
<path opacity="0.2" d="M117.021 152.642L117.244 138.419L136.62 141.695C136.62 141.695 136.643 142.489 136.523 143.265L130.97 163.209L129.855 165.881L124.748 167.108L124.511 167.163L124.13 167.27L123.926 167.303L117.021 152.642Z" fill="#616161"/>
<path d="M117.248 136.776L135.547 138.421L140.217 138.858H140.226C140.226 138.858 140.226 138.881 140.217 138.923C140.217 138.932 140.217 138.932 140.217 138.946C140.161 139.313 139.957 140.698 139.664 142.622C138.632 149.485 136.551 163.327 136.332 163.327C136.072 163.142 127.903 173.443 127.903 173.443L127.852 173.313L124.753 167.114L117.852 153.3L117.248 136.776Z" fill="#ABABAB"/>
<path opacity="0.2" d="M35.3275 151.397H35.3508L35.3879 151.383L37.9715 150.63L38.2503 150.514L38.6174 150.416L39.5885 150.124L44.514 148.655L41.8933 159.603L41.2567 162.293L45.7639 173.417C45.2946 172.832 37.7345 163.32 37.3581 163.32C37.2977 163.32 37.084 162.103 36.7401 160.244C36.7215 160.091 36.6844 159.928 36.6658 159.747C36.6054 159.412 36.5357 159.068 36.4799 158.692C36.4195 158.255 36.3359 157.795 36.2569 157.317C36.2197 156.959 36.1639 156.583 36.0756 156.201C36.0756 156.09 36.0338 155.955 36.0152 155.807L35.8387 154.659C35.7922 154.394 35.755 154.143 35.7225 153.864C35.7039 153.762 35.7039 153.66 35.6853 153.562C35.5599 152.847 35.4623 152.122 35.3275 151.397Z" fill="white"/>
<path opacity="0.2" d="M127.857 173.306L132.327 162.298L131.997 160.839L128.14 144.756L135.551 138.418L137.182 137.029C137.182 137.029 139.594 127.252 139.864 126.927C139.929 126.844 140.049 126.89 140.268 126.969V137.917L140.231 138.85C140.231 138.85 140.231 138.874 140.231 138.916C140.231 138.939 140.231 138.939 140.231 138.939L140.101 141.62L139.673 142.614V142.675C139.557 143.432 139.436 144.245 139.292 145.142C138.66 149.389 137.824 154.895 137.182 158.724C137.127 159.091 137.085 159.435 137.02 159.747C136.667 161.912 136.393 163.324 136.332 163.324C135.933 163.324 127.903 173.45 127.903 173.45H127.806L127.857 173.306Z" fill="white"/>
<path d="M133.344 153.887C133.586 152.075 139.25 145.003 139.25 145.003C139.25 145.003 139.269 145.054 139.287 145.142C138.656 149.389 137.819 154.896 137.178 158.725C136.541 158.887 135.826 158.971 135.524 158.938C133.981 158.725 133.01 156.471 133.344 153.887Z" fill="#D66142"/>
<path d="M35.3926 151.384L37.9762 150.631L38.255 150.515L38.622 150.417C39.6071 151.871 40.4017 153.228 40.4854 153.888C40.8199 156.472 39.8488 158.725 38.32 158.939C37.9762 158.972 37.1909 158.869 36.4892 158.693C36.4706 158.693 36.452 158.674 36.4288 158.674L36.085 156.202L36.0246 155.807L35.848 154.659L35.3926 151.384Z" fill="#D66142"/>
<path opacity="0.2" d="M101.589 167.569C99.3076 163.321 104.54 151.719 104.54 151.719C104.54 151.719 116.542 156.193 117.783 160.71C118.549 163.466 117.141 166.388 114.716 167.448C113.345 168.061 111.273 167.527 111.273 167.527C111.273 167.527 110.315 169.395 108.861 170.017C106.329 171.1 102.992 170.189 101.589 167.569Z" fill="#616161"/>
<path d="M101.719 166.074C100.241 162.236 104.897 153.356 104.897 153.356C104.897 153.356 114.809 155.856 116.477 159.634C117.615 162.222 116.519 165.196 114.061 166.293C112.685 166.897 110.557 166.265 110.557 166.265C110.557 166.265 109.679 168.221 108.243 168.825C105.762 169.889 102.727 168.737 101.719 166.074Z" fill="#FFD675"/>
<path opacity="0.2" d="M106.171 156.202C109.907 157.378 113.68 159.213 114.288 160.584C114.586 161.272 114.623 162.024 114.377 162.708C114.149 163.349 113.689 163.846 113.103 164.097C113.094 164.097 112.95 164.167 112.578 164.167C112.011 164.167 111.412 164.027 111.222 163.976L109.247 163.404L108.378 165.282C108.122 165.849 107.592 166.508 107.309 166.629C107.002 166.759 106.672 166.834 106.319 166.834C105.506 166.834 104.391 166.411 103.949 165.235C103.35 163.674 104.688 159.478 106.171 156.202Z" fill="#616161"/>
<path opacity="0.2" d="M35.3275 151.395C35.3926 151.757 35.4576 152.115 35.5134 152.473C35.6063 153.054 35.6946 153.625 35.7783 154.178C35.8061 154.341 35.834 154.494 35.8526 154.652L36.0292 155.8C36.0478 155.949 36.0896 156.083 36.0896 156.195L36.4335 158.667C36.4567 158.667 36.4706 158.686 36.4938 158.686C36.545 159.062 36.6147 159.401 36.6797 159.74C36.6937 159.922 36.7308 160.084 36.7541 160.238C36.833 160.679 36.9074 161.097 36.9771 161.464C37.0468 161.882 37.1212 162.231 37.1723 162.519C37.2791 163.03 37.3395 163.318 37.3721 163.318C37.7438 163.318 45.3039 172.83 45.7779 173.415L45.7686 173.402C45.7779 173.402 45.8058 173.434 45.8058 173.434L51.9208 167.705L61.9762 170.14L67.3849 171.455L73.393 172.914L73.9227 173.044H73.9321L73.1328 175.627L78.8064 178.146V179.902C74.7127 183.768 71.7249 190.413 70.9582 195.287C70.9535 195.38 70.935 195.706 70.921 196.175C70.8792 196.268 70.8188 196.347 70.7723 196.449C70.0149 198.047 65.8236 216.904 65.74 218.349C65.7353 218.474 65.7493 218.576 65.74 218.702C65.74 218.702 65.74 218.711 65.74 218.72C65.3683 225.974 71.5855 231.805 78.8807 231.908C83.0488 231.973 83.4019 230.384 87.4027 230.365V135.856L86.6267 136.084L83.8945 136.902L78.3836 138.552L76.6782 139.053L72.2686 140.378L71.3857 140.633L70.9861 140.754L56.5256 145.085L55.8054 145.289L44.5326 148.649L39.6071 150.117L39.2865 150.21L38.4501 150.466L38.2689 150.507L38.1388 150.568L37.9901 150.624L35.8898 151.228L35.4066 151.376L35.3554 151.39C35.3554 151.39 35.3554 151.39 35.3647 151.39H35.3275V151.395Z" fill="#616161"/>
<path d="M40.6851 52.2512C40.3645 58.2035 28.4179 67.246 28.4179 67.246C28.4179 67.246 16.1461 58.1385 16.1461 52.1583C16.1461 48.0692 19.501 44.7607 23.604 44.7607C25.8994 44.7607 28.469 46.8239 28.469 46.8239C28.469 46.8239 30.9039 44.7608 33.2737 44.7887C37.3767 44.8537 40.9035 48.1482 40.6851 52.2512Z" fill="#D66142"/>
<path opacity="0.2" d="M33.269 44.7982C30.8992 44.7657 28.4644 46.8334 28.4644 46.8334C28.4644 46.8334 28.4272 46.8149 28.3854 46.7777V67.2323C28.3993 67.2416 28.4086 67.2509 28.4086 67.2509C28.4086 67.2509 40.3552 58.2085 40.6758 52.2561C40.9035 48.1485 37.3767 44.854 33.269 44.7982Z" fill="#616161"/>
<path d="M147.335 206.847C147.656 200.895 159.598 191.853 159.598 191.853C159.598 191.853 171.874 200.965 171.874 206.926C171.874 211.02 168.52 214.333 164.417 214.333C162.112 214.333 159.547 212.265 159.547 212.265C159.547 212.265 157.112 214.333 154.747 214.305C150.644 214.254 147.117 210.95 147.335 206.847Z" fill="#D66142"/>
<path opacity="0.2" d="M154.751 214.305C157.112 214.333 159.551 212.266 159.551 212.266C159.551 212.266 159.579 212.293 159.635 212.331V191.876C159.612 191.867 159.598 191.857 159.598 191.857C159.598 191.857 147.656 200.895 147.335 206.852C147.117 210.951 150.644 214.254 154.751 214.305Z" fill="#616161"/>
</svg>
