<svg width="187" height="258" viewBox="0 0 187 258" fill="none" xmlns="http://www.w3.org/2000/svg">
<path d="M21.3699 257.982C10.4921 257.996 1.60764 249.307 1.43572 238.262L0.873459 19.5293C1.00357 9.11149 9.86477 0.366461 20.7937 0.389695L165.342 0.654551C176.22 0.673138 185.067 9.42746 185.067 20.1706V238.429C185.067 249.103 176.248 257.796 165.403 257.81L21.3699 257.982Z" fill="#C9C9C9"/>
<path d="M22.9591 257.825C12.0673 257.839 3.19217 249.145 3.16429 238.453L2.61132 19.7203C2.57415 8.954 11.44 0.213616 22.3597 0.227556L166.917 0.497056C177.791 0.520289 186.643 9.26997 186.643 20.0131V238.272C186.643 248.945 177.823 257.639 166.973 257.653L22.9591 257.825Z" fill="white"/>
<path d="M165.584 253.346H23.1403C14.8134 253.346 8.03859 246.599 8.03859 238.314V20.1018C8.03859 11.8121 14.8134 5.0791 23.1403 5.0791H165.584C173.901 5.0791 180.676 11.8168 180.676 20.1018V238.314C180.681 246.599 173.901 253.346 165.584 253.346ZM23.1403 11.0361C18.0986 11.0361 14.0049 15.102 14.0049 20.1018V238.314C14.0049 243.314 18.094 247.38 23.1403 247.38H165.584C170.616 247.38 174.71 243.314 174.71 238.314V20.1018C174.71 15.1066 170.616 11.0361 165.584 11.0361H23.1403Z" fill="#D66142"/>
<path d="M36.1045 35.6618C35.9744 35.8663 35.4214 36.3309 34.4688 37.0465C33.2514 37.9712 32.1734 38.5613 31.2487 38.8216L26.3186 29.7652L26.0351 29.9604V37.8876H20.2175V17.2424H26.0351V28.952C27.0295 28.8126 27.9356 28.1296 28.7441 26.8889C29.4783 25.7644 29.8454 24.7003 29.8454 23.7013C29.8454 22.9857 29.7292 22.3677 29.5062 21.8426C29.2367 21.3733 28.9858 20.904 28.7441 20.4301C28.7441 20.2256 29.3854 19.6355 30.6679 18.6782C31.7134 17.8883 32.4754 17.3168 32.9447 16.959C33.3025 17.261 33.6371 17.7722 33.9298 18.497C34.2318 19.2266 34.3852 19.8678 34.3852 20.4301C34.3852 20.918 34.283 21.5174 34.0646 22.233C33.8462 22.9485 33.5674 23.5898 33.2328 24.152C32.7031 24.9791 32.2245 25.6111 31.7877 26.0432C30.9234 26.9307 30.4634 27.414 30.4123 27.5116L36.1045 35.6618Z" fill="#333333"/>
<path d="M153.344 225.11C153.484 224.901 154.023 224.446 154.989 223.735C156.207 222.81 157.271 222.215 158.2 221.955L163.14 231.011L163.432 230.816V222.894H169.241V243.539H163.432V231.834C162.429 231.964 161.527 232.652 160.723 233.892C159.98 235.022 159.613 236.081 159.613 237.085C159.613 237.791 159.724 238.418 159.952 238.943C160.222 239.413 160.468 239.882 160.723 240.351C160.723 240.56 160.078 241.141 158.8 242.098C157.75 242.888 156.978 243.465 156.514 243.822C156.156 243.525 155.83 243.004 155.528 242.284C155.226 241.555 155.068 240.913 155.068 240.347C155.068 239.859 155.185 239.259 155.398 238.544C155.612 237.823 155.886 237.182 156.23 236.62C156.755 235.793 157.234 235.161 157.67 234.733C158.535 233.851 158.995 233.363 159.046 233.26L153.344 225.11Z" fill="#333333"/>
<path d="M146.988 82.598V108.08L120.474 116.054L69.9044 131.235L64.6955 132.801L41.713 139.701V81.2087C41.8757 81.1297 42.4472 80.809 43.344 80.2933C43.5485 80.1771 43.725 80.0749 43.9388 79.9541C47.6793 77.8305 55.3324 73.458 62.3071 69.4805C62.8414 69.1877 63.3712 68.8857 63.8962 68.5697C64.412 68.2909 64.9324 67.9935 65.4296 67.7147C65.9454 67.422 66.4612 67.1246 66.963 66.8411C68.3524 66.0466 69.6627 65.3124 70.8337 64.6386C70.9313 64.5736 71.0195 64.5364 71.1171 64.476C71.1961 64.4342 71.2751 64.3784 71.3541 64.3366C71.8513 64.0578 72.3206 63.7837 72.7853 63.5234C72.7853 63.5234 72.7853 63.5234 72.8085 63.5234C73.4033 63.1889 73.9377 62.8636 74.4163 62.6081C74.6719 62.4547 74.8949 62.3339 75.1086 62.2131C75.2666 62.1295 75.3921 62.0504 75.5036 61.9947C75.629 61.911 75.7406 61.8553 75.8475 61.7949C75.9636 61.7391 76.0659 61.6741 76.1681 61.6183C76.2657 61.5533 76.3493 61.5114 76.4236 61.4743C76.5212 61.4138 76.5863 61.3906 76.5863 61.3906H111.683C111.683 61.3906 111.785 61.4324 111.92 61.5347C112.026 61.5718 112.161 61.6509 112.31 61.7438C112.398 61.7903 112.496 61.8274 112.57 61.8878C112.677 61.9482 112.774 62.004 112.895 62.0691C113.304 62.3107 113.866 62.6034 114.489 62.9658C114.968 63.2214 115.479 63.5234 116.036 63.8394C116.25 63.9556 116.473 64.0996 116.687 64.2205C116.845 64.318 117.031 64.4202 117.212 64.4992V64.5178C117.407 64.6386 117.626 64.7595 117.849 64.8756C118.169 65.0522 118.513 65.2334 118.824 65.4286C118.941 65.489 119.066 65.5726 119.164 65.6284C119.619 65.8654 120.093 66.1442 120.572 66.4276C125.381 69.1691 131.347 72.5659 136.356 75.4096C136.858 75.7116 137.346 75.9858 137.82 76.246C138.536 76.6689 139.233 77.0638 139.892 77.4402C140.325 77.6772 140.747 77.9142 141.17 78.1558C141.584 78.3928 141.974 78.6158 142.337 78.8342C142.899 79.1502 143.415 79.4336 143.865 79.7124C144.107 79.8472 144.344 79.9819 144.562 80.1074C145.831 80.8416 146.584 81.2551 146.584 81.2551L146.988 82.598Z" fill="#D66142"/>
<path d="M94.4108 91.6705L84.8062 75.0215H104.025L94.4108 91.6705ZM86.6416 76.0856L94.4108 89.5377L102.18 76.0856H86.6416Z" fill="#FFD675"/>
<path opacity="0.2" d="M81.5117 61.3857C81.3259 61.4322 46.5967 81.2456 46.5967 81.2456L41.7269 96.2729V139.705L64.6861 132.81L69.8951 131.248L83.6166 86.2036L85.466 80.1769L88.1378 74.4243L94.132 61.6274V61.3857H81.5117Z" fill="#616161"/>
<path d="M76.5909 61.3865C76.5862 61.3865 76.5258 61.4143 76.4283 61.4701C76.3586 61.5073 76.2703 61.5537 76.1634 61.6141C76.0751 61.6653 75.9682 61.7257 75.8521 61.7861C75.7591 61.8372 75.643 61.9069 75.5129 61.9766C75.3967 62.0463 75.2666 62.1206 75.1132 62.195C74.9041 62.3111 74.6765 62.4459 74.4209 62.59C73.9516 62.8548 73.4126 63.1662 72.8039 63.51C72.7899 63.51 72.7806 63.5147 72.7806 63.5147C72.3392 63.7702 71.8466 64.0351 71.3541 64.3325C71.1822 64.4301 71.0102 64.523 70.8337 64.6298C69.6673 65.2943 68.357 66.0285 66.9676 66.8231C66.4658 67.1112 65.9546 67.3946 65.4389 67.692C64.937 67.9801 64.4213 68.2682 63.8962 68.5702C63.3851 68.863 62.8507 69.165 62.3163 69.4717C60.0627 70.7541 57.744 72.0692 55.5136 73.3516C54.8399 73.728 54.1707 74.1183 53.5155 74.4901C49.6216 76.7205 46.1134 78.7186 43.9574 79.9453C43.7436 80.0661 43.5391 80.1776 43.3486 80.2891C42.4611 80.8003 41.8849 81.1209 41.7269 81.2092V139.706L45.8206 138.475L48.1115 137.782L64.4306 132.885L64.6908 132.806C65.4528 130.998 66.2567 129.079 67.0931 127.081C72.5947 113.857 79.2952 97.1147 83.6259 86.1997C86.3349 79.4062 88.1193 74.885 88.1193 74.885L88.1471 74.4204L89.3321 61.3818L76.5909 61.3865Z" fill="#EBEBEB"/>
<path opacity="0.2" d="M146.988 98.9159L141.667 81.2446C141.667 81.2446 106.938 61.4312 106.762 61.3848H94.1366V61.6264L102.807 80.1759L114.071 118.669L146.988 106.746V98.9159Z" fill="#616161"/>
<path d="M146.988 82.5968V108.079L120.474 116.053C116.371 108.298 106.576 88.1403 102.264 79.2373C100.953 76.5561 100.159 74.888 100.159 74.888L98.9413 61.3848H111.682C111.682 61.3848 111.785 61.4266 111.919 61.5288C112.026 61.566 112.161 61.645 112.31 61.7379C112.398 61.7844 112.496 61.8216 112.57 61.882C112.677 61.9424 112.774 61.9981 112.895 62.0632C113.304 62.3048 113.866 62.5975 114.489 62.96C114.94 63.2388 115.479 63.5176 116.036 63.8336C116.25 63.9497 116.473 64.0938 116.687 64.2146C116.845 64.3122 117.031 64.4144 117.189 64.512H117.212C117.407 64.6328 117.626 64.7536 117.849 64.8698C118.169 65.0463 118.485 65.2276 118.824 65.4227C118.94 65.4831 119.066 65.5668 119.164 65.6225C119.619 65.8828 120.093 66.1383 120.572 66.4218C125.381 69.1633 131.347 72.56 136.356 75.4038C136.858 75.7058 137.346 75.9799 137.82 76.2402C138.536 76.663 139.233 77.058 139.892 77.4344C140.325 77.6713 140.747 77.9083 141.17 78.1499C141.56 78.3869 141.955 78.6099 142.336 78.8283C142.899 79.1443 143.415 79.4278 143.865 79.7066C144.107 79.8413 144.344 79.9761 144.562 80.1015C145.831 80.8357 146.584 81.2493 146.584 81.2493L146.988 82.5968Z" fill="#EBEBEB"/>
<path d="M114.415 52.7906L114.052 48.0464L114.038 47.8698L112.956 33.3397L107.556 30.6121L97.1338 25.3428L94.2529 26.8901L91.3627 25.3428L80.9495 30.6121L75.5501 33.3397L74.4674 47.8698L74.4534 48.0464L74.1003 52.7906L75.6058 66.4379L94.2297 80.2106V80.2431V80.2478L94.2529 80.2292L94.2808 80.2478V80.2431V80.2106L112.928 66.3775L114.415 52.7906Z" fill="#EBBE9F"/>
<path d="M94.2807 61.3806L100.661 61.1622L95.8838 58.1605C95.8838 58.1605 95.1125 58.1465 94.2807 58.1279C94.2621 58.1279 94.2575 58.1279 94.2575 58.1279C94.2436 58.1279 94.2436 58.1279 94.2343 58.1279C93.3886 58.1465 92.6312 58.1605 92.6312 58.1605L87.8544 61.1622L94.2343 61.3806V61.3899H94.2575H94.2807V61.3806Z" fill="#EBBE9F"/>
<path opacity="0.2" d="M98.1375 52.2461L95.5168 43.1572H94.2808H94.2297H92.9937L90.3683 52.2461L92.9937 55.0527L94.2297 55.0992H94.2529H94.2808L95.5168 55.0527L98.1375 52.2461Z" fill="#616161"/>
<path d="M97.0084 40.7274L105.224 39.6959L105.405 39.668L105.493 39.7237L109.401 41.7961L105.135 40.6019L105.405 40.6252L97.4451 42.8695L97.0084 40.7274Z" fill="#9C9C9C"/>
<path d="M99.8893 44.1602C99.7592 44.4529 99.6848 44.7735 99.6848 45.1174C99.6848 46.3906 100.721 47.4361 101.999 47.4361C103.286 47.4361 104.318 46.3906 104.318 45.1174C104.318 44.7735 104.239 44.4529 104.108 44.1602H99.8893Z" fill="#333333"/>
<path d="M91.4881 40.7274L83.2774 39.6959L83.0962 39.668L83.0172 39.7237L79.0954 41.7961L83.361 40.6019L83.0915 40.6252L91.0559 42.8695L91.4881 40.7274Z" fill="#9C9C9C"/>
<path d="M88.6071 44.1602C88.7512 44.4529 88.8302 44.7735 88.8302 45.1174C88.8302 46.3906 87.7847 47.4361 86.5068 47.4361C85.2197 47.4361 84.1835 46.3906 84.1835 45.1174C84.1835 44.7735 84.2578 44.4529 84.3972 44.1602H88.6071Z" fill="#333333"/>
<path d="M114.052 48.0495C113.918 48.1471 113.843 48.2029 113.843 48.2029L110.047 34.7926L107.561 30.6152L112.956 33.3428L114.043 47.873L114.052 48.0495Z" fill="#9C9C9C"/>
<path d="M74.4534 48.0495C74.5882 48.1471 74.6625 48.2029 74.6625 48.2029L78.4542 34.7926L80.9495 30.6152L75.55 33.3428L74.4673 47.873L74.4534 48.0495Z" fill="#9C9C9C"/>
<path d="M113.309 28.1601V33.7035C108.49 35.0139 103.1 35.5854 97.9284 35.7295C94.4852 35.8317 91.1396 35.7434 88.1146 35.5761C86.6137 35.4832 85.2011 35.3763 83.8815 35.2602C82.3202 35.1208 80.9169 34.9721 79.6995 34.828C76.786 34.4749 74.9971 34.1589 74.9971 34.1589V28.885C74.9971 28.885 94.0577 18.7041 94.1552 18.7041C94.1552 18.7459 96.5344 19.9308 99.6197 21.4503C100.591 21.9382 101.655 22.454 102.719 22.979C103.727 23.4762 104.759 23.9827 105.758 24.4706C108.592 25.86 111.185 27.1146 112.463 27.7419C113.002 28.0067 113.309 28.1601 113.309 28.1601Z" fill="#FFD675"/>
<path opacity="0.2" d="M102.719 22.977L83.8815 35.2535C82.3202 35.1141 80.9169 34.9654 79.6995 34.8214L99.6197 21.4482C100.591 21.9361 101.655 22.4519 102.719 22.977Z" fill="white"/>
<path opacity="0.2" d="M112.463 27.7419L97.9284 35.7249C94.4852 35.8272 91.1396 35.7389 88.1146 35.5716L105.758 24.4707C108.592 25.8601 111.185 27.1193 112.463 27.7419Z" fill="white"/>
<path d="M56.508 99.7773L55.8807 104.252L58.0833 100.312L56.508 99.7773Z" fill="#333333"/>
<path d="M65.3181 99.7773L64.6815 104.252L66.884 100.312L65.3181 99.7773Z" fill="#333333"/>
<path d="M74.1235 99.7773L73.4915 104.252L75.6848 100.312L74.1235 99.7773Z" fill="#333333"/>
<path d="M45.5001 114.199L44.8681 118.674L47.0707 114.729L45.5001 114.199Z" fill="#333333"/>
<path d="M54.3009 114.199L53.6736 118.674L55.8807 114.729L54.3009 114.199Z" fill="#333333"/>
<path d="M63.1063 114.199L62.4837 118.674L64.6815 114.729L63.1063 114.199Z" fill="#333333"/>
<path d="M48.1998 128.725L47.5632 133.199L49.7658 129.264L48.1998 128.725Z" fill="#333333"/>
<path d="M57.0006 128.725L56.364 133.199L58.5758 129.264L57.0006 128.725Z" fill="#333333"/>
<path d="M66.4148 128.381C66.0012 129.38 65.6062 130.347 65.2252 131.244L65.1044 131.286L65.5458 128.084L66.4148 128.381Z" fill="#333333"/>
<path d="M71.9211 74.6348L71.2798 79.1095L73.4916 75.1692L71.9211 74.6348Z" fill="#333333"/>
<path d="M63.1063 72.833L62.4837 77.3031L64.6815 73.3581L63.1063 72.833Z" fill="#333333"/>
<path d="M54.9003 74.458L53.6689 76.6512L53.8966 75.0203C54.2265 74.839 54.5611 74.6439 54.9003 74.458Z" fill="#333333"/>
<path d="M47.54 137.785L46.3876 138.129L46.4805 137.432L47.54 137.785Z" fill="#333333"/>
<path d="M45.7231 85.2393L45.1005 89.714L47.2937 85.769L45.7231 85.2393Z" fill="#333333"/>
<path d="M55.523 85.2393L54.8817 89.714L57.0935 85.769L55.523 85.2393Z" fill="#333333"/>
<path d="M64.3237 85.2393L63.6964 89.714L65.9036 85.769L64.3237 85.2393Z" fill="#333333"/>
<path d="M73.1245 85.2393L72.4972 89.714L74.6997 85.769L73.1245 85.2393Z" fill="#333333"/>
<path d="M82.153 76.9707L81.5211 81.4408L83.7282 77.4958L82.153 76.9707Z" fill="#333333"/>
<path d="M46.7082 99.7773L46.0809 104.252L48.2881 100.312L46.7082 99.7773Z" fill="#333333"/>
<path d="M133.889 99.7773L134.516 104.252L132.323 100.312L133.889 99.7773Z" fill="#333333"/>
<path d="M125.084 99.7773L125.715 104.252L123.513 100.312L125.084 99.7773Z" fill="#333333"/>
<path d="M116.283 99.7773L116.905 104.252L114.708 100.312L116.283 99.7773Z" fill="#333333"/>
<path d="M118.49 74.6348L119.117 79.1095L116.905 75.1692L118.49 74.6348Z" fill="#333333"/>
<path d="M127.286 72.833L127.913 77.3031L125.716 73.3581L127.286 72.833Z" fill="#333333"/>
<path d="M135.497 74.458L136.733 76.6512L136.5 75.0203C136.171 74.839 135.836 74.6439 135.497 74.458Z" fill="#333333"/>
<path d="M144.674 85.2393L145.311 89.714L143.108 85.769L144.674 85.2393Z" fill="#333333"/>
<path d="M134.879 85.2393L135.511 89.714L133.304 85.769L134.879 85.2393Z" fill="#333333"/>
<path d="M126.078 85.2393L126.71 89.714L124.493 85.769L126.078 85.2393Z" fill="#333333"/>
<path d="M117.273 85.2393L117.904 89.714L115.693 85.769L117.273 85.2393Z" fill="#333333"/>
<path d="M108.244 76.9707L108.885 81.4408L106.669 77.4958L108.244 76.9707Z" fill="#333333"/>
<path d="M143.689 99.7773L144.316 104.252L142.109 100.312L143.689 99.7773Z" fill="#333333"/>
<path opacity="0.2" d="M117.217 64.4934V64.512H117.193C116.52 68.5453 108.588 74.8229 102.268 79.2373C97.9563 82.2623 94.4155 84.4044 94.4155 84.4044C94.4155 84.4044 71.238 72.4624 71.1265 64.4702C71.2055 64.4283 71.2844 64.3726 71.3634 64.3308C71.8606 64.052 72.3299 63.7778 72.7946 63.5176C72.7946 63.5176 72.7946 63.5176 72.8178 63.5176C73.4126 63.183 73.947 62.8578 74.4256 62.6022C74.6812 62.4489 74.9042 62.328 75.1179 62.2072C75.2759 62.1236 75.4014 62.0446 75.5129 61.9888C75.6384 61.9052 75.7499 61.8494 75.8568 61.789C75.9729 61.7333 76.0752 61.6682 76.1774 61.6124C76.275 61.5474 76.3586 61.5056 76.433 61.4684C76.5305 61.408 76.5956 61.3848 76.5956 61.3848H111.692C111.692 61.3848 111.794 61.4266 111.929 61.5288C112.036 61.566 112.17 61.645 112.319 61.7379C112.407 61.7844 112.505 61.8216 112.579 61.882C112.686 61.9424 112.784 61.9981 112.905 62.0632C113.314 62.3048 113.876 62.5975 114.498 62.96C114.977 63.2155 115.488 63.5176 116.046 63.8336C116.26 63.9497 116.483 64.0938 116.696 64.2146C116.85 64.3122 117.031 64.4097 117.217 64.4934Z" fill="#616161"/>
<path d="M113.713 64.1581C113.1 70.8725 93.8254 80.7141 93.8254 80.7141C93.8254 80.7141 74.393 70.0314 74.5324 63.2891C74.5928 58.6564 80.0341 55.0227 86.5766 55.1528C90.2475 55.2179 94.3226 57.6527 94.3226 57.6527C94.3226 57.6527 98.2676 55.3898 102.041 55.5013C108.592 55.6918 114.164 59.53 113.713 64.1581Z" fill="#9C9C9C"/>
<path d="M90.1545 58.126L94.3551 59.1018L98.5325 58.126L99.6151 63.6648L89.109 63.6277L90.1545 58.126Z" fill="#EBBE9F"/>
<path opacity="0.2" d="M98.7508 60.1943H90.424V61.83H98.7508V60.1943Z" fill="#616161"/>
<path opacity="0.2" d="M103.616 96.6741C103.783 101.298 93.7603 108.5 93.7603 108.5C93.7603 108.5 84.0116 101.13 84.6808 95.9352C85.1036 92.7058 88.0078 90.3128 91.0746 90.3732C92.7474 90.4057 94.5642 91.8787 94.5642 91.8787C94.5642 91.8787 96.2834 90.4847 97.9144 90.5312C100.675 90.6195 103.514 93.756 103.616 96.6741Z" fill="#616161"/>
<path d="M102.835 95.7391C102.529 99.9397 93.9508 106.18 93.9508 106.18C93.9508 106.18 85.4009 99.5679 85.4846 95.3488C85.5311 92.4446 87.9473 90.1538 90.8515 90.2049C92.4778 90.2375 94.2668 91.7383 94.2668 91.7383C94.2668 91.7383 96.0232 90.3072 97.696 90.3629C100.591 90.4605 103.044 92.8396 102.835 95.7391Z" fill="#FFD675"/>
<path opacity="0.2" d="M93.9973 103.149C90.7958 100.408 87.8219 96.9691 87.8545 95.3892C87.8916 93.814 89.2159 92.5687 90.8004 92.6012C91.2744 92.6012 92.2781 93.1867 92.7334 93.5677L94.2483 94.8362L95.7677 93.5863C96.1999 93.2378 97.1152 92.7313 97.6031 92.7452C98.4535 92.7685 99.2481 93.1355 99.801 93.7489C100.126 94.1113 100.507 94.7247 100.438 95.5611C100.335 97.1782 97.2454 100.519 93.9973 103.149Z" fill="#616161"/>
<path d="M97.2825 23.5904C97.1756 25.1052 94.0856 27.3542 94.0856 27.3542C94.0856 27.3542 91.0002 24.9705 91.0374 23.4556C91.0514 22.4055 91.9249 21.5784 92.9658 21.597C93.5513 21.6063 94.2018 22.1453 94.2018 22.1453C94.2018 22.1453 94.8384 21.6342 95.4424 21.6528C96.474 21.6806 97.3569 22.5403 97.2825 23.5904Z" fill="#D66142"/>
<path opacity="0.2" d="M146.988 98.9029V82.5977L146.584 81.2456C146.584 81.2456 145.831 80.832 144.562 80.0978C144.344 79.977 144.102 79.8376 143.865 79.7029C143.41 79.4241 142.894 79.1406 142.337 78.8246C141.979 78.6062 141.584 78.3832 141.17 78.1462C140.752 77.9046 140.325 77.6676 139.892 77.4306C139.233 77.0543 138.536 76.6593 137.82 76.2364C137.416 76.018 136.988 75.7764 136.57 75.5255L136.496 75.019C136.17 74.8331 135.836 74.638 135.497 74.4567L135.878 75.1352C130.971 72.3472 125.232 69.0806 120.572 66.4227C120.093 66.1392 119.614 65.8604 119.164 65.6235C119.066 65.5677 118.945 65.4841 118.824 65.4237C118.513 65.2331 118.169 65.0473 117.849 64.8707C117.63 64.7545 117.407 64.6337 117.212 64.5129V64.4943C117.031 64.4107 116.845 64.3131 116.687 64.2155C116.478 64.0947 116.255 63.9553 116.036 63.8345C115.479 63.5185 114.968 63.2165 114.489 62.9609C114.173 62.7843 113.88 62.6171 113.611 62.4684C113.56 62.2546 113.495 62.0502 113.42 61.8411L114.405 52.7894L114.043 48.0451L114.034 47.8732L112.979 33.7845C113.081 33.7473 113.202 33.738 113.304 33.7009V28.1574C113.304 28.1574 112.997 28.004 112.458 27.7438C111.181 27.1165 108.588 25.8619 105.753 24.4726C104.754 23.9847 103.723 23.4782 102.714 22.981C101.65 22.4559 100.586 21.9401 99.6151 21.4522C96.5297 19.9328 94.1506 18.7479 94.1506 18.7061C94.1413 18.7061 94.0531 18.7479 93.9044 18.8269V124.037L113.876 118.033L114.062 118.674L125.334 114.59L146.983 108.085V106.751V98.9168V98.9029H146.988Z" fill="#616161"/>
<path d="M146.988 118.068V176.565C146.825 176.644 146.249 176.965 145.352 177.481C145.157 177.597 144.976 177.699 144.767 177.82C144.288 178.08 143.768 178.373 143.187 178.712C143.089 178.786 142.992 178.824 142.894 178.893C142.392 179.149 141.858 179.469 141.3 179.781C140.627 180.18 139.906 180.599 139.158 181.017C138.401 181.458 137.606 181.89 136.793 182.369C136.277 182.662 135.729 182.964 135.199 183.284C134.539 183.665 133.866 184.042 133.215 184.413C130.989 185.687 128.661 187.006 126.394 188.293C125.873 188.609 125.325 188.911 124.828 189.204H124.805C124.298 189.488 123.773 189.78 123.271 190.064C122.756 190.357 122.24 190.659 121.738 190.937C120.349 191.727 119.061 192.471 117.891 193.14C117.788 193.205 117.691 193.261 117.584 193.303C117.509 193.344 117.435 193.419 117.351 193.442C116.85 193.725 116.371 193.995 115.916 194.255C115.916 194.255 115.916 194.255 115.902 194.255C115.298 194.59 114.759 194.91 114.285 195.166C114.224 195.208 114.168 195.245 114.108 195.268C114.122 195.291 114.108 195.291 114.108 195.291C113.913 195.389 113.755 195.486 113.588 195.565C113.509 195.607 113.434 195.649 113.374 195.682C113.304 195.723 113.253 195.761 113.193 195.784C113.067 195.863 112.956 195.919 112.849 195.979C112.798 195.998 112.733 196.035 112.695 196.081C112.635 196.095 112.589 196.118 112.528 196.156C112.431 196.239 112.352 196.253 112.273 196.295C112.175 196.355 112.115 196.393 112.115 196.393H77.0138C77.0138 196.393 76.9162 196.337 76.7814 196.239C76.6792 196.193 76.5352 196.118 76.3865 196.016C76.3028 195.979 76.2006 195.937 76.1262 195.9C76.0194 195.821 75.9218 195.761 75.801 195.705C75.6755 195.621 75.5036 195.547 75.3503 195.449C75.2713 195.412 75.1876 195.366 75.1133 195.329C75.09 195.305 75.09 195.305 75.09 195.305C74.8112 195.152 74.5185 194.989 74.2211 194.813C73.7472 194.553 73.2314 194.255 72.6691 193.939C72.4507 193.823 72.237 193.684 72.0139 193.563C71.856 193.461 71.6701 193.358 71.4889 193.279V193.256C71.303 193.135 71.0753 193.019 70.8616 192.922C70.5456 192.722 70.2017 192.545 69.8811 192.35C69.765 192.285 69.6488 192.206 69.5419 192.15C69.0865 191.927 68.6126 191.63 68.134 191.356C65.7316 189.985 63.0505 188.451 60.3276 186.899C59.1891 186.268 58.0368 185.612 56.9169 184.971C56.587 184.771 56.2664 184.595 55.9504 184.409C54.877 183.795 53.8408 183.201 52.8279 182.643C52.6652 182.546 52.5119 182.448 52.3446 182.364C52.2935 182.327 52.2099 182.285 52.1495 182.243H52.1262C51.7127 182.007 51.3038 181.77 50.8763 181.528C50.1607 181.11 49.4637 180.715 48.8039 180.338C48.3717 180.101 47.9535 179.86 47.5307 179.618C47.1403 179.386 46.7454 179.163 46.3644 178.94C45.8114 178.624 45.3003 178.345 44.8356 178.071C44.5986 177.931 44.357 177.787 44.1386 177.671C42.8654 176.937 42.1126 176.514 42.1126 176.514L41.713 175.167V149.684L63.3618 143.184L63.478 143.142L63.6128 143.105L68.2316 141.711L74.802 139.745H74.8205V139.726L94.7966 133.742L118.797 126.525H118.811L124.019 124.955L124.284 124.876L140.594 119.987L142.88 119.29L146.988 118.068Z" fill="#D66142"/>
<path d="M87.8127 181.695L88.0961 182.271L88.3099 182.764H100.661C100.698 182.662 100.758 182.49 100.833 182.271C100.921 182.113 100.991 181.914 101.07 181.695H87.8127ZM102.203 179.827L101.99 179.404L100.521 176.9V176.877L94.8105 167.003L94.318 166.152L94.2994 166.11L94.2622 166.189L87.6036 177.718C87.6036 177.736 87.6036 177.736 87.5803 177.736L86.7625 179.167L86.7114 179.288L84.6994 182.764H103.913L102.203 179.827ZM86.5209 181.695L87.2365 180.464L87.3201 180.348C87.3201 180.348 87.3201 180.348 87.3201 180.329L89.6016 176.375L94.2948 168.243L94.8105 169.135L98.644 175.775V175.789L101.469 180.659L101.669 180.994L101.873 181.347L102.064 181.691L86.5209 181.695ZM87.8127 181.695L88.0961 182.271L88.3099 182.764H100.661C100.698 182.662 100.758 182.49 100.833 182.271C100.921 182.113 100.991 181.914 101.07 181.695H87.8127Z" fill="#FFD675"/>
<path opacity="0.2" d="M107.208 196.398C107.389 196.356 142.123 176.538 142.123 176.538L146.988 161.511V118.083L124.015 124.979L118.815 126.545L105.084 171.575L103.249 177.611L100.568 183.364L94.5829 196.161V196.403L107.208 196.398Z" fill="#616161"/>
<path d="M112.129 196.399C112.133 196.399 112.194 196.366 112.291 196.315C112.366 196.273 112.44 196.227 112.561 196.171C112.644 196.115 112.742 196.055 112.867 195.999C112.965 195.939 113.072 195.874 113.197 195.809C113.318 195.734 113.453 195.66 113.597 195.576C113.811 195.46 114.038 195.33 114.294 195.181C114.763 194.916 115.298 194.61 115.906 194.266C115.925 194.266 115.93 194.257 115.93 194.257C116.385 194.001 116.859 193.736 117.365 193.443C117.533 193.346 117.705 193.253 117.886 193.141C119.057 192.482 120.363 191.747 121.752 190.953C122.249 190.674 122.756 190.377 123.271 190.079C123.787 189.796 124.298 189.512 124.823 189.21C125.33 188.918 125.869 188.611 126.408 188.304C128.648 187.026 130.976 185.707 133.206 184.42C133.88 184.052 134.549 183.667 135.199 183.295C139.098 181.065 142.592 179.071 144.767 177.845C144.967 177.719 145.171 177.608 145.357 177.496C146.249 176.99 146.821 176.66 146.988 176.571V118.079L142.899 119.31L140.603 119.994L124.284 124.891L124.02 124.975C123.262 126.778 122.472 128.701 121.631 130.695C116.129 143.919 109.429 160.666 105.089 171.567C102.389 178.37 100.6 182.895 100.6 182.895L100.568 183.355L99.3922 196.394L112.129 196.399Z" fill="#EBEBEB"/>
<path opacity="0.2" d="M94.5689 196.167V196.404H81.9486C81.9114 196.39 79.3371 194.936 75.6337 192.831C75.4943 192.752 75.3735 192.668 75.2388 192.612C74.3559 192.097 73.4498 191.576 72.4694 191.019C69.1516 189.132 65.3182 186.944 61.6798 184.88C61.5776 184.815 61.48 184.76 61.3824 184.699C53.8084 180.382 47.0521 176.526 47.0521 176.526L41.7177 158.878V151.043L63.3665 143.191L63.4827 143.149L63.6175 143.111L68.2363 141.718L74.8067 139.752H74.8252L85.7774 177.158L85.8982 177.594L86.3536 178.589L86.6975 179.286L87.2272 180.457L87.6082 181.228L87.8034 181.688L88.0868 182.264L88.3006 182.757L88.584 183.338L93.6117 194.132L94.4621 195.939L94.5689 196.167Z" fill="#616161"/>
<path d="M89.7596 196.398H77.0185C77.0185 196.398 76.9209 196.342 76.7861 196.245C76.6839 196.198 76.5399 196.124 76.3912 196.022C76.3075 195.984 76.2053 195.943 76.131 195.905C76.0241 195.826 75.9265 195.766 75.8057 195.71C75.6802 195.627 75.5083 195.552 75.355 195.455C75.276 195.418 75.1923 195.371 75.118 195.334C75.0948 195.311 75.0948 195.311 75.0948 195.311C74.816 195.157 74.5232 194.995 74.2259 194.818C73.7519 194.558 73.2361 194.261 72.6739 193.945C72.4555 193.828 72.2417 193.689 72.0187 193.568C71.8607 193.466 71.6748 193.364 71.5215 193.266H71.4982C71.3124 193.145 71.0847 193.029 70.871 192.932C70.555 192.732 70.2111 192.555 69.8905 192.36C69.7743 192.295 69.6582 192.216 69.5513 192.16C69.0959 191.937 68.622 191.64 68.1433 191.366C65.741 189.995 63.0599 188.462 60.3369 186.91C59.1985 186.278 58.0462 185.622 56.9263 184.981C56.5964 184.781 56.2758 184.605 55.9598 184.419C54.8864 183.806 53.8502 183.211 52.8372 182.653C52.6746 182.556 52.5213 182.458 52.354 182.374C52.3029 182.337 52.2192 182.295 52.1588 182.254H52.1356C51.722 182.017 51.3131 181.78 50.8856 181.538C50.1701 181.12 49.4731 180.725 48.8132 180.348C48.3811 180.111 47.9629 179.87 47.54 179.628C47.1497 179.396 46.7547 179.173 46.3737 178.95C45.8208 178.634 45.3096 178.355 44.845 178.081C44.608 177.941 44.3664 177.797 44.148 177.681C42.8748 176.947 42.122 176.524 42.122 176.524L41.7224 175.177V149.694L63.3712 143.194L63.4874 143.152L63.6221 143.115L68.2409 141.721C72.1302 149.095 81.1959 167.723 85.7821 177.165C86.0284 177.639 86.2421 178.095 86.4466 178.536C86.5395 178.755 86.6603 178.973 86.7579 179.173C86.9624 179.591 87.1343 179.967 87.3202 180.33C87.3202 180.348 87.3202 180.348 87.3202 180.348C87.4782 180.641 87.6175 180.925 87.7337 181.185C87.8127 181.357 87.8917 181.543 87.9939 181.701C88.0683 181.896 88.1519 182.063 88.2123 182.193C88.3517 182.472 88.4307 182.653 88.4958 182.769C88.5329 182.853 88.5469 182.895 88.5469 182.895L88.5933 183.35L89.5645 194.117L89.7596 196.398Z" fill="#EBEBEB"/>
<path d="M74.3094 204.989L74.6672 209.738L74.6765 209.914L75.7638 224.44L81.1586 227.172L91.5811 232.441L94.4666 230.894L97.3429 232.441L107.765 227.172L113.174 224.44L114.247 209.914L114.266 209.738L114.619 204.989L113.123 191.346L94.4853 177.573V177.536L94.4666 177.555L94.4388 177.536V177.573L75.7824 191.397L74.3094 204.989Z" fill="#EBBE9F"/>
<path d="M94.4388 196.404L88.0589 196.622L92.8357 199.624C92.8357 199.624 93.5978 199.643 94.4388 199.652C94.4527 199.652 94.4667 199.652 94.4667 199.652C94.4667 199.652 94.476 199.652 94.4853 199.652C95.331 199.643 96.0977 199.624 96.0977 199.624L100.86 196.622L94.4853 196.404V196.395H94.4667H94.4388V196.404Z" fill="#EBBE9F"/>
<path opacity="0.2" d="M90.582 205.534L93.1935 214.627H94.4388H94.4852H95.7352L98.3466 205.534L95.7352 202.732L94.4852 202.685V202.681L94.4666 202.685L94.4388 202.681V202.685L93.1935 202.732L90.582 205.534Z" fill="#616161"/>
<path d="M91.7066 217.066L83.4866 218.098L83.3147 218.126L83.2171 218.07L79.3093 215.997L83.5749 217.192L83.3147 217.168L91.2791 214.929L91.7066 217.066Z" fill="#9C9C9C"/>
<path d="M88.8163 213.63C88.9604 213.338 89.0347 213.012 89.0347 212.673C89.0347 211.395 87.9939 210.354 86.716 210.354C85.4335 210.354 84.402 211.391 84.402 212.673C84.402 213.017 84.4764 213.338 84.6111 213.63H88.8163Z" fill="#333333"/>
<path d="M97.2314 217.066L105.437 218.098L105.614 218.126L105.712 218.07L109.619 215.997L105.354 217.192L105.623 217.168L97.6542 214.929L97.2314 217.066Z" fill="#9C9C9C"/>
<path d="M100.103 213.63C99.9776 213.338 99.8893 213.012 99.8893 212.673C99.8893 211.395 100.921 210.354 102.208 210.354C103.49 210.354 104.531 211.391 104.531 212.673C104.531 213.017 104.457 213.338 104.318 213.63H100.103Z" fill="#333333"/>
<path d="M74.6672 209.741C74.7973 209.638 74.8717 209.592 74.8717 209.592L78.668 222.997L81.1586 227.175L75.7638 224.443L74.6765 209.912L74.6672 209.741Z" fill="#9C9C9C"/>
<path d="M114.266 209.741C114.131 209.638 114.057 209.592 114.057 209.592L110.261 222.997L107.77 227.175L113.174 224.443L114.252 209.912L114.266 209.741Z" fill="#9C9C9C"/>
<path d="M75.4014 229.624V224.076C80.2246 222.765 85.6148 222.203 90.7865 222.059C94.2297 221.957 97.5706 222.04 100.6 222.217C102.101 222.31 103.518 222.412 104.829 222.528C106.39 222.663 107.798 222.821 109.025 222.965C111.938 223.314 113.718 223.625 113.718 223.625V228.899C113.718 228.899 94.6618 239.08 94.5643 239.08C94.5643 239.033 92.1805 237.848 89.1044 236.338C88.1333 235.85 87.0692 235.33 86.0051 234.805C84.9875 234.308 83.9606 233.801 82.9615 233.309C80.1224 231.924 77.5342 230.665 76.2517 230.037C75.7174 229.777 75.4014 229.624 75.4014 229.624Z" fill="#FFD675"/>
<path opacity="0.2" d="M86.0005 234.804L104.829 222.522C106.39 222.657 107.798 222.815 109.025 222.959L89.0998 236.332C88.1286 235.844 87.0645 235.329 86.0005 234.804Z" fill="white"/>
<path opacity="0.2" d="M76.2471 230.042L90.7865 222.059C94.2297 221.957 97.5707 222.04 100.6 222.217L82.9569 233.313C80.1178 231.924 77.5296 230.665 76.2471 230.042Z" fill="white"/>
<path d="M132.202 158.01L132.848 153.535L130.632 157.476L132.202 158.01Z" fill="#333333"/>
<path d="M123.401 158.01L124.029 153.535L121.826 157.476L123.401 158.01Z" fill="#333333"/>
<path d="M114.591 158.01L115.233 153.535L113.025 157.476L114.591 158.01Z" fill="#333333"/>
<path d="M143.21 143.585L143.847 139.115L141.644 143.06L143.21 143.585Z" fill="#333333"/>
<path d="M134.409 143.585L135.037 139.115L132.848 143.06L134.409 143.585Z" fill="#333333"/>
<path d="M125.604 143.585L126.241 139.115L124.029 143.06L125.604 143.585Z" fill="#333333"/>
<path d="M140.529 129.05L141.152 124.585L138.949 128.521L140.529 129.05Z" fill="#333333"/>
<path d="M131.714 129.05L132.346 124.585L130.144 128.521L131.714 129.05Z" fill="#333333"/>
<path d="M122.291 129.399C122.704 128.391 123.109 127.438 123.485 126.537L123.62 126.495L123.165 129.692L122.291 129.399Z" fill="#333333"/>
<path d="M116.799 183.149L117.435 178.67L115.233 182.61L116.799 183.149Z" fill="#333333"/>
<path d="M125.604 184.941L126.241 180.48L124.029 184.412L125.604 184.941Z" fill="#333333"/>
<path d="M133.819 183.323L135.055 181.135L134.823 182.761C134.493 182.947 134.163 183.142 133.819 183.323Z" fill="#333333"/>
<path d="M141.18 119.996L142.332 119.661L142.225 120.353L141.18 119.996Z" fill="#333333"/>
<path d="M142.992 172.539L143.619 168.069L141.417 172.014L142.992 172.539Z" fill="#333333"/>
<path d="M133.197 172.539L133.833 168.069L131.626 172.014L133.197 172.539Z" fill="#333333"/>
<path d="M124.391 172.539L125.032 168.069L122.825 172.014L124.391 172.539Z" fill="#333333"/>
<path d="M115.586 172.539L116.222 168.069L114.02 172.014L115.586 172.539Z" fill="#333333"/>
<path d="M106.567 180.817L107.194 176.342L104.991 180.287L106.567 180.817Z" fill="#333333"/>
<path d="M142.007 158.01L142.629 153.535L140.432 157.476L142.007 158.01Z" fill="#333333"/>
<path d="M54.8306 158.013L54.194 153.538L56.3965 157.478L54.8306 158.013Z" fill="#333333"/>
<path d="M63.6361 158.013L62.9995 153.538L65.202 157.478L63.6361 158.013Z" fill="#333333"/>
<path d="M72.4461 158.013L71.8095 153.538L74.0074 157.478L72.4461 158.013Z" fill="#333333"/>
<path d="M70.2297 183.152L69.6024 178.673L71.8096 182.613L70.2297 183.152Z" fill="#333333"/>
<path d="M61.4289 184.943L60.7923 180.482L62.9995 184.414L61.4289 184.943Z" fill="#333333"/>
<path d="M53.2135 183.326L51.9868 181.138L52.2145 182.764C52.5398 182.95 52.8836 183.145 53.2135 183.326Z" fill="#333333"/>
<path d="M44.0364 172.542L43.3998 168.072L45.6163 172.017L44.0364 172.542Z" fill="#333333"/>
<path d="M53.8316 172.542L53.1997 168.072L55.4068 172.017L53.8316 172.542Z" fill="#333333"/>
<path d="M62.6417 172.542L62.0051 168.072L64.2122 172.017L62.6417 172.542Z" fill="#333333"/>
<path d="M71.4425 172.542L70.8059 168.072L73.0131 172.017L71.4425 172.542Z" fill="#333333"/>
<path d="M80.4616 180.82L79.8343 176.346L82.0415 180.291L80.4616 180.82Z" fill="#333333"/>
<path d="M45.0354 158.013L44.3988 153.538L46.606 157.478L45.0354 158.013Z" fill="#333333"/>
<path opacity="0.2" d="M71.5074 193.298V193.275H71.526C72.2044 189.242 80.1316 182.959 86.4464 178.545C90.7585 175.52 94.2993 173.378 94.2993 173.378C94.2993 173.378 117.477 185.325 117.593 193.317C117.514 193.354 117.43 193.414 117.356 193.461C116.854 193.735 116.38 194.014 115.92 194.274C115.92 194.274 115.92 194.274 115.902 194.274C115.307 194.609 114.768 194.934 114.289 195.185C114.034 195.347 113.811 195.468 113.597 195.584C113.434 195.663 113.313 195.742 113.193 195.803C113.081 195.877 112.956 195.942 112.863 195.998C112.737 196.063 112.64 196.119 112.547 196.184C112.445 196.244 112.37 196.281 112.287 196.319C112.189 196.379 112.129 196.398 112.129 196.398H77.023C77.023 196.398 76.9254 196.36 76.7906 196.258C76.6838 196.221 76.549 196.142 76.3864 196.04C76.3121 195.998 76.2052 195.961 76.1308 195.91C76.0333 195.845 75.931 195.784 75.8149 195.728C75.3967 195.487 74.8391 195.185 74.2211 194.832C73.7425 194.571 73.2267 194.274 72.6784 193.958C72.4553 193.837 72.2369 193.693 72.0185 193.582C71.8605 193.47 71.684 193.373 71.5074 193.298Z" fill="#616161"/>
<path d="M74.9971 193.632C75.6151 186.918 94.8895 177.076 94.8895 177.076C94.8895 177.076 114.322 187.768 114.187 194.506C114.117 199.134 108.676 202.772 102.134 202.642C98.4674 202.572 94.3877 200.142 94.3877 200.142C94.3877 200.142 90.4566 202.405 86.6695 202.298C80.1177 202.098 74.5557 198.265 74.9971 193.632Z" fill="#9C9C9C"/>
<path d="M98.5557 199.659L94.3552 198.688L90.1731 199.659L89.109 194.12L99.6058 194.157L98.5557 199.659Z" fill="#EBBE9F"/>
<path opacity="0.2" d="M98.2816 195.958H89.9641V197.598H98.2816V195.958Z" fill="#616161"/>
<path opacity="0.2" d="M85.0989 161.113C84.927 156.485 94.9545 149.287 94.9545 149.287C94.9545 149.287 104.694 156.657 104.034 161.852C103.616 165.081 100.712 167.47 97.6403 167.404C95.9628 167.372 94.1459 165.904 94.1459 165.904C94.1459 165.904 92.422 167.307 90.7911 167.251C88.0402 167.163 85.1965 164.031 85.0989 161.113Z" fill="#616161"/>
<path d="M85.8749 162.047C86.1816 157.837 94.7594 151.602 94.7594 151.602C94.7594 151.602 103.319 158.209 103.24 162.433C103.184 165.328 100.772 167.628 97.8727 167.572C96.2417 167.544 94.448 166.034 94.448 166.034C94.448 166.034 92.6962 167.475 91.0327 167.414C88.1146 167.326 85.6658 164.947 85.8749 162.047Z" fill="#FFD675"/>
<path opacity="0.2" d="M94.7175 154.646C97.9051 157.383 100.884 160.822 100.846 162.392C100.823 163.968 99.5035 165.222 97.9051 165.19C97.4358 165.185 96.4368 164.6 95.9767 164.219L94.4573 162.955L92.9378 164.205C92.5103 164.549 91.5949 165.05 91.1024 165.041C90.252 165.013 89.4574 164.646 88.8952 164.037C88.5746 163.67 88.1936 163.062 88.254 162.225C88.3748 160.604 91.4741 157.263 94.7175 154.646Z" fill="#616161"/>
<path d="M91.437 234.199C91.5438 232.68 94.6339 230.431 94.6339 230.431C94.6339 230.431 97.7286 232.819 97.696 234.339C97.6728 235.384 96.8039 236.211 95.7537 236.188C95.1682 236.179 94.527 235.635 94.527 235.635C94.527 235.635 93.8951 236.151 93.2864 236.132C92.2455 236.1 91.3626 235.24 91.437 234.199Z" fill="#D66142"/>
<path opacity="0.2" d="M74.8159 139.758L68.2455 141.724L63.6267 143.118L63.4919 143.155L63.3757 143.197L41.7269 149.698V151.05V158.884V175.185L42.1265 176.532C42.1265 176.532 42.8793 176.95 44.1525 177.689C44.3709 177.805 44.6125 177.949 44.8495 178.089C45.3095 178.363 45.8253 178.642 46.3782 178.958C46.7593 179.176 47.1542 179.399 47.5446 179.636C47.9674 179.878 48.3856 180.119 48.8177 180.356C49.4776 180.737 50.1746 181.128 50.8902 181.546C51.313 181.787 51.7219 182.024 52.1401 182.261L52.2238 182.777C52.5444 182.958 52.8789 183.154 53.2228 183.339L52.8417 182.661C53.8547 183.223 54.8863 183.818 55.9643 184.427C56.2803 184.608 56.6009 184.789 56.9308 184.989C58.0507 185.626 59.203 186.285 60.3415 186.917C63.0598 188.469 65.7455 190.003 68.1479 191.374C68.6265 191.652 69.1051 191.945 69.5558 192.168C69.6627 192.224 69.7742 192.303 69.895 192.368C70.2157 192.563 70.5549 192.744 70.8755 192.939C71.0892 193.037 71.3169 193.153 71.5028 193.274V193.297C71.684 193.376 71.8699 193.478 72.0279 193.581C72.2463 193.702 72.46 193.841 72.683 193.957C73.2453 194.273 73.7611 194.575 74.235 194.831C74.5324 195.007 74.8298 195.17 75.1039 195.323C75.1272 195.384 75.155 195.467 75.169 195.528C75.169 195.542 75.1876 195.542 75.1876 195.565C75.2015 195.7 75.248 195.825 75.2991 195.96L74.3094 205.007L74.6904 209.756V209.937L75.7452 224.007V224.03C75.6476 224.049 75.5221 224.068 75.4245 224.086V229.63C75.4245 229.63 75.7219 229.788 76.2563 230.048C77.5527 230.684 80.1316 231.934 82.9754 233.328C83.9651 233.825 85.0106 234.323 86.0236 234.82C87.0691 235.331 88.1285 235.865 89.1229 236.353C92.2037 237.859 94.5874 239.053 94.5874 239.09C94.5874 239.09 94.6757 239.048 94.8244 238.969V235.865V232.515V231.084V230.587V229.072V225.875V222.06V214.644V202.721V200.397V199.682V198.808V197.6V196.429V196.406V195.951V195.658V194.148V182.773V181.704V177.833V177.108V173.647V169.135V167.006V166.375V166.309V163.233V154.721V151.663V149.372V133.755L74.8484 139.758V139.74L74.8159 139.758Z" fill="#616161"/>
<path d="M41.49 52.3842C41.1787 58.332 29.2228 67.3837 29.2228 67.3837C29.2228 67.3837 16.9603 58.2716 16.9603 52.3006C16.9603 48.2115 20.3059 44.8984 24.4089 44.8984C26.709 44.8984 29.2832 46.9616 29.2832 46.9616C29.2832 46.9616 31.7135 44.8985 34.0786 44.9263C38.1909 44.9821 41.7084 48.2812 41.49 52.3842Z" fill="#D66142"/>
<path opacity="0.2" d="M34.0786 44.9251C31.7134 44.8972 29.2832 46.9603 29.2832 46.9603C29.2832 46.9603 29.246 46.9464 29.1949 46.9046V67.3638C29.2182 67.3731 29.2228 67.3824 29.2228 67.3824C29.2228 67.3824 41.1787 58.3353 41.49 52.383C41.7084 48.28 38.1909 44.9808 34.0786 44.9251Z" fill="#616161"/>
<path d="M148.15 206.975C148.461 201.018 160.407 191.976 160.407 191.976C160.407 191.976 172.679 201.088 172.679 207.059C172.679 211.152 169.334 214.461 165.235 214.461C162.931 214.461 160.366 212.388 160.366 212.388C160.366 212.388 157.931 214.461 155.566 214.424C151.449 214.373 147.926 211.073 148.15 206.975Z" fill="#D66142"/>
<path opacity="0.2" d="M155.561 214.428C157.926 214.466 160.361 212.393 160.361 212.393C160.361 212.393 160.389 212.416 160.44 212.458V191.999C160.426 191.985 160.403 191.98 160.403 191.98C160.403 191.98 148.456 201.023 148.145 206.98C147.927 211.074 151.449 214.373 155.561 214.428Z" fill="#616161"/>
</svg>
