<svg width="186" height="260" viewBox="0 0 186 260" fill="none" xmlns="http://www.w3.org/2000/svg">
<path d="M21.1242 259.801C10.186 259.801 1.2644 251.079 1.23652 240.327L0.669585 20.5258C0.650998 9.70831 9.55867 0.921405 20.5202 0.949285L165.78 1.21886C176.709 1.2328 185.607 10.0382 185.607 20.8324V240.15C185.607 250.88 176.741 259.611 165.854 259.625L21.1242 259.801Z" fill="#C9C9C9"/>
<path d="M22.927 259.248C12.1421 259.248 3.35071 250.489 3.35071 239.728V20.4606C3.35071 9.70356 12.1421 0.949219 22.927 0.949219H166.058C176.853 0.949219 185.635 9.70356 185.635 20.4606V239.728C185.635 250.489 176.853 259.248 166.058 259.248H22.927Z" fill="white"/>
<path d="M26.3798 17.4914C25.9988 18.1187 25.4969 18.7506 24.9114 19.4058C24.1261 20.2282 23.4058 20.7673 22.7228 21.0228C22.286 21.1715 21.5797 21.2831 20.5992 21.3435C19.6188 21.4178 19.1263 21.7709 19.1263 22.4122C19.1263 22.9605 19.4237 23.3044 20.0231 23.4298C21.0918 23.6761 21.9887 24.0897 22.7507 24.6798C23.4988 25.2653 24.0564 25.9018 24.4095 26.5895C24.7673 27.268 24.9346 27.951 24.9346 28.6619C24.9346 29.6842 24.6884 30.6972 24.1958 31.6916C23.9682 32.1656 23.5778 32.7929 23.0109 33.5735C21.5797 35.4043 20.3252 36.6635 19.21 37.328C18.0994 38.0018 16.6357 38.341 14.8468 38.341C13.7873 38.341 12.8858 38.1923 12.1516 37.8856C11.1898 37.486 10.7112 36.868 10.7112 36.0408C10.7112 35.4972 11.1434 34.5725 12.003 33.2668C12.858 31.9611 13.5224 31.3059 13.9917 31.3059C14.317 31.3059 14.4982 31.6916 14.5168 32.4583C14.5493 33.2157 14.6516 33.7687 14.8468 34.0846C15.0931 34.3449 15.2975 34.5493 15.4694 34.6794C16.041 35.0929 16.6217 35.302 17.2351 35.302C18.0018 35.302 18.6849 35.0418 19.2704 34.5028C20.0046 33.8476 20.3809 32.8858 20.3809 31.6358C20.3809 30.4091 19.9906 29.3497 19.182 28.4529C18.3875 27.5653 17.4396 27.0542 16.3197 26.9194C16.0967 26.8916 15.9294 26.8637 15.8179 26.8637C15.474 26.808 15.2929 26.7568 15.2464 26.7196C15.1581 26.6081 15.107 26.4037 15.107 26.1202C15.2046 25.3861 15.2788 24.6473 15.3532 23.9084C15.4182 23.165 15.4462 22.4633 15.4462 21.7756C15.4462 21.4596 15.3903 21.2644 15.2742 21.1901C15.172 21.1297 14.935 21.0925 14.5725 21.0925V20.4141C14.856 20.0517 15.395 19.5359 16.1942 18.8482C17.1979 17.9886 17.8902 17.5704 18.2573 17.5704H24.3491C24.6186 17.5704 24.9439 17.4774 25.3157 17.2683C25.6967 17.0732 25.9244 16.9756 25.9941 16.9756L26.3984 17.1801V17.4914H26.3798Z" fill="#333333"/>
<path d="M163.823 245.121C164.209 244.494 164.692 243.862 165.287 243.216C166.072 242.379 166.797 241.845 167.471 241.599C167.912 241.445 168.619 241.334 169.609 241.283C170.584 241.199 171.077 240.855 171.077 240.205C171.077 239.661 170.775 239.326 170.171 239.187C169.111 238.941 168.21 238.523 167.448 237.932C166.69 237.361 166.137 236.715 165.789 236.037C165.44 235.349 165.268 234.666 165.268 233.96C165.268 232.942 165.506 231.934 165.998 230.93C166.226 230.456 166.616 229.833 167.188 229.053C168.609 227.217 169.869 225.967 170.993 225.294C172.104 224.62 173.568 224.285 175.357 224.285C176.407 224.285 177.313 224.439 178.038 224.741C179.009 225.131 179.497 225.758 179.497 226.581C179.497 227.124 179.06 228.049 178.2 229.359C177.341 230.665 176.681 231.32 176.202 231.32C175.895 231.32 175.705 230.939 175.682 230.177C175.654 229.406 175.542 228.862 175.361 228.542C175.115 228.267 174.896 228.068 174.724 227.942C174.162 227.524 173.581 227.315 172.977 227.315C172.197 227.315 171.523 227.58 170.937 228.123C170.194 228.779 169.827 229.74 169.827 230.99C169.827 232.217 170.231 233.267 171.026 234.169C171.816 235.056 172.768 235.567 173.888 235.693C174.116 235.73 174.283 235.758 174.395 235.758C174.725 235.814 174.92 235.855 174.966 235.893C175.064 235.999 175.11 236.208 175.11 236.492C175.008 237.226 174.924 237.97 174.855 238.708C174.79 239.443 174.762 240.154 174.762 240.841C174.762 241.157 174.822 241.348 174.929 241.422C175.04 241.478 175.282 241.52 175.64 241.52V242.193C175.356 242.556 174.817 243.072 174.023 243.755C173.024 244.619 172.332 245.042 171.95 245.042H165.859C165.603 245.042 165.269 245.125 164.892 245.339C164.516 245.53 164.297 245.632 164.218 245.632L163.823 245.441V245.121Z" fill="#333333"/>
<path d="M44.8966 42.6864C45.3752 51.5383 63.1394 64.9997 63.1394 64.9997C63.1394 64.9997 81.3962 51.4361 81.3962 42.5749C81.3962 36.4645 76.4149 31.5391 70.3092 31.5391C66.8846 31.5391 63.0651 34.6291 63.0651 34.6291C63.0651 34.6291 59.4454 31.5391 55.9232 31.5995C49.8082 31.6599 44.5713 36.5761 44.8966 42.6864Z" fill="#D66142"/>
<path opacity="0.2" d="M55.9231 31.5985C59.4453 31.5381 63.065 34.6281 63.065 34.6281C63.065 34.6281 63.1207 34.591 63.1811 34.5399V64.9662C63.1486 64.9802 63.1347 64.9988 63.1347 64.9988C63.1347 64.9988 45.3704 51.542 44.8918 42.6855C44.5712 36.5751 49.8081 31.6589 55.9231 31.5985Z" fill="#616161"/>
<path d="M147.132 42.6864C146.649 51.5383 128.899 64.9997 128.899 64.9997C128.899 64.9997 110.624 51.4361 110.624 42.5749C110.624 36.4645 115.619 31.5391 121.715 31.5391C125.14 31.5391 128.955 34.6291 128.955 34.6291C128.955 34.6291 132.588 31.5391 136.106 31.5995C142.216 31.6599 147.453 36.5761 147.132 42.6864Z" fill="#D66142"/>
<path opacity="0.2" d="M136.106 31.5985C132.588 31.5381 128.955 34.6281 128.955 34.6281C128.955 34.6281 128.913 34.591 128.834 34.5399V64.9662C128.876 64.9802 128.904 64.9988 128.904 64.9988C128.904 64.9988 146.649 51.542 147.137 42.6855C147.453 36.5751 142.216 31.6589 136.106 31.5985Z" fill="#616161"/>
<path d="M112.742 121.014C112.264 129.875 94.4997 143.331 94.4997 143.331C94.4997 143.331 76.2382 129.763 76.2382 120.911C76.2382 114.806 81.2194 109.885 87.3205 109.885C90.7451 109.885 94.5693 112.97 94.5693 112.97C94.5693 112.97 98.1937 109.885 101.716 109.936C107.826 110.006 113.054 114.917 112.742 121.014Z" fill="#D66142"/>
<path opacity="0.2" d="M101.716 109.936C98.1938 109.885 94.5694 112.97 94.5694 112.97C94.5694 112.97 94.5183 112.929 94.4486 112.873V143.299C94.4904 143.322 94.5043 143.332 94.5043 143.332C94.5043 143.332 112.264 129.88 112.747 121.014C113.054 114.917 107.826 110.006 101.716 109.936Z" fill="#616161"/>
<path d="M44.8966 218.056C45.3752 209.199 63.1394 195.747 63.1394 195.747C63.1394 195.747 81.3962 209.297 81.3962 218.163C81.3962 224.268 76.4149 229.189 70.3092 229.189C66.8846 229.189 63.0651 226.104 63.0651 226.104C63.0651 226.104 59.4454 229.189 55.9232 229.143C49.8082 229.073 44.5713 224.171 44.8966 218.056Z" fill="#D66142"/>
<path opacity="0.2" d="M55.9231 229.147C59.4453 229.194 63.065 226.108 63.065 226.108C63.065 226.108 63.1207 226.155 63.1811 226.206V195.775C63.1486 195.747 63.1347 195.747 63.1347 195.747C63.1347 195.747 45.3704 209.199 44.8918 218.056C44.5712 224.171 49.8081 229.073 55.9231 229.147Z" fill="#616161"/>
<path d="M147.133 218.056C146.649 209.199 128.899 195.747 128.899 195.747C128.899 195.747 110.624 209.297 110.624 218.163C110.624 224.268 115.619 229.189 121.715 229.189C125.14 229.189 128.955 226.104 128.955 226.104C128.955 226.104 132.589 229.189 136.106 229.143C142.216 229.073 147.453 224.171 147.133 218.056Z" fill="#D66142"/>
<path opacity="0.2" d="M136.106 229.147C132.589 229.194 128.955 226.108 128.955 226.108C128.955 226.108 128.913 226.155 128.834 226.206V195.775C128.876 195.747 128.904 195.747 128.904 195.747C128.904 195.747 146.65 209.199 147.137 218.056C147.453 224.171 142.217 229.073 136.106 229.147Z" fill="#616161"/>
<path d="M26.3332 51.1886C26.1845 54.2973 19.9302 59.0275 19.9302 59.0275C19.9302 59.0275 13.5131 54.2694 13.5131 51.1468C13.5131 49 15.2557 47.2715 17.4117 47.2715C18.6152 47.2715 19.958 48.3542 19.958 48.3542C19.958 48.3542 21.2359 47.2714 22.4719 47.2947C24.6186 47.3133 26.4587 49.0326 26.3332 51.1886Z" fill="#D66142"/>
<path opacity="0.2" d="M22.4718 47.2894C21.2312 47.2662 19.9579 48.3489 19.9579 48.3489C19.9579 48.3489 19.9394 48.3442 19.9069 48.321V59.0176C19.9301 59.0269 19.9301 59.0269 19.9301 59.0269C19.9301 59.0269 26.1845 54.2966 26.3332 51.188C26.4586 49.032 24.6186 47.3127 22.4718 47.2894Z" fill="#616161"/>
<path d="M165.491 212.238C165.659 209.051 172.039 204.223 172.039 204.223C172.039 204.223 178.595 209.078 178.595 212.28C178.595 214.469 176.806 216.22 174.608 216.22C173.372 216.22 172.006 215.133 172.006 215.133C172.006 215.133 170.705 216.22 169.45 216.202C167.252 216.179 165.385 214.417 165.491 212.238Z" fill="#D66142"/>
<path opacity="0.2" d="M169.455 216.206C170.71 216.224 172.011 215.137 172.011 215.137C172.011 215.137 172.034 215.137 172.062 215.155V204.245C172.043 204.227 172.043 204.227 172.043 204.227C172.043 204.227 165.663 209.054 165.496 212.242C165.385 214.417 167.253 216.178 169.455 216.206Z" fill="#616161"/>
</svg>
