<svg width="177" height="247" viewBox="0 0 177 247" fill="none" xmlns="http://www.w3.org/2000/svg">
<path d="M19.6434 246.542C9.23022 246.551 0.750064 238.238 0.83835 228.02L0.308567 18.841C0.159873 8.54395 8.64005 0.17994 19.0765 0.203173L157.306 0.454097C167.714 0.477331 176.176 8.84593 176.292 19.1244V227.843C176.176 238.043 167.742 246.356 157.38 246.365L19.6434 246.542Z" fill="#C9C9C9"/>
<path d="M21.358 246.011C11.0935 246.011 2.72957 237.68 2.85503 227.452V18.7751C2.73422 8.53387 11.0935 0.207031 21.358 0.207031H157.57C167.844 0.207031 176.204 8.53387 176.324 18.7751V227.452C176.204 237.68 167.844 246.011 157.57 246.011H21.358Z" fill="white"/>
<path d="M24.6479 15.9554C24.2855 16.5502 23.8115 17.1496 23.2399 17.7629C22.5057 18.5529 21.8181 19.0733 21.1629 19.3103C20.7493 19.459 20.0802 19.5566 19.1369 19.617C18.1983 19.682 17.7289 20.0213 17.7289 20.6346C17.7289 21.1551 18.0264 21.4803 18.6026 21.6011C19.6063 21.8427 20.4706 22.2377 21.1908 22.7906C21.9111 23.3575 22.4361 23.9523 22.7707 24.6075C23.1006 25.2581 23.2679 25.9179 23.2679 26.5777C23.2679 27.5535 23.0355 28.5154 22.5709 29.468C22.3525 29.914 21.9761 30.5088 21.4325 31.2522C20.0849 32.9947 18.886 34.1936 17.8312 34.8302C16.7625 35.4714 15.3871 35.792 13.6678 35.792C12.6595 35.792 11.8045 35.6434 11.1028 35.3646C10.1874 34.9835 9.72278 34.3934 9.72278 33.6081C9.72278 33.0877 10.1317 32.2048 10.9495 30.9688C11.7766 29.7235 12.4086 29.1008 12.8547 29.1008C13.1614 29.1008 13.3286 29.4679 13.3519 30.1975C13.3844 30.927 13.4912 31.4427 13.6678 31.7541C13.9001 32.005 14.1046 32.1862 14.258 32.3163C14.797 32.7159 15.3592 32.9111 15.9307 32.9111C16.6742 32.9111 17.3154 32.6602 17.873 32.1491C18.5747 31.5264 18.9232 30.611 18.9232 29.4261C18.9232 28.2552 18.5468 27.2422 17.794 26.4011C17.0366 25.5554 16.1305 25.0629 15.0664 24.9374C14.8527 24.9003 14.6902 24.8817 14.5833 24.8817C14.258 24.8352 14.0813 24.7841 14.0441 24.7562C13.9512 24.6447 13.9094 24.4542 13.9094 24.1847C13.9931 23.483 14.0768 22.7767 14.1372 22.0704C14.2069 21.3734 14.2347 20.6997 14.2347 20.0491C14.2347 19.7424 14.1836 19.5612 14.0768 19.4915C13.9699 19.4311 13.7514 19.3986 13.4029 19.3986V18.7481C13.6771 18.4089 14.1883 17.9117 14.9411 17.2658C15.889 16.4526 16.5627 16.0484 16.9112 16.0484H22.715C22.9659 16.0484 23.2678 15.9554 23.6256 15.7602C23.9881 15.5744 24.2064 15.4814 24.2808 15.4814L24.6573 15.6674V15.9554H24.6479Z" fill="#333333"/>
<path d="M155.447 232.575C155.8 231.994 156.279 231.376 156.846 230.767C157.584 229.977 158.286 229.452 158.927 229.215C159.341 229.08 160.015 228.969 160.944 228.908C161.883 228.853 162.352 228.509 162.352 227.909C162.352 227.384 162.064 227.045 161.492 226.929C160.479 226.692 159.615 226.283 158.895 225.739C158.174 225.187 157.649 224.568 157.315 223.923C156.98 223.267 156.813 222.626 156.813 221.943C156.813 220.981 157.05 220.01 157.519 219.058C157.728 218.611 158.11 218.021 158.644 217.287C159.991 215.526 161.199 214.346 162.259 213.705C163.323 213.049 164.708 212.733 166.418 212.733C167.421 212.733 168.276 212.877 168.983 213.17C169.898 213.542 170.363 214.132 170.363 214.931C170.363 215.447 169.949 216.33 169.131 217.58C168.304 218.816 167.682 219.439 167.226 219.439C166.929 219.439 166.757 219.076 166.729 218.342C166.697 217.617 166.604 217.097 166.422 216.781C166.195 216.534 165.99 216.353 165.832 216.218C165.289 215.819 164.731 215.628 164.159 215.628C163.421 215.628 162.77 215.875 162.217 216.39C161.52 217.018 161.162 217.933 161.162 219.123C161.162 220.284 161.539 221.293 162.296 222.143C163.049 222.998 163.96 223.467 165.019 223.602C165.238 223.639 165.391 223.658 165.498 223.658C165.828 223.704 165.999 223.751 166.041 223.783C166.12 223.899 166.171 224.076 166.171 224.345C166.079 225.052 166.009 225.763 165.944 226.469C165.874 227.166 165.851 227.84 165.851 228.486C165.851 228.802 165.907 228.974 166.009 229.048C166.116 229.104 166.343 229.141 166.683 229.141V229.787C166.413 230.131 165.902 230.623 165.14 231.274C164.192 232.082 163.537 232.482 163.174 232.482H157.38C157.124 232.482 156.818 232.579 156.465 232.779C156.102 232.97 155.888 233.063 155.805 233.063L155.433 232.872V232.575H155.447Z" fill="#333333"/>
<path d="M131.73 36.8206C131.893 36.0771 132 35.3244 131.981 34.5298C132 28.8748 127.39 24.2932 121.74 24.2979C116.09 24.3071 111.508 28.8655 111.499 34.5298C111.499 35.7565 111.722 36.9182 112.112 37.9869C107.126 38.3773 103.2 42.5453 103.191 47.6288C103.2 52.9864 107.54 57.3077 112.883 57.3077C114.305 57.3217 119.366 55.7372 120.434 55.1006L113.887 66.3455L129.867 66.3408L123.306 55.1006C124.621 55.8998 130.211 57.2984 131.563 57.2984C137.232 57.3077 141.823 52.7168 141.814 47.0572C141.818 41.4533 137.306 36.9135 131.73 36.8206Z" fill="#333333"/>
<path opacity="0.2" d="M131.73 36.8206C131.893 36.0771 132 35.3244 131.981 34.5298C132 28.8748 127.39 24.2932 121.74 24.2979C121.731 24.2979 121.707 24.3025 121.698 24.3025V66.3408L129.862 66.3362L123.301 55.0959C124.616 55.8951 130.206 57.2938 131.558 57.2938C137.227 57.3031 141.818 52.7122 141.809 47.0525C141.818 41.4533 137.306 36.9135 131.73 36.8206Z" fill="#616161"/>
<path d="M50.1023 36.8206C49.9537 36.0771 49.8376 35.3244 49.8515 34.5298C49.8376 28.8748 54.4377 24.2932 60.0973 24.2979C65.757 24.3071 70.3293 28.8655 70.3293 34.5298C70.3293 35.7565 70.1201 36.9182 69.7252 37.9869C74.7064 38.3773 78.6282 42.5453 78.6422 47.6288C78.6375 52.9864 74.2976 57.3077 68.9586 57.3077C67.5274 57.3217 62.4717 55.7372 61.3937 55.1006L67.9502 66.3455L51.9657 66.3408L58.5314 55.1006C57.221 55.8998 51.6264 57.2984 50.2789 57.2984C44.6007 57.3077 40.0098 52.7168 40.0284 47.0572C40.0191 41.4533 44.531 36.9135 50.1023 36.8206Z" fill="#333333"/>
<path opacity="0.2" d="M50.1023 36.8206C49.9537 36.0771 49.8376 35.3244 49.8515 34.5298C49.8376 28.8748 54.4377 24.2932 60.0973 24.2979C60.1113 24.2979 60.1206 24.3025 60.1392 24.3025V66.3408L51.9657 66.3362L58.5314 55.0959C57.221 55.8951 51.6264 57.2938 50.2789 57.2938C44.6007 57.3031 40.0098 52.7122 40.0284 47.0525C40.0191 41.4533 44.531 36.9135 50.1023 36.8206Z" fill="#616161"/>
<path d="M79.9804 113.327C79.8317 112.584 79.7156 111.836 79.7295 111.051C79.7156 105.391 84.3205 100.809 89.9708 100.823C95.6351 100.823 100.212 105.391 100.212 111.051C100.212 112.268 99.9983 113.43 99.5987 114.503C104.585 114.898 108.506 119.061 108.52 124.15C108.516 129.489 104.176 133.815 98.8366 133.829C97.4147 133.838 92.3452 132.263 91.2625 131.621L97.8236 142.871L81.8392 142.843L88.4049 131.607C87.0992 132.407 81.5139 133.815 80.1524 133.815C74.4788 133.815 69.8925 129.224 69.9064 123.564C69.9018 117.974 74.4044 113.425 79.9804 113.327Z" fill="#333333"/>
<path opacity="0.2" d="M79.9804 113.327C79.8317 112.584 79.7156 111.836 79.7295 111.051C79.7156 105.391 84.3205 100.809 89.9708 100.823C89.9848 100.823 89.9986 100.823 90.0172 100.823V142.857L81.8392 142.848L88.4049 131.612C87.0992 132.411 81.5139 133.819 80.1524 133.819C74.4788 133.819 69.8925 129.228 69.9064 123.569C69.9018 117.974 74.4044 113.425 79.9804 113.327Z" fill="#616161"/>
<path d="M131.73 209.923C131.893 210.657 132 211.41 131.981 212.218C132 217.864 127.39 222.436 121.74 222.436C116.09 222.436 111.508 217.864 111.499 212.218C111.499 210.991 111.722 209.82 112.112 208.742C107.126 208.352 103.2 204.189 103.191 199.105C103.2 193.752 107.54 189.44 112.883 189.431C114.305 189.412 119.366 190.992 120.434 191.638L113.887 180.384L129.867 180.393L123.306 191.647C124.621 190.829 130.211 189.44 131.563 189.44C137.232 189.44 141.823 194.031 141.814 199.695C141.818 205.285 137.306 209.82 131.73 209.923Z" fill="#333333"/>
<path opacity="0.2" d="M131.73 209.923C131.893 210.657 132 211.41 131.981 212.218C132 217.864 127.39 222.436 121.74 222.436C121.731 222.436 121.707 222.436 121.698 222.436V180.389H129.862L123.301 191.643C124.616 190.825 130.206 189.436 131.558 189.436C137.227 189.436 141.818 194.027 141.809 199.691C141.818 205.286 137.306 209.821 131.73 209.923Z" fill="#616161"/>
<path d="M50.1023 209.923C49.9537 210.657 49.8376 211.41 49.8515 212.218C49.8376 217.864 54.4377 222.436 60.0973 222.436C65.757 222.436 70.3293 217.864 70.3293 212.218C70.3293 210.991 70.1201 209.82 69.7252 208.742C74.7064 208.352 78.6282 204.189 78.6422 199.105C78.6375 193.752 74.2976 189.44 68.9586 189.431C67.5274 189.412 62.4717 190.992 61.3937 191.638L67.9502 180.384L51.9657 180.393L58.5314 191.647C57.221 190.829 51.6264 189.44 50.2789 189.44C44.6007 189.44 40.0098 194.031 40.0284 199.695C40.0191 205.285 44.531 209.82 50.1023 209.923Z" fill="#333333"/>
<path opacity="0.2" d="M50.1023 209.923C49.9537 210.657 49.8376 211.41 49.8515 212.218C49.8376 217.864 54.4377 222.436 60.0973 222.436C60.1113 222.436 60.1206 222.436 60.1392 222.436V180.389H51.9657L58.5314 191.643C57.221 190.825 51.6264 189.436 50.2789 189.436C44.6007 189.436 40.0098 194.027 40.0284 199.691C40.0191 205.286 44.531 209.821 50.1023 209.923Z" fill="#616161"/>
<path d="M18.9885 46.9891C19.021 46.8218 19.0582 46.6499 19.0489 46.4779C19.0582 45.1815 17.9987 44.1406 16.707 44.1406C15.4152 44.1406 14.3742 45.1815 14.3649 46.4779C14.3649 46.766 14.4253 47.0169 14.5043 47.2632C13.3752 47.3561 12.4691 48.3087 12.4691 49.4704C12.4691 50.6878 13.4635 51.6776 14.6902 51.6776C15.0155 51.6776 16.1632 51.3244 16.4095 51.1803L14.9226 53.736H18.5656L17.0693 51.1803C17.3667 51.3615 18.6446 51.6776 18.9466 51.6776C20.2384 51.6776 21.2885 50.6227 21.2885 49.3403C21.2885 48.0485 20.257 47.0169 18.9885 46.9891Z" fill="#333333"/>
<path opacity="0.2" d="M18.9886 46.9891C19.0211 46.8218 19.0583 46.6499 19.049 46.4779C19.0583 45.1815 17.9988 44.1406 16.7071 44.1406H16.7024V53.7267H18.5657L17.0694 51.171C17.3668 51.3523 18.6447 51.6683 18.9467 51.6683C20.2385 51.6683 21.2887 50.6135 21.2887 49.331C21.2887 48.0485 20.2571 47.0169 18.9886 46.9891Z" fill="#616161"/>
<path d="M165.261 202.006C165.298 202.178 165.321 202.341 165.321 202.532C165.321 203.809 164.276 204.873 162.979 204.864C161.692 204.864 160.647 203.809 160.647 202.532C160.647 202.248 160.693 201.997 160.786 201.751C159.648 201.653 158.746 200.705 158.741 199.544C158.741 198.317 159.74 197.337 160.958 197.337C161.283 197.337 162.436 197.68 162.691 197.824L161.186 195.255H164.833L163.342 197.834C163.634 197.653 164.922 197.337 165.228 197.337C166.525 197.337 167.565 198.373 167.565 199.669C167.561 200.952 166.538 201.997 165.261 202.006Z" fill="#333333"/>
<path opacity="0.2" d="M165.261 202.006C165.298 202.178 165.321 202.341 165.321 202.531C165.321 203.809 164.276 204.873 162.979 204.864H162.97V195.264H164.829L163.337 197.843C163.63 197.661 164.917 197.345 165.224 197.345C166.52 197.345 167.561 198.382 167.561 199.678C167.561 200.951 166.539 201.997 165.261 202.006Z" fill="#616161"/>
</svg>
