<svg width="186" height="260" viewBox="0 0 186 260" fill="none" xmlns="http://www.w3.org/2000/svg">
<path d="M20.7092 259.452C9.78022 259.47 0.84932 250.739 0.840027 239.977L0.273126 20.1853C0.235953 9.36788 9.14827 0.581052 20.1283 0.599639L165.383 0.864531C176.312 0.883117 185.206 9.69316 185.206 20.4874V239.805C185.206 250.535 176.34 259.256 165.448 259.28L20.7092 259.452Z" fill="#C9C9C9"/>
<path d="M22.5307 258.909C11.7365 258.909 2.94498 250.15 2.94498 239.397V20.1164C2.94498 9.36403 11.7365 0.614258 22.5307 0.614258H165.667C176.461 0.614258 185.243 9.36403 185.243 20.1164V239.397C185.243 250.15 176.456 258.909 165.667 258.909H22.5307Z" fill="white"/>
<path d="M25.9088 24.3367C25.9088 25.7168 25.6021 27.2037 24.9841 28.8207C24.3707 30.4378 23.7249 31.6319 23.0743 32.38C21.8848 33.7229 20.7649 34.8475 19.7241 35.7303C18.0141 37.1987 16.634 37.9469 15.6118 37.9469C15.5235 37.9469 15.4259 37.9097 15.3283 37.84C15.2354 37.7656 15.1517 37.668 15.0634 37.5751C16.0207 36.9849 16.9732 36.1206 17.963 35.024C18.9527 33.8995 19.9053 32.4173 20.8532 30.5493V30.1775C20.7835 30.1403 20.6999 30.1033 20.6395 30.0707C19.8681 30.396 19.1804 30.698 18.5438 30.9443C17.9165 31.1905 17.3543 31.3067 16.8664 31.3067C15.8813 31.3067 14.9519 30.7724 14.083 29.6897C13.07 28.4723 12.5775 26.9853 12.5775 25.2428C12.5775 23.5468 13.5951 21.7485 15.6396 19.8619C17.5215 18.1287 19.0642 17.2412 20.3235 17.2412C21.4805 17.2412 22.6654 17.8779 23.8271 19.1C25.2071 20.5544 25.9088 22.2875 25.9088 24.3367ZM21.592 26.7855C21.592 25.1406 21.0855 23.7466 20.0586 22.6036C19.1525 21.6045 18.2186 21.1072 17.2846 21.1072C17.0569 21.1072 16.9082 21.2421 16.8246 21.5162C16.7409 21.7997 16.713 22.0971 16.713 22.4409C16.713 23.8767 17.0708 25.0617 17.7864 26.0096C18.6553 27.1527 19.4871 27.7427 20.2909 27.7427C20.6766 27.7427 20.9694 27.6869 21.1645 27.5986C21.4526 27.4407 21.592 27.1852 21.592 26.7855Z" fill="#333333"/>
<path d="M163.515 237.609C163.515 236.219 163.813 234.732 164.44 233.106C165.053 231.489 165.694 230.309 166.35 229.547C167.539 228.204 168.659 227.098 169.695 226.215C171.41 224.728 172.785 223.989 173.812 223.989C173.905 223.989 173.998 224.026 174.086 224.105C174.184 224.18 174.272 224.259 174.356 224.352C173.408 224.96 172.437 225.82 171.452 226.921C170.462 228.027 169.509 229.519 168.561 231.387V231.758C168.636 231.796 168.719 231.833 168.78 231.865C169.547 231.531 170.234 231.229 170.871 230.983C171.503 230.736 172.06 230.62 172.562 230.62C173.533 230.62 174.467 231.154 175.346 232.237C176.345 233.464 176.846 234.96 176.846 236.684C176.846 238.389 175.824 240.188 173.784 242.074C171.902 243.817 170.355 244.69 169.105 244.69C167.939 244.69 166.759 244.072 165.588 242.85C164.212 241.396 163.515 239.644 163.515 237.609ZM167.827 235.141C167.827 236.8 168.329 238.199 169.361 239.333C170.262 240.332 171.191 240.847 172.135 240.847C172.362 240.847 172.511 240.694 172.59 240.429C172.669 240.15 172.697 239.839 172.697 239.495C172.697 238.069 172.344 236.874 171.628 235.927C170.755 234.774 169.923 234.193 169.128 234.193C168.738 234.193 168.445 234.249 168.25 234.347C167.967 234.5 167.827 234.76 167.827 235.141Z" fill="#333333"/>
<path d="M25.3604 50.5541C25.1885 53.8114 18.7018 58.7137 18.7018 58.7137C18.7018 58.7137 12.0291 53.7603 12.0291 50.5262C12.0291 48.2958 13.846 46.4883 16.0764 46.4883C17.3217 46.4883 18.7157 47.6128 18.7157 47.6128C18.7157 47.6128 20.04 46.4883 21.3318 46.5069C23.5668 46.5347 25.4859 48.333 25.3604 50.5541Z" fill="#D66142"/>
<path opacity="0.2" d="M21.3364 46.5061C20.0446 46.4875 18.7203 47.612 18.7203 47.612C18.7203 47.612 18.7064 47.6027 18.6785 47.5841V58.7129C18.6878 58.7129 18.7018 58.7129 18.7018 58.7129C18.7018 58.7129 25.1885 53.8107 25.3604 50.5533C25.4859 48.3322 23.5668 46.534 21.3364 46.5061Z" fill="#616161"/>
<path d="M162.544 211.622C162.716 208.308 169.356 203.29 169.356 203.29C169.356 203.29 176.163 208.355 176.163 211.677C176.163 213.945 174.3 215.771 172.028 215.771C170.75 215.771 169.319 214.637 169.319 214.637C169.319 214.637 167.971 215.771 166.652 215.762C164.389 215.715 162.428 213.898 162.544 211.622Z" fill="#D66142"/>
<path opacity="0.2" d="M166.656 215.757C167.976 215.766 169.323 214.633 169.323 214.633C169.323 214.633 169.346 214.642 169.37 214.651V203.309C169.365 203.29 169.36 203.29 169.36 203.29C169.36 203.29 162.72 208.308 162.548 211.622C162.428 213.898 164.388 215.715 166.656 215.757Z" fill="#616161"/>
<path d="M41.252 37.7692C41.7352 46.9789 60.1964 60.9747 60.1964 60.9747C60.1964 60.9747 79.192 46.8721 79.192 37.6577C79.192 31.315 73.997 26.1943 67.6636 26.1943C64.1043 26.1943 60.136 29.4005 60.136 29.4005C60.136 29.4005 56.3676 26.1944 52.706 26.2408C46.3494 26.3245 40.9081 31.4311 41.252 37.7692Z" fill="#D66142"/>
<path opacity="0.2" d="M52.7014 26.2407C56.363 26.1943 60.1314 29.4004 60.1314 29.4004C60.1314 29.4004 60.1732 29.3633 60.2615 29.3076V60.9374C60.2244 60.9653 60.1918 60.9746 60.1918 60.9746C60.1918 60.9746 41.7353 46.9788 41.2474 37.7691C40.9081 31.431 46.3494 26.3244 52.7014 26.2407Z" fill="#616161"/>
<path d="M75.2888 122.326C75.7767 131.526 94.2473 145.513 94.2473 145.513C94.2473 145.513 113.224 131.419 113.224 122.196C113.224 115.853 108.034 110.732 101.696 110.732C98.1365 110.732 94.1683 113.943 94.1683 113.943C94.1683 113.943 90.4044 110.733 86.7429 110.784C80.4048 110.881 74.945 115.974 75.2888 122.326Z" fill="#D66142"/>
<path opacity="0.2" d="M86.7429 110.787C90.4044 110.731 94.1683 113.947 94.1683 113.947C94.1683 113.947 94.2286 113.919 94.303 113.849V145.479C94.2658 145.516 94.2473 145.516 94.2473 145.516C94.2473 145.516 75.7767 131.529 75.2888 122.329C74.945 115.972 80.4048 110.88 86.7429 110.787Z" fill="#616161"/>
<path d="M147.512 37.7692C147.015 46.9789 128.549 60.9747 128.549 60.9747C128.549 60.9747 109.577 46.8721 109.577 37.6577C109.577 31.315 114.758 26.1943 121.105 26.1943C124.66 26.1943 128.628 29.4005 128.628 29.4005C128.628 29.4005 132.387 26.1944 136.053 26.2408C142.396 26.3245 147.851 31.4311 147.512 37.7692Z" fill="#D66142"/>
<path opacity="0.2" d="M136.053 26.2407C132.387 26.1943 128.628 29.4004 128.628 29.4004C128.628 29.4004 128.572 29.3633 128.507 29.3076V60.9374C128.535 60.9653 128.549 60.9746 128.549 60.9746C128.549 60.9746 147.02 46.9788 147.512 37.7691C147.851 31.431 142.396 26.3244 136.053 26.2407Z" fill="#616161"/>
<path d="M41.2519 94.6627C41.7351 103.882 60.1964 117.868 60.1964 117.868C60.1964 117.868 79.1919 103.775 79.1919 94.5605C79.1919 88.2085 73.9969 83.0879 67.6635 83.0879C64.1042 83.0879 60.1359 86.2986 60.1359 86.2986C60.1359 86.2986 56.3675 83.0878 52.7059 83.1389C46.3493 83.2179 40.908 88.3154 41.2519 94.6627Z" fill="#D66142"/>
<path opacity="0.2" d="M52.7014 83.1443C56.363 83.0885 60.1314 86.304 60.1314 86.304C60.1314 86.304 60.1733 86.2575 60.2615 86.2017V117.841C60.2244 117.86 60.1918 117.869 60.1918 117.869C60.1918 117.869 41.7353 103.882 41.2474 94.6634C40.9082 88.316 46.3494 83.2186 52.7014 83.1443Z" fill="#616161"/>
<path d="M147.512 94.6627C147.015 103.882 128.549 117.868 128.549 117.868C128.549 117.868 109.577 103.775 109.577 94.5605C109.577 88.2085 114.758 83.0879 121.105 83.0879C124.66 83.0879 128.628 86.2986 128.628 86.2986C128.628 86.2986 132.387 83.0878 136.053 83.1389C142.396 83.2179 147.851 88.3154 147.512 94.6627Z" fill="#D66142"/>
<path opacity="0.2" d="M136.053 83.1443C132.387 83.0885 128.628 86.304 128.628 86.304C128.628 86.304 128.572 86.2575 128.507 86.2017V117.841C128.535 117.86 128.549 117.869 128.549 117.869C128.549 117.869 147.02 103.882 147.512 94.6634C147.851 88.316 142.396 83.2186 136.053 83.1443Z" fill="#616161"/>
<path d="M41.252 220.077C41.7353 210.882 60.1965 196.891 60.1965 196.891C60.1965 196.891 79.1921 210.975 79.1921 220.198C79.1921 226.55 73.9971 231.671 67.6637 231.671C64.1043 231.671 60.1361 228.451 60.1361 228.451C60.1361 228.451 56.3676 231.671 52.7061 231.62C46.3494 231.541 40.9082 226.439 41.252 220.077Z" fill="#D66142"/>
<path opacity="0.2" d="M52.7014 231.611C56.363 231.667 60.1314 228.442 60.1314 228.442C60.1314 228.442 60.1732 228.498 60.2615 228.549V196.919C60.2244 196.891 60.1918 196.882 60.1918 196.882C60.1918 196.882 41.7353 210.878 41.2474 220.069C40.9081 226.439 46.3494 231.541 52.7014 231.611Z" fill="#616161"/>
<path d="M147.512 220.077C147.015 210.882 128.549 196.891 128.549 196.891C128.549 196.891 109.577 210.975 109.577 220.198C109.577 226.55 114.758 231.671 121.105 231.671C124.66 231.671 128.628 228.451 128.628 228.451C128.628 228.451 132.387 231.671 136.053 231.62C142.396 231.541 147.851 226.439 147.512 220.077Z" fill="#D66142"/>
<path opacity="0.2" d="M136.053 231.611C132.387 231.667 128.628 228.442 128.628 228.442C128.628 228.442 128.572 228.498 128.507 228.549V196.919C128.535 196.891 128.549 196.882 128.549 196.882C128.549 196.882 147.02 210.878 147.512 220.069C147.851 226.439 142.396 231.541 136.053 231.611Z" fill="#616161"/>
<path d="M41.252 163.184C41.7353 153.984 60.1965 139.988 60.1965 139.988C60.1965 139.988 79.1921 154.082 79.1921 163.305C79.1921 169.648 73.9971 174.778 67.6637 174.778C64.1043 174.778 60.1361 171.558 60.1361 171.558C60.1361 171.558 56.3676 174.778 52.7061 174.717C46.3494 174.629 40.9082 169.546 41.252 163.184Z" fill="#D66142"/>
<path opacity="0.2" d="M52.7014 174.709C56.363 174.774 60.1314 171.549 60.1314 171.549C60.1314 171.549 60.1732 171.595 60.2615 171.656V140.026C60.2244 139.989 60.1918 139.979 60.1918 139.979C60.1918 139.979 41.7353 153.975 41.2474 163.176C40.9081 169.546 46.3494 174.63 52.7014 174.709Z" fill="#616161"/>
<path d="M147.512 163.184C147.015 153.984 128.549 139.988 128.549 139.988C128.549 139.988 109.577 154.082 109.577 163.305C109.577 169.648 114.758 174.778 121.105 174.778C124.66 174.778 128.628 171.558 128.628 171.558C128.628 171.558 132.387 174.778 136.053 174.717C142.396 174.629 147.851 169.546 147.512 163.184Z" fill="#D66142"/>
<path opacity="0.2" d="M136.053 174.709C132.387 174.774 128.628 171.549 128.628 171.549C128.628 171.549 128.572 171.595 128.507 171.656V140.026C128.535 139.989 128.549 139.979 128.549 139.979C128.549 139.979 147.02 153.975 147.512 163.176C147.851 169.546 142.396 174.63 136.053 174.709Z" fill="#616161"/>
</svg>
