<svg width="186" height="260" viewBox="0 0 186 260" fill="none" xmlns="http://www.w3.org/2000/svg">
<path d="M20.7184 259.027C9.78947 259.027 0.872511 250.305 0.844631 239.562L0.273086 19.7513C0.249853 8.9339 9.14823 0.146991 20.1283 0.174871L165.383 0.430545C176.321 0.458425 185.21 9.25917 185.21 20.0534V239.381C185.21 250.11 176.354 258.841 165.457 258.855L20.7184 259.027Z" fill="#C9C9C9"/>
<path d="M22.5306 258.465C11.7364 258.465 2.95883 249.715 2.95883 238.963V19.6823C2.95883 8.92987 11.7364 0.189453 22.5306 0.189453H165.671C176.456 0.189453 185.243 8.92987 185.243 19.6823V238.963C185.243 249.715 176.456 258.465 165.671 258.465H22.5306Z" fill="white"/>
<path d="M25.932 29.8464C25.932 30.2646 25.7369 30.8547 25.3373 31.5889C24.7843 32.5972 23.999 33.6241 22.9582 34.6743C21.7593 35.8917 21.1181 36.5329 21.0298 36.6166C20.277 37.1788 19.343 37.4623 18.2557 37.4623C16.7549 37.4623 15.4538 36.8721 14.3665 35.729C13.4464 34.7486 12.9818 33.796 12.9818 32.8899C12.9818 32.2534 13.2977 31.51 13.925 30.6596C14.5616 29.8047 15.2168 28.945 15.872 28.1086C15.3841 27.6718 14.9473 27.1839 14.5616 26.6495C14.1806 26.1059 13.9947 25.5158 13.9947 24.8513C13.9947 24.0149 14.3153 23.1366 14.9333 22.2119C15.5421 21.4034 16.0439 20.7065 16.4342 20.1442C17.4147 18.7363 18.2278 17.8301 18.8644 17.4211C19.515 17.0122 20.212 16.7939 20.9647 16.7939C22.0985 16.7939 23.0789 17.1099 23.9061 17.7558C24.7285 18.411 25.1421 19.2706 25.1421 20.3718C25.1421 21.5521 24.6403 22.6767 23.6598 23.75C22.6747 24.8048 22.1822 25.5297 22.1822 25.9293C23.1626 26.5845 24.0222 27.1885 24.7425 27.8065C25.537 28.4664 25.932 29.1633 25.932 29.8464ZM22.2565 32.3509C22.2565 31.7515 21.5409 31.0173 20.1004 30.1438C18.8087 29.3538 17.9955 28.9821 17.6377 28.9821C17.4983 28.9821 17.3218 29.1819 17.0755 29.6001C16.8432 30.0183 16.7177 30.3808 16.7177 30.6782C16.7177 31.4589 17.1916 32.1929 18.1396 32.8853C19.0038 33.5405 19.8309 33.8565 20.6023 33.8565C20.9787 33.8565 21.355 33.6939 21.7175 33.3779C22.0706 33.0573 22.2565 32.7134 22.2565 32.3509ZM21.2017 23.3317C21.2017 22.8671 20.9461 22.3793 20.4443 21.8635C19.8495 21.2733 19.199 20.9853 18.4648 20.9853C18.1396 20.9853 17.8515 21.1014 17.6284 21.3012C17.4054 21.5103 17.2985 21.7658 17.2985 22.0725C17.2985 22.6905 17.7632 23.3597 18.725 24.0799C19.5521 24.7072 20.0819 25.0232 20.3281 25.0232C20.5001 25.0232 20.6906 24.8048 20.8904 24.3866C21.0902 23.9638 21.2017 23.6291 21.2017 23.3317Z" fill="#333333"/>
<path d="M163.487 231.222C163.487 230.804 163.678 230.223 164.077 229.489C164.626 228.49 165.425 227.463 166.466 226.413C167.651 225.196 168.292 224.554 168.389 224.48C169.142 223.908 170.067 223.625 171.164 223.625C172.655 223.625 173.952 224.206 175.048 225.358C175.968 226.339 176.437 227.273 176.437 228.188C176.437 228.834 176.122 229.577 175.49 230.428C174.858 231.273 174.202 232.124 173.547 232.979C174.04 233.416 174.467 233.894 174.853 234.438C175.229 234.972 175.411 235.572 175.411 236.236C175.411 237.063 175.109 237.951 174.486 238.875C173.882 239.684 173.375 240.372 172.98 240.943C172 242.342 171.187 243.248 170.541 243.666C169.89 244.075 169.198 244.284 168.441 244.284C167.311 244.284 166.331 243.968 165.513 243.322C164.686 242.686 164.277 241.807 164.277 240.715C164.277 239.517 164.765 238.392 165.746 237.337C166.735 236.278 167.228 235.548 167.228 235.149C166.247 234.512 165.388 233.88 164.672 233.29C163.882 232.612 163.487 231.919 163.487 231.222ZM167.163 228.727C167.163 229.336 167.888 230.07 169.319 230.934C170.611 231.715 171.428 232.105 171.786 232.105C171.916 232.105 172.098 231.896 172.339 231.487C172.572 231.069 172.692 230.697 172.692 230.409C172.692 229.628 172.218 228.894 171.28 228.193C170.406 227.547 169.584 227.231 168.817 227.231C168.431 227.231 168.064 227.393 167.711 227.714C167.344 228.025 167.163 228.374 167.163 228.727ZM168.213 237.756C168.213 238.22 168.468 238.708 168.984 239.215C169.56 239.805 170.225 240.093 170.95 240.093C171.28 240.093 171.563 239.995 171.791 239.777C172.018 239.577 172.135 239.321 172.135 239.024C172.135 238.387 171.651 237.718 170.694 237.003C169.867 236.385 169.333 236.078 169.096 236.078C168.91 236.078 168.733 236.287 168.524 236.705C168.315 237.11 168.213 237.467 168.213 237.756Z" fill="#333333"/>
<path d="M27.3538 50.1283C27.1819 53.3671 20.6905 58.2879 20.6905 58.2879C20.6905 58.2879 14.0132 53.3438 14.0132 50.0912C14.0132 47.8608 15.8347 46.0625 18.0744 46.0625C19.3197 46.0625 20.7184 47.187 20.7184 47.187C20.7184 47.187 22.0427 46.0626 23.3298 46.0904C25.5556 46.109 27.4746 47.8979 27.3538 50.1283Z" fill="#D66142"/>
<path opacity="0.2" d="M23.3251 46.0894C22.038 46.0615 20.7137 47.186 20.7137 47.186C20.7137 47.186 20.6905 47.1675 20.6626 47.1582V58.2683C20.6812 58.2776 20.6812 58.2869 20.6812 58.2869C20.6812 58.2869 27.1726 53.366 27.3445 50.1273C27.4746 47.8969 25.5555 46.108 23.3251 46.0894Z" fill="#616161"/>
<path d="M164.537 211.193C164.714 207.889 171.349 202.861 171.349 202.861C171.349 202.861 178.147 207.917 178.147 211.249C178.147 213.507 176.298 215.342 174.021 215.342C172.739 215.342 171.312 214.19 171.312 214.19C171.312 214.19 169.965 215.342 168.654 215.324C166.364 215.296 164.421 213.451 164.537 211.193Z" fill="#D66142"/>
<path opacity="0.2" d="M168.654 215.323C169.965 215.342 171.312 214.189 171.312 214.189C171.312 214.189 171.331 214.208 171.363 214.236V202.874C171.349 202.874 171.349 202.865 171.349 202.865C171.349 202.865 164.714 207.893 164.537 211.197C164.421 213.45 166.364 215.295 168.654 215.323Z" fill="#616161"/>
<path d="M42.3347 37.3507C42.8319 46.5604 61.2931 60.5469 61.2931 60.5469C61.2931 60.5469 80.2794 46.4536 80.2794 37.2206C80.2794 30.8779 75.0891 25.748 68.7603 25.748C65.2009 25.748 61.2281 28.9775 61.2281 28.9775C61.2281 28.9775 57.455 25.748 53.7887 25.8177C47.4507 25.906 42.0048 30.9987 42.3347 37.3507Z" fill="#D66142"/>
<path opacity="0.2" d="M53.7934 25.8265C57.4596 25.7521 61.2327 28.9862 61.2327 28.9862C61.2327 28.9862 61.2745 28.9397 61.3628 28.87V60.5091C61.3257 60.5463 61.3024 60.5556 61.3024 60.5556C61.3024 60.5556 42.8366 46.5692 42.344 37.3595C42.0048 30.9982 47.4507 25.9055 53.7934 25.8265Z" fill="#616161"/>
<path d="M148.609 37.3507C148.111 46.5604 129.65 60.5469 129.65 60.5469C129.65 60.5469 110.673 46.4536 110.673 37.2206C110.673 30.8779 115.85 25.748 122.192 25.748C125.752 25.748 129.715 28.9775 129.715 28.9775C129.715 28.9775 133.493 25.748 137.155 25.8177C143.497 25.906 148.943 30.9987 148.609 37.3507Z" fill="#D66142"/>
<path opacity="0.2" d="M137.15 25.8265C133.488 25.7521 129.711 28.9862 129.711 28.9862C129.711 28.9862 129.669 28.9397 129.594 28.87V60.5091C129.632 60.5463 129.65 60.5556 129.65 60.5556C129.65 60.5556 148.111 46.5692 148.609 37.3595C148.943 30.9982 143.497 25.9055 137.15 25.8265Z" fill="#616161"/>
<path d="M42.3347 94.2448C42.8319 103.445 61.2931 117.441 61.2931 117.441C61.2931 117.441 80.2794 103.348 80.2794 94.1146C80.2794 87.7719 75.0891 82.6514 68.7603 82.6514C65.2009 82.6514 61.2281 85.8621 61.2281 85.8621C61.2281 85.8621 57.455 82.6514 53.7887 82.7118C47.4507 82.8001 42.0048 87.9021 42.3347 94.2448Z" fill="#D66142"/>
<path opacity="0.2" d="M53.7934 82.7197C57.4596 82.6547 61.2327 85.8702 61.2327 85.8702C61.2327 85.8702 61.2746 85.8423 61.3628 85.768V117.398C61.3257 117.435 61.3024 117.444 61.3024 117.444C61.3024 117.444 42.8366 103.449 42.344 94.2482C42.0048 87.9008 47.4507 82.7987 53.7934 82.7197Z" fill="#616161"/>
<path d="M148.609 94.2448C148.111 103.445 129.65 117.441 129.65 117.441C129.65 117.441 110.673 103.348 110.673 94.1146C110.673 87.7719 115.85 82.6514 122.192 82.6514C125.752 82.6514 129.715 85.8621 129.715 85.8621C129.715 85.8621 133.493 82.6514 137.155 82.7118C143.497 82.8001 148.943 87.9021 148.609 94.2448Z" fill="#D66142"/>
<path opacity="0.2" d="M137.15 82.7197C133.488 82.6547 129.711 85.8702 129.711 85.8702C129.711 85.8702 129.669 85.8423 129.594 85.768V117.398C129.632 117.435 129.65 117.444 129.65 117.444C129.65 117.444 148.111 103.449 148.609 94.2482C148.943 87.9008 143.497 82.7987 137.15 82.7197Z" fill="#616161"/>
<path d="M42.3347 219.663C42.8319 210.444 61.2931 196.458 61.2931 196.458C61.2931 196.458 80.2794 210.561 80.2794 219.784C80.2794 226.118 75.0891 231.248 68.7603 231.248C65.2009 231.248 61.2281 228.037 61.2281 228.037C61.2281 228.037 57.455 231.248 53.7887 231.187C47.4507 231.094 42.0048 226.006 42.3347 219.663Z" fill="#D66142"/>
<path opacity="0.2" d="M53.7934 231.178C57.4596 231.243 61.2327 228.028 61.2327 228.028C61.2327 228.028 61.2746 228.065 61.3628 228.125V196.496C61.3257 196.459 61.3024 196.449 61.3024 196.449C61.3024 196.449 42.8366 210.436 42.344 219.655C42.0048 226.007 47.4507 231.095 53.7934 231.178Z" fill="#616161"/>
<path d="M148.609 219.663C148.111 210.444 129.65 196.458 129.65 196.458C129.65 196.458 110.673 210.561 110.673 219.784C110.673 226.118 115.85 231.248 122.192 231.248C125.752 231.248 129.715 228.037 129.715 228.037C129.715 228.037 133.493 231.248 137.155 231.187C143.497 231.094 148.943 226.006 148.609 219.663Z" fill="#D66142"/>
<path opacity="0.2" d="M137.15 231.178C133.488 231.243 129.711 228.028 129.711 228.028C129.711 228.028 129.669 228.065 129.594 228.125V196.496C129.632 196.459 129.65 196.449 129.65 196.449C129.65 196.449 148.111 210.436 148.609 219.655C148.943 226.007 143.497 231.095 137.15 231.178Z" fill="#616161"/>
<path d="M42.3347 162.747C42.8319 153.547 61.2931 139.551 61.2931 139.551C61.2931 139.551 80.2794 153.663 80.2794 162.886C80.2794 169.22 75.0891 174.34 68.7603 174.34C65.201 174.34 61.2281 171.129 61.2281 171.129C61.2281 171.129 57.455 174.34 53.7887 174.289C47.4507 174.201 42.0048 169.104 42.3347 162.747Z" fill="#D66142"/>
<path opacity="0.2" d="M53.7934 174.284C57.4596 174.34 61.2327 171.125 61.2327 171.125C61.2327 171.125 61.2745 171.162 61.3628 171.222V139.602C61.3256 139.564 61.3024 139.546 61.3024 139.546C61.3024 139.546 42.8365 153.542 42.3439 162.742C42.0047 169.103 47.4507 174.201 53.7934 174.284Z" fill="#616161"/>
<path d="M148.609 162.747C148.111 153.547 129.65 139.551 129.65 139.551C129.65 139.551 110.673 153.663 110.673 162.886C110.673 169.22 115.85 174.34 122.192 174.34C125.752 174.34 129.715 171.129 129.715 171.129C129.715 171.129 133.493 174.34 137.155 174.289C143.497 174.201 148.943 169.104 148.609 162.747Z" fill="#D66142"/>
<path opacity="0.2" d="M137.15 174.284C133.488 174.34 129.711 171.125 129.711 171.125C129.711 171.125 129.669 171.162 129.594 171.222V139.602C129.632 139.564 129.65 139.546 129.65 139.546C129.65 139.546 148.111 153.542 148.609 162.742C148.943 169.103 143.497 174.201 137.15 174.284Z" fill="#616161"/>
</svg>
