<svg width="186" height="259" viewBox="0 0 186 259" fill="none" xmlns="http://www.w3.org/2000/svg">
<path d="M20.6791 258.969C9.74553 258.987 0.81932 250.266 0.796087 239.509L0.23383 19.698C0.20595 8.88058 9.11366 0.0937475 20.0891 0.112334L165.348 0.377084C176.282 0.404964 185.176 9.21515 185.176 20.0001V239.327C185.176 250.047 176.319 258.788 165.414 258.797L20.6791 258.969Z" fill="#C9C9C9"/>
<path d="M22.4867 258.419C11.6925 258.419 2.91028 249.67 2.91028 238.908V19.6364C2.91028 8.8747 11.6925 0.125 22.4867 0.125H165.627C176.421 0.125 185.204 8.8747 185.204 19.6364V238.908C185.204 249.67 176.421 258.419 165.627 258.419H22.4867Z" fill="white"/>
<path d="M154.847 229.35C155.177 228.477 155.744 227.454 156.515 226.265C157.556 224.657 158.402 223.849 159.038 223.849H167.686C167.793 223.839 167.927 223.793 168.067 223.765C168.206 223.718 168.397 223.649 168.615 223.537H169.131V224.243C168.773 224.541 168.448 224.871 168.16 225.242C167.166 226.539 165.943 228.119 164.508 229.973C163.443 231.334 162.672 232.412 162.184 233.202C161.408 234.457 161.018 235.451 161.018 236.209C161.018 236.687 161.116 237.189 161.311 237.714C161.515 238.248 161.789 238.695 162.119 239.076C162.319 239.257 162.672 239.503 163.197 239.81C163.862 240.191 164.359 240.372 164.703 240.372C165.251 240.372 165.99 240.01 166.928 239.257C167.862 238.513 168.397 238.142 168.56 238.142C168.931 238.142 169.126 238.304 169.126 238.625C169.126 238.941 168.718 239.55 167.9 240.414C167.091 241.292 166.324 241.975 165.609 242.463C164.601 243.137 164.052 243.499 163.941 243.55C163.067 244.048 162.314 244.294 161.701 244.294C160.488 244.294 159.378 243.806 158.355 242.835C157.328 241.882 156.822 240.748 156.822 239.433C156.822 238.188 157.18 237.026 157.9 235.948C158.012 235.777 158.527 235.066 159.457 233.816C160.758 232.036 161.538 230.986 161.785 230.656C162.844 229.257 163.369 228.532 163.369 228.467C163.369 228.202 163.206 228.049 162.877 227.989C162.551 227.942 162.231 227.905 161.924 227.905C161.715 227.905 161.478 227.905 161.204 227.905C160.93 227.905 160.786 227.905 160.762 227.905C159.094 227.905 157.867 228.123 157.073 228.542C156.473 229.029 155.869 229.513 155.256 230.005C155.182 230.005 155.112 229.996 155.019 229.94C154.935 229.922 154.88 229.875 154.838 229.866V229.35H154.847Z" fill="#333333"/>
<path d="M36.6404 31.6099C36.3058 32.4835 35.7482 33.5151 34.9769 34.7046C33.9314 36.3124 33.0903 37.1115 32.4538 37.1115H23.8017C23.6901 37.1394 23.5554 37.1674 23.4253 37.2045C23.2766 37.2417 23.0954 37.3299 22.8677 37.4321H22.3612V36.7259C22.7144 36.4285 23.0397 36.0893 23.3277 35.7361C24.3314 34.4304 25.5489 32.8413 26.9801 30.9919C28.0442 29.6397 28.82 28.5617 29.3079 27.7718C30.0793 26.5265 30.4696 25.5228 30.4696 24.7607C30.4696 24.296 30.3721 23.7895 30.1723 23.2737C29.9678 22.7301 29.7076 22.2841 29.3684 21.9031C29.1732 21.7125 28.8201 21.4662 28.2904 21.1688C27.6259 20.7971 27.1287 20.5973 26.7848 20.5973C26.2365 20.5973 25.5023 20.969 24.5637 21.7125C23.6251 22.4652 23.0861 22.837 22.9235 22.837C22.5517 22.837 22.3612 22.6836 22.3612 22.349C22.3612 22.0331 22.7655 21.4337 23.5741 20.5602C24.3919 19.6866 25.1538 19.0081 25.8787 18.5109C26.8824 17.8372 27.4354 17.4933 27.5516 17.4236C28.4158 16.9357 29.1686 16.6895 29.782 16.6895C30.9948 16.6895 32.11 17.1727 33.1276 18.1438C34.1545 19.1057 34.6609 20.2489 34.6609 21.5453C34.6609 22.7952 34.3031 23.9568 33.5783 25.0395C33.4714 25.2114 32.9464 25.9178 32.0217 27.1724C30.7206 28.9521 29.9493 30.0021 29.703 30.3227C28.6389 31.7214 28.1138 32.4557 28.1138 32.5207C28.1138 32.7763 28.2718 32.9389 28.6018 32.9946C28.9317 33.0597 29.2522 33.0875 29.5496 33.0875C29.7633 33.0875 30.0004 33.0875 30.2792 33.0875C30.5487 33.0875 30.6927 33.0875 30.7159 33.0875C32.3701 33.0875 33.6061 32.8691 34.3961 32.4509C35.0094 31.963 35.6088 31.4704 36.2175 30.9825C36.2919 30.9825 36.3709 31.0105 36.4545 31.0476C36.5428 31.0848 36.6032 31.1128 36.6404 31.1407V31.6099Z" fill="#333333"/>
<path d="M113.445 88.8894C113.464 84.4054 93.948 65.2285 93.948 65.2285C93.948 65.2285 74.9292 85.0048 74.9199 88.8057C74.9199 95.2507 80.1241 100.487 86.5691 100.487C88.7762 100.497 90.8348 99.8974 92.5866 98.8286L85.2727 111.3L103.014 111.328L95.7602 98.8472C97.498 99.902 99.5472 100.525 101.754 100.543C108.19 100.543 113.445 95.3343 113.445 88.8894Z" fill="#333333"/>
<path opacity="0.2" d="M113.445 88.8894C113.464 84.4054 93.9481 65.2285 93.9481 65.2285C93.9481 65.2285 93.9295 65.2565 93.9202 65.2565V111.324H103.014L95.7602 98.8425C97.4981 99.8973 99.5473 100.52 101.754 100.539C108.19 100.543 113.445 95.3343 113.445 88.8894Z" fill="#616161"/>
<path d="M113.445 173.22C113.464 177.704 93.948 196.871 93.948 196.871C93.948 196.871 74.9292 177.095 74.9199 173.285C74.9199 166.849 80.1241 161.612 86.5691 161.603C88.7762 161.603 90.8348 162.202 92.5866 163.271L85.2727 150.799L103.014 150.771L95.7602 163.252C97.498 162.198 99.5472 161.566 101.754 161.556C108.19 161.561 113.445 166.77 113.445 173.22Z" fill="#333333"/>
<path opacity="0.2" d="M113.445 173.22C113.464 177.704 93.9481 196.871 93.9481 196.871C93.9481 196.871 93.9341 196.853 93.9202 196.843V150.786L103.014 150.776L95.7602 163.257C97.4981 162.203 99.5473 161.571 101.754 161.561C108.19 161.561 113.445 166.77 113.445 173.22Z" fill="#616161"/>
<path d="M34.3126 51.3463C34.3219 50.1475 29.1177 45.0361 29.1177 45.0361C29.1177 45.0361 24.0435 50.3101 24.0388 51.3184C24.0388 53.0423 25.4282 54.4409 27.1428 54.4409C27.7329 54.4502 28.2859 54.2875 28.7506 53.9948L26.8036 57.3265L31.5339 57.3357L29.5963 54.0042C30.0656 54.2876 30.6139 54.4503 31.1994 54.4503C32.9187 54.4596 34.3126 53.0702 34.3126 51.3463Z" fill="#333333"/>
<path opacity="0.2" d="M34.3126 51.3463C34.3219 50.1475 29.1177 45.0361 29.1177 45.0361L29.1036 45.0454V57.3265L31.5292 57.3357L29.5916 54.0042C30.0609 54.2876 30.6092 54.4503 31.1947 54.4503C32.9186 54.4596 34.3126 53.0702 34.3126 51.3463Z" fill="#616161"/>
<path d="M156.85 209.976C156.85 211.175 162.054 216.282 162.054 216.282C162.054 216.282 167.128 211.008 167.128 209.995C167.128 208.28 165.739 206.891 164.024 206.882C163.434 206.882 162.891 207.035 162.421 207.328L164.368 204.005L159.638 203.996L161.576 207.328C161.106 207.035 160.563 206.872 159.972 206.872C158.253 206.872 156.85 208.262 156.85 209.976Z" fill="#333333"/>
<path opacity="0.2" d="M156.85 209.977C156.85 211.176 162.054 216.283 162.054 216.283C162.054 216.283 162.063 216.283 162.063 216.273V203.992H159.638L161.576 207.324C161.106 207.031 160.563 206.868 159.972 206.868C158.253 206.873 156.85 208.262 156.85 209.977Z" fill="#616161"/>
</svg>
