<svg width="186" height="260" viewBox="0 0 186 260" fill="none" xmlns="http://www.w3.org/2000/svg">
<path d="M21.1446 259.506C10.211 259.534 1.29401 250.794 1.39159 240.041L0.829338 20.2402C0.671351 9.42275 9.58835 0.626483 20.5638 0.654363L165.814 0.919255C176.752 0.937841 185.65 9.73859 185.771 20.5421V239.869C185.65 250.589 176.785 259.33 165.888 259.334L21.1446 259.506Z" fill="#C9C9C9"/>
<path d="M22.9567 258.962C12.1764 258.962 3.38957 250.213 3.51039 239.451V20.17C3.38957 9.4176 12.1718 0.667969 22.9567 0.667969H166.107C176.891 0.667969 185.674 9.4176 185.808 20.17V239.451C185.674 250.213 176.891 258.962 166.107 258.962H22.9567Z" fill="white"/>
<path d="M155.317 229.893C155.652 229.019 156.214 227.997 156.99 226.798C158.021 225.19 158.867 224.391 159.513 224.391H168.16C168.267 224.363 168.393 224.335 168.541 224.307C168.671 224.261 168.871 224.191 169.09 224.07H169.605V224.777C169.238 225.083 168.918 225.413 168.634 225.785C167.635 227.081 166.413 228.652 164.973 230.506C163.923 231.877 163.147 232.955 162.649 233.745C161.887 234.99 161.492 235.994 161.492 236.746C161.492 237.22 161.595 237.718 161.79 238.243C161.99 238.777 162.259 239.223 162.598 239.604C162.789 239.795 163.151 240.041 163.676 240.338C164.341 240.719 164.838 240.91 165.182 240.91C165.73 240.91 166.464 240.538 167.403 239.785C168.342 239.042 168.881 238.67 169.034 238.67C169.41 238.67 169.61 238.833 169.61 239.153C169.61 239.479 169.192 240.087 168.383 240.952C167.57 241.825 166.804 242.513 166.093 243.001C165.084 243.665 164.522 244.028 164.415 244.088C163.546 244.576 162.798 244.822 162.18 244.822C160.972 244.822 159.857 244.339 158.83 243.368C157.808 242.406 157.31 241.263 157.31 239.967C157.31 238.717 157.654 237.555 158.379 236.482C158.486 236.31 159.011 235.594 159.94 234.349C161.237 232.569 162.013 231.51 162.259 231.189C163.319 229.79 163.853 229.056 163.853 229C163.853 228.726 163.686 228.564 163.356 228.517C163.026 228.461 162.705 228.434 162.408 228.434C162.199 228.434 161.952 228.434 161.688 228.434C161.413 228.434 161.269 228.434 161.241 228.434C159.583 228.434 158.351 228.643 157.557 229.07C156.953 229.558 156.339 230.032 155.74 230.524C155.665 230.524 155.587 230.515 155.498 230.469C155.41 230.432 155.354 230.404 155.317 230.39V229.893Z" fill="#333333"/>
<path d="M37.1198 32.1507C36.776 33.0243 36.2276 34.0465 35.4469 35.2453C34.4014 36.8438 33.5697 37.6477 32.9285 37.6477H24.2811C24.1742 37.6755 24.0348 37.6942 23.9 37.7407C23.756 37.7779 23.5748 37.8475 23.3378 37.9591H22.8406V37.2527C23.1938 36.96 23.5143 36.6254 23.7931 36.2537C24.8014 34.9573 26.019 33.3774 27.4548 31.5234C28.5096 30.1712 29.2902 29.0931 29.7781 28.2939C30.5588 27.0486 30.9398 26.0451 30.9398 25.2876C30.9398 24.809 30.8421 24.3072 30.6423 23.7821C30.4425 23.257 30.1731 22.8017 29.8339 22.4206C29.648 22.2394 29.2902 21.9838 28.7512 21.6864C28.0914 21.3053 27.5848 21.1149 27.2549 21.1149C26.7066 21.1149 25.9632 21.4959 25.0292 22.2394C24.0999 22.9922 23.5469 23.3639 23.3982 23.3639C23.0218 23.3639 22.8359 23.1919 22.8359 22.876C22.8359 22.5507 23.2403 21.9606 24.0488 21.0777C24.8713 20.2042 25.6286 19.5164 26.3442 19.0285C27.3479 18.364 27.9054 18.0109 28.0169 17.9505C28.8859 17.4533 29.634 17.207 30.2613 17.207C31.4741 17.207 32.5893 17.6949 33.6069 18.6614C34.6291 19.6232 35.1357 20.7664 35.1357 22.0629C35.1357 23.3221 34.7733 24.4838 34.0577 25.5664C33.9462 25.7384 33.4165 26.4446 32.5011 27.6992C31.1954 29.4696 30.4193 30.5197 30.1731 30.8403C29.1183 32.239 28.5932 32.9732 28.5932 33.0475C28.5932 33.2938 28.7511 33.4564 29.081 33.5214C29.4063 33.5865 29.7316 33.6144 30.0243 33.6144C30.2334 33.6144 30.4751 33.6144 30.7492 33.6144C31.028 33.6144 31.1721 33.6144 31.1907 33.6144C32.8542 33.6144 34.0809 33.396 34.8801 32.9685C35.4796 32.4806 36.0883 31.988 36.6877 31.5001C36.7621 31.5001 36.8456 31.5281 36.9339 31.5746C37.0175 31.6025 37.0826 31.6397 37.1198 31.6582V32.1507Z" fill="#333333"/>
<path d="M84.1163 80.1416C83.9444 79.3516 83.8328 78.571 83.8467 77.7346C83.8328 71.8008 88.67 66.9775 94.6038 66.9775C100.552 66.9961 105.365 71.7776 105.365 77.7346C105.365 79.0217 105.133 80.2391 104.715 81.3729C109.961 81.7818 114.092 86.1543 114.106 91.5119C114.092 97.1205 109.534 101.67 103.916 101.679C102.424 101.698 97.1129 100.029 95.9745 99.3648L102.861 111.181L86.0631 111.153L92.9682 99.3556C91.5835 100.183 85.7054 101.67 84.2835 101.67C78.3311 101.67 73.5079 96.8416 73.5172 90.8893C73.5172 85.0112 78.2522 80.2392 84.1163 80.1416Z" fill="#333333"/>
<path opacity="0.2" d="M84.1163 80.1416C83.9444 79.3516 83.8328 78.571 83.8467 77.7346C83.8328 71.8008 88.67 66.9775 94.6038 66.9775C94.6177 66.9775 94.6362 66.9961 94.6548 66.9961V111.167L86.0631 111.149L92.9682 99.3509C91.5835 100.178 85.7054 101.665 84.2835 101.665C78.3311 101.665 73.5079 96.837 73.5172 90.8846C73.5172 85.0112 78.2522 80.2392 84.1163 80.1416Z" fill="#616161"/>
<path d="M31.9016 49.8264C31.9387 49.6452 31.962 49.4734 31.962 49.2829C31.962 47.9214 30.8655 46.8247 29.5133 46.834C28.1518 46.834 27.0552 47.9214 27.0505 49.2829C27.0505 49.5756 27.1062 49.8543 27.1992 50.1099C26.0003 50.2121 25.0664 51.1973 25.0664 52.424C25.0664 53.7018 26.1026 54.7473 27.3851 54.7473C27.7243 54.7473 28.9371 54.3755 29.1973 54.2129L27.6267 56.908H31.4603L29.8803 54.2129C30.1962 54.4127 31.5345 54.7473 31.8644 54.7473C33.2259 54.7473 34.3179 53.6413 34.3179 52.2891C34.3133 50.9323 33.2351 49.8543 31.9016 49.8264Z" fill="#333333"/>
<path opacity="0.2" d="M31.9016 49.8264C31.9388 49.6452 31.962 49.4734 31.962 49.2829C31.962 47.9214 30.8655 46.8247 29.5133 46.834H29.4993V56.908H31.4603L29.8803 54.2129C30.1963 54.4127 31.5345 54.7473 31.8644 54.7473C33.2259 54.7473 34.3179 53.6413 34.3179 52.2891C34.3133 50.9323 33.2352 49.8543 31.9016 49.8264Z" fill="#616161"/>
<path d="M165.224 212.725C165.261 212.897 165.284 213.068 165.284 213.259C165.284 214.62 164.183 215.717 162.826 215.717C161.465 215.717 160.377 214.62 160.363 213.259C160.363 212.98 160.428 212.697 160.507 212.432C159.322 212.33 158.379 211.345 158.379 210.118C158.379 208.84 159.42 207.804 160.707 207.804C161.037 207.804 162.254 208.185 162.51 208.329L160.939 205.634H164.773L163.198 208.329C163.514 208.138 164.861 207.804 165.177 207.804C166.539 207.804 167.64 208.891 167.64 210.262C167.64 211.6 166.548 212.697 165.224 212.725Z" fill="#333333"/>
<path opacity="0.2" d="M165.224 212.725C165.261 212.897 165.284 213.068 165.284 213.259C165.284 214.62 164.183 215.717 162.826 215.717C162.817 215.717 162.817 215.717 162.817 215.717L162.812 205.634H164.773L163.198 208.329C163.514 208.138 164.861 207.804 165.177 207.804C166.539 207.804 167.64 208.891 167.64 210.262C167.64 211.6 166.548 212.697 165.224 212.725Z" fill="#616161"/>
<path d="M85.7982 180.022C85.6355 180.803 85.5147 181.602 85.5333 182.429C85.5147 188.373 90.3519 193.191 96.2903 193.177C102.233 193.168 107.047 188.377 107.057 182.429C107.057 181.142 106.829 179.916 106.406 178.791C111.652 178.391 115.774 174.01 115.783 168.661C115.778 163.044 111.22 158.494 105.602 158.49C104.111 158.481 98.7902 160.13 97.661 160.804L104.547 148.987L87.7497 149.015L94.6501 160.822C93.2747 159.967 87.3966 158.499 85.97 158.499C80.0177 158.499 75.1897 163.318 75.2036 169.279C75.2083 175.148 79.9387 179.92 85.7982 180.022Z" fill="#333333"/>
<path opacity="0.2" d="M85.7983 180.022C85.6357 180.803 85.5148 181.602 85.5334 182.429C85.5148 188.372 90.352 193.191 96.2905 193.177C96.2998 193.177 96.3276 193.177 96.3415 193.177V148.996L87.7498 149.015L94.6502 160.822C93.2748 159.967 87.3967 158.498 85.9702 158.498C80.0178 158.498 75.1898 163.317 75.2038 169.279C75.2084 175.147 79.9389 179.92 85.7983 180.022Z" fill="#616161"/>
</svg>
