<svg width="186" height="259" viewBox="0 0 186 259" fill="none" xmlns="http://www.w3.org/2000/svg">
<path d="M20.8873 258.885C9.94443 258.904 1.02745 250.173 0.994922 239.416L0.437345 19.6146C0.404818 8.79714 9.31249 0.0102453 20.2879 0.0195386L165.547 0.293719C176.476 0.321599 185.37 9.11306 185.37 19.9073V239.253C185.37 249.964 176.513 258.695 165.612 258.713L20.8873 258.885Z" fill="#C9C9C9"/>
<path d="M22.6902 258.342C11.9007 258.342 3.11383 249.592 3.11383 238.83V19.5494C3.11383 8.78771 11.9053 0.0380859 22.6902 0.0380859H165.831C176.639 0.0380859 185.407 8.78771 185.407 19.5494V238.83C185.407 249.592 176.639 258.342 165.831 258.342H22.6902Z" fill="white"/>
<path d="M16.6542 34.4556C16.6542 34.7901 16.0734 35.3338 14.8978 36.1005C13.5921 36.9462 12.4675 37.3689 11.5196 37.3689C11.0039 37.3689 10.6089 37.1321 10.2929 36.6628C10.0746 36.3003 9.95375 35.9843 9.95375 35.7009V20.9523C9.95375 20.6549 9.91654 20.4458 9.82825 20.3529C9.74926 20.246 9.61455 20.1903 9.42404 20.1903C9.32181 20.1903 9.108 20.2275 8.75486 20.2972C8.40636 20.3808 8.1415 20.3948 7.97422 20.3623C7.89987 20.2693 7.86276 20.1902 7.86276 20.1066C7.86276 19.8975 8.09043 19.6326 8.54116 19.3445C8.98724 19.0471 9.46585 18.6615 9.95375 18.2294C10.3534 17.8948 10.7576 17.5509 11.1758 17.1839C11.608 16.8865 11.9704 16.7285 12.2538 16.7285C12.7278 16.7285 13.1785 16.9841 13.6293 17.4906C14.0753 18.0064 14.2984 18.471 14.2984 18.9449V34.5625C14.3634 34.6461 14.4238 34.7158 14.4656 34.7343C14.6004 34.8412 14.698 34.897 14.7816 34.897C14.9303 34.8412 15.0511 34.7995 15.144 34.7623C15.3949 34.6461 15.7017 34.4555 16.0827 34.1535H16.5706L16.6542 34.4556Z" fill="#333333"/>
<path d="M34.6832 27.2962C34.6832 28.43 34.4556 29.5035 34.0048 30.535C33.2614 32.1939 32.0021 33.6669 30.2085 34.9354C29.1862 35.651 28.4521 36.1249 27.9921 36.3712C26.863 37.0078 25.5618 37.3145 24.0888 37.3145C21.9003 37.3145 20.1206 36.3619 18.7219 34.4846C17.4255 32.7235 16.7704 30.6465 16.7704 28.2767C16.7704 26.7247 17.17 25.1634 17.9646 23.5928C18.4711 22.5845 19.1309 21.6227 19.9487 20.698C20.9663 19.5642 22.0118 18.6488 23.0945 17.9843C24.4699 17.1061 25.8128 16.6787 27.1231 16.6787C29.4418 16.6787 31.3237 17.8125 32.7595 20.08C34.042 22.1153 34.6832 24.5268 34.6832 27.2962ZM30.3758 30.4002C30.3758 29.0108 30.1853 27.6679 29.8043 26.3529C29.4233 25.0472 28.8657 23.8206 28.1315 22.724C27.3416 21.488 26.5702 20.6097 25.836 20.1078C25.3295 19.7454 24.8416 19.5642 24.3909 19.5642C23.3314 19.5642 22.4672 20.0707 21.7981 21.0883C21.1243 22.0966 20.7897 23.2398 20.7897 24.5269C20.7897 25.3168 20.8641 26.0695 21.0174 26.7572C21.2451 27.8352 21.6726 29.0528 22.2952 30.3957C23.0062 31.9755 23.8101 33.1464 24.7022 33.8899C25.4364 34.48 26.1799 34.7866 26.9094 34.7866C28.006 34.7866 28.8563 34.3963 29.465 33.6064C30.0737 32.8304 30.3758 31.7617 30.3758 30.4002Z" fill="#333333"/>
<path d="M173.093 226.35C173.093 226.025 173.679 225.463 174.85 224.715C176.16 223.86 177.28 223.428 178.228 223.428C178.739 223.428 179.143 223.674 179.445 224.143C179.673 224.506 179.789 224.826 179.789 225.105V239.844C179.789 240.151 179.831 240.36 179.915 240.462C179.998 240.56 180.133 240.616 180.324 240.616C180.417 240.616 180.644 240.579 180.988 240.5C181.337 240.425 181.597 240.407 181.769 240.444C181.843 240.541 181.876 240.625 181.876 240.709C181.876 240.908 181.657 241.164 181.188 241.462C180.742 241.768 180.273 242.131 179.785 242.577C179.394 242.911 178.976 243.26 178.558 243.622C178.126 243.924 177.773 244.078 177.48 244.078C177.006 244.078 176.541 243.822 176.109 243.306C175.658 242.8 175.44 242.326 175.44 241.87V226.253C175.361 226.155 175.305 226.09 175.268 226.081C175.133 225.955 175.026 225.909 174.957 225.909C174.803 225.956 174.678 226.011 174.59 226.044C174.339 226.16 174.027 226.35 173.651 226.643H173.168L173.093 226.35Z" fill="#333333"/>
<path d="M155.06 233.499C155.06 232.384 155.287 231.302 155.738 230.27C156.472 228.602 157.741 227.129 159.535 225.87C160.557 225.154 161.291 224.68 161.746 224.429C162.88 223.802 164.186 223.495 165.654 223.495C167.833 223.495 169.618 224.438 171.012 226.334C172.318 228.086 172.973 230.163 172.973 232.542C172.973 234.094 172.578 235.646 171.779 237.217C171.267 238.225 170.608 239.178 169.794 240.112C168.777 241.245 167.731 242.152 166.653 242.825C165.269 243.703 163.935 244.14 162.62 244.14C160.292 244.14 158.419 242.997 156.979 240.73C155.701 238.69 155.06 236.278 155.06 233.499ZM159.367 230.414C159.367 231.785 159.558 233.128 159.939 234.443C160.315 235.758 160.877 236.975 161.612 238.09C162.402 239.317 163.168 240.186 163.907 240.706C164.414 241.06 164.901 241.241 165.357 241.241C166.412 241.241 167.281 240.725 167.95 239.726C168.623 238.718 168.958 237.565 168.958 236.278C168.958 235.488 168.884 234.735 168.73 234.034C168.498 232.965 168.075 231.748 167.453 230.414C166.737 228.816 165.933 227.654 165.046 226.92C164.302 226.32 163.568 226.023 162.834 226.023C161.737 226.023 160.891 226.413 160.278 227.194C159.665 227.975 159.367 229.043 159.367 230.414Z" fill="#333333"/>
<path d="M138.89 34.6478C139.061 33.83 139.187 33.0121 139.173 32.1432C139.191 25.9632 134.155 20.9634 127.979 20.9727C121.804 20.982 116.799 25.9632 116.795 32.1432C116.795 33.4768 117.027 34.7501 117.468 35.9257C112.009 36.3439 107.729 40.8975 107.715 46.4642C107.729 52.3005 112.464 57.0262 118.3 57.0262C119.857 57.0355 125.372 55.3115 126.557 54.6192L119.401 66.9003L136.854 66.8911L129.689 54.6192C131.125 55.4788 137.231 57.0262 138.708 57.0262C144.902 57.0262 149.911 51.9985 149.907 45.8277C149.907 39.7127 144.991 34.75 138.89 34.6478Z" fill="#333333"/>
<path opacity="0.2" d="M138.89 34.6478C139.061 33.83 139.187 33.0121 139.173 32.1432C139.191 25.9632 134.155 20.9634 127.979 20.9727C127.965 20.9727 127.947 20.982 127.928 20.982V66.905L136.854 66.8957L129.689 54.6238C131.125 55.4835 137.231 57.0308 138.708 57.0308C144.902 57.0308 149.911 52.0031 149.907 45.8324C149.907 39.7127 144.991 34.75 138.89 34.6478Z" fill="#616161"/>
<path d="M104.681 67.2191C104.853 66.4013 104.969 65.5742 104.95 64.7145C104.969 58.5345 99.9318 53.5254 93.761 53.544C87.581 53.544 82.5765 58.5345 82.5672 64.7145C82.5672 66.0481 82.8135 67.3166 83.241 68.4922C77.7951 68.9197 73.5062 73.4642 73.4923 79.0309C73.5016 84.8857 78.2319 89.5928 84.0774 89.6114C85.634 89.6207 91.1589 87.8968 92.3438 87.1905L85.1786 99.4809L102.636 99.4623L95.4617 87.1811C96.8975 88.0547 103.008 89.5975 104.49 89.5975C110.68 89.5975 115.689 84.5791 115.684 78.399C115.693 72.284 110.768 67.3167 104.681 67.2191Z" fill="#333333"/>
<path opacity="0.2" d="M104.681 67.2191C104.853 66.4013 104.969 65.5742 104.95 64.7145C104.969 58.5345 99.9318 53.5254 93.761 53.544C93.7517 53.544 93.7332 53.544 93.7146 53.544V99.467L102.641 99.4576L95.4664 87.1766C96.9022 88.0502 103.013 89.5928 104.495 89.5928C110.684 89.5928 115.693 84.5744 115.689 78.3943C115.693 72.284 110.768 67.3167 104.681 67.2191Z" fill="#616161"/>
<path d="M138.89 91.1678C139.061 90.3499 139.187 89.5322 139.173 88.6726C139.191 82.4925 134.155 77.4834 127.979 77.502C121.804 77.5113 116.799 82.4925 116.795 88.6726C116.795 90.0061 117.027 91.2793 117.468 92.4596C112.009 92.8778 107.729 97.4316 107.715 102.998C107.729 108.834 112.464 113.551 118.3 113.56C119.857 113.569 125.372 111.845 126.557 111.153L119.401 123.434L136.854 123.416L129.689 111.144C131.125 112.008 137.231 113.551 138.708 113.551C144.902 113.551 149.911 108.532 149.907 102.352C149.907 96.242 144.991 91.2793 138.89 91.1678Z" fill="#333333"/>
<path opacity="0.2" d="M138.89 91.1678C139.061 90.3499 139.187 89.5322 139.173 88.6726C139.192 82.4925 134.155 77.4834 127.979 77.502C127.965 77.502 127.947 77.502 127.928 77.502V123.434L136.854 123.416L129.689 111.144C131.125 112.008 137.231 113.551 138.708 113.551C144.902 113.551 149.911 108.532 149.907 102.352C149.907 96.242 144.991 91.2793 138.89 91.1678Z" fill="#616161"/>
<path d="M49.7246 34.6478C49.5573 33.83 49.4365 33.0121 49.4505 32.1432C49.4365 25.9632 54.4642 20.9634 60.6396 20.9727C66.8196 20.982 71.8288 25.9632 71.8288 32.1432C71.8288 33.4768 71.5965 34.7501 71.1597 35.9257C76.6056 36.3439 80.8945 40.8975 80.9084 46.4642C80.8991 52.3005 76.1641 57.0262 70.3232 57.0262C68.7759 57.0355 63.2417 55.3115 62.0661 54.6192L69.2267 66.9003L51.7691 66.8911L58.9343 54.6192C57.4985 55.4788 51.3974 57.0262 49.9198 57.0262C43.7257 57.0262 38.712 51.9985 38.726 45.8277C38.7167 39.7127 43.6281 34.75 49.7246 34.6478Z" fill="#333333"/>
<path opacity="0.2" d="M49.7245 34.6478C49.5573 33.83 49.4365 33.0121 49.4504 32.1432C49.4365 25.9632 54.4641 20.9634 60.6396 20.9727C60.6535 20.9727 60.6628 20.982 60.6814 20.982V66.905L51.7645 66.8957L58.9296 54.6238C57.4938 55.4835 51.3927 57.0308 49.9151 57.0308C43.721 57.0308 38.7073 52.0031 38.7213 45.8324C38.7166 39.7127 43.6281 34.75 49.7245 34.6478Z" fill="#616161"/>
<path d="M49.7245 91.1678C49.5573 90.3499 49.4365 89.5322 49.4504 88.6726C49.4365 82.4925 54.4641 77.4834 60.6395 77.502C66.8196 77.5113 71.8287 82.4925 71.8287 88.6726C71.8287 90.0061 71.5964 91.2793 71.1596 92.4596C76.6055 92.8778 80.8944 97.4316 80.9084 102.998C80.8991 108.834 76.1641 113.551 70.3232 113.56C68.7759 113.569 63.2417 111.845 62.0661 111.153L69.2266 123.434L51.7691 123.416L58.9343 111.144C57.4985 112.008 51.3974 113.551 49.9197 113.551C43.7257 113.551 38.712 108.532 38.7259 102.352C38.7166 96.242 43.6281 91.2793 49.7245 91.1678Z" fill="#333333"/>
<path opacity="0.2" d="M49.7245 91.1678C49.5573 90.3499 49.4365 89.5322 49.4504 88.6726C49.4365 82.4925 54.4641 77.4834 60.6396 77.502C60.6535 77.502 60.6628 77.502 60.6814 77.502V123.434L51.7645 123.416L58.9296 111.144C57.4938 112.008 51.3927 113.551 49.9151 113.551C43.721 113.551 38.7073 108.532 38.7213 102.352C38.7166 96.242 43.6281 91.2793 49.7245 91.1678Z" fill="#616161"/>
<path d="M138.889 223.731C139.061 224.54 139.187 225.367 139.173 226.226C139.191 232.397 134.154 237.406 127.979 237.397C121.804 237.388 116.799 232.406 116.795 226.226C116.795 224.883 117.027 223.62 117.468 222.444C112.008 222.026 107.729 217.472 107.715 211.915C107.729 206.069 112.464 201.353 118.3 201.343C119.857 201.334 125.372 203.058 126.557 203.76L119.401 191.479H136.854L129.689 203.76C131.125 202.886 137.231 201.362 138.708 201.362C144.902 201.353 149.911 206.371 149.907 212.551C149.907 218.666 144.991 223.629 138.889 223.731Z" fill="#333333"/>
<path opacity="0.2" d="M138.889 223.732C139.061 224.54 139.187 225.367 139.173 226.227C139.191 232.398 134.154 237.407 127.979 237.398C127.965 237.398 127.947 237.398 127.928 237.398V191.475H136.854L129.689 203.756C131.125 202.882 137.231 201.358 138.708 201.358C144.902 201.349 149.911 206.367 149.907 212.547C149.907 218.667 144.991 223.63 138.889 223.732Z" fill="#616161"/>
<path d="M104.681 191.16C104.853 191.969 104.969 192.786 104.95 193.665C104.969 199.835 99.9318 204.844 93.7611 204.835C87.581 204.826 82.5766 199.835 82.5673 193.665C82.5673 192.322 82.8136 191.058 83.2411 189.878C77.7952 189.45 73.5062 184.896 73.4923 179.348C73.5016 173.503 78.2319 168.777 84.0774 168.768C85.634 168.768 91.159 170.482 92.3439 171.189L85.1787 158.894L102.636 158.912L95.4617 171.193C96.8976 170.32 103.008 168.786 104.49 168.777C110.68 168.777 115.689 173.795 115.684 179.976C115.693 186.086 110.768 191.067 104.681 191.16Z" fill="#333333"/>
<path opacity="0.2" d="M104.681 191.159C104.853 191.968 104.969 192.786 104.95 193.664C104.969 199.835 99.9318 204.844 93.761 204.835C93.7517 204.835 93.7332 204.835 93.7146 204.835V158.902L102.641 158.912L95.4664 171.193C96.9022 170.319 103.013 168.786 104.495 168.777C110.684 168.777 115.693 173.795 115.689 179.975C115.693 186.085 110.768 191.067 104.681 191.159Z" fill="#616161"/>
<path d="M138.89 167.2C139.061 168.009 139.187 168.836 139.173 169.696C139.191 175.876 134.155 180.876 127.979 180.866C121.804 180.866 116.799 175.876 116.795 169.696C116.795 168.362 117.027 167.089 117.468 165.909C112.009 165.5 107.729 160.928 107.715 155.379C107.729 149.534 112.464 144.817 118.3 144.808C119.857 144.799 125.372 146.523 126.557 147.225L119.401 134.943L136.854 134.953L129.689 147.225C131.125 146.351 137.231 144.827 138.708 144.827C144.902 144.817 149.911 149.836 149.907 156.025C149.907 162.136 144.991 167.098 138.89 167.2Z" fill="#333333"/>
<path opacity="0.2" d="M138.89 167.201C139.061 168.01 139.187 168.837 139.173 169.696C139.191 175.876 134.155 180.876 127.979 180.867C127.965 180.867 127.947 180.867 127.928 180.867V134.953H136.854L129.689 147.225C131.125 146.352 137.231 144.827 138.708 144.827C144.902 144.818 149.911 149.836 149.907 156.026C149.907 162.136 144.991 167.099 138.89 167.201Z" fill="#616161"/>
<path d="M49.7245 223.731C49.5573 224.54 49.4365 225.367 49.4504 226.226C49.4365 232.397 54.4641 237.406 60.6395 237.397C66.8196 237.388 71.8287 232.406 71.8287 226.226C71.8287 224.883 71.5964 223.62 71.1596 222.444C76.6055 222.026 80.8944 217.472 80.9084 211.915C80.8991 206.069 76.1641 201.353 70.3232 201.343C68.7759 201.334 63.2417 203.058 62.0661 203.76L69.2266 191.479H51.7691L58.9343 203.76C57.4985 202.886 51.3974 201.362 49.9197 201.362C43.7257 201.353 38.712 206.371 38.7259 212.551C38.7166 218.666 43.6281 223.629 49.7245 223.731Z" fill="#333333"/>
<path opacity="0.2" d="M49.7245 223.732C49.5573 224.54 49.4365 225.367 49.4504 226.227C49.4365 232.398 54.4641 237.407 60.6396 237.398C60.6535 237.398 60.6628 237.398 60.6814 237.398V191.475H51.7645L58.9296 203.756C57.4938 202.882 51.3927 201.358 49.9151 201.358C43.721 201.349 38.7073 206.367 38.7213 212.547C38.7166 218.667 43.6281 223.63 49.7245 223.732Z" fill="#616161"/>
<path d="M49.7243 167.2C49.557 168.009 49.4363 168.836 49.4502 169.696C49.4363 175.876 54.4639 180.876 60.6393 180.866C66.8194 180.866 71.8285 175.876 71.8285 169.696C71.8285 168.362 71.5962 167.089 71.1594 165.909C76.6053 165.5 80.8942 160.928 80.9082 155.379C80.8989 149.534 76.1638 144.817 70.323 144.808C68.7756 144.799 63.2415 146.523 62.0659 147.225L69.2264 134.943L51.7689 134.953L58.9341 147.225C57.4982 146.351 51.3972 144.827 49.9195 144.827C43.7255 144.817 38.7118 149.836 38.7257 156.025C38.7164 162.136 43.6279 167.098 49.7243 167.2Z" fill="#333333"/>
<path opacity="0.2" d="M49.7245 167.201C49.5573 168.01 49.4365 168.837 49.4504 169.696C49.4365 175.876 54.4641 180.876 60.6396 180.867C60.6535 180.867 60.6628 180.867 60.6814 180.867V134.953H51.7645L58.9296 147.225C57.4938 146.352 51.3927 144.827 49.9151 144.827C43.721 144.818 38.7073 149.836 38.7213 156.026C38.7166 162.136 43.6281 167.099 49.7245 167.201Z" fill="#616161"/>
<path d="M20.6132 50.2774C20.655 50.0869 20.6783 49.9057 20.6783 49.6966C20.6783 48.2979 19.5352 47.1455 18.1226 47.1455C16.71 47.1455 15.5762 48.2979 15.5762 49.6966C15.5762 50.0033 15.6273 50.2959 15.7296 50.5701C14.4796 50.663 13.4992 51.7132 13.4945 52.9724C13.4945 54.306 14.5865 55.3888 15.9154 55.3888C16.2685 55.3888 17.5278 54.9891 17.802 54.8357L16.1663 57.6423H20.1486L18.5129 54.8357C18.8382 55.0355 20.2415 55.3888 20.5807 55.3888C21.9887 55.3888 23.127 54.2364 23.127 52.8285C23.1317 51.4298 22.0072 50.2914 20.6132 50.2774Z" fill="#333333"/>
<path opacity="0.2" d="M20.6132 50.2774C20.655 50.0869 20.6783 49.9057 20.6783 49.6966C20.6783 48.2979 19.5352 47.1455 18.1226 47.1455H18.1133V57.6377H20.1486L18.5129 54.8312C18.8382 55.031 20.2415 55.3841 20.5807 55.3841C21.9887 55.3841 23.1271 54.2317 23.1271 52.8238C23.1317 51.4298 22.0072 50.2914 20.6132 50.2774Z" fill="#616161"/>
<path d="M173.168 214.353C173.214 214.544 173.242 214.734 173.242 214.925C173.242 216.342 172.095 217.476 170.682 217.476C169.279 217.476 168.131 216.342 168.131 214.925C168.131 214.627 168.182 214.344 168.284 214.074C167.039 213.972 166.059 212.931 166.059 211.667C166.059 210.334 167.137 209.242 168.475 209.242C168.823 209.242 170.092 209.632 170.357 209.795L168.726 206.988H172.703L171.072 209.804C171.398 209.604 172.796 209.251 173.135 209.251C174.553 209.242 175.682 210.394 175.682 211.811C175.686 213.201 174.571 214.344 173.168 214.353Z" fill="#333333"/>
<path opacity="0.2" d="M173.168 214.353C173.214 214.543 173.242 214.734 173.242 214.924C173.242 216.341 172.095 217.475 170.682 217.475H170.668V206.992H172.703L171.072 209.808C171.398 209.608 172.796 209.255 173.135 209.255C174.553 209.246 175.682 210.398 175.682 211.816C175.686 213.2 174.571 214.343 173.168 214.353Z" fill="#616161"/>
</svg>
