<svg width="185" height="259" viewBox="0 0 185 259" fill="none" xmlns="http://www.w3.org/2000/svg">
<path d="M21.0902 258.301C10.2031 258.32 1.33256 249.63 1.30468 238.929L0.737777 20.1964C0.714544 9.43473 9.58506 0.689703 20.5001 0.712937L165.039 0.977793C175.917 0.99638 184.774 9.75072 184.774 20.4938V238.752C184.774 249.426 175.959 258.124 165.114 258.129L21.0902 258.301Z" fill="#C9C9C9"/>
<path d="M21.2017 257.72C10.4679 257.72 1.72752 249.008 1.72752 238.302V20.0944C1.72752 9.38388 10.4679 0.680664 21.2017 0.680664H163.655C174.388 0.680664 183.129 9.38853 183.129 20.0944V238.302C183.129 249.008 174.388 257.72 163.655 257.72H21.2017Z" fill="white"/>
<path d="M165.304 253.668H22.8559C14.5291 253.668 7.76352 246.926 7.76352 238.636V20.4289C7.76352 12.4646 14.0969 5.96849 17.4844 4.72783L17.9862 4.54199L161.187 4.54664C175.346 5.65719 180.396 13.4775 180.396 20.4289V238.636C180.396 246.926 173.631 253.668 165.304 253.668ZM19.199 10.499C17.6563 11.4609 13.7252 15.4802 13.7252 20.4243V238.632C13.7252 243.632 17.8236 247.697 22.8559 247.697H165.304C170.332 247.697 174.435 243.632 174.435 238.632V20.4243C174.435 14.9041 169.351 11.196 160.829 10.499H19.199Z" fill="#D66142"/>
<path d="M35.7504 27.7246C35.7504 28.7051 35.5135 29.7831 35.0209 30.968C34.5423 32.1529 33.9708 33.0961 33.3249 33.7838C33.0739 34.0534 32.6372 34.4344 32.0192 34.9409C31.1131 35.6751 30.1791 36.3349 29.194 36.9158C28.9152 37.083 28.7107 37.2085 28.576 37.2828C28.1485 37.5663 27.9347 37.7614 27.9347 37.8729C27.9347 38.1006 28.5946 38.4863 29.9328 39.0346C31.1317 39.5225 32.0424 39.8338 32.6418 39.9639C32.7208 39.9825 32.8509 39.9918 33.0414 39.9918H33.5479C33.7013 39.9918 33.8546 39.9918 34.0126 39.9918C34.1706 39.9918 34.3379 40.015 34.5098 40.0755C34.3936 40.187 34.1706 40.3217 33.8406 40.4843C33.5107 40.6423 33.1762 40.8004 32.837 40.949C32.3723 41.3626 32.0099 41.6739 31.7543 41.8877C31.5034 42.106 31.2989 42.2176 31.1502 42.2176C30.7135 42.2176 30.0071 41.7343 29.0035 40.7771C28.0137 39.8199 27.0612 39.3413 26.1643 39.3413C25.5928 39.3413 25.0492 39.5504 24.5102 39.9732C23.9758 40.4007 23.6459 40.6098 23.5344 40.6098C23.316 40.6098 23.1905 40.4612 23.1905 40.1591C23.1905 39.95 23.5158 39.6062 24.1523 39.1183C24.5705 38.7977 24.9841 38.4863 25.3977 38.1843C24.3615 37.5849 23.3671 36.9529 22.4191 36.2977C21.4712 35.6379 20.6302 34.8293 19.8867 33.8721C19.2548 33.0218 18.7576 32.125 18.423 31.1771C18.0838 30.2245 17.9212 29.2441 17.9212 28.2311C17.9212 26.6838 18.2139 25.4338 18.8226 24.4766C19.0503 24.1188 19.7613 23.3335 20.9694 22.1068C21.3504 21.7304 22.2937 20.9219 23.8178 19.6766C25.7229 18.1385 26.8567 17.3672 27.2285 17.3672C27.5723 17.3672 28.1949 17.7018 29.1196 18.357C30.2488 19.1422 31.5499 20.29 33.0414 21.7955C33.9801 22.7387 34.6724 23.6681 35.0999 24.5928C35.532 25.5128 35.7504 26.5583 35.7504 27.7246ZM30.9783 30.3686C30.9783 29.5089 30.7971 28.5517 30.43 27.5109C30.0583 26.47 29.5518 25.4849 28.8873 24.5649C28.3715 23.8307 27.4329 22.9571 26.0621 21.9442C25.6161 21.5957 24.9795 21.1728 24.1431 20.6431C23.8271 20.6431 23.4321 21.2007 22.9489 22.3205C22.4656 23.4404 22.224 24.1699 22.224 24.5091C22.224 26.0518 22.5539 27.483 23.2091 28.8026C23.7621 29.9085 24.6031 31.0563 25.7462 32.2412C26.2155 32.7291 27.3632 33.8024 29.1893 35.4567C29.812 34.8712 30.2859 33.9837 30.6066 32.7755C30.8575 31.8694 30.9783 31.0702 30.9783 30.3686Z" fill="#333333"/>
<path d="M153.144 233.708C153.144 232.728 153.395 231.654 153.869 230.465C154.347 229.28 154.914 228.341 155.583 227.649C155.816 227.38 156.257 226.994 156.875 226.483C157.777 225.753 158.72 225.089 159.691 224.508C159.974 224.336 160.179 224.215 160.318 224.141C160.75 223.862 160.96 223.667 160.96 223.551C160.96 223.328 160.29 222.937 158.957 222.398C157.758 221.906 156.852 221.599 156.257 221.46C156.183 221.446 156.043 221.436 155.857 221.436H155.351C155.198 221.436 155.044 221.436 154.886 221.436C154.733 221.436 154.566 221.404 154.389 221.348C154.501 221.237 154.733 221.097 155.058 220.939C155.384 220.781 155.713 220.628 156.057 220.479C156.527 220.061 156.894 219.745 157.149 219.527C157.4 219.313 157.605 219.206 157.749 219.206C158.181 219.206 158.901 219.685 159.891 220.642C160.894 221.599 161.838 222.082 162.739 222.082C163.311 222.082 163.859 221.869 164.393 221.446C164.932 221.023 165.248 220.809 165.365 220.809C165.592 220.809 165.708 220.963 165.708 221.26C165.708 221.469 165.383 221.817 164.737 222.305C164.328 222.626 163.91 222.937 163.501 223.239C164.528 223.839 165.527 224.475 166.48 225.131C167.428 225.79 168.273 226.599 169.003 227.556C169.649 228.402 170.132 229.299 170.471 230.251C170.81 231.204 170.978 232.184 170.978 233.202C170.978 234.74 170.68 235.99 170.072 236.952C169.853 237.309 169.133 238.099 167.93 239.321C167.553 239.698 166.605 240.506 165.081 241.747C163.19 243.29 162.051 244.066 161.67 244.066C161.327 244.066 160.695 243.736 159.779 243.076C158.65 242.286 157.344 241.138 155.857 239.637C154.914 238.69 154.236 237.765 153.799 236.84C153.362 235.92 153.144 234.879 153.144 233.708ZM157.916 231.055C157.916 231.919 158.097 232.877 158.474 233.922C158.836 234.963 159.342 235.948 160.007 236.873C160.513 237.602 161.461 238.476 162.823 239.493C163.283 239.833 163.915 240.265 164.742 240.79C165.067 240.79 165.471 240.228 165.95 239.112C166.424 237.993 166.661 237.268 166.661 236.924C166.661 235.386 166.336 233.955 165.676 232.64C165.137 231.534 164.291 230.381 163.139 229.201C162.669 228.704 161.522 227.64 159.696 225.981C159.073 226.571 158.613 227.459 158.288 228.657C158.037 229.568 157.916 230.363 157.916 231.055Z" fill="#333333"/>
<path d="M121.802 73.6016L121.528 77.4862L121.351 79.8513L120.626 89.995L120.45 92.3695L120.227 95.6128V95.6268L120.008 98.6146L117.69 98.6657L116.602 98.6796L114.335 98.7354L113.048 98.7633L111.486 98.7958L108.717 98.8469L105.65 98.9166L91.2177 99.214H91.1898L76.7619 98.9166L73.6951 98.8469L70.9257 98.7958L69.3644 98.7633L68.0773 98.7354L66.9388 98.7075L65.8051 98.6796L64.7085 98.6657L62.4037 98.6146L62.1853 95.6268V95.6128L61.9576 92.3695L61.7764 89.995L61.0608 79.8513L60.8796 77.4862L60.6101 73.6016H121.802Z" fill="#C9C9C9"/>
<path opacity="0.2" d="M119.014 73.6016L100.911 86.6355H100.832C99.2843 88.6103 97.4535 90.1158 95.4508 90.9801C94.1915 91.5191 92.8486 91.8072 91.4779 91.8072C91.3942 91.8072 91.2967 91.798 91.2084 91.784C91.1944 91.784 91.1944 91.784 91.1852 91.784V73.6016H119.014Z" fill="#616161"/>
<path d="M131.579 113.529L119.971 116.986L118.879 117.307L118.559 117.405C117.648 115.876 116.909 114.761 116.588 114.263C116.477 114.101 116.412 114.003 116.375 113.98C116.351 114.003 116.333 114.04 116.314 114.068C116.277 114.124 116.259 114.166 116.221 114.226C115.283 115.792 114.767 117.242 114.446 118.636L111.347 119.57L91.2177 125.569L78.6531 129.305L74.4572 130.578C74.3224 130.085 74.1412 129.542 73.9274 128.989C66.6647 125.866 69.9685 120.899 66.437 114.635C66.3998 114.556 66.3534 114.477 66.2697 114.398C66.214 114.259 66.1164 114.119 66.0281 113.98C65.596 114.519 57.4039 127.023 55.996 136.084L54.983 136.377L46.8327 138.807H46.6329C46.4935 120.936 51.944 109.013 56.9485 101.815C57.3109 101.322 57.6409 100.839 58.0033 100.384C58.3425 99.9749 58.6585 99.5288 58.9791 99.1571L58.9977 99.1339C58.9977 99.1153 58.9977 99.092 58.9977 99.092C59.2533 98.8132 59.4902 98.4972 59.7505 98.237C59.9874 97.9396 60.2291 97.6608 60.466 97.4053C61.084 96.7315 61.6556 96.1321 62.176 95.6163V95.5978H62.1946C62.334 95.4769 62.4502 95.3608 62.5942 95.2167C62.715 95.0959 62.8312 94.9797 62.9473 94.8821C63.0682 94.7846 63.1843 94.6637 63.3098 94.5615C63.5328 94.3617 63.7327 94.1898 63.9278 94.0272C64.7224 93.3348 65.2196 93.0142 65.2196 93.0142L67.1061 93.4742L67.4268 93.5485L68.1795 93.7483L68.3747 93.7856L71.0047 93.6694L75.0612 93.5114L79.3733 93.3302L91.2037 92.8516H91.2223L103.285 93.3487L107.365 93.5068L111.421 93.6647L114.042 93.7809L114.256 93.7437L114.99 93.5439L115.325 93.4695L117.197 93.0095C117.197 93.0095 117.694 93.3302 118.484 94.0225C118.679 94.1805 118.884 94.3571 119.121 94.5569C119.218 94.6638 119.339 94.78 119.451 94.8775C119.581 94.9751 119.697 95.0912 119.818 95.212C119.953 95.3561 120.073 95.4723 120.213 95.5931L120.231 95.6117C120.362 95.7092 120.468 95.8487 120.612 95.9881C120.752 96.1275 120.905 96.2669 121.054 96.4295C121.328 96.7269 121.639 97.0429 121.946 97.4007C122.16 97.6191 122.341 97.8374 122.559 98.0744C122.597 98.1348 122.615 98.1767 122.666 98.2324C122.922 98.4926 123.164 98.8086 123.419 99.0874C123.419 99.0874 123.438 99.1106 123.438 99.1292V99.1525C123.754 99.5242 124.07 99.9656 124.427 100.379C124.767 100.835 125.106 101.318 125.464 101.81C127.569 104.863 129.762 108.743 131.579 113.529Z" fill="#FDD8AB"/>
<path opacity="0.2" d="M91.1991 105.948H93.8523L92.6721 115.52C92.1888 115.548 91.6916 115.558 91.2037 115.571L91.1991 105.948Z" fill="#616161"/>
<path opacity="0.2" d="M91.2176 73.6035H63.398L81.5015 86.6328H81.5805C81.5805 86.6328 87.3563 91.8092 90.9296 91.8092C91.0318 91.8092 91.1247 91.7906 91.2176 91.7906V73.6035Z" fill="#616161"/>
<path opacity="0.2" d="M91.2177 105.948H88.5598L89.7494 115.52C90.2326 115.548 90.7298 115.558 91.2177 115.571V105.948Z" fill="#616161"/>
<path opacity="0.2" d="M81.5294 113.985C68.0773 111.016 60.7727 106.486 56.9578 101.83C59.7458 97.8335 62.4083 95.3057 63.9231 94.0186L81.5294 113.985Z" fill="#616161"/>
<path d="M115.543 97.4341C115.543 100.817 114.275 103.991 112.044 106.718C110.199 109.004 107.672 110.97 104.67 112.461C104.651 112.485 104.633 112.485 104.591 112.503C103.42 113.061 102.189 113.581 100.874 113.99C98.3318 114.827 95.567 115.361 92.6629 115.524C92.5049 115.524 92.3515 115.547 92.1889 115.547C91.8729 115.561 91.5476 115.561 91.2177 115.561C91.1991 115.561 91.1991 115.561 91.1991 115.561C90.8739 115.561 90.5347 115.561 90.2233 115.547C90.0561 115.547 89.8981 115.524 89.7448 115.524C86.8406 115.361 84.0711 114.827 81.5294 113.99C80.2376 113.577 78.9924 113.056 77.8121 112.503C77.7842 112.485 77.7842 112.485 77.7424 112.461C74.7546 110.97 72.2128 109.004 70.3774 106.741C68.1377 104.014 66.8599 100.84 66.8599 97.4341C66.8599 94.9295 66.3209 94.7298 67.5755 92.5458L74.7128 92.4436L86.9521 92.2856V89.7578C88.2253 90.3201 89.5589 90.6174 90.9343 90.6174C91.0086 90.6174 91.1062 90.5989 91.1945 90.5989C91.1945 90.5989 91.1945 90.5989 91.2131 90.5989C91.306 90.5989 91.3897 90.6174 91.4873 90.6174C92.858 90.6174 94.1916 90.3201 95.4462 89.7578V92.2856L107.686 92.4436L114.841 92.5458C116.091 94.7298 115.543 94.9295 115.543 97.4341Z" fill="#FDD8AB"/>
<path opacity="0.2" d="M114.818 92.5456L107.676 92.448L104.275 103.205C103.429 103.061 102.565 102.973 101.691 102.959C96.5892 102.88 91.3292 107.355 91.3292 107.355C91.3292 107.355 85.7671 102.88 80.7906 102.88C79.8705 102.88 78.9644 102.973 78.0769 103.126L74.6941 92.4434L67.5569 92.5409C66.2976 94.7202 66.8459 94.9293 66.8459 97.4385C66.8459 100.831 68.1609 103.995 70.382 106.718C70.3727 106.718 70.3634 106.723 70.3634 106.732C70.5075 106.918 70.6933 107.094 70.8653 107.276C71.1162 107.564 71.3718 107.852 71.6506 108.13C71.9805 108.465 72.3476 108.786 72.7147 109.106C72.947 109.311 73.17 109.515 73.4116 109.71C73.8902 110.087 74.3968 110.44 74.8986 110.784C75.0891 110.905 75.2471 111.039 75.433 111.16C76.1625 111.616 76.9152 112.052 77.7145 112.447C77.7563 112.47 77.7563 112.47 77.7981 112.489C78.969 113.047 80.219 113.567 81.5061 113.976C84.0525 114.812 86.8173 115.347 89.7214 115.509C89.8748 115.509 90.0374 115.533 90.2001 115.533C90.5207 115.547 90.8552 115.547 91.1712 115.547C91.1712 115.547 91.1712 115.547 91.1944 115.547C91.5383 115.547 91.8496 115.547 92.1702 115.533C92.3282 115.533 92.4862 115.509 92.6489 115.509C95.5437 115.347 98.3131 114.812 100.85 113.976C102.165 113.562 103.397 113.042 104.568 112.489C104.605 112.47 104.628 112.47 104.647 112.447C105.455 112.048 106.222 111.611 106.951 111.142C107.1 111.053 107.221 110.956 107.356 110.858C107.913 110.482 108.452 110.105 108.963 109.71C109.214 109.506 109.447 109.292 109.693 109.078C110.041 108.772 110.39 108.465 110.715 108.14C111.012 107.842 111.287 107.526 111.561 107.21C111.709 107.039 111.886 106.881 112.03 106.704L112.012 106.69C114.223 103.976 115.524 100.826 115.524 97.4338C115.524 94.9339 116.073 94.7249 114.818 92.5456Z" fill="#616161"/>
<path d="M95.4461 88.0522V89.7529C94.1915 90.3151 92.8626 90.6126 91.4872 90.6126C91.3896 90.6126 91.2827 90.5939 91.213 90.5939C91.1108 90.5939 91.0132 90.6126 90.9342 90.6126C89.5588 90.6126 88.2252 90.3151 86.952 89.7529V88.0522C86.952 87.713 87.0124 87.3924 87.0728 87.0765C87.1332 86.8581 87.189 86.6443 87.2912 86.4398C87.9232 84.9715 89.3729 83.9307 91.0597 83.9307C91.1015 83.9307 91.1479 83.9492 91.2083 83.9492C91.2455 83.9492 91.2827 83.9307 91.3245 83.9307C92.8997 83.9307 94.2473 84.8042 94.9397 86.1006C95.0976 86.398 95.2463 86.7372 95.3206 87.0718C95.4043 87.3924 95.4461 87.7177 95.4461 88.0522Z" fill="#FDD8AB"/>
<path opacity="0.2" d="M95.4461 88.0551V89.7558C94.1915 90.318 92.8626 90.6155 91.4872 90.6155C91.3896 90.6155 91.2827 90.5968 91.213 90.5968C91.1108 90.5968 91.0132 90.6155 90.9342 90.6155C89.5588 90.6155 88.2252 90.318 86.952 89.7558V88.0551C86.952 87.7159 87.0124 87.3953 87.0728 87.0793C87.1332 86.861 87.189 86.6472 87.2912 86.4427C88.8711 87.2187 90.3487 87.8507 90.9296 87.8507C91.0039 87.8507 91.1015 87.8321 91.1898 87.8321C91.1898 87.8321 91.1898 87.8321 91.2083 87.8321C91.3013 87.8321 91.3849 87.8507 91.4825 87.8507C92.0169 87.8507 93.4109 87.0747 94.9397 86.1035C95.0976 86.4009 95.2463 86.7401 95.3206 87.0747C95.4043 87.3953 95.4461 87.7205 95.4461 88.0551Z" fill="#616161"/>
<path opacity="0.2" d="M125.459 101.835C121.635 106.487 114.335 111.022 100.878 113.991L108.173 105.715L108.619 105.218L114.335 98.7408L115.538 97.3746L118.484 94.043C118.675 94.1917 118.884 94.3729 119.102 94.5774C119.209 94.6749 119.335 94.7911 119.446 94.898C119.576 94.9956 119.697 95.121 119.823 95.2279C119.948 95.3534 120.073 95.4742 120.217 95.6182H120.227V95.6321C120.357 95.7436 120.478 95.8644 120.612 96.0131C120.761 96.1525 120.901 96.2919 121.049 96.4453C121.337 96.752 121.635 97.068 121.941 97.4118C122.151 97.6349 122.346 97.8532 122.545 98.0902C122.587 98.1274 122.629 98.1878 122.676 98.225C122.913 98.4992 123.159 98.7918 123.41 99.1078C123.41 99.1078 123.419 99.1218 123.419 99.1404H123.438V99.1589C123.749 99.5539 124.074 99.9721 124.418 100.4C124.771 100.855 125.11 101.338 125.459 101.835Z" fill="#616161"/>
<path d="M127.192 87.9358C127.192 88.7675 127.141 89.604 127.002 90.4822C126.621 93.247 125.557 96.1836 123.438 99.1389V99.1575C121.398 101.969 118.424 104.794 114.186 107.526C113.935 107.689 113.652 107.856 113.378 108.023C110.924 109.547 108.025 111.039 104.679 112.461C104.605 112.507 104.54 112.535 104.475 112.563C104.414 112.586 104.354 112.614 104.307 112.637C104.094 112.712 103.903 112.795 103.689 112.879C103.099 113.13 102.476 113.386 101.831 113.627C101.519 113.757 101.203 113.878 100.869 113.994L108.712 98.8554L111.394 93.693L112.002 92.5081L121.797 73.6055C121.797 73.6055 127.192 79.7716 127.192 87.9358Z" fill="#EBEBEB"/>
<path d="M81.5294 113.986C76.5157 112.104 72.3894 110.087 69.0206 108.015C68.7511 107.847 68.4816 107.675 68.226 107.513C59.5135 101.923 56.1493 95.8774 55.4058 90.4687C55.2757 89.6091 55.22 88.7587 55.22 87.9316C55.2339 79.7721 60.6101 73.5967 60.6101 73.5967L81.5294 113.986Z" fill="#EBEBEB"/>
<path d="M63.9372 97.6271L66.4603 100.987L65.3219 96.9395L63.9372 97.6271Z" fill="#333333"/>
<path d="M72.6729 105.771L75.196 109.135L74.0483 105.093L72.6729 105.771Z" fill="#333333"/>
<path d="M59.3416 77.5786L61.8647 80.9382L60.7263 76.8955L59.3416 77.5786Z" fill="#333333"/>
<path d="M62.6733 84.6306L65.2011 87.9809L64.058 83.9336L62.6733 84.6306Z" fill="#333333"/>
<path d="M66.0049 91.6733L68.5327 95.0328L67.385 90.9902L66.0049 91.6733Z" fill="#333333"/>
<path d="M69.3459 98.7248L71.8644 102.08L70.7259 98.0371L69.3459 98.7248Z" fill="#333333"/>
<path d="M69.0206 108.016C68.7511 107.849 68.4816 107.677 68.226 107.515L66.753 105.558L68.1377 104.861L69.0206 108.016Z" fill="#333333"/>
<path d="M57.2738 83.5275L59.7923 86.8871L58.6492 82.8398L57.2738 83.5275Z" fill="#333333"/>
<path d="M60.6102 90.5756L63.1287 93.9305L61.9903 89.8926L60.6102 90.5756Z" fill="#333333"/>
<path d="M56.4885 91.9149L55.4058 90.4745C55.2757 89.6148 55.22 88.7645 55.22 87.9374L55.3408 87.877L56.4885 91.9149Z" fill="#333333"/>
<path d="M58.7514 96.9199L61.2699 100.266L60.1315 96.2275L58.7514 96.9199Z" fill="#333333"/>
<path d="M118.475 97.6271L115.947 100.987L117.09 96.9395L118.475 97.6271Z" fill="#333333"/>
<path d="M109.739 105.771L107.225 109.135L108.355 105.093L109.739 105.771Z" fill="#333333"/>
<path d="M123.071 77.5786L120.547 80.9382L121.691 76.8955L123.071 77.5786Z" fill="#333333"/>
<path d="M119.739 84.6306L117.211 87.9809L118.354 83.9336L119.739 84.6306Z" fill="#333333"/>
<path d="M116.407 91.6733L113.875 95.0328L115.027 90.9902L116.407 91.6733Z" fill="#333333"/>
<path d="M113.071 98.7248L110.548 102.08L111.686 98.0371L113.071 98.7248Z" fill="#333333"/>
<path d="M113.392 108.016C113.656 107.849 113.931 107.677 114.186 107.515L115.654 105.558L114.27 104.861L113.392 108.016Z" fill="#333333"/>
<path d="M125.143 83.5275L122.625 86.8871L123.763 82.8398L125.143 83.5275Z" fill="#333333"/>
<path d="M121.816 90.5756L119.284 93.9305L120.422 89.8926L121.816 90.5756Z" fill="#333333"/>
<path d="M127.192 87.9386C127.192 88.7704 127.141 89.6068 127.002 90.485L125.933 91.9208L127.081 87.8828L127.192 87.9386Z" fill="#333333"/>
<path d="M123.661 96.9199L121.142 100.266L122.281 96.2275L123.661 96.9199Z" fill="#333333"/>
<path d="M116.221 114.232C115.283 115.797 114.767 117.247 114.446 118.641L111.347 119.575L91.2177 125.574L78.6531 129.31L74.4572 130.583C74.3225 130.091 74.1412 129.547 73.9275 128.994C66.6647 125.871 69.9685 120.904 66.437 114.64C66.3999 114.561 66.3534 114.482 66.2698 114.403C67.4826 111.857 69.3319 109.692 71.6413 108.126C74.2481 106.29 77.4264 105.222 80.8278 105.222C85.7904 105.222 91.3571 109.692 91.3571 109.692C91.3571 109.692 96.5986 105.222 101.715 105.301C105.028 105.338 108.192 106.369 110.794 108.098C113.122 109.659 115.009 111.764 116.221 114.232Z" fill="#D66142"/>
<path d="M125.664 43.8064C124.776 60.5344 91.1992 85.9657 91.1992 85.9657C91.1992 85.9657 56.7023 60.3532 56.7023 43.5695C56.7023 32.0643 66.1165 22.7617 77.6448 22.7617C84.1084 22.7617 91.3432 28.5793 91.3432 28.5793C91.3432 28.5793 98.1738 22.7617 104.833 22.8593C116.389 23.0033 126.282 32.2734 125.664 43.8064Z" fill="#D66142"/>
<path opacity="0.2" d="M78.6624 129.319L74.4525 130.573C74.3131 130.081 74.1365 129.546 73.9274 128.998C66.4091 125.773 70.2055 120.574 66.0328 113.999C65.5867 114.519 57.3946 127.037 55.9867 136.089L54.983 136.391C52.8223 126.949 68.3794 110.439 68.3794 110.439C68.3794 110.439 73.4953 126.916 78.6624 129.319Z" fill="#616161"/>
<path opacity="0.2" d="M119.967 116.981L118.889 117.311L118.559 117.404C117.639 115.88 116.923 114.76 116.593 114.263C116.482 114.114 116.417 114.012 116.389 113.979C115.348 115.634 114.79 117.186 114.446 118.635L111.347 119.565C113.656 115.22 113.879 109.923 113.879 109.923C113.879 109.923 117.467 113.524 119.967 116.981Z" fill="#616161"/>
<path d="M96.1897 46.0088C92.2819 46.0088 92.4213 47.7141 91.4826 49.6052C90.5394 47.7141 90.0933 46.0088 86.2226 46.0088C82.3519 46.0088 76.9293 56.9935 76.9293 66.2217C76.9293 72.7828 78.8855 78.6423 81.957 82.6059C81.9709 82.6291 81.9802 82.6524 81.9988 82.6756C81.9988 82.6802 81.9988 82.6802 82.0081 82.6849C83.5879 84.7015 85.4559 86.221 87.5144 87.0713C88.6853 87.5499 89.9167 87.8195 91.1945 87.8381C91.1945 87.8381 91.1945 87.8427 91.1992 87.8427H91.2131C92.4863 87.8241 93.7223 87.5546 94.8933 87.0713C96.9471 86.221 98.8197 84.7015 100.404 82.6849C100.404 82.6802 100.409 82.6802 100.409 82.6756C100.427 82.657 100.441 82.6291 100.46 82.6059C103.531 78.6423 105.478 72.7782 105.478 66.2217C105.478 56.9888 100.901 46.4177 96.1897 46.0088Z" fill="#FDD8AB"/>
<path d="M80.5212 64.9717C80.4561 65.1297 80.4189 65.2923 80.4189 65.4688C80.4189 66.5794 81.785 67.4716 83.4578 67.4716C85.1492 67.4716 86.5014 66.5794 86.5014 65.4688C86.5014 65.2923 86.4642 65.1297 86.3992 64.9717H80.5212Z" fill="#333333"/>
<path d="M101.896 64.9717C101.956 65.1297 101.998 65.2923 101.998 65.4688C101.998 66.5794 100.632 67.4716 98.9545 67.4716C97.2677 67.4716 95.9155 66.5794 95.9155 65.4688C95.9155 65.2923 95.9527 65.1297 96.0178 64.9717H101.896Z" fill="#333333"/>
<path d="M95.1813 79.9424H91.2177H91.1991H87.2355C88.0301 81.0065 89.5031 81.7175 91.1991 81.7314C91.1991 81.7314 91.1991 81.736 91.2038 81.736H91.2177C92.9044 81.7267 94.3774 81.0065 95.1813 79.9424Z" fill="#D66F53"/>
<path d="M91.2038 79.735C89.4009 77.6207 86.8359 80.2926 86.8359 80.2926H91.1991H91.2177H95.5856C95.5856 80.2926 93.0113 77.6207 91.2038 79.735Z" fill="#D66142"/>
<path opacity="0.2" d="M91.2177 68.3488V68.2744L91.2038 68.3116L91.1991 68.2744V68.3488L88.9084 75.6487C88.9084 75.6487 89.7401 76.3782 91.1062 76.3782C92.4723 76.3782 93.5085 75.6487 93.5085 75.6487L91.2177 68.3488Z" fill="#616161"/>
<path d="M95.5856 60.6113L101.617 60.9366L101.701 60.9459L101.747 60.9924L104.145 63.6084L101.492 61.248L101.617 61.3037L95.5763 61.6011L95.5856 60.6113Z" fill="#D66142"/>
<path d="M87.3564 61.6011L81.3203 61.3037L81.4365 61.248L78.7925 63.6084L81.1809 60.9924L81.2367 60.9459L81.311 60.9366L87.3517 60.6113L87.3564 61.6011Z" fill="#D66142"/>
<path d="M116.221 114.232C115.283 115.797 114.767 117.247 114.446 118.641L111.347 119.575L91.2177 125.574L78.6531 129.31L74.4572 130.583C74.3225 130.091 74.1412 129.547 73.9275 128.994C66.6647 125.871 69.9685 120.904 66.437 114.64C66.3999 114.561 66.3534 114.482 66.2698 114.403C67.4826 111.857 69.3319 109.692 71.6413 108.126C74.2481 106.29 77.4264 105.222 80.8278 105.222C85.7904 105.222 91.3571 109.692 91.3571 109.692C91.3571 109.692 96.5986 105.222 101.715 105.301C105.028 105.338 108.192 106.369 110.794 108.098C113.122 109.659 115.009 111.764 116.221 114.232Z" fill="#D66142"/>
<path d="M125.664 43.8064C124.776 60.5344 91.1992 85.9657 91.1992 85.9657C91.1992 85.9657 56.7023 60.3532 56.7023 43.5695C56.7023 32.0643 66.1165 22.7617 77.6448 22.7617C84.1084 22.7617 91.3432 28.5793 91.3432 28.5793C91.3432 28.5793 98.1738 22.7617 104.833 22.8593C116.389 23.0033 126.282 32.2734 125.664 43.8064Z" fill="#D66142"/>
<path opacity="0.2" d="M78.6624 129.319L74.4525 130.573C74.3131 130.081 74.1365 129.546 73.9274 128.998C66.4091 125.773 70.2055 120.574 66.0328 113.999C65.5867 114.519 57.3946 127.037 55.9867 136.089L54.983 136.391C52.8223 126.949 68.3794 110.439 68.3794 110.439C68.3794 110.439 73.4953 126.916 78.6624 129.319Z" fill="#616161"/>
<path opacity="0.2" d="M119.967 116.981L118.889 117.311L118.559 117.404C117.639 115.88 116.923 114.76 116.593 114.263C116.482 114.114 116.417 114.012 116.389 113.979C115.348 115.634 114.79 117.186 114.446 118.635L111.347 119.565C113.656 115.22 113.879 109.923 113.879 109.923C113.879 109.923 117.467 113.524 119.967 116.981Z" fill="#616161"/>
<path d="M96.1897 46.0088C92.2819 46.0088 92.4213 47.7141 91.4826 49.6052C90.5394 47.7141 90.0933 46.0088 86.2226 46.0088C82.3519 46.0088 76.9293 56.9935 76.9293 66.2217C76.9293 72.7828 78.8855 78.6423 81.957 82.6059C81.9709 82.6291 81.9802 82.6524 81.9988 82.6756C81.9988 82.6802 81.9988 82.6802 82.0081 82.6849C83.5879 84.7015 85.4559 86.221 87.5144 87.0713C88.6853 87.5499 89.9167 87.8195 91.1945 87.8381C91.1945 87.8381 91.1945 87.8427 91.1992 87.8427H91.2131C92.4863 87.8241 93.7223 87.5546 94.8933 87.0713C96.9471 86.221 98.8197 84.7015 100.404 82.6849C100.404 82.6802 100.409 82.6802 100.409 82.6756C100.427 82.657 100.441 82.6291 100.46 82.6059C103.531 78.6423 105.478 72.7782 105.478 66.2217C105.478 56.9888 100.901 46.4177 96.1897 46.0088Z" fill="#FDD8AB"/>
<path d="M80.5212 64.9717C80.4561 65.1297 80.4189 65.2923 80.4189 65.4688C80.4189 66.5794 81.785 67.4716 83.4578 67.4716C85.1492 67.4716 86.5014 66.5794 86.5014 65.4688C86.5014 65.2923 86.4642 65.1297 86.3992 64.9717H80.5212Z" fill="#333333"/>
<path d="M101.896 64.9717C101.956 65.1297 101.998 65.2923 101.998 65.4688C101.998 66.5794 100.632 67.4716 98.9545 67.4716C97.2677 67.4716 95.9155 66.5794 95.9155 65.4688C95.9155 65.2923 95.9527 65.1297 96.0178 64.9717H101.896Z" fill="#333333"/>
<path d="M95.1813 79.9424H91.2177H91.1991H87.2355C88.0301 81.0065 89.5031 81.7175 91.1991 81.7314C91.1991 81.7314 91.1991 81.736 91.2038 81.736H91.2177C92.9044 81.7267 94.3774 81.0065 95.1813 79.9424Z" fill="#D66F53"/>
<path d="M91.2038 79.735C89.4009 77.6207 86.8359 80.2926 86.8359 80.2926H91.1991H91.2177H95.5856C95.5856 80.2926 93.0113 77.6207 91.2038 79.735Z" fill="#D66142"/>
<path opacity="0.2" d="M91.2177 68.3488V68.2744L91.2038 68.3116L91.1991 68.2744V68.3488L88.9084 75.6487C88.9084 75.6487 89.7401 76.3782 91.1062 76.3782C92.4723 76.3782 93.5085 75.6487 93.5085 75.6487L91.2177 68.3488Z" fill="#616161"/>
<path d="M95.5856 60.6113L101.617 60.9366L101.701 60.9459L101.747 60.9924L104.145 63.6084L101.492 61.248L101.617 61.3037L95.5763 61.6011L95.5856 60.6113Z" fill="#D66142"/>
<path d="M87.3564 61.6011L81.3203 61.3037L81.4365 61.248L78.7925 63.6084L81.1809 60.9924L81.2367 60.9459L81.311 60.9366L87.3517 60.6113L87.3564 61.6011Z" fill="#D66142"/>
<path opacity="0.2" d="M100.878 34.7006C101.143 39.3147 91.241 46.7076 91.241 46.7076C91.241 46.7076 81.3575 39.5239 81.9291 34.3289C82.2915 31.0855 85.1446 28.6367 88.216 28.6367C89.8935 28.6367 91.7382 30.0772 91.7382 30.0772C91.7382 30.0772 93.4342 28.6367 95.0652 28.6599C97.816 28.7018 100.711 31.7778 100.878 34.7006Z" fill="#616161"/>
<path d="M100.167 35.0904C99.935 39.3049 91.4873 45.708 91.4873 45.708C91.4873 45.708 82.8027 39.2585 82.8027 35.0346C82.8027 32.1444 85.1818 29.7979 88.0813 29.7979C89.7077 29.7979 91.5198 31.2616 91.5198 31.2616C91.5198 31.2616 93.2438 29.7978 94.9166 29.8211C97.8254 29.8582 100.321 32.1862 100.167 35.0904Z" fill="#FFD675"/>
<path opacity="0.2" d="M91.464 42.6587C88.216 39.9776 85.1771 36.5994 85.1771 35.0288C85.1771 33.4536 86.4781 32.1758 88.0766 32.1758C88.5366 32.1758 89.5589 32.7427 90.0189 33.1144L91.5569 34.3504L93.0624 33.0772C93.4853 32.7194 94.3867 32.2036 94.87 32.2036C95.7203 32.2129 96.5289 32.5707 97.0865 33.1702C97.4303 33.5279 97.816 34.1321 97.7695 34.9685C97.6952 36.5808 94.6655 39.9822 91.464 42.6587Z" fill="#616161"/>
<path opacity="0.2" d="M125.459 101.824C125.101 101.331 124.762 100.848 124.423 100.392C124.297 100.248 124.19 100.109 124.074 99.9602C123.861 99.6907 123.647 99.4072 123.438 99.1563V99.1377C125.557 96.1778 126.625 93.2458 127.002 90.481C127.141 89.6028 127.192 88.7664 127.192 87.9346C127.192 79.7704 121.802 73.5996 121.802 73.5996H105.571C114.804 64.8128 125.176 53.001 125.659 43.8052C126.277 32.2722 116.384 23.0021 104.833 22.8488C98.1738 22.7558 91.3432 28.5688 91.3432 28.5688C91.3432 28.5688 91.306 28.5502 91.2874 28.5316V125.554L111.342 119.574L113.828 118.821L114.442 118.64C114.46 118.579 114.474 118.528 114.484 118.472C114.841 117.069 115.376 115.582 116.375 113.988C116.379 113.993 116.398 114.012 116.407 114.026C116.445 114.067 116.491 114.133 116.584 114.263C116.914 114.76 117.629 115.88 118.549 117.404L118.577 117.399L118.879 117.311L119.33 117.176L119.962 116.986L131.569 113.528C129.762 108.742 127.569 104.862 125.459 101.824Z" fill="#616161"/>
<path d="M56.4001 188.433L56.6789 184.549L56.8695 182.174L57.5757 172.035L57.7616 169.661L57.98 166.422V166.404L58.2031 163.42L60.5125 163.369L61.6044 163.351L63.8766 163.295L65.1545 163.272L66.725 163.244L69.4945 163.183L72.5566 163.114L86.9845 162.816H87.017L101.445 163.114L104.512 163.183L107.286 163.244L108.847 163.272L110.13 163.295L111.268 163.323L112.406 163.351L113.498 163.369L115.808 163.42L116.026 166.404V166.422L116.245 169.661L116.421 172.035L117.155 182.174L117.323 184.549L117.606 188.433H56.4001Z" fill="#C9C9C9"/>
<path opacity="0.2" d="M59.1975 188.432L77.2963 175.393H77.3799C78.9226 173.423 80.758 171.913 82.7607 171.049C84.0153 170.51 85.3629 170.222 86.729 170.222C86.8126 170.222 86.9102 170.231 86.9846 170.245C87.0078 170.245 87.0078 170.245 87.0217 170.245V188.427H59.1975V188.432Z" fill="#616161"/>
<path d="M46.6281 148.497L58.2308 145.036L59.3274 144.724L59.6481 144.627C60.5588 146.155 61.293 147.266 61.609 147.763C61.7344 147.921 61.7948 148.019 61.832 148.037C61.8459 148.019 61.8692 147.982 61.8878 147.963C61.9296 147.898 61.9482 147.861 61.99 147.8C62.9193 146.23 63.4444 144.78 63.7604 143.391L66.8597 142.461L86.9891 136.449L99.5537 132.717L103.75 131.444C103.889 131.941 104.066 132.48 104.284 133.033C111.537 136.151 108.243 141.123 111.774 147.387C111.816 147.461 111.858 147.54 111.928 147.624C111.997 147.763 112.095 147.898 112.165 148.037C112.606 147.503 120.798 135.003 122.211 125.938L123.224 125.636L131.379 123.215H131.574C131.709 141.086 126.267 153.014 121.258 160.202C120.896 160.695 120.561 161.173 120.203 161.634C119.864 162.052 119.553 162.488 119.228 162.869L119.209 162.888C119.209 162.907 119.209 162.93 119.209 162.93C118.944 163.209 118.707 163.525 118.452 163.785C118.21 164.082 117.973 164.361 117.736 164.621C117.123 165.295 116.547 165.89 116.026 166.406V166.429H116.017C115.877 166.55 115.752 166.666 115.613 166.81C115.496 166.921 115.371 167.052 115.255 167.149C115.139 167.247 115.018 167.363 114.902 167.46C114.679 167.656 114.483 167.837 114.284 167.999C113.489 168.692 112.992 169.008 112.992 169.008L111.105 168.552L110.785 168.473L110.023 168.269L109.827 168.232L107.207 168.353L103.159 168.511L98.8473 168.687L87.0169 169.166H86.9937L74.931 168.669L70.8558 168.511L66.7993 168.353L64.1786 168.232L63.9509 168.269L63.226 168.473L62.8821 168.552L61.0142 169.008C61.0142 169.008 60.5216 168.692 59.7224 167.999C59.5226 167.837 59.3228 167.656 59.0858 167.46C58.9836 167.363 58.8721 167.247 58.7466 167.149C58.6304 167.052 58.5096 166.926 58.3935 166.81C58.2448 166.67 58.1333 166.554 57.9892 166.429L57.9706 166.406C57.8545 166.313 57.729 166.169 57.5942 166.029C57.4548 165.89 57.2876 165.746 57.1528 165.597C56.8787 165.295 56.5534 164.979 56.2607 164.621C56.0423 164.403 55.8657 164.18 55.6473 163.943C55.6008 163.882 55.5776 163.845 55.5451 163.785C55.2895 163.529 55.0525 163.209 54.7923 162.93C54.7923 162.93 54.7737 162.907 54.7737 162.888V162.869C54.4578 162.493 54.1325 162.056 53.784 161.634C53.4401 161.178 53.1102 160.7 52.7431 160.202C50.6428 157.159 48.4589 153.288 46.6281 148.497Z" fill="#FDD8AB"/>
<path opacity="0.2" d="M87.0124 156.08H84.3545L85.5487 146.512C86.018 146.489 86.5245 146.47 87.0124 146.461V156.08Z" fill="#616161"/>
<path opacity="0.2" d="M86.9938 188.422H114.804L96.71 175.402H96.6263C96.6263 175.402 90.8552 170.226 87.2772 170.226C87.1843 170.226 87.0914 170.244 86.9938 170.244V188.422Z" fill="#616161"/>
<path opacity="0.2" d="M86.9938 156.08H89.6517L88.4622 146.513C87.9789 146.49 87.4817 146.471 86.9938 146.462V156.08Z" fill="#616161"/>
<path opacity="0.2" d="M96.6682 148.036C110.13 151.01 117.439 155.541 121.244 160.192C118.461 164.193 115.798 166.72 114.293 168.003L96.6682 148.036Z" fill="#616161"/>
<path d="M62.6685 164.593C62.6685 161.215 63.9417 158.032 66.1628 155.309C68.0122 153.023 70.5306 151.053 73.537 149.566C73.5603 149.548 73.5789 149.548 73.6161 149.529C74.787 148.971 76.0184 148.456 77.3287 148.037C79.8751 147.201 82.6398 146.671 85.544 146.504C85.6974 146.504 85.8647 146.485 86.0134 146.485C86.3386 146.467 86.6453 146.467 86.9892 146.467C87.0124 146.467 87.0124 146.467 87.0124 146.467C87.3237 146.467 87.6675 146.467 87.9882 146.485C88.1415 146.485 88.3042 146.504 88.4575 146.504C91.3663 146.667 94.1264 147.201 96.6728 148.037C97.9599 148.46 99.2099 148.971 100.386 149.529C100.423 149.548 100.423 149.548 100.464 149.566C103.448 151.053 105.989 153.028 107.816 155.291C110.065 158.014 111.338 161.192 111.338 164.589C111.338 167.093 111.872 167.289 110.622 169.477L103.485 169.575L91.2409 169.733V172.256C89.9723 171.703 88.6433 171.401 87.2726 171.401C87.1889 171.401 87.0867 171.419 87.0124 171.419C87.0124 171.419 87.0124 171.419 86.9892 171.419C86.8962 171.419 86.8172 171.401 86.715 171.401C85.3442 171.401 84.006 171.698 82.756 172.256V169.733L70.5074 169.575L63.3516 169.477C62.1109 167.293 62.6685 167.098 62.6685 164.593Z" fill="#FDD8AB"/>
<path opacity="0.2" d="M63.3841 169.482L70.5214 169.579L73.932 158.827C74.7777 158.971 75.642 159.059 76.5156 159.069C81.6269 159.148 86.8683 154.677 86.8683 154.677C86.8683 154.677 92.4397 159.148 97.4023 159.148C98.341 159.148 99.2424 159.055 100.125 158.897L103.508 169.579L110.65 169.482C111.905 167.307 111.347 167.089 111.347 164.584C111.347 161.187 110.037 158.023 107.816 155.305C107.816 155.305 107.829 155.3 107.834 155.291C107.681 155.105 107.495 154.924 107.337 154.747C107.077 154.454 106.83 154.162 106.547 153.883C106.217 153.544 105.85 153.232 105.483 152.912C105.251 152.707 105.027 152.494 104.777 152.298C104.303 151.922 103.805 151.573 103.28 151.225C103.108 151.109 102.946 150.979 102.755 150.858C102.035 150.398 101.273 149.961 100.478 149.566C100.446 149.548 100.446 149.548 100.404 149.529C99.2378 148.971 97.9785 148.456 96.6821 148.037C94.145 147.201 91.3802 146.671 88.4714 146.504C88.3181 146.504 88.1648 146.485 87.9975 146.485C87.6862 146.467 87.3423 146.467 87.0216 146.467C87.0216 146.467 87.0217 146.467 87.0031 146.467C86.6639 146.467 86.3479 146.467 86.0273 146.485C85.8693 146.485 85.716 146.504 85.5487 146.504C82.6492 146.667 79.8797 147.201 77.3426 148.037C76.0276 148.46 74.7963 148.971 73.6207 149.529C73.5835 149.548 73.5603 149.548 73.5463 149.566C72.7471 149.97 71.9711 150.412 71.2416 150.872C71.1022 150.965 70.9767 151.062 70.8327 151.155C70.2797 151.522 69.7361 151.903 69.2342 152.303C68.974 152.508 68.751 152.726 68.5094 152.935C68.1609 153.242 67.8031 153.548 67.4778 153.869C67.1851 154.171 66.9109 154.482 66.6321 154.798C66.4787 154.975 66.3068 155.137 66.1674 155.309C66.1674 155.309 66.1721 155.319 66.186 155.328C63.9742 158.037 62.6685 161.192 62.6685 164.584C62.6871 167.093 62.1295 167.307 63.3841 169.482Z" fill="#616161"/>
<path d="M82.7607 173.98V172.265C84.0107 171.712 85.3443 171.41 86.7197 171.41C86.8219 171.41 86.9148 171.429 86.9938 171.429C87.0914 171.429 87.1936 171.41 87.2773 171.41C88.648 171.41 89.977 171.707 91.2455 172.265V173.98C91.2455 174.314 91.1898 174.63 91.1294 174.956C91.069 175.174 91.0086 175.392 90.911 175.592C90.2744 177.056 88.82 178.092 87.1332 178.092C87.0961 178.092 87.0589 178.073 86.9985 178.073C86.9613 178.073 86.9195 178.092 86.8823 178.092C85.3164 178.092 83.9596 177.214 83.2626 175.927C83.1046 175.629 82.9698 175.29 82.8908 174.956C82.7979 174.63 82.7607 174.314 82.7607 173.98Z" fill="#FDD8AB"/>
<path opacity="0.2" d="M82.7607 173.979V172.264C84.0107 171.711 85.3443 171.409 86.7197 171.409C86.822 171.409 86.9149 171.428 86.9939 171.428C87.0914 171.428 87.1937 171.409 87.2773 171.409C88.6481 171.409 89.977 171.707 91.2456 172.264V173.979C91.2456 174.313 91.1898 174.629 91.1294 174.955C91.069 175.173 91.0086 175.391 90.911 175.591C89.3219 174.811 87.8535 174.174 87.2773 174.174C87.1937 174.174 87.0914 174.193 87.0171 174.193C87.0171 174.193 87.0171 174.193 86.9939 174.193C86.9009 174.193 86.822 174.174 86.7197 174.174C86.1761 174.174 84.7913 174.95 83.2579 175.926C83.1 175.628 82.9652 175.289 82.8862 174.955C82.7979 174.629 82.7607 174.313 82.7607 173.979Z" fill="#616161"/>
<path opacity="0.2" d="M52.7433 160.188C56.5721 155.541 63.8767 151.011 77.3288 148.032L70.0242 156.317L69.5828 156.81L63.8721 163.292L62.6639 164.658L59.7226 167.99C59.5228 167.832 59.3183 167.66 59.0953 167.451C58.9791 167.353 58.8583 167.246 58.7468 167.139C58.626 167.032 58.4959 166.916 58.3797 166.805C58.245 166.675 58.1288 166.554 57.9894 166.419H57.9754V166.401C57.8546 166.294 57.7292 166.173 57.5898 166.019C57.4504 165.875 57.2924 165.741 57.153 165.592C56.8649 165.285 56.5629 164.96 56.2562 164.616C56.0517 164.398 55.8658 164.175 55.6475 163.942C55.6103 163.901 55.5685 163.845 55.522 163.803C55.2897 163.529 55.0434 163.241 54.7971 162.925C54.7971 162.925 54.7832 162.906 54.7832 162.892H54.7646V162.878C54.4393 162.483 54.128 162.061 53.7841 161.633C53.4449 161.173 53.1057 160.69 52.7433 160.188Z" fill="#616161"/>
<path d="M51.0147 174.095C51.0147 173.259 51.0658 172.427 51.2005 171.554C51.5862 168.789 52.655 165.852 54.7739 162.892V162.878C56.8045 160.062 59.7783 157.228 64.03 154.505C64.2809 154.342 64.5504 154.175 64.8246 154.008C67.292 152.484 70.1868 150.997 73.5324 149.566C73.5975 149.528 73.6672 149.501 73.7416 149.468C73.788 149.445 73.8484 149.417 73.9135 149.398C74.1179 149.315 74.3038 149.236 74.5082 149.152C75.1123 148.896 75.735 148.65 76.3623 148.399C76.6875 148.278 77.0081 148.158 77.3334 148.032L69.4991 163.176L66.8087 168.338L66.2047 169.523L56.4095 188.421C56.4002 188.43 51.0147 182.255 51.0147 174.095Z" fill="#EBEBEB"/>
<path d="M96.6682 148.036C101.687 149.923 105.808 151.939 109.177 154.007C109.461 154.179 109.73 154.342 109.981 154.514C118.698 160.099 122.062 166.144 122.815 171.553C122.936 172.413 122.996 173.258 122.996 174.09C122.982 182.25 117.611 188.416 117.611 188.416L96.6682 148.036Z" fill="#EBEBEB"/>
<path d="M114.274 164.401L111.751 161.046L112.89 165.089L114.274 164.401Z" fill="#333333"/>
<path d="M105.539 156.255L103.016 152.896L104.154 156.938L105.539 156.255Z" fill="#333333"/>
<path d="M118.87 184.448L116.338 181.093L117.481 185.135L118.87 184.448Z" fill="#333333"/>
<path d="M115.529 177.396L113.02 174.041L114.149 178.088L115.529 177.396Z" fill="#333333"/>
<path d="M112.202 170.35L109.679 166.995L110.822 171.038L112.202 170.35Z" fill="#333333"/>
<path d="M108.87 163.297L106.347 159.942L107.495 163.985L108.87 163.297Z" fill="#333333"/>
<path d="M109.177 154.008C109.461 154.18 109.73 154.342 109.981 154.514L111.454 156.466L110.069 157.154L109.177 154.008Z" fill="#333333"/>
<path d="M120.938 178.499L118.419 175.148L119.562 179.182L120.938 178.499Z" fill="#333333"/>
<path d="M117.606 171.452L115.083 168.088L116.221 172.13L117.606 171.452Z" fill="#333333"/>
<path d="M121.723 170.112L122.81 171.557C122.931 172.417 122.992 173.263 122.992 174.094L122.875 174.155L121.723 170.112Z" fill="#333333"/>
<path d="M119.455 165.113L116.932 161.758L118.071 165.8L119.455 165.113Z" fill="#333333"/>
<path d="M59.7319 164.401L62.2597 161.046L61.1119 165.089L59.7319 164.401Z" fill="#333333"/>
<path d="M68.4769 156.255L70.9954 152.896L69.8523 156.938L68.4769 156.255Z" fill="#333333"/>
<path d="M55.1456 184.448L57.6641 181.093L56.5257 185.135L55.1456 184.448Z" fill="#333333"/>
<path d="M58.4727 177.396L60.9958 174.041L59.8573 178.088L58.4727 177.396Z" fill="#333333"/>
<path d="M61.8043 170.35L64.3274 166.995L63.1797 171.038L61.8043 170.35Z" fill="#333333"/>
<path d="M65.1359 163.297L67.6591 159.942L66.516 163.985L65.1359 163.297Z" fill="#333333"/>
<path d="M64.8246 154.008C64.5504 154.18 64.281 154.342 64.03 154.514L62.5617 156.466L63.9418 157.154L64.8246 154.008Z" fill="#333333"/>
<path d="M53.0685 178.499L55.587 175.148L54.4486 179.182L53.0685 178.499Z" fill="#333333"/>
<path d="M56.3956 171.452L58.9233 168.088L57.7803 172.13L56.3956 171.452Z" fill="#333333"/>
<path d="M51.0147 174.094C51.0147 173.258 51.0658 172.426 51.2006 171.553L52.2833 170.112L51.1309 174.15L51.0147 174.094Z" fill="#333333"/>
<path d="M54.5462 165.113L57.0694 161.758L55.931 165.8L54.5462 165.113Z" fill="#333333"/>
<path d="M61.9948 147.793C62.9241 146.222 63.4492 144.772 63.7651 143.383L66.8645 142.454L86.9938 136.441L99.5584 132.71L103.754 131.437C103.894 131.934 104.07 132.473 104.289 133.026C111.542 136.144 108.248 141.116 111.779 147.379C111.821 147.454 111.863 147.533 111.933 147.616C110.734 150.163 108.88 152.328 106.58 153.903C103.968 155.729 100.794 156.803 97.3977 156.803C92.4258 156.803 86.8544 152.328 86.8544 152.328C86.8544 152.328 81.6037 156.803 76.5016 156.719C73.1839 156.677 70.0242 155.646 67.4174 153.912C65.0941 152.365 63.2076 150.26 61.9948 147.793Z" fill="#D66142"/>
<path d="M52.5435 218.215C53.4449 201.482 87.0171 176.056 87.0171 176.056C87.0171 176.056 121.505 201.673 121.505 218.456C121.505 229.966 112.077 239.264 100.567 239.264C94.094 239.264 86.8684 233.451 86.8684 233.451C86.8684 233.451 80.0285 239.264 73.3698 239.171C61.8229 239.023 51.9301 229.757 52.5435 218.215Z" fill="#D66142"/>
<path opacity="0.2" d="M99.5492 132.705L103.759 131.446C103.898 131.943 104.084 132.477 104.293 133.025C111.807 136.246 108.011 141.445 112.174 148.025C112.634 147.509 120.826 134.986 122.234 125.939L123.238 125.628C125.385 135.07 109.828 151.589 109.828 151.589C109.828 151.589 104.721 135.107 99.5492 132.705Z" fill="#616161"/>
<path opacity="0.2" d="M58.2449 145.038L59.3229 144.712L59.6529 144.615C60.5589 146.134 61.2885 147.254 61.6184 147.751C61.7206 147.909 61.795 148.007 61.8275 148.035C62.8637 146.385 63.412 144.833 63.7652 143.383L66.8645 142.454C64.5504 146.799 64.3274 152.091 64.3274 152.091C64.3274 152.091 60.7448 148.499 58.2449 145.038Z" fill="#616161"/>
<path d="M82.0219 216.012C85.9298 216.012 85.7857 214.312 86.729 212.425C87.6676 214.316 88.1137 216.012 91.9843 216.012C95.8597 216.012 101.268 205.037 101.268 195.804C101.268 189.243 99.3354 183.379 96.2593 179.415C96.2407 179.397 96.2221 179.369 96.2082 179.35C96.2082 179.346 96.2035 179.346 96.2035 179.336C94.6143 177.32 92.751 175.8 90.7019 174.95C89.5123 174.471 88.2856 174.206 87.0124 174.183V174.174C86.9985 174.174 86.9938 174.174 86.9938 174.174V174.183C85.716 174.202 84.4893 174.467 83.3137 174.95C81.2552 175.8 79.3873 177.32 77.8027 179.336C77.8027 179.341 77.8027 179.341 77.7888 179.35C77.7795 179.369 77.7656 179.397 77.747 179.415C74.6755 183.379 72.7286 189.243 72.7286 195.804C72.7332 205.037 77.3102 215.608 82.0219 216.012Z" fill="#FDD8AB"/>
<path d="M97.6905 197.055C97.7509 196.892 97.7881 196.729 97.7881 196.553C97.7881 195.447 96.4266 194.555 94.7492 194.555C93.0717 194.555 91.7102 195.447 91.7102 196.553C91.7102 196.729 91.7474 196.897 91.8032 197.055H97.6905Z" fill="#333333"/>
<path d="M76.3158 197.055C76.2507 196.892 76.2182 196.729 76.2182 196.553C76.2182 195.447 77.5797 194.555 79.2525 194.555C80.9346 194.555 82.3007 195.447 82.3007 196.553C82.3007 196.729 82.2589 196.897 82.1985 197.055H76.3158Z" fill="#333333"/>
<path d="M83.0303 182.074H86.9939H87.0124H90.9761C90.1815 181.014 88.7038 180.304 87.0124 180.28C86.9985 180.28 86.9939 180.28 86.9939 180.28C85.2978 180.299 83.8295 181.014 83.0303 182.074Z" fill="#D66F53"/>
<path d="M87.0078 182.285C88.8154 184.394 91.3757 181.723 91.3757 181.723H87.0171H86.9985H82.6353C82.6353 181.723 85.1956 184.394 87.0078 182.285Z" fill="#D66142"/>
<path opacity="0.2" d="M86.9939 193.668V193.742L87.0078 193.705L87.0124 193.742V193.668L89.2986 186.373C89.2986 186.373 88.4622 185.639 87.1054 185.639C85.7393 185.639 84.703 186.373 84.703 186.373L86.9939 193.668Z" fill="#616161"/>
<path d="M82.6306 201.41L76.5946 201.085L76.5063 201.08L76.4645 201.034L74.0761 198.408L76.7247 200.773L76.5946 200.722L82.6306 200.425V201.41Z" fill="#D66142"/>
<path d="M90.8552 200.425L96.9005 200.722L96.7704 200.773L99.419 198.408L97.0306 201.034L96.9795 201.08L96.9005 201.085L90.8552 201.41V200.425Z" fill="#D66142"/>
<path d="M61.9948 147.793C62.9241 146.222 63.4492 144.772 63.7651 143.383L66.8645 142.454L86.9938 136.441L99.5584 132.71L103.754 131.437C103.894 131.934 104.07 132.473 104.289 133.026C111.542 136.144 108.248 141.116 111.779 147.379C111.821 147.454 111.863 147.533 111.933 147.616C110.734 150.163 108.88 152.328 106.58 153.903C103.968 155.729 100.794 156.803 97.3977 156.803C92.4258 156.803 86.8544 152.328 86.8544 152.328C86.8544 152.328 81.6037 156.803 76.5016 156.719C73.1839 156.677 70.0242 155.646 67.4174 153.912C65.0941 152.365 63.2076 150.26 61.9948 147.793Z" fill="#D66142"/>
<path d="M52.5435 218.215C53.4449 201.482 87.0171 176.056 87.0171 176.056C87.0171 176.056 121.505 201.673 121.505 218.456C121.505 229.966 112.077 239.264 100.567 239.264C94.094 239.264 86.8684 233.451 86.8684 233.451C86.8684 233.451 80.0285 239.264 73.3698 239.171C61.8229 239.023 51.9301 229.757 52.5435 218.215Z" fill="#D66142"/>
<path opacity="0.2" d="M99.5492 132.705L103.759 131.446C103.898 131.943 104.084 132.477 104.293 133.025C111.807 136.246 108.011 141.445 112.174 148.025C112.634 147.509 120.826 134.986 122.234 125.939L123.238 125.628C125.385 135.07 109.828 151.589 109.828 151.589C109.828 151.589 104.721 135.107 99.5492 132.705Z" fill="#616161"/>
<path opacity="0.2" d="M58.2449 145.038L59.3229 144.712L59.6529 144.615C60.5589 146.134 61.2885 147.254 61.6184 147.751C61.7206 147.909 61.795 148.007 61.8275 148.035C62.8637 146.385 63.412 144.833 63.7652 143.383L66.8645 142.454C64.5504 146.799 64.3274 152.091 64.3274 152.091C64.3274 152.091 60.7448 148.499 58.2449 145.038Z" fill="#616161"/>
<path d="M82.0219 216.012C85.9298 216.012 85.7857 214.312 86.729 212.425C87.6676 214.316 88.1137 216.012 91.9843 216.012C95.8597 216.012 101.268 205.037 101.268 195.804C101.268 189.243 99.3354 183.379 96.2593 179.415C96.2407 179.397 96.2221 179.369 96.2082 179.35C96.2082 179.346 96.2035 179.346 96.2035 179.336C94.6143 177.32 92.751 175.8 90.7019 174.95C89.5123 174.471 88.2856 174.206 87.0124 174.183V174.174C86.9985 174.174 86.9938 174.174 86.9938 174.174V174.183C85.716 174.202 84.4893 174.467 83.3137 174.95C81.2552 175.8 79.3873 177.32 77.8027 179.336C77.8027 179.341 77.8027 179.341 77.7888 179.35C77.7795 179.369 77.7656 179.397 77.747 179.415C74.6755 183.379 72.7286 189.243 72.7286 195.804C72.7332 205.037 77.3102 215.608 82.0219 216.012Z" fill="#FDD8AB"/>
<path d="M97.6905 197.055C97.7509 196.892 97.7881 196.729 97.7881 196.553C97.7881 195.447 96.4266 194.555 94.7492 194.555C93.0717 194.555 91.7102 195.447 91.7102 196.553C91.7102 196.729 91.7474 196.897 91.8032 197.055H97.6905Z" fill="#333333"/>
<path d="M76.3158 197.055C76.2507 196.892 76.2182 196.729 76.2182 196.553C76.2182 195.447 77.5797 194.555 79.2525 194.555C80.9346 194.555 82.3007 195.447 82.3007 196.553C82.3007 196.729 82.2589 196.897 82.1985 197.055H76.3158Z" fill="#333333"/>
<path d="M83.0303 182.074H86.9939H87.0124H90.9761C90.1815 181.014 88.7038 180.304 87.0124 180.28C86.9985 180.28 86.9939 180.28 86.9939 180.28C85.2978 180.299 83.8295 181.014 83.0303 182.074Z" fill="#D66F53"/>
<path d="M87.0078 182.285C88.8154 184.394 91.3757 181.723 91.3757 181.723H87.0171H86.9985H82.6353C82.6353 181.723 85.1956 184.394 87.0078 182.285Z" fill="#D66142"/>
<path opacity="0.2" d="M86.9939 193.668V193.742L87.0078 193.705L87.0124 193.742V193.668L89.2986 186.373C89.2986 186.373 88.4622 185.639 87.1054 185.639C85.7393 185.639 84.703 186.373 84.703 186.373L86.9939 193.668Z" fill="#616161"/>
<path d="M82.6306 201.41L76.5946 201.085L76.5063 201.08L76.4645 201.034L74.0761 198.408L76.7247 200.773L76.5946 200.722L82.6306 200.425V201.41Z" fill="#D66142"/>
<path d="M90.8552 200.425L96.9005 200.722L96.7704 200.773L99.419 198.408L97.0306 201.034L96.9795 201.08L96.9005 201.085L90.8552 201.41V200.425Z" fill="#D66142"/>
<path opacity="0.2" d="M84.2973 215.317C84.2559 215.345 84.2008 215.359 84.1548 215.391C84.2008 215.363 84.2559 215.345 84.2973 215.317Z" fill="#616161"/>
<path opacity="0.2" d="M83.5871 215.643C83.4991 215.67 83.411 215.689 83.323 215.726C83.411 215.689 83.5037 215.67 83.5871 215.643Z" fill="#616161"/>
<path opacity="0.2" d="M77.3288 227.332C77.0779 222.713 86.966 215.32 86.966 215.32C86.966 215.32 96.8541 222.499 96.2779 227.708C95.9294 230.942 93.067 233.391 89.991 233.387C88.3135 233.387 86.4688 231.955 86.4688 231.955C86.4688 231.955 84.7774 233.387 83.1511 233.368C80.3909 233.326 77.4961 230.241 77.3288 227.332Z" fill="#616161"/>
<path d="M78.049 226.932C78.2767 222.722 86.7243 216.323 86.7243 216.323C86.7243 216.323 95.409 222.768 95.409 226.992C95.409 229.891 93.0392 232.229 90.135 232.229C88.5133 232.229 86.6872 230.765 86.6872 230.765C86.6872 230.765 84.9679 232.229 83.2905 232.206C80.3863 232.168 77.8957 229.836 78.049 226.932Z" fill="#FFD675"/>
<path opacity="0.2" d="M86.7383 219.359C89.9909 222.036 93.0298 225.419 93.0298 226.994C93.0298 228.564 91.7288 229.842 90.1396 229.842C89.661 229.842 88.6527 229.285 88.188 228.913L86.65 227.672L85.1491 228.955C84.7216 229.299 83.8341 229.824 83.3369 229.824C82.4866 229.814 81.6827 229.461 81.1112 228.857C80.7812 228.504 80.3863 227.9 80.4327 227.059C80.521 225.446 83.546 222.041 86.7383 219.359Z" fill="#616161"/>
<path opacity="0.2" d="M52.7433 160.199C53.1104 160.691 53.4403 161.17 53.7841 161.63C53.905 161.778 54.0118 161.918 54.1327 162.062C54.3418 162.341 54.5602 162.619 54.7693 162.875V162.889C52.6504 165.849 51.5816 168.79 51.1959 171.55C51.0612 172.424 51.0101 173.26 51.0101 174.092C51.0101 182.252 56.3956 188.427 56.3956 188.427H72.6217C63.3888 197.214 53.0314 209.026 52.5342 218.217C51.9208 229.754 61.8136 239.025 73.3606 239.173C80.0192 239.266 86.8591 233.453 86.8591 233.453C86.8591 233.453 86.8917 233.472 86.901 233.49V136.473L66.8506 142.458L64.3553 143.201L63.7513 143.387C63.7327 143.438 63.7141 143.494 63.7001 143.55C63.3563 144.953 62.8126 146.449 61.8136 148.034C61.7997 148.02 61.7903 148.01 61.7811 147.996C61.7532 147.959 61.6928 147.89 61.6045 147.75C61.2746 147.253 60.545 146.133 59.6389 144.614L59.6343 144.618H59.6204L59.309 144.711L58.8537 144.851L58.2171 145.032L46.6143 148.494C48.4591 153.284 50.643 157.155 52.7433 160.199Z" fill="#616161"/>
<path d="M40.9454 52.7036C40.6341 58.656 28.6782 67.703 28.6782 67.703C28.6782 67.703 16.4063 58.5909 16.4063 52.6153C16.4063 48.5262 19.7659 45.2178 23.8596 45.2178C26.1504 45.2178 28.7293 47.2809 28.7293 47.2809C28.7293 47.2809 31.1595 45.2178 33.5386 45.2457C37.6416 45.3061 41.1684 48.6006 40.9454 52.7036Z" fill="#D66142"/>
<path opacity="0.2" d="M33.5479 45.2444C31.1688 45.2165 28.7386 47.2796 28.7386 47.2796C28.7386 47.2796 28.7014 47.2611 28.655 47.2239V67.6831C28.6735 67.6924 28.6828 67.7017 28.6828 67.7017C28.6828 67.7017 40.6341 58.6547 40.9501 52.7023C41.1684 48.5993 37.6416 45.3048 33.5479 45.2444Z" fill="#616161"/>
<path d="M147.605 207.303C147.926 201.351 159.872 192.299 159.872 192.299C159.872 192.299 172.149 201.411 172.149 207.382C172.149 211.476 168.784 214.789 164.695 214.789C162.391 214.789 159.826 212.716 159.826 212.716C159.826 212.716 157.386 214.789 155.016 214.752C150.899 214.696 147.391 211.397 147.605 207.303Z" fill="#D66142"/>
<path opacity="0.2" d="M155.012 214.752C157.382 214.789 159.821 212.716 159.821 212.716C159.821 212.716 159.849 212.74 159.9 212.781V192.322C159.877 192.308 159.872 192.299 159.872 192.299C159.872 192.299 147.926 201.346 147.605 207.303C147.391 211.397 150.899 214.696 155.012 214.752Z" fill="#616161"/>
</svg>
