<svg width="186" height="259" viewBox="0 0 186 259" fill="none" xmlns="http://www.w3.org/2000/svg">
<path d="M20.7324 258.886C9.78483 258.904 0.86324 250.164 0.840007 239.411L0.273106 19.6195C0.245226 8.80202 9.14825 0.0151281 20.1283 0.0244214L165.383 0.298601C176.312 0.326481 185.21 9.11801 185.21 19.9215V239.239C185.21 249.969 176.34 258.7 165.448 258.714L20.7324 258.886Z" fill="#C9C9C9"/>
<path d="M22.5306 258.342C11.7364 258.342 2.94495 249.574 2.94495 238.831V19.5499C2.94495 8.79748 11.7364 0.0478516 22.5306 0.0478516H165.667C176.461 0.0478516 185.243 8.79748 185.243 19.5499V238.831C185.243 249.578 176.456 258.342 165.667 258.342H22.5306Z" fill="white"/>
<path d="M16.4853 34.4454C16.4853 34.7893 15.9045 35.333 14.7289 36.095C13.4278 36.9407 12.3033 37.3636 11.3647 37.3636C10.8443 37.3636 10.4447 37.1266 10.1333 36.6573C9.90101 36.2949 9.80343 35.9788 9.80343 35.7047V20.9469C9.80343 20.6541 9.76162 20.4498 9.67333 20.3382C9.58504 20.2407 9.44562 20.1848 9.25511 20.1848C9.16218 20.1848 8.93914 20.2314 8.59529 20.3011C8.24679 20.3754 7.98194 20.3986 7.81001 20.3568C7.73102 20.2639 7.70312 20.1849 7.70312 20.1013C7.70312 19.8829 7.92618 19.6365 8.3862 19.3299C8.83228 19.0371 9.29695 18.6654 9.80343 18.2239C10.1984 17.8894 10.598 17.5456 11.0162 17.1692C11.4577 16.8764 11.8108 16.7324 12.0942 16.7324C12.5682 16.7324 13.0282 16.9786 13.4743 17.4851C13.9157 18.0009 14.1388 18.4842 14.1388 18.9396V34.557C14.2085 34.6593 14.2689 34.7103 14.3107 34.7289C14.4408 34.8358 14.543 34.8823 14.6267 34.8823C14.7754 34.8359 14.8869 34.7894 14.9845 34.7568C15.2214 34.6407 15.5374 34.4408 15.9277 34.1481H16.4017L16.4853 34.4454Z" fill="#333333"/>
<path d="M34.519 27.2956C34.519 28.4201 34.2913 29.5029 33.836 30.5344C33.1018 32.1933 31.8379 33.6662 30.0443 34.9348C29.0127 35.6411 28.2785 36.1336 27.8232 36.3752C26.694 37.0025 25.393 37.3185 23.9153 37.3185C21.7407 37.3185 19.9517 36.3566 18.5624 34.4701C17.2567 32.7276 16.6015 30.6506 16.6015 28.2715C16.6015 26.7195 16.9918 25.1676 17.791 23.5877C18.3022 22.5887 18.9666 21.6267 19.7798 20.6927C20.7974 19.5682 21.8429 18.6576 22.9209 17.9792C24.301 17.1009 25.6439 16.6641 26.9543 16.6641C29.2776 16.6641 31.1502 17.8072 32.5907 20.0701C33.8685 22.1239 34.519 24.5262 34.519 27.2956ZM30.2069 30.3996C30.2069 29.0102 30.0257 27.6674 29.6447 26.3617C29.2636 25.0374 28.706 23.8199 27.9719 22.714C27.1819 21.4966 26.4199 20.6091 25.6718 20.1072C25.1606 19.7448 24.6867 19.5729 24.2266 19.5729C23.1672 19.5729 22.2983 20.0748 21.6292 21.0785C20.96 22.0961 20.6255 23.2485 20.6255 24.5263C20.6255 25.3162 20.6998 26.0689 20.8439 26.7566C21.0762 27.8346 21.4944 29.0522 22.1217 30.395C22.8466 31.9749 23.6458 33.1459 24.5287 33.88C25.2722 34.4888 26.011 34.786 26.7405 34.786C27.8371 34.786 28.6875 34.3958 29.2962 33.6151C29.9049 32.8299 30.2069 31.7611 30.2069 30.3996Z" fill="#333333"/>
<path d="M172.925 226.35C172.925 226.016 173.51 225.454 174.681 224.706C175.987 223.851 177.111 223.428 178.064 223.428C178.566 223.428 178.97 223.665 179.263 224.143C179.495 224.487 179.607 224.817 179.607 225.115V239.844C179.607 240.146 179.662 240.346 179.741 240.453C179.825 240.56 179.964 240.606 180.15 240.606C180.243 240.606 180.476 240.569 180.819 240.481C181.163 240.425 181.423 240.402 181.595 240.444C181.674 240.537 181.712 240.607 181.712 240.699C181.712 240.899 181.484 241.164 181.033 241.462C180.573 241.759 180.095 242.126 179.607 242.567C179.221 242.911 178.812 243.255 178.389 243.613C177.962 243.91 177.604 244.068 177.316 244.068C176.842 244.068 176.386 243.822 175.95 243.306C175.494 242.79 175.281 242.316 175.281 241.861V226.234C175.202 226.141 175.146 226.09 175.095 226.072C174.974 225.956 174.862 225.9 174.788 225.9C174.639 225.955 174.509 225.997 174.426 226.035C174.17 226.151 173.863 226.35 173.478 226.634H173.004L172.925 226.35Z" fill="#333333"/>
<path d="M154.891 233.491C154.891 232.385 155.109 231.293 155.569 230.261C156.304 228.603 157.581 227.129 159.366 225.861C160.383 225.145 161.131 224.662 161.578 224.416C162.711 223.798 164.012 223.491 165.49 223.491C167.665 223.491 169.449 224.434 170.843 226.321C172.139 228.073 172.804 230.15 172.804 232.529C172.804 234.081 172.409 235.633 171.614 237.213C171.099 238.203 170.439 239.174 169.626 240.098C168.608 241.232 167.567 242.143 166.484 242.812C165.104 243.695 163.766 244.127 162.46 244.127C160.132 244.127 158.255 242.984 156.819 240.726C155.537 238.681 154.891 236.269 154.891 233.491ZM159.198 230.405C159.198 231.785 159.394 233.128 159.77 234.434C160.142 235.749 160.699 236.966 161.447 238.082C162.233 239.318 163.004 240.177 163.738 240.698C164.245 241.051 164.737 241.232 165.183 241.232C166.238 241.232 167.107 240.726 167.776 239.717C168.45 238.69 168.785 237.557 168.785 236.27C168.785 235.48 168.71 234.727 168.557 234.03C168.324 232.961 167.902 231.744 167.284 230.41C166.559 228.812 165.755 227.659 164.863 226.925C164.129 226.316 163.394 226.019 162.656 226.019C161.559 226.019 160.713 226.409 160.109 227.19C159.505 227.975 159.198 229.044 159.198 230.405Z" fill="#333333"/>
<path opacity="0.2" d="M148.66 43.6315C148.674 38.9755 128.396 19.0459 128.396 19.0459C128.396 19.0459 128.372 19.0645 128.358 19.0924V66.9485L137.819 66.9763L130.273 53.9981C132.08 55.0948 134.218 55.7407 136.509 55.75C143.195 55.7639 148.66 50.3366 148.66 43.6315Z" fill="#616161"/>
<path opacity="0.2" d="M148.66 101.09C148.674 96.4344 128.396 76.5049 128.396 76.5049C128.396 76.5049 128.372 76.5234 128.358 76.5513V124.417L137.819 124.426L130.273 111.448C132.08 112.544 134.218 113.2 136.509 113.209C143.195 113.213 148.66 107.795 148.66 101.09Z" fill="#616161"/>
<path opacity="0.2" d="M39.7093 43.6315C39.7 38.9755 59.978 19.0459 59.978 19.0459C59.978 19.0459 59.9967 19.0645 60.0152 19.0924V66.9485L50.5546 66.9763L58.1054 53.9981C56.284 55.0948 54.1604 55.7407 51.865 55.75C45.1691 55.7639 39.7093 50.3366 39.7093 43.6315Z" fill="#616161"/>
<path opacity="0.2" d="M74.1272 76.4673C74.104 71.802 94.3913 51.8818 94.3913 51.8818C94.3913 51.8818 94.4146 51.891 94.4285 51.9096V99.7751L84.9679 99.8029L92.514 86.8247C90.7018 87.912 88.5551 88.5579 86.2736 88.5858C79.5824 88.5858 74.1272 83.1678 74.1272 76.4673Z" fill="#616161"/>
<path opacity="0.2" d="M39.7093 101.09C39.7 96.4344 59.9781 76.5049 59.9781 76.5049C59.9781 76.5049 59.9967 76.5234 60.0153 76.5513V124.417L50.5546 124.426L58.1055 111.448C56.284 112.544 54.1605 113.2 51.865 113.209C45.1692 113.213 39.7093 107.795 39.7093 101.09Z" fill="#616161"/>
<path opacity="0.2" d="M148.576 215.712C148.585 220.377 128.298 240.306 128.298 240.306C128.298 240.306 128.284 240.288 128.266 240.269V192.404L137.717 192.376L130.18 205.354C131.983 204.267 134.12 203.621 136.406 203.602C143.107 203.593 148.576 209.016 148.576 215.712Z" fill="#616161"/>
<path opacity="0.2" d="M148.576 158.269C148.585 162.925 128.298 182.854 128.298 182.854C128.298 182.854 128.284 182.826 128.266 182.817V134.952L137.717 134.942L130.18 147.911C131.983 146.805 134.12 146.169 136.406 146.141C143.107 146.141 148.576 151.559 148.576 158.269Z" fill="#616161"/>
<path opacity="0.2" d="M39.621 215.712C39.5978 220.377 59.8944 240.306 59.8944 240.306C59.8944 240.306 59.913 240.288 59.9316 240.269V192.404L50.4664 192.376L58.0172 205.354C56.2143 204.267 54.0722 203.621 51.7813 203.602C45.0855 203.593 39.621 209.016 39.621 215.712Z" fill="#616161"/>
<path opacity="0.2" d="M74.025 182.453C74.0111 187.109 94.2984 207.039 94.2984 207.039C94.2984 207.039 94.3123 207.03 94.3309 207.011V159.136L84.8796 159.127L92.4212 172.096C90.6043 170.999 88.4808 170.353 86.1853 170.335C79.4895 170.326 74.025 175.744 74.025 182.453Z" fill="#616161"/>
<path opacity="0.2" d="M39.6211 158.269C39.5978 162.925 59.8945 182.854 59.8945 182.854C59.8945 182.854 59.9131 182.826 59.9316 182.817V134.952L50.4664 134.942L58.0172 147.911C56.2143 146.805 54.0722 146.169 51.7814 146.141C45.0855 146.141 39.6211 151.559 39.6211 158.269Z" fill="#616161"/>
<path opacity="0.2" d="M24.5705 52.48C24.5845 51.2347 19.1664 45.9189 19.1664 45.9189V45.9375V58.6973L21.6849 58.7065L19.6683 55.2401C20.1515 55.5375 20.7324 55.714 21.3364 55.7187C23.1115 55.7187 24.5705 54.2689 24.5705 52.48Z" fill="#616161"/>
<path opacity="0.2" d="M165.676 208.944C165.667 210.18 171.085 215.487 171.085 215.487C171.085 215.487 171.085 215.487 171.085 215.478V202.718H168.566L170.573 206.175C170.09 205.877 169.533 205.701 168.91 205.701C167.135 205.706 165.676 207.137 165.676 208.944Z" fill="#616161"/>
<path d="M25.6997 49.9959C25.5185 53.2347 19.0364 58.1556 19.0364 58.1556C19.0364 58.1556 12.3591 53.1928 12.3591 49.9494C12.3591 47.719 14.1853 45.9209 16.4064 45.9209C17.6703 45.9209 19.055 47.0546 19.055 47.0546C19.055 47.0546 20.37 45.9209 21.6664 45.9395C23.8968 45.9674 25.8112 47.7609 25.6997 49.9959Z" fill="#D66142"/>
<path opacity="0.2" d="M21.6617 45.9387C20.37 45.9201 19.0503 47.0539 19.0503 47.0539C19.0503 47.0539 19.0317 47.0353 19.0085 47.0167V58.1362C19.0178 58.1455 19.0317 58.1548 19.0317 58.1548C19.0317 58.1548 25.5138 53.2339 25.695 49.9952C25.8112 47.7601 23.8968 45.9666 21.6617 45.9387Z" fill="#616161"/>
<path d="M41.0569 37.1979C41.5448 46.4076 59.9967 60.4033 59.9967 60.4033C59.9967 60.4033 78.9923 46.31 78.9923 37.0956C78.9923 30.7436 73.7973 25.623 67.4639 25.623C63.8953 25.623 59.9363 28.8339 59.9363 28.8339C59.9363 28.8339 56.1678 25.6231 52.5016 25.6649C46.1496 25.7532 40.713 30.8552 41.0569 37.1979Z" fill="#D66142"/>
<path opacity="0.2" d="M52.5063 25.6743C56.1679 25.6279 59.941 28.8434 59.941 28.8434C59.941 28.8434 59.9967 28.7969 60.0664 28.7411V60.371C60.0293 60.3989 59.9967 60.4082 59.9967 60.4082C59.9967 60.4082 41.5448 46.4125 41.0569 37.2028C40.713 30.8554 46.1497 25.7533 52.5063 25.6743Z" fill="#616161"/>
<path d="M75.0891 63.8996C75.577 73.1 94.0521 87.0864 94.0521 87.0864C94.0521 87.0864 113.034 73.0024 113.034 63.7788C113.034 57.4361 107.839 52.3154 101.505 52.3154C97.946 52.3154 93.9685 55.5263 93.9685 55.5263C93.9685 55.5263 90.214 52.3155 86.5431 52.3666C80.2097 52.4456 74.7499 57.5476 75.0891 63.8996Z" fill="#D66142"/>
<path opacity="0.2" d="M86.5478 52.3747C90.2187 52.319 93.9732 55.5346 93.9732 55.5346C93.9732 55.5346 94.029 55.4881 94.108 55.4277V87.0714C94.0801 87.09 94.0522 87.09 94.0522 87.09C94.0522 87.09 75.5816 73.1036 75.0891 63.9032C74.7499 57.5466 80.2097 52.4444 86.5478 52.3747Z" fill="#616161"/>
<path d="M147.317 37.1979C146.829 46.4076 128.363 60.4033 128.363 60.4033C128.363 60.4033 109.382 46.31 109.382 37.0956C109.382 30.7436 114.563 25.623 120.91 25.623C124.469 25.623 128.433 28.8339 128.433 28.8339C128.433 28.8339 132.197 25.6231 135.863 25.6649C142.206 25.7532 147.656 30.8552 147.317 37.1979Z" fill="#D66142"/>
<path opacity="0.2" d="M135.863 25.6743C132.192 25.6279 128.433 28.8434 128.433 28.8434C128.433 28.8434 128.372 28.7969 128.312 28.7411V60.371C128.345 60.3989 128.368 60.4082 128.368 60.4082C128.368 60.4082 146.834 46.4125 147.322 37.2028C147.656 30.8554 142.206 25.7533 135.863 25.6743Z" fill="#616161"/>
<path d="M41.0569 94.1018C41.5448 103.311 59.9967 117.307 59.9967 117.307C59.9967 117.307 78.9923 103.205 78.9923 93.9902C78.9923 87.6475 73.7973 82.5176 67.4639 82.5176C63.8952 82.5176 59.9363 85.7285 59.9363 85.7285C59.9363 85.7285 56.1678 82.5176 52.5016 82.578C46.1496 82.657 40.713 87.7498 41.0569 94.1018Z" fill="#D66142"/>
<path opacity="0.2" d="M52.5063 82.5859C56.1679 82.5209 59.9409 85.7364 59.9409 85.7364C59.9409 85.7364 59.9967 85.6992 60.0664 85.6342V117.264C60.0292 117.301 59.9967 117.31 59.9967 117.31C59.9967 117.31 41.5448 103.315 41.0569 94.105C40.713 87.7484 46.1497 82.6556 52.5063 82.5859Z" fill="#616161"/>
<path d="M147.317 94.1018C146.829 103.311 128.363 117.307 128.363 117.307C128.363 117.307 109.382 103.205 109.382 93.9902C109.382 87.6475 114.563 82.5176 120.91 82.5176C124.469 82.5176 128.433 85.7285 128.433 85.7285C128.433 85.7285 132.197 82.5176 135.863 82.578C142.206 82.657 147.656 87.7498 147.317 94.1018Z" fill="#D66142"/>
<path opacity="0.2" d="M135.863 82.5869C132.192 82.5219 128.433 85.7374 128.433 85.7374C128.433 85.7374 128.372 85.7002 128.312 85.6352V117.265C128.345 117.302 128.368 117.311 128.368 117.311C128.368 117.311 146.834 103.316 147.322 94.106C147.656 87.7494 142.206 82.6566 135.863 82.5869Z" fill="#616161"/>
<path d="M41.0569 219.507C41.5448 210.312 59.9967 196.32 59.9967 196.32C59.9967 196.32 78.9923 210.414 78.9923 219.637C78.9923 225.98 73.7973 231.101 67.4639 231.101C63.8952 231.101 59.9363 227.89 59.9363 227.89C59.9363 227.89 56.1678 231.101 52.5016 231.049C46.1496 230.961 40.713 225.864 41.0569 219.507Z" fill="#D66142"/>
<path opacity="0.2" d="M52.5063 231.045C56.1679 231.1 59.9409 227.885 59.9409 227.885C59.9409 227.885 59.9967 227.922 60.0664 227.982V196.353C60.0292 196.325 59.9967 196.315 59.9967 196.315C59.9967 196.315 41.5448 210.311 41.0569 219.502C40.713 225.864 46.1497 230.961 52.5063 231.045Z" fill="#616161"/>
<path d="M75.0891 192.825C75.577 183.615 94.0521 169.629 94.0521 169.629C94.0521 169.629 113.034 183.722 113.034 192.946C113.034 199.289 107.839 204.409 101.505 204.409C97.946 204.409 93.9685 201.198 93.9685 201.198C93.9685 201.198 90.214 204.409 86.5431 204.367C80.2097 204.27 74.7499 199.168 75.0891 192.825Z" fill="#D66142"/>
<path opacity="0.2" d="M86.5478 204.363C90.2186 204.409 93.9731 201.194 93.9731 201.194C93.9731 201.194 94.0289 201.231 94.1079 201.296V169.666C94.08 169.638 94.0521 169.629 94.0521 169.629C94.0521 169.629 75.5816 183.615 75.0891 192.825C74.7499 199.168 80.2097 204.27 86.5478 204.363Z" fill="#616161"/>
<path d="M147.317 219.507C146.829 210.312 128.363 196.32 128.363 196.32C128.363 196.32 109.382 210.414 109.382 219.637C109.382 225.98 114.563 231.101 120.91 231.101C124.469 231.101 128.433 227.89 128.433 227.89C128.433 227.89 132.197 231.101 135.863 231.049C142.206 230.961 147.656 225.864 147.317 219.507Z" fill="#D66142"/>
<path opacity="0.2" d="M135.863 231.045C132.192 231.1 128.433 227.885 128.433 227.885C128.433 227.885 128.372 227.922 128.312 227.982V196.353C128.345 196.325 128.368 196.315 128.368 196.315C128.368 196.315 146.834 210.311 147.322 219.502C147.656 225.864 142.206 230.961 135.863 231.045Z" fill="#616161"/>
<path d="M41.0569 162.612C41.5448 153.411 59.9967 139.425 59.9967 139.425C59.9967 139.425 78.9923 153.509 78.9923 162.732C78.9923 169.084 73.7973 174.205 67.4639 174.205C63.8953 174.205 59.9363 170.985 59.9363 170.985C59.9363 170.985 56.1679 174.205 52.5016 174.154C46.1496 174.056 40.7131 168.964 41.0569 162.612Z" fill="#D66142"/>
<path opacity="0.2" d="M52.5063 174.149C56.1679 174.205 59.941 170.98 59.941 170.98C59.941 170.98 59.9967 171.027 60.0664 171.092V139.453C60.0293 139.434 59.9967 139.425 59.9967 139.425C59.9967 139.425 41.5448 153.411 41.0569 162.612C40.7131 168.964 46.1497 174.056 52.5063 174.149Z" fill="#616161"/>
<path d="M147.317 162.612C146.829 153.411 128.363 139.425 128.363 139.425C128.363 139.425 109.382 153.509 109.382 162.732C109.382 169.084 114.563 174.205 120.91 174.205C124.469 174.205 128.433 170.985 128.433 170.985C128.433 170.985 132.197 174.205 135.863 174.154C142.206 174.056 147.656 168.964 147.317 162.612Z" fill="#D66142"/>
<path opacity="0.2" d="M135.863 174.149C132.192 174.205 128.433 170.98 128.433 170.98C128.433 170.98 128.372 171.027 128.312 171.092V139.453C128.345 139.434 128.368 139.425 128.368 139.425C128.368 139.425 146.834 153.411 147.322 162.612C147.656 168.964 142.206 174.056 135.863 174.149Z" fill="#616161"/>
<path d="M164.287 211.196C164.459 207.892 171.085 202.864 171.085 202.864C171.085 202.864 177.897 207.91 177.897 211.242C177.897 213.51 176.033 215.336 173.761 215.336C172.488 215.336 171.061 214.193 171.061 214.193C171.061 214.193 169.714 215.336 168.404 215.327C166.122 215.289 164.161 213.459 164.287 211.196Z" fill="#D66142"/>
<path opacity="0.2" d="M168.404 215.326C169.714 215.335 171.061 214.192 171.061 214.192C171.061 214.192 171.071 214.201 171.103 214.239V202.877L171.085 202.868C171.085 202.868 164.459 207.896 164.287 211.2C164.161 213.458 166.122 215.289 168.404 215.326Z" fill="#616161"/>
</svg>
