<svg width="186" height="260" viewBox="0 0 186 260" fill="none" xmlns="http://www.w3.org/2000/svg">
<path d="M20.6791 259.121C9.74553 259.14 0.81932 250.413 0.796087 239.656L0.23383 19.8504C0.20595 9.02365 9.11366 0.246091 20.0891 0.264678L165.348 0.529534C176.282 0.552768 185.176 9.36285 185.176 20.1431V239.484C185.176 250.204 176.319 258.94 165.414 258.949L20.6791 259.121Z" fill="#C9C9C9"/>
<path d="M22.4867 258.572C11.6972 258.572 2.91028 249.822 2.91028 239.065V19.7799C2.91028 9.01822 11.6972 0.268555 22.4867 0.268555H165.632C176.422 0.268555 185.204 9.01822 185.204 19.7799V239.065C185.204 249.822 176.422 258.572 165.632 258.572H22.4867Z" fill="white"/>
<path d="M25.893 16.934C25.5305 17.5706 25.2005 18.1979 24.8985 18.8019C24.2201 20.1588 23.6532 21.3251 23.2257 22.2869C22.7146 23.4021 22.2452 24.4476 21.8363 25.4513C21.2276 26.9104 20.9349 27.6446 20.9349 27.6678C20.5957 28.3648 20.1172 29.2384 19.5085 30.3025C18.7743 31.5617 18.1934 32.4817 17.7519 33.044C17.0178 33.9873 16.2696 34.8237 15.5076 35.5346C14.6619 36.3292 13.7186 37.0401 12.6824 37.6628C12.608 37.6256 12.5338 37.5745 12.4734 37.5187C12.399 37.4583 12.3665 37.3793 12.3665 37.2678C12.3665 37.1145 12.8032 36.4872 13.6675 35.3952C14.2205 34.7214 14.6108 34.1685 14.8571 33.7503C15.201 33.202 15.5309 32.5793 15.8376 31.8823C16.1535 31.1853 16.4648 30.4558 16.7901 29.703C17.6404 27.9698 18.3607 26.3667 18.9462 24.8937C19.304 23.9783 19.6617 22.9607 20.0149 21.8362C20.0149 21.4505 18.6998 21.2693 16.0466 21.2693C15.6934 21.2693 15.3032 21.3297 14.8943 21.4459C14.4761 21.576 14.0857 21.7898 13.7279 22.0918H12.9612V21.497C14.1972 19.7545 15.3776 18.5417 16.5021 17.8401C17.3942 17.2918 18.3515 17.0083 19.3691 17.0083C19.6711 17.0083 20.1404 17.0548 20.7909 17.1291C21.4368 17.2035 21.9246 17.236 22.2592 17.236C22.7471 17.2174 23.1421 17.1989 23.4255 17.1803C24.2898 17.0873 24.931 16.8829 25.3213 16.5576H25.8046L25.893 16.934Z" fill="#333333"/>
<path d="M163.439 244.347C163.806 243.702 164.136 243.079 164.433 242.47C165.116 241.113 165.674 239.952 166.111 238.994C166.622 237.879 167.086 236.815 167.495 235.821C168.109 234.366 168.401 233.632 168.401 233.614C168.741 232.907 169.219 232.034 169.823 230.979C170.558 229.706 171.148 228.79 171.584 228.228C172.323 227.28 173.067 226.453 173.824 225.738C174.674 224.943 175.618 224.237 176.658 223.609C176.733 223.656 176.803 223.698 176.863 223.753C176.937 223.809 176.965 223.893 176.965 224.014C176.965 224.162 176.538 224.785 175.669 225.877C175.116 226.56 174.721 227.113 174.475 227.522C174.135 228.075 173.801 228.688 173.499 229.39C173.183 230.087 172.867 230.816 172.542 231.574C171.696 233.302 170.976 234.905 170.386 236.388C170.032 237.294 169.679 238.311 169.317 239.441C169.317 239.822 170.641 240.012 173.28 240.012C173.643 240.012 174.029 239.942 174.447 239.817C174.865 239.696 175.255 239.487 175.608 239.18H176.38V239.775C175.144 241.518 173.973 242.735 172.834 243.437C171.947 243.98 170.99 244.259 169.967 244.259C169.67 244.259 169.191 244.213 168.55 244.143C167.9 244.069 167.412 244.031 167.077 244.031C166.589 244.05 166.199 244.069 165.915 244.087C165.047 244.18 164.415 244.385 164.015 244.705H163.532L163.439 244.347Z" fill="#333333"/>
<path d="M148.574 43.8753C148.597 39.2194 128.305 19.2852 128.305 19.2852C128.305 19.2852 108.538 39.842 108.538 43.8056C108.524 50.4968 113.938 55.9334 120.638 55.9427C122.92 55.9474 125.067 55.3201 126.893 54.2188L119.291 67.1691L137.738 67.2062L130.187 54.2327C132 55.3201 134.137 55.9706 136.428 55.9845C143.11 55.9938 148.574 50.5805 148.574 43.8753Z" fill="#333333"/>
<path opacity="0.2" d="M148.574 43.8753C148.597 39.2194 128.305 19.2852 128.305 19.2852C128.305 19.2852 128.287 19.2991 128.273 19.3223V67.1923L137.733 67.2109L130.183 54.2374C131.995 55.3247 134.132 55.9752 136.423 55.9892C143.11 55.9938 148.574 50.5805 148.574 43.8753Z" fill="#616161"/>
<path d="M148.574 132.259C148.597 127.594 128.305 107.664 128.305 107.664C128.305 107.664 108.538 128.221 108.538 132.189C108.524 138.885 113.938 144.322 120.638 144.331C122.92 144.336 125.066 143.713 126.893 142.602L119.291 155.553L137.738 155.59L130.187 142.616C131.999 143.713 134.137 144.359 136.428 144.373C143.109 144.382 148.574 138.964 148.574 132.259Z" fill="#333333"/>
<path opacity="0.2" d="M148.574 132.259C148.597 127.594 128.305 107.664 128.305 107.664C128.305 107.664 128.287 107.683 128.273 107.701V155.571L137.733 155.59L130.182 142.616C131.995 143.713 134.132 144.359 136.423 144.373C143.109 144.382 148.574 138.964 148.574 132.259Z" fill="#616161"/>
<path d="M39.6283 43.8753C39.6051 39.2194 59.8971 19.2852 59.8971 19.2852C59.8971 19.2852 79.664 39.842 79.6687 43.8056C79.6826 50.4968 74.2692 55.9334 67.5687 55.9427C65.2779 55.9474 63.1451 55.3201 61.319 54.2188L68.9163 67.1691L50.4737 67.2062L58.0199 54.2327C56.2077 55.3201 54.0748 55.9706 51.784 55.9845C45.0974 55.9938 39.6283 50.5805 39.6283 43.8753Z" fill="#333333"/>
<path opacity="0.2" d="M39.6283 43.8753C39.6051 39.2194 59.8971 19.2852 59.8971 19.2852C59.8971 19.2852 59.9156 19.2991 59.9342 19.3223V67.1923L50.4737 67.2109L58.0199 54.2374C56.2077 55.3247 54.0748 55.9752 51.784 55.9892C45.0974 55.9938 39.6283 50.5805 39.6283 43.8753Z" fill="#616161"/>
<path d="M72.8102 88.845C72.787 84.1891 93.0836 64.2549 93.0836 64.2549C93.0836 64.2549 112.851 84.8071 112.851 88.7661C112.864 95.4666 107.446 100.908 100.755 100.912C98.4691 100.917 96.3271 100.294 94.4963 99.1839L102.108 112.134L83.6556 112.171L91.2017 99.1978C89.3942 100.294 87.2567 100.945 84.9659 100.954C78.2747 100.968 72.8102 95.5548 72.8102 88.845Z" fill="#333333"/>
<path opacity="0.2" d="M72.8102 88.845C72.787 84.1891 93.0836 64.2549 93.0836 64.2549C93.0836 64.2549 93.1023 64.2735 93.1116 64.2874V112.153L83.6556 112.167L91.2017 99.1932C89.3942 100.29 87.2567 100.94 84.9659 100.95C78.2747 100.968 72.8102 95.5548 72.8102 88.845Z" fill="#616161"/>
<path d="M39.6284 127.95C39.6052 123.294 59.8972 103.359 59.8972 103.359C59.8972 103.359 79.6641 123.916 79.6688 127.88C79.6827 134.566 74.2693 140.008 67.5688 140.017C65.278 140.026 63.1452 139.404 61.3191 138.293L68.9164 151.243L50.4738 151.28L58.02 138.302C56.2078 139.404 54.0749 140.054 51.7841 140.063C45.0976 140.077 39.6284 134.65 39.6284 127.95Z" fill="#333333"/>
<path opacity="0.2" d="M39.6284 127.95C39.6052 123.294 59.8972 103.359 59.8972 103.359C59.8972 103.359 59.9158 103.373 59.9343 103.401V151.271L50.4738 151.28L58.02 138.302C56.2078 139.404 54.0749 140.054 51.7841 140.063C45.0976 140.077 39.6284 134.65 39.6284 127.95Z" fill="#616161"/>
<path d="M148.486 215.954C148.504 220.615 128.217 240.544 128.217 240.544C128.217 240.544 108.455 219.997 108.441 216.028C108.436 209.328 113.85 203.887 120.545 203.882C122.832 203.873 124.974 204.5 126.8 205.611L119.198 192.66L137.636 192.623L130.09 205.597C131.902 204.5 134.035 203.849 136.335 203.835C143.021 203.826 148.486 209.24 148.486 215.954Z" fill="#333333"/>
<path opacity="0.2" d="M148.486 215.954C148.504 220.615 128.217 240.544 128.217 240.544C128.217 240.544 128.203 240.526 128.185 240.507V192.642L137.636 192.628L130.09 205.601C131.902 204.505 134.035 203.854 136.335 203.84C143.021 203.826 148.486 209.24 148.486 215.954Z" fill="#616161"/>
<path d="M39.5308 215.954C39.5168 220.615 59.8042 240.544 59.8042 240.544C59.8042 240.544 79.571 219.997 79.5803 216.028C79.5803 209.328 74.1763 203.887 67.4759 203.882C65.185 203.873 63.0383 204.5 61.2214 205.611L68.8233 192.66L50.3715 192.623L57.9176 205.597C56.1147 204.5 53.9772 203.849 51.6818 203.835C44.9952 203.826 39.5308 209.24 39.5308 215.954Z" fill="#333333"/>
<path opacity="0.2" d="M39.5308 215.953C39.5168 220.614 59.8042 240.543 59.8042 240.543C59.8042 240.543 59.8181 240.525 59.832 240.506V192.641L50.376 192.627L57.9223 205.6C56.1194 204.504 53.9819 203.853 51.6864 203.839C44.9952 203.825 39.5308 209.239 39.5308 215.953Z" fill="#616161"/>
<path d="M24.1086 52.7249C24.1086 51.4796 18.6998 46.1592 18.6998 46.1592C18.6998 46.1592 13.4304 51.6422 13.4211 52.697C13.4211 54.486 14.871 55.9357 16.6553 55.9357C17.264 55.9357 17.8309 55.7731 18.3188 55.4804L16.2836 58.9329L21.2136 58.9375L19.197 55.4804C19.6803 55.7731 20.2426 55.9451 20.8513 55.9497C22.6542 55.9497 24.1086 54.5046 24.1086 52.7249Z" fill="#333333"/>
<path opacity="0.2" d="M24.1085 52.7249C24.1085 51.4796 18.6998 46.1592 18.6998 46.1592L18.6904 46.1685V58.9329L21.2182 58.9375L19.2016 55.4804C19.6849 55.7731 20.2471 55.9451 20.8558 55.9497C22.6541 55.9497 24.1085 54.5046 24.1085 52.7249Z" fill="#616161"/>
<path d="M166.282 211.224C166.282 212.474 171.696 217.785 171.696 217.785C171.696 217.785 176.965 212.307 176.965 211.252C176.965 209.463 175.515 208.018 173.74 208.009C173.127 208.009 172.556 208.176 172.082 208.473L174.103 205.016L169.187 205.007L171.199 208.469C170.711 208.176 170.144 208.004 169.535 208.004C167.737 207.995 166.282 209.435 166.282 211.224Z" fill="#333333"/>
<path opacity="0.2" d="M166.282 211.224C166.282 212.474 171.696 217.785 171.696 217.785V217.776V205.007H169.182L171.194 208.469C170.706 208.176 170.139 208.004 169.531 208.004C167.737 207.995 166.282 209.435 166.282 211.224Z" fill="#616161"/>
</svg>
