<svg width="183" height="256" viewBox="0 0 183 256" fill="none" xmlns="http://www.w3.org/2000/svg">
<path d="M20.3235 255.701C9.56178 255.724 0.76094 247.119 0.737707 236.538L0.184738 20.106C0.161505 9.46047 8.93448 0.799079 19.7426 0.822312L162.758 1.08717C173.524 1.1104 182.283 9.77178 182.283 20.3941V236.367C182.283 246.924 173.552 255.52 162.832 255.534L20.3235 255.701Z" fill="#C9C9C9"/>
<path d="M22.1077 255.163C11.4714 255.163 2.83337 246.548 2.83337 235.949V20.0414C2.83337 9.45161 11.4714 0.832031 22.1077 0.832031H163.041C173.668 0.832031 182.325 9.44696 182.325 20.0414V235.953C182.325 246.548 173.668 255.167 163.041 255.167L22.1077 255.163Z" fill="white"/>
<path d="M126.714 19.1504L107.713 43.1411L126.714 67.1504L145.723 43.1411L126.714 19.1504Z" fill="#D66142"/>
<path opacity="0.2" d="M126.588 19.3084L126.714 19.1504L145.723 43.1411L126.714 67.1504L126.588 66.9832V19.3084Z" fill="#616161"/>
<path d="M58.4308 104.002L77.4356 127.993L58.4308 152.002L39.4306 127.993L58.4308 104.002Z" fill="#D66142"/>
<path opacity="0.2" d="M58.5563 104.155L58.4308 104.002L39.4306 127.993L58.4308 152.002L58.5563 151.839V104.155Z" fill="#616161"/>
<path d="M58.4307 188.844L77.4356 212.848L58.4307 236.849L39.4305 212.848L58.4307 188.844Z" fill="#D66142"/>
<path opacity="0.2" d="M58.5562 189.011L58.4307 188.844L39.4305 212.848L58.4307 236.849L58.5562 236.69V189.011Z" fill="#616161"/>
<path d="M58.4307 19.1504L77.4356 43.1411L58.4307 67.1504L39.4305 43.1411L58.4307 19.1504Z" fill="#D66142"/>
<path opacity="0.2" d="M58.5562 19.3084L58.4307 19.1504L39.4305 43.1411L58.4307 67.1504L58.5562 66.9832V19.3084Z" fill="#616161"/>
<path d="M126.714 104.002L107.713 127.993L126.714 152.002L145.723 127.993L126.714 104.002Z" fill="#D66142"/>
<path opacity="0.2" d="M126.588 104.155L126.714 104.002L145.723 127.993L126.714 152.002L126.588 151.839V104.155Z" fill="#616161"/>
<path d="M126.714 188.844L107.713 212.848L126.714 236.849L145.723 212.848L126.714 188.844Z" fill="#D66142"/>
<path opacity="0.2" d="M126.588 189.011L126.714 188.844L145.723 212.848L126.714 236.849L126.588 236.69V189.011Z" fill="#616161"/>
<path d="M17.9537 58.6766L12.4194 51.6881L17.9537 44.7041L23.4924 51.6881L17.9537 58.6766Z" fill="#D66142"/>
<path opacity="0.2" d="M17.9537 44.7041L17.9072 44.7645V58.6255L17.9537 58.6766L23.4924 51.6881L17.9537 44.7041Z" fill="#616161"/>
<path d="M25.3095 30.2225C25.3095 31.1565 24.8402 32.36 23.9062 33.8515C22.9676 35.3385 22.0335 36.2957 21.1274 36.7232C20.4025 37.0578 19.8542 37.2901 19.4824 37.4109C19.1293 37.5317 18.832 37.5921 18.6089 37.5921C18.3115 37.5921 18.042 37.5921 17.8003 37.5921C15.8627 37.5921 14.3665 36.9091 13.3024 35.5476C12.3731 34.3534 11.9038 32.8897 11.9038 31.1565C11.9038 29.9995 12.1362 28.6705 12.5869 27.1696C13.0423 25.6688 13.6184 24.3956 14.3014 23.3501C15.2819 21.8539 15.9324 20.9431 16.2252 20.6039C16.3925 20.418 17.1313 19.7768 18.4324 18.6756C19.4035 17.8531 20.1005 17.3187 20.528 17.0771C20.8254 16.9098 21.0903 16.8262 21.3365 16.8262C21.6711 16.8262 21.8384 17.0027 21.8384 17.3605C21.8384 17.4581 21.3644 17.946 20.4165 18.8382C19.7056 19.5073 19.0038 20.3065 18.3208 21.2405C18.0606 21.5751 17.7075 22.207 17.2568 23.1364C16.7457 24.219 16.4762 24.9253 16.4762 25.2599C16.4762 25.311 16.5086 25.376 16.5783 25.4411C16.648 25.5015 16.7131 25.5387 16.7921 25.5387C17.2707 25.2785 17.7864 25.0182 18.3254 24.758C19.4035 24.2376 20.1841 23.9774 20.6674 23.9774C21.5967 23.9774 22.5725 24.5489 23.5715 25.7059C24.7378 27.0163 25.3095 28.5265 25.3095 30.2225ZM21.29 33.2335C21.29 32.0254 20.8718 30.8405 20.0308 29.6742C19.1944 28.5172 18.3302 27.941 17.4334 27.941C17.1034 27.941 16.7921 28.006 16.5133 28.1408C16.2299 28.2802 16.0905 28.5125 16.0905 28.8285C16.0905 29.9623 16.5643 31.124 17.5216 32.3182C18.5438 33.596 19.6265 34.2372 20.7882 34.2372C20.9508 34.2372 21.0717 34.1721 21.16 34.0513C21.2529 33.9166 21.29 33.6517 21.29 33.2335Z" fill="#333333"/>
<path d="M161.034 228.166C161.034 227.236 161.503 226.024 162.442 224.537C163.385 223.045 164.305 222.093 165.225 221.656C165.95 221.326 166.484 221.098 166.856 220.977C167.218 220.857 167.511 220.801 167.743 220.801C168.036 220.801 168.306 220.801 168.552 220.801C170.49 220.801 171.981 221.479 173.05 222.845C173.979 224.035 174.444 225.499 174.444 227.241C174.444 228.393 174.212 229.722 173.766 231.228C173.301 232.729 172.734 234.002 172.046 235.048C171.057 236.548 170.415 237.454 170.118 237.794C169.955 237.979 169.221 238.625 167.911 239.722C166.944 240.549 166.247 241.074 165.82 241.32C165.518 241.488 165.248 241.571 165.011 241.571C164.672 241.571 164.505 241.399 164.505 241.042C164.505 240.944 164.983 240.456 165.927 239.564C166.638 238.89 167.344 238.096 168.027 237.166C168.292 236.827 168.645 236.2 169.086 235.266C169.611 234.183 169.872 233.477 169.872 233.138C169.872 233.087 169.835 233.022 169.769 232.956C169.709 232.891 169.639 232.864 169.56 232.864C169.072 233.119 168.571 233.379 168.027 233.64C166.949 234.16 166.173 234.42 165.68 234.42C164.746 234.42 163.78 233.839 162.776 232.687C161.61 231.367 161.034 229.857 161.034 228.166ZM165.053 225.145C165.053 226.363 165.467 227.543 166.308 228.705C167.149 229.871 168.013 230.452 168.905 230.452C169.244 230.452 169.551 230.382 169.835 230.247C170.109 230.099 170.248 229.876 170.248 229.56C170.248 228.426 169.769 227.26 168.821 226.07C167.795 224.792 166.707 224.146 165.555 224.146C165.392 224.146 165.262 224.211 165.179 224.342C165.095 224.472 165.053 224.741 165.053 225.145Z" fill="#333333"/>
<path d="M168.385 199.704L173.914 206.688L168.385 213.677L162.846 206.688L168.385 199.704Z" fill="#D66142"/>
<path opacity="0.2" d="M168.417 199.741L168.385 199.704L162.846 206.688L168.385 213.677L168.417 213.626V199.741Z" fill="#616161"/>
</svg>
