<svg width="186" height="259" viewBox="0 0 186 259" fill="none" xmlns="http://www.w3.org/2000/svg">
<path d="M20.7466 258.947C9.81301 258.965 0.896056 250.225 0.868176 239.482L0.305928 19.7083C0.278048 8.89084 9.18571 0.108649 20.1611 0.131882L165.393 0.396703C176.326 0.419936 185.215 9.21608 185.215 20.0149V239.31C185.215 250.03 176.354 258.77 165.467 258.775L20.7466 258.947Z" fill="#C9C9C9"/>
<path d="M22.7307 258.357C11.9318 258.357 3.14961 249.608 3.14961 238.855V19.5977C3.14961 8.84533 11.9318 0.0957031 22.7307 0.0957031H165.848C176.642 0.0957031 185.42 8.84533 185.42 19.5977V238.855C185.42 249.608 176.642 258.357 165.848 258.357H22.7307Z" fill="white"/>
<path d="M165.639 254.282H22.5217C14.1577 254.282 7.35498 247.512 7.35498 239.189V19.9411C7.35498 11.9256 13.7116 5.40629 17.1269 4.15634L17.6241 3.96582L161.508 3.97979C175.736 5.09499 180.806 12.9525 180.806 19.9457V239.194C180.806 247.512 174.008 254.282 165.639 254.282ZM18.8369 9.95538C17.2942 10.9265 13.3445 14.9691 13.3445 19.9411V239.189C13.3445 244.208 17.4615 248.292 22.5217 248.292H165.639C170.699 248.292 174.816 244.208 174.816 239.189V19.9411C174.816 14.379 169.714 10.6524 161.16 9.95538H18.8369Z" fill="#D66142"/>
<path d="M27.8374 68.2119L18.4651 56.3907L27.8374 44.5557L37.1958 56.3907L27.8374 68.2119Z" fill="#D66142"/>
<path opacity="0.2" d="M27.8374 44.5557L27.5307 44.946V67.8354L27.8374 68.2119L37.1958 56.3907L27.8374 44.5557Z" fill="#616161"/>
<path d="M34.8678 18.1628C34.287 19.1665 33.5482 19.9332 32.6746 20.4675C31.7964 20.9926 30.9182 21.2621 30.0539 21.2621C29.7705 21.2621 28.7668 21.0437 27.0475 20.6069C26.2343 20.3932 25.5002 20.2957 24.8403 20.2957C24.4221 20.2957 23.9993 20.3421 23.5764 20.4536C23.1536 20.5512 22.7865 20.7231 22.4891 20.9741H22.1685V20.5791C22.7586 19.2548 23.4603 18.3115 24.2827 17.7446C25.1052 17.1777 26.1739 16.8896 27.4982 16.8896C28.4647 16.8896 29.3848 17.0522 30.263 17.3636C31.1412 17.6749 31.9869 17.8283 32.8001 17.8283C33.0649 17.8283 33.3716 17.8236 33.7201 17.7957C34.0686 17.7864 34.4543 17.7399 34.8678 17.6842V18.1628ZM34.9561 34.8025C34.9561 36.6658 34.2545 38.1621 32.8419 39.2865C31.4386 40.425 29.6403 40.9872 27.4425 40.9872C26.0996 40.9872 24.9751 40.7178 24.069 40.1927C22.991 39.57 22.4519 38.6732 22.4519 37.5022C22.4519 36.9586 22.6053 36.4661 22.9073 36.0479C23.3255 35.4856 23.9296 35.2021 24.7242 35.2021C25.2307 35.2021 25.6814 35.3694 26.0671 35.6947C26.4527 36.0246 26.6479 36.4428 26.6479 36.9353C26.6479 37.7439 26.304 38.2922 25.6303 38.5756C24.9472 38.8637 24.608 39.0635 24.608 39.175C24.7242 39.4213 24.8403 39.5978 24.9751 39.714C25.3701 40.0672 25.9462 40.2484 26.7036 40.2484C27.4611 40.2484 28.1069 40.0718 28.646 39.714C29.185 39.3516 29.4545 38.8497 29.4545 38.2039V22.2147C30.4396 21.8987 31.355 21.5781 32.2053 21.2714C33.0556 20.9601 33.8084 20.4954 34.4729 19.8914H34.9561V34.8025Z" fill="#333333"/>
<path d="M161.067 193.277L170.434 205.103L161.067 216.929L151.704 205.103L161.067 193.277Z" fill="#D66142"/>
<path opacity="0.2" d="M161.067 216.929L161.369 216.548V193.658L161.067 193.277L151.704 205.103L161.067 216.929Z" fill="#616161"/>
<path d="M153.943 226.689C153.943 224.839 154.65 223.339 156.058 222.205C157.465 221.08 159.264 220.509 161.462 220.509C162.8 220.509 163.924 220.764 164.83 221.299C165.908 221.917 166.447 222.814 166.447 223.994C166.447 224.537 166.294 225.021 165.992 225.439C165.579 226.001 164.97 226.294 164.175 226.294C163.669 226.294 163.218 226.131 162.832 225.797C162.447 225.471 162.252 225.053 162.252 224.561C162.252 223.752 162.595 223.199 163.269 222.916C163.948 222.632 164.291 222.432 164.291 222.326C164.18 222.07 164.059 221.898 163.924 221.782C163.525 221.42 162.953 221.257 162.196 221.257C161.438 221.257 160.788 221.42 160.253 221.782C159.714 222.144 159.445 222.646 159.445 223.287V239.267C158.464 239.583 157.549 239.904 156.694 240.22C155.844 240.527 155.091 241.001 154.427 241.591H153.943V226.689ZM154.032 243.324C154.612 242.325 155.351 241.563 156.229 241.019C157.103 240.494 157.981 240.239 158.846 240.239C159.134 240.239 160.133 240.457 161.852 240.884C162.665 241.103 163.399 241.191 164.064 241.191C164.482 241.191 164.905 241.145 165.323 241.047C165.75 240.94 166.113 240.764 166.415 240.522H166.726V240.912C166.141 242.246 165.434 243.18 164.612 243.742C163.79 244.314 162.721 244.606 161.397 244.606C160.43 244.606 159.51 244.453 158.632 244.132C157.754 243.826 156.908 243.668 156.095 243.668C155.83 243.668 155.519 243.668 155.175 243.696C154.826 243.714 154.44 243.742 154.027 243.793L154.032 243.324Z" fill="#333333"/>
<path d="M80.1821 80.7383L73.7372 83.2893L75.2148 86.0076L100.725 85.7009L102.523 83.2893L96.8218 80.7383H80.1821Z" fill="#757575"/>
<path d="M96.8218 72.7559H80.1867V90.1111H96.8218V72.7559Z" fill="#EBB07A"/>
<path opacity="0.2" d="M96.8218 76.1061V80.3253C94.7912 82.2629 92.4772 83.5035 90.0284 83.5035H86.8872C84.4803 83.5035 82.2034 82.2861 80.1914 80.4089V76.2594L81.6226 78.5363L81.9989 72.7559H94.9213L95.3024 78.5363L96.8218 76.1061Z" fill="#616161"/>
<path d="M90.0284 33.1094H88.4624H86.8919C78.6766 33.1094 72.0179 38.7225 72.0179 45.6554C72.0179 45.6554 72.0876 62.6296 72.2131 63.4381C73.3515 70.7566 79.4944 82.0759 86.8919 82.0759H88.4624H90.0284C97.4212 82.0759 103.564 70.7566 104.712 63.4381C104.833 62.6296 104.907 45.6554 104.907 45.6554C104.902 38.7225 98.2437 33.1094 90.0284 33.1094Z" fill="#EBB07A"/>
<path d="M103.369 33.1072L88.4578 23.707L73.5467 33.1072L69.676 39.7566L71.2001 55.4809L73.1982 56.6565L73.5467 42.1868L78.2398 37.1498L88.4578 41.9544L98.6758 37.1498L103.369 42.1868L103.713 56.6565L105.716 55.4809L107.24 39.7566L103.369 33.1072Z" fill="#D66142"/>
<path d="M78.9043 53.3105C78.5976 53.6916 78.4071 54.1423 78.4071 54.6488C78.4071 55.9313 79.6431 56.9861 81.1765 56.9861C82.7006 56.9861 83.9366 55.9313 83.9366 54.6488C83.9366 54.1423 83.7507 53.6916 83.4441 53.3105H78.9043Z" fill="#333333"/>
<path opacity="0.2" d="M89.5219 51.0332H88.4578H87.389L85.9114 61.925L88.4578 64.8477L90.9995 61.925L89.5219 51.0332Z" fill="#616161"/>
<path d="M98.0159 53.3105C98.3273 53.6916 98.5085 54.1423 98.5085 54.6488C98.5085 55.9313 97.2725 56.9861 95.7437 56.9861C94.215 56.9861 92.979 55.9313 92.979 54.6488C92.979 54.1423 93.1648 53.6916 93.4715 53.3105H98.0159Z" fill="#333333"/>
<path d="M103.48 64.0805L95.2977 77.119L94.6286 66.9103L90.3351 65.1121L88.4624 64.8657L86.5852 65.1121L82.287 66.9103L81.6272 77.119L73.4398 64.0805L72.2177 63.4346C73.3561 70.7531 79.499 82.0724 86.8965 82.0724H88.4671H90.033C97.4259 82.0724 103.569 70.7531 104.716 63.4346L103.48 64.0805Z" fill="#D66142"/>
<path d="M92.979 69.6849L89.2523 66.9062H88.4578H87.6632L83.9366 69.6849L83.7089 77.6308H88.4578H93.202L92.979 69.6849Z" fill="#EBB07A"/>
<g opacity="0.2">
<path d="M91.4967 70.0518H85.4189V72.0452H91.4967V70.0518Z" fill="#616161"/>
</g>
<path d="M92.7002 47.416L100.939 48.4196L92.7002 49.4094V47.416Z" fill="#D66142"/>
<path d="M84.2108 49.4094L76.1488 48.4196L84.2108 47.416V49.4094Z" fill="#D66142"/>
<path d="M129.985 85.4844L123.693 91.3903L120.929 99.7636C120.929 99.7636 130.269 97.8863 130.324 98.1233L129.985 85.4844Z" fill="#757575"/>
<path d="M47.5904 85.4844L53.8912 91.3903L56.6513 99.7636C56.6513 99.7636 47.3116 97.8863 47.2604 98.1233L47.5904 85.4844Z" fill="#757575"/>
<path d="M51.3727 90.1172L50.4945 91.8783L48.4407 98.5834C48.4407 98.5834 60.0666 95.3354 59.5462 95.6839L51.3727 90.1172Z" fill="#B35137"/>
<path d="M137.55 108.509L131.268 110.377L119.939 113.765L119.214 113.969L104.693 118.309L104.289 118.43L103.397 118.695L98.9639 120.014L97.2539 120.544L91.7198 122.189L88.9689 123.016L78.2677 126.199L76.0326 126.864L75.5308 127.008L72.7335 127.844L70.9678 128.374L65.8982 129.893L58.2638 132.165L58.2498 130.009L58.1987 123.718L53.1664 132.221V133.685L47.8413 135.274L35.0676 139.089V121.157L35.1094 120.247V120.172V120.149L35.2349 117.459L35.6624 116.46L38.1809 110.479L40.6994 104.522L43.3759 98.1518L44.3935 95.7634L45.518 93.0776L47.3952 92.613L50.4945 91.8835L50.6479 91.8463L50.8849 91.7812L51.2705 91.6837L51.4703 91.6511L52.1395 91.4792L53.0363 91.2608H53.0549L53.1478 91.233L53.6078 91.1167L62.1019 89.0583L63.0034 88.8399L63.3937 88.7609L64.3091 88.5239L71.1072 86.879L71.2326 86.8558L72.0086 86.656L74.5829 86.0333L75.159 85.8892L80.1867 84.6904H96.8218L100.771 85.6476L101.733 85.8754L102.272 86.0055L108.308 87.4738L113.74 88.7888L123.842 91.2422L124.428 91.3862L126.765 91.9532L129.985 92.7338L130.185 92.7757L131.393 93.0776L133.907 99.3785L136.425 105.689L137.136 107.436L137.55 108.509Z" fill="#ABABAB"/>
<path opacity="0.2" d="M108.308 87.4752L90.8043 104.984L90.0515 105.723L87.0777 108.706L87.0544 108.729L82.2405 113.543L81.9942 113.785L73.5837 122.209L71.0002 124.793L69.8153 125.964L68.5235 127.265L65.8982 129.895L58.2637 132.167L58.2497 130.011L66.0794 122.209L67.3851 120.885L68.2865 119.983L70.9816 117.279L71.8041 116.461L72.6219 115.643L72.9704 115.299L82.8678 105.407L83.0211 105.253L83.3975 104.882L83.4068 104.868L86.2459 102.015L86.9661 101.29L102.272 86.0068L108.308 87.4752Z" fill="white"/>
<path opacity="0.2" d="M129.985 92.7341L119.465 103.249L104.554 118.175L104.289 118.43L103.397 118.695L98.9639 120.015L97.254 120.544L91.7198 122.189L88.969 123.016L78.2677 126.199L76.0326 126.864L75.5308 127.008L75.9165 126.618L77.501 125.033L85.01 117.524L85.7721 116.767L89.8193 112.724L90.2886 112.25L94.2383 108.296L113.74 88.7891L123.842 91.2425L124.428 91.3865L126.765 91.9534L129.985 92.7341Z" fill="white"/>
<path opacity="0.2" d="M104.693 118.308L104.289 118.429L103.401 118.694L98.9685 120.013L97.2586 120.539L91.729 122.183L88.9736 123.011L78.2769 126.198L76.0419 126.863L75.5401 127.007L72.7428 127.843L70.977 128.373L69.8247 125.961L67.3944 120.878L59.5416 104.54L55.7313 96.5943L55.3689 95.8276L55.3549 95.809L53.2268 91.3807V91.3575L53.1524 91.2274L53.6171 91.1158L62.1112 89.0574L63.0126 88.839L63.403 88.7553L64.3184 88.5184L71.1164 86.8734L71.2419 86.8456L72.0179 86.6504C74.4249 89.1085 80.1124 94.6659 86.9755 101.283C88.2115 102.486 89.5079 103.722 90.8137 104.977C91.9381 106.069 93.0766 107.175 94.2429 108.29C97.6489 111.557 101.152 114.925 104.563 118.169C104.596 118.211 104.651 118.252 104.693 118.308Z" fill="#616161"/>
<path d="M88.9689 123.016L78.2722 126.203L76.0372 126.868L75.5353 127.012L72.738 127.848L71.0002 124.795L68.2912 119.991L59.5369 104.555L56.4236 99.0575L55.1272 96.7528L52.144 91.4835L51.3773 90.122L52.2881 89.8897L69.9036 85.4893C70.0802 85.7541 70.4937 86.2141 71.1071 86.8879C73.5977 89.5504 79.3642 95.2844 86.2459 102.022C87.4866 103.235 88.7505 104.48 90.0515 105.73C91.1807 106.85 92.3237 107.961 93.4715 109.076C96.752 112.282 100.13 115.549 103.397 118.704L98.9638 120.023L97.2539 120.548L91.7243 122.193L88.9689 123.016Z" fill="#D66142"/>
<path d="M63.0358 88.6361L61.0378 101.145L72.4918 106.577L72.5197 106.628L72.529 106.582L72.5662 106.596L72.5383 106.54L74.5317 94.0309L63.0777 88.6083L63.0451 88.5479L63.0358 88.599L63.0033 88.5711L63.0358 88.6361Z" fill="#FFD675"/>
<path opacity="0.2" d="M62.39 87.5155L59.5416 102.292L73.2911 107.58L73.3283 107.649V107.598H73.3701L73.3329 107.557L74.5875 94.1416L62.4458 87.5015L62.4039 87.4365L62.3946 87.4737L62.3482 87.4597L62.39 87.5155Z" fill="#616161"/>
<path opacity="0.2" d="M64.114 99.5208L65.2013 92.6855L71.4603 95.6501L70.3684 102.49L64.114 99.5208Z" fill="#616161"/>
<path d="M73.7372 83.2871L74.5875 86.0379L87.7608 93.6817L87.3751 84.6904L73.7372 83.2871Z" fill="#EBEBEB"/>
<path d="M102.523 83.2871L101.673 86.0379L88.4996 93.6817L88.8853 84.6904L102.523 83.2871Z" fill="#EBEBEB"/>
<path opacity="0.2" d="M87.0777 108.705L89.5265 111.308C88.6483 110.411 87.8119 109.542 87.0545 108.733C85.5908 107.223 84.3548 105.917 83.3976 104.886C82.4775 103.905 81.813 103.204 81.4506 102.813L83.4115 104.867L87.0777 108.705Z" fill="#616161"/>
<path opacity="0.2" d="M90.2885 112.248C93.2206 115.008 96.1712 117.671 98.9638 120.013L97.2539 120.538L89.8192 112.717L86.5294 109.256L86.1623 108.87L82.8678 105.399L76.3206 98.5172L76.1534 98.3359C76.2091 98.3871 76.2649 98.4568 76.3346 98.5079C78.3652 100.59 80.6281 102.894 83.0211 105.246C84.1317 106.347 85.2841 107.476 86.4411 108.587C86.5619 108.707 86.6873 108.823 86.8128 108.963C87.9698 110.069 89.1175 111.161 90.2885 112.248Z" fill="#616161"/>
<path opacity="0.2" d="M78.2677 126.198L76.0326 126.863L75.9165 126.616L73.5839 122.207L70.9817 117.277L68.1054 111.803L64.6344 105.655L71.8042 116.459L74.8059 120.98L77.501 125.032L78.2677 126.198Z" fill="#616161"/>
<path opacity="0.2" d="M91.7198 122.189L88.9689 123.016L86.929 119.921L85.01 117.523L81.9943 113.783L80.5306 111.989L82.2406 113.541L85.772 116.766L91.7198 122.189Z" fill="#616161"/>
<path opacity="0.2" d="M58.1986 123.72L53.1663 132.223V133.687L47.8412 135.276L43.9659 134.491L49.2956 132.06L58.1986 123.72Z" fill="#616161"/>
<path opacity="0.2" d="M137.55 108.511L131.267 110.379L119.939 113.766L119.214 113.97L118.536 105.476L119.465 103.251L120.929 99.7564L124.428 91.3877L126.765 91.9546L129.985 92.7353L130.185 92.7771L131.393 93.0791L133.907 99.38L136.425 105.69L137.136 107.437L137.55 108.511Z" fill="#616161"/>
<path d="M131.268 110.377L119.939 113.764L119.883 105.725L122.778 99.9634L123.08 99.3221L126.765 91.9571L129.985 85.4844C129.985 85.4844 138.2 95.8371 138.451 95.6559C138.507 95.6559 138.744 96.8594 139.065 98.7366C139.441 101.023 139.971 104.313 140.482 107.64L137.847 108.416L137.554 108.513L131.268 110.377Z" fill="#ABABAB"/>
<path opacity="0.2" d="M58.4171 106.376L58.1988 120.67L38.7246 117.38C38.7246 117.38 38.7013 116.585 38.8222 115.805L44.3982 95.7634L45.5226 93.0777L50.6526 91.8417L50.8942 91.7766L51.2799 91.679L51.475 91.6465L58.4171 106.376Z" fill="#616161"/>
<path d="M58.1986 122.328L39.8071 120.669L35.1093 120.246H35.0954C35.0954 120.246 35.0954 120.218 35.1093 120.172C35.1093 120.153 35.1093 120.153 35.1093 120.144C35.1651 119.777 35.3742 118.387 35.6623 116.454C36.6939 109.559 38.7941 95.651 39.0125 95.651C39.2774 95.8322 47.4788 85.4795 47.4788 85.4795L47.5345 85.6189L50.6478 91.8408L57.5853 105.716L58.1986 122.328Z" fill="#ABABAB"/>
<path opacity="0.2" d="M140.482 107.635L137.847 108.411L137.554 108.509L131.268 110.377L133.907 99.3779L134.548 96.6968L129.985 85.4844C129.985 85.4844 138.2 95.8371 138.451 95.6559C138.507 95.6559 138.744 96.8594 139.065 98.7366C139.441 101.018 139.971 104.308 140.482 107.635Z" fill="white"/>
<path opacity="0.2" d="M47.5346 85.624L43.032 96.697L43.3758 98.1561L47.2558 114.322L39.8025 120.674L38.1669 122.063C38.1669 122.063 35.7321 131.891 35.4719 132.23C35.4114 132.295 35.2767 132.272 35.0629 132.17V121.166L35.1048 120.256H35.0908C35.0908 120.256 35.0908 120.228 35.1048 120.181C35.1048 120.163 35.1048 120.163 35.1048 120.153L35.2302 117.468L35.6577 116.464C36.6893 109.568 38.7896 95.6608 39.008 95.6608C39.2728 95.842 47.4742 85.4893 47.4742 85.4893H47.5811L47.5346 85.624Z" fill="white"/>
<path d="M38.4318 98.5859L41.3267 106.23L36.1456 113.237L38.4318 98.5859Z" fill="#D66142"/>
<path d="M140.533 107.619L140.482 107.638L137.843 108.414L137.136 107.438L136.23 106.23L136.425 105.691L139.065 98.7346L139.12 98.5859L140.533 107.619Z" fill="#D66142"/>
<path opacity="0.2" d="M139.12 98.5844L139.065 98.7331C138.744 96.8558 138.507 95.6523 138.451 95.6523C138.2 95.8335 129.985 85.4808 129.985 85.4808L123.837 91.238L113.736 88.7892L108.304 87.4742L102.268 86.0059L101.729 85.8758H101.719L102.523 83.2875L96.8218 80.7365V78.8918C100.939 74.9979 103.945 68.3346 104.712 63.4416C104.768 63.0885 104.805 59.7057 104.837 55.9976L105.716 55.4865L107.24 39.7576L103.369 33.1082L88.4624 23.708L88.0396 23.9775V123.286L88.9736 123.017L91.729 122.189L97.2586 120.545L98.9685 120.019L103.401 118.7L104.289 118.435L104.693 118.309L119.219 113.969L119.939 113.76L131.268 110.373L137.554 108.505L137.847 108.407L140.482 107.631L140.538 107.613L139.12 98.5844Z" fill="#616161"/>
<path d="M95.4231 179.353L101.868 176.802L100.39 174.084L74.8802 174.4L73.082 176.802L78.7834 179.353H95.4231Z" fill="#757575"/>
<path d="M95.4231 169.974H78.7787V187.338H95.4231V169.974Z" fill="#EBB07A"/>
<path opacity="0.2" d="M78.7787 183.992V179.764C80.814 177.831 83.1326 176.59 85.5768 176.59H88.7179C91.1249 176.59 93.4018 177.807 95.4184 179.68V183.839L93.9873 181.562L93.6109 187.342H80.6792L80.3075 181.562L78.7787 183.992Z" fill="#616161"/>
<path d="M85.5814 226.986H87.1474H88.7179C96.9286 226.986 103.587 221.378 103.587 214.445C103.587 214.445 103.518 197.475 103.397 196.667C102.254 189.334 96.1154 178.038 88.7179 178.038H87.1474H85.5814C78.1839 178.038 72.0411 189.334 70.9026 196.667C70.7818 197.475 70.7075 214.445 70.7075 214.445C70.7028 221.378 77.3661 226.986 85.5814 226.986Z" fill="#EBB07A"/>
<path d="M72.2362 226.984L87.1474 236.384L102.059 226.984L105.929 220.339L104.405 204.61L102.407 203.439L102.059 217.909L97.3654 222.946L87.1474 218.142L76.9293 222.946L72.2362 217.909L71.8877 203.439L69.8943 204.61L68.3655 220.339L72.2362 226.984Z" fill="#D66142"/>
<path d="M96.7055 206.79C97.0122 206.4 97.198 205.945 97.198 205.457C97.198 204.16 95.9574 203.105 94.4333 203.105C92.9045 203.105 91.6685 204.16 91.6685 205.457C91.6685 205.945 91.8544 206.4 92.161 206.79H96.7055Z" fill="#333333"/>
<path opacity="0.2" d="M86.0833 209.056H87.1474H88.2161L89.6937 198.168L87.1474 195.236L84.6103 198.168L86.0833 209.056Z" fill="#616161"/>
<path d="M77.5892 206.79C77.2825 206.4 77.0966 205.945 77.0966 205.457C77.0966 204.16 78.3326 203.105 79.8614 203.105C81.3901 203.105 82.6261 204.16 82.6261 205.457C82.6261 205.945 82.4403 206.4 82.1336 206.79H77.5892Z" fill="#333333"/>
<path d="M72.1293 196.011L80.3121 182.987L80.9812 193.177L85.2747 194.984L87.1473 195.231L89.0199 194.984L93.3181 193.177L93.9826 182.987L102.17 196.011L103.397 196.667C102.254 189.334 96.1154 178.038 88.7179 178.038H87.1473H85.5814C78.1839 178.038 72.041 189.334 70.9026 196.667L72.1293 196.011Z" fill="#D66142"/>
<path d="M82.6261 190.408L86.3574 193.172H87.1473H87.9419L91.6686 190.408L91.8962 182.457H87.1473H82.4031L82.6261 190.408Z" fill="#EBB07A"/>
<g opacity="0.2">
<path d="M90.1863 188.048H84.1084V190.046H90.1863V188.048Z" fill="#616161"/>
</g>
<path d="M82.9003 212.68L74.6664 211.672L82.9003 210.673V212.68Z" fill="#D66142"/>
<path d="M91.3944 210.673L99.4564 211.672L91.3944 212.68V210.673Z" fill="#D66142"/>
<path d="M45.6202 174.607L51.9164 168.715L54.6812 160.332C54.6812 160.332 45.3414 162.2 45.2856 161.972L45.6202 174.607Z" fill="#757575"/>
<path d="M128.015 174.607L121.714 168.715L118.954 160.332C118.954 160.332 128.298 162.2 128.349 161.972L128.015 174.607Z" fill="#757575"/>
<path d="M124.237 169.973L125.111 168.208L127.169 161.512C127.169 161.512 115.543 164.755 116.059 164.411L124.237 169.973Z" fill="#B35137"/>
<path d="M38.0601 151.587L44.3377 149.709L55.6663 146.326L56.3865 146.122L70.912 141.787L71.3163 141.661L72.2084 141.396L76.6414 140.072L78.3513 139.556L83.8809 137.902L86.6317 137.089L97.3376 133.892L99.5727 133.237L100.079 133.088L102.872 132.256L104.638 131.727L109.707 130.207L117.342 127.935L117.355 130.082L117.407 136.383L122.444 127.879V126.406L127.769 124.817L140.533 121.007V138.934L140.501 139.854V139.923V139.947L140.375 142.637L139.943 143.631L137.424 149.612L134.911 155.559L132.229 161.939L131.212 164.328L130.087 167.013L128.21 167.469L125.111 168.208L124.957 168.249L124.725 168.31L124.335 168.408L124.14 168.449L123.47 168.612L122.569 168.84H122.555L122.458 168.863L121.997 168.97L113.503 171.028L112.602 171.251L112.216 171.34L111.292 171.576L104.498 173.212L104.368 173.24L103.597 173.435L101.022 174.058L100.451 174.206L95.4232 175.415H78.7788L74.8338 174.453L73.8766 174.211L73.3329 174.086L67.3016 172.622L61.8696 171.288L51.7631 168.849L51.1776 168.719L48.8404 168.138L45.6202 167.371L45.4204 167.32L44.2123 167.013L41.6938 160.713L39.1799 154.393L38.4736 152.651L38.0601 151.587Z" fill="#ABABAB"/>
<path opacity="0.2" d="M67.3016 172.624L84.8009 155.12L85.5537 154.367L88.5276 151.393L88.5554 151.37L93.3647 146.551L93.6157 146.309L102.021 137.894L104.605 135.302L105.785 134.126L107.082 132.843L109.707 130.209L117.342 127.937L117.355 130.083L109.531 137.894L108.22 139.2L107.319 140.111L104.624 142.815L103.801 143.633L102.983 144.46L102.635 144.785L92.7374 154.687L92.5888 154.841L92.2077 155.217L92.1938 155.222L89.364 158.084L88.6344 158.795L73.333 174.087L67.3016 172.624Z" fill="white"/>
<path opacity="0.2" d="M45.6201 167.369L56.1402 156.84L71.0514 141.924L71.3162 141.659L72.2084 141.394L76.6413 140.07L78.3513 139.554L83.8808 137.9L86.6316 137.087L97.3375 133.89L99.5726 133.235L100.079 133.086L99.6888 133.481L98.0996 135.056L90.5952 142.56L89.8332 143.332L85.7906 147.374L85.3166 147.848L81.3623 151.789L61.8695 171.286L51.763 168.847L51.1776 168.717L48.8403 168.136L45.6201 167.369Z" fill="white"/>
<path opacity="0.2" d="M70.9119 141.785L71.3162 141.664L72.2084 141.395L76.6413 140.07L78.3513 139.559L83.8854 137.905L86.6363 137.092L97.3422 133.895L99.5772 133.24L100.079 133.091L102.872 132.259L104.637 131.729L105.79 134.132L108.22 139.206L116.078 155.553L119.883 163.508L120.246 164.265L120.26 164.293L122.383 168.726V168.736L122.457 168.87L121.997 168.977L113.503 171.031L112.602 171.254L112.216 171.347L111.296 171.584L104.503 173.22L104.373 173.252L103.597 173.447C101.19 170.985 95.5068 165.427 88.639 158.806C87.403 157.611 86.1158 156.375 84.8008 155.13C83.681 154.029 82.5333 152.932 81.3669 151.803C77.9656 148.536 74.462 145.182 71.056 141.938C71.0095 141.882 70.9538 141.845 70.9119 141.785Z" fill="#616161"/>
<path d="M86.6316 137.088L97.3375 133.892L99.5726 133.236L100.074 133.088L102.867 132.256L104.6 135.299L107.314 140.104L116.073 155.54L119.182 161.056L120.473 163.347L123.461 168.611L124.228 169.973L123.312 170.21L105.697 174.606C105.516 174.35 105.097 173.885 104.489 173.207C101.993 170.544 96.2316 164.815 89.3499 158.077C88.1092 156.86 86.8454 155.615 85.5396 154.36C84.4105 153.254 83.2674 152.13 82.1197 151.019C78.8345 147.813 75.4564 144.551 72.1944 141.391L76.6273 140.067L78.3373 139.556L83.8715 137.902L86.6316 137.088Z" fill="#D66142"/>
<path d="M112.574 171.462L114.567 158.948L103.118 153.526L103.081 153.475L103.076 153.507L103.039 153.502L103.067 153.549L101.069 166.062L112.532 171.485L112.56 171.545V171.504L112.607 171.518L112.574 171.462Z" fill="#FFD675"/>
<path opacity="0.2" d="M113.215 172.578L116.059 157.793L102.314 152.519L102.277 152.444L102.272 152.495L102.235 152.482L102.272 152.542L101.013 165.948L113.164 172.588L113.201 172.657L113.206 172.616L113.252 172.643L113.215 172.578Z" fill="#616161"/>
<path opacity="0.2" d="M111.491 160.567L110.404 167.403L104.145 164.438L105.237 157.607L111.491 160.567Z" fill="#616161"/>
<path d="M101.868 176.807L101.013 174.051L87.8491 166.417L88.2302 175.418L101.868 176.807Z" fill="#EBEBEB"/>
<path d="M73.082 176.807L73.937 174.051L87.1056 166.417L86.7246 175.418L73.082 176.807Z" fill="#EBEBEB"/>
<path opacity="0.2" d="M88.5275 151.393L86.0787 148.796C86.9523 149.702 87.7887 150.562 88.5554 151.37C90.0144 152.88 91.2458 154.186 92.2076 155.218C93.1277 156.179 93.7968 156.89 94.1546 157.281L92.1937 155.222L88.5275 151.393Z" fill="#616161"/>
<path opacity="0.2" d="M85.3166 147.851C82.3799 145.082 79.4386 142.429 76.6413 140.073L78.3513 139.562L85.7906 147.382L89.0804 150.844L89.4429 151.225L92.7373 154.691L99.2845 161.563L99.4518 161.759C99.396 161.712 99.3403 161.638 99.2659 161.591C97.24 159.5 94.977 157.205 92.584 154.844C91.4688 153.752 90.3164 152.619 89.1594 151.503C89.0339 151.383 88.9085 151.262 88.7877 151.136C87.6353 150.03 86.4829 148.929 85.3166 147.851Z" fill="#616161"/>
<path opacity="0.2" d="M97.3376 133.891L99.5726 133.236L99.6888 133.483L102.021 137.892L104.624 142.813L107.5 148.287L110.971 154.439L103.801 143.631L100.804 139.119L98.0996 135.058L97.3376 133.891Z" fill="#616161"/>
<path opacity="0.2" d="M83.8809 137.901L86.6317 137.088L88.6809 140.178L90.5953 142.562L93.6156 146.307L95.0747 148.11L93.3647 146.548L89.8332 143.333L83.8809 137.901Z" fill="#616161"/>
<path opacity="0.2" d="M117.407 136.384L122.444 127.881V126.408L127.769 124.818L131.639 125.599L126.305 128.043L117.407 136.384Z" fill="#616161"/>
<path opacity="0.2" d="M38.0601 151.588L44.3377 149.71L55.6663 146.327L56.3865 146.123L57.0696 154.617L56.1403 156.843L54.6766 160.347L51.1776 168.72L48.8404 168.139L45.6202 167.372L45.4204 167.321L44.2123 167.014L41.6938 160.714L39.1799 154.394L38.4736 152.652L38.0601 151.588Z" fill="#616161"/>
<path d="M44.3376 149.71L55.6662 146.327L55.722 154.366L52.8317 160.151L52.5251 160.778L48.8402 168.139L45.6155 174.611C45.6155 174.611 37.4002 164.259 37.1492 164.454C37.0935 164.454 36.8565 163.236 36.5359 161.359C36.1641 159.082 35.6391 155.792 35.1186 152.465L37.7626 151.689L38.0553 151.592L44.3376 149.71Z" fill="#ABABAB"/>
<path opacity="0.2" d="M117.188 153.706L117.407 139.417L136.881 142.721C136.881 142.721 136.904 143.511 136.783 144.287L131.207 164.328L130.083 167.009L124.953 168.25L124.72 168.31L124.33 168.408L124.135 168.449L117.188 153.706Z" fill="#616161"/>
<path d="M117.407 137.774L135.798 139.419L140.5 139.856H140.514C140.514 139.856 140.514 139.879 140.5 139.93C140.5 139.94 140.5 139.94 140.5 139.954C140.445 140.321 140.236 141.705 139.948 143.638C138.921 150.539 136.82 164.456 136.593 164.456C136.332 164.26 128.126 174.613 128.126 174.613L128.071 174.483L124.957 168.257L118.02 154.372L117.407 137.774Z" fill="#ABABAB"/>
<path opacity="0.2" d="M35.1186 152.464L37.7626 151.688L38.0553 151.59L44.333 149.713L41.689 160.716L41.0524 163.402L45.6155 174.61C45.6155 174.61 37.4002 164.257 37.1492 164.452C37.0935 164.452 36.8565 163.235 36.5359 161.357C36.1641 159.076 35.6391 155.791 35.1186 152.464Z" fill="white"/>
<path opacity="0.2" d="M128.071 174.476L132.578 163.399L132.229 161.94L128.349 145.788L135.798 139.417L137.443 138.028C137.443 138.028 139.873 128.214 140.138 127.875C140.194 127.801 140.333 127.824 140.538 127.935V138.934L140.5 139.849H140.514C140.514 139.849 140.514 139.873 140.5 139.924C140.5 139.933 140.5 139.933 140.5 139.947L140.375 142.638L139.948 143.632C138.921 150.532 136.82 164.449 136.593 164.449C136.332 164.254 128.126 174.607 128.126 174.607H128.02L128.071 174.476Z" fill="white"/>
<path d="M137.178 161.509L134.279 153.865L139.46 146.849L137.178 161.509Z" fill="#D66142"/>
<path d="M35.0676 152.473L35.1187 152.464L37.7627 151.688L38.4736 152.649L39.3751 153.867L39.1799 154.392L36.5406 161.357L36.4848 161.511L35.0676 152.473Z" fill="#D66142"/>
<path opacity="0.2" d="M87.3379 136.88L86.6316 137.089L83.8808 137.902L78.3466 139.556L76.6367 140.067L72.2037 141.392L71.3116 141.661L70.9073 141.782L56.3818 146.122L55.6616 146.327L44.333 149.709L38.0554 151.587L37.7626 151.684L35.1187 152.46L35.0629 152.469L36.4802 161.507L36.5359 161.354C36.8565 163.231 37.0935 164.449 37.1493 164.449C37.4002 164.253 45.6155 174.606 45.6155 174.606L51.7677 168.849L61.8696 171.288L67.2969 172.617L73.3329 174.086L73.8765 174.211L73.0773 176.804L78.7741 179.35V181.2C74.6618 185.084 71.6554 191.752 70.8934 196.655C70.8376 196.989 70.7958 200.367 70.7633 204.099L69.8897 204.605L68.3609 220.334L72.2316 226.979L87.1428 236.379L87.3333 236.272L87.3379 136.88Z" fill="#616161"/>
</svg>
