<svg width="186" height="260" viewBox="0 0 186 260" fill="none" xmlns="http://www.w3.org/2000/svg">
<path d="M20.8828 259.452C9.9399 259.47 1.02295 250.739 1.00436 239.987L0.432889 20.1853C0.400362 9.36788 9.30796 0.581052 20.2927 0.599639L165.548 0.873748C176.476 0.892335 185.379 9.69316 185.379 20.4874V239.815C185.379 250.544 176.514 259.275 165.622 259.28L20.8828 259.452Z" fill="#C9C9C9"/>
<path d="M22.6903 258.909C11.8961 258.909 3.10461 250.159 3.10461 239.397V20.1164C3.10461 9.36403 11.8961 0.614258 22.6903 0.614258H165.831C176.625 0.614258 185.417 9.36403 185.417 20.1164V239.397C185.417 250.159 176.625 258.909 165.831 258.909H22.6903Z" fill="white"/>
<path d="M26.0685 24.3259C26.0685 25.7153 25.7618 27.2022 25.1437 28.8285C24.5257 30.4549 23.8845 31.6351 23.2247 32.3878C22.0398 33.7214 20.9199 34.8459 19.8791 35.7288C18.1598 37.2064 16.7844 37.9453 15.7714 37.9453C15.6785 37.9453 15.5809 37.9081 15.4833 37.8384C15.3951 37.7548 15.3114 37.6757 15.2324 37.5735C16.185 36.9834 17.1375 36.1144 18.1226 35.0224C19.1077 33.9072 20.0696 32.4157 21.0222 30.5478V30.176C20.9385 30.1388 20.8688 30.0924 20.7944 30.0692C20.037 30.4037 19.3401 30.7058 18.7035 30.9474C18.0715 31.1937 17.514 31.3191 17.0168 31.3191C16.0363 31.3191 15.1069 30.7755 14.238 29.6928C13.2343 28.4754 12.7372 26.9791 12.7372 25.2366C12.7372 23.5406 13.7548 21.7424 15.7993 19.8558C17.6719 18.1226 19.2285 17.249 20.4785 17.249C21.6402 17.249 22.8158 17.867 23.9868 19.0938C25.3761 20.5435 26.0685 22.2954 26.0685 24.3259ZM21.761 26.8026C21.761 25.1437 21.2545 23.7357 20.2276 22.6112C19.3215 21.6122 18.3921 21.1057 17.4442 21.1057C17.2258 21.1057 17.0678 21.2312 16.9888 21.5147C16.9145 21.7981 16.8773 22.1048 16.8773 22.4394C16.8773 23.8659 17.2397 25.0601 17.9507 26.008C18.8196 27.1604 19.6561 27.7412 20.4506 27.7412C20.841 27.7412 21.1383 27.6854 21.3288 27.5971C21.6123 27.4391 21.761 27.1836 21.761 26.8026Z" fill="#333333"/>
<path d="M163.684 237.608C163.684 236.228 163.991 234.732 164.604 233.115C165.217 231.498 165.863 230.318 166.523 229.565C167.713 228.222 168.833 227.097 169.869 226.215C171.588 224.746 172.954 223.998 173.976 223.998C174.069 223.998 174.172 224.035 174.26 224.105C174.353 224.189 174.441 224.268 174.52 224.361C173.568 224.969 172.606 225.82 171.621 226.93C170.635 228.027 169.678 229.528 168.73 231.405V231.777C168.809 231.795 168.884 231.851 168.958 231.879C169.72 231.544 170.412 231.252 171.049 230.996C171.681 230.75 172.243 230.634 172.731 230.634C173.712 230.634 174.646 231.168 175.514 232.26C176.518 233.487 177.025 234.964 177.025 236.697C177.025 238.403 175.993 240.201 173.953 242.088C172.085 243.83 170.524 244.694 169.274 244.694C168.103 244.694 166.937 244.076 165.766 242.854C164.372 241.405 163.684 239.653 163.684 237.608ZM167.996 235.141C167.996 236.809 168.503 238.208 169.52 239.341C170.426 240.34 171.36 240.847 172.294 240.847C172.527 240.847 172.68 240.703 172.75 240.438C172.838 240.154 172.87 239.848 172.87 239.513C172.87 238.078 172.508 236.874 171.788 235.949C170.924 234.797 170.092 234.207 169.293 234.207C168.898 234.207 168.6 234.253 168.414 234.351C168.131 234.499 167.996 234.769 167.996 235.141Z" fill="#333333"/>
<path d="M139.127 35.2192C139.298 34.4014 139.419 33.5836 139.41 32.7146C139.424 26.5346 134.392 21.5439 128.216 21.5439C122.036 21.5532 117.036 26.5346 117.032 32.7146C117.032 34.0482 117.264 35.3307 117.701 36.497C112.25 36.9152 107.966 41.4783 107.947 47.0357C107.966 52.8812 112.696 57.5882 118.537 57.6068C120.094 57.6068 125.614 55.8922 126.794 55.1906L119.629 67.4716L137.091 67.453L129.917 55.1906C131.353 56.0642 137.463 57.5882 138.941 57.5882C145.135 57.5882 150.144 52.5791 150.139 46.3897C150.148 40.284 145.218 35.3168 139.127 35.2192Z" fill="#333333"/>
<path opacity="0.2" d="M139.127 35.2192C139.298 34.4014 139.419 33.5836 139.41 32.7146C139.424 26.5346 134.392 21.5439 128.216 21.5439C128.207 21.5439 128.179 21.5533 128.16 21.5533V67.4671L137.091 67.4577L129.917 55.1951C131.353 56.0687 137.463 57.5929 138.941 57.5929C145.135 57.5929 150.144 52.5838 150.139 46.3944C150.148 40.2841 145.218 35.3168 139.127 35.2192Z" fill="#616161"/>
<path d="M104.913 120.747C105.085 119.929 105.206 119.111 105.192 118.242C105.211 112.062 100.173 107.062 94.0073 107.071C87.8226 107.081 82.8182 112.053 82.8135 118.242C82.8135 119.576 83.0598 120.849 83.4873 122.02C78.0368 122.447 73.7525 127.001 73.7386 132.558C73.7479 138.404 78.4782 143.12 84.3237 143.129C85.871 143.139 91.4006 141.415 92.5855 140.722L85.4203 153.004L102.873 152.976L95.7081 140.713C97.1439 141.587 103.25 143.111 104.732 143.111C110.926 143.12 115.93 138.102 115.926 131.912C115.926 125.802 111.009 120.835 104.913 120.747Z" fill="#333333"/>
<path opacity="0.2" d="M104.913 120.747C105.085 119.929 105.206 119.111 105.192 118.242C105.211 112.062 100.173 107.062 94.0073 107.071C93.9934 107.071 93.9749 107.071 93.9563 107.071V152.994L102.873 152.976L95.7081 140.713C97.1439 141.587 103.25 143.111 104.732 143.111C110.926 143.12 115.93 138.102 115.926 131.912C115.926 125.802 111.01 120.835 104.913 120.747Z" fill="#616161"/>
<path d="M139.127 91.7391C139.298 90.9306 139.419 90.1034 139.41 89.2438C139.424 83.0637 134.392 78.064 128.216 78.0733C122.036 78.0733 117.036 83.0637 117.032 89.2438C117.032 90.5774 117.264 91.86 117.701 93.0216C112.25 93.4491 107.966 98.0027 107.947 103.56C107.966 109.415 112.696 114.122 118.537 114.141C120.094 114.141 125.614 112.426 126.794 111.724L119.629 124.006L137.091 123.987L129.917 111.715C131.353 112.589 137.463 114.113 138.941 114.122C145.135 114.122 150.144 109.113 150.139 102.914C150.148 96.8133 145.218 91.846 139.127 91.7391Z" fill="#333333"/>
<path opacity="0.2" d="M139.127 91.7391C139.298 90.9306 139.419 90.1034 139.41 89.2438C139.424 83.0637 134.392 78.064 128.216 78.0733C128.207 78.0733 128.179 78.0733 128.16 78.0733V123.996L137.091 123.987L129.917 111.715C131.353 112.589 137.463 114.113 138.941 114.122C145.135 114.122 150.144 109.113 150.139 102.914C150.148 96.8133 145.218 91.846 139.127 91.7391Z" fill="#616161"/>
<path d="M49.9616 35.2192C49.799 34.4014 49.6735 33.5836 49.6874 32.7146C49.6781 26.5346 54.7058 21.5439 60.8812 21.5439C67.0613 21.5532 72.0658 26.5346 72.0658 32.7146C72.0658 34.0482 71.8288 35.3307 71.4013 36.497C76.8379 36.9152 81.1361 41.4783 81.1454 47.0357C81.1407 52.8812 76.4011 57.5882 70.5603 57.6068C69.0036 57.6068 63.4741 55.8922 62.2985 55.1906L69.459 67.4716L52.0062 67.453L59.1713 55.1906C57.7401 56.0642 51.639 57.5882 50.1567 57.5882C43.9627 57.5882 38.9536 52.5791 38.9629 46.3897C38.9536 40.284 43.8652 35.3168 49.9616 35.2192Z" fill="#333333"/>
<path opacity="0.2" d="M49.9616 35.2192C49.799 34.4014 49.6735 33.5836 49.6874 32.7146C49.6781 26.5346 54.7058 21.5439 60.8812 21.5439C60.8952 21.5439 60.9045 21.5533 60.9231 21.5533V67.4671L52.0062 67.4577L59.1713 55.1951C57.7401 56.0687 51.639 57.5929 50.1567 57.5929C43.9627 57.5929 38.9536 52.5838 38.9629 46.3944C38.9536 40.2841 43.8652 35.3168 49.9616 35.2192Z" fill="#616161"/>
<path d="M49.9616 91.7391C49.799 90.9306 49.6735 90.1034 49.6875 89.2438C49.6782 83.0637 54.7058 78.064 60.8813 78.0733C67.0613 78.0733 72.0658 83.0637 72.0658 89.2438C72.0658 90.5774 71.8289 91.86 71.4014 93.0216C76.838 93.4491 81.1361 98.0027 81.1454 103.56C81.1408 109.415 76.4012 114.122 70.5603 114.141C69.0037 114.141 63.4741 112.426 62.2985 111.724L69.4591 124.006L52.0062 123.987L59.1713 111.715C57.7401 112.589 51.6391 114.113 50.1568 114.122C43.9628 114.122 38.9537 109.113 38.963 102.914C38.9537 96.8133 43.8652 91.846 49.9616 91.7391Z" fill="#333333"/>
<path opacity="0.2" d="M49.9616 91.7391C49.799 90.9306 49.6735 90.1034 49.6875 89.2438C49.6782 83.0637 54.7059 78.064 60.8813 78.0733C60.8952 78.0733 60.9045 78.0733 60.9231 78.0733V123.996L52.0062 123.987L59.1713 111.715C57.7401 112.589 51.6391 114.113 50.1568 114.122C43.9628 114.122 38.9537 109.113 38.963 102.914C38.9537 96.8133 43.8652 91.846 49.9616 91.7391Z" fill="#616161"/>
<path d="M139.126 224.288C139.298 225.106 139.419 225.923 139.41 226.801C139.424 232.972 134.392 237.981 128.216 237.972C122.036 237.954 117.036 232.982 117.032 226.801C117.032 225.459 117.264 224.186 117.701 223.01C112.25 222.592 107.966 218.038 107.947 212.48C107.966 206.635 112.696 201.909 118.537 201.909C120.094 201.9 125.614 203.624 126.794 204.326L119.629 192.035L137.091 192.054L129.917 204.335C131.353 203.457 137.463 201.919 138.941 201.919C145.135 201.909 150.144 206.937 150.139 213.117C150.148 219.232 145.218 224.199 139.126 224.288Z" fill="#333333"/>
<path opacity="0.2" d="M139.127 224.288C139.298 225.106 139.419 225.923 139.41 226.802C139.424 232.972 134.392 237.982 128.216 237.972C128.207 237.972 128.179 237.963 128.16 237.963V192.04L137.091 192.049L129.917 204.33C131.353 203.452 137.463 201.914 138.941 201.914C145.135 201.905 150.144 206.933 150.139 213.113C150.148 219.232 145.218 224.2 139.127 224.288Z" fill="#616161"/>
<path d="M139.127 167.757C139.298 168.575 139.419 169.393 139.41 170.271C139.424 176.442 134.392 181.451 128.216 181.442C122.036 181.432 117.036 176.451 117.032 170.271C117.032 168.928 117.264 167.655 117.701 166.479C112.25 166.061 107.966 161.508 107.947 155.95C107.966 150.114 112.696 145.379 118.537 145.379C120.094 145.379 125.614 147.094 126.794 147.795L119.629 135.505L137.091 135.523L129.917 147.805C131.353 146.931 137.463 145.388 138.941 145.388C145.135 145.379 150.144 150.407 150.139 156.587C150.148 162.702 145.218 167.669 139.127 167.757Z" fill="#333333"/>
<path opacity="0.2" d="M139.127 167.758C139.298 168.575 139.419 169.393 139.41 170.272C139.424 176.442 134.392 181.451 128.216 181.442C128.207 181.442 128.179 181.442 128.16 181.442V135.51L137.091 135.519L129.917 147.8C131.353 146.927 137.463 145.384 138.941 145.384C145.135 145.375 150.144 150.402 150.139 156.582C150.148 162.702 145.218 167.669 139.127 167.758Z" fill="#616161"/>
<path d="M49.9616 224.288C49.799 225.106 49.6735 225.923 49.6874 226.801C49.6781 232.972 54.7058 237.981 60.8812 237.972C67.0613 237.954 72.0658 232.982 72.0658 226.801C72.0658 225.459 71.8288 224.186 71.4013 223.01C76.8379 222.592 81.1361 218.038 81.1454 212.48C81.1407 206.635 76.4011 201.909 70.5603 201.909C69.0036 201.9 63.4741 203.624 62.2985 204.326L69.459 192.035L52.0062 192.054L59.1713 204.335C57.7401 203.457 51.639 201.919 50.1567 201.919C43.9627 201.909 38.9536 206.937 38.9629 213.117C38.9536 219.232 43.8652 224.199 49.9616 224.288Z" fill="#333333"/>
<path opacity="0.2" d="M49.9616 224.288C49.799 225.106 49.6735 225.923 49.6874 226.802C49.6781 232.972 54.7058 237.982 60.8812 237.972C60.8952 237.972 60.9045 237.963 60.9231 237.963V192.04L52.0062 192.049L59.1713 204.33C57.7401 203.452 51.639 201.914 50.1567 201.914C43.9627 201.905 38.9536 206.933 38.9629 213.113C38.9536 219.232 43.8652 224.2 49.9616 224.288Z" fill="#616161"/>
<path d="M49.9616 167.757C49.799 168.575 49.6735 169.393 49.6875 170.271C49.6782 176.442 54.7058 181.451 60.8813 181.442C67.0613 181.432 72.0658 176.451 72.0658 170.271C72.0658 168.928 71.8289 167.655 71.4014 166.479C76.838 166.061 81.1361 161.508 81.1454 155.95C81.1408 150.114 76.4012 145.379 70.5603 145.379C69.0037 145.379 63.4741 147.094 62.2985 147.795L69.4591 135.505L52.0062 135.523L59.1713 147.805C57.7401 146.931 51.6391 145.388 50.1568 145.388C43.9628 145.379 38.9537 150.407 38.963 156.587C38.9537 162.702 43.8652 167.669 49.9616 167.757Z" fill="#333333"/>
<path opacity="0.2" d="M49.9616 167.758C49.799 168.575 49.6735 169.393 49.6875 170.272C49.6782 176.442 54.7059 181.451 60.8813 181.442C60.8952 181.442 60.9045 181.442 60.9231 181.442V135.51L52.0062 135.519L59.1713 147.8C57.7401 146.927 51.6391 145.384 50.1568 145.384C43.9628 145.375 38.9537 150.402 38.963 156.582C38.9537 162.702 43.8652 167.669 49.9616 167.758Z" fill="#616161"/>
<path d="M20.4507 50.8442C20.4878 50.6537 20.5203 50.4726 20.5203 50.2728C20.5203 48.8648 19.3726 47.7217 17.96 47.7217C16.5567 47.7217 15.409 48.8648 15.409 50.2728C15.409 50.5701 15.4648 50.8722 15.5624 51.1324C14.317 51.2346 13.3412 52.2662 13.3366 53.5394C13.3366 54.873 14.4146 55.9463 15.7529 55.9556C16.106 55.9556 17.3699 55.5653 17.6301 55.4027L15.9945 58.214L19.9813 58.2046L18.3503 55.4027C18.6756 55.6025 20.065 55.9464 20.4088 55.9464C21.8168 55.9464 22.9598 54.8032 22.9598 53.3953C22.9645 51.9967 21.8447 50.8721 20.4507 50.8442Z" fill="#333333"/>
<path opacity="0.2" d="M20.4507 50.8442C20.4878 50.6537 20.5204 50.4726 20.5204 50.2728C20.5204 48.8648 19.3726 47.7217 17.96 47.7217H17.9461V58.214L19.986 58.2046L18.355 55.4027C18.6803 55.6025 20.0696 55.9464 20.4134 55.9464C21.8214 55.9464 22.9645 54.8032 22.9645 53.3953C22.9645 51.9967 21.8447 50.8721 20.4507 50.8442Z" fill="#616161"/>
<path d="M173.015 214.923C173.052 215.123 173.075 215.295 173.075 215.494C173.075 216.912 171.927 218.055 170.519 218.055C169.111 218.055 167.964 216.912 167.964 215.494C167.964 215.197 168.029 214.904 168.117 214.639C166.881 214.542 165.901 213.496 165.891 212.232C165.891 210.899 166.974 209.816 168.308 209.816C168.665 209.816 169.92 210.206 170.189 210.36L168.554 207.562H172.541L170.905 210.364C171.23 210.155 172.62 209.812 172.963 209.812C174.381 209.812 175.519 210.955 175.519 212.362C175.524 213.766 174.404 214.904 173.015 214.923Z" fill="#333333"/>
<path opacity="0.2" d="M173.015 214.922C173.052 215.122 173.075 215.294 173.075 215.494C173.075 216.911 171.927 218.054 170.519 218.054H170.51V207.571H172.55L170.914 210.373C171.24 210.164 172.629 209.82 172.973 209.82C174.39 209.82 175.528 210.963 175.528 212.371C175.524 213.765 174.404 214.904 173.015 214.922Z" fill="#616161"/>
</svg>
