<svg width="641" height="281" viewBox="0 0 641 281" fill="none" xmlns="http://www.w3.org/2000/svg">
<rect y="77.1084" width="166.658" height="229.989" rx="11.1106" transform="rotate(-27.5598 0 77.1084)" fill="#302F2F"/>
<rect x="11.9922" y="80.875" width="148.882" height="213.323" rx="5.55528" transform="rotate(-27.5598 11.9922 80.875)" fill="#D9D9D9"/>
<path fill-rule="evenodd" clip-rule="evenodd" d="M156.373 128.341L156.373 128.341L143.273 170.9L96.4585 156.49C84.7063 152.872 78.1117 140.413 81.7292 128.661C85.3466 116.908 97.8062 110.314 109.558 113.931L113.814 115.241L115.124 110.984C118.742 99.2323 131.201 92.6377 142.953 96.2552C154.706 99.8726 161.3 112.332 157.683 124.084L156.373 128.341Z" fill="#CD0000"/>
<path d="M53.6028 82.7598L61.5386 98.0438C62.2274 99.3705 62.7533 100.529 63.1161 101.52C63.4921 102.504 63.7291 103.577 63.8271 104.739C63.9973 106.688 63.5537 108.51 62.4964 110.205C61.4322 111.886 59.8055 113.295 57.6164 114.431C55.6396 115.458 53.8259 116.004 52.1754 116.069C50.5382 116.127 48.9532 115.67 47.4206 114.697C46.6103 114.175 45.821 113.498 45.0528 112.667C44.2846 111.837 43.6732 110.983 43.2185 110.108C42.7363 109.179 42.6265 108.335 42.889 107.575C43.1516 106.816 43.6875 106.226 44.4968 105.806C45.2796 105.399 45.9871 105.318 46.6193 105.563C47.2515 105.807 47.9218 106.352 48.6301 107.197C49.386 108.101 50.0352 108.8 50.5776 109.293C51.1201 109.787 51.7703 110.114 52.5283 110.277C53.2863 110.439 54.1562 110.265 55.138 109.755C57.7517 108.398 58.0631 105.803 56.0723 101.968L47.6922 85.8287C47.0722 84.6347 46.866 83.6048 47.0734 82.7391C47.2941 81.8665 47.8555 81.196 48.7577 80.7276C49.6732 80.2523 50.5512 80.1754 51.3919 80.4968C52.2459 80.8114 52.9828 81.5658 53.6028 82.7598Z" fill="#CD0000"/>
<rect x="144.437" y="33.3315" width="166.658" height="229.989" rx="11.1106" fill="#302F2F"/>
<rect x="153.326" y="42.2202" width="148.882" height="213.323" rx="5.55528" fill="#D9D9D9"/>
<path d="M192.392 89.6059L190.822 85.4799H177.458L175.888 89.6956C175.275 91.34 174.752 92.4537 174.318 93.0367C173.885 93.6048 173.175 93.8888 172.188 93.8888C171.351 93.8888 170.611 93.5823 169.968 92.9694C169.325 92.3565 169.004 91.6614 169.004 90.884C169.004 90.4356 169.079 89.9721 169.228 89.4938C169.378 89.0154 169.624 88.3502 169.968 87.4981L178.377 66.1507C178.616 65.5378 178.9 64.8053 179.229 63.9532C179.573 63.0862 179.932 62.3686 180.305 61.8005C180.694 61.2325 181.195 60.7765 181.808 60.4327C182.436 60.0739 183.206 59.8945 184.117 59.8945C185.044 59.8945 185.814 60.0739 186.427 60.4327C187.055 60.7765 187.556 61.225 187.929 61.7781C188.318 62.3312 188.64 62.9292 188.894 63.572C189.163 64.1999 189.499 65.0445 189.903 66.1059L198.491 87.3187C199.164 88.9332 199.5 90.1067 199.5 90.8392C199.5 91.6016 199.179 92.3042 198.536 92.947C197.908 93.5749 197.146 93.8888 196.249 93.8888C195.725 93.8888 195.277 93.7916 194.903 93.5973C194.53 93.4179 194.216 93.1712 193.961 92.8573C193.707 92.5284 193.431 92.0351 193.132 91.3774C192.848 90.7046 192.601 90.1142 192.392 89.6059ZM179.207 80.4795H189.028L184.073 66.9131L179.207 80.4795Z" fill="#302F2F"/>
<path d="M262.031 204.822L263.601 208.948L276.965 208.948L278.535 204.732C279.148 203.088 279.671 201.974 280.105 201.391C280.538 200.823 281.248 200.539 282.235 200.539C283.072 200.539 283.812 200.845 284.455 201.458C285.098 202.071 285.419 202.766 285.419 203.544C285.419 203.992 285.344 204.456 285.195 204.934C285.045 205.412 284.799 206.078 284.455 206.93L276.046 228.277C275.807 228.89 275.523 229.622 275.194 230.475C274.85 231.342 274.491 232.059 274.117 232.627C273.729 233.195 273.228 233.651 272.615 233.995C271.987 234.354 271.217 234.533 270.305 234.533C269.379 234.533 268.609 234.354 267.996 233.995C267.368 233.651 266.867 233.203 266.493 232.65C266.105 232.096 265.783 231.499 265.529 230.856C265.26 230.228 264.924 229.383 264.52 228.322L255.932 207.109C255.259 205.495 254.923 204.321 254.923 203.589C254.923 202.826 255.244 202.124 255.887 201.481C256.515 200.853 257.277 200.539 258.174 200.539C258.697 200.539 259.146 200.636 259.52 200.83C259.893 201.01 260.207 201.256 260.461 201.57C260.716 201.899 260.992 202.393 261.291 203.05C261.575 203.723 261.822 204.314 262.031 204.822ZM275.216 213.948L265.395 213.948L270.35 227.515L275.216 213.948Z" fill="#302F2F"/>
<path fill-rule="evenodd" clip-rule="evenodd" d="M196.662 130.37L196.663 130.371L193.513 133.52C184.818 142.215 184.818 156.312 193.513 165.007C201.408 172.902 213.756 173.628 222.471 167.187C223.465 171.391 223.502 176.166 222.366 181.025C220.656 188.344 216.648 194.313 211.73 197.768H243.962C239.044 194.313 235.037 188.344 233.327 181.025C232.156 176.015 232.231 171.095 233.317 166.797C242.054 173.653 254.735 173.056 262.785 165.006C271.48 156.311 271.48 142.214 262.785 133.519L228.149 98.8833L196.662 130.37Z" fill="#302F2F"/>
<path fill-rule="evenodd" clip-rule="evenodd" d="M491.217 89.5676C498.68 84.7241 507.874 82.7221 517.869 82.7221C519.179 82.7221 520.477 82.7552 521.762 82.8222C524.886 82.9851 527.936 83.3484 530.905 83.9237C532.556 84.2436 534.182 84.6291 535.781 85.0822M532.227 69.3862C527.507 68.5655 522.708 68.1846 517.869 68.1846C507.497 68.1846 496.774 70.0184 487.225 75.064L485.662 69.3862H337.171V69.4194C336.42 69.3969 335.674 69.3862 334.933 69.3862H270.611V186.013H321.201V187.209H302.659V240.496L313.653 247.905C319.177 251.627 325.229 254.011 331.161 255.559L331.327 255.602L331.49 255.642C337.545 257.134 343.735 257.825 349.985 257.825C354.325 257.825 358.757 257.47 363.149 256.623H471.467C476.04 257.461 480.686 257.825 485.305 257.825C490.105 257.825 494.868 257.445 499.553 256.623H607.456V192.703H607.027V186.013H640.192V122.092H639.762V69.3862H532.227ZM623.865 118.769H625.225V83.9237H536.3V85.2294C536.132 85.1814 535.965 85.1338 535.797 85.0866M454.421 215.979C453.889 214.68 453.429 213.298 453.042 211.835C453.024 211.769 453.007 211.703 452.99 211.637C452.969 211.557 452.949 211.477 452.929 211.397L452.892 211.252L452.857 211.108C452.556 209.875 452.304 208.585 452.102 207.24L452.067 207.005C452.079 207.084 452.09 207.162 452.102 207.24C452.304 208.585 452.556 209.875 452.857 211.108C452.868 211.156 452.88 211.204 452.892 211.252C452.904 211.3 452.916 211.349 452.929 211.397C452.966 211.544 453.003 211.69 453.042 211.835C453.429 213.298 453.889 214.68 454.421 215.979ZM351.709 86.8966C347.242 85.0351 342.301 84.1572 337.171 83.965C336.429 83.9372 335.683 83.9237 334.933 83.9237H285.148V118.769H289.44V136.63H285.148V171.475H334.933C335.202 171.475 335.47 171.474 335.738 171.47V189.38H343.464V201.746H317.197V232.762L321.777 235.849C325.614 238.435 330.056 240.246 334.831 241.492L334.899 241.51L334.968 241.527C339.794 242.716 344.81 243.288 349.985 243.288C353.369 243.288 356.667 243.026 359.831 242.455C360.448 242.344 361.06 242.221 361.666 242.086C366.263 241.062 370.547 239.345 374.368 236.784V242.086H462.263V238.51C465.566 240.131 469.119 241.307 472.868 242.086C474.157 242.354 475.468 242.575 476.801 242.751C479.552 243.115 482.393 243.288 485.305 243.288C486.556 243.288 487.797 243.257 489.026 243.194C492.168 243.035 495.236 242.67 498.22 242.086C499.872 241.762 501.498 241.372 503.098 240.913C503.188 240.887 503.278 240.861 503.368 240.835C503.433 240.817 503.499 240.798 503.564 240.779V242.086H592.918V207.24H584.375L576.726 193.365L581.548 189.38H592.489V171.475H625.654V136.63H617.111L609.462 122.754L614.284 118.769H623.865M462.263 226.368C462.26 226.365 462.256 226.362 462.252 226.359L462.263 226.368ZM474.585 83.9237H427.515L415.182 128.732H400.804V118.769H408.702V83.9237H351.709V86.8966M446.514 171.475L446.848 172.689C447.075 172.28 447.31 171.875 447.552 171.475H446.514ZM474.723 84.4236L479.583 102.08C481.105 99.3391 482.961 96.804 485.188 94.5141C487.037 92.6131 489.054 90.9711 491.217 89.5676M474.585 83.9237L474.723 84.4236ZM323.86 132.249V147.014L334.07 137.395C334.025 135.879 333.684 134.72 333.047 133.915L333.035 133.9C332.957 133.802 332.874 133.71 332.787 133.622C332.405 133.186 331.926 132.854 331.349 132.625C331.321 132.614 331.292 132.603 331.263 132.592C330.68 132.375 330 132.261 329.223 132.25C329.181 132.249 329.138 132.249 329.096 132.249H323.86Z" fill="#302F2F"/>
<path d="M351.388 82.1735H548.683V121.632H351.388V82.1735Z" fill="#302F2F"/>
<path d="M578.242 217.624H582.534V231.702H559.1L546.224 205.091L542.275 208.353V217.624H546.395V231.702H513.948V217.624H518.24V178.996H513.948V164.918H546.395V178.996H542.275V190.327L555.58 178.996H550.172V164.918H582.105V178.996H577.813L563.478 190.842L578.242 217.624Z" fill="#302F2F"/>
<path fill-rule="evenodd" clip-rule="evenodd" d="M584.611 215.547V233.779H557.798L545.507 208.378L544.352 209.332V215.547H548.472V233.779H511.871V215.547H516.163V181.073H511.871V162.841H584.182V181.073H578.56L566.127 191.347L579.469 215.547H584.611ZM578.242 217.624L563.478 190.842L577.813 178.996H582.105V164.918H550.173V178.996H555.581L542.275 190.327V178.996H546.396V164.918H513.948V178.996H518.24V217.624H513.948V231.702H546.396V217.624H542.275V208.353L546.224 205.091L559.1 231.702H582.534V217.624H578.242ZM544.352 181.073V185.83L549.939 181.073H544.352Z" fill="#302F2F"/>
<path d="M485.305 232.904C474.489 232.904 466.134 230.157 460.239 224.663C454.402 219.169 451.483 210.385 451.483 198.31C451.483 175.248 462.7 163.716 485.133 163.716C490.569 163.716 495.605 164.374 500.241 165.691C504.933 167.007 508.424 168.466 510.713 170.069V191.529H490.112V185.348C490.112 183.173 489.625 181.571 488.652 180.541C487.679 179.511 486.22 178.996 484.274 178.996C482.329 178.996 480.869 179.511 479.897 180.541C478.924 181.571 478.437 183.173 478.437 185.348V211.272C478.437 213.447 478.924 215.049 479.897 216.079C480.869 217.109 482.329 217.624 484.274 217.624C486.22 217.624 487.679 217.109 488.652 216.079C489.625 215.049 490.112 213.447 490.112 211.272V204.319H510.713V226.552C508.367 228.154 504.876 229.613 500.241 230.929C495.663 232.246 490.684 232.904 485.305 232.904Z" fill="#302F2F"/>
<path fill-rule="evenodd" clip-rule="evenodd" d="M458.823 226.182L458.816 226.176C452.39 220.128 449.407 210.669 449.407 198.31C449.407 186.473 452.285 177.211 458.407 170.917C464.54 164.612 473.582 161.64 485.133 161.64C490.736 161.64 495.964 162.318 500.805 163.692C505.58 165.031 509.332 166.567 511.904 168.367L512.79 168.987V193.606H488.035V185.348C488.035 183.429 487.598 182.45 487.143 181.967C486.691 181.489 485.869 181.073 484.275 181.073C482.68 181.073 481.858 181.489 481.407 181.967C480.951 182.45 480.514 183.429 480.514 185.348V211.272C480.514 213.192 480.951 214.171 481.407 214.653C481.858 215.131 482.68 215.547 484.275 215.547C485.869 215.547 486.691 215.131 487.143 214.653C487.598 214.171 488.035 213.192 488.035 211.272V202.242H512.79V227.648L511.885 228.267C509.27 230.052 505.533 231.585 500.812 232.926C496.026 234.302 490.853 234.981 485.305 234.981C474.147 234.981 465.218 232.143 458.823 226.182ZM500.241 165.691C495.606 164.375 490.57 163.716 485.133 163.716C462.7 163.716 451.484 175.248 451.484 198.31C451.484 210.385 454.402 219.169 460.239 224.663C466.134 230.157 474.489 232.904 485.305 232.904C490.684 232.904 495.663 232.246 500.241 230.93C504.876 229.613 508.367 228.154 510.713 226.552V204.319H490.112V211.272C490.112 213.447 489.625 215.049 488.652 216.079C487.68 217.109 486.22 217.624 484.275 217.624C482.329 217.624 480.87 217.109 479.897 216.079C478.924 215.049 478.437 213.447 478.437 211.272V185.348C478.437 183.174 478.924 181.571 479.897 180.541C480.87 179.511 482.329 178.996 484.275 178.996C486.22 178.996 487.68 179.511 488.652 180.541C489.625 181.571 490.112 183.174 490.112 185.348V191.529H510.713V170.069C508.424 168.466 504.934 167.007 500.241 165.691Z" fill="#302F2F"/>
<path d="M448.445 217.624H451.879V231.702H418.229V217.624H423.38L422.006 210.757H410.332L408.958 217.624H414.109V231.702H384.751V217.624H388.185L402.692 164.918H433.938L448.445 217.624ZM412.22 201.658H420.118L416.598 184.575H415.74L412.22 201.658Z" fill="#302F2F"/>
<path fill-rule="evenodd" clip-rule="evenodd" d="M453.956 215.547V233.779H382.675V215.547H386.603L401.11 162.841H435.521L450.028 215.547H453.956ZM420.847 215.547L420.304 212.834H412.035L411.492 215.547H420.847ZM408.959 217.624H414.109V231.702H384.752V217.624H388.185L402.692 164.918H433.938L448.445 217.624H451.879V231.702H418.229V217.624H423.38L422.006 210.757H410.332L408.959 217.624ZM420.118 201.658L416.598 184.576H415.74L412.221 201.658H420.118ZM414.769 199.581H417.57L416.169 192.784L414.769 199.581Z" fill="#302F2F"/>
<path d="M349.984 232.904C345.578 232.904 341.4 232.417 337.452 231.444C333.503 230.414 330.213 229.012 327.58 227.238V212.13H344.748V212.989C344.748 216.079 346.236 217.624 349.212 217.624C350.757 217.624 351.902 217.223 352.645 216.422C353.447 215.564 353.847 214.248 353.847 212.474V178.996H346.122V164.918H382.175V178.996H377.883V207.838C377.883 216.251 375.422 222.546 370.5 226.723C365.579 230.843 358.74 232.904 349.984 232.904Z" fill="#302F2F"/>
<path fill-rule="evenodd" clip-rule="evenodd" d="M336.928 233.454C332.814 232.381 329.293 230.897 326.42 228.96L325.503 228.343V210.054H346.825V212.989C346.825 214.233 347.126 214.781 347.36 215.025C347.581 215.254 348.065 215.547 349.212 215.547C350.424 215.547 350.913 215.236 351.124 215.009L351.127 215.005C351.424 214.688 351.771 213.984 351.771 212.474V181.073H344.045V162.841H384.252V181.073H379.96V207.838C379.96 216.663 377.363 223.622 371.844 228.307L371.834 228.316C366.422 232.846 359.05 234.981 349.985 234.981C345.425 234.981 341.079 234.477 336.955 233.461L336.928 233.454ZM377.883 178.996H382.175V164.918H346.122V178.996H353.847V212.474C353.847 214.248 353.447 215.564 352.646 216.422C351.902 217.224 350.757 217.624 349.212 217.624C346.236 217.624 344.748 216.079 344.748 212.989V212.13H327.58V227.238C330.213 229.012 333.503 230.414 337.452 231.444C341.401 232.417 345.578 232.904 349.985 232.904C358.74 232.904 365.579 230.844 370.5 226.723C375.422 222.546 377.883 216.251 377.883 207.838V178.996Z" fill="#302F2F"/>
<path d="M610.977 147.014H615.269V161.092H591.835L578.959 134.481L575.01 137.743V147.014H579.13V161.092H546.683V147.014H550.975V108.385H546.683V94.3076H579.13V108.385H575.01V119.716L588.315 108.385H582.907V94.3076H614.84V108.385H610.548L596.213 120.231L610.977 147.014Z" fill="#302F2F"/>
<path fill-rule="evenodd" clip-rule="evenodd" d="M617.347 144.937V163.168H590.534L578.243 137.767L577.088 138.721V144.937H581.208V163.168H544.607V144.937H548.899V110.462H544.607V92.231H616.918V110.462H611.296L598.863 120.736L612.205 144.937H617.347ZM610.978 147.014L596.214 120.232L610.549 108.386H614.841V94.3077H582.908V108.386H588.316L575.011 119.717V108.386H579.131V94.3077H546.684V108.386H550.976V147.014H546.684V161.092H579.131V147.014H575.011V137.743L578.96 134.481L591.836 161.092H615.27V147.014H610.978ZM577.088 110.462V115.22L582.675 110.462H577.088Z" fill="#302F2F"/>
<path d="M518.04 162.293C507.224 162.293 498.869 159.546 492.974 154.053C487.137 148.559 484.219 139.775 484.219 127.7C484.219 104.637 495.435 93.106 517.868 93.106C523.305 93.106 528.341 93.7641 532.976 95.0803C537.669 96.3965 541.16 97.8558 543.449 99.4582V120.918H522.847V114.738C522.847 112.563 522.361 110.961 521.388 109.931C520.415 108.901 518.956 108.386 517.01 108.386C515.064 108.386 513.605 108.901 512.632 109.931C511.659 110.961 511.173 112.563 511.173 114.738V140.662C511.173 142.836 511.659 144.439 512.632 145.469C513.605 146.499 515.064 147.014 517.01 147.014C518.956 147.014 520.415 146.499 521.388 145.469C522.361 144.439 522.847 142.836 522.847 140.662V133.709H543.449V155.941C541.102 157.544 537.612 159.003 532.976 160.319C528.398 161.635 523.419 162.293 518.04 162.293Z" fill="#302F2F"/>
<path fill-rule="evenodd" clip-rule="evenodd" d="M491.558 155.572L491.551 155.565C485.125 149.517 482.142 140.058 482.142 127.699C482.142 115.862 485.02 106.6 491.142 100.306C497.275 94.0011 506.316 91.0288 517.868 91.0288C523.471 91.0288 528.699 91.707 533.54 93.0812C538.315 94.4207 542.067 95.956 544.639 97.7564L545.525 98.3765V122.995H520.77V114.737C520.77 112.818 520.333 111.839 519.877 111.356C519.426 110.878 518.604 110.462 517.009 110.462C515.415 110.462 514.593 110.878 514.141 111.356C513.686 111.839 513.249 112.818 513.249 114.737V140.661C513.249 142.581 513.686 143.56 514.141 144.042C514.593 144.52 515.415 144.937 517.009 144.937C518.604 144.937 519.426 144.52 519.877 144.042C520.333 143.56 520.77 142.581 520.77 140.661V131.631H545.525V157.037L544.62 157.656C542.005 159.442 538.268 160.975 533.547 162.315C528.761 163.691 523.587 164.37 518.04 164.37C506.882 164.37 497.953 161.532 491.558 155.572ZM532.976 95.0799C528.34 93.7637 523.304 93.1056 517.868 93.1056C495.435 93.1056 484.218 104.637 484.218 127.699C484.218 139.774 487.137 148.559 492.974 154.052C498.869 159.546 507.224 162.293 518.04 162.293C523.419 162.293 528.398 161.635 532.976 160.319C537.611 159.002 541.102 157.543 543.448 155.941V133.708H522.847V140.661C522.847 142.836 522.36 144.438 521.387 145.468C520.414 146.498 518.955 147.013 517.009 147.013C515.064 147.013 513.604 146.498 512.632 145.468C511.659 144.438 511.172 142.836 511.172 140.661V114.737C511.172 112.563 511.659 110.96 512.632 109.93C513.604 108.9 515.064 108.385 517.009 108.385C518.955 108.385 520.414 108.9 521.387 109.93C522.36 110.96 522.847 112.563 522.847 114.737V120.918H543.448V99.4578C541.159 97.8554 537.668 96.3961 532.976 95.0799Z" fill="#302F2F"/>
<path d="M481.18 147.014H484.614V161.092H450.965V147.014H456.115L454.742 140.146H443.067L441.694 147.014H446.844V161.092H417.487V147.014H420.92L435.427 94.3076H466.673L481.18 147.014ZM444.956 131.047H452.853L449.334 113.965H448.475L444.956 131.047Z" fill="#302F2F"/>
<path fill-rule="evenodd" clip-rule="evenodd" d="M486.691 144.937V163.168H415.41V144.937H419.338L433.845 92.231H468.256L482.763 144.937H486.691ZM453.582 144.937L453.039 142.223H444.77L444.227 144.937H453.582ZM441.694 147.014H446.844V161.092H417.487V147.014H420.921L435.428 94.3077H466.674L481.181 147.014H484.614V161.092H450.965V147.014H456.115L454.742 140.147H443.067L441.694 147.014ZM452.853 131.047L449.334 113.965H448.475L444.956 131.047H452.853ZM447.504 128.971H450.305L448.905 122.174L447.504 128.971Z" fill="#302F2F"/>
<path d="M362.092 161.092V147.014H366.384V108.385H362.092V94.3076H398.317V108.385H390.42V147.014H398.145V139.116H415.228V161.092H362.092Z" fill="#302F2F"/>
<path fill-rule="evenodd" clip-rule="evenodd" d="M360.016 163.168V144.937H364.308V110.462H360.016V92.231H400.394V110.462H392.497V144.937H396.069V137.04H417.304V163.168H360.016ZM398.145 147.014H390.42V108.386H398.317V94.3077H362.092V108.386H366.384V147.014H362.092V161.092H415.228V139.116H398.145V147.014Z" fill="#302F2F"/>
<path d="M295.532 147.014H299.824V108.385H295.532V94.3076H334.933C342.086 94.3076 347.666 95.7669 351.672 98.6855C355.678 101.604 357.681 105.782 357.681 111.218C357.681 114.595 356.88 117.456 355.277 119.802C353.675 122.091 351.786 123.837 349.612 125.039C347.494 126.183 345.434 126.956 343.431 127.356V128.215C347.494 128.615 351.157 129.903 354.419 132.077C357.681 134.252 359.312 138.143 359.312 143.752C359.312 149.761 357.051 154.167 352.53 156.971C348.009 159.718 342.144 161.092 334.933 161.092H295.532V147.014ZM328.495 122.463C330.155 122.463 331.385 122.034 332.186 121.176C333.045 120.26 333.474 118.858 333.474 116.97V113.879C333.474 111.991 333.045 110.617 332.186 109.759C331.385 108.843 330.155 108.385 328.495 108.385H323.86V122.463H328.495ZM329.096 147.014C330.755 147.014 331.986 146.584 332.787 145.726C333.645 144.81 334.075 143.408 334.075 141.52V137.743C334.075 135.854 333.645 134.481 332.787 133.623C331.986 132.707 330.755 132.249 329.096 132.249H323.86V147.014H329.096Z" fill="#302F2F"/>
<path fill-rule="evenodd" clip-rule="evenodd" d="M293.456 144.937H297.748V110.462H293.456V92.231H334.933C342.339 92.231 348.408 93.7377 352.895 97.0071C357.495 100.359 359.758 105.193 359.758 111.218C359.758 114.932 358.872 118.221 356.992 120.974L356.979 120.993C355.218 123.509 353.101 125.483 350.616 126.856L350.599 126.866C350.253 127.053 349.908 127.231 349.562 127.401C351.683 128.112 353.688 129.094 355.571 130.35C359.635 133.059 361.389 137.772 361.389 143.752C361.389 150.369 358.845 155.499 353.625 158.736L353.609 158.746C348.665 161.75 342.391 163.168 334.933 163.168H293.456V144.937ZM346.448 128.691C345.524 128.488 344.577 128.335 343.607 128.233C343.548 128.226 343.49 128.221 343.431 128.215V127.356C343.46 127.351 343.489 127.345 343.518 127.339C344.435 127.151 345.365 126.884 346.306 126.54C347.392 126.143 348.494 125.643 349.612 125.039C351.786 123.837 353.675 122.091 355.277 119.802C356.88 117.456 357.681 114.595 357.681 111.218C357.681 105.782 355.678 101.604 351.672 98.6856C347.666 95.767 342.087 94.3077 334.933 94.3077H295.532V108.386H299.824V147.014H295.532V161.092H334.933C342.144 161.092 348.01 159.718 352.53 156.971C357.051 154.167 359.312 149.761 359.312 143.752C359.312 138.144 357.681 134.252 354.419 132.078C351.985 130.455 349.328 129.326 346.448 128.691ZM330.668 119.759L330.671 119.755C331.023 119.38 331.397 118.591 331.397 116.97V113.879C331.397 112.244 331.017 111.527 330.718 111.228L330.669 111.179L330.623 111.127C330.345 110.809 329.784 110.462 328.495 110.462H325.937V120.387H328.495C329.822 120.387 330.399 120.047 330.668 119.759ZM323.86 122.463V108.386H328.495C330.155 108.386 331.385 108.843 332.186 109.759C333.045 110.617 333.474 111.991 333.474 113.879V116.97C333.474 118.858 333.045 120.26 332.186 121.176C331.385 122.034 330.155 122.463 328.495 122.463H323.86ZM331.269 144.309L331.272 144.306C331.624 143.93 331.998 143.141 331.998 141.52V137.743C331.998 136.107 331.618 135.391 331.319 135.091L331.27 135.042L331.224 134.99C330.946 134.673 330.385 134.326 329.096 134.326H325.937V144.937H329.096C330.423 144.937 331 144.597 331.269 144.309ZM323.86 147.014V132.249H329.096C330.756 132.249 331.986 132.707 332.787 133.623C333.646 134.481 334.075 135.855 334.075 137.743V141.52C334.075 143.409 333.646 144.811 332.787 145.726C331.986 146.585 330.756 147.014 329.096 147.014H323.86Z" fill="#302F2F"/>
<path fill-rule="evenodd" clip-rule="evenodd" d="M513.947 162.154C515.269 162.247 516.633 162.294 518.039 162.294C523.418 162.294 528.397 161.635 532.975 160.319C535.618 159.569 537.889 158.772 539.788 157.928C541.219 157.292 542.439 156.63 543.448 155.941V154.535H546.682V161.092H579.13V154.535H588.661L591.834 161.092H592.488V189.38H581.547L576.725 193.365L584.374 207.241H592.917V242.086H503.563V229.895C506.581 228.86 508.965 227.746 510.712 226.552V204.319H507.855V191.529H510.712V170.069C509.001 168.871 506.618 167.753 503.563 166.715V160.201C506.68 161.236 510.141 161.887 513.947 162.154ZM518.239 217.625H513.947V231.702H546.395V217.625H542.274V208.354L546.223 205.092L559.099 231.702H582.533V217.625H578.241L563.477 190.842L577.812 178.996H582.104V164.919H550.172V178.996H555.58L542.274 190.327V178.996H546.395V164.919H513.947V178.996H518.239V217.625Z" fill="#D9D9D9"/>
<path fill-rule="evenodd" clip-rule="evenodd" d="M457.141 161.092C455.48 162.281 453.913 163.622 452.451 165.125C445.631 172.137 442.291 181.448 441.37 191.921L448.444 217.625H451.878V230.991C452.279 231.411 452.694 231.823 453.121 232.225L453.14 232.243L453.158 232.26C461.554 240.085 472.777 243.288 485.303 243.288C491.526 243.288 497.478 242.527 503.097 240.913C508.161 239.474 512.88 237.646 516.568 235.127L521.096 232.035V231.703H513.947V217.625H518.239V178.997H513.947V164.919H521.096V164.663L517.711 162.293C517.193 162.29 516.681 162.281 516.175 162.266C510.795 162.102 506.057 161.222 501.962 159.624C501.956 159.622 501.95 159.619 501.944 159.617C498.498 158.27 495.508 156.416 492.973 154.053C492.854 153.941 492.737 153.828 492.62 153.713C490.172 153.458 487.674 153.333 485.132 153.333C484.959 153.333 484.786 153.334 484.613 153.335V161.092H457.141ZM500.24 165.691C495.604 164.375 490.568 163.717 485.132 163.717C462.699 163.717 451.482 175.248 451.482 198.311C451.482 210.386 454.401 219.17 460.238 224.664C466.132 230.157 474.488 232.904 485.303 232.904C490.683 232.904 495.662 232.246 500.24 230.93C504.875 229.614 508.366 228.155 510.712 226.552V204.319H490.111V211.273C490.111 213.447 489.624 215.05 488.651 216.08C487.678 217.11 486.219 217.625 484.273 217.625C482.328 217.625 480.868 217.11 479.896 216.08C478.923 215.05 478.436 213.447 478.436 211.273V185.349C478.436 183.174 478.923 181.572 479.896 180.542C480.868 179.512 482.328 178.997 484.273 178.997C486.219 178.997 487.678 179.512 488.651 180.542C489.624 181.572 490.111 183.174 490.111 185.349V191.529H510.712V170.069C508.423 168.467 504.932 167.007 500.24 165.691Z" fill="#D9D9D9"/>
<path fill-rule="evenodd" clip-rule="evenodd" d="M392.976 161.092L380.274 207.241H377.884V207.839C377.884 211.502 377.417 214.764 376.483 217.625C375.938 219.297 375.233 220.832 374.368 222.229V242.086H462.263V226.369C461.559 225.833 460.885 225.265 460.239 224.664C458.181 222.726 456.486 220.38 455.153 217.625C454.896 217.092 454.651 216.544 454.421 215.98C453.361 213.39 452.588 210.477 452.102 207.241C451.69 204.496 451.484 201.52 451.484 198.311C451.484 195.746 451.622 193.324 451.9 191.044L443.655 161.092H417.487V154.535H415.228V161.092H392.976ZM448.446 217.625L433.939 164.919H402.693L388.186 217.625H384.752V231.702H414.11V217.625H408.959L410.333 210.757H422.007L423.38 217.625H418.23V231.702H451.879V217.625H448.446ZM416.599 184.576H415.741L412.221 201.658H420.118L416.599 184.576Z" fill="#D9D9D9"/>
<path fill-rule="evenodd" clip-rule="evenodd" d="M335.737 161.086V189.38H343.463V201.747H317.196V232.763L321.777 235.85C325.614 238.436 330.055 240.247 334.83 241.493L334.899 241.51L334.967 241.527C339.793 242.716 344.81 243.288 349.984 243.288C360.291 243.288 369.793 240.858 377.166 234.686L377.193 234.663L377.22 234.64C380.522 231.837 382.993 228.527 384.751 224.859V217.625H387.234C387.94 214.497 388.266 211.212 388.266 207.839V189.38H392.558V161.092H362.091V154.535H355.527C354.673 155.45 353.674 156.262 352.529 156.971C350.631 158.125 348.495 159.037 346.121 159.706C343.056 160.57 339.594 161.03 335.737 161.086ZM377.882 178.996H382.174V164.919H346.121V178.996H353.847V212.474C353.847 212.65 353.843 212.822 353.835 212.989C353.763 214.505 353.367 215.65 352.645 216.423C351.901 217.224 350.757 217.625 349.212 217.625C346.236 217.625 344.748 216.08 344.748 212.989V212.131H327.58V227.239C330.212 229.013 333.503 230.415 337.451 231.445C341.4 232.418 345.578 232.904 349.984 232.904C358.74 232.904 365.578 230.844 370.5 226.724C375.421 222.546 377.882 216.251 377.882 207.839V178.996Z" fill="#D9D9D9"/>
<path fill-rule="evenodd" clip-rule="evenodd" d="M610.978 147.014H615.27V161.092H591.835L578.959 134.481L575.011 137.743V147.014H579.131V161.092H546.683V147.014H550.975V108.386H546.683V94.3078H579.131V108.386H575.011V119.717L588.316 108.386H582.908V94.3078H614.841V108.386H610.549L596.213 120.232L610.978 147.014ZM609.461 122.755L617.111 136.63H625.654V171.476H582.106V164.918H550.173V171.476H546.396V164.918H536.299V159.284C539.318 158.249 541.701 157.135 543.449 155.941V133.709H540.591V120.918H543.449V99.4582C541.737 98.2602 539.354 97.1422 536.299 96.1041V83.9238H625.225V118.77H614.284L609.461 122.755Z" fill="#D9D9D9"/>
<path fill-rule="evenodd" clip-rule="evenodd" d="M485.876 161.631L485.857 161.613C485.43 161.211 485.015 160.8 484.614 160.379V147.013H481.18L474.105 121.309C475.027 110.836 478.367 101.525 485.187 94.5133C493.418 86.0515 504.976 82.7212 517.868 82.7212C524.137 82.7212 530.133 83.4797 535.796 85.0858C540.901 86.5187 545.7 88.3586 549.403 90.9505L553.832 94.0509V94.3069H546.683V108.385H550.975V147.013H546.683V161.091H553.832V161.423L549.304 164.515C548.394 165.137 547.421 165.717 546.395 166.259V164.918H513.947V172.558C512.857 172.493 511.779 172.402 510.713 172.283V170.068C508.424 168.466 504.933 167.006 500.24 165.69C496.553 164.643 492.613 164.013 488.419 163.798C487.551 163.124 486.709 162.408 485.894 161.648L485.876 161.631ZM532.976 160.318C537.611 159.002 541.102 157.543 543.448 155.94V133.708H522.846V140.661C522.846 142.835 522.36 144.438 521.387 145.468C520.414 146.498 518.955 147.013 517.009 147.013C515.064 147.013 513.604 146.498 512.631 145.468C511.659 144.438 511.172 142.835 511.172 140.661V114.737C511.172 112.562 511.659 110.96 512.631 109.93C513.604 108.9 515.064 108.385 517.009 108.385C518.955 108.385 520.414 108.9 521.387 109.93C522.36 110.96 522.846 112.562 522.846 114.737V120.917H543.448V99.4573C541.159 97.855 537.668 96.3957 532.976 95.0795C528.34 93.7632 523.304 93.1051 517.868 93.1051C495.435 93.1051 484.218 104.636 484.218 127.699C484.218 139.774 487.137 148.558 492.974 154.052C498.868 159.546 507.223 162.293 518.039 162.293C523.419 162.293 528.397 161.634 532.976 160.318Z" fill="#D9D9D9"/>
<path fill-rule="evenodd" clip-rule="evenodd" d="M435.427 94.3078H466.673L481.18 147.014H484.613V161.092H450.964V147.014H456.114L454.741 140.147H443.066L441.693 147.014H446.843V161.092H417.486V147.014H420.92L435.427 94.3078ZM415.227 161.092H407.102V164.918H433.938L435.742 171.476H460.807C466.308 166.388 474.244 163.802 484.613 163.719C484.785 163.717 484.958 163.717 485.132 163.717C488.582 163.717 491.87 163.982 494.997 164.512V155.758C494.293 155.222 493.618 154.654 492.973 154.053C490.915 152.116 489.22 149.769 487.887 147.014C487.629 146.481 487.385 145.933 487.155 145.369C486.095 142.779 485.322 139.866 484.836 136.63C484.424 133.886 484.218 130.909 484.218 127.7C484.218 125.135 484.356 122.713 484.634 120.434L474.585 83.9238H427.515L413.008 136.63H407.102V139.116H415.227V161.092ZM449.333 113.965H448.474L444.955 131.047H452.852L449.333 113.965Z" fill="#D9D9D9"/>
<path fill-rule="evenodd" clip-rule="evenodd" d="M351.708 164.918V157.448C351.986 157.294 352.26 157.135 352.53 156.971C356.189 154.702 358.367 151.383 359.065 147.014C359.229 145.985 359.311 144.897 359.311 143.752C359.311 140.949 358.904 138.575 358.089 136.63C357.563 135.373 356.866 134.295 356 133.396V118.77H355.912C355.941 118.716 355.971 118.662 356 118.608C357.12 116.505 357.68 114.042 357.68 111.218C357.68 110.233 357.614 109.288 357.483 108.386C356.89 104.323 354.965 101.099 351.708 98.7121V83.9238H408.7V118.77H400.803V128.733H425.611V129.971L420.92 147.014H417.486V161.092H425.611V164.918H402.692L400.887 171.476H382.174V164.918H351.708ZM398.144 139.116V147.014H390.419V108.386H398.316V94.3078H362.091V108.386H366.383V147.014H362.091V161.092H415.227V139.116H398.144Z" fill="#D9D9D9"/>
<path fill-rule="evenodd" clip-rule="evenodd" d="M299.823 147.014H295.531V161.092H334.932C342.143 161.092 348.009 159.718 352.529 156.971C357.05 154.167 359.311 149.761 359.311 143.752C359.311 139.105 358.191 135.636 355.951 133.347C355.488 132.873 354.977 132.45 354.418 132.078C353.962 131.773 353.497 131.486 353.025 131.217C352.989 131.196 352.953 131.176 352.917 131.156C350.093 129.563 346.989 128.588 343.606 128.233C343.547 128.226 343.489 128.221 343.43 128.215V127.356C343.459 127.351 343.488 127.345 343.517 127.339C345.493 126.933 347.524 126.167 349.611 125.039C351.558 123.962 353.277 122.45 354.765 120.502C354.939 120.274 355.109 120.041 355.276 119.802C356.879 117.456 357.68 114.595 357.68 111.218C357.68 105.782 355.677 101.604 351.671 98.6856C347.665 95.767 342.086 94.3078 334.932 94.3078H295.531V108.386H299.823V147.014ZM333.312 118.79C333.419 118.244 333.473 117.637 333.473 116.97V113.879C333.473 111.991 333.044 110.617 332.185 109.759C331.384 108.843 330.154 108.386 328.494 108.386H323.859V122.463H328.494C328.701 122.463 328.901 122.457 329.095 122.443C329.859 122.391 330.518 122.234 331.074 121.974C331.508 121.771 331.878 121.505 332.185 121.176C332.55 120.787 332.837 120.311 333.046 119.747C333.156 119.452 333.245 119.133 333.312 118.79ZM331.348 132.625C330.715 132.375 329.964 132.249 329.095 132.249H323.859V147.014H329.095C330.755 147.014 331.985 146.585 332.786 145.726C333.645 144.811 334.074 143.409 334.074 141.52V137.743C334.074 137.738 334.074 137.732 334.074 137.727C334.072 136.048 333.729 134.777 333.046 133.915C332.965 133.812 332.878 133.714 332.786 133.623C332.404 133.186 331.925 132.854 331.348 132.625ZM363.481 126.182C364.63 127.368 365.589 128.659 366.383 130.023V147.014H362.091V161.092H363.603C362.374 162.49 360.951 163.773 359.328 164.918H346.121V170.391C342.551 171.141 338.798 171.476 334.932 171.476H285.147V136.63H289.439V118.77H285.147V83.9238H334.932C343.346 83.9238 351.372 85.6204 357.786 90.293C359.447 91.503 360.899 92.8479 362.149 94.3078H362.091V108.386H366.383V120.808C365.744 122.486 364.908 124.111 363.851 125.659L363.818 125.708L363.783 125.757C363.684 125.9 363.583 126.041 363.481 126.182Z" fill="#D9D9D9"/>
</svg>
